<svg xmlns="http://www.w3.org/2000/svg" fill="none" viewBox="0 0 15 15">
  <path
    fill="#fff"
    d="M3.4 4.65v9.66H.2V4.65H3.4Zm.2-2.98c.01.47-.15.87-.48 1.19-.34.32-.78.47-1.33.47h-.02c-.53 0-.96-.15-1.28-.47A1.6 1.6 0 0 1 0 1.66C0 1.2.17.8.5.48.84.16 1.27 0 1.81 0s.98.16 1.3.47c.33.32.5.72.5 1.2Zm11.38 7.1v5.54h-3.21V9.15c0-.69-.13-1.22-.4-1.6-.26-.4-.67-.59-1.23-.59-.4 0-.75.11-1.03.34-.27.22-.48.5-.62.83-.07.2-.1.46-.1.8v5.38H5.18a1301.77 1301.77 0 0 0 0-9.2v-.46h3.2v1.4h-.01A4.26 4.26 0 0 1 9.32 5c.23-.18.51-.32.85-.42.33-.1.7-.15 1.11-.15 1.11 0 2 .36 2.68 1.1.68.74 1.02 1.82 1.02 3.24Z"
  />
</svg>
