<svg xmlns="http://www.w3.org/2000/svg" fill="none" viewBox="0 0 17 15">
  <path
    fill="#fff"
    d="M16.7 7.28a2.08 2.08 0 0 0-2.08-2.09c-.45 0-.89.16-1.25.44a9.5 9.5 0 0 0-4.22-1.27l.52-2.96a.2.2 0 0 1 .2-.17h.05l2.62.8a1.67 1.67 0 1 0 .35-1.2L10.26.05A1.46 1.46 0 0 0 8.42 1.2l-.54 3.15a9.6 9.6 0 0 0-4.5 1.27c-.36-.28-.8-.43-1.26-.44A2.08 2.08 0 0 0 .87 8.96v.4c0 2.76 3.34 5 7.5 5 4.17 0 7.5-2.24 7.5-5v-.4a2.08 2.08 0 0 0 .84-1.69ZM4.2 8.1a1.25 1.25 0 1 1 2.5 0 1.25 1.25 0 0 1-2.5 0Zm6.85 3.7a.42.42 0 0 1-.2.26 5.24 5.24 0 0 1-4.94 0 .42.42 0 0 1-.21-.26.43.43 0 0 1 .07-.34l.24-.34a.4.4 0 0 1 .53-.1 4.22 4.22 0 0 0 3.67 0 .4.4 0 0 1 .53.13l.24.34c.06.1.09.2.07.3Zm.24-2.45a1.25 1.25 0 1 1 0-2.5 1.25 1.25 0 0 1 0 2.5Z"
  />
</svg>
