<svg xmlns="http://www.w3.org/2000/svg" fill="none" viewBox="0 0 16 16">
  <g clip-path="url(#a)">
    <mask
      id="b"
      width="16"
      height="16"
      x="0"
      y="0"
      maskUnits="userSpaceOnUse"
      style="mask-type: luminance"
    >
      <path fill="#fff" d="M16 .25H0v15.51h16V.25Z" />
    </mask>
    <g mask="url(#b)">
      <path
        fill="#fff"
        d="M11.88 14.8c-.06.02-.06.03 0 0l.05-.02-.05.01Zm.12-.07c-.03.02-.03.02 0 0l.04-.01c0-.02-.01-.02-.04.01Zm.08-.05c-.03.03-.03.03 0 .01l.04-.02c0-.01-.01-.01-.04.01Zm.08-.04c-.03.02-.03.02 0 0 .02 0 .03-.01.03-.02l-.03.02Zm.1-.07c-.05.04-.07.06-.02.03l.08-.06-.06.03ZM7.48.25l-.24.02A8.07 8.07 0 0 0 1.49 3.5 7.55 7.55 0 0 0 .08 9.13a7.86 7.86 0 0 0 7.16 6.61 8.29 8.29 0 0 0 4.56-.92c-.44-.56-.88-1.12-1.3-1.7l-1.28-1.66-1.6-2.3L6 6.85l-.02 2.26c0 2.19 0 2.28-.03 2.33a.28.28 0 0 1-.14.14c-.05.02-.1.02-.33.02h-.27l-.07-.04a.3.3 0 0 1-.1-.1L5 11.38V8.35l.01-3.04.05-.06a.37.37 0 0 1 .11-.09c.07-.03.1-.03.37-.03.31 0 .37 0 .45.1a6735.87 6735.87 0 0 0 5.08 7.45l1.27 1.86.07-.04a8.1 8.1 0 0 0 1.64-1.4 7.62 7.62 0 0 0 1.88-6.22A7.86 7.86 0 0 0 8.8.28C8.65.25 7.6.23 7.48.24Zm3.27 4.7a.31.31 0 0 1 .16.17c.02.04.02.88.02 2.78v2.73l-.5-.74-.5-.74V7.18l.01-2.04a.33.33 0 0 1 .16-.2c.06-.02.08-.03.33-.03.23 0 .27 0 .32.03Z"
      />
    </g>
  </g>
  <defs>
    <clipPath id="a"><path fill="#fff" d="M0 0h16v16H0z" /></clipPath>
  </defs>
</svg>
