<svg width="24" height="24" viewBox="0 0 24 24" fill="none" xmlns="http://www.w3.org/2000/svg">
<g clip-path="url(#clip0_77_1030)">
<path d="M1.31103 2.90485L4.4886 1.05762L7.60622 2.90485L4.36869 4.75209L1.31103 2.90485Z" fill="#828282"/>
<path d="M5.14795 5.18322L8.32552 3.27441L11.5031 5.18322L8.26556 6.96889L5.14795 5.18322Z" fill="#828282"/>
<path d="M13.2417 5.12072L16.4193 3.21191L19.5369 5.12072L16.2994 6.96796L13.2417 5.12072Z" fill="#C6C6C6"/>
<path d="M17.1987 2.84338L20.3763 0.93457L23.4939 2.84338L20.2564 4.62904L17.1987 2.84338Z" fill="#C6C6C6"/>
<path d="M0.831539 3.52051V7.58443L4.00911 9.43166V5.42932L0.831539 3.52051Z" fill="#00AFD1"/>
<path d="M4.78857 5.7998V9.86372L8.02609 11.6494V7.70862L4.78857 5.7998Z" fill="#00AFD1"/>
<path d="M8.68505 7.9541V12.018L11.8626 13.8037V9.86291L8.68505 7.9541Z" fill="#00AFD1"/>
<path d="M23.7937 3.58105V7.64497L20.5562 9.49221V5.48987L23.7937 3.58105Z" fill="#4AE1FF"/>
<path d="M19.7767 5.86035V9.92427L16.5991 11.7099V7.76916L19.7767 5.86035Z" fill="#4AE1FF"/>
<path d="M15.88 8.01465V12.0786L12.7025 13.8642V9.92346L15.88 8.01465Z" fill="#4AE1FF"/>
<path d="M0.831539 8.38379V12.4477L4.00911 14.2334V10.2926L0.831539 8.38379Z" fill="#00AFD1"/>
<path d="M4.78857 10.6006V14.6645L8.02609 16.5117V12.571L4.78857 10.6006Z" fill="#00AFD1"/>
<path d="M8.68505 12.7568V16.8208L11.8626 18.6064V14.6656L8.68505 12.7568Z" fill="#00AFD1"/>
<path d="M23.7937 8.44629V12.5102L20.5562 14.2959V10.3551L23.7937 8.44629Z" fill="#4AE1FF"/>
<path d="M19.7767 10.7256V14.7895L16.5991 16.5752V12.6344L19.7767 10.7256Z" fill="#4AE1FF"/>
<path d="M15.8802 12.8174V16.8813L12.7026 18.667V14.7262L15.8802 12.8174Z" fill="#4AE1FF"/>
<path d="M0.831539 13.1885V17.2524L4.00911 19.0996V15.0973L0.831539 13.1885Z" fill="#00AFD1"/>
<path d="M4.78847 15.4658V19.5297L8.02599 21.3154V17.3746L4.78847 15.4658Z" fill="#00AFD1"/>
<path d="M8.68505 17.6201V21.684L11.8626 23.4697V19.5289L8.68505 17.6201Z" fill="#00AFD1"/>
<path d="M23.7937 13.249V17.3129L20.5562 19.1602V15.2194L23.7937 13.249Z" fill="#4AE1FF"/>
<path d="M19.7767 15.5264V19.5903L16.5991 21.3759V17.4352L19.7767 15.5264Z" fill="#4AE1FF"/>
<path d="M15.8802 17.6826V21.7465L12.7026 23.5322V19.5914L15.8802 17.6826Z" fill="#4AE1FF"/>
<path d="M12.3431 5.49121L9.16552 7.40002L12.2831 9.18568L12.3431 5.49121Z" fill="#828282"/>
<path d="M12.3427 5.49121L12.2827 9.18568L15.4603 7.40002L12.3427 5.49121Z" fill="#C6C6C6"/>
</g>
<defs>
<clipPath id="clip0_77_1030">
<rect width="23.0905" height="22.4828" fill="white" transform="translate(0.831539 0.93457)"/>
</clipPath>
</defs>
</svg>
