<svg width="16" height="16" viewBox="0 0 16 16" fill="none" xmlns="http://www.w3.org/2000/svg">
<path d="M12.4119 8.61888C12.5998 8.74873 13.0148 8.94089 13.0349 8.52554C13.2579 8.42183 13.0443 8.15763 12.9304 8.07479C12.7092 7.91411 12.4157 7.84985 12.146 7.87429C12.139 7.99828 12.1484 8.12192 12.1577 8.24545C12.1605 8.28188 12.1633 8.3183 12.1656 8.35471C12.176 8.51618 12.2025 8.52539 12.2712 8.54932C12.3061 8.56146 12.3518 8.57738 12.4119 8.61888Z" fill="#F6D2A2"/>
<path fill-rule="evenodd" clip-rule="evenodd" d="M12.9307 8.07492C13.0446 8.15776 13.2582 8.42196 13.0352 8.52567C13.015 8.94102 12.6001 8.74886 12.4121 8.61901C12.3521 8.57752 12.3063 8.56159 12.2715 8.54945C12.2027 8.52552 12.1763 8.51631 12.1659 8.35484C12.1635 8.31843 12.1608 8.28201 12.158 8.24559C12.1486 8.12206 12.1392 7.99841 12.1462 7.87443C12.416 7.84998 12.7094 7.91425 12.9307 8.07492ZM13.0988 8.56674C13.149 8.53467 13.1814 8.4911 13.1938 8.43839C13.2081 8.37787 13.193 8.31678 13.1702 8.26537C13.1247 8.16311 13.0341 8.06774 12.9699 8.02101L12.9698 8.02098C12.7335 7.84932 12.4233 7.78238 12.1402 7.80803L12.0829 7.81323L12.0797 7.87067C12.0724 7.99907 12.0821 8.1264 12.0914 8.24856L12.0915 8.25063C12.0943 8.28712 12.097 8.32315 12.0993 8.35912L12.0993 8.35914C12.1045 8.43867 12.1137 8.49811 12.1409 8.53997C12.1701 8.58505 12.214 8.60016 12.2444 8.61063C12.2462 8.61124 12.2479 8.61183 12.2496 8.61241C12.2826 8.62393 12.3216 8.63751 12.3742 8.67385L12.3742 8.67386C12.471 8.7407 12.6332 8.82916 12.7802 8.84316C12.8552 8.8503 12.9357 8.83884 12.9992 8.78432C13.0556 8.73588 13.0882 8.66234 13.0988 8.56674Z" fill="black"/>
<path d="M3.58829 8.6716C3.40034 8.80147 2.98537 8.99364 2.96523 8.57829C2.74221 8.47457 2.95579 8.21037 3.06974 8.12754C3.29091 7.96688 3.71048 7.90685 3.98025 7.93128C3.98726 8.05515 3.97789 8.17868 3.96852 8.3021C3.96575 8.33863 3.96298 8.37516 3.96064 8.41168C3.95084 8.56386 3.87745 8.57913 3.78021 8.59937C3.72195 8.61149 3.65513 8.6254 3.58829 8.6716Z" fill="#F6D2A2"/>
<path fill-rule="evenodd" clip-rule="evenodd" d="M3.58856 8.67174C3.40061 8.80161 2.98564 8.99378 2.9655 8.57843C2.74248 8.4747 2.95606 8.21051 3.07001 8.12768C3.29118 7.96702 3.71075 7.90698 3.98052 7.93142C3.98753 8.05528 3.97816 8.17882 3.96879 8.30224C3.96602 8.33877 3.96325 8.3753 3.96091 8.41181C3.95111 8.564 3.87772 8.57927 3.78048 8.59951C3.72222 8.61163 3.6554 8.62554 3.58856 8.67174ZM2.90188 8.6195C2.91243 8.71509 2.94508 8.78864 3.00148 8.83707C3.06497 8.89159 3.14545 8.90305 3.22042 8.89591C3.36745 8.8819 3.5297 8.79344 3.62645 8.72658L3.62646 8.72658C3.68103 8.68886 3.73558 8.67695 3.79406 8.66478C3.79612 8.66435 3.79822 8.66391 3.80035 8.66347C3.84391 8.65447 3.90068 8.64274 3.94512 8.60721C3.99706 8.56568 4.02188 8.50238 4.02744 8.4161L4.02744 8.41609C4.02975 8.38002 4.03249 8.34388 4.03527 8.30728L4.03543 8.30522C4.04469 8.18316 4.05434 8.05593 4.04708 7.92765L4.04383 7.87021L3.98653 7.86502C3.84472 7.85218 3.66608 7.8616 3.49443 7.89468C3.3238 7.92755 3.15272 7.9852 3.03083 8.07374L3.03081 8.07375C2.96653 8.12048 2.87597 8.21586 2.83048 8.31812C2.8076 8.36953 2.79259 8.43063 2.80682 8.49115C2.81922 8.54385 2.85166 8.58742 2.90188 8.6195Z" fill="black"/>
<path d="M2.96533 8.5784C3.02572 8.55588 3.08972 8.53997 3.1307 8.48535Z" fill="#C6B198"/>
<path d="M3.92402 3.63004C2.33389 3.18287 3.55207 0.938346 4.8927 2.08573L3.92402 3.63004ZM10.8948 1.89704C12.221 0.836035 13.4617 2.98003 11.8438 3.47422L10.8948 1.89704Z" fill="#6AD7E5"/>
<path fill-rule="evenodd" clip-rule="evenodd" d="M4.8927 2.08573L3.92402 3.63004C2.33389 3.18287 3.55207 0.938346 4.8927 2.08573ZM4.80518 2.0998L3.89449 3.55166C3.54492 3.44101 3.35577 3.23854 3.27901 3.01692C3.19793 2.78285 3.23832 2.51631 3.36706 2.29325C3.49569 2.0704 3.70899 1.89716 3.96533 1.84544C4.20802 1.79649 4.49887 1.85458 4.80518 2.0998ZM10.9825 1.91353L11.8737 3.39455C12.2304 3.27329 12.4233 3.06803 12.5018 2.84772C12.5846 2.61544 12.5445 2.3548 12.4159 2.13624C12.2874 1.9178 12.0733 1.7467 11.8161 1.69155C11.5731 1.63944 11.2841 1.68924 10.9825 1.91353ZM10.8948 1.89704C12.221 0.836035 13.4617 2.98003 11.8438 3.47422L10.8948 1.89704Z" fill="black"/>
<path d="M11.2127 13.6613C11.5324 13.8591 12.1641 14.4865 11.6845 14.7766C11.2237 15.1985 10.9184 14.2841 10.514 14.1615C10.6882 13.9249 10.9089 13.7093 11.2127 13.6613ZM5.68078 14.2574C5.30552 14.3155 4.96191 14.7631 4.64908 14.935C4.35428 15.1108 4.24151 14.8788 4.21498 14.8317C4.16878 14.8106 4.17265 14.8513 4.10132 14.7795C3.82805 14.3482 4.51847 13.9238 4.80903 13.7096C5.21375 13.6278 5.46738 13.9787 5.68078 14.2574Z" fill="#F6D2A2"/>
<path fill-rule="evenodd" clip-rule="evenodd" d="M11.6845 14.7766C12.1641 14.4865 11.5324 13.8591 11.2127 13.6613C10.9331 13.7054 10.7238 13.8916 10.5565 14.1055C10.542 14.124 10.5278 14.1427 10.514 14.1615C10.5355 14.168 10.5567 14.1768 10.5777 14.1875C10.7044 14.2519 10.8222 14.3863 10.9396 14.5202C11.1686 14.7813 11.3961 15.0406 11.6845 14.7766ZM10.619 14.1339C10.7034 14.1793 10.7803 14.2492 10.8507 14.3225C10.8979 14.3714 10.9442 14.4243 10.9893 14.4757L10.9907 14.4773C11.0366 14.5297 11.0812 14.5805 11.1261 14.627C11.2174 14.7216 11.3009 14.7885 11.3823 14.8116C11.4556 14.8324 11.5378 14.8204 11.6395 14.7274L11.6444 14.7229L11.65 14.7195C11.7527 14.6574 11.789 14.5834 11.7914 14.5057C11.794 14.4223 11.7579 14.324 11.692 14.22C11.5665 14.0218 11.3513 13.8307 11.1987 13.7314C10.9606 13.7774 10.7749 13.9379 10.619 14.1339ZM4.64908 14.935C4.76631 14.8706 4.88786 14.7675 5.01377 14.6606C5.20232 14.5006 5.40066 14.3323 5.60895 14.2732C5.63276 14.2665 5.65671 14.2611 5.68078 14.2574C5.67439 14.2491 5.66796 14.2406 5.66149 14.2322C5.65285 14.2209 5.64414 14.2095 5.63535 14.198C5.43114 13.9317 5.18543 13.6335 4.80903 13.7096C4.78077 13.7305 4.74873 13.7533 4.71417 13.7779C4.3933 14.0064 3.85462 14.3901 4.10132 14.7795C4.1473 14.8258 4.16204 14.8253 4.17908 14.8248C4.18847 14.8245 4.19856 14.8242 4.21498 14.8317C4.21596 14.8334 4.21706 14.8354 4.21828 14.8376C4.2501 14.8954 4.36518 15.1043 4.64908 14.935ZM4.1538 14.7376C4.16644 14.7499 4.17395 14.7557 4.17757 14.7581C4.18041 14.758 4.18528 14.7579 4.19024 14.7581C4.20597 14.7587 4.22296 14.762 4.24263 14.771L4.26241 14.78L4.27307 14.799C4.27409 14.8008 4.27516 14.8027 4.2763 14.8047C4.29193 14.8328 4.3187 14.8809 4.36629 14.9101C4.39011 14.9247 4.41967 14.9347 4.45778 14.9331C4.4966 14.9314 4.54825 14.9175 4.61493 14.8778L4.61695 14.8766L4.61697 14.8766C4.68968 14.8366 4.76601 14.7796 4.84731 14.7132C4.88777 14.6801 4.92881 14.6453 4.9709 14.6096L4.97091 14.6096C5.01284 14.574 5.05578 14.5375 5.0993 14.5019C5.24154 14.3856 5.39804 14.2708 5.56563 14.2167C5.47632 14.101 5.38272 13.9864 5.27505 13.9004C5.14833 13.7992 5.00754 13.7421 4.83629 13.7723C4.80976 13.7917 4.78081 13.8123 4.75021 13.8341C4.60716 13.9361 4.42808 14.0637 4.29241 14.2087C4.20829 14.2986 4.14629 14.3898 4.11966 14.4795C4.09453 14.564 4.10001 14.6493 4.1538 14.7376Z" fill="black"/>
<path d="M3.99024 3.07132C3.78046 2.96034 3.62655 2.80963 3.75488 2.56698C3.87369 2.34234 4.09439 2.36675 4.30421 2.47771L3.99024 3.07132ZM11.5907 2.86034C11.8004 2.74936 11.9544 2.59865 11.826 2.356C11.7072 2.13138 11.4865 2.15577 11.2767 2.26673L11.5907 2.86034Z" fill="black"/>
<path d="M13.035 8.52564C12.9746 8.50313 12.9106 8.48722 12.8696 8.43262Z" fill="#C6B198"/>
<path d="M7.8407 0.999878C9.43261 0.999878 10.925 1.22757 11.7029 2.75703C12.4012 4.47135 12.1529 6.31995 12.2594 8.13178C12.3508 9.68748 12.5536 11.4848 11.8318 12.9265C11.0727 14.4433 9.17545 14.8248 7.61237 14.7689C6.38461 14.725 4.90149 14.3244 4.2086 13.2027C3.39563 11.8868 3.78054 9.93 3.83954 8.46575C3.90949 6.73121 3.36977 4.99145 3.93956 3.29419C4.53067 1.53355 6.1249 1.13565 7.8407 0.999878Z" fill="#6AD7E5"/>
<path fill-rule="evenodd" clip-rule="evenodd" d="M11.8318 12.9265L11.7722 12.8967C12.1271 12.1878 12.256 11.3888 12.2839 10.5696C12.3065 9.9073 12.2631 9.23616 12.2214 8.59122C12.2115 8.43773 12.2017 8.28573 12.1928 8.13569C12.1661 7.68077 12.1616 7.22391 12.159 6.76907C12.1588 6.72796 12.1586 6.68687 12.1583 6.6458C12.1561 6.23192 12.1539 5.82 12.1364 5.41068C12.0981 4.51193 11.9863 3.63086 11.6422 2.78476C10.8834 1.29587 9.43169 1.0668 7.84334 1.06654C6.98844 1.13433 6.17226 1.2671 5.4977 1.59758C4.82543 1.92692 4.29218 2.45335 4.00276 3.31541C3.72205 4.15155 3.71384 5.00034 3.76864 5.86176C3.78436 6.10892 3.80537 6.35774 3.82646 6.60761C3.87855 7.22458 3.93117 7.84792 3.90615 8.46843C3.89429 8.76274 3.86932 9.077 3.84362 9.40035C3.83721 9.48096 3.83076 9.56214 3.82446 9.64371C3.7928 10.0534 3.76473 10.4743 3.76375 10.89C3.76177 11.7228 3.86872 12.5257 4.26532 13.1677L4.2086 13.2027C3.55824 12.15 3.67448 10.6871 3.77721 9.39442C3.8029 9.0712 3.82774 8.75862 3.83954 8.46575C3.86438 7.84963 3.81231 7.23286 3.76036 6.61757C3.66605 5.50063 3.57216 4.38858 3.93956 3.29419C4.53067 1.53355 6.1249 1.13565 7.8407 0.999878C9.43261 0.999878 10.925 1.22757 11.7029 2.75703C12.2108 4.00401 12.2179 5.32204 12.225 6.64528C12.2277 7.1412 12.2303 7.63785 12.2594 8.13178C12.2682 8.28097 12.2779 8.43239 12.2879 8.58551C12.3812 10.029 12.4843 11.6231 11.8318 12.9265ZM11.8318 12.9265L11.7722 12.8967C11.4023 13.6357 10.7542 14.1008 10.0008 14.3748C9.24669 14.649 8.39077 14.73 7.61475 14.7023C6.39284 14.6586 4.93993 14.2598 4.26532 13.1677L4.2086 13.2027C4.90149 14.3244 6.38461 14.725 7.61237 14.7689C9.17545 14.8248 11.0727 14.4433 11.8318 12.9265Z" fill="black"/>
<path d="M8.46118 5.35662C8.45536 5.27933 8.4579 5.14098 8.45747 5.06821L7.93058 4.8894C7.92788 4.97408 7.92327 5.14078 7.91673 5.22427C7.90302 5.39947 7.88941 5.5733 7.91182 5.75095C7.96353 5.87156 8.07194 5.95625 8.20091 5.97648C8.22377 5.96615 8.24753 5.95769 8.27119 5.94927C8.344 5.92334 8.41581 5.89778 8.45747 5.81911C8.48455 5.66672 8.47265 5.50875 8.46118 5.35662Z" fill="white"/>
<path fill-rule="evenodd" clip-rule="evenodd" d="M8.3908 5.11598L7.9944 4.98146C7.99168 5.06587 7.98795 5.16874 7.9832 5.22947C7.96966 5.40238 7.95703 5.56647 7.97678 5.73296C8.01826 5.82264 8.09799 5.88655 8.19322 5.90725C8.21207 5.89955 8.23072 5.89291 8.24773 5.88685L8.24883 5.88646C8.32026 5.86103 8.36538 5.84282 8.39372 5.79641C8.41663 5.65705 8.40599 5.51133 8.39471 5.36163C8.39013 5.30084 8.39048 5.20387 8.39074 5.13033C8.39076 5.12544 8.39078 5.12065 8.3908 5.11598ZM8.45747 5.81911C8.41581 5.89778 8.344 5.92334 8.27119 5.94927C8.24753 5.95769 8.22377 5.96615 8.20091 5.97648C8.07194 5.95625 7.96353 5.87156 7.91182 5.75095C7.88941 5.5733 7.90302 5.39947 7.91673 5.22427C7.92176 5.16004 7.92565 5.04656 7.92841 4.95907C7.92879 4.94675 7.92916 4.93494 7.9295 4.92386C7.92989 4.91135 7.93025 4.89976 7.93058 4.8894L8.45747 5.06821C8.45758 5.0865 8.4575 5.10893 8.45741 5.13349C8.45715 5.20666 8.45682 5.29876 8.46118 5.35662C8.47265 5.50875 8.48455 5.66672 8.45747 5.81911Z" fill="black"/>
<path d="M4.87666 3.40564C5.2471 4.85214 7.56298 4.4818 7.47572 3.03081C7.37108 1.29305 4.52248 1.62837 4.87666 3.40564Z" fill="white"/>
<path fill-rule="evenodd" clip-rule="evenodd" d="M7.40918 3.03482C7.38424 2.62076 7.19717 2.33507 6.93855 2.16171C6.6779 1.987 6.33996 1.92354 6.01275 1.9662C5.68557 2.00885 5.37552 2.15674 5.16915 2.39641C4.96463 2.63394 4.85759 2.96643 4.94169 3.39084C5.11662 4.07016 5.7472 4.32842 6.33783 4.23887C6.92963 4.14914 7.4501 3.71536 7.40918 3.03482ZM4.87666 3.40564C5.2471 4.85214 7.56298 4.4818 7.47572 3.03081C7.37108 1.29305 4.52248 1.62837 4.87666 3.40564Z" fill="black"/>
<path d="M8.12144 3.13694C8.40726 4.79845 11.1231 4.35914 10.733 2.68343C10.3833 1.18077 8.02648 1.59671 8.12144 3.13694Z" fill="white"/>
<path fill-rule="evenodd" clip-rule="evenodd" d="M10.6681 2.69854L10.6681 2.69854C10.5849 2.3412 10.3839 2.10121 10.1319 1.96213C9.8784 1.82226 9.56978 1.78265 9.27197 1.83477C8.67622 1.93903 8.14488 2.40357 8.18777 3.12922C8.25647 3.52284 8.46729 3.78887 8.73821 3.94491C9.01167 4.1024 9.3497 4.14952 9.66969 4.09589C9.98976 4.04225 10.2859 3.88886 10.478 3.65279C10.6687 3.41861 10.7612 3.09828 10.6681 2.69854ZM8.12144 3.13694C8.40726 4.79845 11.1231 4.35914 10.733 2.68343C10.3833 1.18077 8.02648 1.59671 8.12144 3.13694Z" fill="black"/>
<path d="M5.12402 3.16979C5.12402 3.28213 5.16522 3.38987 5.23856 3.4693C5.3119 3.54874 5.41137 3.59337 5.51509 3.59337C5.61881 3.59337 5.71828 3.54874 5.79162 3.4693C5.86496 3.38987 5.90616 3.28213 5.90616 3.16979C5.90616 3.05745 5.86496 2.94971 5.79162 2.87028C5.71828 2.79084 5.61881 2.74622 5.51509 2.74622C5.41137 2.74622 5.3119 2.79084 5.23856 2.87028C5.16522 2.94971 5.12402 3.05745 5.12402 3.16979Z" fill="black"/>
<path d="M5.60059 3.26536C5.60044 3.27961 5.60271 3.29375 5.60728 3.30697C5.61184 3.32019 5.61861 3.33221 5.62718 3.34235C5.63576 3.35249 5.64598 3.36054 5.65724 3.36603C5.6685 3.37153 5.68058 3.37436 5.69279 3.37436C5.70499 3.37436 5.71707 3.37153 5.72834 3.36603C5.7396 3.36054 5.74981 3.35249 5.75839 3.34235C5.76696 3.33221 5.77373 3.32019 5.77829 3.30697C5.78286 3.29375 5.78513 3.27961 5.78498 3.26536C5.78513 3.25112 5.78286 3.23697 5.77829 3.22376C5.77373 3.21054 5.76696 3.19852 5.75839 3.18838C5.74981 3.17824 5.7396 3.17019 5.72834 3.1647C5.71707 3.1592 5.70499 3.15637 5.69279 3.15637C5.68058 3.15637 5.6685 3.1592 5.65724 3.1647C5.64598 3.17019 5.63576 3.17824 5.62718 3.18838C5.61861 3.19852 5.61184 3.21054 5.60728 3.22376C5.60271 3.23697 5.60044 3.25112 5.60059 3.26536Z" fill="white"/>
<path d="M8.40723 3.06432C8.40723 3.17666 8.44774 3.2844 8.51986 3.36383C8.59198 3.44327 8.68979 3.4879 8.79178 3.4879C8.89376 3.4879 8.99158 3.44327 9.06369 3.36383C9.13581 3.2844 9.17633 3.17666 9.17633 3.06432C9.17633 2.95198 9.13581 2.84424 9.06369 2.76481C8.99158 2.68537 8.89376 2.64075 8.79178 2.64075C8.68979 2.64075 8.59198 2.68537 8.51986 2.76481C8.44774 2.84424 8.40723 2.95198 8.40723 3.06432Z" fill="black"/>
<path d="M7.33177 5.10721C7.16114 5.52072 7.42691 6.34761 7.88987 5.7377C7.85677 5.4754 7.90446 5.17463 7.9128 4.91223L7.33177 5.10721Z" fill="white"/>
<path fill-rule="evenodd" clip-rule="evenodd" d="M7.82052 5.71828C7.80693 5.58894 7.81097 5.45311 7.81926 5.32083C7.82259 5.26778 7.82654 5.21587 7.83041 5.16498C7.83452 5.11105 7.83854 5.05825 7.84164 5.00643L7.38293 5.16036C7.3529 5.24748 7.34148 5.35438 7.34841 5.46164C7.35611 5.58067 7.38597 5.69331 7.43126 5.77343C7.47724 5.85476 7.5301 5.88905 7.582 5.88799C7.63534 5.88689 7.71634 5.84897 7.82052 5.71828ZM7.33177 5.10721C7.16114 5.52072 7.42691 6.34761 7.88987 5.7377C7.86732 5.55901 7.88227 5.36247 7.89672 5.17237C7.90158 5.10841 7.90639 5.04517 7.9097 4.98359C7.91099 4.95953 7.91205 4.93573 7.9128 4.91223L7.33177 5.10721Z" fill="black"/>
<path fill-rule="evenodd" clip-rule="evenodd" d="M15.2613 5.54757C15.2322 5.51297 15.2158 5.46603 15.2158 5.41709H15.2158C15.2156 5.39266 15.2194 5.36841 15.2271 5.34576C15.2348 5.3231 15.2462 5.30248 15.2607 5.2851C15.2751 5.26772 15.2923 5.25391 15.3113 5.24449C15.3303 5.23507 15.3507 5.23022 15.3713 5.23022C15.3918 5.23022 15.4122 5.23507 15.4312 5.24449C15.4502 5.25391 15.4674 5.26772 15.4819 5.2851C15.4963 5.30248 15.5077 5.3231 15.5154 5.34576C15.5231 5.36841 15.527 5.39266 15.5267 5.41709C15.5267 5.46603 15.5103 5.51297 15.4812 5.54757C15.452 5.58218 15.4125 5.60162 15.3713 5.60162C15.33 5.60162 15.2905 5.58218 15.2613 5.54757Z" fill="white"/>
<path d="M7.3902 4.31086C7.0722 4.33798 6.81224 4.7161 6.97759 5.01524C7.19656 5.41144 7.68531 4.98019 7.98971 5.02059C8.34008 5.02776 8.6271 5.39103 8.90847 5.08625C9.22143 4.74728 8.77377 4.41713 8.42385 4.26953L7.3902 4.31086Z" fill="#F6D2A2"/>
<path fill-rule="evenodd" clip-rule="evenodd" d="M7.03594 4.98299L7.03594 4.98299C7.08184 5.06604 7.13743 5.10024 7.1981 5.11211C7.26355 5.12492 7.34214 5.11311 7.43341 5.08721C7.47836 5.07445 7.52439 5.0589 7.5717 5.04259C7.57835 5.04029 7.58504 5.03798 7.59175 5.03566C7.63221 5.02166 7.67362 5.00734 7.71419 4.99475C7.80589 4.9663 7.90415 4.94299 7.99471 4.95402C8.09198 4.95662 8.18261 4.98335 8.26498 5.01433C8.30327 5.02873 8.3408 5.04446 8.37647 5.05941C8.37964 5.06074 8.3828 5.06207 8.38595 5.06338C8.42493 5.07971 8.46158 5.09488 8.49731 5.10759C8.56934 5.13321 8.63086 5.14623 8.68749 5.13939C8.74154 5.13286 8.79829 5.10731 8.85949 5.04103L8.85949 5.04103C8.92812 4.96669 8.94991 4.89914 8.94738 4.83921C8.94476 4.77739 8.91578 4.7131 8.86301 4.64818C8.75922 4.5205 8.57836 4.40894 8.41149 4.33675L7.39443 4.37742C7.26017 4.3894 7.1338 4.47626 7.05927 4.59622C6.98496 4.71582 6.96744 4.85906 7.03594 4.98299ZM7.3902 4.31086C7.0722 4.33798 6.81224 4.7161 6.97759 5.01524C7.11835 5.26993 7.3706 5.18269 7.61369 5.09861C7.74876 5.0519 7.88099 5.00616 7.98971 5.02059C8.1176 5.0232 8.23705 5.07327 8.35086 5.12097C8.54886 5.20395 8.7298 5.27978 8.90847 5.08625C9.22143 4.74728 8.77377 4.41713 8.42385 4.26953L7.3902 4.31086Z" fill="black"/>
<path d="M7.35049 4.29433C7.32694 3.74341 8.37738 3.67452 8.50141 4.13569C8.62515 4.59575 7.40221 4.70262 7.35049 4.29433Z" fill="black"/>
</svg>
