<svg width="16" height="16" viewBox="0 0 16 16" fill="none" xmlns="http://www.w3.org/2000/svg">
<g clip-path="url(#clip0_98_796)">
<mask id="mask0_98_796" style="mask-type:luminance" maskUnits="userSpaceOnUse" x="0" y="0" width="16" height="16">
<path d="M15.4628 0H0V16H15.4628V0Z" fill="white"/>
</mask>
<g mask="url(#mask0_98_796)">
<path d="M14.0777 1.11246C13.8551 1.65347 13.5674 2.13308 13.2489 2.56282C11.8446 1.13164 9.88011 0.22229 7.71221 0.22229C3.45324 0.22229 -0.0268555 3.6832 -0.0268555 7.95752C-0.0268555 10.1906 0.928539 12.2012 2.44413 13.6208L2.7319 13.878C4.07099 15.0098 5.81296 15.6966 7.70837 15.6966C11.7755 15.6966 15.1252 12.5235 15.413 8.51774C15.6431 6.5724 15.0523 4.08224 14.0777 1.11246ZM3.56451 13.6861C3.34197 13.9738 2.92758 14.0046 2.63981 13.782C2.35204 13.5594 2.32134 13.1451 2.54389 12.8573C2.76643 12.5695 3.18082 12.5389 3.46859 12.7614C3.74101 12.9839 3.78705 13.3983 3.56451 13.6861ZM14.0317 11.3724C12.1324 13.9086 8.04987 13.0492 5.44843 13.1758C5.44843 13.1758 4.98418 13.2065 4.52374 13.2717C4.52374 13.2717 4.70024 13.1911 4.92278 13.1105C6.75685 12.4736 7.62016 12.3432 8.73669 11.7714C10.8278 10.7009 12.9151 8.35656 13.3333 5.93166C12.5353 8.26067 10.1103 10.2712 7.90789 11.0846C6.39232 11.6448 3.66427 12.1858 3.66427 12.1858L3.553 12.1206C1.7036 11.2113 1.63837 7.19016 5.02254 5.8971C6.50741 5.32157 7.91173 5.64003 9.52325 5.26018C11.2307 4.86114 13.2106 3.58344 14.0048 1.91054C14.8911 4.6079 15.977 8.78632 14.0317 11.3724Z" fill="#6CB52D"/>
<path d="M3.56444 13.6869C3.34189 13.9747 2.9275 14.0054 2.63974 13.7828C2.35197 13.5603 2.32127 13.1459 2.54381 12.8581C2.76636 12.5704 3.18074 12.5396 3.46851 12.7622C3.74093 12.9847 3.78698 13.3991 3.56444 13.6869Z" fill="#6CB52D"/>
<path d="M14.0319 11.3728C12.1326 13.909 8.0501 13.0495 5.44866 13.1761C5.44866 13.1761 4.98439 13.2068 4.52396 13.272C4.52396 13.272 4.70046 13.1914 4.923 13.1109C6.75703 12.474 7.62034 12.3435 8.73692 11.7718C10.828 10.7013 12.9153 8.35694 13.3336 5.93198C12.5355 8.26099 10.1105 10.2716 7.90812 11.085C6.39255 11.6452 3.66449 12.1862 3.66449 12.1862L3.55322 12.121C1.70381 11.2116 1.63859 7.19048 5.02276 5.89747C6.50764 5.32192 7.91196 5.6404 9.52348 5.26053C11.2309 4.86149 13.2108 3.58379 14.005 1.91089C14.8913 4.60825 15.9772 8.78664 14.0319 11.3728Z" fill="white"/>
</g>
</g>
<defs>
<clipPath id="clip0_98_796">
<rect width="15.4667" height="16" fill="white"/>
</clipPath>
</defs>
</svg>
