<svg width="23" height="24" viewBox="0 0 23 24" fill="none" xmlns="http://www.w3.org/2000/svg">
<g clip-path="url(#clip0_77_902)">
<mask id="mask0_77_902" style="mask-type:luminance" maskUnits="userSpaceOnUse" x="0" y="0" width="23" height="24">
<path d="M22.3828 0.297852H0.365147V23.0804H22.3828V0.297852Z" fill="white"/>
</mask>
<g mask="url(#mask0_77_902)">
<path d="M20.4105 1.88178C20.0936 2.65212 19.6839 3.33506 19.2304 3.94696C17.2308 1.90909 14.4335 0.614258 11.3466 0.614258C5.28225 0.614258 0.326897 5.54228 0.326897 11.6285C0.326897 14.8083 1.68729 17.6712 3.84536 19.6926L4.25512 20.0587C6.16186 21.6704 8.64228 22.6483 11.3412 22.6483C17.1324 22.6483 21.902 18.1301 22.3118 12.4262C22.6396 9.65626 21.7982 6.11049 20.4105 1.88178ZM5.44069 19.7855C5.1238 20.1953 4.53375 20.239 4.124 19.9221C3.71424 19.6052 3.67052 19.0152 3.98741 18.6054C4.30429 18.1956 4.89434 18.152 5.3041 18.4688C5.692 18.7857 5.75756 19.3758 5.44069 19.7855ZM20.345 16.491C17.6406 20.1024 11.8274 18.8786 8.12321 19.0589C8.12321 19.0589 7.46216 19.1026 6.80655 19.1955C6.80655 19.1955 7.05786 19.0807 7.37474 18.966C9.9863 18.0591 11.2156 17.8733 12.8054 17.0592C15.783 15.5349 18.7551 12.1967 19.3506 8.74389C18.2142 12.0602 14.7613 14.9231 11.6253 16.0812C9.46723 16.8789 5.58274 17.6493 5.58274 17.6493L5.4243 17.5564C2.79091 16.2616 2.69803 10.5359 7.51679 8.69468C9.63112 7.87518 11.6307 8.32864 13.9254 7.78777C16.3567 7.21957 19.1758 5.40024 20.3067 3.01817C21.5688 6.85898 23.1149 12.8087 20.345 16.491Z" fill="#6CB52D"/>
<path d="M5.44047 19.7858C5.12359 20.1956 4.53353 20.2393 4.12378 19.9224C3.71402 19.6055 3.67031 19.0155 3.98719 18.6057C4.30408 18.196 4.89412 18.1522 5.30388 18.4691C5.69179 18.786 5.75735 19.376 5.44047 19.7858Z" fill="#6CB52D"/>
<path d="M20.3447 16.4914C17.6404 20.1028 11.8273 18.879 8.12303 19.0593C8.12303 19.0593 7.46196 19.1029 6.80634 19.1958C6.80634 19.1958 7.05767 19.0811 7.37455 18.9664C9.98604 18.0594 11.2153 17.8737 12.8052 17.0596C15.7828 15.5353 18.7549 12.1972 19.3504 8.74423C18.214 12.0605 14.7611 14.9234 11.6251 16.0817C9.46705 16.8794 5.58253 17.6497 5.58253 17.6497L5.4241 17.5568C2.79071 16.2619 2.69783 10.5362 7.5166 8.69509C9.63094 7.87557 11.6306 8.32905 13.9252 7.78815C16.3564 7.21995 19.1756 5.40062 20.3065 3.01855C21.5686 6.85936 23.1147 12.809 20.3447 16.4914Z" fill="white"/>
</g>
</g>
<defs>
<clipPath id="clip0_77_902">
<rect width="22.0232" height="22.7826" fill="white" transform="translate(0.365147 0.297852)"/>
</clipPath>
</defs>
</svg>
