<svg xmlns="http://www.w3.org/2000/svg" fill="none" viewBox="0 0 64 64">
  <g opacity=".8">
    <rect width="64" height="64" fill="#090A0A" rx="12.18" />
    <path
      fill="url(#a)"
      fill-rule="evenodd"
      d="M30.34 8.18c1.03-.6 2.3-.6 3.32 0L51.8 18.66a3.31 3.31 0 0 1 1.66 2.86v20.96c0 1.18-.63 2.27-1.66 2.87L33.66 55.82c-1.03.6-2.3.6-3.32 0L12.2 45.35a3.31 3.31 0 0 1-1.65-2.87V21.52c0-1.18.63-2.27 1.65-2.86L30.34 8.18ZM25.82 18.2c-.73-.46-1.57.41-1.07 1.12l3.9 5.5a3.15 3.15 0 0 1-1.16 4.64l-3.33 1.66a3.15 3.15 0 0 0-.3 5.47l14.32 9.2c.73.47 1.57-.4 1.07-1.11l-3.9-5.5a3.16 3.16 0 0 1 1.16-4.64l3.33-1.67a3.15 3.15 0 0 0 .3-5.46l-14.32-9.2Z"
      clip-rule="evenodd"
    />
  </g>
  <defs>
    <linearGradient
      id="a"
      x1="32"
      x2="32"
      y1="7.73"
      y2="56.27"
      gradientUnits="userSpaceOnUse"
    >
      <stop stop-color="#00E88D" />
      <stop offset="1" stop-color="#00E0DA" />
    </linearGradient>
  </defs>
</svg>
