<svg width="612" height="350" viewBox="0 0 612 350" fill="none" xmlns="http://www.w3.org/2000/svg">
<ellipse cx="476.907" cy="168.896" rx="93.408" ry="17.4823" fill="url(#paint0_linear_436_3228)"/>
<g filter="url(#filter0_b_436_3228)">
<ellipse cx="476.907" cy="158.297" rx="101.174" ry="17.4823" fill="url(#paint1_linear_436_3228)" fill-opacity="0.2"/>
<path d="M577.599 158.297C577.599 159.301 577.012 160.357 575.715 161.453C574.422 162.544 572.487 163.619 569.948 164.656C564.876 166.729 557.507 168.605 548.366 170.185C530.092 173.342 504.827 175.298 476.907 175.298C448.988 175.298 423.723 173.342 405.448 170.185C396.307 168.605 388.939 166.729 383.866 164.656C381.328 163.619 379.392 162.544 378.1 161.453C376.803 160.357 376.215 159.301 376.215 158.297C376.215 157.293 376.803 156.237 378.1 155.142C379.392 154.05 381.328 152.975 383.866 151.938C388.939 149.866 396.307 147.99 405.448 146.41C423.723 143.252 448.988 141.297 476.907 141.297C504.827 141.297 530.092 143.252 548.366 146.41C557.507 147.99 564.876 149.866 569.948 151.938C572.487 152.975 574.422 154.05 575.715 155.142C577.012 156.237 577.599 157.293 577.599 158.297Z" stroke="url(#paint2_linear_436_3228)" stroke-width="0.963263"/>
</g>
<path d="M443.043 149.491C441.019 150.548 430.536 154.87 428.304 156.036C426.072 157.203 424.832 157.191 423.069 156.346C421.306 155.501 410.149 150.984 408.14 150.02C407.135 149.539 406.607 149.133 406.607 148.749V144.907C406.607 144.907 421.131 141.737 423.476 140.893C425.821 140.05 426.634 140.019 428.63 140.752C430.625 141.485 442.557 143.643 444.529 144.367L444.528 148.156C444.528 148.536 444.073 148.952 443.043 149.491Z" fill="#B44848"/>
<path d="M443.042 145.67C441.019 146.727 430.535 151.049 428.303 152.215C426.072 153.382 424.832 153.371 423.069 152.526C421.306 151.681 410.15 147.163 408.14 146.2C406.13 145.237 406.088 144.574 408.062 143.799C410.036 143.024 421.131 138.66 423.476 137.817C425.821 136.974 426.634 136.943 428.63 137.676C430.625 138.409 441.046 142.567 443.018 143.291C444.99 144.016 445.066 144.613 443.042 145.67Z" fill="#E17676"/>
<path d="M443.043 143.272C441.019 144.33 430.536 148.651 428.304 149.818C426.072 150.984 424.832 150.973 423.069 150.128C421.306 149.284 410.149 144.765 408.14 143.802C407.135 143.321 406.607 142.915 406.607 142.531V138.688C406.607 138.688 421.131 135.518 423.476 134.675C425.821 133.832 426.634 133.801 428.63 134.534C430.625 135.267 442.557 137.425 444.529 138.149L444.528 141.938C444.528 142.317 444.073 142.734 443.043 143.272Z" fill="#B44848"/>
<path d="M443.042 139.452C441.019 140.509 430.535 144.831 428.303 145.997C426.072 147.164 424.832 147.152 423.069 146.307C421.306 145.463 410.15 140.944 408.14 139.982C406.13 139.019 406.088 138.356 408.062 137.581C410.036 136.806 421.131 132.442 423.476 131.599C425.821 130.756 426.634 130.725 428.63 131.458C430.625 132.191 441.046 136.349 443.018 137.073C444.99 137.798 445.066 138.395 443.042 139.452Z" fill="#E17676"/>
<path d="M443.043 136.824C441.019 137.882 430.536 142.203 428.304 143.37C426.072 144.536 424.832 144.525 423.069 143.68C421.306 142.835 410.149 138.317 408.14 137.354C407.135 136.873 406.607 136.467 406.607 136.083V132.24C406.607 132.24 421.131 129.071 423.476 128.227C425.821 127.384 426.634 127.354 428.63 128.086C430.625 128.819 442.557 130.977 444.529 131.701L444.528 135.49C444.528 135.869 444.073 136.286 443.043 136.824Z" fill="#B44848"/>
<path d="M443.042 133.004C441.018 134.061 430.535 138.383 428.303 139.549C426.072 140.716 424.832 140.704 423.069 139.86C421.306 139.015 410.149 134.497 408.14 133.534C406.13 132.571 406.088 131.908 408.062 131.133C410.036 130.358 421.131 125.995 423.476 125.151C425.821 124.308 426.634 124.277 428.629 125.01C430.625 125.743 441.046 129.901 443.018 130.625C444.99 131.35 445.066 131.947 443.042 133.004Z" fill="#E17676"/>
<path d="M430.202 129.266L426.942 129.605L426.212 131.366L425.033 129.401L421.268 129.062L424.077 128.046L423.234 126.487L425.865 127.519L428.344 126.705L427.674 128.317L430.202 129.266ZM426.017 137.808L419.932 135.278L428.651 133.936L426.017 137.808ZM417.581 130.245C420.155 130.245 422.241 131.055 422.241 132.055C422.241 133.056 420.155 133.866 417.581 133.866C415.007 133.866 412.921 133.056 412.921 132.055C412.921 131.055 415.007 130.245 417.581 130.245Z" fill="white"/>
<path d="M434.055 129.747L439.215 131.792L434.059 133.834L434.055 129.747Z" fill="#D45658"/>
<path d="M428.346 132.011L434.055 129.747L434.06 133.834L433.5 134.053L428.346 132.011Z" fill="#B24746"/>
<path d="M489.294 147.459C489.509 145.663 489.445 145.399 490.783 145.69L491.123 145.72C492.152 145.767 493.498 145.554 494.289 145.187C495.991 144.397 497.001 143.078 495.322 143.424C491.493 144.215 491.23 142.918 491.23 142.918C495.273 136.919 496.964 129.303 495.504 127.439C491.525 122.354 484.637 124.758 484.522 124.821L484.485 124.827C483.728 124.67 482.882 124.577 481.93 124.561C480.197 124.533 478.883 125.016 477.885 125.772C477.885 125.772 465.597 120.709 466.169 132.138C466.29 134.57 469.654 150.536 473.666 145.713C475.132 143.95 476.549 142.459 476.549 142.459C477.252 142.926 478.095 143.165 478.978 143.079L479.047 143.021C479.025 143.24 479.034 143.454 479.074 143.707C478.041 144.862 478.344 145.065 476.278 145.49C474.188 145.921 475.416 146.688 476.217 146.888C477.189 147.131 479.438 147.476 480.958 145.349L480.897 145.591C481.303 145.916 481.276 147.922 481.333 149.356C481.39 150.79 481.486 152.128 481.779 152.917C482.071 153.706 482.416 155.737 485.131 155.155C487.4 154.67 489.135 153.97 489.294 147.459Z" fill="#5490BC"/>
<path d="M484.245 156.574C483.044 156.574 482.261 156.11 481.787 155.661C481.07 154.985 480.785 154.113 480.615 153.593L480.542 153.375C480.2 152.452 480.084 151.122 480.015 149.41C480.004 149.153 479.997 148.888 479.989 148.607C479.984 148.402 479.976 148.144 479.966 147.875C479.533 148.081 479.074 148.226 478.601 148.306C477.755 148.451 476.844 148.404 475.895 148.167C475.226 147.999 474.53 147.652 474.133 147.116C472.978 148.128 471.875 147.991 471.274 147.791C470.215 147.437 469.267 146.444 468.375 144.755C467.74 143.552 467.126 141.985 466.55 140.096C465.546 136.807 464.908 133.343 464.852 132.205C464.673 128.645 465.632 126.099 467.7 124.639C470.961 122.335 475.904 123.69 477.705 124.305C478.916 123.575 480.34 123.22 481.95 123.246C482.814 123.26 483.637 123.336 484.402 123.472C485.199 123.221 486.774 122.861 488.578 122.884C491.9 122.923 494.653 124.218 496.539 126.628C497.885 128.347 497.219 131.958 496.703 133.957C495.976 136.769 494.703 139.76 493.14 142.364C493.564 142.367 494.179 142.316 495.054 142.136C496.779 141.779 497.284 142.705 497.421 143.119C497.97 144.78 495.585 146.036 494.841 146.381C493.888 146.824 492.334 147.093 491.061 147.035L491.005 147.032L490.671 147.002L490.638 147.281L490.606 147.554C490.52 150.853 490.049 152.943 489.079 154.324C488.062 155.772 486.649 156.177 485.405 156.444C484.98 156.535 484.594 156.574 484.245 156.574ZM481.717 144.564C482.492 145.185 482.56 146.352 482.621 148.534C482.629 148.806 482.636 149.064 482.646 149.304C482.675 150.033 482.743 151.74 483.011 152.461C483.048 152.563 483.082 152.666 483.118 152.776C483.416 153.688 483.565 154.145 484.853 153.87C485.934 153.638 486.49 153.43 486.925 152.811C487.557 151.91 487.911 150.099 487.976 147.428L489.291 147.459L487.985 147.303L488.023 146.977C488.148 145.901 488.238 145.125 488.957 144.611C489.534 144.199 490.191 144.239 490.714 144.333C490.139 143.899 489.98 143.389 489.938 143.18L489.828 142.64L490.136 142.182C491.912 139.548 493.376 136.31 494.154 133.299C494.953 130.204 494.709 128.561 494.466 128.251C491.24 124.129 485.647 125.831 485.063 126.024L484.964 126.077L484.469 126.169L484.215 126.117C483.516 125.972 482.74 125.891 481.907 125.878C480.599 125.856 479.544 126.165 478.679 126.821L478.079 127.276L477.382 126.99C475.894 126.381 471.522 125.158 469.215 126.791C467.935 127.698 467.352 129.475 467.482 132.073C467.524 132.931 468.107 136.178 469.069 139.327C470.397 143.679 471.604 145.125 472.109 145.293C472.197 145.323 472.425 145.145 472.652 144.872C473.599 143.737 474.58 142.63 475.593 141.553L476.355 140.752L477.276 141.363C477.647 141.61 478.056 141.75 478.477 141.776L480.673 139.903L480.355 143.15C480.348 143.223 480.344 143.323 480.373 143.507L480.469 144.122L480.053 144.586L480.006 144.64L481.212 145.197L481.717 144.564Z" fill="#5490BC"/>
<path d="M495.323 143.422C491.493 144.212 491.23 142.915 491.23 142.915C495.274 136.916 496.964 129.3 495.505 127.436C491.526 122.352 484.637 124.756 484.522 124.818L484.485 124.825C483.729 124.668 482.882 124.574 481.93 124.559C480.197 124.531 478.883 125.013 477.886 125.77C477.886 125.77 465.597 120.707 466.169 132.136C466.29 134.568 469.653 150.534 473.665 145.711C475.132 143.948 476.548 142.457 476.548 142.457C477.252 142.924 478.094 143.163 478.977 143.077L479.046 143.019C479.025 143.238 479.035 143.452 479.074 143.706C478.04 144.86 478.344 145.063 476.278 145.488C474.187 145.919 475.415 146.686 476.217 146.886C477.189 147.129 479.438 147.474 480.957 145.347L480.897 145.589C481.302 145.914 481.586 147.699 481.538 149.318C481.491 150.936 481.459 152.047 481.778 152.915C482.097 153.783 482.415 155.736 485.131 155.154C487.4 154.668 488.576 153.407 488.74 151.305C488.856 149.81 489.119 150.032 489.135 148.695L489.346 148.063C489.59 146.037 489.385 145.383 490.783 145.687L491.123 145.717C492.152 145.764 493.499 145.551 494.289 145.184C495.992 144.394 497.001 143.076 495.323 143.422Z" fill="#4696D7"/>
<path d="M484.412 155.754C482.148 155.754 481.431 153.962 481.137 153.228C480.708 152.154 480.615 147.984 480.711 144.565C480.712 144.507 480.725 144.45 480.748 144.398C480.772 144.345 480.806 144.298 480.848 144.258C480.889 144.218 480.939 144.187 480.993 144.167C481.047 144.146 481.104 144.137 481.162 144.139C481.219 144.14 481.276 144.153 481.329 144.177C481.381 144.2 481.429 144.234 481.468 144.276C481.508 144.318 481.539 144.367 481.559 144.421C481.58 144.474 481.59 144.532 481.588 144.589C481.478 148.533 481.634 152.107 481.952 152.903C482.448 154.143 483.201 155.227 485.328 154.772C487.347 154.338 488.103 153.573 488.44 151.62C488.699 150.121 489.21 145.858 489.273 145.017C489.277 144.96 489.293 144.903 489.319 144.852C489.345 144.801 489.38 144.755 489.424 144.717C489.468 144.679 489.519 144.651 489.573 144.633C489.628 144.615 489.686 144.608 489.743 144.612C489.859 144.621 489.967 144.675 490.043 144.764C490.119 144.852 490.157 144.966 490.148 145.082C490.082 145.958 489.574 150.213 489.305 151.769C488.908 154.076 487.879 155.122 485.512 155.63C485.109 155.716 484.744 155.754 484.412 155.754ZM472.137 146.998C471.939 146.997 471.742 146.965 471.555 146.902C470.084 146.411 468.684 144.016 467.392 139.783C466.408 136.561 465.785 133.198 465.73 132.104C465.568 128.864 466.403 126.571 468.211 125.29C471.788 122.756 477.805 125.169 478.06 125.273C478.167 125.317 478.253 125.402 478.298 125.51C478.343 125.617 478.344 125.738 478.3 125.846C478.256 125.953 478.171 126.039 478.064 126.084C477.956 126.129 477.836 126.13 477.728 126.086C477.67 126.062 471.9 123.751 468.716 126.008C467.17 127.104 466.46 129.14 466.607 132.061C466.652 132.982 467.235 136.264 468.231 139.527C469.384 143.306 470.697 145.691 471.832 146.069C472.01 146.129 472.553 146.309 473.328 145.377C474.232 144.291 475.17 143.234 476.14 142.207C476.222 142.126 476.331 142.08 476.446 142.079C476.561 142.078 476.671 142.122 476.754 142.201C476.837 142.281 476.885 142.389 476.889 142.504C476.893 142.618 476.851 142.73 476.774 142.815C476.761 142.828 475.441 144.208 474.003 145.938C473.322 146.758 472.669 146.998 472.137 146.998ZM491.23 143.3C491.15 143.3 491.072 143.279 491.004 143.238C490.936 143.197 490.88 143.138 490.843 143.068C490.806 142.997 490.788 142.918 490.792 142.839C490.796 142.759 490.822 142.683 490.866 142.617C494.954 136.551 496.389 129.223 495.16 127.652C493.613 125.676 491.429 124.644 488.669 124.584C486.624 124.54 485 125.062 484.734 125.153L484.667 125.181C484.4 125.264 484.195 125.118 484.118 124.947C484.074 124.849 484.067 124.738 484.099 124.636C484.131 124.533 484.2 124.446 484.292 124.39C484.304 124.383 484.344 124.366 484.41 124.342C484.861 124.177 486.51 123.682 488.553 123.705C491.608 123.737 494.132 124.915 495.85 127.112C496.664 128.151 496.665 130.545 495.856 133.681C495.03 136.878 493.477 140.313 491.594 143.107C491.51 143.233 491.371 143.3 491.23 143.3ZM491.439 146.108C490.741 146.108 490.115 146.01 489.741 145.785C489.356 145.555 489.282 145.241 489.273 145.075C489.168 143.23 490.186 142.908 490.705 142.762C490.633 142.652 490.53 142.524 490.423 142.391C490.121 142.012 489.706 141.494 489.386 140.719C489.336 140.598 489.18 140.317 488.998 139.991C488.014 138.226 485.966 134.553 487.281 132.673C487.89 131.802 489.103 131.46 490.889 131.651C490.364 130.05 487.861 125.041 481.923 124.944C480.137 124.914 478.672 125.463 477.572 126.575C475.108 129.063 475.197 133.566 475.198 133.611C475.2 133.668 475.19 133.726 475.169 133.78C475.149 133.833 475.118 133.883 475.078 133.924C475.038 133.966 474.991 134 474.938 134.023C474.885 134.047 474.829 134.06 474.771 134.061C474.714 134.063 474.656 134.053 474.602 134.032C474.549 134.011 474.499 133.98 474.458 133.941C474.416 133.901 474.382 133.854 474.359 133.801C474.335 133.748 474.322 133.692 474.321 133.634C474.315 133.434 474.224 128.709 476.948 125.957C478.224 124.669 479.902 124.033 481.938 124.067C485.736 124.129 488.182 126.06 489.564 127.669C491.071 129.423 491.809 131.357 491.87 132.003C491.916 132.483 491.571 132.579 491.501 132.594L491.343 132.597C489.59 132.316 488.465 132.511 488 133.176C486.999 134.606 488.937 138.08 489.764 139.564C489.975 139.942 490.127 140.216 490.197 140.385C490.469 141.044 490.824 141.487 491.108 141.842C491.359 142.155 491.576 142.427 491.653 142.745C491.689 142.808 492.2 143.565 495.234 142.939C495.994 142.782 496.45 142.916 496.59 143.337C496.864 144.166 495.326 145.134 494.474 145.529C493.711 145.884 492.493 146.108 491.439 146.108ZM490.148 145.002C490.244 145.1 490.725 145.267 491.723 145.224C492.609 145.186 493.544 144.993 494.105 144.733C494.823 144.4 495.302 144.027 495.55 143.773L495.412 143.798C493.473 144.198 492.101 144.145 491.334 143.639C491.283 143.605 491.233 143.568 491.186 143.529C491.103 143.562 491.026 143.583 490.971 143.599C490.537 143.72 490.088 143.847 490.148 145.002ZM477.618 147.454C477.136 147.454 476.629 147.388 476.111 147.259C475.574 147.125 474.67 146.721 474.684 146.057C474.699 145.313 475.782 145.089 476.19 145.005C477.662 144.702 477.758 144.581 478.218 143.996C478.352 143.826 478.519 143.614 478.747 143.36C479.085 142.981 479.454 142.79 479.845 142.79C480.117 142.79 480.34 142.882 480.487 142.943C480.957 143.138 481.349 143.609 481.51 144.172C481.655 144.68 481.586 145.169 481.315 145.548C480.424 146.795 479.146 147.454 477.618 147.454ZM475.632 146.095C475.764 146.197 476.029 146.334 476.324 146.407C476.773 146.52 477.208 146.577 477.618 146.577C478.868 146.577 479.872 146.059 480.601 145.038C480.753 144.825 480.707 144.555 480.667 144.413C480.581 144.115 480.37 143.844 480.152 143.754C480.033 143.705 479.935 143.667 479.845 143.667C479.797 143.667 479.649 143.667 479.401 143.945C479.23 144.137 479.065 144.336 478.908 144.539C478.335 145.267 478.072 145.514 476.367 145.865C475.951 145.95 475.738 146.037 475.632 146.095ZM479.006 144.071C478.901 144.071 478.8 144.033 478.72 143.965C478.641 143.896 478.588 143.802 478.573 143.698C478.562 143.626 478.554 143.552 478.551 143.479C477.433 143.458 476.355 142.978 475.536 142.124C474.501 141.044 474.03 139.548 474.244 138.019C474.476 136.359 474.389 134.893 474.342 134.106C474.329 133.887 474.32 133.729 474.321 133.619C474.322 133.481 474.324 133.112 475.555 132.488C475.993 132.266 476.871 131.879 477.83 131.78C479.418 131.616 480.466 132.323 480.779 133.773C481.625 137.685 480.846 139.416 480.277 140.68C480.171 140.915 480.071 141.138 479.991 141.353L479.921 141.543C479.62 142.349 479.36 143.045 479.44 143.565C479.449 143.622 479.446 143.68 479.432 143.736C479.419 143.792 479.394 143.845 479.36 143.891C479.326 143.938 479.283 143.977 479.234 144.007C479.184 144.037 479.13 144.057 479.073 144.065L479.006 144.071ZM475.201 133.741L475.218 134.054C475.266 134.872 475.357 136.394 475.112 138.141C474.936 139.402 475.321 140.632 476.169 141.517C476.839 142.216 477.721 142.602 478.628 142.602H478.647C478.748 142.174 478.917 141.722 479.098 141.236L479.168 141.047C479.259 140.804 479.365 140.569 479.477 140.32C480.024 139.103 480.706 137.589 479.921 133.958C479.766 133.239 479.389 132.823 478.769 132.686C477.496 132.405 475.599 133.362 475.201 133.741ZM477.849 133.555C477.827 133.71 478.133 134.124 478.533 134.179C478.931 134.235 479.272 133.911 479.294 133.756C479.316 133.601 479.01 133.43 478.611 133.374C478.211 133.319 477.87 133.4 477.849 133.555ZM478.624 134.332L478.512 134.324C478.265 134.29 478.015 134.134 477.843 133.907C477.783 133.827 477.685 133.672 477.704 133.534C477.732 133.332 477.979 133.211 478.364 133.211C478.45 133.211 478.54 133.217 478.63 133.23C478.841 133.259 479.036 133.32 479.181 133.4C479.431 133.54 479.45 133.696 479.438 133.776C479.407 134 479.052 134.332 478.624 134.332ZM477.995 133.581C478.007 133.676 478.244 133.992 478.553 134.035L478.625 134.04C478.909 134.04 479.122 133.815 479.147 133.742C479.121 133.692 478.938 133.568 478.59 133.519C478.516 133.509 478.44 133.503 478.365 133.503C478.141 133.503 478.023 133.553 477.995 133.581ZM489.986 133.238C490.008 133.393 489.702 133.808 489.303 133.863C488.905 133.919 488.563 133.595 488.541 133.44C488.52 133.285 488.826 133.113 489.225 133.058C489.624 133.002 489.964 133.083 489.986 133.238ZM489.211 133.942C488.827 133.942 488.496 133.644 488.469 133.45C488.437 133.217 488.82 133.04 489.214 132.986C489.301 132.973 489.387 132.967 489.47 132.967C489.811 132.967 490.036 133.067 490.059 133.228C490.073 133.333 489.993 133.493 489.856 133.639C489.764 133.734 489.573 133.899 489.313 133.935L489.211 133.942ZM489.471 133.114C489.395 133.114 489.315 133.119 489.235 133.13C488.839 133.186 488.602 133.345 488.614 133.43C488.627 133.524 488.88 133.796 489.211 133.796L489.293 133.79C489.51 133.76 489.672 133.619 489.75 133.538C489.871 133.41 489.92 133.289 489.914 133.248C489.906 133.194 489.76 133.114 489.471 133.114ZM490.561 142.146C490.481 142.146 490.403 142.124 490.335 142.083C490.267 142.042 490.211 141.984 490.174 141.914C490.136 141.843 490.119 141.764 490.123 141.685C490.127 141.606 490.152 141.529 490.197 141.463C491.131 140.067 490.96 138.644 490.795 137.268C490.724 136.681 490.652 136.075 490.67 135.493C490.69 134.894 490.766 134.4 490.839 133.923C490.926 133.357 491.009 132.822 490.975 132.187C490.972 132.13 490.98 132.072 490.999 132.018C491.018 131.964 491.048 131.914 491.086 131.871C491.125 131.828 491.171 131.793 491.223 131.768C491.275 131.743 491.332 131.729 491.389 131.726C491.447 131.723 491.504 131.731 491.559 131.75C491.613 131.769 491.663 131.799 491.706 131.837C491.749 131.876 491.784 131.922 491.809 131.974C491.833 132.026 491.848 132.083 491.851 132.14C491.89 132.866 491.797 133.471 491.707 134.056C491.637 134.508 491.565 134.975 491.548 135.521C491.531 136.036 491.597 136.584 491.666 137.163C491.842 138.626 492.042 140.285 490.926 141.951C490.886 142.011 490.832 142.06 490.768 142.094C490.704 142.128 490.633 142.146 490.561 142.146Z" fill="white"/>
<path d="M551.974 149.384C550.013 149.331 548.517 149.513 547.237 150.053C546.873 150.206 546.293 150.21 546.233 150.666C546.433 150.875 546.464 151.188 546.623 151.446C546.929 151.94 547.445 152.603 547.905 152.951C548.408 153.331 548.927 153.736 549.466 154.065C550.425 154.65 551.496 154.984 552.419 155.57C552.964 155.915 553.504 156.35 554.035 156.74C554.298 156.933 554.474 157.232 554.815 157.353V157.298C554.636 157.069 554.59 156.756 554.425 156.517L553.701 155.793C552.992 154.852 552.093 154.026 551.137 153.341C550.375 152.793 548.669 152.054 548.351 151.167L548.295 151.112C548.836 151.05 549.468 150.855 549.967 150.721C550.805 150.497 551.554 150.555 552.419 150.331L553.589 149.997V149.774C553.152 149.325 552.84 148.731 552.363 148.325C551.115 147.263 549.754 146.201 548.351 145.316C547.573 144.825 546.612 144.506 545.788 144.09C545.51 143.95 545.023 143.877 544.84 143.644C544.407 143.092 544.171 142.392 543.837 141.749C543.138 140.402 542.451 138.931 541.831 137.513C541.408 136.547 541.132 135.594 540.605 134.727C538.074 130.566 535.351 128.055 531.131 125.587C530.233 125.062 529.152 124.855 528.01 124.584C527.397 124.547 526.784 124.509 526.171 124.472C525.797 124.316 525.407 123.858 525.056 123.636C523.659 122.753 520.073 120.832 519.038 123.358C518.384 124.952 520.015 126.506 520.598 127.314C521.008 127.881 521.532 128.516 521.824 129.153C522.017 129.572 522.05 129.992 522.215 130.435C522.619 131.527 522.972 132.715 523.496 133.723C523.761 134.234 524.053 134.771 524.388 135.228C524.593 135.508 524.945 135.631 525 136.064C524.657 136.545 524.637 137.293 524.444 137.903C523.572 140.649 523.901 144.063 525.168 146.095C525.557 146.72 526.473 148.058 527.732 147.544C528.833 147.096 528.587 145.705 528.902 144.479C528.973 144.201 528.929 143.997 529.069 143.81V143.866L530.072 145.872C530.815 147.068 532.132 148.318 533.249 149.161C533.828 149.598 534.284 150.354 535.032 150.61V150.554H534.977C534.832 150.328 534.605 150.234 534.419 150.053C533.983 149.625 533.498 149.093 533.138 148.604C532.122 147.225 531.225 145.716 530.407 144.145C530.016 143.395 529.677 142.568 529.348 141.805C529.221 141.51 529.223 141.065 528.958 140.913C528.598 141.472 528.067 141.925 527.788 142.585C527.342 143.64 527.285 144.928 527.119 146.263C527.022 146.298 527.065 146.274 527.008 146.318C526.231 146.131 525.959 145.332 525.67 144.647C524.941 142.913 524.805 140.122 525.447 138.126C525.613 137.61 526.364 135.984 526.06 135.507C525.915 135.031 525.436 134.756 525.168 134.392C524.837 133.942 524.506 133.351 524.276 132.831C523.679 131.48 523.4 129.963 522.772 128.596C522.471 127.943 521.963 127.282 521.546 126.702C521.084 126.058 520.566 125.584 520.208 124.806C520.081 124.53 519.908 124.087 520.097 123.803C520.156 123.611 520.242 123.531 520.431 123.469C520.754 123.22 521.655 123.552 521.991 123.691C522.885 124.063 523.631 124.416 524.388 124.918C524.751 125.159 525.119 125.625 525.558 125.754H526.06C526.844 125.934 527.723 125.81 528.456 126.032C529.752 126.426 530.913 127.039 531.967 127.704C535.179 129.733 537.805 132.62 539.602 136.064C539.891 136.619 540.016 137.148 540.271 137.736C540.784 138.922 541.431 140.143 541.942 141.303C542.452 142.46 542.949 143.628 543.67 144.591C544.049 145.097 545.512 145.369 546.178 145.65C546.644 145.847 547.408 146.053 547.85 146.318C548.693 146.827 549.511 147.433 550.302 147.991C550.697 148.269 551.913 148.881 551.974 149.384ZM527.063 128.151C526.654 128.144 526.365 128.196 526.059 128.262V128.318H526.115C526.31 128.719 526.654 128.977 526.895 129.321C527.081 129.712 527.267 130.102 527.452 130.492L527.508 130.437C527.853 130.193 528.011 129.804 528.009 129.21C527.871 129.065 527.851 128.882 527.731 128.709C527.572 128.477 527.264 128.346 527.063 128.151Z" fill="#0F97D1"/>
<line x1="33.9189" y1="237.748" x2="578.081" y2="237.748" stroke="url(#paint3_linear_436_3228)" stroke-width="1.89597" stroke-dasharray="3.79 3.79"/>
<ellipse cx="251.206" cy="308.648" rx="64.608" ry="17.4823" fill="url(#paint4_linear_436_3228)"/>
<g filter="url(#filter1_b_436_3228)">
<ellipse cx="251.206" cy="298.05" rx="69.9794" ry="17.4823" fill="url(#paint5_linear_436_3228)" fill-opacity="0.2"/>
<path d="M320.704 298.05C320.704 300.188 318.958 302.363 315.441 304.44C311.957 306.498 306.884 308.368 300.572 309.944C287.957 313.096 270.503 315.05 251.206 315.05C231.909 315.05 214.456 313.096 201.84 309.944C195.529 308.368 190.455 306.498 186.971 304.44C183.455 302.363 181.708 300.188 181.708 298.05C181.708 295.911 183.455 293.736 186.971 291.66C190.455 289.602 195.529 287.732 201.84 286.155C214.456 283.003 231.909 281.049 251.206 281.049C270.503 281.049 287.957 283.003 300.572 286.155C306.884 287.732 311.957 289.602 315.441 291.66C318.958 293.736 320.704 295.911 320.704 298.05Z" stroke="url(#paint6_linear_436_3228)" stroke-width="0.963263"/>
</g>
<path d="M262.796 256.997L270.813 260.919C272.027 261.539 272.195 261.986 272.195 262.628L272.23 292.152C272.23 292.94 271.805 293.25 270.631 293.911L262.825 297.823C262.5 297.975 262.24 298.159 260.29 298.159C260.29 298.159 261.977 298.174 261.977 296.825V258.165C261.987 257.78 261.845 257.407 261.581 257.126C261.318 256.844 260.955 256.678 260.57 256.663C262.299 256.663 262.796 256.997 262.796 256.997Z" fill="#4B9AE9"/>
<path d="M230.983 283.302C230.703 283.614 230.548 284.019 230.548 284.439C230.548 284.858 230.703 285.263 230.983 285.575C230.983 285.575 233.03 287.478 233.634 288.024C234.238 288.57 235.133 288.323 235.713 287.885C236.293 287.448 261.975 267.844 261.975 267.844V258.165C261.986 257.78 261.844 257.406 261.58 257.124C261.317 256.843 260.953 256.677 260.567 256.663C260.296 256.671 260.038 256.783 259.848 256.976L230.983 283.302Z" fill="#2A63A4"/>
<path d="M233.641 266.897C233.893 266.649 234.233 266.51 234.587 266.51C234.941 266.51 235.281 266.649 235.533 266.897L261.978 286.937V296.826C261.978 298.182 260.288 298.157 260.288 298.157C260.059 298.122 259.851 298.007 259.698 297.834L230.783 271.348C230.539 271.104 230.402 270.773 230.402 270.428C230.402 270.083 230.539 269.752 230.783 269.508L233.641 266.897Z" fill="#3478C6"/>
<ellipse cx="255.323" cy="172.244" rx="64.608" ry="17.4823" fill="url(#paint7_linear_436_3228)"/>
<g filter="url(#filter2_b_436_3228)">
<ellipse cx="255.323" cy="161.645" rx="69.9794" ry="17.4823" fill="url(#paint8_linear_436_3228)" fill-opacity="0.2"/>
<path d="M324.821 161.645C324.821 163.783 323.075 165.958 319.558 168.035C316.074 170.093 311.001 171.963 304.689 173.54C292.074 176.691 274.62 178.646 255.323 178.646C236.026 178.646 218.573 176.691 205.957 173.54C199.645 171.963 194.572 170.093 191.088 168.035C187.572 165.958 185.825 163.783 185.825 161.645C185.825 159.507 187.572 157.332 191.088 155.255C194.572 153.197 199.645 151.327 205.957 149.75C218.573 146.599 236.026 144.644 255.323 144.644C274.62 144.644 292.074 146.599 304.689 149.75C311.001 151.327 316.074 153.197 319.558 155.255C323.075 157.332 324.821 159.507 324.821 161.645Z" stroke="url(#paint9_linear_436_3228)" stroke-width="0.963263"/>
</g>
<path fill-rule="evenodd" clip-rule="evenodd" d="M259.572 127.498C260.606 127.728 261.257 128.752 261.028 129.785L253.361 164.285C253.131 165.318 252.108 165.97 251.074 165.74C250.041 165.511 249.389 164.487 249.619 163.453L257.286 128.953C257.515 127.92 258.539 127.269 259.572 127.498ZM247.095 135.681C247.844 136.429 247.844 137.643 247.095 138.391L238.867 146.619L247.095 154.847C247.844 155.596 247.844 156.809 247.095 157.558C246.347 158.306 245.133 158.306 244.385 157.558L234.801 147.975C234.053 147.226 234.053 146.012 234.801 145.264L244.385 135.681C245.133 134.932 246.347 134.932 247.095 135.681ZM263.551 135.681C264.3 134.932 265.513 134.932 266.262 135.681L275.845 145.264C276.594 146.012 276.594 147.226 275.845 147.975L266.262 157.558C265.513 158.306 264.3 158.306 263.551 157.558C262.803 156.809 262.803 155.596 263.551 154.847L271.779 146.619L263.551 138.391C262.803 137.643 262.803 136.429 263.551 135.681Z" fill="url(#paint10_linear_436_3228)"/>
<ellipse cx="256.578" cy="75.3866" rx="64.608" ry="17.4823" fill="url(#paint11_linear_436_3228)"/>
<g filter="url(#filter3_b_436_3228)">
<ellipse cx="256.578" cy="64.788" rx="69.9794" ry="17.4823" fill="url(#paint12_linear_436_3228)" fill-opacity="0.2"/>
<path d="M326.075 64.788C326.075 66.9262 324.329 69.1013 320.813 71.1782C317.329 73.236 312.255 75.1059 305.944 76.6826C293.328 79.8343 275.874 81.7887 256.578 81.7887C237.281 81.7887 219.827 79.8343 207.211 76.6826C200.9 75.1059 195.826 73.236 192.342 71.1782C188.826 69.1013 187.08 66.9262 187.08 64.788C187.08 62.6498 188.826 60.4747 192.342 58.3978C195.826 56.34 200.9 54.4701 207.211 52.8934C219.827 49.7417 237.281 47.7873 256.578 47.7873C275.874 47.7873 293.328 49.7417 305.944 52.8934C312.255 54.4701 317.329 56.34 320.813 58.3978C324.329 60.4747 326.075 62.6498 326.075 64.788Z" stroke="url(#paint13_linear_436_3228)" stroke-width="0.963263"/>
</g>
<path fill-rule="evenodd" clip-rule="evenodd" d="M249.678 31.5126C249.678 30.0098 249.678 29.2584 249.97 28.6844C250.227 28.1795 250.638 27.769 251.143 27.5117C251.717 27.2192 252.468 27.2192 253.971 27.2192L259.184 27.2192C260.687 27.2192 261.439 27.2192 262.013 27.5117C262.517 27.769 262.928 28.1795 263.185 28.6844C263.478 29.2584 263.478 30.0098 263.478 31.5126V36.7259C263.478 38.2287 263.478 38.9801 263.185 39.5541C262.928 40.059 262.517 40.4695 262.013 40.7268C261.439 41.0192 260.687 41.0192 259.184 41.0192L258.51 41.0192V44.4698L273.952 44.4698C275.01 44.4698 275.868 45.3277 275.868 46.3859C275.868 47.4441 275.01 48.302 273.952 48.302L268.466 48.302V51.7526L269.157 51.7526C270.66 51.7526 271.411 51.7526 271.985 52.045C272.49 52.3023 272.901 52.7128 273.158 53.2177C273.45 53.7917 273.45 54.5431 273.45 56.0459V61.2592C273.45 62.762 273.45 63.5135 273.158 64.0874C272.901 64.5923 272.49 65.0028 271.985 65.2601C271.411 65.5526 270.66 65.5526 269.157 65.5526L263.944 65.5526C262.441 65.5526 261.689 65.5526 261.115 65.2601C260.61 65.0028 260.2 64.5923 259.943 64.0874C259.65 63.5135 259.65 62.762 259.65 61.2592V56.0459C259.65 54.5431 259.65 53.7917 259.943 53.2177C260.2 52.7128 260.61 52.3023 261.115 52.045C261.689 51.7526 262.441 51.7526 263.944 51.7526L264.634 51.7526V48.302L248.93 48.302V51.7526L249.621 51.7526C251.124 51.7526 251.875 51.7526 252.449 52.045C252.954 52.3023 253.365 52.7128 253.622 53.2177C253.914 53.7917 253.914 54.5431 253.914 56.0459V61.2592C253.914 62.762 253.914 63.5135 253.622 64.0874C253.365 64.5923 252.954 65.0028 252.449 65.2601C251.875 65.5526 251.124 65.5526 249.621 65.5526L244.408 65.5526C242.905 65.5526 242.153 65.5526 241.579 65.2601C241.075 65.0028 240.664 64.5923 240.407 64.0874C240.114 63.5135 240.114 62.762 240.114 61.2592V56.0459C240.114 54.5431 240.114 53.7917 240.407 53.2177C240.664 52.7128 241.075 52.3023 241.579 52.045C242.153 51.7526 242.905 51.7526 244.408 51.7526L245.098 51.7526V48.302L239.204 48.302C238.145 48.302 237.288 47.4441 237.288 46.3859C237.288 45.3277 238.145 44.4698 239.204 44.4698L254.678 44.4698V41.0192L253.971 41.0192C252.468 41.0192 251.717 41.0192 251.143 40.7268C250.638 40.4695 250.227 40.059 249.97 39.5541C249.678 38.9801 249.678 38.2287 249.678 36.7259V31.5126ZM253.971 31.0526L259.184 31.0526C259.353 31.0526 259.505 31.0526 259.644 31.053C259.644 31.1917 259.644 31.3436 259.644 31.5126V36.7259C259.644 36.8949 259.644 37.0467 259.644 37.1855C259.505 37.1859 259.353 37.1859 259.184 37.1859L253.971 37.1859C253.802 37.1859 253.65 37.1859 253.511 37.1855C253.511 37.0467 253.511 36.8949 253.511 36.7259V31.5126C253.511 31.3436 253.511 31.1917 253.511 31.053C253.65 31.0526 253.802 31.0526 253.971 31.0526ZM249.621 55.5859L244.408 55.5859C244.239 55.5859 244.087 55.5859 243.948 55.5863C243.948 55.7251 243.948 55.8769 243.948 56.0459V61.2592C243.948 61.4282 243.948 61.5801 243.948 61.7189C244.087 61.7192 244.239 61.7192 244.408 61.7192L249.621 61.7192C249.79 61.7192 249.942 61.7192 250.081 61.7189C250.081 61.5801 250.081 61.4282 250.081 61.2592V56.0459C250.081 55.8769 250.081 55.7251 250.081 55.5863C249.942 55.5859 249.79 55.5859 249.621 55.5859ZM263.944 55.5859L269.157 55.5859C269.326 55.5859 269.478 55.5859 269.617 55.5863C269.617 55.7251 269.617 55.8769 269.617 56.0459V61.2592C269.617 61.4282 269.617 61.5801 269.617 61.7189C269.478 61.7192 269.326 61.7192 269.157 61.7192L263.944 61.7192C263.775 61.7192 263.623 61.7192 263.484 61.7189C263.484 61.5801 263.484 61.4282 263.484 61.2592V56.0459C263.484 55.8769 263.484 55.7251 263.484 55.5863C263.623 55.5859 263.775 55.5859 263.944 55.5859Z" fill="url(#paint14_linear_436_3228)"/>
<line x1="330.397" y1="159.693" x2="369.525" y2="159.693" stroke="url(#paint15_linear_436_3228)" stroke-width="1.89597" stroke-dasharray="3.79 3.79"/>
<line x1="254.966" y1="231.249" x2="254.966" y2="180.727" stroke="url(#paint16_linear_436_3228)" stroke-opacity="0.5" stroke-width="1.89597" stroke-dasharray="3.79 3.79"/>
<line x1="254.966" y1="119.312" x2="254.966" y2="96.0513" stroke="url(#paint17_linear_436_3228)" stroke-width="1.89597" stroke-dasharray="3.79 3.79"/>
<g style="mix-blend-mode:plus-darker">
<g opacity="0.4">
<path d="M38.4866 265.87L61.8486 261.75V269.434L38.4866 273.553V265.87Z" fill="url(#paint18_linear_436_3228)"/>
</g>
<path d="M38.489 273.541L61.9513 269.355L70.8514 274.092L47.482 278.208L38.489 273.541Z" fill="url(#paint19_linear_436_3228)"/>
<path d="M38.489 265.87L61.9513 261.685L70.8514 266.421L47.482 270.537L38.489 265.87Z" fill="url(#paint20_linear_436_3228)"/>
<g opacity="0.4">
<path d="M38.4866 256.032L61.8486 251.912V259.596L38.4866 263.715V256.032Z" fill="url(#paint21_linear_436_3228)"/>
</g>
<path d="M38.4891 263.703L61.9514 259.518L70.8515 264.254L47.4821 268.37L38.4891 263.703Z" fill="url(#paint22_linear_436_3228)"/>
<path d="M38.4889 256.033L61.9512 251.847L70.8513 256.583L47.4819 260.699L38.4889 256.033Z" fill="url(#paint23_linear_436_3228)"/>
<path fill-rule="evenodd" clip-rule="evenodd" d="M70.8505 256.583L47.4885 260.703V268.386L70.8505 264.267V256.583ZM70.8504 266.404L47.4884 270.524V278.207L70.8504 274.088V266.404Z" fill="url(#paint24_linear_436_3228)"/>
<circle cx="1.23323" cy="1.23323" r="1.23323" transform="matrix(0.984808 -0.173648 0 1 50.1674 263.04)" fill="white" fill-opacity="0.9"/>
<circle cx="1.23323" cy="1.23323" r="1.23323" transform="matrix(0.984808 -0.173648 0 1 50.1674 272.763)" fill="white" fill-opacity="0.9"/>
</g>
<path d="M83.7218 260.728H84.9016V267.511H89.1948V268.527H83.7218V260.728ZM93.1218 262.727C93.9739 262.727 94.6621 263.011 95.1756 263.579C95.6781 264.136 95.9403 264.846 95.9403 265.709C95.9403 266.561 95.689 267.271 95.1865 267.817C94.6621 268.385 93.9739 268.68 93.1218 268.68C92.2698 268.68 91.5815 268.385 91.0572 267.817C90.5547 267.271 90.3034 266.561 90.3034 265.709C90.3034 264.846 90.5547 264.136 91.0681 263.579C91.5815 263.011 92.2698 262.727 93.1218 262.727ZM93.1218 263.677C92.5866 263.677 92.1714 263.885 91.8765 264.311C91.6143 264.671 91.4941 265.141 91.4941 265.709C91.4941 266.277 91.6143 266.736 91.8765 267.096C92.1714 267.511 92.5866 267.73 93.1218 267.73C93.6571 267.73 94.0722 267.511 94.3781 267.096C94.6403 266.725 94.7714 266.266 94.7714 265.709C94.7714 265.141 94.6403 264.671 94.3781 264.311C94.0722 263.885 93.6571 263.677 93.1218 263.677ZM100.008 262.727C100.729 262.727 101.308 262.89 101.745 263.218C102.182 263.568 102.466 264.092 102.575 264.791H101.428C101.351 264.409 101.199 264.125 100.958 263.95C100.718 263.764 100.401 263.677 100.008 263.677C99.5272 263.677 99.1557 263.852 98.8826 264.212C98.5986 264.562 98.4675 265.064 98.4675 265.698C98.4675 266.332 98.5986 266.834 98.8717 267.195C99.123 267.544 99.4944 267.73 99.9969 267.73C100.86 267.73 101.341 267.293 101.45 266.441H102.597C102.466 267.195 102.171 267.763 101.734 268.134C101.297 268.495 100.707 268.68 99.986 268.68C99.123 268.68 98.4566 268.396 97.9759 267.828C97.5062 267.282 97.2768 266.583 97.2768 265.709C97.2768 264.857 97.5062 264.158 97.965 263.611C98.4566 263.022 99.1339 262.727 100.008 262.727ZM106.587 262.727C107.417 262.727 108.029 262.934 108.423 263.349C108.761 263.71 108.936 264.234 108.936 264.922V268.527H107.865V267.73C107.647 268.014 107.374 268.243 107.046 268.407C106.675 268.582 106.238 268.68 105.735 268.68C105.145 268.68 104.686 268.527 104.359 268.232C103.998 267.937 103.823 267.555 103.823 267.085C103.823 266.452 104.075 265.96 104.577 265.622C105.036 265.294 105.691 265.13 106.522 265.108L107.789 265.075V264.846C107.789 264.059 107.363 263.666 106.511 263.666C106.15 263.666 105.855 263.732 105.637 263.863C105.375 264.016 105.211 264.245 105.145 264.562L103.998 264.464C104.118 263.852 104.424 263.393 104.905 263.109C105.32 262.847 105.888 262.727 106.587 262.727ZM107.789 265.916L106.598 265.949C105.539 265.971 105.014 266.343 105.014 267.042C105.014 267.26 105.102 267.435 105.287 267.577C105.462 267.719 105.702 267.795 105.997 267.795C106.489 267.795 106.904 267.642 107.254 267.348C107.603 267.053 107.789 266.681 107.789 266.244V265.916ZM110.848 260.575H112.006V268.527H110.848V260.575Z" fill="black"/>
<g style="mix-blend-mode:plus-darker">
<path opacity="0.4" fill-rule="evenodd" clip-rule="evenodd" d="M51.7021 190.815C47.341 191.584 43.6852 195.295 42.7107 199.591C38.9124 201.312 36.1197 205.332 36.1197 209.521C36.1197 213.192 38.2632 215.976 41.3485 216.866L44.5009 218.14L45.7128 217.859L43.9998 217.154C44.299 217.138 44.6027 217.105 44.9103 217.057V217.058L45.007 217.041L45.0682 217.03L45.1294 217.019L58.2735 214.701L58.3357 214.691C63.2778 213.819 67.2842 209.045 67.2842 204.026C67.2842 199.837 64.4916 196.802 60.6934 196.421C60.3815 195.155 59.7948 194.047 58.9982 193.15L59.937 192.729L56.3985 191.273V191.287C55.022 190.704 53.4165 190.513 51.7021 190.815Z" fill="url(#paint25_linear_436_3228)"/>
<path fill-rule="evenodd" clip-rule="evenodd" d="M56.0461 192.554C51.6852 193.323 48.0295 197.034 47.0549 201.33C43.2567 203.05 40.4641 207.07 40.4641 211.26C40.4641 216.225 44.3854 219.568 49.2548 218.795V218.797L62.6232 216.439C62.6422 216.436 62.6611 216.433 62.68 216.43C67.6221 215.558 71.6285 210.784 71.6285 205.765C71.6285 201.575 68.8358 198.54 65.0374 198.16C64.0629 194.207 60.4071 191.785 56.0461 192.554Z" fill="url(#paint26_linear_436_3228)"/>
</g>
<path d="M86.285 199.754C87.1917 199.754 87.9454 199.984 88.5353 200.464C89.1034 200.923 89.453 201.557 89.5731 202.343H88.4152C88.2841 201.819 88.0328 201.426 87.6614 201.174C87.29 200.923 86.8312 200.803 86.2631 200.803C85.422 200.803 84.7884 201.087 84.3623 201.666C83.9581 202.19 83.7615 202.911 83.7615 203.818C83.7615 204.758 83.9581 205.479 84.3514 205.992C84.7665 206.538 85.411 206.811 86.285 206.811C86.853 206.811 87.3337 206.669 87.7051 206.385C88.0984 206.079 88.3715 205.621 88.5244 205.009H89.6824C89.5076 205.915 89.1034 206.626 88.4589 207.139C87.858 207.62 87.137 207.86 86.2959 207.86C85.0178 207.86 84.0564 207.445 83.4119 206.636C82.8439 205.937 82.5708 204.998 82.5708 203.818C82.5708 202.66 82.8548 201.721 83.4447 200.989C84.1001 200.158 85.0396 199.754 86.285 199.754ZM91.3659 199.754H92.5239V207.707H91.3659V199.754ZM97.021 201.906C97.873 201.906 98.5613 202.19 99.0747 202.758C99.5772 203.316 99.8394 204.026 99.8394 204.889C99.8394 205.741 99.5881 206.451 99.0856 206.997C98.5613 207.565 97.873 207.86 97.021 207.86C96.1689 207.86 95.4807 207.565 94.9563 206.997C94.4538 206.451 94.2025 205.741 94.2025 204.889C94.2025 204.026 94.4538 203.316 94.9672 202.758C95.4807 202.19 96.1689 201.906 97.021 201.906ZM97.021 202.857C96.4857 202.857 96.0706 203.064 95.7756 203.49C95.5134 203.851 95.3933 204.321 95.3933 204.889C95.3933 205.457 95.5134 205.915 95.7756 206.276C96.0706 206.691 96.4857 206.91 97.021 206.91C97.5562 206.91 97.9714 206.691 98.2772 206.276C98.5394 205.905 98.6705 205.446 98.6705 204.889C98.6705 204.321 98.5394 203.851 98.2772 203.49C97.9714 203.064 97.5562 202.857 97.021 202.857ZM101.394 202.059H102.552V205.5C102.552 205.981 102.651 206.331 102.858 206.549C103.055 206.768 103.383 206.888 103.83 206.888C104.136 206.888 104.409 206.757 104.672 206.516C104.934 206.265 105.12 205.926 105.218 205.511V202.059H106.376V207.707H105.218V206.942C104.737 207.554 104.147 207.86 103.437 207.86C102.072 207.86 101.394 207.095 101.394 205.577V202.059ZM112.218 199.754H113.376V207.707H112.295V207.03C111.901 207.576 111.311 207.86 110.547 207.86C109.717 207.86 109.061 207.565 108.591 206.975C108.154 206.429 107.936 205.719 107.936 204.856C107.936 204.026 108.143 203.337 108.58 202.791C109.039 202.201 109.684 201.906 110.492 201.906C111.18 201.906 111.759 202.234 112.218 202.9V199.754ZM110.754 202.846C110.186 202.846 109.76 203.032 109.487 203.425C109.247 203.752 109.127 204.233 109.127 204.856C109.127 205.479 109.236 205.959 109.465 206.309C109.727 206.713 110.154 206.92 110.722 206.92C111.224 206.92 111.606 206.713 111.89 206.32C112.131 205.959 112.251 205.5 112.251 204.932V204.834C112.251 204.222 112.098 203.731 111.814 203.359C111.53 203.01 111.18 202.846 110.754 202.846Z" fill="black"/>
<defs>
<filter id="filter0_b_436_3228" x="356.468" y="121.55" width="240.878" height="73.4954" filterUnits="userSpaceOnUse" color-interpolation-filters="sRGB">
<feFlood flood-opacity="0" result="BackgroundImageFix"/>
<feGaussianBlur in="BackgroundImageFix" stdDeviation="9.63263"/>
<feComposite in2="SourceAlpha" operator="in" result="effect1_backgroundBlur_436_3228"/>
<feBlend mode="normal" in="SourceGraphic" in2="effect1_backgroundBlur_436_3228" result="shape"/>
</filter>
<filter id="filter1_b_436_3228" x="161.962" y="261.302" width="178.489" height="73.4954" filterUnits="userSpaceOnUse" color-interpolation-filters="sRGB">
<feFlood flood-opacity="0" result="BackgroundImageFix"/>
<feGaussianBlur in="BackgroundImageFix" stdDeviation="9.63263"/>
<feComposite in2="SourceAlpha" operator="in" result="effect1_backgroundBlur_436_3228"/>
<feBlend mode="normal" in="SourceGraphic" in2="effect1_backgroundBlur_436_3228" result="shape"/>
</filter>
<filter id="filter2_b_436_3228" x="166.078" y="124.897" width="178.489" height="73.4954" filterUnits="userSpaceOnUse" color-interpolation-filters="sRGB">
<feFlood flood-opacity="0" result="BackgroundImageFix"/>
<feGaussianBlur in="BackgroundImageFix" stdDeviation="9.63263"/>
<feComposite in2="SourceAlpha" operator="in" result="effect1_backgroundBlur_436_3228"/>
<feBlend mode="normal" in="SourceGraphic" in2="effect1_backgroundBlur_436_3228" result="shape"/>
</filter>
<filter id="filter3_b_436_3228" x="167.333" y="28.0404" width="178.489" height="73.4954" filterUnits="userSpaceOnUse" color-interpolation-filters="sRGB">
<feFlood flood-opacity="0" result="BackgroundImageFix"/>
<feGaussianBlur in="BackgroundImageFix" stdDeviation="9.63263"/>
<feComposite in2="SourceAlpha" operator="in" result="effect1_backgroundBlur_436_3228"/>
<feBlend mode="normal" in="SourceGraphic" in2="effect1_backgroundBlur_436_3228" result="shape"/>
</filter>
<linearGradient id="paint0_linear_436_3228" x1="476.907" y1="151.414" x2="476.907" y2="186.378" gradientUnits="userSpaceOnUse">
<stop stop-color="#D3E2F5" stop-opacity="0"/>
<stop offset="0.4" stop-color="#D3E2F5"/>
</linearGradient>
<linearGradient id="paint1_linear_436_3228" x1="476.907" y1="140.815" x2="476.907" y2="175.78" gradientUnits="userSpaceOnUse">
<stop stop-color="#E1EBF9" stop-opacity="0.2"/>
<stop offset="1" stop-color="#E1EBF9"/>
</linearGradient>
<linearGradient id="paint2_linear_436_3228" x1="476.907" y1="140.815" x2="476.907" y2="175.78" gradientUnits="userSpaceOnUse">
<stop stop-color="#BCD1EB" stop-opacity="0"/>
<stop offset="0.55" stop-color="#BCD1EB"/>
</linearGradient>
<linearGradient id="paint3_linear_436_3228" x1="33.9189" y1="239.196" x2="578.081" y2="239.196" gradientUnits="userSpaceOnUse">
<stop stop-color="#A9D3EA"/>
<stop offset="0.55" stop-color="#72C2EF"/>
<stop offset="0.97" stop-color="#A9D3EA"/>
</linearGradient>
<linearGradient id="paint4_linear_436_3228" x1="251.206" y1="291.166" x2="251.206" y2="326.131" gradientUnits="userSpaceOnUse">
<stop stop-color="#D3E2F5" stop-opacity="0"/>
<stop offset="0.4" stop-color="#D3E2F5"/>
</linearGradient>
<linearGradient id="paint5_linear_436_3228" x1="251.206" y1="280.567" x2="251.206" y2="315.532" gradientUnits="userSpaceOnUse">
<stop stop-color="#E1EBF9" stop-opacity="0.2"/>
<stop offset="1" stop-color="#E1EBF9"/>
</linearGradient>
<linearGradient id="paint6_linear_436_3228" x1="251.206" y1="280.567" x2="251.206" y2="315.532" gradientUnits="userSpaceOnUse">
<stop stop-color="#BCD1EB" stop-opacity="0"/>
<stop offset="0.55" stop-color="#BCD1EB"/>
</linearGradient>
<linearGradient id="paint7_linear_436_3228" x1="255.323" y1="154.761" x2="255.323" y2="189.726" gradientUnits="userSpaceOnUse">
<stop stop-color="#BFEDE1" stop-opacity="0"/>
<stop offset="0.4" stop-color="#B5E9DC"/>
</linearGradient>
<linearGradient id="paint8_linear_436_3228" x1="255.323" y1="144.163" x2="255.323" y2="179.127" gradientUnits="userSpaceOnUse">
<stop stop-color="#BFEDE1" stop-opacity="0.2"/>
<stop offset="1" stop-color="#BFEDE1"/>
</linearGradient>
<linearGradient id="paint9_linear_436_3228" x1="255.323" y1="144.163" x2="255.323" y2="179.127" gradientUnits="userSpaceOnUse">
<stop stop-color="#9FD9CA" stop-opacity="0"/>
<stop offset="0.55" stop-color="#9FD9CA"/>
</linearGradient>
<linearGradient id="paint10_linear_436_3228" x1="255.323" y1="127.452" x2="255.323" y2="165.786" gradientUnits="userSpaceOnUse">
<stop stop-color="#6DB4B4"/>
<stop offset="1" stop-color="#4A9B91"/>
</linearGradient>
<linearGradient id="paint11_linear_436_3228" x1="256.578" y1="57.9043" x2="256.578" y2="92.869" gradientUnits="userSpaceOnUse">
<stop stop-color="#C0E4FF" stop-opacity="0"/>
<stop offset="0.4" stop-color="#B4DFFF"/>
</linearGradient>
<linearGradient id="paint12_linear_436_3228" x1="256.578" y1="47.3057" x2="256.578" y2="82.2703" gradientUnits="userSpaceOnUse">
<stop stop-color="#C0E4FF" stop-opacity="0.2"/>
<stop offset="1" stop-color="#C0E4FF" stop-opacity="0.996078"/>
</linearGradient>
<linearGradient id="paint13_linear_436_3228" x1="256.578" y1="47.3057" x2="256.578" y2="82.2703" gradientUnits="userSpaceOnUse">
<stop stop-color="#A7D4F6" stop-opacity="0"/>
<stop offset="0.55" stop-color="#A7D4F6"/>
</linearGradient>
<linearGradient id="paint14_linear_436_3228" x1="256.578" y1="27.2192" x2="256.578" y2="65.5526" gradientUnits="userSpaceOnUse">
<stop stop-color="#7AADE9"/>
<stop offset="1" stop-color="#3880B3"/>
</linearGradient>
<linearGradient id="paint15_linear_436_3228" x1="330.397" y1="161.141" x2="369.525" y2="161.141" gradientUnits="userSpaceOnUse">
<stop stop-color="#C8E5F5"/>
<stop offset="1" stop-color="#6DBDE9"/>
</linearGradient>
<linearGradient id="paint16_linear_436_3228" x1="256.414" y1="231.249" x2="256.414" y2="191.298" gradientUnits="userSpaceOnUse">
<stop stop-color="#55B4EA"/>
<stop offset="1" stop-color="#B2E3FE"/>
</linearGradient>
<linearGradient id="paint17_linear_436_3228" x1="256.414" y1="119.312" x2="256.414" y2="96.0513" gradientUnits="userSpaceOnUse">
<stop stop-color="#6DD2E8" stop-opacity="0.1"/>
<stop offset="0.465" stop-color="#6DD2E8" stop-opacity="0.5185"/>
<stop offset="1" stop-color="#C8E5F5"/>
</linearGradient>
<linearGradient id="paint18_linear_436_3228" x1="50.1607" y1="264.074" x2="51.5268" y2="271.821" gradientUnits="userSpaceOnUse">
<stop stop-color="#CECEFF"/>
<stop offset="1" stop-color="#A8CBFF"/>
</linearGradient>
<linearGradient id="paint19_linear_436_3228" x1="54.6194" y1="269.658" x2="54.6194" y2="278.861" gradientUnits="userSpaceOnUse">
<stop stop-color="#EDEEFF"/>
<stop offset="1" stop-color="#D2E2FF"/>
</linearGradient>
<linearGradient id="paint20_linear_436_3228" x1="54.6194" y1="261.987" x2="54.6194" y2="271.19" gradientUnits="userSpaceOnUse">
<stop stop-color="#EDEEFF"/>
<stop offset="1" stop-color="#C3D8FF"/>
</linearGradient>
<linearGradient id="paint21_linear_436_3228" x1="50.1607" y1="254.236" x2="51.5268" y2="261.983" gradientUnits="userSpaceOnUse">
<stop stop-color="#CECEFF"/>
<stop offset="1" stop-color="#A8CBFF"/>
</linearGradient>
<linearGradient id="paint22_linear_436_3228" x1="54.6196" y1="259.82" x2="54.6196" y2="269.023" gradientUnits="userSpaceOnUse">
<stop stop-color="#E0E2FF"/>
<stop offset="1" stop-color="#C5DAFF"/>
</linearGradient>
<linearGradient id="paint23_linear_436_3228" x1="54.6193" y1="252.149" x2="54.6193" y2="261.352" gradientUnits="userSpaceOnUse">
<stop stop-color="#EDEEFF"/>
<stop offset="1" stop-color="#CBD6FF"/>
</linearGradient>
<linearGradient id="paint24_linear_436_3228" x1="59.1626" y1="259.242" x2="62.2747" y2="276.892" gradientUnits="userSpaceOnUse">
<stop stop-color="#CECEFF"/>
<stop offset="1" stop-color="#A8CBFF"/>
</linearGradient>
<linearGradient id="paint25_linear_436_3228" x1="51.7019" y1="190.815" x2="56.1576" y2="216.085" gradientUnits="userSpaceOnUse">
<stop stop-color="#C4E3FD"/>
<stop offset="1" stop-color="#A6E2ED"/>
</linearGradient>
<linearGradient id="paint26_linear_436_3228" x1="56.0463" y1="192.554" x2="60.3292" y2="216.844" gradientUnits="userSpaceOnUse">
<stop stop-color="#C4E3FD"/>
<stop offset="1" stop-color="#A6E2ED"/>
</linearGradient>
</defs>
</svg>
