<svg width="80" height="80" viewBox="0 0 80 80" fill="none" xmlns="http://www.w3.org/2000/svg">
<path fill-rule="evenodd" clip-rule="evenodd" d="M73.7632 49.1007L6.76233 49.1006L16.8893 73.1323C16.8904 70.9698 27.7476 69.2168 41.1405 69.2168C54.5333 69.2168 65.3904 70.9698 65.3916 73.1323L73.7632 49.1007Z" fill="url(#paint0_linear_164_476)"/>
<ellipse cx="41.1405" cy="73.1327" rx="24.2511" ry="3.91587" fill="url(#paint1_linear_164_476)"/>
<path d="M20.2957 37.0189C20.0821 39.4087 20.4385 41.8577 21.4237 44.1642C23.3714 48.7205 26.0079 53.0884 28.435 57.4394C28.7459 57.9945 29.3531 58.3399 30.0096 58.3399H34.5689C35.553 58.3399 36.354 57.5756 36.354 56.6365V54.5526C37.9085 54.8358 39.4856 54.9777 41.0657 54.9764C42.0959 54.9764 43.0997 54.918 44.0896 54.8009L45.2365 57.3174C45.5225 57.9361 46.165 58.3396 46.8739 58.3396H51.4532C52.4373 58.3396 53.2383 57.5754 53.2383 56.6365V51.8604C56.9705 49.7331 59.8006 46.647 61.1677 43.0496L64.4358 41.423C64.9413 41.1697 65.2569 40.6741 65.2569 40.128V34.7354C65.2569 33.9278 64.5682 33.2699 63.7223 33.2757L61.2031 33.2852C60.2294 30.6805 58.4955 28.3444 56.2005 26.4359L58.2663 22.3953C58.7293 21.4805 58.1021 20.3996 57.0415 20.3029C54.6046 20.0737 50.5044 20.0784 47.0874 21.9764C46.4941 21.8339 45.8955 21.7139 45.293 21.6168C45.2574 21.7097 45.2163 21.8065 45.176 21.8986C44.7883 22.7752 44.2324 23.5587 43.5282 24.2308C43.3911 24.3621 43.2483 24.488 43.0997 24.6097C43.5896 24.6538 44.0282 24.7073 44.3906 24.761C45.0534 24.8578 45.4915 25.4765 45.333 26.0987V26.1045C45.1962 26.6538 44.6351 27.0097 44.0479 26.9271C42.0547 26.6396 37.5108 26.2942 33.442 28.1286C32.9069 28.3723 32.2586 28.1777 31.963 27.6865C31.6261 27.1311 31.8613 26.4206 32.4674 26.1473C33.0752 25.8761 33.6984 25.6408 34.3337 25.4425C33.724 25.1158 33.1614 24.708 32.6612 24.2303C32.2894 23.8737 31.9545 23.4805 31.6618 23.0565C29.4282 23.9523 27.3481 25.1848 25.5529 26.7613C22.478 29.4582 20.6427 33.163 20.2951 37.0183L20.2957 37.0189ZM50.6516 33.6301C50.6516 32.4179 51.6769 31.4395 52.9466 31.4395C54.2167 31.4395 55.2408 32.4176 55.2408 33.6301C55.2408 34.8426 54.2167 35.8206 52.9466 35.8206C51.6772 35.8206 50.6516 34.8426 50.6516 33.6301Z" fill="url(#paint2_linear_164_476)"/>
<ellipse cx="41.197" cy="38.2057" rx="20.9676" ry="16.8985" fill="url(#paint3_linear_164_476)"/>
<g filter="url(#filter0_b_164_476)">
<path d="M35.863 8.49756C31.2902 8.49756 27.5288 12.2948 27.5288 16.8676C27.5288 21.44 31.2357 25.1469 35.8085 25.1469C40.3813 25.1469 44.1428 21.3497 44.1428 16.7769C44.1428 12.2041 40.4362 8.49756 35.863 8.49756Z" fill="#89DBFE" fill-opacity="0.8"/>
</g>
<path d="M35.5976 21.3067V12.3374H36.1722V21.3067H35.5976ZM37.1217 15.298C37.0936 15.0154 36.9733 14.7958 36.7608 14.6393C36.5482 14.4828 36.2598 14.4046 35.8954 14.4046C35.6478 14.4046 35.4387 14.4396 35.2682 14.5097C35.0977 14.5774 34.9669 14.672 34.8758 14.7935C34.7871 14.9149 34.7427 15.0527 34.7427 15.2069C34.738 15.3354 34.7649 15.4475 34.8233 15.5432C34.884 15.639 34.9669 15.7219 35.072 15.792C35.1771 15.8597 35.2986 15.9193 35.4364 15.9707C35.5742 16.0197 35.7214 16.0618 35.8779 16.0968L36.5225 16.251C36.8355 16.3211 37.1228 16.4145 37.3844 16.5313C37.646 16.6481 37.8726 16.7917 38.0641 16.9622C38.2557 17.1327 38.404 17.3336 38.5091 17.5648C38.6166 17.7961 38.6714 18.0612 38.6738 18.3602C38.6714 18.7993 38.5593 19.18 38.3374 19.5024C38.1179 19.8224 37.8002 20.0711 37.3844 20.2486C36.971 20.4238 36.4723 20.5114 35.8884 20.5114C35.3091 20.5114 34.8046 20.4227 34.3748 20.2451C33.9474 20.0676 33.6133 19.8049 33.3728 19.4568C33.1345 19.1065 33.0095 18.6732 32.9979 18.157H34.4659C34.4822 18.3976 34.5511 18.5984 34.6726 18.7596C34.7964 18.9184 34.9611 19.0387 35.1666 19.1205C35.3745 19.1999 35.6093 19.2396 35.8709 19.2396C36.1278 19.2396 36.3509 19.2022 36.5401 19.1275C36.7316 19.0527 36.8799 18.9488 36.985 18.8157C37.0901 18.6825 37.1427 18.5295 37.1427 18.3567C37.1427 18.1955 37.0948 18.06 36.999 17.9503C36.9056 17.8405 36.7678 17.747 36.5856 17.67C36.4057 17.5929 36.185 17.5228 35.9234 17.4597L35.1421 17.2635C34.5371 17.1164 34.0595 16.8863 33.7091 16.5733C33.3587 16.2603 33.1847 15.8387 33.1871 15.3085C33.1847 14.874 33.3003 14.4945 33.5339 14.1698C33.7698 13.8451 34.0933 13.5917 34.5044 13.4095C34.9155 13.2273 35.3827 13.1362 35.9059 13.1362C36.4384 13.1362 36.9033 13.2273 37.3003 13.4095C37.6998 13.5917 38.0104 13.8451 38.2323 14.1698C38.4542 14.4945 38.5687 14.8705 38.5757 15.298H37.1217Z" fill="white"/>
<path fill-rule="evenodd" clip-rule="evenodd" d="M38.1418 28.6729C35.8002 29.1422 33.7912 29.9343 32.6882 30.5009C32.1496 30.7777 31.4886 30.5654 31.2118 30.0267C30.9351 29.4881 31.1474 28.827 31.6861 28.5503C32.9655 27.893 35.1663 27.0326 37.7109 26.5227C40.2497 26.0139 43.2242 25.8351 45.9992 26.6361C46.581 26.804 46.9165 27.4119 46.7486 27.9937C46.5806 28.5755 45.9728 28.911 45.391 28.7431C43.0776 28.0753 40.4893 28.2025 38.1418 28.6729Z" fill="url(#paint4_linear_164_476)" stroke="url(#paint5_linear_164_476)" stroke-opacity="0.5" stroke-width="0.274127" stroke-linecap="round"/>
<circle cx="55.1441" cy="34.4859" r="2.08751" fill="url(#paint6_linear_164_476)" fill-opacity="0.7"/>
<circle cx="55.1441" cy="34.4859" r="1.95044" stroke="url(#paint7_linear_164_476)" stroke-opacity="0.5" stroke-width="0.274127"/>
<defs>
<filter id="filter0_b_164_476" x="23.7194" y="4.68816" width="24.2328" height="24.2682" filterUnits="userSpaceOnUse" color-interpolation-filters="sRGB">
<feFlood flood-opacity="0" result="BackgroundImageFix"/>
<feGaussianBlur in="BackgroundImageFix" stdDeviation="1.9047"/>
<feComposite in2="SourceAlpha" operator="in" result="effect1_backgroundBlur_164_476"/>
<feBlend mode="normal" in="SourceGraphic" in2="effect1_backgroundBlur_164_476" result="shape"/>
</filter>
<linearGradient id="paint0_linear_164_476" x1="40.2628" y1="49.1006" x2="40.2628" y2="73.1323" gradientUnits="userSpaceOnUse">
<stop stop-color="#E3F3FE" stop-opacity="0"/>
<stop offset="1" stop-color="#C6EAFF"/>
</linearGradient>
<linearGradient id="paint1_linear_164_476" x1="41.1405" y1="77.0485" x2="41.1405" y2="67.2498" gradientUnits="userSpaceOnUse">
<stop stop-color="#8AD5FF"/>
<stop offset="1" stop-color="#C1F0FF"/>
</linearGradient>
<linearGradient id="paint2_linear_164_476" x1="42.7464" y1="20.2007" x2="42.7464" y2="58.3399" gradientUnits="userSpaceOnUse">
<stop stop-color="#A2DDFF"/>
<stop offset="1" stop-color="#A0E3FF"/>
</linearGradient>
<linearGradient id="paint3_linear_164_476" x1="41.197" y1="21.3071" x2="41.197" y2="55.1042" gradientUnits="userSpaceOnUse">
<stop stop-color="#34BFFA"/>
<stop offset="1" stop-color="#D5EDFF"/>
</linearGradient>
<linearGradient id="paint4_linear_164_476" x1="45.6951" y1="27.1844" x2="32.1871" y2="29.5256" gradientUnits="userSpaceOnUse">
<stop stop-color="white" stop-opacity="0.7"/>
<stop offset="1" stop-color="white" stop-opacity="0.4"/>
</linearGradient>
<linearGradient id="paint5_linear_164_476" x1="46.7919" y1="27.4837" x2="30.8452" y2="30.9611" gradientUnits="userSpaceOnUse">
<stop stop-color="white"/>
<stop offset="1" stop-color="white" stop-opacity="0"/>
</linearGradient>
<linearGradient id="paint6_linear_164_476" x1="55.1441" y1="32.3984" x2="55.1441" y2="36.5734" gradientUnits="userSpaceOnUse">
<stop stop-color="white"/>
<stop offset="1" stop-color="white" stop-opacity="0"/>
</linearGradient>
<linearGradient id="paint7_linear_164_476" x1="55.1441" y1="32.3984" x2="55.1441" y2="36.5734" gradientUnits="userSpaceOnUse">
<stop stop-color="white"/>
<stop offset="1" stop-color="white" stop-opacity="0"/>
</linearGradient>
</defs>
</svg>
