<svg width="613" height="350" viewBox="0 0 613 350" fill="none" xmlns="http://www.w3.org/2000/svg">
<g clip-path="url(#clip0_436_3377)">
<g clip-path="url(#clip1_436_3377)">
<rect width="999.427" height="165.275" rx="15.5553" transform="matrix(0.996195 -0.0871557 0.34202 0.939693 -55.2181 97.2178)" fill="#E4EDFB"/>
<path fill-rule="evenodd" clip-rule="evenodd" d="M146.402 90.3331C135.704 91.269 130.009 100.208 133.682 110.299L141.566 131.96C145.974 144.069 139.14 154.796 126.302 155.919L-23.6479 169.038C-36.4853 170.161 -43.3191 180.888 -38.9117 192.998L-24.6535 232.172C-20.2461 244.281 -6.26646 253.187 6.57093 252.064L1016.63 163.695C1029.47 162.572 1036.3 151.845 1031.9 139.735L1017.64 100.561C1013.23 88.4521 999.252 79.5461 986.415 80.6692L559.881 117.986C547.044 119.109 533.064 110.203 528.657 98.0939L520.773 76.4332C517.1 66.3421 505.45 58.9204 494.753 59.8564L146.402 90.3331Z" fill="white" fill-opacity="0.6"/>
<g clip-path="url(#clip2_436_3377)">
<path fill-rule="evenodd" clip-rule="evenodd" d="M167.677 103.365C168.219 103.286 168.819 103.376 169.387 103.623L176.3 106.619C176.969 106.909 177.507 107.454 177.731 108.07L183.641 124.309C183.997 125.287 183.474 126.162 182.455 126.296L165.14 128.57C164.511 128.653 163.799 128.434 163.239 127.984L157.577 123.439C157.088 123.046 156.72 122.549 156.529 122.022L151.058 106.992C150.823 106.347 151.162 105.767 151.832 105.67L167.677 103.365ZM167.628 105.868C167.947 105.821 168.422 105.903 168.857 106.082L171.644 107.223C172.269 107.479 172.463 107.863 171.998 107.927L160.613 109.474C160.199 109.53 159.551 109.373 159.07 109.1L157.345 108.123C156.812 107.82 156.738 107.482 157.19 107.415L167.628 105.868ZM171.417 122.838C171.101 122.811 170.816 122.563 170.767 122.272L169.453 114.478C169.4 114.164 169.642 113.924 169.982 113.953L170.69 114.013C171.005 114.04 171.29 114.289 171.339 114.58L172.654 122.374C172.707 122.688 172.465 122.928 172.124 122.899L171.417 122.838ZM166.198 115.075C165.882 114.863 165.486 114.922 165.355 115.201L164.325 117.381L163.48 119.18C163.371 119.412 163.485 119.717 163.747 119.894L165.938 121.369L168.247 122.921C168.562 123.133 168.958 123.074 169.09 122.795L169.391 122.156C169.501 121.924 169.386 121.618 169.124 121.441L166.263 119.519C166 119.342 165.886 119.036 165.995 118.803L167.188 116.275C167.298 116.043 167.183 115.737 166.921 115.56L166.198 115.075ZM173.86 113.931L176.283 115.56L178.359 116.958C178.621 117.135 178.736 117.44 178.626 117.672L177.763 119.509L176.752 121.651C176.62 121.93 176.224 121.989 175.908 121.777L175.186 121.291C174.923 121.115 174.808 120.808 174.918 120.576L176.111 118.048C176.221 117.816 176.106 117.51 175.843 117.333L172.983 115.41C172.72 115.234 172.605 114.928 172.715 114.695L173.016 114.057C173.148 113.778 173.544 113.719 173.86 113.931Z" fill="url(#paint0_linear_436_3377)"/>
</g>
<path d="M197.09 104.885L203.133 104.356C205.806 104.122 208.084 104.647 209.997 105.95C211.778 107.152 213.123 109.002 214.024 111.48C214.918 113.935 214.938 115.902 214.108 117.377C213.224 118.903 211.458 119.781 208.784 120.015L202.787 120.54L197.09 104.885ZM200.365 106.702L204.579 118.279L207.577 118.017C209.669 117.834 211.051 117.215 211.684 116.187C212.294 115.161 212.256 113.671 211.537 111.697C210.803 109.68 209.788 108.276 208.523 107.436C207.204 106.579 205.502 106.253 203.41 106.436L200.365 106.702ZM221.038 106.93C222.99 106.759 224.725 107.241 226.21 108.423C227.555 109.482 228.618 111.018 229.375 113.033L220.263 113.83C220.755 114.918 221.369 115.747 222.142 116.29C222.907 116.811 223.786 117.051 224.763 116.966C225.623 116.89 226.248 116.632 226.647 116.212C226.954 115.869 227.119 115.334 227.205 114.648L229.669 114.432C229.773 115.509 229.565 116.455 228.984 117.23C228.249 118.176 227.084 118.731 225.48 118.871C223.713 119.026 222.104 118.623 220.706 117.682C219.192 116.684 218.099 115.264 217.421 113.4C216.806 111.712 216.807 110.264 217.461 109.03C218.061 107.778 219.271 107.084 221.038 106.93ZM221.802 108.831C220.872 108.912 220.239 109.217 219.873 109.792C219.545 110.341 219.46 111.095 219.671 112.072L226.157 111.504C225.206 109.551 223.754 108.66 221.802 108.831ZM228.869 106.561L231.542 106.327L237.637 114.504L237.586 105.799L240.259 105.565L239.922 117.291L237.458 117.506L228.869 106.561ZM241.399 101.008L248.976 100.345C250.603 100.203 251.986 100.444 253.187 101.108C254.326 101.732 255.111 102.636 255.55 103.842C255.869 104.719 255.908 105.485 255.666 106.14C255.409 106.751 254.941 107.244 254.208 107.602C255.372 107.704 256.361 108.047 257.15 108.634C257.939 109.221 258.529 110.052 258.912 111.105C259.487 112.683 259.321 113.874 258.453 114.719C257.7 115.419 256.441 115.846 254.674 116L247.097 116.663L241.399 101.008ZM244.651 102.76L246.35 107.43L250.72 107.048C251.882 106.946 252.647 106.675 253.023 106.258C253.391 105.819 253.423 105.182 253.12 104.349C252.833 103.56 252.369 103.012 251.73 102.706C251.083 102.378 250.183 102.276 249.067 102.373L244.651 102.76ZM247.061 109.381L248.912 114.468L253.607 114.057C254.677 113.964 255.45 113.715 255.942 113.355C256.534 112.874 256.69 112.181 256.363 111.282C256.028 110.362 255.478 109.708 254.745 109.342C254.013 108.977 253.034 108.859 251.826 108.964L247.061 109.381ZM265.085 103.076C266.898 102.917 268.57 103.359 270.077 104.404C271.553 105.429 272.63 106.805 273.261 108.537C273.883 110.247 273.867 111.719 273.197 112.909C272.496 114.147 271.247 114.867 269.434 115.026C267.621 115.184 265.941 114.72 264.411 113.678C262.942 112.675 261.889 111.297 261.267 109.586C260.636 107.854 260.652 106.382 261.337 105.169C262.015 103.933 263.272 103.235 265.085 103.076ZM265.779 104.984C264.64 105.083 263.909 105.577 263.592 106.487C263.298 107.259 263.385 108.225 263.8 109.365C264.215 110.505 264.806 111.403 265.627 112.078C266.558 112.856 267.601 113.218 268.74 113.118C269.879 113.018 270.603 112.503 270.95 111.612C271.237 110.818 271.18 109.873 270.773 108.755C270.358 107.615 269.736 106.696 268.915 106.021C267.953 105.223 266.918 104.884 265.779 104.984ZM273.759 102.634L276.641 102.382L280.599 105.746L281.917 101.92L284.799 101.668L282.57 107.338L289.437 112.959L286.554 113.211L281.844 109.166L280.255 113.762L277.35 114.016L279.85 107.576L273.759 102.634Z" fill="#111824"/>
<path fill-rule="evenodd" clip-rule="evenodd" d="M494.746 87.2397L498.589 81.2075L495.911 79.5019L492.068 85.534L484.208 80.5264L482.899 82.5807L490.76 87.5884L486.917 93.6201L489.594 95.3257L493.437 89.2941L501.298 94.3023L502.607 92.2479L494.746 87.2397Z" fill="black"/>
<rect x="1.91543" y="1.22026" width="788.191" height="63.6072" rx="31.8036" transform="matrix(0.996195 -0.0871557 0.34202 0.939693 276.027 153.946)" fill="#EDF2FA" stroke="#6AB8F0" stroke-width="2.86266"/>
<path d="M358.269 175.263L361.151 175.011L365.11 178.375L366.428 174.549L369.31 174.297L367.081 179.967L373.947 185.588L371.065 185.84L366.355 181.795L364.766 186.391L361.86 186.645L364.361 180.205L358.269 175.263ZM371.563 174.1L374.446 173.848L378.404 177.212L379.722 173.386L382.604 173.134L380.375 178.804L387.241 184.425L384.359 184.677L379.649 180.632L378.06 185.228L375.154 185.482L377.655 179.042L371.563 174.1ZM384.858 172.937L387.74 172.685L391.698 176.049L393.016 172.223L395.898 171.971L393.669 177.641L400.536 183.262L397.653 183.514L392.943 179.469L391.354 184.065L388.449 184.319L390.949 177.879L384.858 172.937ZM403.647 179.754C404.112 179.714 404.586 179.831 405.046 180.107C405.483 180.386 405.813 180.764 405.989 181.246C406.148 181.685 406.106 182.096 405.9 182.453C405.655 182.769 405.293 182.959 404.828 182.999C404.317 183.044 403.866 182.925 403.46 182.667C402.991 182.368 402.685 181.988 402.525 181.549C402.35 181.067 402.369 180.658 402.606 180.321C402.796 179.987 403.135 179.799 403.647 179.754ZM410.572 170.37C413.686 170.098 415.837 171.131 416.986 173.497L414.592 173.706C414.183 173.109 413.752 172.717 413.269 172.51C412.755 172.283 412.056 172.209 411.219 172.282C410.476 172.347 409.95 172.484 409.658 172.735C409.296 172.993 409.214 173.362 409.374 173.801C409.517 174.196 409.963 174.496 410.717 174.724C411.199 174.863 412.07 175.013 413.382 175.192C414.865 175.379 416.023 175.663 416.818 176C417.978 176.487 418.754 177.234 419.121 178.242C419.991 180.632 418.64 181.995 415.084 182.306C411.783 182.595 409.53 181.412 408.293 178.805L410.71 178.593C411.129 179.349 411.631 179.87 412.161 180.141C412.683 180.389 413.39 180.486 414.32 180.404C416.226 180.238 417.01 179.626 416.643 178.617C416.444 178.069 415.912 177.663 415.103 177.417C414.667 177.274 413.774 177.126 412.446 176.971C410.917 176.788 409.798 176.547 409.112 176.245C407.983 175.778 407.239 175.051 406.887 174.086C406.512 173.056 406.659 172.206 407.358 171.557C408.049 170.885 409.13 170.497 410.572 170.37ZM424.546 169.148C426.313 168.993 427.766 169.296 428.906 170.056C429.89 170.716 430.645 171.736 431.147 173.118L433.781 180.353L431.503 180.553L430.921 178.952C430.663 179.563 430.25 180.074 429.672 180.464C429.009 180.884 428.151 181.162 427.082 181.256C425.827 181.366 424.739 181.144 423.826 180.613C422.844 180.088 422.192 179.354 421.849 178.411C421.386 177.139 421.562 176.106 422.384 175.332C423.121 174.589 424.396 174.138 426.146 173.94L428.819 173.638L428.651 173.178C428.076 171.599 426.883 170.889 425.07 171.048C424.302 171.115 423.723 171.301 423.354 171.605C422.908 171.961 422.726 172.452 422.818 173.1L420.306 173.116C420.115 171.866 420.43 170.888 421.246 170.228C421.937 169.625 423.058 169.278 424.546 169.148ZM429.433 175.326L426.923 175.614C424.685 175.855 423.84 176.698 424.351 178.101C424.511 178.54 424.824 178.874 425.323 179.125C425.799 179.377 426.366 179.486 426.994 179.431C428.04 179.34 428.811 178.955 429.34 178.298C429.868 177.641 429.992 176.861 429.672 175.984L429.433 175.326ZM433.535 163.995C434.024 163.952 434.49 164.047 434.927 164.326C435.356 164.582 435.654 164.941 435.822 165.401C435.99 165.862 435.939 166.251 435.726 166.586C435.504 166.9 435.141 167.09 434.677 167.13C434.188 167.173 433.737 167.054 433.308 166.798C432.871 166.519 432.565 166.139 432.405 165.7C432.238 165.24 432.265 164.853 432.486 164.539C432.7 164.204 433.047 164.038 433.535 163.995ZM433.955 168.641L436.419 168.426L440.545 179.761L438.081 179.977L433.955 168.641ZM439.318 163.399L441.782 163.183L447.592 179.145L445.128 179.361L439.318 163.399ZM452.923 166.665C454.736 166.507 456.408 166.949 457.915 167.993C459.391 169.018 460.468 170.394 461.099 172.126C461.721 173.836 461.705 175.308 461.035 176.498C460.334 177.736 459.085 178.456 457.272 178.615C455.459 178.773 453.779 178.309 452.249 177.267C450.78 176.264 449.727 174.886 449.105 173.176C448.474 171.443 448.49 169.972 449.175 168.758C449.853 167.522 451.11 166.824 452.923 166.665ZM453.617 168.573C452.478 168.672 451.747 169.166 451.43 170.076C451.136 170.849 451.223 171.814 451.638 172.954C452.053 174.094 452.644 174.993 453.465 175.667C454.396 176.446 455.439 176.807 456.578 176.707C457.717 176.608 458.441 176.092 458.788 175.202C459.075 174.407 459.018 173.462 458.611 172.344C458.196 171.204 457.574 170.285 456.753 169.611C455.791 168.812 454.756 168.473 453.617 168.573ZM466.715 165.459C469.829 165.186 471.98 166.22 473.129 168.585L470.735 168.795C470.326 168.197 469.895 167.805 469.412 167.598C468.898 167.372 468.199 167.297 467.363 167.37C466.619 167.435 466.093 167.572 465.801 167.824C465.439 168.081 465.357 168.451 465.517 168.889C465.661 169.284 466.106 169.584 466.86 169.812C467.343 169.951 468.213 170.101 469.525 170.28C471.008 170.467 472.167 170.751 472.961 171.088C474.122 171.575 474.897 172.322 475.264 173.33C476.134 175.72 474.783 177.083 471.227 177.394C467.926 177.683 465.673 176.5 464.436 173.893L466.853 173.682C467.272 174.437 467.774 174.958 468.304 175.229C468.826 175.477 469.533 175.574 470.463 175.492C472.369 175.326 473.153 174.714 472.786 173.705C472.587 173.157 472.055 172.751 471.246 172.505C470.811 172.363 469.917 172.214 468.589 172.059C467.06 171.876 465.941 171.635 465.255 171.333C464.126 170.866 463.382 170.139 463.03 169.174C462.655 168.144 462.802 167.294 463.501 166.645C464.192 165.973 465.274 165.585 466.715 165.459ZM480.136 173.062C480.601 173.022 481.075 173.139 481.536 173.415C481.973 173.694 482.302 174.072 482.478 174.554C482.638 174.993 482.595 175.404 482.389 175.761C482.145 176.077 481.782 176.267 481.317 176.307C480.806 176.352 480.355 176.233 479.949 175.975C479.48 175.676 479.174 175.296 479.015 174.857C478.839 174.375 478.858 173.966 479.095 173.629C479.285 173.295 479.625 173.107 480.136 173.062ZM482.778 159.687C483.266 159.644 483.732 159.739 484.169 160.018C484.599 160.274 484.897 160.633 485.065 161.093C485.232 161.553 485.182 161.942 484.968 162.278C484.746 162.591 484.384 162.782 483.919 162.822C483.431 162.865 482.98 162.746 482.551 162.489C482.114 162.211 481.807 161.83 481.648 161.392C481.48 160.932 481.507 160.545 481.729 160.231C481.942 159.896 482.29 159.73 482.778 159.687ZM483.198 164.333L485.662 164.118L489.788 175.453L487.324 175.669L483.198 164.333ZM495.386 162.95C497.199 162.792 498.871 163.234 500.378 164.278C501.854 165.303 502.931 166.679 503.561 168.411C504.184 170.121 504.168 171.593 503.498 172.783C502.797 174.021 501.548 174.741 499.735 174.9C497.922 175.058 496.242 174.594 494.712 173.552C493.243 172.549 492.19 171.171 491.567 169.461C490.937 167.728 490.953 166.256 491.638 165.043C492.316 163.807 493.573 163.109 495.386 162.95ZM496.08 164.858C494.941 164.957 494.209 165.451 493.893 166.361C493.599 167.134 493.686 168.099 494.101 169.239C494.516 170.379 495.107 171.278 495.928 171.952C496.859 172.731 497.902 173.092 499.041 172.992C500.18 172.893 500.903 172.377 501.251 171.487C501.538 170.692 501.481 169.747 501.074 168.629C500.659 167.489 500.037 166.57 499.216 165.896C498.254 165.097 497.219 164.758 496.08 164.858Z" fill="#111824"/>
<path d="M40.9965 204.838L22.679 206.44L28.2041 197.768L25.3382 195.953L17.4311 208.364L33.6062 218.669L34.9998 216.482L23.7126 209.28L42.03 207.677L40.9965 204.838Z" fill="#ABABAB"/>
<path d="M84.4941 201.032L102.812 199.429L91.5092 192.229L92.9179 190.04L109.093 200.344L101.186 212.756L98.3351 210.94L103.845 202.269L85.5276 203.871L84.4941 201.032Z" fill="#ABABAB"/>
<circle cx="23.0946" cy="23.0946" r="23.0946" transform="matrix(0.996195 -0.0871557 0.34202 0.939693 290.27 162.329)" fill="#F9FBFF"/>
<g clip-path="url(#clip3_436_3377)">
<path fill-rule="evenodd" clip-rule="evenodd" d="M312.61 178.893C314.01 178.771 314.755 177.601 314.275 176.281C313.794 174.96 312.27 173.989 310.87 174.111C309.47 174.234 308.724 175.404 309.205 176.724C309.686 178.045 311.21 179.016 312.61 178.893ZM313.465 181.241C316.239 180.998 317.716 178.68 316.763 176.063C315.811 173.446 312.79 171.521 310.015 171.764C307.241 172.006 305.764 174.325 306.716 176.942C307.669 179.559 310.69 181.484 313.465 181.241Z" fill="#1D1D1E"/>
<path d="M318.569 175.322L329.082 174.402L329.936 176.75L319.423 177.67L318.569 175.322Z" fill="#1D1D1E"/>
<path fill-rule="evenodd" clip-rule="evenodd" d="M330.003 185.493C328.603 185.616 327.858 186.785 328.339 188.106C328.819 189.426 330.344 190.398 331.744 190.275C333.144 190.153 333.889 188.983 333.408 187.662C332.928 186.342 331.403 185.371 330.003 185.493ZM329.149 183.145C326.374 183.388 324.897 185.707 325.85 188.324C326.802 190.941 329.824 192.866 332.598 192.623C335.373 192.38 336.85 190.062 335.897 187.445C334.944 184.828 331.923 182.903 329.149 183.145Z" fill="#1D1D1E"/>
<path d="M324.044 189.064L313.532 189.984L312.677 187.636L323.19 186.717L324.044 189.064Z" fill="#1D1D1E"/>
</g>
<g clip-path="url(#clip4_436_3377)">
<path d="M231.665 203.566L225.474 186.556L234.4 176.998L249.518 184.452L255.71 201.463L246.693 202.252L243.081 192.329L237.07 192.855L240.682 202.778L231.665 203.566ZM233.639 200.468L236.644 200.205L233.033 190.282L245.055 189.231L248.667 199.154L251.672 198.891L247.029 186.133L235.69 180.542L228.995 187.71L233.639 200.468Z" fill="#474747"/>
</g>
<path d="M172.135 206.53C168.779 206.824 165.536 205.974 162.407 203.981C159.279 201.988 157.138 199.408 155.986 196.243C154.834 193.077 155.022 190.294 156.552 187.893C158.081 185.492 160.524 184.145 163.88 183.851C165.608 183.7 167.384 183.892 169.207 184.428C171.029 184.963 172.732 185.807 174.315 186.96L173.412 184.48C173.266 184.078 173.288 183.729 173.477 183.431C173.666 183.135 173.973 182.968 174.399 182.931C174.825 182.894 175.231 182.998 175.617 183.244C176.004 183.491 176.271 183.815 176.417 184.217L178.997 191.304C179.143 191.706 179.121 192.055 178.932 192.351C178.743 192.649 178.436 192.816 178.01 192.853L170.497 193.51C170.071 193.548 169.665 193.443 169.278 193.196C168.891 192.95 168.624 192.626 168.478 192.224C168.332 191.823 168.354 191.473 168.543 191.176C168.732 190.88 169.039 190.713 169.465 190.675L174.274 190.255C172.991 189.002 171.517 188.058 169.852 187.424C168.187 186.79 166.54 186.544 164.912 186.686C162.407 186.905 160.58 187.918 159.428 189.725C158.277 191.532 158.131 193.617 158.991 195.98C159.851 198.342 161.459 200.273 163.814 201.774C166.169 203.274 168.598 203.915 171.103 203.696C172.831 203.544 174.271 202.973 175.422 201.982C176.573 200.992 177.25 199.745 177.451 198.24C177.482 197.97 177.61 197.733 177.834 197.531C178.057 197.328 178.318 197.214 178.619 197.188C179.195 197.137 179.696 197.288 180.122 197.641C180.547 197.994 180.733 198.416 180.679 198.909C180.459 201 179.58 202.74 178.044 204.13C176.509 205.52 174.539 206.32 172.135 206.53Z" fill="#474747"/>
<path d="M568.356 81.4984L560.374 82.1967L563.114 89.7264L560.453 89.9591L557.713 82.4295L549.73 83.1279L548.817 80.618L556.799 79.9196L554.059 72.39L556.72 72.1572L559.46 79.6869L567.443 78.9885L568.356 81.4984Z" fill="#474747"/>
</g>
<g filter="url(#filter0_dd_436_3377)">
<path d="M92.6428 253.924L556.597 213.334C561.735 212.884 567.331 216.449 569.095 221.296L584.427 263.422C586.191 268.269 583.456 272.562 578.318 273.012L114.364 313.602C109.225 314.052 103.63 310.487 101.866 305.64L86.5332 263.515C84.7691 258.668 87.5044 254.374 92.6428 253.924Z" stroke="white" stroke-opacity="0.7" stroke-width="1.24526" shape-rendering="crispEdges"/>
<path fill-rule="evenodd" clip-rule="evenodd" d="M471.434 220.154L444.76 199.78L434.106 223.42L89.9394 253.53C85.8287 253.89 83.6404 257.325 85.0517 261.203L102.147 308.172C103.559 312.05 108.035 314.902 112.146 314.542L581.446 273.484C585.557 273.124 587.745 269.689 586.334 265.811L569.238 218.842C567.827 214.964 563.351 212.112 559.24 212.472L471.434 220.154Z" fill="white" fill-opacity="0.6"/>
<path d="M110.234 275.198L113.279 274.932L120.677 281.683L122.856 274.094L125.901 273.828L122.746 283.81L125.021 290.058L122.51 290.278L120.236 284.029L110.234 275.198ZM135.363 277.14C137.176 276.982 138.848 277.423 140.356 278.468C141.832 279.493 142.909 280.869 143.539 282.601C144.161 284.311 144.146 285.783 143.475 286.973C142.775 288.211 141.526 288.931 139.713 289.09C137.9 289.248 136.22 288.784 134.689 287.742C133.221 286.739 132.168 285.361 131.545 283.651C130.915 281.918 130.93 280.446 131.616 279.233C132.293 277.997 133.55 277.299 135.363 277.14ZM136.058 279.048C134.919 279.147 134.187 279.641 133.871 280.551C133.576 281.324 133.664 282.289 134.079 283.429C134.494 284.569 135.084 285.468 135.906 286.142C136.837 286.921 137.879 287.282 139.018 287.182C140.157 287.083 140.881 286.567 141.229 285.677C141.515 284.882 141.459 283.937 141.052 282.819C140.637 281.679 140.015 280.76 139.194 280.086C138.232 279.287 137.197 278.948 136.058 279.048ZM144.781 276.633L147.245 276.417L149.759 283.324C150.11 284.289 150.574 284.972 151.175 285.372C151.753 285.774 152.539 285.954 153.492 285.871C154.142 285.814 154.628 285.5 155.01 284.969C155.384 284.416 155.532 283.701 155.438 282.85L152.916 275.921L155.38 275.706L159.506 287.041L157.042 287.257L156.484 285.722C155.908 287.039 154.876 287.763 153.365 287.895C150.46 288.149 148.46 286.741 147.351 283.693L144.781 276.633ZM173.108 273.838C174.642 273.704 175.994 273.925 177.163 274.501C178.348 275.122 179.336 276.121 180.079 277.504L177.638 277.718C177.196 276.964 176.663 276.423 176.024 276.117C175.377 275.789 174.639 275.672 173.802 275.745C172.78 275.835 172.117 276.255 171.799 277.029C171.45 277.784 171.538 278.817 172.001 280.088C172.464 281.36 173.11 282.344 173.955 283.017C174.745 283.672 175.671 283.976 176.74 283.882C178.576 283.721 179.28 282.755 178.89 281.024L181.33 280.811C181.602 282.348 181.389 283.543 180.731 284.37C180.065 285.175 178.945 285.657 177.411 285.792C175.575 285.952 173.949 285.506 172.511 284.456C171.113 283.447 170.114 282.086 169.476 280.332C168.853 278.622 168.831 277.176 169.408 275.994C170.023 274.719 171.249 274.001 173.108 273.838ZM187.108 272.613C188.874 272.459 190.328 272.761 191.468 273.521C192.451 274.182 193.206 275.202 193.709 276.583L196.343 283.818L194.065 284.018L193.482 282.417C193.225 283.028 192.811 283.539 192.234 283.929C191.571 284.349 190.713 284.628 189.644 284.721C188.389 284.831 187.301 284.61 186.388 284.079C185.405 283.554 184.754 282.819 184.411 281.876C183.948 280.604 184.124 279.571 184.946 278.798C185.682 278.054 186.957 277.604 188.708 277.405L191.38 277.103L191.213 276.643C190.638 275.064 189.444 274.354 187.631 274.513C186.864 274.58 186.284 274.767 185.915 275.07C185.469 275.426 185.288 275.917 185.38 276.565L182.868 276.581C182.676 275.331 182.992 274.353 183.807 273.694C184.499 273.09 185.62 272.743 187.108 272.613ZM191.995 278.792L189.485 279.079C187.246 279.32 186.402 280.163 186.913 281.567C187.072 282.005 187.386 282.34 187.885 282.59C188.361 282.843 188.928 282.951 189.555 282.897C190.601 282.805 191.373 282.421 191.901 281.764C192.43 281.107 192.553 280.327 192.234 279.45L191.995 278.792ZM201.984 271.312C204.959 271.051 207.029 272.454 208.162 275.567L210.708 282.562L208.244 282.777L205.77 275.98C205.068 274.051 203.763 273.169 201.904 273.332C201.207 273.393 200.659 273.667 200.323 274.194C199.957 274.769 199.871 275.524 200.114 276.453L202.595 283.271L200.132 283.487L196.006 272.151L198.47 271.936L198.98 273.339C199.238 272.728 199.621 272.265 200.121 271.927C200.614 271.567 201.24 271.377 201.984 271.312ZM350.998 254.813L352.331 258.475L355.074 258.235L355.776 260.164L353.033 260.404L355.427 266.982C355.539 267.289 355.689 267.502 355.884 267.643C356.071 267.763 356.312 267.832 356.615 267.806L358.195 267.667L358.897 269.597L356.922 269.77C355.899 269.859 355.036 269.663 354.388 269.2C353.747 268.758 353.291 268.096 352.963 267.197L350.569 260.62L348.338 260.815L347.636 258.885L349.867 258.69L348.885 255.993L350.998 254.813ZM356.342 253.35L358.806 253.135L361.073 259.361C361.275 258.665 361.649 258.112 362.212 257.746C362.704 257.386 363.33 257.196 364.097 257.129C365.539 257.002 366.775 257.302 367.814 258.048C368.79 258.754 369.554 259.864 370.097 261.355L372.658 268.393L370.195 268.608L367.776 261.965C367.409 260.956 366.906 260.231 366.296 259.742C365.631 259.234 364.815 259.034 363.885 259.115C363.048 259.189 362.486 259.555 362.206 260.235C361.903 260.918 361.942 261.751 362.302 262.738L364.616 269.096L362.152 269.312L356.342 253.35ZM377.275 255.976C379.228 255.805 380.962 256.287 382.448 257.469C383.792 258.528 384.855 260.064 385.613 262.079L376.501 262.876C376.993 263.964 377.606 264.793 378.38 265.336C379.145 265.857 380.024 266.097 381 266.012C381.86 265.936 382.486 265.678 382.884 265.258C383.191 264.915 383.356 264.38 383.442 263.694L385.906 263.478C386.01 264.555 385.803 265.501 385.221 266.276C384.487 267.222 383.321 267.777 381.718 267.917C379.951 268.072 378.342 267.669 376.944 266.728C375.429 265.73 374.336 264.309 373.658 262.446C373.044 260.758 373.044 259.31 373.699 258.076C374.298 256.824 375.509 256.13 377.275 255.976ZM378.039 257.877C377.11 257.958 376.477 258.263 376.11 258.838C375.783 259.387 375.697 260.141 375.909 261.118L382.394 260.55C381.443 258.597 379.992 257.706 378.039 257.877ZM402.057 249.351L404.521 249.135L410.331 265.097L408.03 265.298L407.535 263.939C407.097 265.108 406.049 265.788 404.422 265.931C402.656 266.085 401.046 265.615 399.615 264.519C398.286 263.504 397.303 262.119 396.672 260.387C396.066 258.721 396.005 257.301 396.535 256.123C397.081 254.854 398.237 254.142 399.957 253.991C401.421 253.863 402.893 254.413 404.356 255.665L402.057 249.351ZM401.201 255.828C399.992 255.934 399.221 256.386 398.928 257.226C398.656 257.929 398.751 258.916 399.206 260.165C399.661 261.415 400.244 262.36 400.988 263.018C401.841 263.781 402.899 264.118 404.108 264.012C405.177 263.919 405.839 263.431 406.156 262.589C406.404 261.821 406.325 260.877 405.91 259.737L405.838 259.54C405.391 258.312 404.706 257.354 403.831 256.661C402.971 256.013 402.107 255.749 401.201 255.828ZM415.375 252.642C417.188 252.484 418.86 252.926 420.368 253.97C421.844 254.995 422.92 256.371 423.551 258.103C424.173 259.814 424.157 261.286 423.487 262.475C422.786 263.713 421.537 264.433 419.724 264.592C417.911 264.75 416.232 264.287 414.701 263.244C413.233 262.241 412.179 260.863 411.557 259.153C410.926 257.421 410.942 255.949 411.628 254.735C412.305 253.499 413.562 252.801 415.375 252.642ZM416.069 254.55C414.93 254.65 414.199 255.143 413.882 256.053C413.588 256.826 413.675 257.791 414.09 258.931C414.505 260.071 415.096 260.97 415.917 261.644C416.848 262.423 417.891 262.784 419.03 262.684C420.169 262.585 420.893 262.069 421.24 261.179C421.527 260.384 421.471 259.439 421.064 258.321C420.649 257.181 420.027 256.262 419.205 255.588C418.243 254.79 417.208 254.45 416.069 254.55ZM430.445 251.324C432.212 251.169 433.722 251.693 434.928 252.9C435.208 252.152 435.605 251.596 436.106 251.258C436.56 250.925 437.186 250.734 438 250.663C439.232 250.555 440.39 250.838 441.491 251.557C442.561 252.255 443.346 253.227 443.809 254.498L446.514 261.931L444.05 262.147L441.489 255.109C441.153 254.188 440.697 253.526 440.127 253.146C439.549 252.745 438.78 252.608 437.85 252.69C437.153 252.751 436.683 253.041 436.393 253.564C436.104 254.087 436.119 254.787 436.422 255.62L438.96 262.592L436.496 262.808L433.942 255.792C433.288 253.994 432.132 253.19 430.505 253.332C429.715 253.401 429.167 253.743 428.91 254.354C428.598 254.947 428.613 255.647 428.9 256.436L431.382 263.255L428.918 263.471L424.793 252.135L427.256 251.92L427.711 253.169C428.305 252.031 429.237 251.43 430.445 251.324ZM451.449 249.486C453.216 249.332 454.669 249.634 455.809 250.394C456.793 251.055 457.548 252.075 458.051 253.456L460.684 260.692L458.406 260.891L457.824 259.29C457.566 259.901 457.153 260.412 456.575 260.802C455.913 261.222 455.055 261.501 453.986 261.594C452.73 261.704 451.642 261.483 450.73 260.952C449.747 260.427 449.096 259.692 448.753 258.749C448.29 257.477 448.465 256.444 449.287 255.671C450.024 254.928 451.299 254.477 453.05 254.278L455.722 253.977L455.554 253.516C454.98 251.937 453.786 251.227 451.973 251.386C451.206 251.453 450.626 251.64 450.257 251.943C449.811 252.299 449.63 252.79 449.722 253.438L447.209 253.454C447.018 252.204 447.334 251.226 448.149 250.567C448.841 249.963 449.962 249.616 451.449 249.486ZM456.336 255.665L453.827 255.952C451.588 256.193 450.744 257.037 451.254 258.44C451.414 258.878 451.728 259.213 452.226 259.463C452.702 259.716 453.269 259.825 453.897 259.77C454.943 259.678 455.714 259.294 456.243 258.637C456.771 257.98 456.895 257.2 456.576 256.323L456.336 255.665ZM460.439 244.333C460.927 244.291 461.393 244.386 461.83 244.664C462.259 244.921 462.558 245.279 462.725 245.74C462.893 246.2 462.843 246.589 462.629 246.924C462.407 247.238 462.045 247.428 461.58 247.469C461.092 247.511 460.641 247.393 460.212 247.136C459.774 246.857 459.468 246.477 459.309 246.039C459.141 245.578 459.168 245.191 459.39 244.878C459.603 244.542 459.951 244.376 460.439 244.333ZM460.859 248.98L463.323 248.764L467.448 260.1L464.985 260.315L460.859 248.98ZM473.605 247.548C476.58 247.288 478.649 248.69 479.782 251.804L482.328 258.798L479.864 259.014L477.39 252.217C476.688 250.287 475.384 249.406 473.524 249.568C472.827 249.629 472.279 249.904 471.944 250.431C471.577 251.006 471.492 251.76 471.734 252.689L474.216 259.508L471.752 259.723L467.626 248.388L470.09 248.172L470.601 249.575C470.858 248.965 471.241 248.501 471.742 248.163C472.235 247.804 472.861 247.613 473.605 247.548ZM496.675 245.53C499.65 245.269 501.719 246.672 502.853 249.785L505.398 256.78L502.934 256.995L500.461 250.198C499.758 248.269 498.454 247.387 496.595 247.55C495.897 247.611 495.349 247.885 495.014 248.412C494.647 248.987 494.562 249.741 494.804 250.67L497.286 257.489L494.822 257.705L490.696 246.369L493.16 246.154L493.671 247.557C493.928 246.946 494.311 246.483 494.812 246.145C495.305 245.785 495.931 245.595 496.675 245.53ZM510.362 244.332C512.128 244.178 513.582 244.48 514.722 245.24C515.705 245.901 516.46 246.921 516.963 248.302L519.597 255.537L517.319 255.737L516.736 254.136C516.479 254.747 516.065 255.258 515.488 255.648C514.825 256.068 513.967 256.347 512.898 256.44C511.643 256.55 510.555 256.329 509.642 255.798C508.659 255.273 508.008 254.538 507.665 253.595C507.202 252.323 507.378 251.29 508.2 250.517C508.936 249.773 510.211 249.322 511.962 249.124L514.634 248.822L514.467 248.362C513.892 246.783 512.698 246.073 510.885 246.232C510.118 246.299 509.539 246.485 509.169 246.789C508.723 247.145 508.542 247.636 508.634 248.284L506.122 248.3C505.93 247.05 506.246 246.072 507.061 245.413C507.753 244.809 508.874 244.462 510.362 244.332ZM515.249 250.511L512.739 250.798C510.5 251.039 509.656 251.882 510.167 253.286C510.326 253.724 510.64 254.059 511.139 254.309C511.615 254.562 512.182 254.67 512.809 254.615C513.855 254.524 514.627 254.14 515.155 253.483C515.684 252.826 515.807 252.046 515.488 251.168L515.249 250.511ZM524.913 243.059C526.679 242.904 528.189 243.428 529.396 244.635C529.675 243.887 530.072 243.332 530.573 242.994C531.027 242.66 531.653 242.469 532.467 242.398C533.699 242.29 534.857 242.574 535.958 243.292C537.028 243.99 537.813 244.962 538.276 246.234L540.981 253.667L538.518 253.882L535.956 246.844C535.621 245.923 535.164 245.262 534.594 244.882C534.016 244.48 533.247 244.343 532.317 244.425C531.62 244.486 531.15 244.776 530.86 245.299C530.571 245.822 530.586 246.522 530.889 247.355L533.427 254.327L530.963 254.543L528.409 247.527C527.755 245.729 526.599 244.925 524.972 245.067C524.182 245.137 523.635 245.478 523.377 246.089C523.065 246.682 523.08 247.382 523.368 248.171L525.849 254.99L523.386 255.206L519.26 243.87L521.724 243.655L522.178 244.905C522.772 243.767 523.704 243.165 524.913 243.059ZM545.591 241.25C547.544 241.079 549.278 241.561 550.763 242.743C552.108 243.802 553.171 245.338 553.928 247.353L544.817 248.15C545.309 249.238 545.922 250.067 546.695 250.61C547.461 251.131 548.34 251.371 549.316 251.286C550.176 251.211 550.801 250.952 551.2 250.533C551.507 250.189 551.672 249.654 551.758 248.968L554.222 248.753C554.326 249.829 554.119 250.775 553.537 251.55C552.802 252.497 551.637 253.051 550.033 253.191C548.267 253.346 546.657 252.944 545.259 252.003C543.745 251.004 542.652 249.584 541.974 247.72C541.359 246.032 541.36 244.584 542.014 243.35C542.614 242.099 543.824 241.404 545.591 241.25ZM546.355 243.151C545.425 243.233 544.793 243.537 544.426 244.112C544.098 244.661 544.013 245.415 544.225 246.392L550.71 245.825C549.759 243.872 548.308 242.981 546.355 243.151ZM559.452 248.815C559.917 248.775 560.391 248.892 560.852 249.168C561.289 249.446 561.618 249.825 561.794 250.307C561.954 250.746 561.911 251.157 561.706 251.514C561.461 251.83 561.098 252.02 560.633 252.06C560.122 252.105 559.671 251.986 559.265 251.728C558.797 251.429 558.49 251.049 558.331 250.61C558.155 250.128 558.174 249.719 558.411 249.381C558.602 249.048 558.941 248.86 559.452 248.815Z" fill="#111824"/>
<path d="M224.31 269.358C225.844 269.224 227.196 269.445 228.365 270.022C229.55 270.642 230.538 271.641 231.281 273.024L228.84 273.238C228.398 272.485 227.865 271.943 227.226 271.637C226.579 271.309 225.841 271.193 225.005 271.266C223.982 271.355 223.319 271.775 223.001 272.55C222.652 273.304 222.741 274.337 223.203 275.609C223.666 276.881 224.312 277.865 225.157 278.537C225.947 279.192 226.873 279.496 227.942 279.402C229.778 279.242 230.482 278.275 230.092 276.545L232.532 276.331C232.804 277.868 232.592 279.063 231.933 279.89C231.267 280.695 230.147 281.178 228.613 281.312C226.777 281.473 225.151 281.027 223.714 279.976C222.315 278.967 221.316 277.607 220.678 275.852C220.055 274.142 220.033 272.696 220.61 271.515C221.225 270.239 222.451 269.521 224.31 269.358ZM233.006 268.914L235.47 268.699L237.983 275.605C238.335 276.57 238.799 277.253 239.4 277.653C239.978 278.055 240.763 278.235 241.716 278.152C242.367 278.095 242.853 277.781 243.235 277.25C243.609 276.697 243.757 275.983 243.663 275.131L241.141 268.203L243.605 267.987L247.731 279.323L245.267 279.538L244.708 278.003C244.133 279.321 243.101 280.044 241.59 280.177C238.684 280.431 236.685 279.022 235.575 275.974L233.006 268.914ZM251.764 266.956C254.879 266.684 257.03 267.717 258.178 270.083L255.784 270.292C255.375 269.695 254.944 269.303 254.461 269.096C253.947 268.869 253.248 268.795 252.412 268.868C251.668 268.933 251.142 269.07 250.85 269.321C250.488 269.579 250.407 269.948 250.566 270.387C250.71 270.782 251.155 271.082 251.909 271.31C252.392 271.449 253.262 271.599 254.574 271.778C256.057 271.965 257.216 272.249 258.01 272.586C259.171 273.073 259.946 273.82 260.313 274.828C261.183 277.218 259.832 278.581 256.276 278.892C252.975 279.181 250.722 277.998 249.485 275.391L251.903 275.179C252.321 275.935 252.823 276.456 253.353 276.727C253.875 276.975 254.582 277.072 255.512 276.99C257.418 276.824 258.203 276.212 257.836 275.203C257.636 274.655 257.105 274.249 256.295 274.003C255.86 273.86 254.966 273.712 253.639 273.557C252.109 273.374 250.99 273.133 250.304 272.831C249.175 272.364 248.431 271.637 248.08 270.672C247.705 269.642 247.851 268.792 248.55 268.143C249.241 267.471 250.323 267.083 251.764 266.956ZM262.751 262.534L264.083 266.195L266.826 265.955L267.528 267.885L264.786 268.125L267.18 274.703C267.292 275.01 267.441 275.223 267.636 275.364C267.824 275.483 268.065 275.553 268.367 275.526L269.948 275.388L270.65 277.317L268.674 277.49C267.651 277.58 266.789 277.384 266.14 276.92C265.5 276.478 265.043 275.817 264.716 274.918L262.322 268.34L260.09 268.536L259.388 266.606L261.62 266.411L260.638 263.714L262.751 262.534ZM275.199 264.906C277.012 264.748 278.684 265.189 280.191 266.234C281.668 267.259 282.744 268.635 283.375 270.367C283.997 272.077 283.981 273.549 283.311 274.739C282.61 275.977 281.361 276.697 279.548 276.856C277.735 277.014 276.055 276.55 274.525 275.508C273.056 274.505 272.003 273.127 271.381 271.417C270.75 269.684 270.766 268.212 271.452 266.999C272.129 265.763 273.386 265.065 275.199 264.906ZM275.893 266.814C274.754 266.913 274.023 267.407 273.706 268.317C273.412 269.09 273.499 270.055 273.914 271.195C274.329 272.335 274.92 273.234 275.741 273.908C276.672 274.687 277.715 275.048 278.854 274.948C279.993 274.848 280.717 274.333 281.064 273.443C281.351 272.648 281.295 271.703 280.888 270.585C280.473 269.445 279.85 268.526 279.029 267.852C278.067 267.053 277.032 266.714 275.893 266.814ZM290.269 263.588C292.036 263.433 293.546 263.957 294.752 265.164C295.032 264.415 295.429 263.86 295.93 263.522C296.384 263.188 297.01 262.998 297.824 262.927C299.056 262.819 300.214 263.102 301.315 263.82C302.384 264.519 303.17 265.491 303.633 266.762L306.338 274.195L303.874 274.411L301.313 267.373C300.977 266.452 300.521 265.79 299.951 265.41C299.373 265.008 298.604 264.872 297.674 264.953C296.977 265.014 296.506 265.304 296.217 265.827C295.928 266.35 295.943 267.05 296.246 267.884L298.784 274.856L296.32 275.072L293.766 268.055C293.112 266.257 291.956 265.454 290.329 265.596C289.538 265.665 288.991 266.007 288.734 266.618C288.422 267.211 288.437 267.911 288.724 268.7L291.206 275.519L288.742 275.735L284.616 264.399L287.08 264.183L287.535 265.433C288.128 264.295 289.061 263.693 290.269 263.588ZM306.06 257.84C306.549 257.797 307.015 257.892 307.452 258.17C307.881 258.427 308.179 258.785 308.347 259.246C308.515 259.706 308.464 260.095 308.251 260.431C308.029 260.744 307.666 260.934 307.202 260.975C306.713 261.018 306.262 260.899 305.833 260.642C305.396 260.364 305.09 259.983 304.93 259.545C304.763 259.084 304.79 258.697 305.011 258.384C305.225 258.049 305.572 257.882 306.06 257.84ZM306.48 262.486L308.944 262.271L313.07 273.606L310.606 273.822L306.48 262.486ZM312.667 261.945L322.569 261.079L323.119 262.591L319.097 271.111L326.372 270.474L327.067 272.382L316.56 273.301L315.978 271.7L319.939 263.277L313.361 263.852L312.667 261.945ZM330.863 260.036C332.815 259.865 334.549 260.347 336.035 261.529C337.38 262.588 338.443 264.124 339.2 266.139L330.088 266.936C330.58 268.025 331.194 268.853 331.967 269.396C332.732 269.918 333.611 270.158 334.587 270.072C335.447 269.997 336.073 269.739 336.472 269.319C336.779 268.975 336.944 268.441 337.03 267.754L339.494 267.539C339.598 268.616 339.39 269.561 338.809 270.336C338.074 271.283 336.909 271.837 335.305 271.978C333.538 272.132 331.929 271.73 330.531 270.789C329.016 269.79 327.924 268.37 327.246 266.506C326.631 264.818 326.632 263.37 327.286 262.136C327.886 260.885 329.096 260.191 330.863 260.036ZM331.627 261.938C330.697 262.019 330.064 262.323 329.698 262.898C329.37 263.447 329.285 264.201 329.496 265.178L335.981 264.611C335.031 262.658 333.579 261.767 331.627 261.938Z" fill="#0884DD"/>
</g>
<g filter="url(#filter1_f_436_3377)">
<rect x="0.632812" y="373" width="373" height="112.725" transform="rotate(-90 0.632812 373)" fill="url(#paint1_linear_436_3377)"/>
</g>
<g filter="url(#filter2_f_436_3377)">
<rect width="350" height="84.8983" transform="matrix(-1.19249e-08 -1 -1 1.19249e-08 612.633 350)" fill="url(#paint2_linear_436_3377)"/>
</g>
</g>
<defs>
<filter id="filter0_dd_436_3377" x="77.5247" y="194.799" width="515.911" height="125.237" filterUnits="userSpaceOnUse" color-interpolation-filters="sRGB">
<feFlood flood-opacity="0" result="BackgroundImageFix"/>
<feColorMatrix in="SourceAlpha" type="matrix" values="0 0 0 0 0 0 0 0 0 0 0 0 0 0 0 0 0 0 127 0" result="hardAlpha"/>
<feOffset/>
<feGaussianBlur stdDeviation="0.622628"/>
<feComposite in2="hardAlpha" operator="out"/>
<feColorMatrix type="matrix" values="0 0 0 0 0.473958 0 0 0 0 0.552499 0 0 0 0 0.625 0 0 0 0.25 0"/>
<feBlend mode="normal" in2="BackgroundImageFix" result="effect1_dropShadow_436_3377"/>
<feColorMatrix in="SourceAlpha" type="matrix" values="0 0 0 0 0 0 0 0 0 0 0 0 0 0 0 0 0 0 127 0" result="hardAlpha"/>
<feOffset/>
<feGaussianBlur stdDeviation="2.49051"/>
<feComposite in2="hardAlpha" operator="out"/>
<feColorMatrix type="matrix" values="0 0 0 0 0.632917 0 0 0 0 0.655278 0 0 0 0 0.7 0 0 0 0.25 0"/>
<feBlend mode="normal" in2="effect1_dropShadow_436_3377" result="effect2_dropShadow_436_3377"/>
<feBlend mode="normal" in="SourceGraphic" in2="effect2_dropShadow_436_3377" result="shape"/>
</filter>
<filter id="filter1_f_436_3377" x="-3.36719" y="-4" width="120.725" height="381" filterUnits="userSpaceOnUse" color-interpolation-filters="sRGB">
<feFlood flood-opacity="0" result="BackgroundImageFix"/>
<feBlend mode="normal" in="SourceGraphic" in2="BackgroundImageFix" result="shape"/>
<feGaussianBlur stdDeviation="2" result="effect1_foregroundBlur_436_3377"/>
</filter>
<filter id="filter2_f_436_3377" x="523.734" y="-4" width="92.8983" height="358" filterUnits="userSpaceOnUse" color-interpolation-filters="sRGB">
<feFlood flood-opacity="0" result="BackgroundImageFix"/>
<feBlend mode="normal" in="SourceGraphic" in2="BackgroundImageFix" result="shape"/>
<feGaussianBlur stdDeviation="2" result="effect1_foregroundBlur_436_3377"/>
</filter>
<linearGradient id="paint0_linear_436_3377" x1="162.384" y1="102.609" x2="156.069" y2="127.703" gradientUnits="userSpaceOnUse">
<stop stop-color="#213654"/>
<stop offset="1" stop-color="#0F1D32"/>
</linearGradient>
<linearGradient id="paint1_linear_436_3377" x1="210.448" y1="373" x2="211.414" y2="479.202" gradientUnits="userSpaceOnUse">
<stop stop-color="#EBF2FF"/>
<stop offset="1" stop-color="#EFF7FF" stop-opacity="0"/>
</linearGradient>
<linearGradient id="paint2_linear_436_3377" x1="196.878" y1="2.29115e-06" x2="197.462" y2="79.988" gradientUnits="userSpaceOnUse">
<stop stop-color="#EBF2FF"/>
<stop offset="1" stop-color="#EFF7FF" stop-opacity="0"/>
</linearGradient>
<clipPath id="clip0_436_3377">
<rect x="0.632812" width="612" height="350" rx="8" fill="white"/>
</clipPath>
<clipPath id="clip1_436_3377">
<rect width="999.427" height="165.275" rx="15.5553" transform="matrix(0.996195 -0.0871557 0.34202 0.939693 -55.2181 97.2178)" fill="white"/>
</clipPath>
<clipPath id="clip2_436_3377">
<rect width="31.1106" height="31.1106" fill="white" transform="matrix(0.996195 -0.0871557 0.34202 0.939693 146.616 102.615)"/>
</clipPath>
<clipPath id="clip3_436_3377">
<rect width="29.9796" height="29.9796" fill="white" transform="matrix(0.996195 -0.0871557 0.34202 0.939693 301.248 169.416)"/>
</clipPath>
<clipPath id="clip4_436_3377">
<rect width="36.2049" height="36.2049" fill="white" transform="matrix(0.996195 -0.0871557 0.34202 0.939693 214.819 174.324)"/>
</clipPath>
</defs>
</svg>
