<svg width="612" height="351" viewBox="0 0 612 351" fill="none" xmlns="http://www.w3.org/2000/svg">
<ellipse cx="306" cy="62.9461" rx="195.348" ry="21.3508" fill="url(#paint0_linear_436_3325)"/>
<g filter="url(#filter0_b_436_3325)">
<ellipse cx="306" cy="50.0017" rx="211.589" ry="21.3508" fill="url(#paint1_linear_436_3325)" fill-opacity="0.2"/>
<path d="M517.086 50.0017C517.086 50.5576 516.809 51.1653 516.142 51.8282C515.474 52.4921 514.453 53.1709 513.068 53.854C510.3 55.219 506.186 56.5493 500.844 57.8236C490.17 60.3703 474.703 62.668 455.565 64.5991C417.297 68.4606 364.417 70.85 306 70.85C247.583 70.85 194.703 68.4606 156.435 64.5991C137.297 62.668 121.83 60.3703 111.156 57.8236C105.814 56.5493 101.7 55.219 98.9324 53.854C97.5472 53.1709 96.5261 52.4921 95.858 51.8282C95.1908 51.1653 94.9139 50.5576 94.9139 50.0017C94.9139 49.4458 95.1908 48.8381 95.858 48.1752C96.5261 47.5113 97.5472 46.8325 98.9324 46.1495C101.7 44.7845 105.814 43.4541 111.156 42.1798C121.83 39.6332 137.297 37.3355 156.435 35.4044C194.703 31.5428 247.583 29.1534 306 29.1534C364.417 29.1534 417.297 31.5428 455.565 35.4044C474.703 37.3355 490.17 39.6332 500.844 42.1798C506.186 43.4541 510.3 44.7845 513.068 46.1495C514.453 46.8325 515.474 47.5113 516.142 48.1752C516.809 48.8381 517.086 49.4458 517.086 50.0017Z" stroke="url(#paint2_linear_436_3325)" stroke-width="1.00503"/>
</g>
<path d="M287.773 37.3654C282.178 40.6257 271.625 40.45 268.334 39.3533C268.154 39.9789 269.012 43.756 272.848 44.5175C278.962 45.7309 284.142 39.8723 287.773 37.3654Z" fill="url(#paint3_linear_436_3325)"/>
<path d="M274.387 20.3149C278.181 21.2964 286.604 28.5952 267.842 34.1799C270.098 33.0252 275.167 25.7386 274.387 20.3149Z" fill="url(#paint4_linear_436_3325)"/>
<path d="M273.794 33.48C273.741 33.5035 273.693 33.5407 273.656 33.5868C271.859 35.8813 270.209 37.3287 268.927 37.9845C281.068 37.9845 282.112 31.418 279.425 29.5472C278.362 30.8781 277.01 32.075 273.794 33.48Z" fill="url(#paint5_linear_436_3325)"/>
<path d="M302.849 29.2563C302.796 28.7221 302.569 28.3072 302.167 28.0115C301.766 27.7157 301.22 27.5679 300.532 27.5679C300.064 27.5679 299.669 27.6341 299.347 27.7665C299.024 27.8945 298.777 28.0733 298.605 28.3028C298.437 28.5323 298.353 28.7928 298.353 29.0841C298.345 29.3269 298.395 29.5388 298.506 29.7197C298.621 29.9007 298.777 30.0574 298.976 30.1898C299.174 30.3178 299.404 30.4304 299.664 30.5275C299.925 30.6202 300.203 30.6997 300.499 30.7659L301.717 31.0572C302.309 31.1896 302.851 31.3662 303.346 31.5869C303.84 31.8076 304.268 32.0791 304.63 32.4013C304.992 32.7235 305.273 33.1031 305.471 33.5401C305.674 33.9771 305.778 34.4781 305.782 35.0431C305.778 35.873 305.566 36.5925 305.147 37.2016C304.732 37.8064 304.132 38.2765 303.346 38.6119C302.565 38.943 301.622 39.1085 300.519 39.1085C299.424 39.1085 298.47 38.9408 297.658 38.6053C296.85 38.2698 296.219 37.7733 295.765 37.1156C295.314 36.4534 295.078 35.6346 295.056 34.6591H297.83C297.861 35.1138 297.992 35.4934 298.221 35.7979C298.455 36.0981 298.766 36.3254 299.155 36.4799C299.547 36.63 299.991 36.705 300.485 36.705C300.971 36.705 301.393 36.6344 301.75 36.4932C302.112 36.3519 302.392 36.1555 302.591 35.9039C302.79 35.6523 302.889 35.3632 302.889 35.0365C302.889 34.7319 302.798 34.4759 302.617 34.2685C302.441 34.061 302.18 33.8844 301.836 33.7388C301.496 33.5931 301.079 33.4607 300.585 33.3415L299.108 32.9707C297.965 32.6926 297.062 32.2578 296.4 31.6663C295.738 31.0749 295.409 30.2781 295.414 29.2761C295.409 28.4551 295.628 27.7378 296.069 27.1242C296.515 26.5107 297.126 26.0318 297.903 25.6875C298.68 25.3432 299.563 25.171 300.552 25.171C301.558 25.171 302.437 25.3432 303.187 25.6875C303.942 26.0318 304.529 26.5107 304.948 27.1242C305.367 27.7378 305.584 28.4485 305.597 29.2563H302.849ZM310.558 39.1085C309.909 39.1085 309.331 38.996 308.823 38.7708C308.316 38.5413 307.914 38.2036 307.618 37.7578C307.327 37.3076 307.181 36.747 307.181 36.076C307.181 35.511 307.285 35.0365 307.492 34.6525C307.7 34.2685 307.982 33.9595 308.34 33.7255C308.697 33.4916 309.103 33.315 309.558 33.1958C310.017 33.0767 310.498 32.9928 311.002 32.9442C311.593 32.8824 312.07 32.825 312.432 32.7721C312.794 32.7147 313.056 32.6308 313.22 32.5205C313.383 32.4101 313.465 32.2468 313.465 32.0305V31.9908C313.465 31.5714 313.332 31.247 313.067 31.0175C312.807 30.7879 312.436 30.6732 311.955 30.6732C311.447 30.6732 311.043 30.7857 310.743 31.0109C310.443 31.2316 310.245 31.5096 310.147 31.8451L307.539 31.6332C307.671 31.0153 307.932 30.4812 308.32 30.0309C308.708 29.5763 309.209 29.2276 309.823 28.9848C310.441 28.7376 311.156 28.614 311.968 28.614C312.533 28.614 313.074 28.6802 313.59 28.8126C314.111 28.9451 314.573 29.1503 314.974 29.4284C315.38 29.7065 315.7 30.064 315.934 30.501C316.168 30.9336 316.285 31.4523 316.285 32.057V38.9165H313.61V37.5062H313.531C313.367 37.824 313.149 38.1043 312.875 38.3471C312.602 38.5854 312.273 38.773 311.889 38.9099C311.505 39.0423 311.061 39.1085 310.558 39.1085ZM311.366 37.1619C311.781 37.1619 312.147 37.0802 312.465 36.9169C312.783 36.7492 313.032 36.5241 313.213 36.2416C313.394 35.9591 313.484 35.639 313.484 35.2815V34.2022C313.396 34.2596 313.275 34.3126 313.12 34.3612C312.97 34.4053 312.8 34.4472 312.61 34.487C312.421 34.5223 312.231 34.5554 312.041 34.5863C311.851 34.6128 311.679 34.637 311.525 34.6591C311.194 34.7077 310.904 34.7849 310.657 34.8908C310.41 34.9968 310.218 35.1402 310.081 35.3212C309.944 35.4978 309.876 35.7185 309.876 35.9833C309.876 36.3674 310.015 36.6609 310.293 36.8639C310.576 37.0626 310.933 37.1619 311.366 37.1619ZM318.473 38.9165V28.7464H321.294V38.9165H318.473ZM319.89 27.4354C319.471 27.4354 319.111 27.2964 318.811 27.0183C318.515 26.7358 318.368 26.3981 318.368 26.0053C318.368 25.6168 318.515 25.2836 318.811 25.0055C319.111 24.723 319.471 24.5817 319.89 24.5817C320.31 24.5817 320.667 24.723 320.963 25.0055C321.263 25.2836 321.413 25.6168 321.413 26.0053C321.413 26.3981 321.263 26.7358 320.963 27.0183C320.667 27.2964 320.31 27.4354 319.89 27.4354ZM326.374 25.3564V38.9165H323.554V25.3564H326.374ZM333.229 39.1151C332.2 39.1151 331.311 38.8966 330.56 38.4596C329.814 38.0182 329.238 37.4047 328.832 36.619C328.426 35.8288 328.223 34.9129 328.223 33.8712C328.223 32.8206 328.426 31.9025 328.832 31.1168C329.238 30.3267 329.814 29.7131 330.56 29.2761C331.311 28.8347 332.2 28.614 333.229 28.614C334.257 28.614 335.144 28.8347 335.89 29.2761C336.641 29.7131 337.219 30.3267 337.625 31.1168C338.031 31.9025 338.234 32.8206 338.234 33.8712C338.234 34.9129 338.031 35.8288 337.625 36.619C337.219 37.4047 336.641 38.0182 335.89 38.4596C335.144 38.8966 334.257 39.1151 333.229 39.1151ZM333.242 36.9302C333.71 36.9302 334.1 36.7977 334.414 36.5329C334.727 36.2636 334.963 35.8973 335.122 35.4338C335.286 34.9703 335.367 34.4428 335.367 33.8513C335.367 33.2598 335.286 32.7324 335.122 32.2689C334.963 31.8054 334.727 31.439 334.414 31.1698C334.1 30.9005 333.71 30.7659 333.242 30.7659C332.77 30.7659 332.372 30.9005 332.05 31.1698C331.732 31.439 331.492 31.8054 331.328 32.2689C331.17 32.7324 331.09 33.2598 331.09 33.8513C331.09 34.4428 331.17 34.9703 331.328 35.4338C331.492 35.8973 331.732 36.2636 332.05 36.5329C332.372 36.7977 332.77 36.9302 333.242 36.9302ZM348.53 31.6465L345.948 31.8054C345.904 31.5847 345.809 31.3861 345.663 31.2095C345.518 31.0285 345.326 30.8851 345.087 30.7791C344.853 30.6688 344.573 30.6136 344.246 30.6136C343.809 30.6136 343.441 30.7063 343.141 30.8917C342.84 31.0727 342.69 31.3154 342.69 31.62C342.69 31.8628 342.787 32.068 342.982 32.2358C343.176 32.4035 343.509 32.5381 343.981 32.6397L345.822 33.0104C346.811 33.2135 347.548 33.5401 348.034 33.9904C348.519 34.4406 348.762 35.0321 348.762 35.7648C348.762 36.4314 348.565 37.0162 348.173 37.5194C347.784 38.0226 347.25 38.4155 346.57 38.698C345.895 38.9761 345.116 39.1151 344.233 39.1151C342.887 39.1151 341.814 38.8348 341.015 38.2743C340.221 37.7092 339.755 36.9412 339.618 35.9701L342.392 35.8244C342.476 36.2349 342.679 36.5483 343.002 36.7646C343.324 36.9765 343.736 37.0824 344.24 37.0824C344.734 37.0824 345.131 36.9875 345.431 36.7977C345.736 36.6035 345.891 36.3541 345.895 36.0495C345.891 35.7935 345.782 35.5839 345.571 35.4205C345.359 35.2528 345.032 35.1248 344.591 35.0365L342.829 34.6856C341.836 34.487 341.097 34.1427 340.611 33.6527C340.13 33.1627 339.89 32.5381 339.89 31.7789C339.89 31.1256 340.066 30.5628 340.419 30.0905C340.777 29.6182 341.278 29.254 341.922 28.998C342.571 28.742 343.33 28.614 344.2 28.614C345.484 28.614 346.495 28.8855 347.232 29.4284C347.974 29.9713 348.407 30.7107 348.53 31.6465Z" fill="url(#paint6_linear_436_3325)"/>
<ellipse cx="306" cy="146.425" rx="195.348" ry="21.3508" fill="url(#paint7_linear_436_3325)"/>
<g filter="url(#filter1_b_436_3325)">
<ellipse cx="306" cy="133.48" rx="211.589" ry="21.3508" fill="url(#paint8_linear_436_3325)" fill-opacity="0.2"/>
<path d="M517.086 133.48C517.086 134.036 516.809 134.644 516.142 135.307C515.474 135.971 514.453 136.649 513.068 137.332C510.3 138.697 506.186 140.028 500.844 141.302C490.17 143.849 474.703 146.146 455.565 148.078C417.297 151.939 364.417 154.329 306 154.329C247.583 154.329 194.703 151.939 156.435 148.078C137.297 146.146 121.83 143.849 111.156 141.302C105.814 140.028 101.7 138.697 98.9324 137.332C97.5472 136.649 96.5261 135.971 95.858 135.307C95.1908 134.644 94.9139 134.036 94.9139 133.48C94.9139 132.924 95.1908 132.317 95.858 131.654C96.5261 130.99 97.5472 130.311 98.9324 129.628C101.7 128.263 105.814 126.933 111.156 125.658C121.83 123.112 137.297 120.814 156.435 118.883C194.703 115.021 247.583 112.632 306 112.632C364.417 112.632 417.297 115.021 455.565 118.883C474.703 120.814 490.17 123.112 500.844 125.658C506.186 126.933 510.3 128.263 513.068 129.628C514.453 130.311 515.474 130.99 516.142 131.654C516.809 132.317 517.086 132.924 517.086 133.48Z" stroke="url(#paint9_linear_436_3325)" stroke-width="1.00503"/>
</g>
<g clip-path="url(#clip0_436_3325)">
<path d="M196.554 108.541L193.69 111.413H195.602V117.147L196.558 118.103L197.514 117.147V111.413H199.427L196.554 108.541ZM187.953 112.366V116.19L189.189 114.954L193.294 119.059H194.646V117.707L190.541 113.602L191.777 112.366H187.953ZM193.129 112.366L191.893 113.602L194.646 116.355V112.366H193.129ZM198.471 112.366V116.355L201.223 113.602L199.987 112.366H198.471ZM201.339 112.366L202.575 113.602L198.471 117.707V119.059H199.823L203.927 114.954L205.164 116.19V112.366H201.339ZM189.189 116.306L187.953 117.542V119.059H191.942L189.189 116.306ZM203.927 116.306L201.175 119.059H205.164V117.542L203.927 116.306ZM187 118.103L184.128 120.975L187 123.84V121.927H192.733L193.69 120.971L192.733 120.015H187V118.103ZM206.116 118.103V120.015H200.383L199.427 120.971L200.383 121.927H206.116V123.84L208.988 120.967L206.116 118.103ZM187.953 122.884V124.4L189.189 125.636L191.942 122.884H187.953ZM193.294 122.884L189.189 126.988L187.953 125.752V129.577H191.777L190.541 128.34L194.646 124.236V122.884H193.294ZM198.471 122.884V124.236L202.575 128.34L201.339 129.577H205.164V125.752L203.927 126.988L199.823 122.884H198.471ZM201.175 122.884L203.927 125.636L205.164 124.4V122.884H201.175ZM196.558 123.84L195.602 124.796V130.529H193.69L196.562 133.401L199.427 130.529H197.514V124.796L196.558 123.84ZM194.646 125.588L191.893 128.34L193.129 129.577H194.646V125.588ZM198.471 125.588V129.577H199.987L201.223 128.34L198.471 125.588Z" fill="url(#paint10_linear_436_3325)"/>
</g>
<g clip-path="url(#clip1_436_3325)">
<path d="M249.56 108.541C256.42 108.541 261.99 114.111 261.99 120.971C261.99 127.832 256.42 133.401 249.56 133.401C242.699 133.401 237.129 127.832 237.129 120.971C237.129 114.111 242.699 108.541 249.56 108.541ZM252.956 126.855C252.764 126.962 252.596 127.107 252.46 127.28C252.325 127.452 252.225 127.651 252.167 127.863C252.108 128.074 252.093 128.296 252.12 128.514C252.148 128.732 252.219 128.942 252.329 129.132C252.439 129.323 252.585 129.489 252.76 129.623C252.935 129.756 253.134 129.853 253.347 129.909C253.56 129.964 253.781 129.977 253.999 129.946C254.216 129.915 254.426 129.842 254.615 129.729C254.99 129.506 255.262 129.145 255.372 128.723C255.482 128.3 255.422 127.852 255.204 127.474C254.986 127.096 254.628 126.819 254.207 126.703C253.786 126.587 253.337 126.642 252.956 126.855ZM249.56 125.819C248.854 125.82 248.157 125.666 247.518 125.368L246.365 127.435C247.328 127.91 248.414 128.182 249.56 128.182C250.211 128.182 250.859 128.092 251.486 127.917C251.541 127.575 251.671 127.251 251.868 126.966C252.064 126.682 252.321 126.445 252.621 126.273C252.919 126.1 253.253 125.996 253.597 125.968C253.941 125.94 254.287 125.989 254.609 126.111C255.877 124.871 256.641 123.205 256.754 121.434L254.387 121.4C254.28 122.607 253.725 123.729 252.832 124.547C251.938 125.365 250.771 125.819 249.56 125.819ZM244.712 120.971C244.712 120.193 244.899 119.426 245.258 118.736C245.617 118.045 246.136 117.451 246.773 117.004L245.561 114.973C244.088 115.953 243.026 117.44 242.577 119.152C242.847 119.369 243.064 119.643 243.213 119.955C243.362 120.267 243.438 120.609 243.437 120.955C243.437 121.684 243.101 122.321 242.577 122.756C243.026 124.468 244.088 125.955 245.561 126.935L246.773 124.899C246.136 124.462 245.615 123.875 245.256 123.191C244.897 122.506 244.71 121.744 244.712 120.971ZM241.107 119.312C240.886 119.306 240.666 119.345 240.459 119.426C240.253 119.507 240.065 119.628 239.907 119.783C239.748 119.937 239.622 120.122 239.536 120.326C239.45 120.53 239.406 120.749 239.406 120.971C239.406 121.192 239.45 121.411 239.536 121.615C239.622 121.819 239.748 122.004 239.907 122.159C240.065 122.313 240.253 122.435 240.459 122.515C240.666 122.596 240.886 122.635 241.107 122.63C241.54 122.619 241.951 122.439 242.254 122.129C242.556 121.819 242.725 121.404 242.725 120.971C242.725 120.538 242.556 120.122 242.254 119.812C241.951 119.502 241.54 119.323 241.107 119.312ZM249.56 116.123C250.771 116.124 251.938 116.577 252.831 117.395C253.725 118.213 254.28 119.335 254.387 120.541L256.754 120.506C256.64 118.736 255.876 117.07 254.609 115.828C254.286 115.951 253.94 116 253.596 115.972C253.251 115.944 252.917 115.84 252.618 115.667C252.319 115.494 252.062 115.256 251.867 114.971C251.671 114.687 251.541 114.362 251.486 114.021C250.858 113.85 250.21 113.763 249.56 113.762C248.41 113.762 247.327 114.031 246.365 114.508L247.518 116.574C248.157 116.277 248.854 116.123 249.56 116.123ZM252.956 115.087C253.337 115.307 253.79 115.366 254.215 115.253C254.641 115.139 255.003 114.861 255.224 114.481C255.423 114.101 255.468 113.658 255.348 113.246C255.228 112.834 254.954 112.484 254.582 112.269C254.21 112.055 253.77 111.993 253.353 112.096C252.937 112.199 252.576 112.459 252.347 112.822C252.238 113.011 252.168 113.219 252.14 113.435C252.111 113.651 252.126 113.87 252.182 114.081C252.239 114.291 252.336 114.488 252.469 114.661C252.602 114.833 252.767 114.978 252.956 115.087Z" fill="url(#paint11_linear_436_3325)"/>
</g>
<g clip-path="url(#clip2_436_3325)">
<path d="M305.067 109.817C304.2 109.817 303.947 111.022 302.905 111.022C301.895 111.022 301.162 110.119 300.219 110.119C299.318 110.119 298.735 110.779 298.287 112.138C296.75 116.782 296.817 116.584 296.829 116.829C296.829 118.314 302.269 123.19 309.552 123.19V123.202C311.428 123.202 314.137 122.783 314.137 120.379C314.159 119.974 314.193 120.277 312.976 114.612C312.724 113.463 312.492 112.94 310.627 111.941C309.167 111.139 305.999 109.817 305.067 109.817ZM296.009 117.667C293.444 117.791 290.131 118.26 290.131 121.238C290.131 126.113 301.498 132.126 310.501 132.126C317.395 132.126 319.135 128.958 319.135 126.448C319.135 124.473 317.461 122.242 314.438 120.904C314.695 122.283 314.673 122.71 314.673 122.889C314.673 125.241 312.269 126.548 309.104 126.548C301.97 126.56 295.709 121.944 295.709 118.905C295.709 118.481 295.854 118.057 296.01 117.667H296.009Z" fill="url(#paint12_linear_436_3325)"/>
</g>
<g clip-path="url(#clip3_436_3325)">
<path d="M371.807 113.292C371.807 113.292 371.791 114.249 371.791 114.354C371.315 114.197 367.899 113.093 364.691 112.978C361.976 112.884 358.267 112.753 353.024 115.976C352.01 116.623 349.158 118.388 347.813 121.715C347.525 122.411 347.153 123.981 347.525 125.451C347.699 126.12 347.992 126.752 348.388 127.318C349.299 128.627 350.826 129.495 352.474 129.641C354.797 129.845 356.56 128.804 357.183 126.853C357.612 125.503 357.183 123.525 355.535 122.515C354.196 121.694 352.746 121.882 351.914 122.431C351.187 122.913 350.774 123.662 350.784 124.482C350.8 125.937 352.056 126.711 352.955 126.711C353.237 126.71 353.516 126.663 353.782 126.571C354.122 126.477 354.478 126.231 354.478 125.792C354.478 125.159 353.871 125.018 353.599 125.064C353.447 125.091 353.364 125.169 352.982 125.19C352.877 125.18 352.354 125.028 352.354 124.458V124.452C352.364 123.809 353.044 123.511 353.688 123.568C355.378 123.715 356.183 125.698 355.179 127.005C354.221 128.246 351.172 128.219 349.963 125.937C348.603 123.363 350.627 120.12 354.514 120.79C356.251 121.089 358.888 122.648 359.872 126.247H362.273C361.975 125.326 361.808 122.674 364.507 122.674C367.473 122.674 367.85 124.762 368.683 126.247H371.225C370.556 125.29 370.09 124.223 370.236 123.328C370.528 121.559 372.314 122.365 374.548 122.418C378.027 122.439 379.889 121.005 379.941 120.952C380.136 120.791 380.282 120.126 380.308 120.027C380.376 119.76 380.14 119.901 380.14 119.901C379.685 120.173 378.545 120.696 377.477 120.717C376.154 120.743 373.491 119.388 373.208 119.242C373.192 119.221 373.214 119.304 372.633 117.908C377.258 120.958 378.822 120.027 380.229 119.043C380.271 119.011 380.456 118.891 380.418 118.745C379.696 116.228 379.246 115.464 378.613 115.103C376.677 113.973 372.074 113.288 371.853 113.257C371.859 113.251 371.806 113.241 371.806 113.293L371.807 113.292ZM374.967 117.101C374.975 116.842 375.034 116.588 375.141 116.352C375.248 116.117 375.401 115.905 375.59 115.728C375.779 115.552 376.001 115.414 376.243 115.324C376.486 115.234 376.743 115.192 377.002 115.202C378.75 115.264 379.555 117.415 378.279 118.613C377.012 119.8 374.909 118.853 374.967 117.101ZM376.986 115.777C376.715 115.768 376.447 115.84 376.216 115.983C375.985 116.126 375.802 116.334 375.69 116.581C375.577 116.828 375.54 117.103 375.584 117.371C375.628 117.639 375.75 117.889 375.935 118.087C376.12 118.286 376.36 118.425 376.624 118.488C376.889 118.55 377.165 118.533 377.42 118.438C377.674 118.343 377.895 118.175 378.054 117.955C378.213 117.735 378.303 117.473 378.313 117.201C378.321 117.021 378.292 116.84 378.229 116.67C378.166 116.501 378.07 116.345 377.947 116.213C377.823 116.08 377.675 115.973 377.51 115.899C377.345 115.824 377.167 115.783 376.986 115.777ZM377.211 117.284C376.406 117.284 376.406 116.468 377.211 116.468C378.017 116.468 378.017 117.284 377.211 117.284Z" fill="url(#paint13_linear_436_3325)"/>
</g>
<path d="M429.093 118.534C428.647 119.078 427.491 119.301 426.568 119.02C425.694 118.748 425.413 118.136 425.889 117.65C426.345 117.184 427.365 116.98 428.219 117.194C429.103 117.417 429.521 118.01 429.093 118.534ZM425.044 117.417C424.568 117.883 423.539 118.087 422.791 117.864C422.373 117.738 422.15 117.476 422.14 117.252C422.13 117.087 421.868 116.932 421.567 116.844C421.276 116.757 420.926 116.767 420.586 116.805C420.499 116.815 420.315 116.854 420.198 116.893C419.887 116.99 419.606 117.106 419.382 117.291C419.101 117.514 419.004 117.913 419.013 118.068C419.023 118.272 419.227 118.456 419.528 118.563C419.829 118.67 420.198 118.689 420.577 118.631C421.033 118.515 421.528 118.505 421.936 118.651C422.684 118.903 422.869 119.544 422.305 120.098C421.713 120.67 420.586 120.894 419.829 120.573C419.411 120.399 419.266 120.078 419.246 119.777C419.227 119.544 419.013 119.359 418.712 119.243C418.411 119.126 418.071 119.126 417.683 119.165C417.634 119.165 417.401 119.214 417.256 119.253C417.061 119.301 416.663 119.408 416.323 119.728C416.061 119.981 415.945 120.214 415.877 120.36C415.838 120.437 415.789 120.622 415.789 120.69C415.779 120.952 415.935 121.185 416.236 121.341C416.537 121.486 416.925 121.525 417.333 121.477C417.838 121.35 418.372 121.36 418.78 121.554C419.538 121.904 419.625 122.739 418.916 123.438C418.178 124.166 416.916 124.39 416.168 123.953C415.76 123.71 415.643 123.341 415.702 122.914C415.702 122.914 415.702 122.807 415.682 122.758C415.682 122.758 415.673 122.671 415.614 122.564C415.537 122.418 415.41 122.292 415.245 122.205C414.954 122.04 414.575 122.001 414.167 122.059C413.662 122.185 413.177 122.166 412.847 121.981C412.293 121.651 412.458 120.952 413.167 120.428C413.536 120.156 413.973 119.981 414.391 119.903C414.789 119.826 415.197 119.651 415.527 119.408C415.847 119.165 416.003 118.903 416.022 118.67C416.022 118.66 416.032 118.544 416.003 118.417C415.993 118.223 416.003 118.029 416.187 117.815C416.304 117.679 416.566 117.543 416.848 117.495C417.042 117.456 417.294 117.466 417.43 117.456C417.557 117.446 417.77 117.427 417.838 117.408C418.12 117.33 418.295 117.233 418.508 117.068C418.722 116.903 418.858 116.728 418.887 116.563C418.897 116.534 418.906 116.368 418.897 116.359C418.829 115.99 419.373 115.572 420.111 115.446C420.489 115.378 420.839 115.397 421.111 115.475C421.121 115.475 421.13 115.475 421.14 115.485C421.412 115.553 421.587 115.679 421.655 115.834V115.844C421.664 115.873 421.674 115.902 421.674 115.931C421.742 116.097 421.927 116.232 422.228 116.32C422.529 116.398 422.878 116.407 423.228 116.349C423.645 116.242 424.112 116.223 424.51 116.33C425.248 116.466 425.5 116.971 425.044 117.417ZM423.306 125.73C422.577 126.623 421.111 126.886 420.13 126.293C419.207 125.74 419.13 124.671 419.868 123.914C420.577 123.186 421.829 122.953 422.742 123.38C423.713 123.846 423.995 124.885 423.306 125.73ZM430.492 114.941L421.703 110.076C421.266 109.833 420.732 109.833 420.295 110.076L411.497 114.941C411.06 115.184 410.798 115.63 410.798 116.106V125.827C410.798 126.313 411.07 126.75 411.497 126.992L420.285 131.858C420.722 132.1 421.256 132.1 421.693 131.858L430.482 126.992C430.919 126.75 431.181 126.303 431.181 125.827V116.106C431.191 115.63 430.919 115.184 430.492 114.941Z" fill="url(#paint14_linear_436_3325)"/>
<ellipse cx="418.872" cy="227.508" rx="92.514" ry="17.9579" fill="url(#paint15_linear_436_3325)"/>
<g filter="url(#filter2_b_436_3325)">
<ellipse cx="418.872" cy="216.621" rx="100.206" ry="17.9579" fill="url(#paint16_linear_436_3325)" fill-opacity="0.2"/>
<path d="M518.596 216.621C518.596 217.665 518.007 218.755 516.724 219.878C515.444 220.999 513.528 222.103 511.015 223.168C505.992 225.296 498.696 227.223 489.643 228.846C471.545 232.089 446.523 234.098 418.872 234.098C391.22 234.098 366.199 232.089 348.101 228.846C339.048 227.223 331.751 225.296 326.729 223.168C324.216 222.103 322.3 220.999 321.019 219.878C319.737 218.755 319.148 217.665 319.148 216.621C319.148 215.578 319.737 214.488 321.019 213.365C322.3 212.244 324.216 211.14 326.729 210.075C331.751 207.947 339.048 206.02 348.101 204.397C366.199 201.154 391.22 199.145 418.872 199.145C446.523 199.145 471.545 201.154 489.643 204.397C498.696 206.02 505.992 207.947 511.015 210.075C513.528 211.14 515.444 212.244 516.724 213.365C518.007 214.488 518.596 215.578 518.596 216.621Z" stroke="url(#paint17_linear_436_3325)" stroke-width="0.963263"/>
</g>
<path d="M405.707 192.182L408.065 196.167H408.156L410.526 192.182H413.319L409.75 198.029L413.399 203.876H410.555L408.156 199.885H408.065L405.667 203.876H402.834L406.495 198.029L402.903 192.182H405.707ZM419.301 204.036C418.421 204.036 417.639 203.894 416.954 203.608C416.272 203.319 415.737 202.925 415.349 202.426C414.961 201.927 414.767 201.362 414.767 200.73C414.767 200.243 414.877 199.795 415.098 199.388C415.322 198.977 415.627 198.636 416.011 198.366C416.396 198.092 416.826 197.917 417.302 197.841V197.761C416.678 197.635 416.171 197.332 415.783 196.853C415.395 196.369 415.201 195.808 415.201 195.168C415.201 194.563 415.378 194.024 415.732 193.552C416.086 193.076 416.571 192.703 417.188 192.433C417.808 192.159 418.513 192.022 419.301 192.022C420.089 192.022 420.791 192.159 421.408 192.433C422.028 192.707 422.516 193.082 422.87 193.558C423.224 194.03 423.403 194.567 423.406 195.168C423.403 195.811 423.205 196.373 422.813 196.853C422.42 197.332 421.918 197.635 421.305 197.761V197.841C421.773 197.917 422.198 198.092 422.578 198.366C422.963 198.636 423.268 198.977 423.492 199.388C423.721 199.795 423.837 200.243 423.84 200.73C423.837 201.362 423.641 201.927 423.252 202.426C422.864 202.925 422.327 203.319 421.642 203.608C420.961 203.894 420.18 204.036 419.301 204.036ZM419.301 202.22C419.693 202.22 420.035 202.15 420.329 202.009C420.622 201.864 420.85 201.667 421.014 201.415C421.181 201.16 421.265 200.867 421.265 200.536C421.265 200.197 421.179 199.898 421.008 199.639C420.837 199.377 420.605 199.171 420.311 199.023C420.018 198.87 419.681 198.794 419.301 198.794C418.924 198.794 418.587 198.87 418.29 199.023C417.993 199.171 417.759 199.377 417.588 199.639C417.42 199.898 417.336 200.197 417.336 200.536C417.336 200.867 417.418 201.16 417.582 201.415C417.746 201.667 417.976 201.864 418.273 202.009C418.57 202.15 418.912 202.22 419.301 202.22ZM419.301 196.995C419.628 196.995 419.919 196.929 420.174 196.796C420.429 196.662 420.629 196.478 420.774 196.242C420.919 196.006 420.991 195.733 420.991 195.425C420.991 195.12 420.919 194.854 420.774 194.626C420.629 194.393 420.431 194.213 420.18 194.083C419.929 193.95 419.636 193.883 419.301 193.883C418.969 193.883 418.676 193.95 418.421 194.083C418.166 194.213 417.966 194.393 417.822 194.626C417.681 194.854 417.61 195.12 417.61 195.425C417.61 195.733 417.683 196.006 417.827 196.242C417.972 196.478 418.172 196.662 418.427 196.796C418.682 196.929 418.973 196.995 419.301 196.995ZM430.181 204.036C429.579 204.033 428.999 203.932 428.439 203.734C427.883 203.536 427.385 203.214 426.943 202.769C426.501 202.323 426.151 201.733 425.892 200.998C425.637 200.264 425.51 199.361 425.51 198.292C425.513 197.309 425.626 196.432 425.847 195.659C426.071 194.883 426.391 194.224 426.806 193.683C427.225 193.143 427.725 192.732 428.308 192.45C428.89 192.164 429.543 192.022 430.266 192.022C431.047 192.022 431.736 192.174 432.334 192.478C432.931 192.779 433.411 193.188 433.773 193.706C434.138 194.224 434.359 194.805 434.435 195.448H431.997C431.902 195.041 431.702 194.721 431.397 194.489C431.093 194.256 430.716 194.14 430.266 194.14C429.505 194.14 428.926 194.471 428.53 195.134C428.138 195.796 427.938 196.697 427.931 197.835H428.011C428.186 197.488 428.422 197.193 428.719 196.95C429.02 196.702 429.36 196.514 429.741 196.384C430.126 196.251 430.531 196.185 430.957 196.185C431.65 196.185 432.267 196.348 432.808 196.676C433.348 196.999 433.775 197.445 434.087 198.012C434.399 198.579 434.555 199.228 434.555 199.959C434.555 200.751 434.37 201.455 434.001 202.072C433.636 202.689 433.124 203.172 432.465 203.522C431.81 203.869 431.049 204.04 430.181 204.036ZM430.169 202.095C430.55 202.095 430.891 202.003 431.192 201.821C431.492 201.638 431.728 201.391 431.9 201.078C432.071 200.766 432.157 200.416 432.157 200.028C432.157 199.639 432.071 199.291 431.9 198.983C431.732 198.674 431.5 198.429 431.203 198.246C430.906 198.063 430.567 197.972 430.186 197.972C429.901 197.972 429.636 198.025 429.393 198.132C429.153 198.238 428.942 198.387 428.759 198.577C428.58 198.768 428.439 198.988 428.336 199.24C428.234 199.487 428.182 199.752 428.182 200.033C428.182 200.41 428.268 200.755 428.439 201.067C428.614 201.379 428.85 201.628 429.147 201.815C429.448 202.002 429.789 202.095 430.169 202.095Z" fill="url(#paint18_linear_436_3325)"/>
<ellipse cx="194.744" cy="227.225" rx="92.6316" ry="18.2404" fill="url(#paint19_linear_436_3325)"/>
<g filter="url(#filter3_b_436_3325)">
<ellipse cx="194.744" cy="216.167" rx="100.333" ry="18.2404" fill="url(#paint20_linear_436_3325)" fill-opacity="0.2"/>
<path d="M294.575 216.167C294.575 217.225 293.987 218.329 292.705 219.468C291.425 220.604 289.509 221.725 286.994 222.806C281.968 224.966 274.664 226.923 265.601 228.571C247.482 231.865 222.43 233.905 194.744 233.905C167.059 233.905 142.007 231.865 123.888 228.571C114.825 226.923 107.521 224.966 102.494 222.806C99.9795 221.725 98.0631 220.604 96.7835 219.468C95.5019 218.329 94.9139 217.225 94.9139 216.167C94.9139 215.109 95.5019 214.005 96.7835 212.867C98.0631 211.73 99.9795 210.61 102.494 209.529C107.521 207.369 114.825 205.411 123.888 203.764C142.007 200.47 167.059 198.429 194.744 198.429C222.43 198.429 247.482 200.47 265.601 203.764C274.664 205.411 281.968 207.369 286.994 209.529C289.509 210.61 291.425 211.73 292.705 212.867C293.987 214.005 294.575 215.109 294.575 216.167Z" stroke="url(#paint21_linear_436_3325)" stroke-width="1.00503"/>
</g>
<ellipse cx="194.872" cy="227.508" rx="92.514" ry="17.9579" fill="url(#paint22_linear_436_3325)"/>
<g filter="url(#filter4_b_436_3325)">
<ellipse cx="194.872" cy="216.621" rx="100.206" ry="17.9579" fill="url(#paint23_linear_436_3325)" fill-opacity="0.2"/>
<path d="M294.596 216.621C294.596 217.665 294.007 218.754 292.724 219.878C291.444 220.999 289.528 222.103 287.015 223.168C281.992 225.295 274.696 227.223 265.643 228.845C247.545 232.088 222.523 234.097 194.872 234.097C167.22 234.097 142.199 232.088 124.101 228.845C115.048 227.223 107.751 225.295 102.729 223.168C100.216 222.103 98.2995 220.999 97.0194 219.878C95.7367 218.754 95.1479 217.665 95.1479 216.621C95.1479 215.577 95.7367 214.488 97.0194 213.364C98.2995 212.243 100.216 211.139 102.729 210.074C107.751 207.946 115.048 206.019 124.101 204.397C142.199 201.154 167.22 199.145 194.872 199.145C222.523 199.145 247.545 201.154 265.643 204.397C274.696 206.019 281.992 207.946 287.015 210.074C289.528 211.139 291.444 212.243 292.724 213.364C294.007 214.488 294.596 215.577 294.596 216.621Z" stroke="url(#paint24_linear_436_3325)" stroke-width="0.963263"/>
</g>
<path d="M178.776 203.876H176.127L180.164 192.181H183.351L187.382 203.876H184.732L181.803 194.854H181.712L178.776 203.876ZM178.611 199.279H184.87V201.209H178.611V199.279ZM188.913 203.876V192.181H193.527C194.41 192.181 195.164 192.339 195.788 192.655C196.416 192.967 196.894 193.411 197.221 193.986C197.553 194.557 197.718 195.228 197.718 196.001C197.718 196.778 197.551 197.446 197.216 198.006C196.881 198.561 196.395 198.988 195.76 199.285C195.128 199.582 194.362 199.73 193.464 199.73H190.375V197.743H193.064C193.536 197.743 193.928 197.678 194.241 197.549C194.553 197.419 194.785 197.225 194.937 196.966C195.093 196.707 195.171 196.386 195.171 196.001C195.171 195.613 195.093 195.286 194.937 195.019C194.785 194.753 194.551 194.551 194.235 194.414C193.923 194.273 193.529 194.203 193.053 194.203H191.385V203.876H188.913ZM195.229 198.554L198.135 203.876H195.406L192.562 198.554H195.229ZM199.589 192.181H202.638L205.859 200.039H205.996L209.217 192.181H212.266V203.876H209.868V196.264H209.77L206.744 203.819H205.111L202.084 196.235H201.987V203.876H199.589V192.181Z" fill="url(#paint25_linear_436_3325)"/>
<ellipse cx="306" cy="310.184" rx="195.348" ry="21.3838" fill="url(#paint26_linear_436_3325)"/>
<g filter="url(#filter5_b_436_3325)">
<ellipse cx="306" cy="297.22" rx="211.589" ry="21.3838" fill="url(#paint27_linear_436_3325)" fill-opacity="0.2"/>
<path d="M517.107 297.22C517.107 297.785 516.826 298.399 516.157 299.065C515.486 299.732 514.463 300.413 513.077 301.098C510.307 302.466 506.191 303.799 500.849 305.075C490.173 307.626 474.705 309.928 455.567 311.862C417.298 315.729 364.418 318.122 306 318.122C247.582 318.122 194.702 315.729 156.433 311.862C137.295 309.928 121.827 307.626 111.151 305.075C105.809 303.799 101.694 302.466 98.9234 301.098C97.5372 300.413 96.514 299.732 95.8435 299.065C95.174 298.399 94.893 297.785 94.893 297.22C94.893 296.655 95.174 296.041 95.8435 295.375C96.514 294.708 97.5372 294.027 98.9234 293.342C101.694 291.974 105.809 290.641 111.151 289.365C121.827 286.814 137.295 284.513 156.433 282.579C194.702 278.711 247.582 276.318 306 276.318C364.418 276.318 417.298 278.711 455.567 282.579C474.705 284.513 490.173 286.814 500.849 289.365C506.191 290.641 510.307 291.974 513.077 293.342C514.463 294.027 515.486 294.708 516.157 295.375C516.826 296.041 517.107 296.655 517.107 297.22Z" stroke="url(#paint28_linear_436_3325)" stroke-width="0.963263"/>
</g>
<path d="M120.894 280.567V271.065H124.699C125.398 271.065 125.981 271.168 126.448 271.376C126.915 271.583 127.266 271.871 127.501 272.239C127.737 272.604 127.854 273.024 127.854 273.501C127.854 273.872 127.78 274.198 127.631 274.48C127.483 274.758 127.279 274.987 127.019 275.166C126.762 275.343 126.468 275.468 126.137 275.542V275.635C126.499 275.65 126.838 275.752 127.153 275.941C127.472 276.13 127.73 276.394 127.928 276.734C128.126 277.072 128.225 277.474 128.225 277.941C128.225 278.445 128.1 278.895 127.849 279.291C127.602 279.684 127.235 279.995 126.75 280.224C126.264 280.452 125.666 280.567 124.954 280.567H120.894ZM122.903 278.924H124.541C125.101 278.924 125.509 278.818 125.766 278.604C126.023 278.388 126.151 278.1 126.151 277.741C126.151 277.478 126.088 277.246 125.961 277.045C125.834 276.844 125.653 276.687 125.418 276.572C125.186 276.458 124.909 276.4 124.588 276.4H122.903V278.924ZM122.903 275.041H124.393C124.668 275.041 124.912 274.993 125.126 274.897C125.342 274.798 125.513 274.659 125.636 274.48C125.763 274.3 125.826 274.085 125.826 273.835C125.826 273.491 125.704 273.214 125.46 273.004C125.219 272.794 124.875 272.689 124.43 272.689H122.903V275.041ZM131.651 280.701C131.196 280.701 130.791 280.623 130.435 280.465C130.079 280.304 129.798 280.067 129.591 279.755C129.386 279.439 129.284 279.047 129.284 278.576C129.284 278.181 129.357 277.848 129.502 277.579C129.648 277.31 129.846 277.093 130.096 276.929C130.347 276.765 130.631 276.642 130.95 276.558C131.272 276.475 131.609 276.416 131.961 276.382C132.376 276.339 132.71 276.298 132.964 276.261C133.217 276.221 133.401 276.162 133.516 276.085C133.63 276.008 133.687 275.893 133.687 275.742V275.714C133.687 275.42 133.595 275.193 133.409 275.032C133.227 274.871 132.967 274.79 132.63 274.79C132.274 274.79 131.991 274.869 131.781 275.027C131.57 275.182 131.431 275.377 131.363 275.612L129.535 275.463C129.628 275.03 129.81 274.656 130.082 274.34C130.355 274.022 130.706 273.777 131.136 273.607C131.569 273.434 132.07 273.347 132.639 273.347C133.035 273.347 133.414 273.394 133.776 273.487C134.141 273.579 134.464 273.723 134.745 273.918C135.03 274.113 135.254 274.364 135.418 274.67C135.582 274.973 135.664 275.336 135.664 275.76V280.567H133.79V279.579H133.734C133.619 279.801 133.466 279.998 133.275 280.168C133.083 280.335 132.852 280.466 132.583 280.562C132.314 280.655 132.003 280.701 131.651 280.701ZM132.217 279.337C132.507 279.337 132.764 279.28 132.987 279.166C133.21 279.048 133.384 278.89 133.511 278.692C133.638 278.494 133.701 278.27 133.701 278.02V277.263C133.64 277.304 133.554 277.341 133.446 277.375C133.341 277.406 133.222 277.435 133.089 277.463C132.956 277.488 132.823 277.511 132.69 277.533C132.557 277.551 132.436 277.568 132.328 277.584C132.096 277.618 131.893 277.672 131.72 277.746C131.547 277.82 131.412 277.921 131.317 278.048C131.221 278.171 131.173 278.326 131.173 278.512C131.173 278.781 131.27 278.986 131.465 279.129C131.663 279.268 131.914 279.337 132.217 279.337ZM137.321 280.567V273.44H139.237V274.684H139.311C139.441 274.241 139.659 273.907 139.965 273.682C140.271 273.453 140.624 273.338 141.023 273.338C141.122 273.338 141.229 273.344 141.343 273.357C141.458 273.369 141.558 273.386 141.645 273.408V275.162C141.552 275.134 141.424 275.109 141.26 275.087C141.096 275.066 140.946 275.055 140.81 275.055C140.519 275.055 140.259 275.118 140.03 275.245C139.804 275.369 139.625 275.542 139.492 275.765C139.362 275.987 139.297 276.244 139.297 276.535V280.567H137.321ZM145.706 280.706C144.973 280.706 144.342 280.558 143.813 280.261C143.287 279.961 142.882 279.537 142.597 278.989C142.313 278.439 142.17 277.788 142.17 277.036C142.17 276.303 142.313 275.66 142.597 275.106C142.882 274.552 143.282 274.121 143.799 273.811C144.319 273.502 144.928 273.347 145.627 273.347C146.097 273.347 146.535 273.423 146.94 273.575C147.348 273.723 147.704 273.948 148.007 274.248C148.313 274.548 148.551 274.925 148.722 275.38C148.892 275.831 148.977 276.36 148.977 276.966V277.509H142.959V276.284H147.116C147.116 276 147.054 275.748 146.931 275.528C146.807 275.309 146.635 275.137 146.416 275.013C146.199 274.886 145.947 274.823 145.659 274.823C145.359 274.823 145.093 274.893 144.861 275.032C144.632 275.168 144.453 275.352 144.323 275.584C144.193 275.813 144.127 276.068 144.124 276.349V277.514C144.124 277.867 144.189 278.171 144.319 278.428C144.452 278.685 144.639 278.883 144.88 279.022C145.121 279.161 145.407 279.231 145.738 279.231C145.958 279.231 146.159 279.2 146.341 279.138C146.524 279.076 146.68 278.983 146.81 278.859C146.94 278.736 147.039 278.584 147.107 278.405L148.935 278.525C148.842 278.965 148.652 279.348 148.364 279.676C148.08 280.001 147.712 280.254 147.26 280.437C146.812 280.616 146.293 280.706 145.706 280.706ZM153.574 271.065H156.051L158.668 277.449H158.78L161.396 271.065H163.874V280.567H161.925V274.382H161.846L159.387 280.52H158.06L155.601 274.359H155.523V280.567H153.574V271.065ZM168.863 280.706C168.13 280.706 167.499 280.558 166.97 280.261C166.444 279.961 166.039 279.537 165.754 278.989C165.47 278.439 165.328 277.788 165.328 277.036C165.328 276.303 165.47 275.66 165.754 275.106C166.039 274.552 166.44 274.121 166.956 273.811C167.476 273.502 168.085 273.347 168.784 273.347C169.254 273.347 169.692 273.423 170.097 273.575C170.505 273.723 170.861 273.948 171.164 274.248C171.471 274.548 171.709 274.925 171.879 275.38C172.049 275.831 172.134 276.36 172.134 276.966V277.509H166.116V276.284H170.274C170.274 276 170.212 275.748 170.088 275.528C169.964 275.309 169.793 275.137 169.573 275.013C169.356 274.886 169.104 274.823 168.817 274.823C168.517 274.823 168.251 274.893 168.019 275.032C167.79 275.168 167.61 275.352 167.48 275.584C167.35 275.813 167.284 276.068 167.281 276.349V277.514C167.281 277.867 167.346 278.171 167.476 278.428C167.609 278.685 167.796 278.883 168.037 279.022C168.278 279.161 168.565 279.231 168.896 279.231C169.115 279.231 169.316 279.2 169.499 279.138C169.681 279.076 169.837 278.983 169.967 278.859C170.097 278.736 170.196 278.584 170.264 278.405L172.092 278.525C171.999 278.965 171.809 279.348 171.522 279.676C171.237 280.001 170.869 280.254 170.417 280.437C169.969 280.616 169.451 280.706 168.863 280.706ZM177.338 273.44V274.925H173.046V273.44H177.338ZM174.02 271.733H175.997V278.377C175.997 278.559 176.025 278.702 176.08 278.804C176.136 278.903 176.213 278.972 176.312 279.013C176.414 279.053 176.532 279.073 176.665 279.073C176.758 279.073 176.85 279.065 176.943 279.05C177.036 279.031 177.107 279.017 177.157 279.008L177.468 280.479C177.369 280.51 177.229 280.545 177.05 280.585C176.871 280.629 176.652 280.655 176.396 280.664C175.919 280.683 175.502 280.619 175.143 280.474C174.787 280.329 174.51 280.103 174.313 279.797C174.115 279.49 174.017 279.104 174.02 278.637V271.733ZM180.78 280.701C180.326 280.701 179.921 280.623 179.565 280.465C179.209 280.304 178.928 280.067 178.72 279.755C178.516 279.439 178.414 279.047 178.414 278.576C178.414 278.181 178.487 277.848 178.632 277.579C178.778 277.31 178.976 277.093 179.226 276.929C179.477 276.765 179.761 276.642 180.08 276.558C180.402 276.475 180.739 276.416 181.091 276.382C181.506 276.339 181.84 276.298 182.093 276.261C182.347 276.221 182.531 276.162 182.646 276.085C182.76 276.008 182.817 275.893 182.817 275.742V275.714C182.817 275.42 182.724 275.193 182.539 275.032C182.356 274.871 182.097 274.79 181.759 274.79C181.404 274.79 181.121 274.869 180.91 275.027C180.7 275.182 180.561 275.377 180.493 275.612L178.665 275.463C178.758 275.03 178.94 274.656 179.212 274.34C179.484 274.022 179.835 273.777 180.265 273.607C180.698 273.434 181.2 273.347 181.769 273.347C182.165 273.347 182.544 273.394 182.905 273.487C183.27 273.579 183.594 273.723 183.875 273.918C184.16 274.113 184.384 274.364 184.548 274.67C184.712 274.973 184.794 275.336 184.794 275.76V280.567H182.919V279.579H182.864C182.749 279.801 182.596 279.998 182.404 280.168C182.213 280.335 181.982 280.466 181.713 280.562C181.444 280.655 181.133 280.701 180.78 280.701ZM181.346 279.337C181.637 279.337 181.894 279.28 182.117 279.166C182.339 279.048 182.514 278.89 182.641 278.692C182.768 278.494 182.831 278.27 182.831 278.02V277.263C182.769 277.304 182.684 277.341 182.576 277.375C182.471 277.406 182.352 277.435 182.219 277.463C182.086 277.488 181.953 277.511 181.82 277.533C181.687 277.551 181.566 277.568 181.458 277.584C181.226 277.618 181.023 277.672 180.85 277.746C180.677 277.82 180.542 277.921 180.446 278.048C180.35 278.171 180.303 278.326 180.303 278.512C180.303 278.781 180.4 278.986 180.595 279.129C180.793 279.268 181.043 279.337 181.346 279.337ZM188.427 271.065V280.567H186.45V271.065H188.427ZM197.419 270.619L194.357 281.996H192.654L195.716 270.619H197.419ZM210.062 274.391H208.03C207.993 274.129 207.917 273.895 207.803 273.691C207.688 273.484 207.541 273.307 207.362 273.162C207.183 273.017 206.975 272.905 206.74 272.828C206.508 272.751 206.256 272.712 205.984 272.712C205.492 272.712 205.064 272.834 204.699 273.078C204.334 273.32 204.051 273.672 203.85 274.136C203.649 274.597 203.548 275.157 203.548 275.816C203.548 276.493 203.649 277.062 203.85 277.523C204.054 277.984 204.339 278.332 204.704 278.567C205.068 278.802 205.491 278.92 205.97 278.92C206.239 278.92 206.488 278.884 206.717 278.813C206.949 278.742 207.155 278.638 207.334 278.502C207.514 278.363 207.662 278.194 207.78 277.996C207.9 277.799 207.984 277.573 208.03 277.319L210.062 277.328C210.01 277.765 209.878 278.185 209.668 278.59C209.461 278.992 209.181 279.353 208.828 279.671C208.479 279.987 208.061 280.237 207.575 280.423C207.093 280.606 206.547 280.697 205.938 280.697C205.09 280.697 204.332 280.505 203.664 280.121C202.999 279.738 202.473 279.183 202.087 278.456C201.703 277.729 201.511 276.849 201.511 275.816C201.511 274.78 201.706 273.898 202.096 273.171C202.486 272.444 203.015 271.891 203.683 271.51C204.351 271.127 205.103 270.935 205.938 270.935C206.488 270.935 206.999 271.012 207.469 271.167C207.942 271.321 208.361 271.547 208.726 271.844C209.091 272.138 209.388 272.498 209.617 272.925C209.849 273.352 209.997 273.841 210.062 274.391ZM213.566 271.065V280.567H211.589V271.065H213.566ZM218.492 280.706C217.771 280.706 217.148 280.553 216.622 280.247C216.099 279.937 215.696 279.507 215.411 278.957C215.127 278.403 214.984 277.761 214.984 277.031C214.984 276.295 215.127 275.652 215.411 275.101C215.696 274.548 216.099 274.118 216.622 273.811C217.148 273.502 217.771 273.347 218.492 273.347C219.213 273.347 219.834 273.502 220.357 273.811C220.883 274.118 221.288 274.548 221.573 275.101C221.857 275.652 221.999 276.295 221.999 277.031C221.999 277.761 221.857 278.403 221.573 278.957C221.288 279.507 220.883 279.937 220.357 280.247C219.834 280.553 219.213 280.706 218.492 280.706ZM218.501 279.175C218.829 279.175 219.103 279.082 219.322 278.897C219.542 278.708 219.707 278.451 219.819 278.126C219.933 277.802 219.99 277.432 219.99 277.018C219.99 276.603 219.933 276.233 219.819 275.909C219.707 275.584 219.542 275.327 219.322 275.138C219.103 274.95 218.829 274.855 218.501 274.855C218.17 274.855 217.892 274.95 217.666 275.138C217.443 275.327 217.275 275.584 217.16 275.909C217.049 276.233 216.993 276.603 216.993 277.018C216.993 277.432 217.049 277.802 217.16 278.126C217.275 278.451 217.443 278.708 217.666 278.897C217.892 279.082 218.17 279.175 218.501 279.175ZM227.978 277.533V273.44H229.954V280.567H228.057V279.272H227.983C227.822 279.69 227.554 280.026 227.18 280.279C226.809 280.533 226.356 280.66 225.82 280.66C225.344 280.66 224.925 280.551 224.563 280.335C224.201 280.118 223.918 279.811 223.714 279.412C223.513 279.013 223.411 278.535 223.408 277.978V273.44H225.384V277.625C225.387 278.046 225.5 278.378 225.723 278.623C225.946 278.867 226.244 278.989 226.618 278.989C226.857 278.989 227.079 278.935 227.287 278.827C227.494 278.716 227.661 278.552 227.788 278.335C227.918 278.119 227.981 277.851 227.978 277.533ZM234.285 280.683C233.743 280.683 233.253 280.544 232.814 280.265C232.378 279.984 232.031 279.571 231.774 279.027C231.521 278.479 231.394 277.808 231.394 277.013C231.394 276.196 231.525 275.517 231.788 274.976C232.051 274.432 232.401 274.025 232.837 273.756C233.276 273.484 233.757 273.347 234.28 273.347C234.679 273.347 235.011 273.416 235.277 273.552C235.547 273.685 235.763 273.852 235.927 274.053C236.094 274.251 236.221 274.446 236.307 274.637H236.368V271.065H238.34V280.567H236.391V279.426H236.307C236.215 279.623 236.083 279.82 235.913 280.015C235.746 280.207 235.528 280.366 235.259 280.493C234.993 280.619 234.668 280.683 234.285 280.683ZM234.911 279.11C235.23 279.11 235.499 279.023 235.718 278.85C235.941 278.674 236.111 278.428 236.229 278.112C236.349 277.797 236.41 277.427 236.41 277.004C236.41 276.58 236.351 276.212 236.233 275.899C236.116 275.587 235.946 275.346 235.723 275.176C235.5 275.005 235.23 274.92 234.911 274.92C234.586 274.92 234.312 275.009 234.09 275.185C233.867 275.361 233.698 275.605 233.584 275.918C233.47 276.23 233.412 276.592 233.412 277.004C233.412 277.418 233.47 277.785 233.584 278.103C233.702 278.419 233.87 278.666 234.09 278.846C234.312 279.022 234.586 279.11 234.911 279.11ZM248.427 273.798C248.39 273.423 248.23 273.133 247.949 272.925C247.667 272.718 247.285 272.614 246.803 272.614C246.475 272.614 246.198 272.661 245.972 272.754C245.747 272.843 245.573 272.969 245.453 273.129C245.335 273.29 245.276 273.473 245.276 273.677C245.27 273.847 245.306 273.996 245.383 274.122C245.463 274.249 245.573 274.359 245.712 274.452C245.852 274.541 246.013 274.62 246.195 274.688C246.378 274.753 246.572 274.809 246.78 274.855L247.633 275.06C248.048 275.152 248.428 275.276 248.775 275.431C249.121 275.585 249.421 275.776 249.675 276.001C249.928 276.227 250.125 276.493 250.264 276.799C250.406 277.106 250.479 277.457 250.482 277.853C250.479 278.434 250.331 278.938 250.037 279.365C249.746 279.789 249.325 280.118 248.775 280.353C248.227 280.585 247.567 280.701 246.794 280.701C246.026 280.701 245.358 280.584 244.789 280.349C244.223 280.114 243.781 279.766 243.462 279.305C243.147 278.841 242.981 278.267 242.966 277.584H244.91C244.931 277.902 245.023 278.168 245.184 278.382C245.347 278.592 245.566 278.751 245.838 278.859C246.113 278.965 246.424 279.017 246.77 279.017C247.111 279.017 247.406 278.968 247.657 278.869C247.91 278.77 248.107 278.632 248.246 278.456C248.385 278.28 248.455 278.077 248.455 277.848C248.455 277.635 248.391 277.455 248.264 277.31C248.141 277.164 247.958 277.041 247.717 276.939C247.479 276.837 247.186 276.744 246.84 276.66L245.805 276.4C245.004 276.206 244.372 275.901 243.908 275.486C243.444 275.072 243.213 274.514 243.216 273.811C243.213 273.236 243.366 272.734 243.676 272.304C243.988 271.874 244.416 271.538 244.961 271.297C245.505 271.055 246.124 270.935 246.817 270.935C247.522 270.935 248.138 271.055 248.663 271.297C249.192 271.538 249.604 271.874 249.898 272.304C250.191 272.734 250.343 273.232 250.352 273.798H248.427ZM255.167 280.706C254.434 280.706 253.803 280.558 253.274 280.261C252.748 279.961 252.343 279.537 252.059 278.989C251.774 278.439 251.632 277.788 251.632 277.036C251.632 276.303 251.774 275.66 252.059 275.106C252.343 274.552 252.744 274.121 253.26 273.811C253.78 273.502 254.389 273.347 255.088 273.347C255.558 273.347 255.996 273.423 256.401 273.575C256.81 273.723 257.165 273.948 257.469 274.248C257.775 274.548 258.013 274.925 258.183 275.38C258.353 275.831 258.438 276.36 258.438 276.966V277.509H252.421V276.284H256.578C256.578 276 256.516 275.748 256.392 275.528C256.268 275.309 256.097 275.137 255.877 275.013C255.661 274.886 255.408 274.823 255.121 274.823C254.821 274.823 254.555 274.893 254.323 275.032C254.094 275.168 253.914 275.352 253.785 275.584C253.655 275.813 253.588 276.068 253.585 276.349V277.514C253.585 277.867 253.65 278.171 253.78 278.428C253.913 278.685 254.1 278.883 254.341 279.022C254.583 279.161 254.869 279.231 255.2 279.231C255.419 279.231 255.62 279.2 255.803 279.138C255.985 279.076 256.142 278.983 256.271 278.859C256.401 278.736 256.5 278.584 256.568 278.405L258.396 278.525C258.304 278.965 258.113 279.348 257.826 279.676C257.541 280.001 257.173 280.254 256.722 280.437C256.273 280.616 255.755 280.706 255.167 280.706ZM259.851 280.567V273.44H261.767V274.684H261.842C261.971 274.241 262.19 273.907 262.496 273.682C262.802 273.453 263.155 273.338 263.554 273.338C263.653 273.338 263.759 273.344 263.874 273.357C263.988 273.369 264.089 273.386 264.175 273.408V275.162C264.083 275.134 263.954 275.109 263.79 275.087C263.626 275.066 263.476 275.055 263.34 275.055C263.049 275.055 262.79 275.118 262.561 275.245C262.335 275.369 262.156 275.542 262.023 275.765C261.893 275.987 261.828 276.244 261.828 276.535V280.567H259.851ZM272.181 273.44L269.69 280.567H267.463L264.971 273.44H267.059L268.539 278.539H268.613L270.089 273.44H272.181ZM276.334 280.706C275.601 280.706 274.97 280.558 274.441 280.261C273.915 279.961 273.51 279.537 273.225 278.989C272.941 278.439 272.799 277.788 272.799 277.036C272.799 276.303 272.941 275.66 273.225 275.106C273.51 274.552 273.911 274.121 274.427 273.811C274.947 273.502 275.556 273.347 276.255 273.347C276.725 273.347 277.163 273.423 277.568 273.575C277.976 273.723 278.332 273.948 278.635 274.248C278.942 274.548 279.18 274.925 279.35 275.38C279.52 275.831 279.605 276.36 279.605 276.966V277.509H273.587V276.284H277.744C277.744 276 277.683 275.748 277.559 275.528C277.435 275.309 277.264 275.137 277.044 275.013C276.827 274.886 276.575 274.823 276.288 274.823C275.988 274.823 275.722 274.893 275.49 275.032C275.261 275.168 275.081 275.352 274.951 275.584C274.821 275.813 274.755 276.068 274.752 276.349V277.514C274.752 277.867 274.817 278.171 274.947 278.428C275.08 278.685 275.267 278.883 275.508 279.022C275.749 279.161 276.036 279.231 276.367 279.231C276.586 279.231 276.787 279.2 276.97 279.138C277.152 279.076 277.308 278.983 277.438 278.859C277.568 278.736 277.667 278.584 277.735 278.405L279.563 278.525C279.47 278.965 279.28 279.348 278.993 279.676C278.708 280.001 278.34 280.254 277.888 280.437C277.44 280.616 276.922 280.706 276.334 280.706ZM281.018 280.567V273.44H282.934V274.684H283.008C283.138 274.241 283.356 273.907 283.663 273.682C283.969 273.453 284.321 273.338 284.72 273.338C284.819 273.338 284.926 273.344 285.041 273.357C285.155 273.369 285.256 273.386 285.342 273.408V275.162C285.249 275.134 285.121 275.109 284.957 275.087C284.793 275.066 284.643 275.055 284.507 275.055C284.216 275.055 283.956 275.118 283.728 275.245C283.502 275.369 283.322 275.542 283.189 275.765C283.059 275.987 282.994 276.244 282.994 276.535V280.567H281.018ZM293.773 270.619L290.711 281.996H289.008L292.07 270.619H293.773ZM298.032 280.567V271.065H301.781C302.502 271.065 303.116 271.202 303.623 271.478C304.13 271.75 304.517 272.129 304.783 272.614C305.052 273.097 305.187 273.654 305.187 274.285C305.187 274.916 305.051 275.472 304.779 275.955C304.506 276.438 304.112 276.813 303.595 277.082C303.082 277.352 302.46 277.486 301.73 277.486H299.341V275.876H301.405C301.792 275.876 302.111 275.81 302.361 275.677C302.615 275.541 302.804 275.353 302.927 275.115C303.054 274.874 303.117 274.597 303.117 274.285C303.117 273.969 303.054 273.694 302.927 273.459C302.804 273.221 302.615 273.037 302.361 272.907C302.108 272.774 301.786 272.707 301.396 272.707H300.041V280.567H298.032ZM306.578 280.567V273.44H308.494V274.684H308.568C308.698 274.241 308.916 273.907 309.222 273.682C309.529 273.453 309.881 273.338 310.28 273.338C310.379 273.338 310.486 273.344 310.6 273.357C310.715 273.369 310.815 273.386 310.902 273.408V275.162C310.809 275.134 310.681 275.109 310.517 275.087C310.353 275.066 310.203 275.055 310.067 275.055C309.776 275.055 309.516 275.118 309.287 275.245C309.061 275.369 308.882 275.542 308.749 275.765C308.619 275.987 308.554 276.244 308.554 276.535V280.567H306.578ZM312.047 280.567V273.44H314.023V280.567H312.047ZM313.04 272.522C312.746 272.522 312.494 272.424 312.284 272.229C312.076 272.031 311.973 271.795 311.973 271.519C311.973 271.247 312.076 271.014 312.284 270.819C312.494 270.621 312.746 270.522 313.04 270.522C313.334 270.522 313.584 270.621 313.791 270.819C314.002 271.014 314.107 271.247 314.107 271.519C314.107 271.795 314.002 272.031 313.791 272.229C313.584 272.424 313.334 272.522 313.04 272.522ZM322.374 273.44L319.882 280.567H317.655L315.164 273.44H317.252L318.732 278.539H318.806L320.281 273.44H322.374ZM325.349 280.701C324.895 280.701 324.489 280.623 324.134 280.465C323.778 280.304 323.496 280.067 323.289 279.755C323.085 279.439 322.983 279.047 322.983 278.576C322.983 278.181 323.056 277.848 323.201 277.579C323.346 277.31 323.544 277.093 323.795 276.929C324.045 276.765 324.33 276.642 324.649 276.558C324.97 276.475 325.307 276.416 325.66 276.382C326.075 276.339 326.409 276.298 326.662 276.261C326.916 276.221 327.1 276.162 327.214 276.085C327.329 276.008 327.386 275.893 327.386 275.742V275.714C327.386 275.42 327.293 275.193 327.108 275.032C326.925 274.871 326.665 274.79 326.328 274.79C325.973 274.79 325.689 274.869 325.479 275.027C325.269 275.182 325.13 275.377 325.062 275.612L323.234 275.463C323.326 275.03 323.509 274.656 323.781 274.34C324.053 274.022 324.404 273.777 324.834 273.607C325.267 273.434 325.768 273.347 326.338 273.347C326.733 273.347 327.112 273.394 327.474 273.487C327.839 273.579 328.162 273.723 328.444 273.918C328.729 274.113 328.953 274.364 329.117 274.67C329.281 274.973 329.363 275.336 329.363 275.76V280.567H327.488V279.579H327.432C327.318 279.801 327.165 279.998 326.973 280.168C326.781 280.335 326.551 280.466 326.282 280.562C326.013 280.655 325.702 280.701 325.349 280.701ZM325.915 279.337C326.206 279.337 326.463 279.28 326.685 279.166C326.908 279.048 327.083 278.89 327.21 278.692C327.337 278.494 327.4 278.27 327.4 278.02V277.263C327.338 277.304 327.253 277.341 327.145 277.375C327.04 277.406 326.921 277.435 326.788 277.463C326.655 277.488 326.522 277.511 326.389 277.533C326.256 277.551 326.135 277.568 326.027 277.584C325.795 277.618 325.592 277.672 325.419 277.746C325.246 277.82 325.111 277.921 325.015 278.048C324.919 278.171 324.871 278.326 324.871 278.512C324.871 278.781 324.969 278.986 325.164 279.129C325.362 279.268 325.612 279.337 325.915 279.337ZM334.81 273.44V274.925H330.518V273.44H334.81ZM331.492 271.733H333.469V278.377C333.469 278.559 333.497 278.702 333.552 278.804C333.608 278.903 333.685 278.972 333.784 279.013C333.886 279.053 334.004 279.073 334.137 279.073C334.23 279.073 334.323 279.065 334.415 279.05C334.508 279.031 334.579 279.017 334.629 279.008L334.94 280.479C334.841 280.51 334.702 280.545 334.522 280.585C334.343 280.629 334.125 280.655 333.868 280.664C333.392 280.683 332.974 280.619 332.615 280.474C332.259 280.329 331.983 280.103 331.785 279.797C331.587 279.49 331.489 279.104 331.492 278.637V271.733ZM339.392 280.706C338.659 280.706 338.028 280.558 337.499 280.261C336.973 279.961 336.568 279.537 336.283 278.989C335.998 278.439 335.856 277.788 335.856 277.036C335.856 276.303 335.998 275.66 336.283 275.106C336.568 274.552 336.968 274.121 337.485 273.811C338.004 273.502 338.614 273.347 339.313 273.347C339.783 273.347 340.221 273.423 340.626 273.575C341.034 273.723 341.39 273.948 341.693 274.248C341.999 274.548 342.237 274.925 342.407 275.38C342.578 275.831 342.663 276.36 342.663 276.966V277.509H336.645V276.284H340.802C340.802 276 340.74 275.748 340.617 275.528C340.493 275.309 340.321 275.137 340.102 275.013C339.885 274.886 339.633 274.823 339.345 274.823C339.045 274.823 338.779 274.893 338.547 275.032C338.318 275.168 338.139 275.352 338.009 275.584C337.879 275.813 337.813 276.068 337.809 276.349V277.514C337.809 277.867 337.874 278.171 338.004 278.428C338.137 278.685 338.325 278.883 338.566 279.022C338.807 279.161 339.093 279.231 339.424 279.231C339.644 279.231 339.845 279.2 340.027 279.138C340.21 279.076 340.366 278.983 340.496 278.859C340.626 278.736 340.725 278.584 340.793 278.405L342.621 278.525C342.528 278.965 342.338 279.348 342.05 279.676C341.766 280.001 341.398 280.254 340.946 280.437C340.497 280.616 339.979 280.706 339.392 280.706ZM355.644 274.391H353.611C353.574 274.129 353.499 273.895 353.384 273.691C353.27 273.484 353.123 273.307 352.943 273.162C352.764 273.017 352.557 272.905 352.322 272.828C352.09 272.751 351.838 272.712 351.565 272.712C351.074 272.712 350.645 272.834 350.28 273.078C349.915 273.32 349.632 273.672 349.431 274.136C349.23 274.597 349.13 275.157 349.13 275.816C349.13 276.493 349.23 277.062 349.431 277.523C349.635 277.984 349.92 278.332 350.285 278.567C350.65 278.802 351.072 278.92 351.551 278.92C351.821 278.92 352.07 278.884 352.298 278.813C352.53 278.742 352.736 278.638 352.916 278.502C353.095 278.363 353.243 278.194 353.361 277.996C353.482 277.799 353.565 277.573 353.611 277.319L355.644 277.328C355.591 277.765 355.46 278.185 355.249 278.59C355.042 278.992 354.762 279.353 354.41 279.671C354.06 279.987 353.642 280.237 353.157 280.423C352.674 280.606 352.128 280.697 351.519 280.697C350.671 280.697 349.914 280.505 349.246 280.121C348.58 279.738 348.055 279.183 347.668 278.456C347.284 277.729 347.093 276.849 347.093 275.816C347.093 274.78 347.288 273.898 347.677 273.171C348.067 272.444 348.596 271.891 349.264 271.51C349.932 271.127 350.684 270.935 351.519 270.935C352.07 270.935 352.58 271.012 353.05 271.167C353.523 271.321 353.942 271.547 354.307 271.844C354.672 272.138 354.969 272.498 355.198 272.925C355.43 273.352 355.579 273.841 355.644 274.391ZM359.147 271.065V280.567H357.17V271.065H359.147ZM364.073 280.706C363.352 280.706 362.729 280.553 362.203 280.247C361.681 279.937 361.277 279.507 360.992 278.957C360.708 278.403 360.566 277.761 360.566 277.031C360.566 276.295 360.708 275.652 360.992 275.101C361.277 274.548 361.681 274.118 362.203 273.811C362.729 273.502 363.352 273.347 364.073 273.347C364.794 273.347 365.416 273.502 365.938 273.811C366.464 274.118 366.869 274.548 367.154 275.101C367.439 275.652 367.581 276.295 367.581 277.031C367.581 277.761 367.439 278.403 367.154 278.957C366.869 279.507 366.464 279.937 365.938 280.247C365.416 280.553 364.794 280.706 364.073 280.706ZM364.082 279.175C364.41 279.175 364.684 279.082 364.904 278.897C365.123 278.708 365.289 278.451 365.4 278.126C365.515 277.802 365.572 277.432 365.572 277.018C365.572 276.603 365.515 276.233 365.4 275.909C365.289 275.584 365.123 275.327 364.904 275.138C364.684 274.95 364.41 274.855 364.082 274.855C363.751 274.855 363.473 274.95 363.247 275.138C363.025 275.327 362.856 275.584 362.742 275.909C362.63 276.233 362.575 276.603 362.575 277.018C362.575 277.432 362.63 277.802 362.742 278.126C362.856 278.451 363.025 278.708 363.247 278.897C363.473 279.082 363.751 279.175 364.082 279.175ZM373.559 277.533V273.44H375.536V280.567H373.638V279.272H373.564C373.403 279.69 373.135 280.026 372.761 280.279C372.39 280.533 371.937 280.66 371.402 280.66C370.925 280.66 370.506 280.551 370.144 280.335C369.782 280.118 369.499 279.811 369.295 279.412C369.094 279.013 368.992 278.535 368.989 277.978V273.44H370.966V277.625C370.969 278.046 371.082 278.378 371.304 278.623C371.527 278.867 371.826 278.989 372.2 278.989C372.438 278.989 372.661 278.935 372.868 278.827C373.075 278.716 373.242 278.552 373.369 278.335C373.499 278.119 373.562 277.851 373.559 277.533ZM379.866 280.683C379.325 280.683 378.834 280.544 378.395 280.265C377.959 279.984 377.613 279.571 377.356 279.027C377.102 278.479 376.975 277.808 376.975 277.013C376.975 276.196 377.107 275.517 377.37 274.976C377.633 274.432 377.982 274.025 378.418 273.756C378.858 273.484 379.339 273.347 379.861 273.347C380.26 273.347 380.593 273.416 380.859 273.552C381.128 273.685 381.344 273.852 381.508 274.053C381.675 274.251 381.802 274.446 381.889 274.637H381.949V271.065H383.921V280.567H381.972V279.426H381.889C381.796 279.623 381.665 279.82 381.494 280.015C381.327 280.207 381.109 280.366 380.84 280.493C380.574 280.619 380.249 280.683 379.866 280.683ZM380.492 279.11C380.811 279.11 381.08 279.023 381.3 278.85C381.522 278.674 381.692 278.428 381.81 278.112C381.931 277.797 381.991 277.427 381.991 277.004C381.991 276.58 381.932 276.212 381.815 275.899C381.697 275.587 381.527 275.346 381.304 275.176C381.081 275.005 380.811 274.92 380.492 274.92C380.167 274.92 379.894 275.009 379.671 275.185C379.448 275.361 379.28 275.605 379.165 275.918C379.051 276.23 378.994 276.592 378.994 277.004C378.994 277.418 379.051 277.785 379.165 278.103C379.283 278.419 379.451 278.666 379.671 278.846C379.894 279.022 380.167 279.11 380.492 279.11ZM390.57 271.065L392.867 278.284H392.955L395.256 271.065H397.483L394.208 280.567H391.619L388.338 271.065H390.57ZM398.713 280.567V273.44H400.689V280.567H398.713ZM399.706 272.522C399.412 272.522 399.16 272.424 398.949 272.229C398.742 272.031 398.639 271.795 398.639 271.519C398.639 271.247 398.742 271.014 398.949 270.819C399.16 270.621 399.412 270.522 399.706 270.522C400 270.522 400.25 270.621 400.457 270.819C400.668 271.014 400.773 271.247 400.773 271.519C400.773 271.795 400.668 272.031 400.457 272.229C400.25 272.424 400 272.522 399.706 272.522ZM402.396 280.567V273.44H404.312V274.684H404.386C404.516 274.241 404.734 273.907 405.04 273.682C405.347 273.453 405.699 273.338 406.098 273.338C406.197 273.338 406.304 273.344 406.418 273.357C406.533 273.369 406.633 273.386 406.72 273.408V275.162C406.627 275.134 406.499 275.109 406.335 275.087C406.171 275.066 406.021 275.055 405.885 275.055C405.594 275.055 405.334 275.118 405.105 275.245C404.88 275.369 404.7 275.542 404.567 275.765C404.437 275.987 404.372 276.244 404.372 276.535V280.567H402.396ZM412.013 273.44V274.925H407.721V273.44H412.013ZM408.695 271.733H410.672V278.377C410.672 278.559 410.7 278.702 410.756 278.804C410.811 278.903 410.889 278.972 410.987 279.013C411.09 279.053 411.207 279.073 411.34 279.073C411.433 279.073 411.526 279.065 411.618 279.05C411.711 279.031 411.782 279.017 411.832 279.008L412.143 280.479C412.044 280.51 411.905 280.545 411.725 280.585C411.546 280.629 411.328 280.655 411.071 280.664C410.595 280.683 410.177 280.619 409.818 280.474C409.463 280.329 409.186 280.103 408.988 279.797C408.79 279.49 408.692 279.104 408.695 278.637V271.733ZM417.994 277.533V273.44H419.97V280.567H418.072V279.272H417.998C417.837 279.69 417.57 280.026 417.196 280.279C416.824 280.533 416.371 280.66 415.836 280.66C415.36 280.66 414.941 280.551 414.579 280.335C414.217 280.118 413.934 279.811 413.73 279.412C413.529 279.013 413.427 278.535 413.423 277.978V273.44H415.4V277.625C415.403 278.046 415.516 278.378 415.739 278.623C415.961 278.867 416.26 278.989 416.634 278.989C416.872 278.989 417.095 278.935 417.302 278.827C417.51 278.716 417.677 278.552 417.803 278.335C417.933 278.119 417.997 277.851 417.994 277.533ZM423.706 280.701C423.252 280.701 422.846 280.623 422.491 280.465C422.135 280.304 421.854 280.067 421.646 279.755C421.442 279.439 421.34 279.047 421.34 278.576C421.34 278.181 421.413 277.848 421.558 277.579C421.704 277.31 421.902 277.093 422.152 276.929C422.403 276.765 422.687 276.642 423.006 276.558C423.327 276.475 423.665 276.416 424.017 276.382C424.432 276.339 424.766 276.298 425.019 276.261C425.273 276.221 425.457 276.162 425.572 276.085C425.686 276.008 425.743 275.893 425.743 275.742V275.714C425.743 275.42 425.65 275.193 425.465 275.032C425.282 274.871 425.023 274.79 424.685 274.79C424.33 274.79 424.047 274.869 423.836 275.027C423.626 275.182 423.487 275.377 423.419 275.612L421.591 275.463C421.683 275.03 421.866 274.656 422.138 274.34C422.41 274.022 422.761 273.777 423.191 273.607C423.624 273.434 424.126 273.347 424.695 273.347C425.091 273.347 425.469 273.394 425.831 273.487C426.196 273.579 426.52 273.723 426.801 273.918C427.086 274.113 427.31 274.364 427.474 274.67C427.638 274.973 427.72 275.336 427.72 275.76V280.567H425.845V279.579H425.79C425.675 279.801 425.522 279.998 425.33 280.168C425.139 280.335 424.908 280.466 424.639 280.562C424.37 280.655 424.059 280.701 423.706 280.701ZM424.272 279.337C424.563 279.337 424.82 279.28 425.043 279.166C425.265 279.048 425.44 278.89 425.567 278.692C425.694 278.494 425.757 278.27 425.757 278.02V277.263C425.695 277.304 425.61 277.341 425.502 277.375C425.397 277.406 425.278 277.435 425.145 277.463C425.012 277.488 424.879 277.511 424.746 277.533C424.613 277.551 424.492 277.568 424.384 277.584C424.152 277.618 423.949 277.672 423.776 277.746C423.603 277.82 423.468 277.921 423.372 278.048C423.276 278.171 423.228 278.326 423.228 278.512C423.228 278.781 423.326 278.986 423.521 279.129C423.719 279.268 423.969 279.337 424.272 279.337ZM431.353 271.065V280.567H429.376V271.065H431.353ZM436.243 271.065H438.721L441.338 277.449H441.449L444.066 271.065H446.544V280.567H444.595V274.382H444.516L442.057 280.52H440.73L438.271 274.359H438.192V280.567H436.243V271.065ZM450.317 280.701C449.862 280.701 449.457 280.623 449.101 280.465C448.746 280.304 448.464 280.067 448.257 279.755C448.053 279.439 447.951 279.047 447.951 278.576C447.951 278.181 448.023 277.848 448.169 277.579C448.314 277.31 448.512 277.093 448.763 276.929C449.013 276.765 449.298 276.642 449.616 276.558C449.938 276.475 450.275 276.416 450.628 276.382C451.042 276.339 451.376 276.298 451.63 276.261C451.884 276.221 452.068 276.162 452.182 276.085C452.297 276.008 452.354 275.893 452.354 275.742V275.714C452.354 275.42 452.261 275.193 452.075 275.032C451.893 274.871 451.633 274.79 451.296 274.79C450.94 274.79 450.657 274.869 450.447 275.027C450.236 275.182 450.097 275.377 450.029 275.612L448.201 275.463C448.294 275.03 448.476 274.656 448.749 274.34C449.021 274.022 449.372 273.777 449.802 273.607C450.235 273.434 450.736 273.347 451.305 273.347C451.701 273.347 452.08 273.394 452.442 273.487C452.807 273.579 453.13 273.723 453.412 273.918C453.696 274.113 453.92 274.364 454.084 274.67C454.248 274.973 454.33 275.336 454.33 275.76V280.567H452.456V279.579H452.4C452.286 279.801 452.133 279.998 451.941 280.168C451.749 280.335 451.519 280.466 451.249 280.562C450.98 280.655 450.67 280.701 450.317 280.701ZM450.883 279.337C451.174 279.337 451.43 279.28 451.653 279.166C451.876 279.048 452.051 278.89 452.177 278.692C452.304 278.494 452.368 278.27 452.368 278.02V277.263C452.306 277.304 452.221 277.341 452.112 277.375C452.007 277.406 451.888 277.435 451.755 277.463C451.622 277.488 451.489 277.511 451.356 277.533C451.223 277.551 451.103 277.568 450.994 277.584C450.762 277.618 450.56 277.672 450.386 277.746C450.213 277.82 450.079 277.921 449.983 278.048C449.887 278.171 449.839 278.326 449.839 278.512C449.839 278.781 449.936 278.986 450.131 279.129C450.329 279.268 450.58 279.337 450.883 279.337ZM459.207 280.706C458.477 280.706 457.849 280.551 457.323 280.242C456.8 279.93 456.398 279.497 456.117 278.943C455.838 278.389 455.699 277.752 455.699 277.031C455.699 276.301 455.84 275.661 456.121 275.111C456.406 274.557 456.81 274.125 457.332 273.816C457.855 273.504 458.477 273.347 459.197 273.347C459.819 273.347 460.364 273.46 460.831 273.686C461.298 273.912 461.667 274.229 461.94 274.637C462.212 275.046 462.362 275.525 462.39 276.076H460.524C460.472 275.72 460.333 275.434 460.107 275.217C459.884 274.998 459.592 274.888 459.23 274.888C458.924 274.888 458.656 274.971 458.427 275.138C458.201 275.302 458.025 275.542 457.898 275.858C457.772 276.173 457.708 276.555 457.708 277.004C457.708 277.458 457.77 277.845 457.894 278.164C458.021 278.482 458.198 278.725 458.427 278.892C458.656 279.059 458.924 279.143 459.23 279.143C459.456 279.143 459.658 279.096 459.838 279.003C460.02 278.911 460.17 278.776 460.288 278.6C460.408 278.42 460.487 278.205 460.524 277.955H462.39C462.359 278.499 462.21 278.979 461.944 279.393C461.681 279.804 461.318 280.126 460.854 280.358C460.39 280.59 459.841 280.706 459.207 280.706ZM465.755 276.447V280.567H463.778V271.065H465.699V274.698H465.783C465.943 274.277 466.203 273.948 466.562 273.709C466.921 273.468 467.371 273.347 467.912 273.347C468.407 273.347 468.839 273.456 469.207 273.672C469.578 273.886 469.865 274.193 470.07 274.596C470.277 274.995 470.379 275.472 470.376 276.029V280.567H468.399V276.382C468.402 275.943 468.291 275.601 468.065 275.356C467.843 275.112 467.53 274.99 467.128 274.99C466.859 274.99 466.621 275.047 466.414 275.162C466.209 275.276 466.049 275.443 465.931 275.663C465.817 275.879 465.758 276.141 465.755 276.447ZM472.054 280.567V273.44H474.031V280.567H472.054ZM473.047 272.522C472.753 272.522 472.501 272.424 472.291 272.229C472.084 272.031 471.98 271.795 471.98 271.519C471.98 271.247 472.084 271.014 472.291 270.819C472.501 270.621 472.753 270.522 473.047 270.522C473.341 270.522 473.592 270.621 473.799 270.819C474.009 271.014 474.114 271.247 474.114 271.519C474.114 271.795 474.009 272.031 473.799 272.229C473.592 272.424 473.341 272.522 473.047 272.522ZM477.714 276.447V280.567H475.737V273.44H477.621V274.698H477.705C477.862 274.283 478.127 273.955 478.498 273.714C478.869 273.47 479.319 273.347 479.848 273.347C480.343 273.347 480.774 273.456 481.143 273.672C481.511 273.889 481.797 274.198 482.001 274.6C482.205 274.999 482.307 275.476 482.307 276.029V280.567H480.331V276.382C480.334 275.946 480.222 275.605 479.997 275.361C479.771 275.114 479.46 274.99 479.064 274.99C478.798 274.99 478.563 275.047 478.359 275.162C478.158 275.276 478 275.443 477.885 275.663C477.774 275.879 477.717 276.141 477.714 276.447ZM487.236 280.706C486.503 280.706 485.872 280.558 485.343 280.261C484.817 279.961 484.412 279.537 484.127 278.989C483.843 278.439 483.7 277.788 483.7 277.036C483.7 276.303 483.843 275.66 484.127 275.106C484.412 274.552 484.812 274.121 485.329 273.811C485.849 273.502 486.458 273.347 487.157 273.347C487.627 273.347 488.065 273.423 488.47 273.575C488.878 273.723 489.234 273.948 489.537 274.248C489.843 274.548 490.082 274.925 490.252 275.38C490.422 275.831 490.507 276.36 490.507 276.966V277.509H484.489V276.284H488.646C488.646 276 488.584 275.748 488.461 275.528C488.337 275.309 488.165 275.137 487.946 275.013C487.729 274.886 487.477 274.823 487.189 274.823C486.889 274.823 486.623 274.893 486.391 275.032C486.163 275.168 485.983 275.352 485.853 275.584C485.723 275.813 485.657 276.068 485.654 276.349V277.514C485.654 277.867 485.719 278.171 485.849 278.428C485.982 278.685 486.169 278.883 486.41 279.022C486.651 279.161 486.937 279.231 487.268 279.231C487.488 279.231 487.689 279.2 487.871 279.138C488.054 279.076 488.21 278.983 488.34 278.859C488.47 278.736 488.569 278.584 488.637 278.405L490.465 278.525C490.372 278.965 490.182 279.348 489.894 279.676C489.61 280.001 489.242 280.254 488.79 280.437C488.342 280.616 487.824 280.706 487.236 280.706Z" fill="url(#paint29_linear_436_3325)"/>
<defs>
<filter id="filter0_b_436_3325" x="74.3107" y="8.5502" width="463.379" height="82.903" filterUnits="userSpaceOnUse" color-interpolation-filters="sRGB">
<feFlood flood-opacity="0" result="BackgroundImageFix"/>
<feGaussianBlur in="BackgroundImageFix" stdDeviation="10.0503"/>
<feComposite in2="SourceAlpha" operator="in" result="effect1_backgroundBlur_436_3325"/>
<feBlend mode="normal" in="SourceGraphic" in2="effect1_backgroundBlur_436_3325" result="shape"/>
</filter>
<filter id="filter1_b_436_3325" x="74.3107" y="92.0287" width="463.379" height="82.903" filterUnits="userSpaceOnUse" color-interpolation-filters="sRGB">
<feFlood flood-opacity="0" result="BackgroundImageFix"/>
<feGaussianBlur in="BackgroundImageFix" stdDeviation="10.0503"/>
<feComposite in2="SourceAlpha" operator="in" result="effect1_backgroundBlur_436_3325"/>
<feBlend mode="normal" in="SourceGraphic" in2="effect1_backgroundBlur_436_3325" result="shape"/>
</filter>
<filter id="filter2_b_436_3325" x="299.401" y="179.398" width="238.942" height="74.4465" filterUnits="userSpaceOnUse" color-interpolation-filters="sRGB">
<feFlood flood-opacity="0" result="BackgroundImageFix"/>
<feGaussianBlur in="BackgroundImageFix" stdDeviation="9.63263"/>
<feComposite in2="SourceAlpha" operator="in" result="effect1_backgroundBlur_436_3325"/>
<feBlend mode="normal" in="SourceGraphic" in2="effect1_backgroundBlur_436_3325" result="shape"/>
</filter>
<filter id="filter3_b_436_3325" x="74.3107" y="177.826" width="240.867" height="76.6823" filterUnits="userSpaceOnUse" color-interpolation-filters="sRGB">
<feFlood flood-opacity="0" result="BackgroundImageFix"/>
<feGaussianBlur in="BackgroundImageFix" stdDeviation="10.0503"/>
<feComposite in2="SourceAlpha" operator="in" result="effect1_backgroundBlur_436_3325"/>
<feBlend mode="normal" in="SourceGraphic" in2="effect1_backgroundBlur_436_3325" result="shape"/>
</filter>
<filter id="filter4_b_436_3325" x="75.401" y="179.398" width="238.942" height="74.4465" filterUnits="userSpaceOnUse" color-interpolation-filters="sRGB">
<feFlood flood-opacity="0" result="BackgroundImageFix"/>
<feGaussianBlur in="BackgroundImageFix" stdDeviation="9.63263"/>
<feComposite in2="SourceAlpha" operator="in" result="effect1_backgroundBlur_436_3325"/>
<feBlend mode="normal" in="SourceGraphic" in2="effect1_backgroundBlur_436_3325" result="shape"/>
</filter>
<filter id="filter5_b_436_3325" x="75.1461" y="256.571" width="461.708" height="81.2981" filterUnits="userSpaceOnUse" color-interpolation-filters="sRGB">
<feFlood flood-opacity="0" result="BackgroundImageFix"/>
<feGaussianBlur in="BackgroundImageFix" stdDeviation="9.63263"/>
<feComposite in2="SourceAlpha" operator="in" result="effect1_backgroundBlur_436_3325"/>
<feBlend mode="normal" in="SourceGraphic" in2="effect1_backgroundBlur_436_3325" result="shape"/>
</filter>
<linearGradient id="paint0_linear_436_3325" x1="306" y1="41.5952" x2="306" y2="84.2969" gradientUnits="userSpaceOnUse">
<stop stop-color="#C4E3FD" stop-opacity="0"/>
<stop offset="1" stop-color="#9BDBFF"/>
</linearGradient>
<linearGradient id="paint1_linear_436_3325" x1="306" y1="28.6509" x2="306" y2="71.3526" gradientUnits="userSpaceOnUse">
<stop stop-color="#E7F4FF"/>
<stop offset="1" stop-color="#79D7FF" stop-opacity="0.2"/>
</linearGradient>
<linearGradient id="paint2_linear_436_3325" x1="306" y1="28.6509" x2="306" y2="71.3526" gradientUnits="userSpaceOnUse">
<stop stop-color="#AFDDFF" stop-opacity="0"/>
<stop offset="0.55" stop-color="#99D4FF" stop-opacity="0.6"/>
</linearGradient>
<linearGradient id="paint3_linear_436_3325" x1="281.443" y1="45.3275" x2="261.33" y2="38.3624" gradientUnits="userSpaceOnUse">
<stop stop-color="#11202E"/>
<stop offset="1" stop-color="#526681"/>
</linearGradient>
<linearGradient id="paint4_linear_436_3325" x1="281.443" y1="45.3275" x2="261.33" y2="38.3624" gradientUnits="userSpaceOnUse">
<stop stop-color="#11202E"/>
<stop offset="1" stop-color="#526681"/>
</linearGradient>
<linearGradient id="paint5_linear_436_3325" x1="281.443" y1="45.3275" x2="261.33" y2="38.3624" gradientUnits="userSpaceOnUse">
<stop stop-color="#11202E"/>
<stop offset="1" stop-color="#526681"/>
</linearGradient>
<linearGradient id="paint6_linear_436_3325" x1="332.527" y1="44.5269" x2="301.843" y2="12.898" gradientUnits="userSpaceOnUse">
<stop stop-color="#11202E"/>
<stop offset="1" stop-color="#526681"/>
</linearGradient>
<linearGradient id="paint7_linear_436_3325" x1="306" y1="125.074" x2="306" y2="167.775" gradientUnits="userSpaceOnUse">
<stop stop-color="#ABD6FF" stop-opacity="0"/>
<stop offset="1" stop-color="#ABD6FF"/>
</linearGradient>
<linearGradient id="paint8_linear_436_3325" x1="306" y1="112.129" x2="306" y2="154.831" gradientUnits="userSpaceOnUse">
<stop stop-color="#D8ECFF"/>
<stop offset="0.525" stop-color="#ABD6FF"/>
</linearGradient>
<linearGradient id="paint9_linear_436_3325" x1="306" y1="112.129" x2="306" y2="154.831" gradientUnits="userSpaceOnUse">
<stop stop-color="#ABD6FF" stop-opacity="0"/>
<stop offset="0.55" stop-color="#8DC8FF" stop-opacity="0.6"/>
</linearGradient>
<linearGradient id="paint10_linear_436_3325" x1="201.092" y1="134.061" x2="177.267" y2="123.975" gradientUnits="userSpaceOnUse">
<stop stop-color="#11202E"/>
<stop offset="1" stop-color="#526681"/>
</linearGradient>
<linearGradient id="paint11_linear_436_3325" x1="254.094" y1="134.061" x2="230.268" y2="123.975" gradientUnits="userSpaceOnUse">
<stop stop-color="#11202E"/>
<stop offset="1" stop-color="#526681"/>
</linearGradient>
<linearGradient id="paint12_linear_436_3325" x1="309.922" y1="132.718" x2="284.766" y2="118.871" gradientUnits="userSpaceOnUse">
<stop stop-color="#11202E"/>
<stop offset="1" stop-color="#526681"/>
</linearGradient>
<linearGradient id="paint13_linear_436_3325" x1="369.924" y1="130.11" x2="347.953" y2="111.726" gradientUnits="userSpaceOnUse">
<stop stop-color="#11202E"/>
<stop offset="1" stop-color="#526681"/>
</linearGradient>
<linearGradient id="paint14_linear_436_3325" x1="424.707" y1="132.627" x2="404.708" y2="124.834" gradientUnits="userSpaceOnUse">
<stop stop-color="#11202E"/>
<stop offset="1" stop-color="#526681"/>
</linearGradient>
<linearGradient id="paint15_linear_436_3325" x1="418.872" y1="209.55" x2="418.872" y2="245.466" gradientUnits="userSpaceOnUse">
<stop stop-color="#BFEDE1" stop-opacity="0"/>
<stop offset="0.4" stop-color="#BFEDE1"/>
</linearGradient>
<linearGradient id="paint16_linear_436_3325" x1="418.872" y1="198.664" x2="418.872" y2="234.579" gradientUnits="userSpaceOnUse">
<stop stop-color="#BFEDE1" stop-opacity="0.2"/>
<stop offset="1" stop-color="#BFEDE1"/>
</linearGradient>
<linearGradient id="paint17_linear_436_3325" x1="418.872" y1="198.664" x2="418.872" y2="234.579" gradientUnits="userSpaceOnUse">
<stop stop-color="#9FD9CA" stop-opacity="0"/>
<stop offset="0.55" stop-color="#9FD9CA"/>
</linearGradient>
<linearGradient id="paint18_linear_436_3325" x1="424.89" y1="208.407" x2="399.826" y2="190.899" gradientUnits="userSpaceOnUse">
<stop stop-color="#11202E"/>
<stop offset="1" stop-color="#526681"/>
</linearGradient>
<linearGradient id="paint19_linear_436_3325" x1="194.744" y1="208.985" x2="194.744" y2="245.466" gradientUnits="userSpaceOnUse">
<stop stop-color="#C4E3FD" stop-opacity="0"/>
<stop offset="1" stop-color="#9BDBFF"/>
</linearGradient>
<linearGradient id="paint20_linear_436_3325" x1="194.744" y1="197.927" x2="194.744" y2="234.408" gradientUnits="userSpaceOnUse">
<stop stop-color="#DAF4FF"/>
<stop offset="1" stop-color="#79D7FF"/>
</linearGradient>
<linearGradient id="paint21_linear_436_3325" x1="194.744" y1="197.927" x2="194.744" y2="234.408" gradientUnits="userSpaceOnUse">
<stop stop-color="#AFDDFF" stop-opacity="0"/>
<stop offset="0.55" stop-color="#99D4FF" stop-opacity="0.6"/>
</linearGradient>
<linearGradient id="paint22_linear_436_3325" x1="194.872" y1="209.55" x2="194.872" y2="245.466" gradientUnits="userSpaceOnUse">
<stop stop-color="#BFEDE1" stop-opacity="0"/>
<stop offset="0.4" stop-color="#BFEDE1"/>
</linearGradient>
<linearGradient id="paint23_linear_436_3325" x1="194.872" y1="198.663" x2="194.872" y2="234.579" gradientUnits="userSpaceOnUse">
<stop stop-color="#BFEDE1" stop-opacity="0.2"/>
<stop offset="1" stop-color="#BFEDE1"/>
</linearGradient>
<linearGradient id="paint24_linear_436_3325" x1="194.872" y1="198.663" x2="194.872" y2="234.579" gradientUnits="userSpaceOnUse">
<stop stop-color="#9FD9CA" stop-opacity="0"/>
<stop offset="0.55" stop-color="#9FD9CA"/>
</linearGradient>
<linearGradient id="paint25_linear_436_3325" x1="201.674" y1="208.407" x2="175.601" y2="187.433" gradientUnits="userSpaceOnUse">
<stop stop-color="#11202E"/>
<stop offset="1" stop-color="#526681"/>
</linearGradient>
<linearGradient id="paint26_linear_436_3325" x1="306" y1="288.8" x2="306" y2="331.568" gradientUnits="userSpaceOnUse">
<stop stop-color="#D3E2F5" stop-opacity="0"/>
<stop offset="0.4" stop-color="#D3E2F5"/>
</linearGradient>
<linearGradient id="paint27_linear_436_3325" x1="306" y1="275.836" x2="306" y2="318.604" gradientUnits="userSpaceOnUse">
<stop stop-color="#E1EBF9" stop-opacity="0.2"/>
<stop offset="1" stop-color="#E1EBF9"/>
</linearGradient>
<linearGradient id="paint28_linear_436_3325" x1="306" y1="275.836" x2="306" y2="318.604" gradientUnits="userSpaceOnUse">
<stop stop-color="#BCD1EB" stop-opacity="0"/>
<stop offset="0.55" stop-color="#BCD1EB"/>
</linearGradient>
<linearGradient id="paint29_linear_436_3325" x1="373.229" y1="286.098" x2="366.54" y2="233.561" gradientUnits="userSpaceOnUse">
<stop stop-color="#11202E"/>
<stop offset="1" stop-color="#526681"/>
</linearGradient>
<clipPath id="clip0_436_3325">
<rect width="24.8605" height="24.8605" fill="white" transform="translate(184.128 108.541)"/>
</clipPath>
<clipPath id="clip1_436_3325">
<rect width="24.8605" height="24.8605" fill="white" transform="translate(237.129 108.541)"/>
</clipPath>
<clipPath id="clip2_436_3325">
<rect width="29.0039" height="29.0039" fill="white" transform="translate(290.131 106.469)"/>
</clipPath>
<clipPath id="clip3_436_3325">
<rect width="33.1473" height="33.1473" fill="white" transform="translate(347.276 104.397)"/>
</clipPath>
</defs>
</svg>
