<svg width="411" height="286" viewBox="0 0 411 286" fill="none" xmlns="http://www.w3.org/2000/svg">
<g clip-path="url(#clip0_420_2364)">
<rect y="0.474272" width="138.829" height="138.829" rx="19.9988" transform="matrix(0.866025 0.5 -0.866025 0.5 203.944 98.7574)" stroke="url(#paint0_linear_420_2364)" stroke-opacity="0.7" stroke-width="0.948543" stroke-dasharray="1.9 1.9"/>
<g filter="url(#filter0_d_420_2364)">
<g filter="url(#filter1_b_420_2364)">
<path d="M190.979 124.015C197.913 120.012 209.155 120.012 216.088 124.015L282.236 162.205L280.277 159.909L289.511 157.41C289.374 162.737 289.439 167.901 289.498 170.253C289.509 170.41 289.513 170.568 289.511 170.725C289.511 170.729 289.511 170.733 289.511 170.737C289.474 173.332 287.741 175.92 284.311 177.9L216.088 217.289C209.155 221.292 197.913 221.292 190.979 217.289L122.756 177.9C119.327 175.92 117.594 173.332 117.557 170.737L117.556 170.738L117.557 170.723C117.555 170.573 117.559 170.423 117.568 170.273C117.628 167.791 117.694 162.249 117.556 156.53L126.79 159.194L123.995 162.688L190.979 124.015Z" fill="url(#paint1_linear_420_2364)" fill-opacity="0.7"/>
</g>
<rect y="0.319531" width="107.131" height="107.131" rx="14.1772" transform="matrix(0.866025 0.5 -0.866025 0.5 203.81 103.964)" fill="url(#paint2_linear_420_2364)" stroke="url(#paint3_linear_420_2364)" stroke-width="0.639061"/>
</g>
<rect y="0.475294" width="77.3542" height="91.6186" rx="13.0832" transform="matrix(0.866025 0.5 -0.866025 0.5 81.6236 51.8893)" stroke="url(#paint4_linear_420_2364)" stroke-opacity="0.7" stroke-width="0.950589" stroke-dasharray="1.26 1.26"/>
<g filter="url(#filter2_d_420_2364)">
<g filter="url(#filter3_b_420_2364)">
<path d="M71.3879 67.9892C76.3781 65.1081 84.4688 65.1081 89.4589 67.9892L106.026 77.5542L125.798 74.7343C125.47 81.4531 125.603 87.9755 125.745 91.2575C126.135 93.3957 124.911 95.6135 122.073 97.2522L77.8947 122.759C72.9046 125.64 64.8139 125.64 59.8237 122.759L27.2096 103.929C24.632 102.441 23.3858 100.475 23.4711 98.5248L23.4148 98.5624L23.4149 94.5054C23.4151 92.0195 23.4152 88.6997 23.4152 82.2627L42.0153 84.9474L71.3879 67.9892Z" fill="url(#paint5_linear_420_2364)" fill-opacity="0.7"/>
</g>
<rect width="58.166" height="71.372" rx="9.60059" transform="matrix(0.866025 0.5 -0.866025 0.5 80.2961 46.5071)" fill="url(#paint6_linear_420_2364)" stroke="url(#paint7_linear_420_2364)" stroke-width="0.423224"/>
</g>
<g filter="url(#filter4_b_420_2364)">
<path d="M194.424 114.585C199.455 111.68 207.612 111.68 212.643 114.585L261.247 142.646L259.219 140.111L265.919 138.178C265.819 142.328 265.867 146.351 265.91 148.151C265.917 148.259 265.92 148.367 265.919 148.475C265.919 148.479 265.919 148.483 265.919 148.487C265.892 150.37 264.634 152.247 262.146 153.684L212.643 182.264C207.612 185.169 199.455 185.169 194.424 182.264L144.922 153.684C142.433 152.247 141.176 150.369 141.149 148.486L141.149 148.476C141.147 148.367 141.15 148.258 141.157 148.15C141.2 146.349 141.249 142.327 141.148 138.178L147.848 140.111L145.82 142.646L194.424 114.585Z" fill="url(#paint8_linear_420_2364)" fill-opacity="0.8"/>
<path d="M194.424 114.585C199.455 111.68 207.612 111.68 212.643 114.585L261.247 142.646L259.219 140.111L265.919 138.178C265.819 142.328 265.867 146.351 265.91 148.151C265.917 148.259 265.92 148.367 265.919 148.475C265.919 148.479 265.919 148.483 265.919 148.487C265.892 150.37 264.634 152.247 262.146 153.684L212.643 182.264C207.612 185.169 199.455 185.169 194.424 182.264L144.922 153.684C142.433 152.247 141.176 150.369 141.149 148.486L141.149 148.476C141.147 148.367 141.15 148.258 141.157 148.15C141.2 146.349 141.249 142.327 141.148 138.178L147.848 140.111L145.82 142.646L194.424 114.585Z" stroke="url(#paint9_linear_420_2364)" stroke-width="0.463702"/>
</g>
<rect y="-0.231851" width="78.6618" height="78.6618" rx="10.7507" transform="matrix(0.866025 0.5 -0.866025 0.5 203.333 98.9632)" fill="url(#paint10_linear_420_2364)" stroke="url(#paint11_linear_420_2364)" stroke-width="0.463702"/>
<g filter="url(#filter5_b_420_2364)">
<path d="M194.424 90.2405C199.455 87.3358 207.612 87.3358 212.643 90.2405L261.247 118.302L259.219 115.766L265.919 113.833C265.819 117.985 265.867 122.008 265.91 123.808C265.917 123.915 265.92 124.022 265.919 124.129C265.919 124.134 265.919 124.138 265.919 124.142C265.892 126.025 264.634 127.903 262.146 129.34L212.643 157.92C207.612 160.824 199.455 160.824 194.424 157.92L144.922 129.34C142.433 127.903 141.176 126.025 141.149 124.142L141.149 124.131C141.147 124.023 141.15 123.914 141.157 123.806C141.2 122.005 141.249 117.983 141.148 113.833L147.848 115.766L145.82 118.302L194.424 90.2405Z" fill="url(#paint12_linear_420_2364)" fill-opacity="0.6"/>
<path d="M194.424 90.2405C199.455 87.3358 207.612 87.3358 212.643 90.2405L261.247 118.302L259.219 115.766L265.919 113.833C265.819 117.985 265.867 122.008 265.91 123.808C265.917 123.915 265.92 124.022 265.919 124.129C265.919 124.134 265.919 124.138 265.919 124.142C265.892 126.025 264.634 127.903 262.146 129.34L212.643 157.92C207.612 160.824 199.455 160.824 194.424 157.92L144.922 129.34C142.433 127.903 141.176 126.025 141.149 124.142L141.149 124.131C141.147 124.023 141.15 123.914 141.157 123.806C141.2 122.005 141.249 117.983 141.148 113.833L147.848 115.766L145.82 118.302L194.424 90.2405Z" stroke="url(#paint13_linear_420_2364)" stroke-width="0.463702"/>
</g>
<rect y="-0.231851" width="78.6618" height="78.6618" rx="10.7507" transform="matrix(0.866025 0.5 -0.866025 0.5 203.333 74.6187)" fill="url(#paint14_linear_420_2364)" stroke="url(#paint15_linear_420_2364)" stroke-width="0.463702"/>
<g filter="url(#filter6_b_420_2364)">
<path d="M194.424 65.8963C199.455 62.9916 207.612 62.9916 212.643 65.8963L261.247 93.9579L259.219 91.422L265.919 89.4892C265.819 93.6402 265.867 97.663 265.91 99.4628C265.917 99.5704 265.92 99.6781 265.919 99.7858C265.919 99.7899 265.919 99.794 265.919 99.7981C265.892 101.681 264.634 103.559 262.146 104.995L212.643 133.576C207.612 136.48 199.455 136.48 194.424 133.576L144.922 104.995C142.433 103.559 141.176 101.681 141.149 99.7978L141.149 99.7874C141.147 99.6787 141.15 99.5699 141.157 99.4612C141.2 97.6605 141.249 93.639 141.148 89.4894L147.849 91.4223L145.821 93.9576L194.424 65.8963Z" fill="url(#paint16_linear_420_2364)" fill-opacity="0.6"/>
<path d="M194.424 65.8963C199.455 62.9916 207.612 62.9916 212.643 65.8963L261.247 93.9579L259.219 91.422L265.919 89.4892C265.819 93.6402 265.867 97.663 265.91 99.4628C265.917 99.5704 265.92 99.6781 265.919 99.7858C265.919 99.7899 265.919 99.794 265.919 99.7981C265.892 101.681 264.634 103.559 262.146 104.995L212.643 133.576C207.612 136.48 199.455 136.48 194.424 133.576L144.922 104.995C142.433 103.559 141.176 101.681 141.149 99.7978L141.149 99.7874C141.147 99.6787 141.15 99.5699 141.157 99.4612C141.2 97.6605 141.249 93.639 141.148 89.4894L147.849 91.4223L145.821 93.9576L194.424 65.8963Z" stroke="url(#paint17_linear_420_2364)" stroke-width="0.463702"/>
</g>
<rect y="-0.231851" width="78.6618" height="78.6618" rx="10.7507" transform="matrix(0.866025 0.5 -0.866025 0.5 203.333 50.274)" fill="url(#paint18_linear_420_2364)" stroke="url(#paint19_linear_420_2364)" stroke-width="0.463702"/>
<mask id="path-13-inside-1_420_2364" fill="white">
<path fill-rule="evenodd" clip-rule="evenodd" d="M285.022 105.376C285.062 105.399 285.102 105.422 285.142 105.445C285.182 105.468 285.222 105.491 285.262 105.514L332.444 132.755C332.476 132.773 332.509 132.792 332.541 132.811C332.574 132.83 332.606 132.849 332.639 132.867L333.847 133.565L333.881 133.545C347.402 140.568 368.235 140.323 381.246 132.811C394.498 125.16 394.693 112.826 381.831 105.037C389.813 97.393 388.092 87.317 376.669 80.7216C365.244 74.1255 347.79 73.1324 334.549 77.7425C334.319 77.6019 334.085 77.4628 333.847 77.3252C320.397 69.5601 298.591 69.5601 285.142 77.3252C272.035 84.8922 271.701 97.0409 284.139 104.842L284.118 104.854L285.022 105.376Z"/>
</mask>
<path d="M285.022 105.376L285.415 105.151L285.413 105.15L285.022 105.376ZM285.262 105.514L285.653 105.289L285.652 105.288L285.262 105.514ZM332.444 132.755L332.836 132.53L332.835 132.529L332.444 132.755ZM332.639 132.867L333.03 132.642L333.029 132.641L332.639 132.867ZM333.847 133.565L333.456 133.791L333.847 134.016L334.238 133.791L333.847 133.565ZM333.881 133.545L334.251 133.308L333.861 133.105L333.49 133.319L333.881 133.545ZM381.831 105.037L381.358 104.872L381.14 105.081L381.431 105.257L381.831 105.037ZM334.549 77.7425L334.147 77.9617L334.453 78.1488L334.835 78.0159L334.549 77.7425ZM284.139 104.842L284.53 105.067L284.905 104.851L284.546 104.625L284.139 104.842ZM284.118 104.854L283.727 104.628L283.336 104.854L283.727 105.079L284.118 104.854ZM285.413 105.15L285.187 105.019L284.405 105.471L284.631 105.601L285.413 105.15ZM284.735 104.758L284.509 104.628L283.727 105.079L283.953 105.21L284.735 104.758ZM284.509 105.079L284.514 105.076L283.732 104.625L283.727 104.628L284.509 105.079ZM284.525 105.07L284.53 105.067L283.748 104.616L283.743 104.619L284.525 105.07ZM284.546 104.625C284.252 104.441 283.965 104.254 283.686 104.065L282.844 104.479C283.133 104.675 283.429 104.868 283.732 105.058L284.546 104.625ZM282.081 102.891C281.57 102.486 281.089 102.072 280.638 101.65L279.696 101.986C280.162 102.421 280.659 102.849 281.187 103.267L282.081 102.891ZM279.363 100.349C278.966 99.9039 278.6 99.4523 278.266 98.9948L277.247 99.2429C277.592 99.7154 277.97 100.182 278.38 100.641L279.363 100.349ZM277.352 97.5956C277.078 97.1217 276.837 96.6428 276.627 96.1603L275.554 96.3155C275.771 96.8138 276.02 97.3083 276.303 97.7978L277.352 97.5956ZM276.094 94.6972C275.948 94.2052 275.835 93.7106 275.755 93.2146L274.654 93.274C274.737 93.7861 274.853 94.2967 275.004 94.8047L276.094 94.6972ZM275.613 91.7215C275.598 91.223 275.616 90.7243 275.667 90.2264L274.563 90.1888C274.51 90.7028 274.492 91.2178 274.507 91.7324L275.613 91.7215ZM275.917 88.7382C276.033 88.2447 276.182 87.7533 276.363 87.2651L275.282 87.1312C275.095 87.6353 274.941 88.1427 274.821 88.6522L275.917 88.7382ZM277.003 85.8162C277.247 85.3394 277.523 84.867 277.832 84.4L276.799 84.1724C276.48 84.6547 276.194 85.1426 275.942 85.635L277.003 85.8162ZM278.848 83.0242C279.215 82.5756 279.613 82.1333 280.043 81.6986L279.082 81.3822C278.638 81.8312 278.227 82.288 277.848 82.7514L278.848 83.0242ZM281.412 80.4292C281.893 80.0191 282.404 79.6172 282.945 79.2246L282.079 78.8271C281.521 79.2325 280.993 79.6475 280.496 80.071L281.412 80.4292ZM284.633 78.0904C284.926 77.9082 285.226 77.7283 285.533 77.551L284.751 77.0994C284.434 77.2824 284.124 77.468 283.822 77.6562L284.633 78.0904ZM285.533 77.551C285.848 77.3688 286.169 77.1909 286.493 77.0174L285.742 76.5488C285.407 76.7278 285.076 76.9114 284.751 77.0994L285.533 77.551ZM288.515 76.0184C289.216 75.6987 289.934 75.3973 290.666 75.1142L290.05 74.5836C289.294 74.876 288.553 75.1872 287.83 75.5173L288.515 76.0184ZM292.934 74.3103C293.711 74.0588 294.501 73.8263 295.303 73.6129L294.841 73.033C294.012 73.2534 293.196 73.4935 292.393 73.7533L292.934 74.3103ZM297.763 73.0255C298.597 72.848 299.442 72.6902 300.294 72.5519L299.995 71.9372C299.115 72.0799 298.243 72.2429 297.38 72.4262L297.763 73.0255ZM302.882 72.1947C303.753 72.0951 304.63 72.0154 305.511 71.9555L305.381 71.3213C304.472 71.3831 303.567 71.4654 302.667 71.5683L302.882 72.1947ZM308.164 71.8357C309.05 71.8157 309.938 71.8157 310.825 71.8357L310.868 71.1976C309.953 71.1769 309.036 71.1769 308.121 71.1976L308.164 71.8357ZM313.478 71.9555C314.358 72.0154 315.236 72.0951 316.107 72.1947L316.322 71.5683C315.422 71.4654 314.516 71.3831 313.607 71.3213L313.478 71.9555ZM318.695 72.5519C319.547 72.6902 320.391 72.848 321.226 73.0255L321.608 72.4262C320.746 72.2429 319.874 72.0799 318.994 71.9372L318.695 72.5519ZM323.685 73.6129C324.487 73.8263 325.278 74.0588 326.055 74.3103L326.596 73.7533C325.793 73.4935 324.977 73.2534 324.148 73.033L323.685 73.6129ZM328.323 75.1142C329.055 75.3973 329.773 75.6987 330.473 76.0184L331.159 75.5173C330.436 75.1872 329.695 74.876 328.938 74.5836L328.323 75.1142ZM332.495 77.0174C332.82 77.1909 333.14 77.3688 333.456 77.551L334.238 77.0994C333.912 76.9114 333.582 76.7279 333.247 76.5488L332.495 77.0174ZM333.456 77.551C333.514 77.5848 333.573 77.6186 333.631 77.6526L334.418 77.2043C334.358 77.1693 334.298 77.1343 334.238 77.0994L333.456 77.551ZM333.976 77.858C334.033 77.8925 334.09 77.927 334.147 77.9617L334.951 77.5233C334.893 77.4875 334.834 77.4518 334.775 77.4162L333.976 77.858ZM334.835 78.0159C335.237 77.8759 335.643 77.741 336.053 77.6115L335.522 77.0513C335.099 77.1852 334.679 77.3244 334.264 77.4691L334.835 78.0159ZM338.573 76.8925C339.432 76.6725 340.305 76.4741 341.187 76.2974L340.825 75.6941C339.914 75.8766 339.013 76.0814 338.125 76.3087L338.573 76.8925ZM343.879 75.83C344.788 75.6955 345.706 75.5832 346.628 75.493L346.444 74.8634C345.491 74.9565 344.544 75.0725 343.604 75.2113L343.879 75.83ZM349.417 75.2883C350.351 75.2423 351.288 75.2185 352.225 75.2171L352.222 74.5785C351.255 74.58 350.287 74.6045 349.323 74.6521L349.417 75.2883ZM355.034 75.2797C355.967 75.3227 356.898 75.3881 357.824 75.4757L358.003 74.8455C357.047 74.755 356.086 74.6876 355.122 74.6431L355.034 75.2797ZM360.577 75.8041C361.484 75.9351 362.383 76.0882 363.272 76.2631L363.629 75.6586C362.711 75.478 361.782 75.3199 360.845 75.1846L360.577 75.8041ZM365.892 76.85C366.748 77.0656 367.59 77.3026 368.418 77.561L368.944 76.9992C368.089 76.7323 367.218 76.4875 366.335 76.2648L365.892 76.85ZM370.833 78.3913C371.612 78.6854 372.375 79 373.119 79.335L373.799 78.8314C373.031 78.4854 372.243 78.1606 371.438 77.8568L370.833 78.3913ZM375.263 80.385C375.606 80.5676 375.945 80.755 376.278 80.9473L377.06 80.4958C376.716 80.2973 376.367 80.1039 376.013 79.9154L375.263 80.385ZM376.278 80.9473C376.611 81.1396 376.936 81.3349 377.252 81.533L378.065 81.1002C377.739 80.8957 377.404 80.6942 377.06 80.4958L376.278 80.9473ZM379.07 82.7707C379.65 83.2003 380.195 83.6408 380.705 84.0906L381.63 83.7412C381.104 83.2766 380.542 82.8217 379.942 82.378L379.07 82.7707ZM382.143 85.4844C382.59 85.9625 383.001 86.449 383.374 86.9426L384.388 86.687C384.002 86.1771 383.578 85.6746 383.116 85.1808L382.143 85.4844ZM384.391 88.4551C384.694 88.9685 384.959 89.4877 385.186 90.0113L386.259 89.8562C386.024 89.3155 385.751 88.7793 385.438 88.2492L384.391 88.4551ZM385.755 91.6003C385.906 92.1348 386.02 92.6722 386.094 93.2111L387.197 93.1601C387.12 92.6038 387.003 92.0489 386.846 91.497L385.755 91.6003ZM386.203 94.8326C386.2 95.3735 386.159 95.9144 386.08 96.4538L387.182 96.508C387.264 95.9512 387.306 95.3927 387.309 94.8343L386.203 94.8326ZM385.726 98.0636C385.569 98.5962 385.375 99.1258 385.142 99.6509L386.214 99.8092C386.454 99.267 386.655 98.7201 386.816 98.1701L385.726 98.0636ZM384.333 101.205C384.027 101.714 383.684 102.218 383.303 102.714L384.314 102.973C384.707 102.46 385.062 101.94 385.378 101.414L384.333 101.205ZM382.058 104.169C381.834 104.405 381.6 104.64 381.358 104.872L382.305 105.202C382.555 104.962 382.796 104.72 383.028 104.475L382.058 104.169ZM381.431 105.257C381.734 105.441 382.03 105.627 382.318 105.815L383.147 105.393C382.85 105.198 382.544 105.006 382.231 104.817L381.431 105.257ZM383.976 106.987C384.505 107.392 385.003 107.806 385.471 108.229L386.403 107.885C385.92 107.448 385.405 107.021 384.858 106.602L383.976 106.987ZM386.795 109.534C387.208 109.98 387.589 110.434 387.938 110.894L388.951 110.638C388.591 110.163 388.197 109.694 387.77 109.233L386.795 109.534ZM388.895 112.302C389.183 112.78 389.438 113.262 389.66 113.749L390.73 113.586C390.5 113.084 390.237 112.585 389.94 112.092L388.895 112.302ZM390.229 115.225C390.386 115.722 390.509 116.222 390.599 116.723L391.699 116.657C391.606 116.14 391.479 115.624 391.317 115.111L390.229 115.225ZM390.769 118.232C390.792 118.737 390.781 119.241 390.737 119.745L391.842 119.777C391.887 119.257 391.898 118.736 391.874 118.216L390.769 118.232ZM390.504 121.252C390.393 121.752 390.249 122.249 390.071 122.744L391.154 122.873C391.338 122.363 391.487 121.849 391.601 121.333L390.504 121.252ZM389.441 124.212C389.198 124.695 388.923 125.174 388.615 125.647L389.65 125.872C389.968 125.383 390.253 124.888 390.503 124.389L389.441 124.212ZM387.598 127.041C387.23 127.496 386.83 127.944 386.398 128.385L387.36 128.7C387.806 128.244 388.22 127.781 388.6 127.312L387.598 127.041ZM385.019 129.671C384.534 130.087 384.018 130.494 383.472 130.891L384.338 131.288C384.902 130.878 385.435 130.457 385.936 130.028L385.019 129.671ZM381.766 132.04C381.469 132.224 381.166 132.406 380.855 132.585L381.637 133.037C381.958 132.852 382.271 132.664 382.577 132.474L381.766 132.04ZM380.855 132.585C380.551 132.761 380.241 132.933 379.928 133.101L380.681 133.569C381.004 133.396 381.323 133.218 381.637 133.037L380.855 132.585ZM377.98 134.069C377.305 134.379 376.615 134.673 375.911 134.949L376.532 135.477C377.26 135.192 377.972 134.889 378.669 134.568L377.98 134.069ZM373.731 135.735C372.985 135.982 372.225 136.212 371.455 136.423L371.93 137C372.726 136.781 373.51 136.545 374.281 136.29L373.731 135.735ZM369.093 137.009C368.291 137.187 367.48 137.347 366.662 137.489L366.979 138.101C367.825 137.955 368.663 137.789 369.491 137.605L369.093 137.009ZM364.174 137.861C363.335 137.967 362.491 138.055 361.644 138.124L361.798 138.756C362.673 138.685 363.545 138.595 364.41 138.485L364.174 137.861ZM359.087 138.275C358.231 138.307 357.374 138.32 356.517 138.314L356.505 138.953C357.39 138.959 358.275 138.945 359.158 138.912L359.087 138.275ZM353.95 138.242C353.096 138.199 352.246 138.138 351.399 138.058L351.22 138.688C352.095 138.771 352.973 138.834 353.854 138.878L353.95 138.242ZM348.88 137.764C348.049 137.647 347.224 137.513 346.407 137.36L346.066 137.967C346.909 138.125 347.761 138.264 348.619 138.384L348.88 137.764ZM343.994 136.848C343.205 136.661 342.425 136.456 341.657 136.232L341.159 136.803C341.953 137.033 342.758 137.245 343.574 137.439L343.994 136.848ZM339.407 135.515C338.677 135.261 337.961 134.989 337.259 134.701L336.617 135.221C337.342 135.519 338.082 135.799 338.835 136.062L339.407 135.515ZM335.224 133.794C334.896 133.636 334.571 133.474 334.251 133.308L333.511 133.782C333.842 133.954 334.177 134.121 334.516 134.285L335.224 133.794ZM333.49 133.319L333.482 133.324L334.264 133.776L334.272 133.771L333.49 133.319ZM333.465 133.334L333.456 133.339L334.238 133.791L334.247 133.786L333.465 133.334ZM334.238 133.339L333.936 133.165L333.154 133.616L333.456 133.791L334.238 133.339ZM333.332 132.816L333.03 132.642L332.248 133.093L332.55 133.267L333.332 132.816ZM333.029 132.641C333.021 132.636 333.013 132.632 333.005 132.627L332.225 133.08C332.233 133.085 332.241 133.089 332.25 133.094L333.029 132.641ZM332.956 132.599C332.948 132.595 332.94 132.59 332.932 132.585L332.15 133.037C332.159 133.042 332.167 133.046 332.175 133.051L332.956 132.599ZM332.932 132.585C332.924 132.581 332.916 132.576 332.908 132.571L332.125 133.023C332.134 133.027 332.142 133.032 332.15 133.037L332.932 132.585ZM332.86 132.544C332.852 132.539 332.844 132.534 332.836 132.53L332.051 132.98C332.06 132.984 332.068 132.989 332.076 132.994L332.86 132.544ZM332.835 132.529L331.852 131.961L331.07 132.413L332.053 132.98L332.835 132.529ZM329.886 130.826L327.92 129.691L327.138 130.143L329.104 131.278L329.886 130.826ZM325.954 128.556L323.988 127.421L323.206 127.873L325.172 129.008L325.954 128.556ZM322.023 126.286L320.057 125.151L319.275 125.603L321.24 126.738L322.023 126.286ZM318.091 124.016L316.125 122.881L315.343 123.333L317.309 124.468L318.091 124.016ZM314.159 121.746L312.193 120.611L311.411 121.063L313.377 122.198L314.159 121.746ZM310.227 119.476L308.261 118.341L307.479 118.793L309.445 119.928L310.227 119.476ZM306.295 117.206L304.329 116.071L303.547 116.523L305.513 117.658L306.295 117.206ZM302.364 114.936L300.398 113.801L299.616 114.253L301.581 115.388L302.364 114.936ZM298.432 112.666L296.466 111.531L295.684 111.983L297.65 113.118L298.432 112.666ZM294.5 110.396L292.534 109.261L291.752 109.713L293.718 110.848L294.5 110.396ZM290.568 108.126L288.602 106.991L287.82 107.443L289.786 108.578L290.568 108.126ZM286.636 105.856L285.653 105.289L284.871 105.74L285.854 106.308L286.636 105.856ZM285.652 105.288C285.642 105.282 285.632 105.276 285.622 105.271L284.843 105.724C284.853 105.73 284.863 105.735 284.873 105.741L285.652 105.288ZM285.562 105.236C285.553 105.231 285.543 105.225 285.533 105.219L284.751 105.671C284.761 105.677 284.771 105.683 284.781 105.689L285.562 105.236ZM285.533 105.219C285.523 105.214 285.513 105.208 285.503 105.202L284.72 105.653C284.73 105.659 284.741 105.665 284.751 105.671L285.533 105.219ZM285.444 105.168C285.434 105.162 285.425 105.157 285.415 105.151L284.629 105.6C284.639 105.606 284.649 105.612 284.659 105.618L285.444 105.168ZM285.022 105.376L285.808 104.926L285.804 104.924L285.022 105.376ZM285.262 105.514L286.045 105.063L286.041 105.061L285.262 105.514ZM332.444 132.755L333.229 132.305L333.226 132.303L332.444 132.755ZM332.639 132.867L333.421 132.416L333.418 132.414L332.639 132.867ZM333.847 133.565L333.065 134.016L333.847 134.468L334.629 134.016L333.847 133.565ZM333.881 133.545L334.621 133.07L333.841 132.665L333.099 133.093L333.881 133.545ZM381.831 105.037L380.884 104.707L380.448 105.125L381.031 105.478L381.831 105.037ZM334.549 77.7425L333.745 78.1809L334.357 78.5552L335.12 78.2894L334.549 77.7425ZM284.139 104.842L284.921 105.293L285.671 104.86L284.953 104.409L284.139 104.842ZM284.118 104.854L283.336 104.402L282.554 104.854L283.336 105.305L284.118 104.854ZM285.804 104.924L285.578 104.794L284.014 105.697L284.24 105.827L285.804 104.924ZM285.126 104.533L284.9 104.402L283.336 105.305L283.562 105.436L285.126 104.533ZM284.9 105.305L284.905 105.302L283.341 104.399L283.336 104.402L284.9 105.305ZM284.916 105.296L284.921 105.293L283.357 104.39L283.352 104.393L284.916 105.296ZM284.953 104.409C284.663 104.228 284.381 104.044 284.106 103.858L282.423 104.687C282.716 104.885 283.017 105.081 283.325 105.274L284.953 104.409ZM282.528 102.703C282.025 102.305 281.552 101.897 281.108 101.483L279.226 102.154C279.699 102.596 280.204 103.03 280.74 103.455L282.528 102.703ZM279.854 100.202C279.464 99.7649 279.104 99.3207 278.776 98.8707L276.737 99.3669C277.088 99.847 277.472 100.321 277.888 100.788L279.854 100.202ZM277.877 97.4945C277.607 97.0283 277.37 96.5573 277.164 96.0827L275.018 96.3932C275.238 96.8993 275.491 97.4017 275.779 97.8989L277.877 97.4945ZM276.639 94.6434C276.496 94.1594 276.385 93.6729 276.306 93.1849L274.103 93.3036C274.187 93.8238 274.306 94.3425 274.459 94.8585L276.639 94.6434ZM276.166 91.7161C276.151 91.2257 276.169 90.735 276.219 90.2452L274.011 90.1701C273.957 90.6921 273.938 91.2151 273.954 91.7379L276.166 91.7161ZM276.465 88.7811C276.58 88.2956 276.726 87.8122 276.904 87.332L274.741 87.0643C274.551 87.5763 274.395 88.0917 274.273 88.6093L276.465 88.7811ZM277.533 85.9068C277.773 85.4378 278.045 84.9731 278.349 84.5138L276.282 84.0586C275.958 84.5486 275.668 85.0443 275.412 85.5445L277.533 85.9068ZM279.348 83.1606C279.709 82.7194 280.101 82.2844 280.523 81.8568L278.602 81.224C278.151 81.6802 277.733 82.1442 277.347 82.615L279.348 83.1606ZM281.87 80.6082C282.343 80.2049 282.845 79.8096 283.378 79.4233L281.646 78.6283C281.079 79.0402 280.543 79.4617 280.038 79.892L281.87 80.6082ZM285.038 78.3076C285.327 78.1282 285.622 77.9513 285.924 77.7768L284.36 76.8737C284.038 77.0595 283.724 77.248 283.417 77.4391L285.038 78.3076ZM285.924 77.7768C286.235 77.5975 286.55 77.4225 286.869 77.2517L285.366 76.3144C285.026 76.4963 284.69 76.6827 284.36 76.8737L285.924 77.7768ZM288.858 76.2689C289.548 75.9544 290.253 75.658 290.974 75.3795L289.743 74.3183C288.974 74.6153 288.222 74.9315 287.487 75.2668L288.858 76.2689ZM293.204 74.5888C293.969 74.3414 294.746 74.1128 295.535 73.9029L294.609 72.743C293.767 72.9669 292.938 73.2109 292.123 73.4748L293.204 74.5888ZM297.954 73.3251C298.775 73.1506 299.605 72.9953 300.443 72.8593L299.845 71.6298C298.951 71.7748 298.065 71.9404 297.189 72.1266L297.954 73.3251ZM302.989 72.5079C303.846 72.4099 304.709 72.3315 305.575 72.2726L305.317 71.0042C304.393 71.067 303.474 71.1506 302.559 71.255L302.989 72.5079ZM308.185 72.1547C309.058 72.1351 309.931 72.1351 310.803 72.1547L310.89 70.8785C309.96 70.8576 309.029 70.8576 308.099 70.8785L308.185 72.1547ZM313.413 72.2726C314.28 72.3315 315.142 72.4099 316 72.5079L316.429 71.255C315.515 71.1506 314.595 71.067 313.672 71.0042L313.413 72.2726ZM318.545 72.8593C319.383 72.9953 320.214 73.1506 321.035 73.3251L321.799 72.1266C320.924 71.9404 320.038 71.7748 319.144 71.6298L318.545 72.8593ZM323.454 73.9029C324.243 74.1128 325.02 74.3414 325.784 74.5888L326.866 73.4748C326.051 73.2109 325.221 72.9669 324.38 72.743L323.454 73.9029ZM328.015 75.3795C328.736 75.658 329.441 75.9544 330.13 76.2689L331.502 75.2668C330.767 74.9315 330.014 74.6153 329.246 74.3183L328.015 75.3795ZM332.12 77.2517C332.439 77.4225 332.754 77.5975 333.065 77.7768L334.629 76.8737C334.298 76.6827 333.963 76.4963 333.622 76.3144L332.12 77.2517ZM333.065 77.7768C333.122 77.81 333.18 77.8433 333.237 77.8768L334.812 76.9802C334.751 76.9446 334.69 76.9091 334.629 76.8737L333.065 77.7768ZM333.577 78.0788C333.633 78.1128 333.689 78.1468 333.745 78.1809L335.353 77.3041C335.294 77.2678 335.234 77.2315 335.174 77.1954L333.577 78.0788ZM335.12 78.2894C335.516 78.1516 335.916 78.019 336.319 77.8915L335.257 76.7713C334.827 76.9072 334.4 77.0487 333.978 77.1957L335.12 78.2894ZM338.797 77.1844C339.642 76.968 340.501 76.7729 341.369 76.5991L340.644 75.3924C339.718 75.5778 338.803 75.7859 337.9 76.0168L338.797 77.1844ZM344.016 76.1393C344.911 76.0071 345.813 75.8966 346.721 75.8078L346.351 74.5486C345.384 74.6432 344.421 74.761 343.467 74.902L344.016 76.1393ZM349.464 75.6065C350.383 75.5612 351.305 75.5378 352.227 75.5364L352.221 74.2592C351.238 74.2607 350.255 74.2856 349.276 74.3339L349.464 75.6065ZM354.99 75.5979C355.908 75.6403 356.824 75.7046 357.735 75.7908L358.092 74.5304C357.121 74.4385 356.145 74.37 355.166 74.3248L354.99 75.5979ZM360.442 76.1138C361.335 76.2428 362.219 76.3933 363.094 76.5653L363.807 75.3564C362.874 75.1729 361.931 75.0123 360.98 74.8749L360.442 76.1138ZM365.671 77.1426C366.512 77.3547 367.341 77.5878 368.156 77.8419L369.207 76.7183C368.338 76.4471 367.454 76.1984 366.557 75.9722L365.671 77.1426ZM370.53 78.6586C371.297 78.9478 372.047 79.2573 372.779 79.5868L374.139 78.5796C373.359 78.2282 372.558 77.8981 371.741 77.5895L370.53 78.6586ZM374.889 80.6198C375.226 80.7994 375.559 80.9839 375.887 81.1731L377.451 80.27C377.102 80.0685 376.747 79.872 376.388 79.6806L374.889 80.6198ZM375.887 81.1731C376.215 81.3623 376.534 81.5545 376.845 81.7494L378.472 80.8839C378.14 80.6762 377.8 80.4715 377.451 80.27L375.887 81.1731ZM378.634 82.967C379.205 83.3897 379.741 83.8229 380.242 84.2653L382.093 83.5665C381.559 83.0945 380.987 82.6324 380.379 82.1817L378.634 82.967ZM381.656 85.6362C382.096 86.1064 382.5 86.5849 382.867 87.0705L384.895 86.5592C384.503 86.0412 384.072 85.5306 383.602 85.029L381.656 85.6362ZM383.867 88.5581C384.165 89.0631 384.426 89.5738 384.649 90.0889L386.795 89.7787C386.557 89.2295 386.279 88.6848 385.961 88.1462L383.867 88.5581ZM385.209 91.6519C385.358 92.1777 385.47 92.7064 385.543 93.2366L387.748 93.1347C387.67 92.5695 387.551 92.0059 387.392 91.4454L385.209 91.6519ZM385.65 94.8318C385.647 95.3639 385.607 95.8961 385.529 96.4267L387.733 96.5352C387.816 95.9696 387.859 95.4023 387.862 94.8351L385.65 94.8318ZM385.18 98.0103C385.027 98.5342 384.835 99.0552 384.606 99.5717L386.75 99.8883C386.994 99.3375 387.198 98.782 387.361 98.2234L385.18 98.0103ZM383.81 101.1C383.51 101.601 383.172 102.097 382.797 102.585L384.82 103.102C385.219 102.581 385.58 102.053 385.901 101.518L383.81 101.1ZM381.573 104.015C381.352 104.248 381.123 104.479 380.884 104.707L382.778 105.367C383.033 105.123 383.278 104.877 383.513 104.628L381.573 104.015ZM381.031 105.478C381.329 105.658 381.62 105.841 381.904 106.027L383.562 105.181C383.259 104.984 382.949 104.789 382.632 104.596L381.031 105.478ZM383.534 107.179C384.055 107.578 384.545 107.985 385.005 108.4L386.868 107.713C386.378 107.27 385.855 106.835 385.3 106.41L383.534 107.179ZM386.307 109.684C386.713 110.124 387.088 110.57 387.431 111.022L389.458 110.51C389.091 110.027 388.692 109.551 388.258 109.082L386.307 109.684ZM388.373 112.407C388.656 112.877 388.907 113.352 389.125 113.83L391.264 113.505C391.032 112.994 390.764 112.488 390.462 111.987L388.373 112.407ZM389.685 115.283C389.839 115.771 389.96 116.263 390.049 116.756L392.249 116.624C392.155 116.099 392.026 115.575 391.861 115.054L389.685 115.283ZM390.216 118.241C390.239 118.737 390.228 119.233 390.185 119.729L392.394 119.793C392.44 119.265 392.451 118.736 392.427 118.207L390.216 118.241ZM389.956 121.211C389.847 121.703 389.705 122.192 389.53 122.679L391.696 122.938C391.882 122.42 392.034 121.898 392.15 121.374L389.956 121.211ZM388.909 124.123C388.671 124.598 388.4 125.069 388.097 125.535L390.168 125.984C390.491 125.487 390.78 124.985 391.034 124.478L388.909 124.123ZM387.097 126.906C386.735 127.353 386.341 127.794 385.916 128.228L387.841 128.857C388.295 128.395 388.715 127.924 389.101 127.447L387.097 126.906ZM384.56 129.493C384.083 129.901 383.576 130.302 383.038 130.693L384.771 131.487C385.344 131.07 385.885 130.642 386.394 130.207L384.56 129.493ZM381.36 131.822C381.069 132.004 380.77 132.183 380.464 132.36L382.029 133.263C382.354 133.075 382.672 132.884 382.982 132.691L381.36 131.822ZM380.464 132.36C380.164 132.533 379.86 132.702 379.552 132.867L381.057 133.803C381.385 133.627 381.709 133.447 382.029 133.263L380.464 132.36ZM377.635 133.819C376.972 134.125 376.293 134.413 375.6 134.685L376.843 135.741C377.582 135.451 378.306 135.144 379.014 134.818L377.635 133.819ZM373.456 135.458C372.722 135.701 371.975 135.927 371.218 136.135L372.168 137.288C372.976 137.066 373.773 136.826 374.556 136.567L373.456 135.458ZM368.895 136.711C368.106 136.887 367.308 137.044 366.503 137.183L367.138 138.407C367.997 138.258 368.848 138.09 369.69 137.903L368.895 136.711ZM364.055 137.549C363.231 137.654 362.4 137.74 361.567 137.807L361.875 139.072C362.764 139 363.649 138.908 364.529 138.797L364.055 137.549ZM359.051 137.956C358.21 137.988 357.366 138.001 356.523 137.995L356.499 139.272C357.397 139.278 358.296 139.264 359.193 139.231L359.051 137.956ZM353.997 137.924C353.158 137.882 352.321 137.822 351.488 137.743L351.131 139.004C352.019 139.087 352.912 139.152 353.806 139.196L353.997 137.924ZM349.01 137.453C348.193 137.339 347.381 137.206 346.578 137.056L345.895 138.271C346.752 138.431 347.617 138.573 348.489 138.695L349.01 137.453ZM344.204 136.553C343.428 136.369 342.661 136.167 341.905 135.947L340.911 137.088C341.717 137.322 342.535 137.538 343.363 137.734L344.204 136.553ZM339.692 135.241C338.975 134.991 338.27 134.724 337.58 134.441L336.296 135.481C337.032 135.784 337.784 136.068 338.55 136.335L339.692 135.241ZM335.578 133.549C335.255 133.393 334.936 133.234 334.621 133.07L333.141 134.02C333.477 134.194 333.817 134.364 334.162 134.53L335.578 133.549ZM333.099 133.093L333.091 133.098L334.655 134.001L334.663 133.997L333.099 133.093ZM333.073 133.108L333.065 133.113L334.629 134.016L334.638 134.011L333.073 133.108ZM334.629 133.113L334.327 132.939L332.763 133.842L333.065 134.016L334.629 133.113ZM333.723 132.59L333.421 132.416L331.857 133.319L332.159 133.493L333.723 132.59ZM333.418 132.414C333.41 132.41 333.402 132.405 333.394 132.4L331.835 133.306C331.843 133.311 331.852 133.316 331.86 133.321L333.418 132.414ZM333.347 132.373C333.339 132.369 333.331 132.364 333.323 132.36L331.759 133.263C331.768 133.268 331.776 133.272 331.784 133.277L333.347 132.373ZM333.323 132.36C333.316 132.355 333.308 132.35 333.3 132.346L331.734 133.248C331.742 133.253 331.751 133.258 331.759 133.263L333.323 132.36ZM333.253 132.319C333.245 132.314 333.237 132.309 333.229 132.305L331.659 133.204C331.667 133.209 331.675 133.214 331.684 133.219L333.253 132.319ZM333.226 132.303L332.243 131.736L330.679 132.639L331.662 133.206L333.226 132.303ZM330.277 130.601L328.311 129.466L326.747 130.369L328.713 131.504L330.277 130.601ZM326.345 128.331L324.379 127.196L322.815 128.099L324.781 129.234L326.345 128.331ZM322.414 126.061L320.448 124.926L318.883 125.829L320.849 126.964L322.414 126.061ZM318.482 123.791L316.516 122.656L314.952 123.559L316.918 124.694L318.482 123.791ZM314.55 121.52L312.584 120.385L311.02 121.289L312.986 122.424L314.55 121.52ZM310.618 119.25L308.652 118.115L307.088 119.019L309.054 120.154L310.618 119.25ZM306.686 116.98L304.721 115.845L303.156 116.749L305.122 117.884L306.686 116.98ZM302.755 114.71L300.789 113.575L299.224 114.479L301.19 115.614L302.755 114.71ZM298.823 112.44L296.857 111.305L295.293 112.209L297.259 113.344L298.823 112.44ZM294.891 110.17L292.925 109.035L291.361 109.938L293.327 111.073L294.891 110.17ZM290.959 107.9L288.993 106.765L287.429 107.668L289.395 108.803L290.959 107.9ZM287.027 105.63L286.045 105.063L284.48 105.966L285.463 106.533L287.027 105.63ZM286.041 105.061C286.031 105.055 286.021 105.05 286.011 105.044L284.453 105.95C284.463 105.956 284.474 105.962 284.484 105.968L286.041 105.061ZM285.953 105.01C285.943 105.005 285.934 104.999 285.924 104.994L284.36 105.897C284.37 105.903 284.38 105.909 284.391 105.915L285.953 105.01ZM285.924 104.994C285.914 104.988 285.905 104.982 285.895 104.977L284.329 105.879C284.339 105.885 284.349 105.891 284.36 105.897L285.924 104.994ZM285.837 104.943C285.827 104.937 285.817 104.932 285.808 104.926L284.236 105.825C284.246 105.831 284.257 105.837 284.267 105.843L285.837 104.943Z" fill="url(#paint20_linear_420_2364)" fill-opacity="0.7" mask="url(#path-13-inside-1_420_2364)"/>
<g filter="url(#filter7_d_420_2364)">
<path d="M372.425 82.4595C373.183 82.897 373.889 83.3534 374.541 83.826L380.607 82.3385C380.49 86.427 380.519 90.4093 380.567 92.8275C380.934 96.0674 379.62 99.3591 376.623 102.229C376.838 102.359 377.048 102.491 377.254 102.624L384.34 100.886C384.192 106.08 384.279 111.102 384.34 112.964L384.339 112.964C384.529 117.239 381.798 121.549 376.147 124.811C365.568 130.919 348.63 131.118 337.637 125.408L337.609 125.424L336.623 124.855L336.547 124.811L336.471 124.767L298.075 102.599L298.009 102.561L297.943 102.523L297.176 102.08L297.193 102.07C292.064 98.8529 289.606 94.726 289.82 90.6371C289.881 89.1121 289.928 85.3434 289.928 81.2007L294.439 82.218C295.46 81.3274 296.65 80.4823 298.009 79.6977C308.944 73.3843 326.674 73.3843 337.609 79.6977C337.803 79.8097 337.993 79.9229 338.18 80.0372C348.945 76.2891 363.137 77.0965 372.425 82.4595Z" fill="url(#paint21_linear_420_2364)" fill-opacity="0.7"/>
<path fill-rule="evenodd" clip-rule="evenodd" d="M298.067 92.0966C298.085 92.1068 298.102 92.117 298.12 92.1272C298.138 92.1374 298.155 92.1476 298.173 92.1578L337.72 114.99L337.748 114.974C348.741 120.684 365.68 120.485 376.259 114.377C387.033 108.157 387.192 98.1282 376.734 91.7955C383.224 85.5806 381.824 77.3884 372.537 72.026C363.248 66.6631 349.057 65.8557 338.291 69.6037C338.104 69.4893 337.914 69.3761 337.72 69.2641C326.785 62.9507 309.055 62.9507 298.12 69.2641C287.464 75.4166 287.192 85.2942 297.305 91.6367L297.288 91.6466L298.067 92.0966Z" fill="url(#paint22_linear_420_2364)"/>
</g>
<path d="M309.478 119.149L278.066 137.484" stroke="url(#paint23_linear_420_2364)" stroke-opacity="0.7" stroke-width="1.15925" stroke-dasharray="2.32 2.32"/>
<line y1="-0.550119" x2="38.3405" y2="-0.550119" transform="matrix(-0.84399 -0.487278 -0.393595 0.681727 135.004 136.243)" stroke="url(#paint24_linear_420_2364)" stroke-opacity="0.7" stroke-width="1.10024" stroke-dasharray="2.2 2.2"/>
<g style="mix-blend-mode:multiply">
<path fill-rule="evenodd" clip-rule="evenodd" d="M110.486 93.9229C110.486 93.2827 110.935 92.5042 111.49 92.184C112.044 91.8639 112.494 92.1234 112.494 92.7637V97.4174C112.494 98.0576 112.044 98.8361 111.49 99.1562C110.935 99.4764 110.486 99.2169 110.486 98.5766V93.9229ZM114.722 91.4774C114.722 90.8372 115.171 90.0587 115.726 89.7386C116.28 89.4184 116.73 89.6779 116.73 90.3182V94.9719C116.73 95.6121 116.28 96.3906 115.726 96.7107C115.171 97.0309 114.722 96.7714 114.722 96.1311V91.4774ZM119.961 87.293C119.407 87.6131 118.957 88.3916 118.957 89.0319V93.6856C118.957 94.3258 119.407 94.5853 119.961 94.2652C120.516 93.9451 120.965 93.1665 120.965 92.5263V87.8726C120.965 87.2324 120.516 86.9729 119.961 87.293Z" fill="#DDE7F5"/>
</g>
<g style="mix-blend-mode:multiply">
<circle cx="2.88372" cy="2.88372" r="2.88372" transform="matrix(0.866025 0.5 0 1 28.7006 94.3696)" fill="#DDE7F5" fill-opacity="0.6"/>
</g>
<g style="mix-blend-mode:multiply">
<rect width="23.6366" height="2.80193" rx="1.40096" transform="matrix(0.866025 0.5 0 1 36.3314 100.599)" fill="#DDE7F5"/>
</g>
<g filter="url(#filter8_f_420_2364)">
<rect x="526.409" y="315.795" width="288.615" height="142.94" transform="rotate(-180 526.409 315.795)" fill="url(#paint25_linear_420_2364)"/>
</g>
</g>
<defs>
<filter id="filter0_d_420_2364" x="112.919" y="105.732" width="181.23" height="121.515" filterUnits="userSpaceOnUse" color-interpolation-filters="sRGB">
<feFlood flood-opacity="0" result="BackgroundImageFix"/>
<feColorMatrix in="SourceAlpha" type="matrix" values="0 0 0 0 0 0 0 0 0 0 0 0 0 0 0 0 0 0 127 0" result="hardAlpha"/>
<feOffset dy="2.31851"/>
<feGaussianBlur stdDeviation="2.31851"/>
<feComposite in2="hardAlpha" operator="out"/>
<feColorMatrix type="matrix" values="0 0 0 0 0 0 0 0 0 0.31421 0 0 0 0 0.604248 0 0 0 0.05 0"/>
<feBlend mode="normal" in2="BackgroundImageFix" result="effect1_dropShadow_420_2364"/>
<feBlend mode="normal" in="SourceGraphic" in2="effect1_dropShadow_420_2364" result="shape"/>
</filter>
<filter id="filter1_b_420_2364" x="111.165" y="114.622" width="184.737" height="112.06" filterUnits="userSpaceOnUse" color-interpolation-filters="sRGB">
<feFlood flood-opacity="0" result="BackgroundImageFix"/>
<feGaussianBlur in="BackgroundImageFix" stdDeviation="3.19531"/>
<feComposite in2="SourceAlpha" operator="in" result="effect1_backgroundBlur_420_2364"/>
<feBlend mode="normal" in="SourceGraphic" in2="effect1_backgroundBlur_420_2364" result="shape"/>
</filter>
<filter id="filter2_d_420_2364" x="18.4604" y="46.8509" width="112.235" height="85.024" filterUnits="userSpaceOnUse" color-interpolation-filters="sRGB">
<feFlood flood-opacity="0" result="BackgroundImageFix"/>
<feColorMatrix in="SourceAlpha" type="matrix" values="0 0 0 0 0 0 0 0 0 0 0 0 0 0 0 0 0 0 127 0" result="hardAlpha"/>
<feOffset dy="2.31851"/>
<feGaussianBlur stdDeviation="2.31851"/>
<feComposite in2="hardAlpha" operator="out"/>
<feColorMatrix type="matrix" values="0 0 0 0 0 0 0 0 0 0.31421 0 0 0 0 0.604248 0 0 0 0.05 0"/>
<feBlend mode="normal" in2="BackgroundImageFix" result="effect1_dropShadow_420_2364"/>
<feBlend mode="normal" in="SourceGraphic" in2="effect1_dropShadow_420_2364" result="shape"/>
</filter>
<filter id="filter3_b_420_2364" x="19.1826" y="61.5961" width="110.865" height="67.5556" filterUnits="userSpaceOnUse" color-interpolation-filters="sRGB">
<feFlood flood-opacity="0" result="BackgroundImageFix"/>
<feGaussianBlur in="BackgroundImageFix" stdDeviation="2.11612"/>
<feComposite in2="SourceAlpha" operator="in" result="effect1_backgroundBlur_420_2364"/>
<feBlend mode="normal" in="SourceGraphic" in2="effect1_backgroundBlur_420_2364" result="shape"/>
</filter>
<filter id="filter4_b_420_2364" x="136.272" y="107.537" width="134.523" height="81.774" filterUnits="userSpaceOnUse" color-interpolation-filters="sRGB">
<feFlood flood-opacity="0" result="BackgroundImageFix"/>
<feGaussianBlur in="BackgroundImageFix" stdDeviation="2.31851"/>
<feComposite in2="SourceAlpha" operator="in" result="effect1_backgroundBlur_420_2364"/>
<feBlend mode="normal" in="SourceGraphic" in2="effect1_backgroundBlur_420_2364" result="shape"/>
</filter>
<filter id="filter5_b_420_2364" x="136.272" y="83.1931" width="134.524" height="81.774" filterUnits="userSpaceOnUse" color-interpolation-filters="sRGB">
<feFlood flood-opacity="0" result="BackgroundImageFix"/>
<feGaussianBlur in="BackgroundImageFix" stdDeviation="2.31851"/>
<feComposite in2="SourceAlpha" operator="in" result="effect1_backgroundBlur_420_2364"/>
<feBlend mode="normal" in="SourceGraphic" in2="effect1_backgroundBlur_420_2364" result="shape"/>
</filter>
<filter id="filter6_b_420_2364" x="136.272" y="58.8488" width="134.523" height="81.774" filterUnits="userSpaceOnUse" color-interpolation-filters="sRGB">
<feFlood flood-opacity="0" result="BackgroundImageFix"/>
<feGaussianBlur in="BackgroundImageFix" stdDeviation="2.31851"/>
<feComposite in2="SourceAlpha" operator="in" result="effect1_backgroundBlur_420_2364"/>
<feBlend mode="normal" in="SourceGraphic" in2="effect1_backgroundBlur_420_2364" result="shape"/>
</filter>
<filter id="filter7_d_420_2364" x="285.17" y="62.2105" width="103.927" height="74.2911" filterUnits="userSpaceOnUse" color-interpolation-filters="sRGB">
<feFlood flood-opacity="0" result="BackgroundImageFix"/>
<feColorMatrix in="SourceAlpha" type="matrix" values="0 0 0 0 0 0 0 0 0 0 0 0 0 0 0 0 0 0 127 0" result="hardAlpha"/>
<feOffset dy="2.31851"/>
<feGaussianBlur stdDeviation="2.31851"/>
<feComposite in2="hardAlpha" operator="out"/>
<feColorMatrix type="matrix" values="0 0 0 0 0 0 0 0 0 0.31421 0 0 0 0 0.604248 0 0 0 0.05 0"/>
<feBlend mode="normal" in2="BackgroundImageFix" result="effect1_dropShadow_420_2364"/>
<feBlend mode="normal" in="SourceGraphic" in2="effect1_dropShadow_420_2364" result="shape"/>
</filter>
<filter id="filter8_f_420_2364" x="37.7938" y="-27.145" width="688.615" height="542.94" filterUnits="userSpaceOnUse" color-interpolation-filters="sRGB">
<feFlood flood-opacity="0" result="BackgroundImageFix"/>
<feBlend mode="normal" in="SourceGraphic" in2="BackgroundImageFix" result="shape"/>
<feGaussianBlur stdDeviation="100" result="effect1_foregroundBlur_420_2364"/>
</filter>
<linearGradient id="paint0_linear_420_2364" x1="95.3807" y1="143.487" x2="-38.5757" y2="86.7752" gradientUnits="userSpaceOnUse">
<stop stop-color="#B7C8DF"/>
<stop offset="1" stop-color="#DEE8F6"/>
</linearGradient>
<linearGradient id="paint1_linear_420_2364" x1="117.556" y1="146.388" x2="274.351" y2="137.053" gradientUnits="userSpaceOnUse">
<stop stop-color="#DDE8F7"/>
<stop offset="1" stop-color="#C4D8F3"/>
</linearGradient>
<linearGradient id="paint2_linear_420_2364" x1="2.519" y1="-2.519" x2="106.172" y2="2.77568" gradientUnits="userSpaceOnUse">
<stop stop-color="#E8F0FA"/>
<stop offset="0.375" stop-color="#E9F2FF"/>
</linearGradient>
<linearGradient id="paint3_linear_420_2364" x1="53.8852" y1="0" x2="120.283" y2="86.669" gradientUnits="userSpaceOnUse">
<stop stop-color="white" stop-opacity="0"/>
<stop offset="1" stop-color="white" stop-opacity="0.5"/>
</linearGradient>
<linearGradient id="paint4_linear_420_2364" x1="53.4331" y1="95.0257" x2="-25.0015" y2="66.9364" gradientUnits="userSpaceOnUse">
<stop stop-color="#B7C8DF"/>
<stop offset="1" stop-color="#DEE8F6"/>
</linearGradient>
<linearGradient id="paint5_linear_420_2364" x1="23.4148" y1="80.9319" x2="116.787" y2="75.3704" gradientUnits="userSpaceOnUse">
<stop stop-color="#DCE5F3"/>
<stop offset="1" stop-color="#CBDBF1"/>
</linearGradient>
<linearGradient id="paint6_linear_420_2364" x1="1.35956" y1="-1.66823" x2="57.352" y2="0.662697" gradientUnits="userSpaceOnUse">
<stop stop-color="#E8F0FA"/>
<stop offset="0.375" stop-color="#E9F2FF"/>
</linearGradient>
<linearGradient id="paint7_linear_420_2364" x1="29.083" y1="0" x2="74.5386" y2="48.3547" gradientUnits="userSpaceOnUse">
<stop stop-color="white" stop-opacity="0"/>
<stop offset="1" stop-color="white" stop-opacity="0.5"/>
</linearGradient>
<linearGradient id="paint8_linear_420_2364" x1="144.065" y1="110.722" x2="263.447" y2="121.285" gradientUnits="userSpaceOnUse">
<stop stop-color="#D6EEFF"/>
<stop offset="1" stop-color="#95CCFF"/>
</linearGradient>
<linearGradient id="paint9_linear_420_2364" x1="203.534" y1="112.406" x2="203.534" y2="184.443" gradientUnits="userSpaceOnUse">
<stop stop-color="white" stop-opacity="0"/>
<stop offset="1" stop-color="white" stop-opacity="0.4"/>
</linearGradient>
<linearGradient id="paint10_linear_420_2364" x1="31.1284" y1="15.0676" x2="70.0521" y2="38.1791" gradientUnits="userSpaceOnUse">
<stop stop-color="#BEE8FF"/>
<stop offset="1" stop-color="#85CBFF"/>
</linearGradient>
<linearGradient id="paint11_linear_420_2364" x1="39.099" y1="0" x2="87.2771" y2="62.8869" gradientUnits="userSpaceOnUse">
<stop stop-color="white" stop-opacity="0"/>
<stop offset="1" stop-color="white" stop-opacity="0.5"/>
</linearGradient>
<linearGradient id="paint12_linear_420_2364" x1="144.065" y1="86.3785" x2="263.447" y2="96.9408" gradientUnits="userSpaceOnUse">
<stop stop-color="#D6EEFF"/>
<stop offset="1" stop-color="#95CCFF" stop-opacity="0.8"/>
</linearGradient>
<linearGradient id="paint13_linear_420_2364" x1="203.534" y1="88.0622" x2="203.534" y2="160.099" gradientUnits="userSpaceOnUse">
<stop stop-color="white" stop-opacity="0"/>
<stop offset="1" stop-color="white" stop-opacity="0.3"/>
</linearGradient>
<linearGradient id="paint14_linear_420_2364" x1="32.2343" y1="9.49647" x2="73.0754" y2="32.982" gradientUnits="userSpaceOnUse">
<stop stop-color="#BEE8FF"/>
<stop offset="1" stop-color="#85CBFF"/>
</linearGradient>
<linearGradient id="paint15_linear_420_2364" x1="39.099" y1="0" x2="87.2771" y2="62.8869" gradientUnits="userSpaceOnUse">
<stop stop-color="white" stop-opacity="0"/>
<stop offset="1" stop-color="white" stop-opacity="0.3"/>
</linearGradient>
<linearGradient id="paint16_linear_420_2364" x1="144.065" y1="62.034" x2="263.447" y2="72.5963" gradientUnits="userSpaceOnUse">
<stop stop-color="#D6EEFF"/>
<stop offset="1" stop-color="#95CCFF" stop-opacity="0.7"/>
</linearGradient>
<linearGradient id="paint17_linear_420_2364" x1="203.534" y1="63.7178" x2="203.534" y2="135.754" gradientUnits="userSpaceOnUse">
<stop stop-color="white" stop-opacity="0"/>
<stop offset="1" stop-color="white" stop-opacity="0.3"/>
</linearGradient>
<linearGradient id="paint18_linear_420_2364" x1="15.3946" y1="-15.3946" x2="80.7568" y2="-3.82597" gradientUnits="userSpaceOnUse">
<stop stop-color="#CAECFF"/>
<stop offset="1" stop-color="#85CBFF"/>
</linearGradient>
<linearGradient id="paint19_linear_420_2364" x1="39.099" y1="0" x2="87.2771" y2="62.8869" gradientUnits="userSpaceOnUse">
<stop stop-color="white" stop-opacity="0"/>
<stop offset="1" stop-color="white" stop-opacity="0.3"/>
</linearGradient>
<linearGradient id="paint20_linear_420_2364" x1="324.586" y1="130.277" x2="313.73" y2="53.7109" gradientUnits="userSpaceOnUse">
<stop stop-color="#B7C8DF"/>
<stop offset="1" stop-color="#DEE8F6"/>
</linearGradient>
<linearGradient id="paint21_linear_420_2364" x1="289.807" y1="88.914" x2="376.013" y2="83.782" gradientUnits="userSpaceOnUse">
<stop stop-color="#DCE5F3"/>
<stop offset="1" stop-color="#CBDBF1"/>
</linearGradient>
<linearGradient id="paint22_linear_420_2364" x1="336.039" y1="49.4803" x2="368.421" y2="114.411" gradientUnits="userSpaceOnUse">
<stop stop-color="#E8F0FA"/>
<stop offset="0.375" stop-color="#E9F2FF"/>
</linearGradient>
<linearGradient id="paint23_linear_420_2364" x1="287.982" y1="131.554" x2="288.218" y2="131.952" gradientUnits="userSpaceOnUse">
<stop stop-color="#B7C8DF"/>
<stop offset="1" stop-color="#DEE8F6"/>
</linearGradient>
<linearGradient id="paint24_linear_420_2364" x1="26.1626" y1="1.02654" x2="25.9987" y2="-1.63277" gradientUnits="userSpaceOnUse">
<stop stop-color="#B7C8DF"/>
<stop offset="1" stop-color="#DEE8F6"/>
</linearGradient>
<linearGradient id="paint25_linear_420_2364" x1="578.085" y1="335.345" x2="578.085" y2="458.735" gradientUnits="userSpaceOnUse">
<stop stop-color="#E7F3FF"/>
<stop offset="1" stop-color="#EFF7FF" stop-opacity="0"/>
</linearGradient>
<clipPath id="clip0_420_2364">
<rect width="410.667" height="285.365" fill="white" transform="translate(0.0280762)"/>
</clipPath>
</defs>
</svg>
