<svg width="613" height="350" viewBox="0 0 613 350" fill="none" xmlns="http://www.w3.org/2000/svg">
<g clip-path="url(#clip0_420_1764)">
<g clip-path="url(#clip1_420_1764)">
<rect width="999.427" height="165.275" rx="15.5553" transform="matrix(0.996195 -0.0871557 0.34202 0.939693 -55.2773 97.2178)" fill="#E4EDFB"/>
<path fill-rule="evenodd" clip-rule="evenodd" d="M146.343 90.3331C135.645 91.269 129.95 100.208 133.623 110.299L141.507 131.96C145.914 144.069 139.08 154.796 126.243 155.919L-23.7072 169.038C-36.5446 170.161 -43.3785 180.888 -38.971 192.998L-24.7129 232.172C-20.3054 244.281 -6.32579 253.187 6.5116 252.064L1016.57 163.695C1029.41 162.572 1036.25 151.845 1031.84 139.735L1017.58 100.561C1013.17 88.4521 999.193 79.5461 986.355 80.6692L559.822 117.986C546.985 119.109 533.005 110.203 528.597 98.0939L520.714 76.4332C517.041 66.3421 505.391 58.9204 494.693 59.8564L146.343 90.3331Z" fill="white" fill-opacity="0.6"/>
<g clip-path="url(#clip2_420_1764)">
<path fill-rule="evenodd" clip-rule="evenodd" d="M167.618 103.365C168.161 103.286 168.76 103.376 169.328 103.623L176.241 106.619C176.91 106.909 177.448 107.454 177.673 108.07L183.583 124.309C183.939 125.287 183.416 126.162 182.396 126.296L165.082 128.57C164.452 128.653 163.741 128.434 163.181 127.984L157.519 123.439C157.03 123.046 156.662 122.549 156.47 122.022L151 106.992C150.765 106.347 151.104 105.767 151.773 105.67L167.618 103.365ZM167.57 105.868C167.889 105.821 168.363 105.903 168.799 106.082L171.586 107.223C172.211 107.479 172.404 107.863 171.94 107.927L160.555 109.474C160.141 109.53 159.493 109.373 159.011 109.1L157.287 108.123C156.753 107.82 156.679 107.482 157.132 107.415L167.57 105.868ZM171.358 122.838C171.043 122.811 170.757 122.563 170.708 122.272L169.394 114.478C169.341 114.164 169.583 113.924 169.924 113.953L170.631 114.013C170.947 114.04 171.232 114.289 171.281 114.58L172.595 122.374C172.648 122.688 172.406 122.928 172.066 122.899L171.358 122.838ZM166.14 115.075C165.824 114.863 165.428 114.922 165.296 115.201L164.267 117.381L163.421 119.18C163.312 119.412 163.427 119.717 163.689 119.894L165.879 121.369L168.188 122.921C168.504 123.133 168.9 123.074 169.032 122.795L169.333 122.156C169.443 121.924 169.328 121.618 169.065 121.441L166.205 119.519C165.942 119.342 165.827 119.036 165.937 118.803L167.13 116.275C167.24 116.043 167.125 115.737 166.862 115.56L166.14 115.075ZM173.801 113.931L176.225 115.56L178.3 116.958C178.563 117.135 178.677 117.44 178.568 117.672L177.704 119.509L176.693 121.651C176.562 121.93 176.165 121.989 175.85 121.777L175.127 121.291C174.864 121.115 174.75 120.808 174.859 120.576L176.053 118.048C176.162 117.816 176.048 117.51 175.785 117.333L172.924 115.41C172.661 115.234 172.547 114.928 172.656 114.695L172.958 114.057C173.089 113.778 173.486 113.719 173.801 113.931Z" fill="url(#paint0_linear_420_1764)"/>
</g>
<path d="M197.03 104.885L203.074 104.356C205.747 104.122 208.024 104.647 209.938 105.95C211.718 107.152 213.063 109.002 213.965 111.48C214.859 113.935 214.879 115.902 214.049 117.377C213.165 118.903 211.398 119.781 208.725 120.015L202.728 120.54L197.03 104.885ZM200.306 106.702L204.52 118.279L207.518 118.017C209.61 117.834 210.992 117.215 211.625 116.187C212.235 115.161 212.196 113.671 211.478 111.697C210.744 109.68 209.729 108.276 208.464 107.436C207.145 106.579 205.443 106.253 203.351 106.436L200.306 106.702ZM220.978 106.93C222.931 106.759 224.665 107.241 226.151 108.423C227.496 109.482 228.558 111.018 229.316 113.033L220.204 113.83C220.696 114.918 221.309 115.747 222.083 116.29C222.848 116.811 223.727 117.051 224.703 116.966C225.563 116.89 226.189 116.632 226.588 116.212C226.894 115.869 227.059 115.334 227.145 114.648L229.609 114.432C229.713 115.509 229.506 116.455 228.925 117.23C228.19 118.176 227.025 118.731 225.421 118.871C223.654 119.026 222.045 118.623 220.647 117.682C219.132 116.684 218.04 115.264 217.361 113.4C216.747 111.712 216.747 110.264 217.402 109.03C218.001 107.778 219.212 107.084 220.978 106.93ZM221.742 108.831C220.813 108.912 220.18 109.217 219.814 109.792C219.486 110.341 219.4 111.095 219.612 112.072L226.097 111.504C225.147 109.551 223.695 108.66 221.742 108.831ZM228.81 106.561L231.483 106.327L237.577 114.504L237.527 105.799L240.2 105.565L239.863 117.291L237.399 117.506L228.81 106.561ZM241.339 101.008L248.917 100.345C250.544 100.203 251.927 100.444 253.128 101.108C254.267 101.732 255.051 102.636 255.49 103.842C255.81 104.719 255.848 105.485 255.607 106.14C255.35 106.751 254.882 107.244 254.149 107.602C255.313 107.704 256.301 108.047 257.091 108.634C257.88 109.221 258.47 110.052 258.853 111.105C259.428 112.683 259.262 113.874 258.394 114.719C257.641 115.419 256.381 115.846 254.615 116L247.037 116.663L241.339 101.008ZM244.591 102.76L246.291 107.43L250.661 107.048C251.823 106.946 252.588 106.675 252.964 106.258C253.332 105.819 253.364 105.182 253.06 104.349C252.773 103.56 252.31 103.012 251.671 102.706C251.024 102.378 250.123 102.276 249.008 102.373L244.591 102.76ZM247.001 109.381L248.853 114.468L253.548 114.057C254.617 113.964 255.39 113.715 255.883 113.355C256.475 112.874 256.631 112.181 256.304 111.282C255.968 110.362 255.419 109.708 254.686 109.342C253.953 108.977 252.975 108.859 251.766 108.964L247.001 109.381ZM265.026 103.076C266.839 102.917 268.51 103.359 270.018 104.404C271.494 105.429 272.571 106.805 273.201 108.537C273.824 110.247 273.808 111.719 273.138 112.909C272.437 114.147 271.188 114.867 269.375 115.026C267.562 115.184 265.882 114.72 264.351 113.678C262.883 112.675 261.83 111.297 261.207 109.586C260.577 107.854 260.593 106.382 261.278 105.169C261.956 103.933 263.213 103.235 265.026 103.076ZM265.72 104.984C264.581 105.083 263.849 105.577 263.533 106.487C263.238 107.259 263.326 108.225 263.741 109.365C264.156 110.505 264.747 111.403 265.568 112.078C266.499 112.856 267.542 113.218 268.681 113.118C269.82 113.018 270.543 112.503 270.891 111.612C271.177 110.818 271.121 109.873 270.714 108.755C270.299 107.615 269.677 106.696 268.856 106.021C267.894 105.223 266.859 104.884 265.72 104.984ZM273.699 102.634L276.581 102.382L280.54 105.746L281.858 101.92L284.74 101.668L282.511 107.338L289.377 112.959L286.495 113.211L281.785 109.166L280.196 113.762L277.29 114.016L279.791 107.576L273.699 102.634Z" fill="#111824"/>
<path fill-rule="evenodd" clip-rule="evenodd" d="M494.686 87.2397L498.529 81.2075L495.852 79.5019L492.009 85.534L484.149 80.5264L482.84 82.5807L490.7 87.5884L486.858 93.6201L489.535 95.3257L493.378 89.2941L501.239 94.3023L502.548 92.2479L494.686 87.2397Z" fill="black"/>
<rect x="1.91543" y="1.22026" width="788.191" height="63.6072" rx="31.8036" transform="matrix(0.996195 -0.0871557 0.34202 0.939693 275.968 153.946)" fill="#EDF2FA" stroke="#6AB8F0" stroke-width="2.86266"/>
<path d="M358.21 175.263L361.092 175.011L365.051 178.375L366.369 174.549L369.251 174.297L367.022 179.967L373.888 185.588L371.006 185.84L366.296 181.795L364.707 186.391L361.801 186.645L364.302 180.205L358.21 175.263ZM371.504 174.1L374.387 173.848L378.345 177.212L379.663 173.386L382.545 173.134L380.316 178.804L387.182 184.425L384.3 184.677L379.59 180.632L378.001 185.228L375.096 185.482L377.596 179.042L371.504 174.1ZM384.799 172.937L387.681 172.685L391.639 176.049L392.957 172.223L395.84 171.971L393.61 177.641L400.477 183.262L397.594 183.514L392.884 179.469L391.295 184.065L388.39 184.319L390.891 177.879L384.799 172.937ZM403.588 179.754C404.053 179.714 404.527 179.831 404.987 180.107C405.425 180.386 405.754 180.764 405.93 181.246C406.089 181.685 406.047 182.096 405.841 182.453C405.596 182.769 405.234 182.959 404.769 182.999C404.258 183.044 403.807 182.925 403.401 182.667C402.932 182.368 402.626 181.988 402.466 181.549C402.291 181.067 402.31 180.658 402.547 180.321C402.737 179.987 403.076 179.799 403.588 179.754ZM410.513 170.37C413.627 170.098 415.778 171.131 416.927 173.497L414.533 173.706C414.124 173.109 413.693 172.717 413.21 172.51C412.696 172.283 411.997 172.209 411.16 172.282C410.417 172.347 409.891 172.484 409.599 172.735C409.237 172.993 409.155 173.362 409.315 173.801C409.459 174.196 409.904 174.496 410.658 174.724C411.14 174.863 412.011 175.013 413.323 175.192C414.806 175.379 415.965 175.663 416.759 176C417.92 176.487 418.695 177.234 419.062 178.242C419.932 180.632 418.581 181.995 415.025 182.306C411.724 182.595 409.471 181.412 408.234 178.805L410.651 178.593C411.07 179.349 411.572 179.87 412.102 180.141C412.624 180.389 413.331 180.486 414.261 180.404C416.167 180.238 416.951 179.626 416.584 178.617C416.385 178.069 415.853 177.663 415.044 177.417C414.608 177.274 413.715 177.126 412.387 176.971C410.858 176.788 409.739 176.547 409.053 176.245C407.924 175.778 407.18 175.051 406.828 174.086C406.453 173.056 406.6 172.206 407.299 171.557C407.99 170.885 409.072 170.497 410.513 170.37ZM424.162 169.176C426.114 169.006 427.848 169.487 429.334 170.669C430.679 171.728 431.741 173.264 432.499 175.279L423.387 176.077C423.879 177.165 424.493 177.993 425.266 178.537C426.031 179.058 426.91 179.298 427.886 179.212C428.746 179.137 429.372 178.879 429.771 178.459C430.077 178.116 430.243 177.581 430.329 176.895L432.792 176.679C432.897 177.756 432.689 178.702 432.108 179.476C431.373 180.423 430.208 180.977 428.604 181.118C426.837 181.272 425.228 180.87 423.83 179.929C422.315 178.93 421.223 177.51 420.544 175.647C419.93 173.958 419.931 172.51 420.585 171.277C421.185 170.025 422.395 169.331 424.162 169.176ZM424.926 171.078C423.996 171.159 423.363 171.463 422.997 172.038C422.669 172.587 422.584 173.341 422.795 174.318L429.28 173.751C428.33 171.798 426.878 170.907 424.926 171.078ZM438.576 167.915C440.342 167.761 441.796 168.063 442.936 168.823C443.92 169.484 444.675 170.504 445.177 171.885L447.811 179.121L445.533 179.32L444.95 177.719C444.693 178.33 444.279 178.841 443.702 179.231C443.039 179.651 442.181 179.93 441.112 180.023C439.857 180.133 438.769 179.912 437.856 179.381C436.873 178.856 436.222 178.121 435.879 177.178C435.416 175.906 435.592 174.873 436.414 174.1C437.15 173.357 438.425 172.906 440.176 172.707L442.848 172.406L442.681 171.945C442.106 170.367 440.912 169.656 439.099 169.815C438.332 169.882 437.753 170.069 437.383 170.372C436.937 170.728 436.756 171.219 436.848 171.867L434.336 171.883C434.145 170.633 434.46 169.655 435.275 168.996C435.967 168.392 437.088 168.045 438.576 167.915ZM443.463 174.094L440.953 174.381C438.714 174.622 437.87 175.466 438.381 176.869C438.54 177.307 438.854 177.642 439.353 177.892C439.829 178.145 440.396 178.254 441.023 178.199C442.069 178.107 442.841 177.723 443.369 177.066C443.898 176.409 444.021 175.629 443.702 174.752L443.463 174.094ZM446.069 162.803L448.533 162.587L454.342 178.549L451.879 178.765L446.069 162.803ZM459.674 166.069C461.487 165.911 463.159 166.353 464.666 167.397C466.142 168.422 467.219 169.798 467.849 171.53C468.472 173.241 468.456 174.713 467.786 175.902C467.085 177.14 465.836 177.86 464.023 178.019C462.21 178.178 460.53 177.714 458.999 176.671C457.531 175.668 456.478 174.29 455.855 172.58C455.225 170.848 455.241 169.376 455.926 168.162C456.604 166.926 457.861 166.228 459.674 166.069ZM460.368 167.977C459.229 168.077 458.497 168.57 458.181 169.48C457.887 170.253 457.974 171.218 458.389 172.358C458.804 173.498 459.395 174.397 460.216 175.072C461.147 175.85 462.19 176.211 463.329 176.111C464.468 176.012 465.191 175.496 465.539 174.606C465.825 173.812 465.769 172.866 465.362 171.748C464.947 170.608 464.325 169.69 463.504 169.015C462.542 168.217 461.507 167.877 460.368 167.977ZM473.466 164.863C476.58 164.59 478.731 165.624 479.88 167.989L477.486 168.199C477.077 167.601 476.646 167.209 476.163 167.002C475.649 166.776 474.95 166.701 474.113 166.774C473.37 166.839 472.844 166.976 472.551 167.228C472.19 167.486 472.108 167.855 472.268 168.293C472.411 168.688 472.857 168.988 473.611 169.216C474.093 169.355 474.963 169.505 476.276 169.685C477.759 169.872 478.917 170.155 479.712 170.493C480.872 170.979 481.648 171.726 482.015 172.735C482.885 175.124 481.534 176.487 477.978 176.798C474.677 177.087 472.424 175.904 471.187 173.297L473.604 173.086C474.023 173.841 474.525 174.363 475.055 174.633C475.577 174.881 476.284 174.978 477.214 174.897C479.12 174.73 479.904 174.118 479.537 173.11C479.338 172.562 478.806 172.156 477.997 171.91C477.561 171.767 476.668 171.619 475.34 171.463C473.811 171.28 472.691 171.039 472.006 170.737C470.877 170.27 470.132 169.543 469.781 168.579C469.406 167.548 469.553 166.698 470.252 166.049C470.943 165.378 472.024 164.989 473.466 164.863ZM486.887 172.467C487.352 172.426 487.826 172.543 488.286 172.819C488.724 173.098 489.053 173.476 489.229 173.959C489.388 174.397 489.346 174.808 489.14 175.165C488.895 175.481 488.533 175.671 488.068 175.712C487.557 175.756 487.106 175.638 486.7 175.379C486.231 175.081 485.925 174.7 485.765 174.262C485.59 173.779 485.609 173.37 485.846 173.033C486.036 172.699 486.376 172.511 486.887 172.467ZM489.529 159.091C490.017 159.048 490.483 159.143 490.92 159.422C491.349 159.678 491.648 160.037 491.815 160.497C491.983 160.958 491.933 161.347 491.719 161.682C491.497 161.996 491.135 162.186 490.67 162.226C490.182 162.269 489.731 162.15 489.302 161.894C488.864 161.615 488.558 161.235 488.399 160.796C488.231 160.336 488.258 159.949 488.48 159.635C488.693 159.3 489.041 159.134 489.529 159.091ZM489.949 163.737L492.413 163.522L496.538 174.858L494.075 175.073L489.949 163.737ZM502.137 162.354C503.95 162.196 505.622 162.638 507.129 163.682C508.605 164.707 509.682 166.083 510.312 167.815C510.935 169.526 510.919 170.998 510.249 172.187C509.548 173.425 508.299 174.145 506.486 174.304C504.673 174.463 502.993 173.999 501.462 172.956C499.994 171.953 498.941 170.575 498.318 168.865C497.688 167.133 497.704 165.661 498.389 164.447C499.067 163.211 500.324 162.513 502.137 162.354ZM502.831 164.262C501.692 164.362 500.96 164.855 500.644 165.765C500.349 166.538 500.437 167.503 500.852 168.643C501.267 169.783 501.858 170.682 502.679 171.357C503.61 172.135 504.653 172.496 505.792 172.396C506.931 172.297 507.654 171.781 508.002 170.891C508.288 170.097 508.232 169.151 507.825 168.033C507.41 166.893 506.788 165.975 505.967 165.3C505.005 164.502 503.97 164.162 502.831 164.262Z" fill="#111824"/>
<path d="M40.9377 204.838L22.6202 206.44L28.1453 197.768L25.2793 195.953L17.3723 208.364L33.5474 218.669L34.941 216.482L23.6537 209.28L41.9712 207.677L40.9377 204.838Z" fill="#ABABAB"/>
<path d="M84.4355 201.032L102.753 199.429L91.4507 192.229L92.8593 190.04L109.034 200.344L101.127 212.756L98.2765 210.94L103.787 202.269L85.469 203.871L84.4355 201.032Z" fill="#ABABAB"/>
<circle cx="23.0946" cy="23.0946" r="23.0946" transform="matrix(0.996195 -0.0871557 0.34202 0.939693 290.211 162.329)" fill="#F9FBFF"/>
<g clip-path="url(#clip3_420_1764)">
<path fill-rule="evenodd" clip-rule="evenodd" d="M312.55 178.893C313.95 178.771 314.695 177.601 314.215 176.281C313.734 174.96 312.21 173.989 310.81 174.111C309.41 174.234 308.665 175.404 309.145 176.724C309.626 178.045 311.15 179.016 312.55 178.893ZM313.405 181.241C316.179 180.998 317.656 178.68 316.704 176.063C315.751 173.446 312.73 171.521 309.955 171.764C307.181 172.006 305.704 174.325 306.656 176.942C307.609 179.559 310.63 181.484 313.405 181.241Z" fill="#1D1D1E"/>
<path d="M318.509 175.322L329.022 174.402L329.876 176.75L319.363 177.67L318.509 175.322Z" fill="#1D1D1E"/>
<path fill-rule="evenodd" clip-rule="evenodd" d="M329.943 185.493C328.543 185.616 327.798 186.785 328.279 188.106C328.759 189.426 330.284 190.398 331.684 190.275C333.084 190.153 333.829 188.983 333.348 187.662C332.868 186.342 331.343 185.371 329.943 185.493ZM329.089 183.145C326.314 183.388 324.837 185.707 325.79 188.324C326.742 190.941 329.764 192.866 332.538 192.623C335.313 192.38 336.79 190.062 335.837 187.445C334.885 184.828 331.863 182.903 329.089 183.145Z" fill="#1D1D1E"/>
<path d="M323.985 189.064L313.472 189.984L312.617 187.636L323.13 186.717L323.985 189.064Z" fill="#1D1D1E"/>
</g>
<g clip-path="url(#clip4_420_1764)">
<path d="M231.605 203.566L225.414 186.556L234.341 176.998L249.459 184.452L255.65 201.463L246.633 202.252L243.022 192.329L237.011 192.855L240.622 202.778L231.605 203.566ZM233.579 200.468L236.585 200.205L232.973 190.282L244.996 189.231L248.607 199.154L251.613 198.891L246.969 186.133L235.631 180.542L228.936 187.71L233.579 200.468Z" fill="#474747"/>
</g>
<path d="M172.075 206.53C168.719 206.824 165.477 205.974 162.348 203.981C159.219 201.988 157.078 199.408 155.926 196.243C154.774 193.077 154.963 190.294 156.492 187.893C158.022 185.492 160.464 184.145 163.82 183.851C165.548 183.7 167.324 183.892 169.147 184.428C170.97 184.963 172.673 185.807 174.255 186.96L173.352 184.48C173.206 184.078 173.228 183.729 173.417 183.431C173.606 183.135 173.913 182.968 174.339 182.931C174.765 182.894 175.171 182.998 175.557 183.244C175.945 183.491 176.212 183.815 176.358 184.217L178.937 191.304C179.084 191.706 179.062 192.055 178.872 192.351C178.683 192.649 178.376 192.816 177.951 192.853L170.437 193.51C170.011 193.548 169.605 193.443 169.219 193.196C168.831 192.95 168.565 192.626 168.419 192.224C168.272 191.823 168.294 191.473 168.483 191.176C168.672 190.88 168.98 190.713 169.405 190.675L174.214 190.255C172.931 189.002 171.457 188.058 169.793 187.424C168.127 186.79 166.48 186.544 164.852 186.686C162.348 186.905 160.52 187.918 159.369 189.725C158.217 191.532 158.072 193.617 158.932 195.98C159.791 198.342 161.399 200.273 163.754 201.774C166.109 203.274 168.539 203.915 171.043 203.696C172.771 203.544 174.211 202.973 175.363 201.982C176.514 200.992 177.19 199.745 177.392 198.24C177.422 197.97 177.55 197.733 177.774 197.531C177.997 197.328 178.259 197.214 178.559 197.188C179.135 197.137 179.636 197.288 180.062 197.641C180.487 197.994 180.673 198.416 180.62 198.909C180.399 201 179.521 202.74 177.985 204.13C176.449 205.52 174.479 206.32 172.075 206.53Z" fill="#474747"/>
<path d="M568.297 81.4984L560.315 82.1967L563.055 89.7264L560.395 89.9591L557.654 82.4295L549.672 83.1279L548.758 80.618L556.741 79.9196L554 72.39L556.661 72.1572L559.401 79.6869L567.384 78.9885L568.297 81.4984Z" fill="#474747"/>
</g>
<g filter="url(#filter0_dd_420_1764)">
<path d="M86.4738 263.515C84.7096 258.668 87.445 254.374 92.5834 253.924L556.537 213.334C561.675 212.884 567.271 216.449 569.035 221.296L584.368 263.422C586.132 268.269 583.397 272.562 578.258 273.012L114.304 313.602C109.166 314.052 103.57 310.487 101.806 305.64L86.4738 263.515Z" stroke="white" stroke-opacity="0.7" stroke-width="1.24526" shape-rendering="crispEdges"/>
<path fill-rule="evenodd" clip-rule="evenodd" d="M471.374 220.154L444.7 199.78L434.046 223.42L89.8797 253.53C85.769 253.89 83.5807 257.325 84.992 261.203L102.088 308.172C103.499 312.05 107.975 314.902 112.086 314.542L581.387 273.484C585.497 273.124 587.686 269.689 586.274 265.811L569.179 218.842C567.767 214.964 563.291 212.112 559.18 212.472L471.374 220.154Z" fill="white" fill-opacity="0.6"/>
<path d="M110.175 275.198L113.22 274.932L120.617 281.683L122.796 274.094L125.841 273.828L122.687 283.81L124.961 290.058L122.451 290.278L120.176 284.029L110.175 275.198ZM135.304 277.14C137.117 276.982 138.789 277.423 140.296 278.468C141.772 279.493 142.849 280.869 143.479 282.601C144.102 284.311 144.086 285.783 143.416 286.973C142.715 288.211 141.466 288.931 139.653 289.09C137.84 289.248 136.16 288.784 134.629 287.742C133.161 286.739 132.108 285.361 131.485 283.651C130.855 281.918 130.871 280.446 131.556 279.233C132.234 277.997 133.491 277.299 135.304 277.14ZM135.998 279.048C134.859 279.147 134.127 279.641 133.811 280.551C133.516 281.324 133.604 282.289 134.019 283.429C134.434 284.569 135.025 285.468 135.846 286.142C136.777 286.921 137.82 287.282 138.959 287.182C140.098 287.083 140.821 286.567 141.169 285.677C141.455 284.882 141.399 283.937 140.992 282.819C140.577 281.679 139.955 280.76 139.134 280.086C138.172 279.287 137.137 278.948 135.998 279.048ZM144.721 276.633L147.185 276.417L149.699 283.324C150.05 284.289 150.514 284.972 151.116 285.372C151.694 285.774 152.479 285.954 153.432 285.871C154.083 285.814 154.568 285.5 154.95 284.969C155.325 284.416 155.472 283.701 155.378 282.85L152.856 275.921L155.32 275.706L159.446 287.041L156.982 287.257L156.424 285.722C155.848 287.039 154.816 287.763 153.305 287.895C150.4 288.149 148.4 286.741 147.291 283.693L144.721 276.633ZM173.048 273.838C174.582 273.704 175.934 273.925 177.103 274.501C178.288 275.122 179.276 276.121 180.019 277.504L177.578 277.718C177.136 276.964 176.603 276.423 175.964 276.117C175.317 275.789 174.579 275.672 173.743 275.745C172.72 275.835 172.057 276.255 171.739 277.029C171.39 277.784 171.479 278.817 171.941 280.088C172.404 281.36 173.05 282.344 173.895 283.017C174.685 283.672 175.611 283.976 176.68 283.882C178.516 283.721 179.22 282.755 178.83 281.024L181.27 280.811C181.542 282.348 181.33 283.543 180.671 284.37C180.005 285.175 178.885 285.657 177.351 285.792C175.515 285.952 173.889 285.506 172.452 284.456C171.053 283.447 170.054 282.086 169.416 280.332C168.793 278.622 168.771 277.176 169.348 275.994C169.963 274.719 171.189 274.001 173.048 273.838ZM187.048 272.613C188.814 272.459 190.268 272.761 191.408 273.521C192.392 274.182 193.147 275.202 193.649 276.583L196.283 283.818L194.005 284.018L193.422 282.417C193.165 283.028 192.751 283.539 192.174 283.929C191.511 284.349 190.653 284.628 189.584 284.721C188.329 284.831 187.241 284.61 186.328 284.079C185.346 283.554 184.694 282.819 184.351 281.876C183.888 280.604 184.064 279.571 184.886 278.798C185.623 278.054 186.897 277.604 188.648 277.405L191.32 277.103L191.153 276.643C190.578 275.064 189.384 274.354 187.571 274.513C186.804 274.58 186.225 274.767 185.856 275.07C185.409 275.426 185.228 275.917 185.32 276.565L182.808 276.581C182.617 275.331 182.932 274.353 183.748 273.694C184.439 273.09 185.56 272.743 187.048 272.613ZM191.935 278.792L189.425 279.079C187.187 279.32 186.342 280.163 186.853 281.567C187.013 282.005 187.326 282.34 187.825 282.59C188.301 282.843 188.868 282.951 189.496 282.897C190.542 282.805 191.313 282.421 191.841 281.764C192.37 281.107 192.494 280.327 192.174 279.45L191.935 278.792ZM201.924 271.312C204.899 271.051 206.969 272.454 208.102 275.567L210.648 282.562L208.184 282.777L205.71 275.98C205.008 274.051 203.704 273.169 201.844 273.332C201.147 273.393 200.599 273.667 200.263 274.194C199.897 274.769 199.812 275.524 200.054 276.453L202.536 283.271L200.072 283.487L195.946 272.151L198.41 271.936L198.921 273.339C199.178 272.728 199.561 272.265 200.062 271.927C200.554 271.567 201.18 271.377 201.924 271.312ZM350.938 254.813L352.271 258.475L355.014 258.235L355.716 260.164L352.973 260.404L355.368 266.982C355.479 267.289 355.629 267.502 355.824 267.643C356.011 267.763 356.253 267.832 356.555 267.806L358.135 267.667L358.838 269.597L356.862 269.77C355.839 269.859 354.976 269.663 354.328 269.2C353.687 268.758 353.231 268.096 352.904 267.197L350.51 260.62L348.278 260.815L347.576 258.885L349.807 258.69L348.826 255.993L350.938 254.813ZM356.283 253.35L358.746 253.135L361.013 259.361C361.215 258.665 361.589 258.112 362.152 257.746C362.644 257.386 363.271 257.196 364.038 257.129C365.479 257.002 366.715 257.302 367.754 258.048C368.731 258.754 369.494 259.864 370.037 261.355L372.599 268.393L370.135 268.608L367.717 261.965C367.35 260.956 366.846 260.231 366.236 259.742C365.571 259.234 364.755 259.034 363.825 259.115C362.989 259.189 362.426 259.555 362.146 260.235C361.843 260.918 361.883 261.751 362.242 262.738L364.556 269.096L362.092 269.312L356.283 253.35ZM377.215 255.976C379.168 255.805 380.902 256.287 382.388 257.469C383.733 258.528 384.795 260.064 385.553 262.079L376.441 262.876C376.933 263.964 377.546 264.793 378.32 265.336C379.085 265.857 379.964 266.097 380.94 266.012C381.8 265.936 382.426 265.678 382.825 265.258C383.131 264.915 383.296 264.38 383.382 263.694L385.846 263.478C385.95 264.555 385.743 265.501 385.162 266.276C384.427 267.222 383.262 267.777 381.658 267.917C379.891 268.072 378.282 267.669 376.884 266.728C375.369 265.73 374.277 264.309 373.598 262.446C372.984 260.758 372.984 259.31 373.639 258.076C374.238 256.824 375.449 256.13 377.215 255.976ZM377.979 257.877C377.05 257.958 376.417 258.263 376.051 258.838C375.723 259.387 375.637 260.141 375.849 261.118L382.334 260.55C381.384 258.597 379.932 257.706 377.979 257.877ZM401.997 249.351L404.461 249.135L410.271 265.097L407.97 265.298L407.475 263.939C407.037 265.108 405.99 265.788 404.362 265.931C402.596 266.085 400.986 265.615 399.555 264.519C398.227 263.504 397.243 262.119 396.613 260.387C396.006 258.721 395.945 257.301 396.476 256.123C397.021 254.854 398.177 254.142 399.897 253.991C401.361 253.863 402.833 254.413 404.296 255.665L401.997 249.351ZM401.141 255.828C399.932 255.934 399.162 256.386 398.868 257.226C398.596 257.929 398.691 258.916 399.146 260.165C399.601 261.415 400.185 262.36 400.928 263.018C401.781 263.781 402.839 264.118 404.048 264.012C405.117 263.919 405.779 263.431 406.096 262.589C406.344 261.821 406.265 260.877 405.85 259.737L405.778 259.54C405.331 258.312 404.647 257.354 403.771 256.661C402.911 256.013 402.048 255.749 401.141 255.828ZM415.315 252.642C417.128 252.484 418.8 252.926 420.308 253.97C421.784 254.995 422.861 256.371 423.491 258.103C424.113 259.814 424.098 261.286 423.427 262.475C422.727 263.713 421.478 264.433 419.665 264.592C417.852 264.75 416.172 264.287 414.641 263.244C413.173 262.241 412.119 260.863 411.497 259.153C410.867 257.421 410.882 255.949 411.568 254.735C412.245 253.499 413.502 252.801 415.315 252.642ZM416.01 254.55C414.871 254.65 414.139 255.143 413.823 256.053C413.528 256.826 413.616 257.791 414.031 258.931C414.446 260.071 415.036 260.97 415.858 261.644C416.788 262.423 417.831 262.784 418.97 262.684C420.109 262.585 420.833 262.069 421.181 261.179C421.467 260.384 421.411 259.439 421.004 258.321C420.589 257.181 419.967 256.262 419.146 255.588C418.183 254.79 417.149 254.45 416.01 254.55ZM430.386 251.324C432.152 251.169 433.662 251.693 434.869 252.9C435.148 252.152 435.545 251.596 436.046 251.258C436.5 250.925 437.126 250.734 437.94 250.663C439.172 250.555 440.33 250.838 441.431 251.557C442.501 252.255 443.286 253.227 443.749 254.498L446.454 261.931L443.991 262.147L441.429 255.109C441.094 254.188 440.637 253.526 440.067 253.146C439.489 252.745 438.72 252.608 437.79 252.69C437.093 252.751 436.623 253.041 436.333 253.564C436.044 254.087 436.059 254.787 436.362 255.62L438.9 262.592L436.436 262.808L433.882 255.792C433.228 253.994 432.072 253.19 430.445 253.332C429.655 253.401 429.108 253.743 428.85 254.354C428.538 254.947 428.553 255.647 428.841 256.436L431.322 263.255L428.859 263.471L424.733 252.135L427.197 251.92L427.652 253.169C428.245 252.031 429.177 251.43 430.386 251.324ZM451.389 249.486C453.156 249.332 454.609 249.634 455.749 250.394C456.733 251.055 457.488 252.075 457.991 253.456L460.625 260.692L458.347 260.891L457.764 259.29C457.507 259.901 457.093 260.412 456.515 260.802C455.853 261.222 454.995 261.501 453.926 261.594C452.671 261.704 451.583 261.483 450.67 260.952C449.687 260.427 449.036 259.692 448.693 258.749C448.23 257.477 448.405 256.444 449.227 255.671C449.964 254.928 451.239 254.477 452.99 254.278L455.662 253.977L455.494 253.516C454.92 251.937 453.726 251.227 451.913 251.386C451.146 251.453 450.566 251.64 450.197 251.943C449.751 252.299 449.57 252.79 449.662 253.438L447.149 253.454C446.958 252.204 447.274 251.226 448.089 250.567C448.781 249.963 449.902 249.616 451.389 249.486ZM456.277 255.665L453.767 255.952C451.528 256.193 450.684 257.037 451.195 258.44C451.354 258.878 451.668 259.213 452.167 259.463C452.642 259.716 453.21 259.825 453.837 259.77C454.883 259.678 455.655 259.294 456.183 258.637C456.711 257.98 456.835 257.2 456.516 256.323L456.277 255.665ZM460.379 244.333C460.867 244.291 461.333 244.386 461.77 244.664C462.2 244.921 462.498 245.279 462.666 245.74C462.833 246.2 462.783 246.589 462.569 246.924C462.348 247.238 461.985 247.428 461.52 247.469C461.032 247.511 460.581 247.393 460.152 247.136C459.715 246.857 459.408 246.477 459.249 246.039C459.081 245.578 459.108 245.191 459.33 244.878C459.544 244.542 459.891 244.376 460.379 244.333ZM460.799 248.98L463.263 248.764L467.389 260.1L464.925 260.315L460.799 248.98ZM473.545 247.548C476.52 247.288 478.589 248.69 479.723 251.804L482.268 258.798L479.805 259.014L477.331 252.217C476.628 250.287 475.324 249.406 473.465 249.568C472.767 249.629 472.22 249.904 471.884 250.431C471.517 251.006 471.432 251.76 471.674 252.689L474.156 259.508L471.692 259.723L467.566 248.388L470.03 248.172L470.541 249.575C470.798 248.965 471.181 248.501 471.682 248.163C472.175 247.804 472.801 247.613 473.545 247.548ZM496.615 245.53C499.59 245.269 501.66 246.672 502.793 249.785L505.338 256.78L502.875 256.995L500.401 250.198C499.698 248.269 498.394 247.387 496.535 247.55C495.837 247.611 495.29 247.885 494.954 248.412C494.588 248.987 494.502 249.741 494.744 250.67L497.226 257.489L494.762 257.705L490.637 246.369L493.1 246.154L493.611 247.557C493.869 246.946 494.252 246.483 494.752 246.145C495.245 245.785 495.871 245.595 496.615 245.53ZM510.302 244.332C512.068 244.178 513.522 244.48 514.662 245.24C515.646 245.901 516.401 246.921 516.903 248.302L519.537 255.537L517.259 255.737L516.676 254.136C516.419 254.747 516.006 255.258 515.428 255.648C514.765 256.068 513.907 256.347 512.838 256.44C511.583 256.55 510.495 256.329 509.582 255.798C508.6 255.273 507.948 254.538 507.605 253.595C507.142 252.323 507.318 251.29 508.14 250.517C508.877 249.773 510.152 249.322 511.902 249.124L514.574 248.822L514.407 248.362C513.832 246.783 512.639 246.073 510.825 246.232C510.058 246.299 509.479 246.485 509.11 246.789C508.663 247.145 508.482 247.636 508.574 248.284L506.062 248.3C505.871 247.05 506.186 246.072 507.002 245.413C507.693 244.809 508.814 244.462 510.302 244.332ZM515.189 250.511L512.679 250.798C510.441 251.039 509.596 251.882 510.107 253.286C510.267 253.724 510.58 254.059 511.079 254.309C511.555 254.562 512.122 254.67 512.75 254.615C513.796 254.524 514.567 254.14 515.095 253.483C515.624 252.826 515.748 252.046 515.428 251.168L515.189 250.511ZM524.853 243.059C526.619 242.904 528.129 243.428 529.336 244.635C529.615 243.887 530.013 243.332 530.513 242.994C530.967 242.66 531.594 242.469 532.407 242.398C533.639 242.29 534.797 242.574 535.898 243.292C536.968 243.99 537.753 244.962 538.216 246.234L540.922 253.667L538.458 253.882L535.896 246.844C535.561 245.923 535.104 245.262 534.534 244.882C533.956 244.48 533.187 244.343 532.257 244.425C531.56 244.486 531.09 244.776 530.801 245.299C530.511 245.822 530.526 246.522 530.829 247.355L533.367 254.327L530.903 254.543L528.35 247.527C527.695 245.729 526.539 244.925 524.912 245.067C524.122 245.137 523.575 245.478 523.317 246.089C523.006 246.682 523.02 247.382 523.308 248.171L525.79 254.99L523.326 255.206L519.2 243.87L521.664 243.655L522.119 244.905C522.712 243.767 523.644 243.165 524.853 243.059ZM545.531 241.25C547.484 241.079 549.218 241.561 550.704 242.743C552.048 243.802 553.111 245.338 553.869 247.353L544.757 248.15C545.249 249.238 545.862 250.067 546.636 250.61C547.401 251.131 548.28 251.371 549.256 251.286C550.116 251.211 550.741 250.952 551.14 250.533C551.447 250.189 551.612 249.654 551.698 248.968L554.162 248.753C554.266 249.829 554.059 250.775 553.477 251.55C552.743 252.497 551.577 253.051 549.973 253.191C548.207 253.346 546.598 252.944 545.2 252.003C543.685 251.004 542.592 249.584 541.914 247.72C541.3 246.032 541.3 244.584 541.954 243.35C542.554 242.099 543.765 241.404 545.531 241.25ZM546.295 243.151C545.365 243.233 544.733 243.537 544.366 244.112C544.039 244.661 543.953 245.415 544.165 246.392L550.65 245.825C549.699 243.872 548.248 242.981 546.295 243.151ZM559.392 248.815C559.857 248.775 560.332 248.892 560.792 249.168C561.229 249.446 561.559 249.825 561.734 250.307C561.894 250.746 561.852 251.157 561.646 251.514C561.401 251.83 561.038 252.02 560.573 252.06C560.062 252.105 559.611 251.986 559.205 251.728C558.737 251.429 558.43 251.049 558.271 250.61C558.095 250.128 558.114 249.719 558.351 249.381C558.542 249.048 558.881 248.86 559.392 248.815Z" fill="#111824"/>
<path d="M224.25 269.358C225.785 269.224 227.136 269.445 228.305 270.022C229.491 270.642 230.478 271.641 231.221 273.024L228.78 273.238C228.338 272.485 227.806 271.943 227.166 271.637C226.519 271.309 225.782 271.193 224.945 271.266C223.922 271.355 223.259 271.775 222.942 272.55C222.593 273.304 222.681 274.337 223.144 275.609C223.607 276.881 224.253 277.865 225.097 278.537C225.887 279.192 226.813 279.496 227.882 279.402C229.718 279.242 230.422 278.275 230.032 276.545L232.473 276.331C232.744 277.868 232.532 279.063 231.873 279.89C231.207 280.695 230.087 281.178 228.553 281.312C226.717 281.473 225.092 281.027 223.654 279.976C222.255 278.967 221.256 277.607 220.618 275.852C219.996 274.142 219.973 272.696 220.55 271.515C221.165 270.239 222.391 269.521 224.25 269.358ZM232.946 268.914L235.41 268.699L237.924 275.605C238.275 276.57 238.739 277.253 239.341 277.653C239.919 278.055 240.704 278.235 241.657 278.152C242.307 278.095 242.793 277.781 243.175 277.25C243.549 276.697 243.697 275.983 243.603 275.131L241.081 268.203L243.545 267.987L247.671 279.323L245.207 279.538L244.649 278.003C244.073 279.321 243.041 280.044 241.53 280.177C238.625 280.431 236.625 279.022 235.516 275.974L232.946 268.914ZM251.704 266.956C254.819 266.684 256.97 267.717 258.119 270.083L255.724 270.292C255.315 269.695 254.884 269.303 254.402 269.096C253.887 268.869 253.189 268.795 252.352 268.868C251.608 268.933 251.082 269.07 250.79 269.321C250.428 269.579 250.347 269.948 250.506 270.387C250.65 270.782 251.095 271.082 251.85 271.31C252.332 271.449 253.202 271.599 254.514 271.778C255.998 271.965 257.156 272.249 257.95 272.586C259.111 273.073 259.886 273.82 260.253 274.828C261.123 277.218 259.772 278.581 256.216 278.892C252.915 279.181 250.662 277.998 249.425 275.391L251.843 275.179C252.262 275.935 252.763 276.456 253.293 276.727C253.816 276.975 254.522 277.072 255.452 276.99C257.358 276.824 258.143 276.212 257.776 275.203C257.576 274.655 257.045 274.249 256.236 274.003C255.8 273.86 254.907 273.712 253.579 273.557C252.049 273.374 250.93 273.133 250.244 272.831C249.115 272.364 248.371 271.637 248.02 270.672C247.645 269.642 247.791 268.792 248.49 268.143C249.181 267.471 250.263 267.083 251.704 266.956ZM262.691 262.534L264.024 266.195L266.766 265.955L267.469 267.885L264.726 268.125L267.12 274.703C267.232 275.01 267.381 275.223 267.577 275.364C267.764 275.483 268.005 275.553 268.307 275.526L269.888 275.388L270.59 277.317L268.614 277.49C267.592 277.58 266.729 277.384 266.08 276.92C265.44 276.478 264.983 275.817 264.656 274.918L262.262 268.34L260.031 268.536L259.328 266.606L261.56 266.411L260.578 263.714L262.691 262.534ZM275.139 264.906C276.952 264.748 278.624 265.189 280.132 266.234C281.608 267.259 282.684 268.635 283.315 270.367C283.937 272.077 283.921 273.549 283.251 274.739C282.55 275.977 281.302 276.697 279.488 276.856C277.675 277.014 275.996 276.55 274.465 275.508C272.997 274.505 271.943 273.127 271.321 271.417C270.69 269.684 270.706 268.212 271.392 266.999C272.069 265.763 273.326 265.065 275.139 264.906ZM275.834 266.814C274.695 266.913 273.963 267.407 273.647 268.317C273.352 269.09 273.439 270.055 273.854 271.195C274.269 272.335 274.86 273.234 275.682 273.908C276.612 274.687 277.655 275.048 278.794 274.948C279.933 274.848 280.657 274.333 281.004 273.443C281.291 272.648 281.235 271.703 280.828 270.585C280.413 269.445 279.791 268.526 278.969 267.852C278.007 267.053 276.972 266.714 275.834 266.814ZM290.209 263.588C291.976 263.433 293.486 263.957 294.693 265.164C294.972 264.415 295.369 263.86 295.87 263.522C296.324 263.188 296.95 262.998 297.764 262.927C298.996 262.819 300.154 263.102 301.255 263.82C302.325 264.519 303.11 265.491 303.573 266.762L306.278 274.195L303.814 274.411L301.253 267.373C300.918 266.452 300.461 265.79 299.891 265.41C299.313 265.008 298.544 264.872 297.614 264.953C296.917 265.014 296.447 265.304 296.157 265.827C295.868 266.35 295.883 267.05 296.186 267.884L298.724 274.856L296.26 275.072L293.706 268.055C293.052 266.257 291.896 265.454 290.269 265.596C289.479 265.665 288.931 266.007 288.674 266.618C288.362 267.211 288.377 267.911 288.664 268.7L291.146 275.519L288.682 275.735L284.557 264.399L287.021 264.183L287.475 265.433C288.069 264.295 289.001 263.693 290.209 263.588ZM306.001 257.84C306.489 257.797 306.955 257.892 307.392 258.17C307.821 258.427 308.12 258.785 308.287 259.246C308.455 259.706 308.405 260.095 308.191 260.431C307.969 260.744 307.607 260.934 307.142 260.975C306.654 261.018 306.203 260.899 305.773 260.642C305.336 260.364 305.03 259.983 304.87 259.545C304.703 259.084 304.73 258.697 304.951 258.384C305.165 258.049 305.512 257.882 306.001 257.84ZM306.421 262.486L308.884 262.271L313.01 273.606L310.546 273.822L306.421 262.486ZM312.607 261.945L322.509 261.079L323.06 262.591L319.037 271.111L326.312 270.474L327.007 272.382L316.5 273.301L315.918 271.7L319.879 263.277L313.301 263.852L312.607 261.945ZM330.803 260.036C332.755 259.865 334.49 260.347 335.975 261.529C337.32 262.588 338.383 264.124 339.14 266.139L330.028 266.936C330.52 268.025 331.134 268.853 331.907 269.396C332.673 269.918 333.551 270.158 334.528 270.072C335.388 269.997 336.013 269.739 336.412 269.319C336.719 268.975 336.884 268.441 336.97 267.754L339.434 267.539C339.538 268.616 339.33 269.561 338.749 270.336C338.014 271.283 336.849 271.837 335.245 271.978C333.479 272.132 331.869 271.73 330.471 270.789C328.957 269.79 327.864 268.37 327.186 266.506C326.571 264.818 326.572 263.37 327.226 262.136C327.826 260.885 329.036 260.191 330.803 260.036ZM331.567 261.938C330.637 262.019 330.004 262.323 329.638 262.898C329.31 263.447 329.225 264.201 329.437 265.178L335.922 264.611C334.971 262.658 333.519 261.767 331.567 261.938Z" fill="#0884DD"/>
</g>
<g filter="url(#filter1_f_420_1764)">
<rect x="0.574219" y="373" width="373" height="112.725" transform="rotate(-90 0.574219 373)" fill="url(#paint1_linear_420_1764)"/>
</g>
<g filter="url(#filter2_f_420_1764)">
<rect width="350" height="84.8983" transform="matrix(-1.19249e-08 -1 -1 1.19249e-08 612.574 350)" fill="url(#paint2_linear_420_1764)"/>
</g>
</g>
<defs>
<filter id="filter0_dd_420_1764" x="77.4653" y="194.799" width="515.911" height="125.237" filterUnits="userSpaceOnUse" color-interpolation-filters="sRGB">
<feFlood flood-opacity="0" result="BackgroundImageFix"/>
<feColorMatrix in="SourceAlpha" type="matrix" values="0 0 0 0 0 0 0 0 0 0 0 0 0 0 0 0 0 0 127 0" result="hardAlpha"/>
<feOffset/>
<feGaussianBlur stdDeviation="0.622628"/>
<feComposite in2="hardAlpha" operator="out"/>
<feColorMatrix type="matrix" values="0 0 0 0 0.473958 0 0 0 0 0.552499 0 0 0 0 0.625 0 0 0 0.25 0"/>
<feBlend mode="normal" in2="BackgroundImageFix" result="effect1_dropShadow_420_1764"/>
<feColorMatrix in="SourceAlpha" type="matrix" values="0 0 0 0 0 0 0 0 0 0 0 0 0 0 0 0 0 0 127 0" result="hardAlpha"/>
<feOffset/>
<feGaussianBlur stdDeviation="2.49051"/>
<feComposite in2="hardAlpha" operator="out"/>
<feColorMatrix type="matrix" values="0 0 0 0 0.632917 0 0 0 0 0.655278 0 0 0 0 0.7 0 0 0 0.25 0"/>
<feBlend mode="normal" in2="effect1_dropShadow_420_1764" result="effect2_dropShadow_420_1764"/>
<feBlend mode="normal" in="SourceGraphic" in2="effect2_dropShadow_420_1764" result="shape"/>
</filter>
<filter id="filter1_f_420_1764" x="-3.42578" y="-4" width="120.725" height="381" filterUnits="userSpaceOnUse" color-interpolation-filters="sRGB">
<feFlood flood-opacity="0" result="BackgroundImageFix"/>
<feBlend mode="normal" in="SourceGraphic" in2="BackgroundImageFix" result="shape"/>
<feGaussianBlur stdDeviation="2" result="effect1_foregroundBlur_420_1764"/>
</filter>
<filter id="filter2_f_420_1764" x="523.676" y="-4" width="92.8984" height="358" filterUnits="userSpaceOnUse" color-interpolation-filters="sRGB">
<feFlood flood-opacity="0" result="BackgroundImageFix"/>
<feBlend mode="normal" in="SourceGraphic" in2="BackgroundImageFix" result="shape"/>
<feGaussianBlur stdDeviation="2" result="effect1_foregroundBlur_420_1764"/>
</filter>
<linearGradient id="paint0_linear_420_1764" x1="162.326" y1="102.609" x2="156.011" y2="127.703" gradientUnits="userSpaceOnUse">
<stop stop-color="#213654"/>
<stop offset="1" stop-color="#0F1D32"/>
</linearGradient>
<linearGradient id="paint1_linear_420_1764" x1="210.39" y1="373" x2="211.356" y2="479.202" gradientUnits="userSpaceOnUse">
<stop stop-color="#EBF2FF"/>
<stop offset="1" stop-color="#EFF7FF" stop-opacity="0"/>
</linearGradient>
<linearGradient id="paint2_linear_420_1764" x1="196.878" y1="2.29115e-06" x2="197.462" y2="79.988" gradientUnits="userSpaceOnUse">
<stop stop-color="#EBF2FF"/>
<stop offset="1" stop-color="#EFF7FF" stop-opacity="0"/>
</linearGradient>
<clipPath id="clip0_420_1764">
<rect x="0.574219" width="612" height="350" rx="8" fill="white"/>
</clipPath>
<clipPath id="clip1_420_1764">
<rect width="999.427" height="165.275" rx="15.5553" transform="matrix(0.996195 -0.0871557 0.34202 0.939693 -55.2773 97.2178)" fill="white"/>
</clipPath>
<clipPath id="clip2_420_1764">
<rect width="31.1106" height="31.1106" fill="white" transform="matrix(0.996195 -0.0871557 0.34202 0.939693 146.557 102.615)"/>
</clipPath>
<clipPath id="clip3_420_1764">
<rect width="29.9796" height="29.9796" fill="white" transform="matrix(0.996195 -0.0871557 0.34202 0.939693 301.188 169.416)"/>
</clipPath>
<clipPath id="clip4_420_1764">
<rect width="36.2049" height="36.2049" fill="white" transform="matrix(0.996195 -0.0871557 0.34202 0.939693 214.76 174.324)"/>
</clipPath>
</defs>
</svg>
