<svg xmlns="http://www.w3.org/2000/svg" width="181" height="115" viewBox="0 0 181 115" fill="none">
  <path fill-rule="evenodd" clip-rule="evenodd" d="M19.0641 78.2138C15.613 76.2212 13.8874 75.225 12.7331 74.2337C9.9593 71.8517 8.77673 69.0494 9.1854 66.3091V54.2057L16.1725 58.2011C16.9764 57.7253 17.9265 57.1767 19.0642 56.5199L60.2785 32.7248C74.49 24.5198 81.5958 20.4172 90.4258 20.4172C99.2557 20.4172 106.362 24.5198 120.573 32.7248L150.428 49.9613C156.559 53.5011 161.367 56.2774 164.853 58.6995L171.754 52.8239V68.0396L171.705 68.0197C171.12 72.8254 164.028 76.9203 150.427 84.7724L120.573 102.009C106.362 110.214 99.2557 114.316 90.4258 114.316C81.5958 114.316 74.49 110.214 60.2784 102.009L19.0641 78.2138Z" fill="url(#paint0_linear_31_3171)" fill-opacity="0.5"/>
  <path d="M19.064 63.7758C15.6129 61.7833 13.8873 60.7871 12.733 59.7958C7.89775 55.6434 7.89775 50.2144 12.733 46.0621C13.8873 45.0708 15.6129 44.0745 19.064 42.082L60.2783 18.2869C74.4899 10.0818 81.5957 5.97931 90.4257 5.9793C99.2556 5.97931 106.361 10.0818 120.573 18.2869L150.427 35.5233C164.639 43.7284 171.745 47.8309 171.745 52.9289C171.745 58.0269 164.639 62.1294 150.427 70.3345L120.573 87.5709C106.361 95.776 99.2556 99.8785 90.4257 99.8785C81.5957 99.8785 74.4899 95.776 60.2783 87.5709L19.064 63.7758Z" fill="url(#paint1_linear_31_3171)"/>
  <defs>
    <linearGradient id="paint0_linear_31_3171" x1="90.4301" y1="20.4172" x2="90.4301" y2="114.316" gradientUnits="userSpaceOnUse">
      <stop stop-color="#C4E3FD" stop-opacity="0.65"/>
      <stop offset="1" stop-color="#A6E2ED"/>
    </linearGradient>
    <linearGradient id="paint1_linear_31_3171" x1="45.3511" y1="26.9051" x2="90.4257" y2="104.976" gradientUnits="userSpaceOnUse">
      <stop stop-color="#C4E3FD"/>
      <stop offset="1" stop-color="#A6E2ED"/>
    </linearGradient>
  </defs>
</svg>