<svg xmlns="http://www.w3.org/2000/svg" width="136" height="110" viewBox="0 0 136 110" fill="none">
  <path fill-rule="evenodd" clip-rule="evenodd" d="M17.4953 50.3529C12.4694 46.9731 10.6295 43.293 11.0674 39.837L11.0675 30.7006L14.7832 29.5843L14.7739 33.3195C22.2238 26.2968 39.3342 22.6197 53.4294 29.6063C62.9751 34.3378 77.0741 34.3378 86.6193 29.606C101.357 22.3002 119.392 26.6563 126.227 34.3038L126.418 32.5091L129.032 30.8151L129.008 40.2128C129.268 43.5568 127.384 47.0908 122.542 50.3462C114.347 55.8571 114.347 63.9972 122.542 69.5083C124.061 70.5298 125.289 71.5786 126.251 72.6404L126.467 70.6039L129.055 68.5987V79.5301L129.015 79.5513C128.3 90.4178 104.911 99.3277 86.6076 90.2549C77.062 85.5234 62.963 85.5235 53.4178 90.2553C34.2895 99.7377 9.60581 89.574 11.0674 78.0669L11.0675 67.6641L14.7832 66.27L14.7725 71.6502C15.5484 70.9287 16.4531 70.2155 17.4947 69.5151C25.6904 64.0042 25.6905 55.8641 17.4953 50.3529Z" fill="url(#paint0_linear_31_3177)" fill-opacity="0.7"/>
  <path d="M17.4952 40.3297C-3.01643 26.5359 29.5379 7.74065 53.4294 19.5831C62.975 24.3146 77.0741 24.3145 86.6193 19.5827C110.504 7.7425 143.05 26.5331 122.542 40.3229C114.347 45.8338 114.347 53.9739 122.542 59.4851C143.053 73.2788 110.499 92.0741 86.6076 80.2317C77.062 75.5002 62.9629 75.5002 53.4177 80.232C29.5331 92.0722 -3.01316 73.2816 17.4947 59.4918C25.6904 53.9809 25.6905 45.8408 17.4952 40.3297Z" fill="url(#paint1_linear_31_3177)"/>
  <defs>
    <linearGradient id="paint0_linear_31_3177" x1="69.9953" y1="28.1877" x2="69.9953" y2="99.0311" gradientUnits="userSpaceOnUse">
      <stop stop-color="#E2ECFF"/>
      <stop offset="0.473671" stop-color="#D0D0FF"/>
      <stop offset="1" stop-color="#B5D3FF"/>
    </linearGradient>
    <linearGradient id="paint1_linear_31_3177" x1="22.2807" y1="22.3806" x2="75.5175" y2="114.589" gradientUnits="userSpaceOnUse">
      <stop stop-color="#D9D9FF"/>
      <stop offset="1" stop-color="#B5D3FF"/>
    </linearGradient>
  </defs>
</svg>