<svg xmlns="http://www.w3.org/2000/svg" width="24" height="25" viewBox="0 0 24 25" fill="none">
  <path fill-rule="evenodd" clip-rule="evenodd" d="M4.10802 12.2507C4.10802 7.89327 7.64041 4.36088 11.9978 4.36088C14.1783 4.36088 16.4074 5.30289 17.9269 6.99777C19.4236 8.66703 20.2757 11.1149 19.6423 14.2531C19.5278 14.8207 19.895 15.3737 20.4626 15.4883C21.0303 15.6028 21.5833 15.2356 21.6978 14.668C22.4577 10.9032 21.442 7.777 19.4883 5.59793C17.5575 3.44449 14.7538 2.26392 11.9978 2.26392C6.48229 2.26392 2.01106 6.73515 2.01106 12.2507C2.01106 14.5931 3.03936 17.7111 5.22099 19.6893L4.51016 19.6875C3.9311 19.6861 3.4605 20.1543 3.45904 20.7334C3.45759 21.3124 3.92582 21.783 4.50488 21.7845L8.2094 21.7938C8.61257 21.7948 8.96316 21.5682 9.13944 21.2349C9.23965 21.0745 9.29769 20.885 9.298 20.6819L9.30377 16.9348C9.30466 16.3557 8.83596 15.8856 8.2569 15.8847C7.67784 15.8838 7.2077 16.3525 7.20681 16.9316L7.20425 18.5933C5.19068 17.1962 4.10802 14.3718 4.10802 12.2507ZM20.1812 18.0726C20.1812 18.8458 19.5544 19.4726 18.7812 19.4726C18.008 19.4726 17.3812 18.8458 17.3812 18.0726C17.3812 17.2994 18.008 16.6726 18.7812 16.6726C19.5544 16.6726 20.1812 17.2994 20.1812 18.0726ZM15.2349 21.9599C16.0081 21.9599 16.6349 21.3331 16.6349 20.5599C16.6349 19.7867 16.0081 19.1599 15.2349 19.1599C14.4617 19.1599 13.8349 19.7867 13.8349 20.5599C13.8349 21.3331 14.4617 21.9599 15.2349 21.9599Z" fill="#0099BB"/>
</svg>