<svg xmlns="http://www.w3.org/2000/svg" width="24" height="24" viewBox="0 0 24 24" fill="none">
  <path fill-rule="evenodd" clip-rule="evenodd" d="M21.1198 2.87999C20.5802 2.33933 19.6272 2.20577 18.907 2.10641L18.6345 2.07221C17.5061 1.95091 16.3664 1.98254 15.2464 2.16624C12.4544 2.61928 9.12289 4.10554 6.54357 7.83882C6.25342 7.8669 5.95718 7.85651 5.65981 7.84609L5.63536 7.84523L5.40029 7.83775C5.00923 7.82707 4.6203 7.83348 4.24633 7.94033C3.54113 8.14334 3.07634 8.8667 2.74297 9.54198L2.58591 9.87321L2.39679 10.3006L2.27925 10.5934C1.99076 11.3499 1.78882 12.2591 2.38717 12.8564C2.62061 13.0904 2.92148 13.2677 3.25236 13.4134C3.61967 13.5751 4.02398 13.6979 4.41408 13.8159L4.71005 13.9067C4.82891 13.9427 4.94696 13.9813 5.0641 14.0225L5.0745 14.0262C5.13814 14.0486 5.20151 14.0719 5.2646 14.0959L5.33298 14.1236L5.2475 14.2059C5.23379 14.2196 5.22024 14.2336 5.20684 14.2478L5.19987 14.2552C4.85654 14.6224 4.61353 15.1446 4.44186 15.5789C4.39572 15.6948 4.35098 15.8143 4.30772 15.9361C4.16666 16.333 4.0412 16.7538 3.93327 17.1496L3.83283 17.5342L3.70034 18.0792L3.53579 18.825L3.4439 19.2855C3.42666 19.3786 3.42182 19.4732 3.42921 19.5669C3.43549 19.6464 3.45059 19.7253 3.47443 19.8021C3.52636 19.9692 3.61817 20.1213 3.74195 20.245C3.86572 20.3688 4.01775 20.4606 4.18492 20.5126C4.26584 20.5377 4.34913 20.5531 4.43305 20.5587C4.52251 20.5647 4.6127 20.5595 4.70151 20.5431L5.04663 20.4758L5.59903 20.3582L6.06062 20.2514L6.57028 20.1242L6.83634 20.0537C7.28912 19.9305 7.77381 19.7844 8.21895 19.619C8.28324 19.5952 8.34671 19.5709 8.40914 19.5462C8.46233 19.525 8.51685 19.5027 8.57227 19.4794C8.98888 19.3036 9.45572 19.0648 9.78108 18.7395C9.85737 18.6631 9.92977 18.5828 9.99798 18.4991C10.06 18.6594 10.1176 18.8186 10.1711 18.9746C10.1942 19.0477 10.2162 19.1211 10.2372 19.1948L10.2375 19.1959C10.2944 19.3958 10.3435 19.5978 10.3848 19.8016L10.435 20.0227C10.4878 20.2527 10.5453 20.4832 10.6198 20.7029C10.7367 21.0475 10.8954 21.3653 11.1434 21.6126C11.8197 22.2901 12.8989 21.9417 13.6981 21.602L14.1255 21.4139L14.4568 21.2568C15.1331 20.9235 15.8565 20.4587 16.0595 19.7535C16.1898 19.2995 16.1727 18.8334 16.1556 18.3666L16.145 18.0631C16.1407 17.8601 16.1418 17.6571 16.1621 17.4562C19.8943 14.8769 21.3805 11.5454 21.8336 8.75344C22.0633 7.33877 22.028 6.06514 21.8934 5.09282L21.8336 4.68038C21.7321 4.03929 21.5622 3.32127 21.1198 2.87999ZM19.8013 4.98937C19.7581 4.71961 19.7138 4.52551 19.6648 4.38583C19.66 4.37205 19.6554 4.35974 19.6512 4.34884C19.6193 4.33644 19.5747 4.32094 19.5149 4.30381C19.284 4.23765 19.0117 4.19602 18.6384 4.14444L18.3975 4.1142C17.4587 4.01486 16.5107 4.04194 15.5791 4.19475L15.5756 4.19532C13.2543 4.57199 10.452 5.79808 8.2348 9.00728L7.69202 9.7929L6.74158 9.88488C6.31181 9.92647 5.8923 9.91139 5.61637 9.90147L5.56669 9.8997L5.3398 9.89248C5.12707 9.88678 4.99857 9.89126 4.9185 9.89894C4.83218 10.0028 4.72342 10.1756 4.59291 10.4384L4.45481 10.7296L4.29107 11.0997L4.19412 11.3412C4.16552 11.4169 4.14151 11.4861 4.12178 11.5491C7.263 12.0384 9.2252 13.2628 10.4536 14.6851L10.455 14.6833L10.4831 14.7194C10.7396 15.02 10.9636 15.3291 11.1593 15.6418C12.1725 17.2602 12.3957 18.9401 12.5098 19.7986L12.5174 19.8562C12.6289 19.8185 12.75 19.7711 12.8827 19.7149L13.271 19.5441L13.561 19.4066C13.8257 19.2754 13.9992 19.1661 14.1028 19.0796C14.1131 18.9762 14.1145 18.8003 14.1014 18.4418L14.1013 18.4389L14.0901 18.1209L14.0898 18.1064C14.0849 17.8746 14.0841 17.5742 14.1169 17.2495L14.2123 16.3049L14.9934 15.7652C18.2016 13.5479 19.4278 10.7454 19.8045 8.42395C19.998 7.23265 19.9665 6.16842 19.8581 5.38087L19.8013 4.98937ZM8.22458 17.2693C8.24012 17.2563 8.25535 17.2431 8.27024 17.2297C8.45328 17.0468 8.56371 16.8036 8.581 16.5454C8.59829 16.2872 8.52128 16.0315 8.36427 15.8257L8.27665 15.7253L8.25101 15.7007L8.15057 15.6152C7.9824 15.4908 7.78143 15.4184 7.57252 15.407C7.36361 15.3956 7.15594 15.4457 6.97524 15.5511L6.85771 15.6302L6.75834 15.7189L6.62478 15.8877C6.46925 16.1126 6.35123 16.3858 6.2559 16.6738L6.25301 16.6825C6.17939 16.9063 6.11935 17.1387 6.06596 17.3644L5.95056 17.8644L5.89607 18.092L6.10015 18.0428L6.54678 17.9403C6.8407 17.8716 7.14987 17.7933 7.43858 17.6891L7.45213 17.6842C7.74341 17.5781 8.0132 17.4454 8.22458 17.2693ZM14.2163 12C15.4389 12 16.43 11.0089 16.43 9.7863C16.43 8.5637 15.4389 7.57259 14.2163 7.57259C12.9937 7.57259 12.0026 8.5637 12.0026 9.7863C12.0026 11.0089 12.9937 12 14.2163 12Z" fill="#0099BB"/>
</svg>