<svg xmlns="http://www.w3.org/2000/svg" fill="none" viewBox="0 0 24 25">
  <path
    fill="#fff"
    d="M1.69 10.83c-.05.35-.08.7-.1 1.05H17.4a1.9 1.9 0 0 0-.2-.3C14.5 8.1 13.04 8.4 10.96 8.3c-.7-.02-1.16-.04-3.92-.04l-4.65.01c-.2.55-.4 1.08-.5 1.5H10v1.06H1.69Zm15.84 2.1H1.6c.02.29.04.57.08.84h14.7c.66 0 1.03-.37 1.15-.83ZM2.5 16.66s2.43 5.99 9.48 6.1c4.21 0 7.83-2.5 9.47-6.1H2.51Z"
  />
  <path
    fill="#fff"
    d="M11.99 1.93c-3.9 0-7.28 2.13-9.07 5.3l4.12-.01c3.22 0 3.34.01 3.97.04l.39.01c1.35.05 3.02.2 4.33 1.19.71.53 1.74 1.72 2.35 2.57.57.78.73 1.68.35 2.54a2.16 2.16 0 0 1-2.04 1.27H1.93l.21.77h19.74a10.42 10.42 0 0 0-9.89-13.68Z"
  />
</svg>
