<svg width="24" height="24" viewBox="0 0 24 24" fill="none" xmlns="http://www.w3.org/2000/svg">
<g clip-path="url(#clip0_102_883)">
<path d="M16.9724 3.43175C14.5785 3.32358 12.5654 4.98545 12.222 7.17504C12.2084 7.27665 12.1879 7.37499 12.171 7.47332C11.6371 10.2005 9.15138 12.2655 6.1658 12.2655C5.10146 12.2655 4.10174 12.0033 3.23123 11.5444C3.12582 11.4887 3 11.5608 3 11.6755V12.2623V21.1026H12.1676V14.4748C12.1676 13.2554 13.1945 12.2655 14.4595 12.2655H16.7513C19.3459 12.2655 21.4338 10.1907 21.3317 7.66672C21.2399 5.39518 19.3289 3.53992 16.9724 3.43175Z" fill="#D9D9D9"/>
</g>
<defs>
<clipPath id="clip0_102_883">
<rect width="18.75" height="18" fill="white" transform="translate(3 3.01025)"/>
</clipPath>
</defs>
</svg>
