<svg xmlns="http://www.w3.org/2000/svg" xmlns:xlink="http://www.w3.org/1999/xlink" viewBox="0 0 500 500" width="500" height="500" preserveAspectRatio="xMidYMid meet" style="width: 100%; height: 100%; transform: translate3d(0px, 0px, 0px); content-visibility: visible;"><defs><clipPath id="__lottie_element_94"><rect width="500" height="500" x="0" y="0"></rect></clipPath><clipPath id="__lottie_element_96"><path d="M0,0 L500,0 L500,500 L0,500z"></path></clipPath><g id="__lottie_element_99"><g style="display: none;"><g><path></path></g></g></g><g id="__lottie_element_109"><g style="display: none;"><g><path></path></g></g></g><clipPath id="__lottie_element_112"><path d="M0,0 L1920,0 L1920,1080 L0,1080z"></path></clipPath><mask id="__lottie_element_99_1" mask-type="alpha"><use xlink:href="#__lottie_element_99"></use></mask><g id="__lottie_element_127"><g style="display: none;"><g><path></path></g></g></g><clipPath id="__lottie_element_131"><path d="M0,0 L1920,0 L1920,1080 L0,1080z"></path></clipPath><mask id="__lottie_element_127_1" mask-type="alpha"><use xlink:href="#__lottie_element_127"></use></mask><g id="__lottie_element_146"><g style="display: none;"><g><path></path></g></g></g><clipPath id="__lottie_element_150"><path d="M0,0 L1920,0 L1920,1080 L0,1080z"></path></clipPath><mask id="__lottie_element_146_1" mask-type="alpha"><use xlink:href="#__lottie_element_146"></use></mask><g id="__lottie_element_165"><g style="display: none;"><g><path></path></g></g></g><mask id="__lottie_element_165_1" mask-type="alpha"><use xlink:href="#__lottie_element_165"></use></mask><g id="__lottie_element_171"><g style="display: none;"><g><path></path></g></g></g><mask id="__lottie_element_171_1" mask-type="alpha"><use xlink:href="#__lottie_element_171"></use></mask><g id="__lottie_element_177"><g style="display: none;"><g><path></path></g></g></g><mask id="__lottie_element_177_1" mask-type="alpha"><use xlink:href="#__lottie_element_177"></use></mask><mask id="__lottie_element_109_1" mask-type="alpha"><use xlink:href="#__lottie_element_109"></use></mask><clipPath id="__lottie_element_184"><path d="M0,0 L500,0 L500,500 L0,500z"></path></clipPath><g id="__lottie_element_187"><g transform="matrix(1,0,0,1,250,249.99998474121094)" opacity="1" style="display: block;"><g opacity="1" transform="matrix(1,0,0,1,0,0)"><path fill="rgb(0,0,0)" fill-opacity="1" d=" M-6.815999984741211,-205.02699279785156 C-27.736000061035156,-168.81900024414062 -177.16000366210938,89.8479995727539 -194.197998046875,119.68800354003906 C-196.14500427246094,124.37200164794922 -192.5540008544922,130.27999877929688 -187.44900512695312,130.3719940185547 C-186.08099365234375,130.50399780273438 -175.63400268554688,130.43800354003906 -173.63400268554688,130.4510040283203 C-75.98300170898438,130.49099731445312 85.63800048828125,130.4250030517578 183.55299377441406,130.4510040283203 C185.07899475097656,130.4510040283203 187.34300231933594,130.46400451660156 187.447998046875,130.3719940185547 C188.0659942626953,130.4250030517578 188.55299377441406,130.1739959716797 189.1060028076172,130.1479949951172 C193.3560028076172,128.8719940185547 195.92100524902344,123.87200164794922 194.19700622558594,119.70099639892578 C193.78900146484375,119.10900115966797 193.9600067138672,119.03099822998047 192.85499572753906,117.21499633789062 C143.26600646972656,31.246999740600586 71.40299987792969,-93.10099792480469 21.695999145507812,-179.24000549316406 C18.643999099731445,-184.29200744628906 9.82800006866455,-199.97500610351562 6.815000057220459,-205.01400756835938 C3.8550000190734863,-210.1580047607422 -3.86899995803833,-210.2239990234375 -6.828999996185303,-205.01400756835938 C-6.828999996185303,-205.01400756835938 -6.815999984741211,-205.02699279785156 -6.815999984741211,-205.02699279785156z"></path></g></g></g><g id="__lottie_element_197"><g transform="matrix(1,0,0,1,250,249.99998474121094)" opacity="1" style="display: block;"><g opacity="1" transform="matrix(1,0,0,1,0,0)"><path fill="rgb(0,0,0)" fill-opacity="1" d=" M-6.815999984741211,-205.02699279785156 C-27.736000061035156,-168.81900024414062 -177.16000366210938,89.8479995727539 -194.197998046875,119.68800354003906 C-196.14500427246094,124.37200164794922 -192.5540008544922,130.27999877929688 -187.44900512695312,130.3719940185547 C-186.08099365234375,130.50399780273438 -175.63400268554688,130.43800354003906 -173.63400268554688,130.4510040283203 C-75.98300170898438,130.49099731445312 85.63800048828125,130.4250030517578 183.55299377441406,130.4510040283203 C185.07899475097656,130.4510040283203 187.34300231933594,130.46400451660156 187.447998046875,130.3719940185547 C188.0659942626953,130.4250030517578 188.55299377441406,130.1739959716797 189.1060028076172,130.1479949951172 C193.3560028076172,128.8719940185547 195.92100524902344,123.87200164794922 194.19700622558594,119.70099639892578 C193.78900146484375,119.10900115966797 193.9600067138672,119.03099822998047 192.85499572753906,117.21499633789062 C143.26600646972656,31.246999740600586 71.40299987792969,-93.10099792480469 21.695999145507812,-179.24000549316406 C18.643999099731445,-184.29200744628906 9.82800006866455,-199.97500610351562 6.815000057220459,-205.01400756835938 C3.8550000190734863,-210.1580047607422 -3.86899995803833,-210.2239990234375 -6.828999996185303,-205.01400756835938 C-6.828999996185303,-205.01400756835938 -6.815999984741211,-205.02699279785156 -6.815999984741211,-205.02699279785156z"></path></g></g></g><clipPath id="__lottie_element_200"><path d="M0,0 L1920,0 L1920,1080 L0,1080z"></path></clipPath><mask id="__lottie_element_187_1" mask-type="alpha"><use xlink:href="#__lottie_element_187"></use></mask><g id="__lottie_element_215"><g transform="matrix(1,0,0,1,250,249.99998474121094)" opacity="1" style="display: block;"><g opacity="1" transform="matrix(1,0,0,1,0,0)"><path fill="rgb(0,0,0)" fill-opacity="1" d=" M-6.815999984741211,-205.02699279785156 C-27.736000061035156,-168.81900024414062 -177.16000366210938,89.8479995727539 -194.197998046875,119.68800354003906 C-196.14500427246094,124.37200164794922 -192.5540008544922,130.27999877929688 -187.44900512695312,130.3719940185547 C-186.08099365234375,130.50399780273438 -175.63400268554688,130.43800354003906 -173.63400268554688,130.4510040283203 C-75.98300170898438,130.49099731445312 85.63800048828125,130.4250030517578 183.55299377441406,130.4510040283203 C185.07899475097656,130.4510040283203 187.34300231933594,130.46400451660156 187.447998046875,130.3719940185547 C188.0659942626953,130.4250030517578 188.55299377441406,130.1739959716797 189.1060028076172,130.1479949951172 C193.3560028076172,128.8719940185547 195.92100524902344,123.87200164794922 194.19700622558594,119.70099639892578 C193.78900146484375,119.10900115966797 193.9600067138672,119.03099822998047 192.85499572753906,117.21499633789062 C143.26600646972656,31.246999740600586 71.40299987792969,-93.10099792480469 21.695999145507812,-179.24000549316406 C18.643999099731445,-184.29200744628906 9.82800006866455,-199.97500610351562 6.815000057220459,-205.01400756835938 C3.8550000190734863,-210.1580047607422 -3.86899995803833,-210.2239990234375 -6.828999996185303,-205.01400756835938 C-6.828999996185303,-205.01400756835938 -6.815999984741211,-205.02699279785156 -6.815999984741211,-205.02699279785156z"></path></g></g></g><clipPath id="__lottie_element_219"><path d="M0,0 L1920,0 L1920,1080 L0,1080z"></path></clipPath><mask id="__lottie_element_215_1" mask-type="alpha"><use xlink:href="#__lottie_element_215"></use></mask><g id="__lottie_element_234"><g transform="matrix(1,0,0,1,250,249.99998474121094)" opacity="1" style="display: block;"><g opacity="1" transform="matrix(1,0,0,1,0,0)"><path fill="rgb(0,0,0)" fill-opacity="1" d=" M-6.815999984741211,-205.02699279785156 C-27.736000061035156,-168.81900024414062 -177.16000366210938,89.8479995727539 -194.197998046875,119.68800354003906 C-196.14500427246094,124.37200164794922 -192.5540008544922,130.27999877929688 -187.44900512695312,130.3719940185547 C-186.08099365234375,130.50399780273438 -175.63400268554688,130.43800354003906 -173.63400268554688,130.4510040283203 C-75.98300170898438,130.49099731445312 85.63800048828125,130.4250030517578 183.55299377441406,130.4510040283203 C185.07899475097656,130.4510040283203 187.34300231933594,130.46400451660156 187.447998046875,130.3719940185547 C188.0659942626953,130.4250030517578 188.55299377441406,130.1739959716797 189.1060028076172,130.1479949951172 C193.3560028076172,128.8719940185547 195.92100524902344,123.87200164794922 194.19700622558594,119.70099639892578 C193.78900146484375,119.10900115966797 193.9600067138672,119.03099822998047 192.85499572753906,117.21499633789062 C143.26600646972656,31.246999740600586 71.40299987792969,-93.10099792480469 21.695999145507812,-179.24000549316406 C18.643999099731445,-184.29200744628906 9.82800006866455,-199.97500610351562 6.815000057220459,-205.01400756835938 C3.8550000190734863,-210.1580047607422 -3.86899995803833,-210.2239990234375 -6.828999996185303,-205.01400756835938 C-6.828999996185303,-205.01400756835938 -6.815999984741211,-205.02699279785156 -6.815999984741211,-205.02699279785156z"></path></g></g></g><clipPath id="__lottie_element_238"><path d="M0,0 L1920,0 L1920,1080 L0,1080z"></path></clipPath><mask id="__lottie_element_234_1" mask-type="alpha"><use xlink:href="#__lottie_element_234"></use></mask><g id="__lottie_element_253"><g transform="matrix(1,0,0,1,250,249.99998474121094)" opacity="1" style="display: block;"><g opacity="1" transform="matrix(1,0,0,1,0,0)"><path fill="rgb(0,0,0)" fill-opacity="1" d=" M-6.815999984741211,-205.02699279785156 C-27.736000061035156,-168.81900024414062 -177.16000366210938,89.8479995727539 -194.197998046875,119.68800354003906 C-196.14500427246094,124.37200164794922 -192.5540008544922,130.27999877929688 -187.44900512695312,130.3719940185547 C-186.08099365234375,130.50399780273438 -175.63400268554688,130.43800354003906 -173.63400268554688,130.4510040283203 C-75.98300170898438,130.49099731445312 85.63800048828125,130.4250030517578 183.55299377441406,130.4510040283203 C185.07899475097656,130.4510040283203 187.34300231933594,130.46400451660156 187.447998046875,130.3719940185547 C188.0659942626953,130.4250030517578 188.55299377441406,130.1739959716797 189.1060028076172,130.1479949951172 C193.3560028076172,128.8719940185547 195.92100524902344,123.87200164794922 194.19700622558594,119.70099639892578 C193.78900146484375,119.10900115966797 193.9600067138672,119.03099822998047 192.85499572753906,117.21499633789062 C143.26600646972656,31.246999740600586 71.40299987792969,-93.10099792480469 21.695999145507812,-179.24000549316406 C18.643999099731445,-184.29200744628906 9.82800006866455,-199.97500610351562 6.815000057220459,-205.01400756835938 C3.8550000190734863,-210.1580047607422 -3.86899995803833,-210.2239990234375 -6.828999996185303,-205.01400756835938 C-6.828999996185303,-205.01400756835938 -6.815999984741211,-205.02699279785156 -6.815999984741211,-205.02699279785156z"></path></g></g></g><mask id="__lottie_element_253_1" mask-type="alpha"><use xlink:href="#__lottie_element_253"></use></mask><g id="__lottie_element_259"><g transform="matrix(1,0,0,1,250,249.99998474121094)" opacity="1" style="display: block;"><g opacity="1" transform="matrix(1,0,0,1,0,0)"><path fill="rgb(0,0,0)" fill-opacity="1" d=" M-6.815999984741211,-205.02699279785156 C-27.736000061035156,-168.81900024414062 -177.16000366210938,89.8479995727539 -194.197998046875,119.68800354003906 C-196.14500427246094,124.37200164794922 -192.5540008544922,130.27999877929688 -187.44900512695312,130.3719940185547 C-186.08099365234375,130.50399780273438 -175.63400268554688,130.43800354003906 -173.63400268554688,130.4510040283203 C-75.98300170898438,130.49099731445312 85.63800048828125,130.4250030517578 183.55299377441406,130.4510040283203 C185.07899475097656,130.4510040283203 187.34300231933594,130.46400451660156 187.447998046875,130.3719940185547 C188.0659942626953,130.4250030517578 188.55299377441406,130.1739959716797 189.1060028076172,130.1479949951172 C193.3560028076172,128.8719940185547 195.92100524902344,123.87200164794922 194.19700622558594,119.70099639892578 C193.78900146484375,119.10900115966797 193.9600067138672,119.03099822998047 192.85499572753906,117.21499633789062 C143.26600646972656,31.246999740600586 71.40299987792969,-93.10099792480469 21.695999145507812,-179.24000549316406 C18.643999099731445,-184.29200744628906 9.82800006866455,-199.97500610351562 6.815000057220459,-205.01400756835938 C3.8550000190734863,-210.1580047607422 -3.86899995803833,-210.2239990234375 -6.828999996185303,-205.01400756835938 C-6.828999996185303,-205.01400756835938 -6.815999984741211,-205.02699279785156 -6.815999984741211,-205.02699279785156z"></path></g></g></g><mask id="__lottie_element_259_1" mask-type="alpha"><use xlink:href="#__lottie_element_259"></use></mask><g id="__lottie_element_265"><g transform="matrix(1,0,0,1,250,249.99998474121094)" opacity="1" style="display: block;"><g opacity="1" transform="matrix(1,0,0,1,0,0)"><path fill="rgb(0,0,0)" fill-opacity="1" d=" M-6.815999984741211,-205.02699279785156 C-27.736000061035156,-168.81900024414062 -177.16000366210938,89.8479995727539 -194.197998046875,119.68800354003906 C-196.14500427246094,124.37200164794922 -192.5540008544922,130.27999877929688 -187.44900512695312,130.3719940185547 C-186.08099365234375,130.50399780273438 -175.63400268554688,130.43800354003906 -173.63400268554688,130.4510040283203 C-75.98300170898438,130.49099731445312 85.63800048828125,130.4250030517578 183.55299377441406,130.4510040283203 C185.07899475097656,130.4510040283203 187.34300231933594,130.46400451660156 187.447998046875,130.3719940185547 C188.0659942626953,130.4250030517578 188.55299377441406,130.1739959716797 189.1060028076172,130.1479949951172 C193.3560028076172,128.8719940185547 195.92100524902344,123.87200164794922 194.19700622558594,119.70099639892578 C193.78900146484375,119.10900115966797 193.9600067138672,119.03099822998047 192.85499572753906,117.21499633789062 C143.26600646972656,31.246999740600586 71.40299987792969,-93.10099792480469 21.695999145507812,-179.24000549316406 C18.643999099731445,-184.29200744628906 9.82800006866455,-199.97500610351562 6.815000057220459,-205.01400756835938 C3.8550000190734863,-210.1580047607422 -3.86899995803833,-210.2239990234375 -6.828999996185303,-205.01400756835938 C-6.828999996185303,-205.01400756835938 -6.815999984741211,-205.02699279785156 -6.815999984741211,-205.02699279785156z"></path></g></g></g><mask id="__lottie_element_265_1" mask-type="alpha"><use xlink:href="#__lottie_element_265"></use></mask><mask id="__lottie_element_197_1" mask-type="alpha"><use xlink:href="#__lottie_element_197"></use></mask><clipPath id="__lottie_element_272"><path d="M0,0 L500,0 L500,500 L0,500z"></path></clipPath><g id="__lottie_element_275"><g style="display: none;"><g><path></path></g></g></g><g id="__lottie_element_285"><g style="display: none;"><g><path></path></g></g></g><clipPath id="__lottie_element_288"><path d="M0,0 L1920,0 L1920,1080 L0,1080z"></path></clipPath><mask id="__lottie_element_275_1" mask-type="alpha"><use xlink:href="#__lottie_element_275"></use></mask><g id="__lottie_element_303"><g style="display: none;"><g><path></path></g></g></g><clipPath id="__lottie_element_307"><path d="M0,0 L1920,0 L1920,1080 L0,1080z"></path></clipPath><mask id="__lottie_element_303_1" mask-type="alpha"><use xlink:href="#__lottie_element_303"></use></mask><g id="__lottie_element_322"><g style="display: none;"><g><path></path></g></g></g><clipPath id="__lottie_element_326"><path d="M0,0 L1920,0 L1920,1080 L0,1080z"></path></clipPath><mask id="__lottie_element_322_1" mask-type="alpha"><use xlink:href="#__lottie_element_322"></use></mask><g id="__lottie_element_341"><g style="display: none;"><g><path></path></g></g></g><mask id="__lottie_element_341_1" mask-type="alpha"><use xlink:href="#__lottie_element_341"></use></mask><g id="__lottie_element_347"><g style="display: none;"><g><path></path></g></g></g><mask id="__lottie_element_347_1" mask-type="alpha"><use xlink:href="#__lottie_element_347"></use></mask><g id="__lottie_element_353"><g style="display: none;"><g><path></path></g></g></g><mask id="__lottie_element_353_1" mask-type="alpha"><use xlink:href="#__lottie_element_353"></use></mask><mask id="__lottie_element_285_1" mask-type="alpha"><use xlink:href="#__lottie_element_285"></use></mask></defs><g clip-path="url(#__lottie_element_94)"><g clip-path="url(#__lottie_element_272)" style="display: none;"><g style="display: none;"><g><path></path></g></g><g mask="url(#__lottie_element_285_1)" style="display: none;"><g><g><path></path></g></g></g><g mask="url(#__lottie_element_353_1)" style="display: none;"><g><g><path></path></g></g></g><g mask="url(#__lottie_element_347_1)" style="display: none;"><g><g><path></path></g></g></g><g mask="url(#__lottie_element_341_1)" style="display: none;"><g><g><path></path></g></g></g><g mask="url(#__lottie_element_322_1)" style="display: none;"><g clip-path="url(#__lottie_element_326)"><g style="display: none;"><g><path></path></g></g><g style="display: none;"><g><path></path></g></g><g style="display: none;"><g><path></path></g></g><g style="display: none;"><g><path></path></g></g></g></g><g mask="url(#__lottie_element_303_1)" style="display: none;"><g clip-path="url(#__lottie_element_307)"><g style="display: none;"><g><path></path></g></g><g style="display: none;"><g><path></path></g></g><g style="display: none;"><g><path></path></g></g><g style="display: none;"><g><path></path></g></g></g></g><g mask="url(#__lottie_element_275_1)" style="display: none;"><g clip-path="url(#__lottie_element_288)"><g style="display: none;"><g><path></path></g></g><g style="display: none;"><g><path></path></g></g><g style="display: none;"><g><path></path></g></g><g style="display: none;"><g><path></path></g></g></g></g></g><g clip-path="url(#__lottie_element_184)" transform="matrix(1,0,0,1,0,24)" opacity="1" style="display: block;"><g transform="matrix(1,0,0,1,250,249.99998474121094)" opacity="1" style="display: block;"><g opacity="1" transform="matrix(1,0,0,1,0,0)"><path fill="rgb(0,0,0)" fill-opacity="1" d=" M-6.815999984741211,-205.02699279785156 C-27.736000061035156,-168.81900024414062 -177.16000366210938,89.8479995727539 -194.197998046875,119.68800354003906 C-196.14500427246094,124.37200164794922 -192.5540008544922,130.27999877929688 -187.44900512695312,130.3719940185547 C-186.08099365234375,130.50399780273438 -175.63400268554688,130.43800354003906 -173.63400268554688,130.4510040283203 C-75.98300170898438,130.49099731445312 85.63800048828125,130.4250030517578 183.55299377441406,130.4510040283203 C185.07899475097656,130.4510040283203 187.34300231933594,130.46400451660156 187.447998046875,130.3719940185547 C188.0659942626953,130.4250030517578 188.55299377441406,130.1739959716797 189.1060028076172,130.1479949951172 C193.3560028076172,128.8719940185547 195.92100524902344,123.87200164794922 194.19700622558594,119.70099639892578 C193.78900146484375,119.10900115966797 193.9600067138672,119.03099822998047 192.85499572753906,117.21499633789062 C143.26600646972656,31.246999740600586 71.40299987792969,-93.10099792480469 21.695999145507812,-179.24000549316406 C18.643999099731445,-184.29200744628906 9.82800006866455,-199.97500610351562 6.815000057220459,-205.01400756835938 C3.8550000190734863,-210.1580047607422 -3.86899995803833,-210.2239990234375 -6.828999996185303,-205.01400756835938 C-6.828999996185303,-205.01400756835938 -6.815999984741211,-205.02699279785156 -6.815999984741211,-205.02699279785156z M-27.32699966430664,-216.86900329589844 C-18.222000122070312,-232.9340057373047 3.6700000762939453,-237.5780029296875 18.57699966430664,-226.63099670410156 C22.14299964904785,-223.98599243164062 25.09000015258789,-220.5919952392578 27.34000015258789,-216.86900329589844 C27.34000015258789,-216.86900329589844 32.29999923706055,-208.27699279785156 32.29999923706055,-208.27699279785156 C32.29999923706055,-208.27699279785156 42.22100067138672,-191.093994140625 42.22100067138672,-191.093994140625 C86.52100372314453,-114.36199951171875 156.67300415039062,7.14300012588501 200.97300720214844,83.875 C200.97300720214844,83.875 210.8939971923828,101.05799865722656 210.8939971923828,101.05799865722656 C212.56500244140625,104.04499816894531 214.10400390625,106.30799865722656 216.1300048828125,110.7020034790039 C217.73500061035156,114.80699920654297 218.56500244140625,119.24099731445312 218.4199981689453,123.67500305175781 C218.03799438476562,137.05599975585938 208.4459991455078,149.33099365234375 195.53900146484375,152.92300415039062 C191.35499572753906,154.10699462890625 186.39500427246094,154.16000366210938 183.55299377441406,154.10699462890625 C85.44100189208984,153.98899841308594 -75.82499694824219,154.19900512695312 -173.63400268554688,154.10699462890625 C-180.35699462890625,153.8699951171875 -188.14599609375,154.8699951171875 -195.5399932861328,152.91000366210938 C-213.3280029296875,147.9499969482422 -223.22300720214844,127.72699737548828 -216.1179962158203,110.6760025024414 C-198.6320037841797,79.1520004272461 -48.74700164794922,-179.4770050048828 -27.32699966430664,-216.86900329589844z"></path></g></g><g mask="url(#__lottie_element_197_1)" style="display: block;"><g transform="matrix(1,0,0,1,250,250)" opacity="1"><g opacity="1" transform="matrix(1,0,0,1,0,0)"><path fill="rgb(0,0,0)" fill-opacity="1" d=" M-47.86600112915039,-5.974999904632568 C-47.86600112915039,-5.974999904632568 -6.039000034332275,66.48100280761719 -6.039000034332275,66.48100280761719 C-3.3550000190734863,71.13899993896484 3.368000030517578,71.13899993896484 6.052000045776367,66.48100280761719 C6.052000045776367,66.48100280761719 47.87799835205078,-5.974999904632568 47.87799835205078,-5.974999904632568 C50.5620002746582,-10.633000373840332 47.207000732421875,-16.447999954223633 41.8390007019043,-16.447999954223633 C41.8390007019043,-16.447999954223633 -41.8129997253418,-16.447999954223633 -41.8129997253418,-16.447999954223633 C-47.180999755859375,-16.447999954223633 -50.54899978637695,-10.633000373840332 -47.85200119018555,-5.974999904632568 C-47.85200119018555,-5.974999904632568 -47.86600112915039,-5.974999904632568 -47.86600112915039,-5.974999904632568z M-3.684000015258789,41.66699981689453 C-3.684000015258789,41.66699981689453 -25.208999633789062,4.39300012588501 -25.208999633789062,4.39300012588501 C-26.854000091552734,1.5509999990463257 -24.801000595092773,-2.000999927520752 -21.511999130249023,-2.000999927520752 C-21.511999130249023,-2.000999927520752 21.538000106811523,-2.000999927520752 21.538000106811523,-2.000999927520752 C24.81399917602539,-2.000999927520752 26.865999221801758,1.5509999990463257 25.235000610351562,4.39300012588501 C25.235000610351562,4.39300012588501 3.7100000381469727,41.66699981689453 3.7100000381469727,41.66699981689453 C2.065000057220459,44.50899887084961 -2.0260000228881836,44.50899887084961 -3.6710000038146973,41.66699981689453 C-3.6710000038146973,41.66699981689453 -3.684000015258789,41.66699981689453 -3.684000015258789,41.66699981689453z"></path></g></g></g><g mask="url(#__lottie_element_265_1)" style="display: block;"><g transform="matrix(1,0,0,1,250,250)" opacity="1"><g opacity="1" transform="matrix(1,0,0,1,0,0)"><path fill="rgb(0,0,0)" fill-opacity="1" d=" M-19.631000518798828,-202.65899658203125 C-42.5369987487793,-149.43899536132812 -62.220001220703125,-87.64099884033203 -42.904998779296875,-30.51300048828125 C-40.10300064086914,-22.645000457763672 -36.617000579833984,-15.093000411987305 -32.30099868774414,-7.921999931335449 C-32.30099868774414,-7.921999931335449 -44.7869987487793,-0.6200000047683716 -44.7869987487793,-0.6200000047683716 C-49.47100067138672,-8.50100040435791 -53.404998779296875,-17.106000900268555 -56.444000244140625,-25.841999053955078 C-74.19300079345703,-77.97000122070312 -60.970001220703125,-134.2689971923828 -41.95800018310547,-183.87100219726562 C-38.76100158691406,-192.05499267578125 -35.35300064086914,-200.13299560546875 -31.801000595092773,-208.11900329589844 C-31.801000595092773,-208.11900329589844 -19.643999099731445,-202.6719970703125 -19.643999099731445,-202.6719970703125 C-19.643999099731445,-202.6719970703125 -19.631000518798828,-202.65899658203125 -19.631000518798828,-202.65899658203125z"></path></g></g></g><g mask="url(#__lottie_element_259_1)" style="display: block;"><g transform="matrix(1,0,0,1,250,250)" opacity="1"><g opacity="1" transform="matrix(1,0,0,1,0,0)"><path fill="rgb(0,0,0)" fill-opacity="1" d=" M198.03900146484375,106.34700012207031 C163.39700317382812,59.88999938964844 119.72899627685547,11.944999694824219 60.5880012512207,0.11699999868869781 C52.37799835205078,-1.3830000162124634 44.0890007019043,-2.1459999084472656 35.72100067138672,-1.9880000352859497 C35.72100067138672,-1.9880000352859497 35.641998291015625,-16.447999954223633 35.641998291015625,-16.447999954223633 C44.8120002746582,-16.56599998474121 54.220001220703125,-15.67199993133545 63.31100082397461,-13.9350004196167 C117.32099914550781,-3.23799991607666 159.4759979248047,36.35100173950195 192.92100524902344,77.625 C198.40699768066406,84.4800033569336 203.69700622558594,91.4800033569336 208.84100341796875,98.54499816894531 C208.84100341796875,98.54499816894531 198.03900146484375,106.34700012207031 198.03900146484375,106.34700012207031z"></path></g></g></g><g mask="url(#__lottie_element_253_1)" style="display: block;"><g transform="matrix(1,0,0,1,250,250)" opacity="1"><g opacity="1" transform="matrix(1,0,0,1,0,0)"><path fill="rgb(0,0,0)" fill-opacity="1" d=" M-178.41000366210938,140.34500122070312 C-120.86100006103516,133.56900024414062 -57.49599838256836,119.72799682617188 -17.683000564575195,74.41500091552734 C-12.274999618530273,68.05999755859375 -7.4730000495910645,61.25699996948242 -3.4210000038146973,53.92900085449219 C-3.4210000038146973,53.92900085449219 9.144000053405762,61.08700180053711 9.144000053405762,61.08700180053711 C4.6570000648498535,69.08599853515625 -0.8289999961853027,76.7959976196289 -6.868000030517578,83.7959976196289 C-43.141998291015625,125.22799682617188 -98.49400329589844,141.93699645996094 -150.96400451660156,150.26499938964844 C-159.6479949951172,151.58099365234375 -168.343994140625,152.67300415039062 -177.04100036621094,153.593994140625 C-177.04100036621094,153.593994140625 -178.39599609375,140.34500122070312 -178.39599609375,140.34500122070312 C-178.39599609375,140.34500122070312 -178.41000366210938,140.34500122070312 -178.41000366210938,140.34500122070312z"></path></g></g></g><g mask="url(#__lottie_element_234_1)" style="display: block;"><g clip-path="url(#__lottie_element_238)" transform="matrix(1,0,0,1,-710,-290)" opacity="1"><g transform="matrix(1,0,0,1,990.1420288085938,584.5020141601562)" opacity="1" style="display: block;"><g opacity="1" transform="matrix(1,0,0,1,0,0)"><path fill="rgb(0,0,0)" fill-opacity="1" d=" M26.600000381469727,-48.803123474121094 C26.600000381469727,-48.803123474121094 -42.81337356567383,44.30575180053711 -42.81337356567383,44.30575180053711 C-42.81337356567383,44.30575180053711 -48.694374084472656,37.12174987792969 -48.694374084472656,37.12174987792969 C-48.694374084472656,37.12174987792969 13.692375183105469,-56.39512634277344 13.692375183105469,-56.39512634277344 C13.692375183105469,-56.39512634277344 26.600000381469727,-48.803123474121094 26.600000381469727,-48.803123474121094z"></path></g></g><g transform="matrix(1,0,0,1,988.2349853515625,608.3820190429688)" opacity="1" style="display: block;"><g opacity="1" transform="matrix(1,0,0,1,0,0)"><path fill="rgb(0,0,0)" fill-opacity="1" d=" M-69.58084869384766,28.08616065979004 C-69.58084869384766,28.08616065979004 57.95318603515625,-72.23063659667969 57.95318603515625,-72.23063659667969 C57.95318603515625,-72.23063659667969 69.16397094726562,-57.419677734375 69.16397094726562,-57.419677734375 C69.16397094726562,-57.419677734375 -63.92511749267578,35.54563522338867 -63.92511749267578,35.54563522338867 C-63.92511749267578,35.54563522338867 -69.58084869384766,28.08616065979004 -69.58084869384766,28.08616065979004z"></path></g></g><g transform="matrix(1,0,0,1,981.8469848632812,640.9130249023438)" opacity="1" style="display: block;"><g opacity="1" transform="matrix(1,0,0,1,0,0)"><path fill="rgb(0,0,0)" fill-opacity="1" d=" M-101.78871154785156,16.832420349121094 C-101.78871154785156,16.832420349121094 108.5276107788086,-81.7818832397461 108.5276107788086,-81.7818832397461 C108.5276107788086,-81.7818832397461 116.79621124267578,-63.727779388427734 116.79621124267578,-63.727779388427734 C116.79621124267578,-63.727779388427734 -97.61931610107422,25.920635223388672 -97.61931610107422,25.920635223388672 C-97.61931610107422,25.920635223388672 -101.78871154785156,16.832420349121094 -101.78871154785156,16.832420349121094z"></path></g></g><g transform="matrix(1,0,0,1,981.8469848632812,640.9130249023438)" opacity="1" style="display: block;"><g opacity="1" transform="matrix(1,0,0,1,0,0)"><path fill="rgb(0,0,0)" fill-opacity="1" d=" M-165.2669219970703,36.82041931152344 C-165.2669219970703,36.82041931152344 158.74722290039062,-29.698320388793945 158.74722290039062,-29.698320388793945 C158.74722290039062,-29.698320388793945 162.80691528320312,-8.948417663574219 162.80691528320312,-8.948417663574219 C162.80691528320312,-8.948417663574219 -163.2263946533203,47.26811981201172 -163.2263946533203,47.26811981201172 C-163.2263946533203,47.26811981201172 -165.2669219970703,36.82041931152344 -165.2669219970703,36.82041931152344z"></path></g></g></g></g><g mask="url(#__lottie_element_215_1)" style="display: block;"><g clip-path="url(#__lottie_element_219)" transform="matrix(-0.5,0.8660253882408142,-0.8660253882408142,-0.5,1212.0897216796875,-288.34442138671875)" opacity="1"><g transform="matrix(1,0,0,1,990.1420288085938,584.5020141601562)" opacity="1" style="display: block;"><g opacity="1" transform="matrix(1,0,0,1,0,0)"><path fill="rgb(0,0,0)" fill-opacity="1" d=" M26.600000381469727,-48.803123474121094 C26.600000381469727,-48.803123474121094 -42.81337356567383,44.30575180053711 -42.81337356567383,44.30575180053711 C-42.81337356567383,44.30575180053711 -48.694374084472656,37.12174987792969 -48.694374084472656,37.12174987792969 C-48.694374084472656,37.12174987792969 13.692375183105469,-56.39512634277344 13.692375183105469,-56.39512634277344 C13.692375183105469,-56.39512634277344 26.600000381469727,-48.803123474121094 26.600000381469727,-48.803123474121094z"></path></g></g><g transform="matrix(1,0,0,1,988.2349853515625,608.3820190429688)" opacity="1" style="display: block;"><g opacity="1" transform="matrix(1,0,0,1,0,0)"><path fill="rgb(0,0,0)" fill-opacity="1" d=" M-69.58084869384766,28.08616065979004 C-69.58084869384766,28.08616065979004 57.95318603515625,-72.23063659667969 57.95318603515625,-72.23063659667969 C57.95318603515625,-72.23063659667969 69.16397094726562,-57.419677734375 69.16397094726562,-57.419677734375 C69.16397094726562,-57.419677734375 -63.92511749267578,35.54563522338867 -63.92511749267578,35.54563522338867 C-63.92511749267578,35.54563522338867 -69.58084869384766,28.08616065979004 -69.58084869384766,28.08616065979004z"></path></g></g><g transform="matrix(1,0,0,1,981.8469848632812,640.9130249023438)" opacity="1" style="display: block;"><g opacity="1" transform="matrix(1,0,0,1,0,0)"><path fill="rgb(0,0,0)" fill-opacity="1" d=" M-101.78871154785156,16.832420349121094 C-101.78871154785156,16.832420349121094 108.5276107788086,-81.7818832397461 108.5276107788086,-81.7818832397461 C108.5276107788086,-81.7818832397461 116.79621124267578,-63.727779388427734 116.79621124267578,-63.727779388427734 C116.79621124267578,-63.727779388427734 -97.61931610107422,25.920635223388672 -97.61931610107422,25.920635223388672 C-97.61931610107422,25.920635223388672 -101.78871154785156,16.832420349121094 -101.78871154785156,16.832420349121094z"></path></g></g><g transform="matrix(1,0,0,1,981.8469848632812,640.9130249023438)" opacity="1" style="display: block;"><g opacity="1" transform="matrix(1,0,0,1,0,0)"><path fill="rgb(0,0,0)" fill-opacity="1" d=" M-165.2669219970703,36.82041931152344 C-165.2669219970703,36.82041931152344 158.74722290039062,-29.698320388793945 158.74722290039062,-29.698320388793945 C158.74722290039062,-29.698320388793945 162.80691528320312,-8.948417663574219 162.80691528320312,-8.948417663574219 C162.80691528320312,-8.948417663574219 -163.2263946533203,47.26811981201172 -163.2263946533203,47.26811981201172 C-163.2263946533203,47.26811981201172 -165.2669219970703,36.82041931152344 -165.2669219970703,36.82041931152344z"></path></g></g></g></g><g mask="url(#__lottie_element_187_1)" style="display: block;"><g clip-path="url(#__lottie_element_200)" transform="matrix(-0.5,-0.8660253882408142,0.8660253882408142,-0.5,247.78228759765625,1373.443359375)" opacity="1"><g transform="matrix(1,0,0,1,990.1420288085938,584.5020141601562)" opacity="1" style="display: block;"><g opacity="1" transform="matrix(1,0,0,1,0,0)"><path fill="rgb(0,0,0)" fill-opacity="1" d=" M26.600000381469727,-48.803123474121094 C26.600000381469727,-48.803123474121094 -42.81337356567383,44.30575180053711 -42.81337356567383,44.30575180053711 C-42.81337356567383,44.30575180053711 -48.694374084472656,37.12174987792969 -48.694374084472656,37.12174987792969 C-48.694374084472656,37.12174987792969 13.692375183105469,-56.39512634277344 13.692375183105469,-56.39512634277344 C13.692375183105469,-56.39512634277344 26.600000381469727,-48.803123474121094 26.600000381469727,-48.803123474121094z"></path></g></g><g transform="matrix(1,0,0,1,988.2349853515625,608.3820190429688)" opacity="1" style="display: block;"><g opacity="1" transform="matrix(1,0,0,1,0,0)"><path fill="rgb(0,0,0)" fill-opacity="1" d=" M-69.58084869384766,28.08616065979004 C-69.58084869384766,28.08616065979004 57.95318603515625,-72.23063659667969 57.95318603515625,-72.23063659667969 C57.95318603515625,-72.23063659667969 69.16397094726562,-57.419677734375 69.16397094726562,-57.419677734375 C69.16397094726562,-57.419677734375 -63.92511749267578,35.54563522338867 -63.92511749267578,35.54563522338867 C-63.92511749267578,35.54563522338867 -69.58084869384766,28.08616065979004 -69.58084869384766,28.08616065979004z"></path></g></g><g transform="matrix(1,0,0,1,981.8469848632812,640.9130249023438)" opacity="1" style="display: block;"><g opacity="1" transform="matrix(1,0,0,1,0,0)"><path fill="rgb(0,0,0)" fill-opacity="1" d=" M-101.78871154785156,16.832420349121094 C-101.78871154785156,16.832420349121094 108.5276107788086,-81.7818832397461 108.5276107788086,-81.7818832397461 C108.5276107788086,-81.7818832397461 116.79621124267578,-63.727779388427734 116.79621124267578,-63.727779388427734 C116.79621124267578,-63.727779388427734 -97.61931610107422,25.920635223388672 -97.61931610107422,25.920635223388672 C-97.61931610107422,25.920635223388672 -101.78871154785156,16.832420349121094 -101.78871154785156,16.832420349121094z"></path></g></g><g transform="matrix(1,0,0,1,981.8469848632812,640.9130249023438)" opacity="1" style="display: block;"><g opacity="1" transform="matrix(1,0,0,1,0,0)"><path fill="rgb(0,0,0)" fill-opacity="1" d=" M-165.2669219970703,36.82041931152344 C-165.2669219970703,36.82041931152344 158.74722290039062,-29.698320388793945 158.74722290039062,-29.698320388793945 C158.74722290039062,-29.698320388793945 162.80691528320312,-8.948417663574219 162.80691528320312,-8.948417663574219 C162.80691528320312,-8.948417663574219 -163.2263946533203,47.26811981201172 -163.2263946533203,47.26811981201172 C-163.2263946533203,47.26811981201172 -165.2669219970703,36.82041931152344 -165.2669219970703,36.82041931152344z"></path></g></g></g></g></g><g clip-path="url(#__lottie_element_96)" style="display: none;"><g style="display: none;"><g><path></path></g></g><g mask="url(#__lottie_element_109_1)" style="display: none;"><g><g><path></path></g></g></g><g mask="url(#__lottie_element_177_1)" style="display: none;"><g><g><path></path></g></g></g><g mask="url(#__lottie_element_171_1)" style="display: none;"><g><g><path></path></g></g></g><g mask="url(#__lottie_element_165_1)" style="display: none;"><g><g><path></path></g></g></g><g mask="url(#__lottie_element_146_1)" style="display: none;"><g clip-path="url(#__lottie_element_150)"><g style="display: none;"><g><path></path></g></g><g style="display: none;"><g><path></path></g></g><g style="display: none;"><g><path></path></g></g><g style="display: none;"><g><path></path></g></g></g></g><g mask="url(#__lottie_element_127_1)" style="display: none;"><g clip-path="url(#__lottie_element_131)"><g style="display: none;"><g><path></path></g></g><g style="display: none;"><g><path></path></g></g><g style="display: none;"><g><path></path></g></g><g style="display: none;"><g><path></path></g></g></g></g><g mask="url(#__lottie_element_99_1)" style="display: none;"><g clip-path="url(#__lottie_element_112)"><g style="display: none;"><g><path></path></g></g><g style="display: none;"><g><path></path></g></g><g style="display: none;"><g><path></path></g></g><g style="display: none;"><g><path></path></g></g></g></g></g></g></svg>