<svg
  xmlns="http://www.w3.org/2000/svg"
  width="343"
  height="114"
  fill="none"
  viewBox="0 0 343 114"
>
  <g stroke-width=".5" opacity=".7">
    <rect
      width="23.33"
      height="23.33"
      x=".25"
      y=".25"
      fill="url(#a)"
      stroke="#27272A"
      rx="3.75"
    />
    <rect
      width="23.33"
      height="23.33"
      x="32.08"
      y=".25"
      fill="url(#b)"
      stroke="#27272A"
      rx="3.75"
    />
    <rect
      width="23.33"
      height="23.33"
      x="63.9"
      y=".25"
      fill="url(#c)"
      stroke="#27272A"
      rx="3.75"
    />
    <rect
      width="23.33"
      height="23.33"
      x="95.73"
      y=".25"
      fill="url(#d)"
      stroke="#27272A"
      rx="3.75"
    />
    <rect
      width="23.33"
      height="23.33"
      x="127.56"
      y=".25"
      fill="url(#e)"
      stroke="#27272A"
      rx="3.75"
    />
    <rect
      width="23.33"
      height="23.33"
      x="159.38"
      y=".25"
      fill="url(#f)"
      stroke="#27272A"
      rx="3.75"
    />
    <rect
      width="23.33"
      height="23.33"
      x="191.21"
      y=".25"
      fill="url(#g)"
      stroke="#27272A"
      rx="3.75"
    />
    <rect
      width="23.33"
      height="23.33"
      x="223.04"
      y=".25"
      fill="url(#h)"
      stroke="#27272A"
      rx="3.75"
    />
    <rect
      width="23.33"
      height="23.33"
      x="254.87"
      y=".25"
      fill="url(#i)"
      stroke="#27272A"
      rx="3.75"
    />
    <rect
      width="23.33"
      height="23.33"
      x="286.69"
      y=".25"
      fill="url(#j)"
      stroke="#27272A"
      rx="3.75"
    />
    <rect
      width="23.33"
      height="23.33"
      x="318.52"
      y=".25"
      fill="url(#k)"
      stroke="#27272A"
      rx="3.75"
    />
    <rect
      width="23.33"
      height="23.33"
      x=".25"
      y="30.08"
      fill="url(#l)"
      stroke="#27272A"
      rx="3.75"
    />
    <rect
      width="23.33"
      height="23.33"
      x="32.08"
      y="30.08"
      fill="url(#m)"
      stroke="#27272A"
      rx="3.75"
    />
    <rect
      width="23.33"
      height="23.33"
      x="63.9"
      y="30.08"
      fill="url(#n)"
      stroke="#27272A"
      rx="3.75"
    />
    <rect
      width="23.33"
      height="23.33"
      x="95.73"
      y="30.08"
      fill="url(#o)"
      stroke="#27272A"
      rx="3.75"
    />
    <rect
      width="23.33"
      height="23.33"
      x="127.56"
      y="30.08"
      fill="url(#p)"
      stroke="#27272A"
      rx="3.75"
    />
    <rect
      width="23.33"
      height="23.33"
      x="159.38"
      y="30.08"
      fill="url(#q)"
      stroke="#27272A"
      rx="3.75"
    />
    <rect
      width="23.33"
      height="23.33"
      x="191.21"
      y="30.08"
      fill="url(#r)"
      stroke="#27272A"
      rx="3.75"
    />
    <rect
      width="23.33"
      height="23.33"
      x="223.04"
      y="30.08"
      fill="url(#s)"
      stroke="#27272A"
      rx="3.75"
    />
    <rect
      width="23.33"
      height="23.33"
      x="254.87"
      y="30.08"
      fill="url(#t)"
      stroke="url(#u)"
      rx="3.75"
    />
    <rect
      width="23.33"
      height="23.33"
      x="286.69"
      y="30.08"
      fill="url(#v)"
      stroke="#27272A"
      rx="3.75"
    />
    <rect
      width="23.33"
      height="23.33"
      x="318.52"
      y="30.08"
      fill="url(#w)"
      stroke="#27272A"
      rx="3.75"
    />
    <rect
      width="23.33"
      height="23.33"
      x=".25"
      y="59.9"
      fill="url(#x)"
      stroke="#27272A"
      rx="3.75"
    />
    <rect
      width="23.33"
      height="23.33"
      x="32.08"
      y="59.9"
      fill="url(#y)"
      stroke="#27272A"
      rx="3.75"
    />
    <rect
      width="23.33"
      height="23.33"
      x="63.9"
      y="59.9"
      fill="url(#z)"
      stroke="url(#A)"
      rx="3.75"
    />
    <rect
      width="23.33"
      height="23.33"
      x="95.73"
      y="59.9"
      fill="url(#B)"
      stroke="#27272A"
      rx="3.75"
    />
    <rect
      width="23.33"
      height="23.33"
      x="127.56"
      y="59.9"
      fill="url(#C)"
      stroke="#27272A"
      rx="3.75"
    />
    <rect
      width="23.33"
      height="23.33"
      x="159.38"
      y="59.9"
      fill="url(#D)"
      stroke="#27272A"
      rx="3.75"
    />
    <rect
      width="23.33"
      height="23.33"
      x="191.21"
      y="59.9"
      fill="url(#E)"
      stroke="#27272A"
      rx="3.75"
    />
    <rect
      width="23.33"
      height="23.33"
      x="223.04"
      y="59.9"
      fill="url(#F)"
      stroke="#27272A"
      rx="3.75"
    />
    <rect
      width="23.33"
      height="23.33"
      x="254.87"
      y="59.9"
      fill="url(#G)"
      stroke="#27272A"
      rx="3.75"
    />
    <rect
      width="23.33"
      height="23.33"
      x="286.69"
      y="59.9"
      fill="url(#H)"
      stroke="#27272A"
      rx="3.75"
    />
    <rect
      width="23.33"
      height="23.33"
      x="318.52"
      y="59.9"
      fill="url(#I)"
      stroke="#27272A"
      rx="3.75"
    />
    <rect
      width="23.33"
      height="23.33"
      x=".25"
      y="89.73"
      fill="url(#J)"
      stroke="#27272A"
      rx="3.75"
    />
    <rect
      width="23.33"
      height="23.33"
      x="32.08"
      y="89.73"
      fill="url(#K)"
      stroke="#27272A"
      rx="3.75"
    />
    <rect
      width="23.33"
      height="23.33"
      x="63.9"
      y="89.73"
      fill="url(#L)"
      stroke="#27272A"
      rx="3.75"
    />
    <rect
      width="23.33"
      height="23.33"
      x="95.73"
      y="89.73"
      fill="url(#M)"
      stroke="#27272A"
      rx="3.75"
    />
    <rect
      width="23.33"
      height="23.33"
      x="127.56"
      y="89.73"
      fill="url(#N)"
      stroke="#27272A"
      rx="3.75"
    />
    <rect
      width="23.33"
      height="23.33"
      x="159.38"
      y="89.73"
      fill="url(#O)"
      stroke="#27272A"
      rx="3.75"
    />
    <rect
      width="23.33"
      height="23.33"
      x="191.21"
      y="89.73"
      fill="url(#P)"
      stroke="#27272A"
      rx="3.75"
    />
    <rect
      width="23.33"
      height="23.33"
      x="223.04"
      y="89.73"
      fill="url(#Q)"
      stroke="url(#R)"
      rx="3.75"
    />
    <rect
      width="23.33"
      height="23.33"
      x="254.87"
      y="89.73"
      fill="url(#S)"
      stroke="#27272A"
      rx="3.75"
    />
    <rect
      width="23.33"
      height="23.33"
      x="286.69"
      y="89.73"
      fill="url(#T)"
      stroke="#27272A"
      rx="3.75"
    />
    <rect
      width="23.33"
      height="23.33"
      x="318.52"
      y="89.73"
      fill="url(#U)"
      stroke="#27272A"
      rx="3.75"
    />
  </g>
  <g filter="url(#V)">
    <rect width="110" height="48" x="116.05" y="31.92" fill="url(#W)" rx="12" />
    <rect
      width="109.48"
      height="47.48"
      x="116.31"
      y="32.18"
      stroke="url(#X)"
      stroke-width=".52"
      rx="11.74"
    />
    <path
      fill="#E4E4E7"
      d="M139.77 62.92v-14.2h4.56c2.22 0 3.94.62 5.14 1.86 1.2 1.23 1.8 2.98 1.8 5.26 0 2.27-.6 4.01-1.78 5.24-1.18 1.23-2.86 1.84-5.04 1.84h-4.68Zm2.16-1.98h2.4c1.57 0 2.74-.42 3.52-1.26.78-.85 1.18-2.13 1.18-3.84 0-1.73-.4-3.02-1.18-3.86-.78-.85-1.95-1.28-3.52-1.28h-2.4v10.24Zm16.33 2.22a4.56 4.56 0 0 1-4.44-2.62c-.4-.84-.6-1.82-.6-2.94 0-1.12.2-2.1.6-2.92.42-.84 1-1.49 1.74-1.94.75-.47 1.63-.7 2.64-.7.96 0 1.81.23 2.54.68.74.44 1.3 1.08 1.7 1.92.42.84.62 1.85.62 3.04v.54h-7.64c.06 1.04.33 1.82.82 2.34.51.52 1.2.78 2.04.78.63 0 1.15-.15 1.56-.44.42-.3.7-.69.86-1.18l2.2.14a4.41 4.41 0 0 1-1.66 2.4c-.8.6-1.8.9-2.98.9Zm-2.84-6.54h5.4c-.06-.95-.34-1.65-.82-2.1a2.48 2.48 0 0 0-1.8-.68c-.76 0-1.38.24-1.88.72a3.4 3.4 0 0 0-.9 2.06Zm9.8 9.3V52.28h2l.05 2.28-.24-.12c.27-.79.7-1.38 1.32-1.78a3.7 3.7 0 0 1 2.12-.62c1.04 0 1.9.26 2.56.78.68.5 1.18 1.18 1.5 2.02.34.84.5 1.76.5 2.76 0 1-.16 1.92-.5 2.76a4.55 4.55 0 0 1-1.5 2.04c-.66.5-1.52.76-2.56.76a4 4 0 0 1-1.5-.28 3.52 3.52 0 0 1-1.2-.78 2.97 2.97 0 0 1-.68-1.22l.24-.24v5.28h-2.12Zm4.87-4.6c.85 0 1.52-.33 2-.98.5-.65.74-1.57.74-2.74 0-1.17-.25-2.09-.74-2.74a2.34 2.34 0 0 0-2-.98c-.56 0-1.05.14-1.46.42-.41.27-.73.68-.96 1.24a5.5 5.5 0 0 0-.34 2.06c0 .81.1 1.5.32 2.06.23.56.55.98.96 1.26.43.27.92.4 1.48.4Zm9.51 1.6c-.7 0-1.25-.18-1.68-.54-.42-.36-.64-.93-.64-1.72V48.72h2.12v11.74c0 .24.06.42.18.54a.8.8 0 0 0 .56.18h.84v1.74h-1.38Zm7.57.24a5.1 5.1 0 0 1-2.66-.68 4.52 4.52 0 0 1-1.76-1.94 6.59 6.59 0 0 1-.62-2.94c0-1.13.2-2.11.62-2.94.41-.83 1-1.47 1.76-1.92.76-.47 1.65-.7 2.66-.7 1.01 0 1.9.23 2.66.7.76.45 1.35 1.1 1.76 1.92.41.83.62 1.8.62 2.94 0 1.12-.2 2.1-.62 2.94-.41.84-1 1.49-1.76 1.94a5.1 5.1 0 0 1-2.66.68Zm0-1.84c.9 0 1.6-.33 2.1-.98.5-.67.74-1.58.74-2.74 0-1.16-.25-2.07-.74-2.72-.5-.67-1.2-1-2.1-1-.9 0-1.6.33-2.1 1-.5.65-.74 1.56-.74 2.72 0 1.16.25 2.07.74 2.74.5.65 1.2.98 2.1.98Zm7.45 4.6v-1.74h1.3c.36 0 .63-.05.8-.16.17-.1.3-.29.4-.54l.34-.88h-.66l-3.84-10.32h2.24l2.92 8.36 2.78-8.36h2.26l-4.24 11.88a2.53 2.53 0 0 1-.96 1.34c-.41.28-1 .42-1.74.42h-1.6Z"
    />
  </g>
  <path
    fill="url(#Y)"
    stroke="url(#Z)"
    d="M208.24 65.64a1.5 1.5 0 0 1 2.34-1.35l19.37 13.19a1.5 1.5 0 0 1-.61 2.72l-9.26 1.43a2.5 2.5 0 0 0-1.57.9l-5.86 7.3a1.5 1.5 0 0 1-2.67-.82l-1.74-23.37Z"
  />
  <defs>
    <linearGradient
      id="a"
      x1="11.91"
      x2="11.91"
      y1="0"
      y2="23.83"
      gradientUnits="userSpaceOnUse"
    >
      <stop stop-color="#fff" stop-opacity=".2" />
      <stop offset="1" stop-color="#fff" stop-opacity=".05" />
    </linearGradient>
    <linearGradient
      id="b"
      x1="43.74"
      x2="43.74"
      y1="0"
      y2="23.83"
      gradientUnits="userSpaceOnUse"
    >
      <stop stop-color="#fff" stop-opacity=".1" />
      <stop offset="1" stop-color="#fff" stop-opacity="0" />
    </linearGradient>
    <linearGradient
      id="c"
      x1="75.57"
      x2="75.57"
      y1="0"
      y2="23.83"
      gradientUnits="userSpaceOnUse"
    >
      <stop stop-color="#fff" stop-opacity=".1" />
      <stop offset="1" stop-color="#fff" stop-opacity="0" />
    </linearGradient>
    <linearGradient
      id="d"
      x1="107.39"
      x2="107.39"
      y1="0"
      y2="23.83"
      gradientUnits="userSpaceOnUse"
    >
      <stop stop-color="#fff" stop-opacity=".1" />
      <stop offset="1" stop-color="#fff" stop-opacity="0" />
    </linearGradient>
    <linearGradient
      id="e"
      x1="139.22"
      x2="139.22"
      y1="0"
      y2="23.83"
      gradientUnits="userSpaceOnUse"
    >
      <stop stop-color="#fff" stop-opacity=".1" />
      <stop offset="1" stop-color="#fff" stop-opacity="0" />
    </linearGradient>
    <linearGradient
      id="f"
      x1="171.05"
      x2="171.05"
      y1="0"
      y2="23.83"
      gradientUnits="userSpaceOnUse"
    >
      <stop stop-color="#fff" stop-opacity=".2" />
      <stop offset="1" stop-color="#fff" stop-opacity=".05" />
    </linearGradient>
    <linearGradient
      id="g"
      x1="202.88"
      x2="202.88"
      y1="0"
      y2="23.83"
      gradientUnits="userSpaceOnUse"
    >
      <stop stop-color="#fff" stop-opacity=".2" />
      <stop offset="1" stop-color="#fff" stop-opacity=".05" />
    </linearGradient>
    <linearGradient
      id="h"
      x1="234.7"
      x2="234.7"
      y1="0"
      y2="23.83"
      gradientUnits="userSpaceOnUse"
    >
      <stop stop-color="#fff" stop-opacity=".1" />
      <stop offset="1" stop-color="#fff" stop-opacity="0" />
    </linearGradient>
    <linearGradient
      id="i"
      x1="266.53"
      x2="266.53"
      y1="0"
      y2="23.83"
      gradientUnits="userSpaceOnUse"
    >
      <stop stop-color="#fff" stop-opacity=".1" />
      <stop offset="1" stop-color="#fff" stop-opacity="0" />
    </linearGradient>
    <linearGradient
      id="j"
      x1="298.36"
      x2="298.36"
      y1="0"
      y2="23.83"
      gradientUnits="userSpaceOnUse"
    >
      <stop stop-color="#fff" stop-opacity=".1" />
      <stop offset="1" stop-color="#fff" stop-opacity="0" />
    </linearGradient>
    <linearGradient
      id="k"
      x1="330.18"
      x2="330.18"
      y1="0"
      y2="23.83"
      gradientUnits="userSpaceOnUse"
    >
      <stop stop-color="#fff" stop-opacity=".1" />
      <stop offset="1" stop-color="#fff" stop-opacity="0" />
    </linearGradient>
    <linearGradient
      id="l"
      x1="11.91"
      x2="11.91"
      y1="29.83"
      y2="53.65"
      gradientUnits="userSpaceOnUse"
    >
      <stop stop-color="#fff" stop-opacity=".1" />
      <stop offset="1" stop-color="#fff" stop-opacity="0" />
    </linearGradient>
    <linearGradient
      id="m"
      x1="43.74"
      x2="43.74"
      y1="29.83"
      y2="53.65"
      gradientUnits="userSpaceOnUse"
    >
      <stop stop-color="#fff" stop-opacity=".2" />
      <stop offset="1" stop-color="#fff" stop-opacity=".05" />
    </linearGradient>
    <linearGradient
      id="n"
      x1="75.57"
      x2="75.57"
      y1="29.83"
      y2="53.65"
      gradientUnits="userSpaceOnUse"
    >
      <stop stop-color="#fff" stop-opacity=".1" />
      <stop offset="1" stop-color="#fff" stop-opacity="0" />
    </linearGradient>
    <linearGradient
      id="o"
      x1="107.39"
      x2="107.39"
      y1="29.83"
      y2="53.65"
      gradientUnits="userSpaceOnUse"
    >
      <stop stop-color="#fff" stop-opacity=".2" />
      <stop offset="1" stop-color="#fff" stop-opacity=".05" />
    </linearGradient>
    <linearGradient
      id="p"
      x1="139.22"
      x2="139.22"
      y1="29.83"
      y2="53.65"
      gradientUnits="userSpaceOnUse"
    >
      <stop stop-color="#fff" stop-opacity=".2" />
      <stop offset="1" stop-color="#fff" stop-opacity=".05" />
    </linearGradient>
    <linearGradient
      id="q"
      x1="171.05"
      x2="171.05"
      y1="29.83"
      y2="53.65"
      gradientUnits="userSpaceOnUse"
    >
      <stop stop-color="#fff" stop-opacity=".1" />
      <stop offset="1" stop-color="#fff" stop-opacity="0" />
    </linearGradient>
    <linearGradient
      id="r"
      x1="202.88"
      x2="202.88"
      y1="29.83"
      y2="53.65"
      gradientUnits="userSpaceOnUse"
    >
      <stop stop-color="#fff" stop-opacity=".1" />
      <stop offset="1" stop-color="#fff" stop-opacity="0" />
    </linearGradient>
    <linearGradient
      id="s"
      x1="234.7"
      x2="234.7"
      y1="29.83"
      y2="53.65"
      gradientUnits="userSpaceOnUse"
    >
      <stop stop-color="#fff" stop-opacity=".2" />
      <stop offset="1" stop-color="#fff" stop-opacity=".05" />
    </linearGradient>
    <linearGradient
      id="t"
      x1="266.53"
      x2="266.53"
      y1="29.83"
      y2="53.65"
      gradientUnits="userSpaceOnUse"
    >
      <stop stop-color="#fff" stop-opacity=".1" />
      <stop offset="1" stop-color="#fff" stop-opacity="0" />
    </linearGradient>
    <linearGradient
      id="u"
      x1="254.62"
      x2="278.44"
      y1="41.74"
      y2="41.74"
      gradientUnits="userSpaceOnUse"
    >
      <stop stop-color="#fff" />
      <stop offset="1" stop-color="#146DFF" />
    </linearGradient>
    <linearGradient
      id="v"
      x1="298.36"
      x2="298.36"
      y1="29.83"
      y2="53.65"
      gradientUnits="userSpaceOnUse"
    >
      <stop stop-color="#fff" stop-opacity=".1" />
      <stop offset="1" stop-color="#fff" stop-opacity="0" />
    </linearGradient>
    <linearGradient
      id="w"
      x1="330.18"
      x2="330.18"
      y1="29.83"
      y2="53.65"
      gradientUnits="userSpaceOnUse"
    >
      <stop stop-color="#fff" stop-opacity=".1" />
      <stop offset="1" stop-color="#fff" stop-opacity="0" />
    </linearGradient>
    <linearGradient
      id="x"
      x1="11.91"
      x2="11.91"
      y1="59.65"
      y2="83.48"
      gradientUnits="userSpaceOnUse"
    >
      <stop stop-color="#fff" stop-opacity=".2" />
      <stop offset="1" stop-color="#fff" stop-opacity=".05" />
    </linearGradient>
    <linearGradient
      id="y"
      x1="43.74"
      x2="43.74"
      y1="59.65"
      y2="83.48"
      gradientUnits="userSpaceOnUse"
    >
      <stop stop-color="#fff" stop-opacity=".1" />
      <stop offset="1" stop-color="#fff" stop-opacity="0" />
    </linearGradient>
    <linearGradient
      id="z"
      x1="75.57"
      x2="75.57"
      y1="59.65"
      y2="83.48"
      gradientUnits="userSpaceOnUse"
    >
      <stop stop-color="#fff" stop-opacity=".1" />
      <stop offset="1" stop-color="#fff" stop-opacity="0" />
    </linearGradient>
    <linearGradient
      id="A"
      x1="63.65"
      x2="87.48"
      y1="71.57"
      y2="71.57"
      gradientUnits="userSpaceOnUse"
    >
      <stop stop-color="#fff" />
      <stop offset="1" stop-color="#146DFF" />
    </linearGradient>
    <linearGradient
      id="B"
      x1="107.39"
      x2="107.39"
      y1="59.65"
      y2="83.48"
      gradientUnits="userSpaceOnUse"
    >
      <stop stop-color="#fff" stop-opacity=".1" />
      <stop offset="1" stop-color="#fff" stop-opacity="0" />
    </linearGradient>
    <linearGradient
      id="C"
      x1="139.22"
      x2="139.22"
      y1="59.65"
      y2="83.48"
      gradientUnits="userSpaceOnUse"
    >
      <stop stop-color="#fff" stop-opacity=".1" />
      <stop offset="1" stop-color="#fff" stop-opacity="0" />
    </linearGradient>
    <linearGradient
      id="D"
      x1="171.05"
      x2="171.05"
      y1="59.65"
      y2="83.48"
      gradientUnits="userSpaceOnUse"
    >
      <stop stop-color="#fff" stop-opacity=".2" />
      <stop offset="1" stop-color="#fff" stop-opacity=".05" />
    </linearGradient>
    <linearGradient
      id="E"
      x1="202.88"
      x2="202.88"
      y1="59.65"
      y2="83.48"
      gradientUnits="userSpaceOnUse"
    >
      <stop stop-color="#fff" stop-opacity=".2" />
      <stop offset="1" stop-color="#fff" stop-opacity=".05" />
    </linearGradient>
    <linearGradient
      id="F"
      x1="234.7"
      x2="234.7"
      y1="59.65"
      y2="83.48"
      gradientUnits="userSpaceOnUse"
    >
      <stop stop-color="#fff" stop-opacity=".1" />
      <stop offset="1" stop-color="#fff" stop-opacity="0" />
    </linearGradient>
    <linearGradient
      id="G"
      x1="266.53"
      x2="266.53"
      y1="59.65"
      y2="83.48"
      gradientUnits="userSpaceOnUse"
    >
      <stop stop-color="#fff" stop-opacity=".1" />
      <stop offset="1" stop-color="#fff" stop-opacity="0" />
    </linearGradient>
    <linearGradient
      id="H"
      x1="298.36"
      x2="298.36"
      y1="59.65"
      y2="83.48"
      gradientUnits="userSpaceOnUse"
    >
      <stop stop-color="#fff" stop-opacity=".2" />
      <stop offset="1" stop-color="#fff" stop-opacity=".05" />
    </linearGradient>
    <linearGradient
      id="I"
      x1="330.18"
      x2="330.18"
      y1="59.65"
      y2="83.48"
      gradientUnits="userSpaceOnUse"
    >
      <stop stop-color="#fff" stop-opacity=".1" />
      <stop offset="1" stop-color="#fff" stop-opacity="0" />
    </linearGradient>
    <linearGradient
      id="J"
      x1="11.91"
      x2="11.91"
      y1="89.48"
      y2="113.31"
      gradientUnits="userSpaceOnUse"
    >
      <stop stop-color="#fff" stop-opacity=".1" />
      <stop offset="1" stop-color="#fff" stop-opacity="0" />
    </linearGradient>
    <linearGradient
      id="K"
      x1="43.74"
      x2="43.74"
      y1="89.48"
      y2="113.31"
      gradientUnits="userSpaceOnUse"
    >
      <stop stop-color="#fff" stop-opacity=".2" />
      <stop offset="1" stop-color="#fff" stop-opacity=".05" />
    </linearGradient>
    <linearGradient
      id="L"
      x1="75.57"
      x2="75.57"
      y1="89.48"
      y2="113.31"
      gradientUnits="userSpaceOnUse"
    >
      <stop stop-color="#fff" stop-opacity=".1" />
      <stop offset="1" stop-color="#fff" stop-opacity="0" />
    </linearGradient>
    <linearGradient
      id="M"
      x1="107.39"
      x2="107.39"
      y1="89.48"
      y2="113.31"
      gradientUnits="userSpaceOnUse"
    >
      <stop stop-color="#fff" stop-opacity=".2" />
      <stop offset="1" stop-color="#fff" stop-opacity=".05" />
    </linearGradient>
    <linearGradient
      id="N"
      x1="139.22"
      x2="139.22"
      y1="89.48"
      y2="113.31"
      gradientUnits="userSpaceOnUse"
    >
      <stop stop-color="#fff" stop-opacity=".2" />
      <stop offset="1" stop-color="#fff" stop-opacity=".05" />
    </linearGradient>
    <linearGradient
      id="O"
      x1="171.05"
      x2="171.05"
      y1="89.48"
      y2="113.31"
      gradientUnits="userSpaceOnUse"
    >
      <stop stop-color="#fff" stop-opacity=".1" />
      <stop offset="1" stop-color="#fff" stop-opacity="0" />
    </linearGradient>
    <linearGradient
      id="P"
      x1="202.88"
      x2="202.88"
      y1="89.48"
      y2="113.31"
      gradientUnits="userSpaceOnUse"
    >
      <stop stop-color="#fff" stop-opacity=".1" />
      <stop offset="1" stop-color="#fff" stop-opacity="0" />
    </linearGradient>
    <linearGradient
      id="Q"
      x1="234.7"
      x2="234.7"
      y1="89.48"
      y2="113.31"
      gradientUnits="userSpaceOnUse"
    >
      <stop stop-color="#fff" stop-opacity=".1" />
      <stop offset="1" stop-color="#fff" stop-opacity="0" />
    </linearGradient>
    <linearGradient
      id="R"
      x1="222.79"
      x2="246.62"
      y1="101.39"
      y2="101.39"
      gradientUnits="userSpaceOnUse"
    >
      <stop stop-color="#fff" />
      <stop offset="1" stop-color="#146DFF" />
    </linearGradient>
    <linearGradient
      id="S"
      x1="266.53"
      x2="266.53"
      y1="89.48"
      y2="113.31"
      gradientUnits="userSpaceOnUse"
    >
      <stop stop-color="#fff" stop-opacity=".2" />
      <stop offset="1" stop-color="#fff" stop-opacity=".05" />
    </linearGradient>
    <linearGradient
      id="T"
      x1="298.36"
      x2="298.36"
      y1="89.48"
      y2="113.31"
      gradientUnits="userSpaceOnUse"
    >
      <stop stop-color="#fff" stop-opacity=".1" />
      <stop offset="1" stop-color="#fff" stop-opacity="0" />
    </linearGradient>
    <linearGradient
      id="U"
      x1="330.18"
      x2="330.18"
      y1="89.48"
      y2="113.31"
      gradientUnits="userSpaceOnUse"
    >
      <stop stop-color="#fff" stop-opacity=".1" />
      <stop offset="1" stop-color="#fff" stop-opacity="0" />
    </linearGradient>
    <linearGradient
      id="W"
      x1="171.05"
      x2="171.05"
      y1="31.92"
      y2="79.92"
      gradientUnits="userSpaceOnUse"
    >
      <stop stop-color="#292929" />
      <stop offset="1" stop-color="#191919" />
    </linearGradient>
    <linearGradient
      id="X"
      x1="116.05"
      x2="226.05"
      y1="55.92"
      y2="55.92"
      gradientUnits="userSpaceOnUse"
    >
      <stop stop-color="#fff" />
      <stop offset="1" stop-color="#146DFF" />
    </linearGradient>
    <linearGradient
      id="Y"
      x1="207.44"
      x2="227.04"
      y1="61.54"
      y2="95.5"
      gradientUnits="userSpaceOnUse"
    >
      <stop stop-color="#fff" />
      <stop offset="1" stop-color="#4F4F4F" />
    </linearGradient>
    <linearGradient
      id="Z"
      x1="207.44"
      x2="227.04"
      y1="61.54"
      y2="95.5"
      gradientUnits="userSpaceOnUse"
    >
      <stop stop-color="#fff" />
      <stop offset="1" stop-color="#6A6A6A" />
    </linearGradient>
    <filter
      id="V"
      width="134.93"
      height="72.93"
      x="103.58"
      y="19.45"
      color-interpolation-filters="sRGB"
      filterUnits="userSpaceOnUse"
    >
      <feFlood flood-opacity="0" result="BackgroundImageFix" />
      <feColorMatrix
        in="SourceAlpha"
        result="hardAlpha"
        values="0 0 0 0 0 0 0 0 0 0 0 0 0 0 0 0 0 0 127 0"
      />
      <feMorphology
        in="SourceAlpha"
        operator="dilate"
        radius="2.62"
        result="effect1_dropShadow_2970_19075"
      />
      <feOffset />
      <feGaussianBlur stdDeviation="4.92" />
      <feComposite in2="hardAlpha" operator="out" />
      <feColorMatrix values="0 0 0 0 0 0 0 0 0 0 0 0 0 0 0 0 0 0 0.5 0" />
      <feBlend
        in2="BackgroundImageFix"
        result="effect1_dropShadow_2970_19075"
      />
      <feBlend
        in="SourceGraphic"
        in2="effect1_dropShadow_2970_19075"
        result="shape"
      />
    </filter>
  </defs>
</svg>
