<svg xmlns="http://www.w3.org/2000/svg" fill="none" viewBox="0 0 358 150">
  <g clip-path="url(#a)">
    <g filter="url(#b)">
      <rect
        width="82.1742"
        height="82.1742"
        x="134.637"
        y="28.0166"
        fill="url(#c)"
        rx="16"
      />
      <rect
        width="81.6576"
        height="81.6576"
        x="134.895"
        y="28.2749"
        stroke="url(#d)"
        stroke-width=".5167"
        rx="15.7417"
      />
      <g clip-path="url(#e)">
        <path
          fill="#383838"
          stroke="#3D3D3D"
          d="M175.758 45.0571c.06.0019.187.0224.377.0694.182.0452.39.1065.587.1689a18.9755 18.9755 0 0 1 .708.2393l17.113 8.2402v-.001c.007.0036.017.0096.03.0166.027.0143.067.0353.115.0616.098.0528.229.1263.366.2089.139.0833.277.1718.391.2559.057.042.103.0802.139.1123.017.0158.03.029.04.0391.009.0096.012.0146.012.0146l.004.0049s.004.0057.01.0176c.007.0127.016.0299.027.0527.02.0467.043.107.067.1787.048.1438.095.3146.136.4834.04.1674.073.3262.096.4434.012.0584.022.1069.028.1396a.6573.6573 0 0 1 .006.0371c.001.004.002.0069.002.0088v.003l.002.0117.003.0127 4.145 18.1631.005.0214.007.0196v.0009c0 .0011.001.0033.002.0059.001.0058.004.0156.007.0283.008.026.019.0658.033.1172.026.1033.062.2523.093.4307.062.353.105.7986.057 1.2256-.001.002-.001.0044-.002.0068a1.4894 1.4894 0 0 1-.026.0615 2.4131 2.4131 0 0 1-.097.1817c-.082.1403-.187.2979-.294.4492-.106.1501-.21.2885-.287.3896a19.886 19.886 0 0 1-.093.1192c-.011.0138-.02.0241-.025.0312a.0512.0512 0 0 0-.006.0078c-.001.0008-.002.0016-.002.002v.001l-.001.0009-12.081 15.1553-.013.0166-.012.0186-.014.0205a4.9532 4.9532 0 0 1-.216.2881c-.142.1762-.296.3369-.415.4209-.013.0035-.05.0145-.121.0253-.105.0158-.234.0257-.367.0303a6.9872 6.9872 0 0 1-.349.003 5.7262 5.7262 0 0 1-.109-.003l-.03-.001h-.008l-.011-.0009h-20.081l-.034.0049h-.001c-.001.0001-.002.0007-.004.0009a3.1912 3.1912 0 0 1-.114.0117c-.077.007-.18.0137-.288.0137-.11 0-.209-.0068-.283-.0215-.027-.0053-.044-.0113-.054-.0146l-.032-.0322-.072-.0362-.023-.0156a1.105 1.105 0 0 1-.067-.0566 2.5515 2.5515 0 0 1-.169-.1739 4.1722 4.1722 0 0 1-.14-.167c-.018-.022-.032-.0407-.041-.0527-.005-.0056-.008-.0099-.01-.0127-.001-.0014-.003-.0024-.003-.0029l-.01-.0137-12.695-15.7949-.319-.499-.24-.4805-.023-.0606c-.02-.0671-.029-.1538-.027-.249.002-.0575.008-.1077.013-.1426.003-.0169.005-.0297.007-.0371 0-.0019.001-.0037.001-.0048l.134-.587 4.437-19.4433c.001-.0049.004-.0118.006-.0205.005-.02.013-.0497.022-.086.02-.0729.049-.1721.083-.2773.034-.1063.072-.2126.11-.3027.019-.045.037-.0819.053-.1104.016-.0297.024-.042.024-.042h.001a.329.329 0 0 1 .034-.0322c.027-.0231.063-.0512.108-.083.089-.064.198-.1338.306-.1992a9.3388 9.3388 0 0 1 .376-.2129c.011-.0057.019-.0099.025-.0127.002-.0011.002-.0033.004-.0039l17.408-8.3848c.007-.0024.015-.0046.024-.0078.035-.0122.087-.0297.15-.0508.126-.0422.298-.0984.483-.1543.186-.0561.379-.1105.55-.1504.176-.0413.291-.0576.342-.0586Z"
        />
        <path
          fill="#F2F2F2"
          d="M193.145 72.9302c-.923-.2098-1.091-.042-2.328-.2727a2.5275 2.5275 0 0 1-1.602-.8809h-.013a13.5254 13.5254 0 0 0-2.106-9.2157l.021-.0167a3.4399 3.4399 0 0 1 1.066-1.485c1.011-.7466 1.237-.6669 1.975-1.2584.571-.4572.756-1.1745.407-1.6107-.352-.4363-1.09-.4195-1.661.0377-.738.5873-.713.8264-1.665 1.6485a2.5152 2.5152 0 0 1-1.69.7047l-.017.0126a13.5523 13.5523 0 0 0-8.549-4.115v-.0587a3.4555 3.4555 0 0 1-.503-1.7617c.046-1.2584.251-1.3843.251-2.3281 0-.7299-.449-1.3213-1.006-1.3213-.558 0-1.007.5914-1.007 1.3213 0 .9438.205 1.0739.252 2.3281.016.4446 0 1.1325-.504 1.7617v.0587a13.5626 13.5626 0 0 0-8.62 4.1947 3.4285 3.4285 0 0 1-1.606-.6879c-.957-.8264-.923-1.0613-1.666-1.6485-.57-.4572-1.313-.474-1.661-.042-.344.4405-.163 1.162.407 1.6234.738.5872.965.5033 1.976 1.2584.348.2517.851.6795 1.048 1.4178a13.5208 13.5208 0 0 0-2.084 9.2702c-.43.3934-.952.6706-1.519.8054-1.237.2307-1.405.0629-2.324.2685-.713.1552-1.191.7256-1.065 1.2668.126.5453.801.8515 1.51.6879.923-.2097.998-.4363 2.215-.7634a2.5788 2.5788 0 0 1 1.707.0419 13.633 13.633 0 0 0 5.927 7.4791l-.071.1259a3.4582 3.4582 0 0 1-.311 1.8037c-.587 1.1157-.826 1.1325-1.237 1.9882-.315.6586-.168 1.3843.336 1.6276.503.2433 1.161-.0923 1.48-.7551.407-.8473.281-1.0486.785-2.2064a2.532 2.532 0 0 1 1.216-1.3674l.059-.1301a13.6318 13.6318 0 0 0 9.681-.0671 3.405 3.405 0 0 1 1.024 1.2291c.503 1.1577.377 1.359.78 2.2064.319.6585.981.9941 1.481.755.503-.2391.65-.969.335-1.6275-.411-.8474-.65-.8809-1.237-1.9883a2.6135 2.6135 0 0 1-.353-1.5646 13.6252 13.6252 0 0 0 5.965-7.4582h.009a3.4365 3.4365 0 0 1 1.828-.1006c1.217.3271 1.292.5537 2.215.7634.713.1636 1.384-.1468 1.51-.6879.126-.5453-.352-1.1074-1.061-1.2668Zm-9.786-10.5916c-1.917 1.4598-4.069 2.9237-5.202 3.4061a4.982 4.982 0 0 0-.587-.2852c-.251-.9648-.491-3.6914-.574-6.1956a10.7922 10.7922 0 0 1 6.363 3.0747Zm-6.837 6.011 1.027 1.2332-.314 1.5772-1.431.7299-1.464-.6628-.394-1.5562.973-1.2794 1.603-.0419Zm-2.047-9.0941c-.059 2.4287-.261 5.0336-.592 6.1998a4.8317 4.8317 0 0 0-.675.3397c-1.02-.5033-3.23-1.9799-5.151-3.4186 1.72-1.7366 3.985-2.8356 6.418-3.1167v-.0042Zm-9.573 10.751c0-1.9967.546-3.9598 1.594-5.6628 1.842 1.5352 3.75 3.3054 4.505 4.3205a4.909 4.909 0 0 0-.125.5998c-1.032.4866-3.574 1.292-5.907 1.9002a11.1954 11.1954 0 0 1-.067-1.1577Zm5 9.1234a10.8452 10.8452 0 0 1-4.379-5.5076c2.307-.4782 4.853-.8641 6.154-.8389.113.1677.239.3313.377.4823-.126.8725-1.111 3.4984-2.152 5.8642Zm5.823 1.6989a10.8235 10.8235 0 0 1-3.549-.5957c1.132-2.2022 2.466-4.4883 3.251-5.3272.257.0172.515.013.772-.0126.734.9815 2.055 3.2383 3.129 5.3188a10.8261 10.8261 0 0 1-3.603.6167Zm5.855-1.7199c-.973-2.1309-1.921-4.5134-2.206-5.818.143-.1594.273-.3272.394-.5033 1.053-.0168 3.734.3565 6.158.8263-.797 2.2651-2.328 4.1947-4.346 5.495Zm4.908-7.9489c-2.341-.5872-4.832-1.3632-5.914-1.9463a4.9164 4.9164 0 0 0-.135-.5873c.621-.8221 2.601-2.7013 4.493-4.3121a10.7698 10.7698 0 0 1 1.552 6.8457h.004Z"
        />
      </g>
    </g>
    <path
      stroke="url(#f)"
      d="m364.812 169.762-10.623-18.398H219.583l-22.059-22.059v-19.108"
    />
    <path
      stroke="url(#g)"
      d="m280.689 177.817-10.622-18.398h-54.592l-29.049-29.05v-20.173"
    />
    <path
      stroke="url(#h)"
      d="m282.373 186.963-10.622-18.398h-59.917l-36.529-38.2v-20.173"
    />
    <path stroke="url(#i)" d="M142.97 164.593V147.67l10.161-17.307v-20.172" />
    <path
      fill="#27272A"
      d="M151.581 110.191h3.0984v10.4674h-3.0984zM162.68 110.191h3.0984v10.4674H162.68zM173.778 110.191h3.0984v10.4674h-3.0984zM184.876 110.191h3.0984v10.4674h-3.0984zM195.975 110.191h3.0984v10.4674h-3.0984z"
    />
    <path
      stroke="url(#k)"
      d="m-14.6294-32.7056 10.6222 18.3981H130.599l22.059 22.0588v20.1728"
    />
    <path
      stroke="url(#l)"
      d="M-8.6998-39.6966 1.9223-21.2985l133.0117.0009 29.05 29.0496v20.1727"
    />
    <path
      stroke="url(#m)"
      d="m72.5042-46.8439 10.6221 18.3981 63.1337.0062 29.05 36.196v20.1728"
    />
    <path stroke="url(#n)" d="M157.585-45.3613v16.9227l29.05 36.196v20.1728" />
    <path
      stroke="url(#o)"
      d="m212.696-31.0304-.001 27.3869-14.734 11.4012v20.1728"
    />
    <path
      fill="#27272A"
      d="M150.995 17.5493h3.3257v10.4674h-3.3257zM162.321 17.5493h3.3257v10.4674h-3.3257zM173.647 17.5493h3.3257v10.4674h-3.3257zM184.972 17.543h3.3257v10.4674h-3.3257zM196.298 17.543h3.3257v10.4674h-3.3257z"
    />
    <path
      stroke="url(#p)"
      d="M-54.2445 8.0002 13.6653 8l69.1215 40.0515 51.8442-.0005"
    />
    <path
      stroke="url(#q)"
      d="m-41.2689 17.19 46.5981-.0001 77.458 42.0198 51.8438-.0005"
    />
    <path
      stroke="url(#r)"
      d="m-53.348 69.9585 40.277.0001h95.8639l51.8441-.0006"
    />
    <path
      stroke="url(#s)"
      d="M34.1121 161.283v-55.711l25.8021-15.5104 74.7218.0006"
    />
    <path
      stroke="url(#t)"
      d="m-15.5262 173.536 40.6307-40.631V98.5353l31.1397-17.9238 78.3918.0007"
    />
    <path
      fill="#27272A"
      d="M134.625 46.5518v3.3257h-10.4674v-3.3257zM134.625 57.606v3.3257h-10.4674V57.606zM134.625 67.7395v3.3257h-10.4674v-3.3257zM134.631 78.9495v3.3257h-10.4674v-3.3257zM134.631 88.3577v3.3257h-10.4674v-3.3257z"
    />
    <path stroke="url(#v)" d="M28.2461 96.9796 56.116 80.5481h41.9254" />
    <path
      stroke="url(#w)"
      d="m357.527-132-18.398 10.622V13.2288l-70.468 35.0285-51.844-.0005"
    />
    <path
      stroke="url(#x)"
      d="m364.518-126.238-18.398 10.622-.001 133.0117-77.458 42.0198-51.844-.0005"
    />
    <path
      stroke="url(#y)"
      d="m371.664-45.6108-18.398 10.6222-.006 63.1333-84.605 42.0199-51.844-.0006"
    />
    <path
      stroke="url(#z)"
      d="M370.182 132.287H353.26l-84.605-42.02-51.844.0005"
    />
    <path stroke="url(#A)" d="M370.182 80.8173H268.655l-51.844.0006" />
    <path
      fill="#27272A"
      d="M227.285 46.7583v3.3257h-10.4674v-3.3257zM227.285 57.8125v3.3257h-10.4674v-3.3257zM227.285 68.4844v3.3257h-10.4674v-3.3257zM227.291 79.156v3.3257h-10.4674V79.156zM227.291 88.5642v3.3257h-10.4674v-3.3257z"
    />
    <path stroke="url(#B)" d="m299.841 54.888-30.625 15.2766-41.925-.0001" />
    <path stroke="url(#C)" d="M299.835 105.504 269.21 90.227l-41.925.0001" />
  </g>
  <defs>
    <linearGradient
      id="c"
      x1="175.724"
      x2="175.724"
      y1="28.0166"
      y2="110.191"
      gradientUnits="userSpaceOnUse"
    >
      <stop stop-color="#292929" />
      <stop offset="1" stop-color="#191919" />
    </linearGradient>
    <linearGradient
      id="d"
      x1="134.637"
      x2="216.811"
      y1="69.1037"
      y2="69.1037"
      gradientUnits="userSpaceOnUse"
    >
      <stop stop-color="#fff" />
      <stop offset="1" stop-color="#146DFF" />
    </linearGradient>
    <linearGradient
      id="f"
      x1="281.168"
      x2="281.168"
      y1="169.762"
      y2="110.197"
      gradientUnits="userSpaceOnUse"
    >
      <stop stop-color="#27272A" stop-opacity="0" />
      <stop offset="1" stop-color="#27272A" />
    </linearGradient>
    <linearGradient
      id="g"
      x1="233.557"
      x2="233.557"
      y1="177.816"
      y2="110.196"
      gradientUnits="userSpaceOnUse"
    >
      <stop stop-color="#27272A" stop-opacity="0" />
      <stop offset="1" stop-color="#27272A" />
    </linearGradient>
    <linearGradient
      id="h"
      x1="228.839"
      x2="228.839"
      y1="186.963"
      y2="110.192"
      gradientUnits="userSpaceOnUse"
    >
      <stop stop-color="#27272A" stop-opacity="0" />
      <stop offset="1" stop-color="#27272A" />
    </linearGradient>
    <linearGradient
      id="i"
      x1="148.05"
      x2="148.05"
      y1="164.593"
      y2="110.191"
      gradientUnits="userSpaceOnUse"
    >
      <stop stop-color="#27272A" stop-opacity="0" />
      <stop offset="1" stop-color="#27272A" />
    </linearGradient>
    <linearGradient
      id="j"
      x1="164.229"
      x2="164.229"
      y1="174.476"
      y2="110.191"
      gradientUnits="userSpaceOnUse"
    >
      <stop stop-color="#27272A" stop-opacity="0" />
      <stop offset="1" stop-color="#27272A" />
    </linearGradient>
    <linearGradient
      id="k"
      x1="69.0144"
      x2="69.0144"
      y1="-32.7056"
      y2="27.9241"
      gradientUnits="userSpaceOnUse"
    >
      <stop stop-color="#27272A" stop-opacity="0" />
      <stop offset="1" stop-color="#27272A" />
    </linearGradient>
    <linearGradient
      id="l"
      x1="77.642"
      x2="77.642"
      y1="-39.6965"
      y2="27.9247"
      gradientUnits="userSpaceOnUse"
    >
      <stop stop-color="#27272A" stop-opacity="0" />
      <stop offset="1" stop-color="#27272A" />
    </linearGradient>
    <linearGradient
      id="m"
      x1="123.907"
      x2="123.907"
      y1="-46.8438"
      y2="27.9292"
      gradientUnits="userSpaceOnUse"
    >
      <stop stop-color="#27272A" stop-opacity="0" />
      <stop offset="1" stop-color="#27272A" />
    </linearGradient>
    <linearGradient
      id="n"
      x1="172.11"
      x2="172.11"
      y1="-45.3613"
      y2="27.9302"
      gradientUnits="userSpaceOnUse"
    >
      <stop stop-color="#27272A" stop-opacity="0" />
      <stop offset="1" stop-color="#27272A" />
    </linearGradient>
    <linearGradient
      id="o"
      x1="205.328"
      x2="205.328"
      y1="-31.0303"
      y2="27.9305"
      gradientUnits="userSpaceOnUse"
    >
      <stop stop-color="#27272A" stop-opacity="0" />
      <stop offset="1" stop-color="#27272A" />
    </linearGradient>
    <linearGradient
      id="p"
      x1="-54.2445"
      x2="134.631"
      y1="28.0257"
      y2="28.0257"
      gradientUnits="userSpaceOnUse"
    >
      <stop stop-color="#27272A" stop-opacity="0" />
      <stop offset="1" stop-color="#27272A" />
    </linearGradient>
    <linearGradient
      id="q"
      x1="-41.2689"
      x2="134.631"
      y1="38.1998"
      y2="38.1998"
      gradientUnits="userSpaceOnUse"
    >
      <stop stop-color="#27272A" stop-opacity="0" />
      <stop offset="1" stop-color="#27272A" />
    </linearGradient>
    <linearGradient
      id="r"
      x1="-53.348"
      x2="134.637"
      y1="69.9583"
      y2="69.9583"
      gradientUnits="userSpaceOnUse"
    >
      <stop stop-color="#27272A" stop-opacity="0" />
      <stop offset="1" stop-color="#27272A" />
    </linearGradient>
    <linearGradient
      id="s"
      x1="34.1121"
      x2="134.636"
      y1="125.672"
      y2="125.672"
      gradientUnits="userSpaceOnUse"
    >
      <stop stop-color="#27272A" stop-opacity="0" />
      <stop offset="1" stop-color="#27272A" />
    </linearGradient>
    <linearGradient
      id="t"
      x1="-15.5262"
      x2="134.636"
      y1="127.074"
      y2="127.074"
      gradientUnits="userSpaceOnUse"
    >
      <stop stop-color="#27272A" stop-opacity="0" />
      <stop offset="1" stop-color="#27272A" />
    </linearGradient>
    <linearGradient
      id="u"
      x1="-23.348"
      x2="91.3447"
      y1="69.958"
      y2="69.958"
      gradientUnits="userSpaceOnUse"
    >
      <stop stop-opacity="0" />
      <stop offset=".4952" stop-color="#8AB7FF" />
      <stop offset=".9808" stop-opacity="0" />
    </linearGradient>
    <linearGradient
      id="v"
      x1="25.652"
      x2="98.0414"
      y1="79.958"
      y2="79.958"
      gradientUnits="userSpaceOnUse"
    >
      <stop stop-opacity="0" />
      <stop offset=".4952" stop-color="#8AB7FF" />
      <stop offset=".9808" stop-opacity="0" />
    </linearGradient>
    <linearGradient
      id="w"
      x1="357.527"
      x2="216.818"
      y1="-41.8713"
      y2="-41.8713"
      gradientUnits="userSpaceOnUse"
    >
      <stop stop-color="#27272A" stop-opacity="0" />
      <stop offset="1" stop-color="#27272A" />
    </linearGradient>
    <linearGradient
      id="x"
      x1="364.518"
      x2="216.817"
      y1="-33.4114"
      y2="-33.4114"
      gradientUnits="userSpaceOnUse"
    >
      <stop stop-color="#27272A" stop-opacity="0" />
      <stop offset="1" stop-color="#27272A" />
    </linearGradient>
    <linearGradient
      id="y"
      x1="371.664"
      x2="216.811"
      y1="12.2769"
      y2="12.2769"
      gradientUnits="userSpaceOnUse"
    >
      <stop stop-color="#27272A" stop-opacity="0" />
      <stop offset="1" stop-color="#27272A" />
    </linearGradient>
    <linearGradient
      id="z"
      x1="370.182"
      x2="216.811"
      y1="111.277"
      y2="111.277"
      gradientUnits="userSpaceOnUse"
    >
      <stop stop-color="#27272A" stop-opacity="0" />
      <stop offset="1" stop-color="#27272A" />
    </linearGradient>
    <linearGradient
      id="A"
      x1="370.182"
      x2="216.811"
      y1="80.8176"
      y2="80.8176"
      gradientUnits="userSpaceOnUse"
    >
      <stop stop-color="#27272A" stop-opacity="0" />
      <stop offset="1" stop-color="#27272A" />
    </linearGradient>
    <linearGradient
      id="B"
      x1="299.68"
      x2="227.291"
      y1="70.7546"
      y2="70.7546"
      gradientUnits="userSpaceOnUse"
    >
      <stop stop-opacity="0" />
      <stop offset=".4952" stop-color="#8AB7FF" />
      <stop offset=".9808" stop-opacity="0" />
    </linearGradient>
    <linearGradient
      id="C"
      x1="299.674"
      x2="227.285"
      y1="89.637"
      y2="89.637"
      gradientUnits="userSpaceOnUse"
    >
      <stop stop-opacity="0" />
      <stop offset=".4952" stop-color="#8AB7FF" />
      <stop offset=".9808" stop-opacity="0" />
    </linearGradient>
    <linearGradient
      id="D"
      x1="325.988"
      x2="268.999"
      y1="26.3541"
      y2="59.2566"
      gradientUnits="userSpaceOnUse"
    >
      <stop stop-opacity="0" />
      <stop offset=".4952" stop-color="#8AB7FF" />
      <stop offset=".9808" stop-opacity="0" />
    </linearGradient>
    <clipPath id="a"><path fill="#fff" d="M0 0h357.333v150H0z" /></clipPath>
    <clipPath id="e">
      <path fill="#fff" d="M150.561 43.9404h50.3265v50.3265H150.561z" />
    </clipPath>
    <filter
      id="b"
      width="107.106"
      height="107.106"
      x="122.171"
      y="15.5507"
      color-interpolation-filters="sRGB"
      filterUnits="userSpaceOnUse"
    >
      <feFlood flood-opacity="0" result="BackgroundImageFix" />
      <feColorMatrix
        in="SourceAlpha"
        result="hardAlpha"
        values="0 0 0 0 0 0 0 0 0 0 0 0 0 0 0 0 0 0 127 0"
      />
      <feMorphology
        in="SourceAlpha"
        operator="dilate"
        radius="2.6244"
        result="effect1_dropShadow_3245_7725"
      />
      <feOffset />
      <feGaussianBlur stdDeviation="4.9207" />
      <feComposite in2="hardAlpha" operator="out" />
      <feColorMatrix values="0 0 0 0 0 0 0 0 0 0 0 0 0 0 0 0 0 0 0.5 0" />
      <feBlend in2="BackgroundImageFix" result="effect1_dropShadow_3245_7725" />
      <feBlend
        in="SourceGraphic"
        in2="effect1_dropShadow_3245_7725"
        result="shape"
      />
    </filter>
  </defs>
</svg>
