<svg xmlns="http://www.w3.org/2000/svg" fill="none" viewBox="0 0 358 147">
  <g clip-path="url(#a)">
    <rect
      width="270"
      height="270"
      x="43.83"
      y="-61.93"
      stroke="url(#b)"
      stroke-opacity=".4"
      rx="135"
    />
    <rect
      width="178"
      height="178"
      x="89.83"
      y="-15.93"
      stroke="url(#c)"
      stroke-opacity=".4"
      rx="89"
    />
    <rect
      width="102"
      height="102"
      x="127.83"
      y="22.07"
      stroke="url(#d)"
      stroke-opacity=".4"
      rx="51"
    />
    <rect width="59" height="59" x="9.17" y="44" fill="url(#e)" rx="29.5" />
    <rect width="59" height="59" x="9.17" y="44" stroke="url(#f)" rx="29.5" />
    <path
      fill="#fff"
      d="M28.7 64.76a12.3 12.3 0 0 1 17.44 0 12.37 12.37 0 0 1-8.72 21.1 12.3 12.3 0 0 1-8.72-3.62l-7.87-7.9a1.2 1.2 0 0 1 0-1.69l7.87-7.89Zm15.57 2.32a9.04 9.04 0 0 0-12.8 0l-5.79 5.8a.88.88 0 0 0 0 1.24l5.8 5.8a9.04 9.04 0 0 0 15.45-6.42 9.1 9.1 0 0 0-2.65-6.42Zm-6.33.33a6.14 6.14 0 0 1 6.1 6.18 6.14 6.14 0 0 1-6.1 6.18 6.14 6.14 0 0 1-6.1-6.18 6.14 6.14 0 0 1 6.1-6.18Zm18.56 5.34L53 69.22a.3.3 0 0 0-.5.28c.6 2.7.6 5.49 0 8.18-.07.3.29.48.5.28l3.5-3.52a1.2 1.2 0 0 0 0-1.69Z"
      opacity=".9"
    />
    <rect width="59" height="59" x="79.17" y="44" fill="url(#g)" rx="29.5" />
    <rect width="59" height="59" x="79.17" y="44" stroke="url(#h)" rx="29.5" />
    <path
      fill="#939393"
      d="M123.29 82.84c-1.9-.06-3.34.12-4.58.64-.35.15-.91.15-.97.6.2.2.22.5.38.75.3.48.79 1.12 1.23 1.45.5.37 1 .76 1.51 1.08.93.57 1.97.89 2.86 1.46.53.33 1.05.75 1.56 1.13.26.18.43.47.76.6v-.06c-.18-.22-.22-.53-.38-.76l-.7-.7a11.5 11.5 0 0 0-2.48-2.37c-.74-.53-2.39-1.24-2.7-2.1l-.05-.05c.52-.06 1.14-.25 1.62-.38.8-.22 1.53-.16 2.37-.38l1.13-.32v-.22c-.42-.43-.72-1-1.18-1.4a34.68 34.68 0 0 0-3.88-2.9c-.76-.48-1.69-.8-2.48-1.2-.27-.13-.74-.2-.92-.42-.42-.54-.64-1.21-.97-1.84a68.79 68.79 0 0 1-1.94-4.1c-.4-.93-.67-1.85-1.18-2.69-2.45-4.02-5.08-6.45-9.16-8.83-.87-.51-1.92-.71-3.02-.97l-1.78-.11c-.36-.15-.74-.6-1.08-.81-1.35-.85-4.82-2.71-5.82-.27-.63 1.54.95 3.05 1.51 3.83.4.54.9 1.16 1.19 1.77.18.41.22.82.38 1.24.39 1.06.73 2.2 1.23 3.18.26.5.54 1.02.87 1.46.2.27.54.39.59.8-.33.47-.35 1.2-.54 1.78-.84 2.66-.52 5.96.7 7.93.38.6 1.26 1.9 2.48 1.4 1.06-.44.83-1.78 1.13-2.97.07-.27.03-.46.16-.64v.05l.97 1.94c.72 1.16 2 2.36 3.07 3.18.56.42 1 1.15 1.73 1.4v-.05h-.05c-.15-.22-.36-.31-.54-.49-.43-.41-.9-.93-1.24-1.4a32.83 32.83 0 0 1-2.64-4.31c-.38-.72-.71-1.52-1.03-2.26-.12-.29-.12-.72-.38-.87-.34.55-.86.98-1.13 1.62-.43 1.02-.48 2.27-.64 3.56-.1.03-.06 0-.11.05-.75-.18-1.01-.95-1.3-1.61-.7-1.68-.83-4.38-.21-6.3.16-.5.89-2.08.6-2.54-.15-.46-.61-.73-.87-1.08a8.5 8.5 0 0 1-.86-1.5c-.58-1.32-.85-2.78-1.46-4.1-.29-.64-.78-1.27-1.18-1.84-.45-.62-.95-1.08-1.3-1.83-.12-.27-.29-.7-.1-.97.06-.18.14-.26.32-.32.31-.24 1.18.08 1.5.21.87.36 1.6.7 2.33 1.19.35.23.7.68 1.13.8h.48c.76.18 1.61.06 2.32.28 1.25.38 2.38.97 3.4 1.61a21.02 21.02 0 0 1 7.38 8.09c.28.53.4 1.04.64 1.61.5 1.15 1.13 2.33 1.62 3.45.5 1.12.97 2.25 1.67 3.18.37.5 1.78.75 2.42 1.03.46.19 1.2.38 1.62.64.82.5 1.6 1.08 2.37 1.62.39.27 1.56.86 1.62 1.35ZM99.2 62.3c-.4-.01-.67.04-.97.1v.06h.06c.18.38.52.63.75.97l.54 1.13.05-.05c.34-.24.49-.62.49-1.19-.14-.14-.16-.32-.27-.49-.16-.22-.45-.35-.65-.53Z"
      opacity=".9"
    />
    <rect width="59" height="59" x="149.17" y="44" fill="url(#i)" rx="29.5" />
    <rect width="59" height="59" x="149.17" y="44" stroke="url(#j)" rx="29.5" />
    <g opacity=".9">
      <path
        fill="#A4A4A4"
        d="M195.65 82.94c-1.96 1.02-12.1 5.2-14.25 6.33-2.16 1.13-3.36 1.11-5.07.3-1.7-.82-12.49-5.19-14.43-6.12-.97-.46-1.48-.86-1.48-1.23v-3.71s14.04-3.07 16.3-3.88c2.28-.82 3.06-.85 5-.14 1.92.7 13.46 2.8 15.36 3.5v3.66c0 .37-.44.77-1.43 1.29Z"
      />
      <path
        fill="#DFDFDF"
        d="M195.65 79.25c-1.96 1.02-12.1 5.2-14.25 6.32-2.16 1.13-3.36 1.12-5.07.3-1.7-.81-12.49-5.18-14.43-6.11-1.94-.93-1.98-1.57-.08-2.32 1.91-.75 12.64-4.97 14.9-5.79 2.28-.81 3.06-.84 5-.13 1.92.7 12 4.73 13.9 5.42 1.91.7 1.98 1.28.03 2.3Z"
      />
      <path
        fill="#A4A4A4"
        d="M195.65 76.93c-1.96 1.02-12.1 5.2-14.25 6.33-2.16 1.12-3.36 1.11-5.07.3-1.7-.82-12.49-5.19-14.43-6.12-.97-.47-1.48-.86-1.48-1.23v-3.72s14.04-3.06 16.3-3.88c2.28-.81 3.06-.84 5-.13 1.92.7 13.46 2.8 15.36 3.5v3.66c0 .36-.44.77-1.43 1.29Z"
      />
      <path
        fill="#DFDFDF"
        d="M195.65 73.23c-1.96 1.03-12.1 5.2-14.25 6.33-2.16 1.13-3.36 1.12-5.07.3-1.7-.81-12.49-5.18-14.43-6.11-1.94-.94-1.98-1.58-.08-2.33 1.91-.75 12.64-4.96 14.9-5.78 2.28-.82 3.06-.85 5-.14 1.92.71 12 4.73 13.9 5.43 1.91.7 1.98 1.28.03 2.3Z"
      />
      <path
        fill="#A4A4A4"
        d="M195.65 70.7c-1.96 1.01-12.1 5.2-14.25 6.32-2.16 1.13-3.36 1.12-5.07.3-1.7-.82-12.49-5.18-14.43-6.12-.97-.46-1.48-.85-1.48-1.22v-3.72s14.04-3.07 16.3-3.88c2.28-.82 3.06-.85 5-.14 1.92.71 13.46 2.8 15.36 3.5v3.66c0 .37-.44.77-1.43 1.3Z"
      />
      <path
        fill="#DFDFDF"
        d="M195.65 67c-1.96 1.02-12.1 5.2-14.25 6.33-2.16 1.12-3.36 1.11-5.07.3-1.7-.82-12.49-5.19-14.43-6.12-1.94-.93-1.99-1.57-.08-2.32 1.91-.75 12.64-4.97 14.9-5.78 2.28-.82 3.06-.85 4.99-.14 1.93.7 12 4.73 13.91 5.43 1.9.7 1.98 1.28.03 2.3Z"
      />
      <path
        fill="#fff"
        d="m183.23 63.38-3.15.33-.7 1.7-1.15-1.9-3.64-.32 2.72-.99-.82-1.5 2.55 1 2.4-.8-.65 1.57 2.44.91Zm-4.04 8.26-5.89-2.44 8.43-1.3-2.54 3.74Zm-8.16-7.31c2.49 0 4.5.78 4.5 1.75s-2.01 1.75-4.5 1.75c-2.5 0-4.5-.78-4.5-1.75s2-1.75 4.5-1.75Z"
      />
      <path fill="#BEBEBE" d="m186.96 63.85 4.99 1.98-4.99 1.97v-3.95Z" />
      <path fill="#8C8C8C" d="m181.44 66.04 5.52-2.2v3.96l-.54.21-4.98-1.97Z" />
    </g>
    <rect width="59" height="59" x="219.17" y="44" fill="url(#k)" rx="29.5" />
    <rect width="59" height="59" x="219.17" y="44" stroke="url(#l)" rx="29.5" />
    <g opacity=".9">
      <path
        fill="#A4A4A4"
        d="m249.48 91.83-.99-.32s.13-4.98-1.67-5.33c-1.17-1.37.18-58.59 4.49-.2a3.55 3.55 0 0 0-1.75 2 18.52 18.52 0 0 0-.08 3.85Z"
      />
      <path
        fill="#fff"
        d="M250 87.03a17.31 17.31 0 0 0 6.56-17.32c-1.93-8.5-6.49-11.29-6.98-12.35-.42-.67-.78-1.37-1.08-2.1l.37 23.66s-.76 7.24 1.14 8.1Z"
      />
      <path
        fill="#C6C6C6"
        d="M248 87.34s-8.02-5.46-7.56-15.12a20.36 20.36 0 0 1 7.23-15.25 2.25 2.25 0 0 0 .8-1.8c.5 1.07.41 16.03.46 17.78.2 6.8-.37 13.1-.94 14.4Z"
      />
    </g>
    <rect width="59" height="59" x="289.17" y="44" fill="url(#m)" rx="29.5" />
    <rect width="59" height="59" x="289.17" y="44" stroke="url(#n)" rx="29.5" />
    <g opacity=".9">
      <path
        fill="#676767"
        d="M327.7 82.09c.24-2 .17-2.29 1.65-1.97l.38.04a8.6 8.6 0 0 0 3.52-.6c1.89-.87 3.01-2.34 1.15-1.95-4.26.87-4.55-.57-4.55-.57 4.5-6.66 6.37-15.12 4.75-17.2-4.42-5.65-12.08-2.97-12.2-2.9h-.05c-.84-.17-1.78-.28-2.83-.3a7.01 7.01 0 0 0-4.5 1.35s-13.65-5.62-13.02 7.08c.14 2.7 3.88 20.44 8.33 15.08a82.32 82.32 0 0 1 3.2-3.62c.79.52 1.72.79 2.7.7l.08-.07c-.02.24-.01.48.03.76-1.15 1.28-.8 1.5-3.1 1.98-2.33.48-.96 1.33-.07 1.55 1.08.27 3.58.66 5.26-1.7l-.06.26c.45.36.42 2.6.48 4.19.07 1.59.17 3.08.5 3.95.32.88.7 3.14 3.72 2.5 2.52-.55 4.45-1.33 4.63-8.56Z"
      />
      <path
        fill="#676767"
        d="M322.09 92.22c-1.34 0-2.2-.52-2.73-1.02a5.23 5.23 0 0 1-1.3-2.3l-.09-.24c-.38-1.02-.5-2.5-.58-4.4l-.03-.9-.03-.8c-.48.22-.99.38-1.51.47a7.3 7.3 0 0 1-3.01-.15 3.51 3.51 0 0 1-1.96-1.17 3.14 3.14 0 0 1-3.17.75c-1.18-.4-2.24-1.5-3.23-3.37a30.26 30.26 0 0 1-2.02-5.18 48.8 48.8 0 0 1-1.9-8.77c-.19-3.95.88-6.78 3.17-8.4 3.63-2.57 9.12-1.06 11.12-.38a8.71 8.71 0 0 1 4.72-1.17c.96.01 1.87.1 2.72.25.89-.28 2.64-.68 4.64-.66 3.7.05 6.75 1.49 8.85 4.16 1.5 1.91.75 5.93.18 8.15a36.42 36.42 0 0 1-3.96 9.34c.47 0 1.16-.05 2.13-.26 1.91-.4 2.47.64 2.63 1.1.6 1.84-2.04 3.24-2.87 3.62-1.06.5-2.79.8-4.2.73h-.06l-.37-.04-.04.31-.04.3c-.09 3.67-.61 6-1.7 7.53-1.12 1.6-2.7 2.06-4.07 2.35-.48.1-.9.15-1.3.15Zm-2.81-13.35c.86.7.94 1.99 1 4.41l.03.86c.03.81.1 2.7.4 3.5l.13.36c.33 1.01.5 1.52 1.92 1.21 1.2-.26 1.82-.49 2.3-1.17.7-1 1.1-3.02 1.17-5.99l1.46.04-1.45-.17.05-.37c.13-1.2.23-2.05 1.03-2.63.64-.45 1.37-.4 1.95-.3a2.18 2.18 0 0 1-.86-1.29l-.12-.6.34-.5a33.3 33.3 0 0 0 4.47-9.87c.88-3.44.61-5.27.34-5.61-3.58-4.58-9.8-2.7-10.44-2.48l-.11.06-.55.1-.28-.05c-.78-.17-1.64-.25-2.57-.27a5.55 5.55 0 0 0-3.59 1.05l-.66.5-.78-.31c-1.65-.68-6.5-2.04-9.07-.22-1.43 1-2.07 2.98-1.93 5.86.05.96.7 4.57 1.77 8.06 1.47 4.84 2.81 6.45 3.37 6.63.1.04.35-.16.6-.46a82.94 82.94 0 0 1 3.27-3.7l.85-.88 1.02.68c.42.27.87.43 1.34.46l2.44-2.09-.36 3.61c0 .08 0 .2.03.4l.1.68-.46.52-.05.06 1.34.62.56-.7Z"
      />
      <path
        fill="#2B2B2B"
        d="M334.4 77.6c-4.26.88-4.55-.56-4.55-.56 4.5-6.67 6.37-15.13 4.75-17.2-4.42-5.65-12.08-2.98-12.2-2.9h-.05c-.84-.17-1.78-.28-2.84-.3a7.01 7.01 0 0 0-4.49 1.35s-13.65-5.62-13.02 7.07c.14 2.7 3.88 20.45 8.33 15.09a82.74 82.74 0 0 1 3.2-3.62c.79.52 1.72.79 2.7.7l.08-.07c-.02.24-.01.48.03.76-1.15 1.28-.8 1.5-3.1 1.98-2.33.48-.96 1.33-.07 1.55 1.08.27 3.58.66 5.26-1.7l-.06.26c.45.36.76 2.35.71 4.14-.05 1.8-.09 3.04.27 4 .35.97.7 3.14 3.72 2.49 2.52-.54 3.83-1.94 4.01-4.28.13-1.66.42-1.41.44-2.9l.24-.7c.27-2.25.04-2.98 1.6-2.64l.37.03a8.6 8.6 0 0 0 3.52-.59c1.89-.88 3.01-2.34 1.15-1.96Z"
      />
      <path
        fill="#CCC"
        d="M322.27 91.3c-2.51 0-3.31-1.99-3.64-2.8-.47-1.2-.58-5.83-.47-9.63a.48.48 0 0 1 .15-.34.5.5 0 0 1 .7.02l.1.16c.02.06.03.13.02.2-.12 4.37.06 8.34.41 9.23.55 1.38 1.39 2.58 3.75 2.07 2.24-.48 3.08-1.33 3.46-3.5.29-1.66.85-6.4.92-7.33a.49.49 0 0 1 .53-.45.49.49 0 0 1 .45.52c-.08.97-.64 5.7-.94 7.43-.44 2.56-1.58 3.72-4.21 4.29-.45.1-.86.14-1.23.14Zm-13.64-9.72c-.22 0-.43-.04-.64-.11-1.64-.55-3.2-3.2-4.63-7.91a47.61 47.61 0 0 1-1.84-8.53c-.18-3.6.74-6.15 2.75-7.57 3.98-2.82 10.66-.14 10.94-.02a.49.49 0 0 1 0 .9.49.49 0 0 1-.36 0c-.07-.03-6.48-2.6-10.02-.09-1.71 1.22-2.5 3.48-2.34 6.73.05 1.02.7 4.67 1.8 8.3 1.28 4.2 2.74 6.84 4 7.26.2.07.8.27 1.67-.76 1-1.21 2.04-2.39 3.12-3.53a.49.49 0 0 1 .83.33c0 .13-.04.25-.12.35-.02.01-1.49 1.55-3.08 3.47-.76.9-1.48 1.18-2.08 1.18Zm21.22-4.11a.48.48 0 0 1-.43-.26.49.49 0 0 1 .02-.5c4.55-6.74 6.14-14.88 4.77-16.63-1.71-2.2-4.14-3.34-7.2-3.4-2.28-.06-4.08.52-4.38.62l-.07.04a.49.49 0 0 1-.42-.88l.13-.06c.5-.18 2.34-.73 4.6-.7 3.4.03 6.2 1.34 8.11 3.78.9 1.16.9 3.82 0 7.3a35.32 35.32 0 0 1-4.73 10.47.49.49 0 0 1-.4.22Zm.23 3.12c-.77 0-1.47-.11-1.89-.36a.98.98 0 0 1-.52-.79c-.11-2.05 1.02-2.4 1.6-2.57a5.8 5.8 0 0 0-.32-.41c-.33-.42-.8-1-1.15-1.86-.06-.13-.23-.45-.43-.8-1.1-1.97-3.37-6.05-1.9-8.14.67-.97 2.01-1.35 4-1.14-.58-1.77-3.37-7.34-9.96-7.45a6.37 6.37 0 0 0-4.84 1.81c-2.74 2.77-2.64 7.77-2.63 7.82a.5.5 0 0 1-.14.35.49.49 0 0 1-.8-.14.48.48 0 0 1-.04-.18c0-.22-.1-5.47 2.92-8.53a7.31 7.31 0 0 1 5.54-2.1c4.23.07 6.94 2.21 8.48 4 1.67 1.95 2.5 4.1 2.56 4.82.05.53-.33.64-.41.65h-.18c-1.94-.3-3.2-.09-3.71.65-1.11 1.59 1.04 5.45 1.96 7.1.23.42.4.72.48.9.3.74.7 1.23 1.01 1.63.28.35.52.65.6 1 .05.07.62.91 3.99.22.84-.18 1.35-.03 1.5.44.3.92-1.4 2-2.35 2.43-.84.4-2.2.65-3.37.65Zm-1.43-1.23c.1.1.64.3 1.75.25a7.73 7.73 0 0 0 2.64-.55c.8-.37 1.33-.78 1.6-1.07l-.14.03c-2.16.45-3.68.39-4.54-.18a1.66 1.66 0 0 1-.16-.12l-.24.08c-.48.13-.98.28-.91 1.56Zm-13.93 2.72c-.53 0-1.1-.07-1.67-.21-.6-.15-1.6-.6-1.59-1.34.02-.83 1.22-1.07 1.68-1.17 1.63-.33 1.74-.47 2.25-1.12.15-.19.34-.42.59-.7.37-.43.78-.64 1.22-.64.3 0 .55.1.71.17.52.22.96.74 1.14 1.37.16.56.08 1.1-.22 1.53a4.87 4.87 0 0 1-4.1 2.11Zm-2.2-1.5c.14.1.44.26.77.34.5.13.98.19 1.43.19 1.4 0 2.5-.58 3.32-1.71.17-.24.12-.54.07-.7-.1-.33-.33-.63-.57-.73a.95.95 0 0 0-.34-.1c-.06 0-.22 0-.5.31l-.54.66c-.64.81-.93 1.09-2.83 1.48-.46.1-.7.19-.81.25Zm3.75-2.26a.49.49 0 0 1-.48-.4 2.5 2.5 0 0 1-.03-.25 4.77 4.77 0 0 1-3.35-1.5 5.45 5.45 0 0 1-1.44-4.57 21.52 21.52 0 0 0 .09-4.89c0-.15 0-.56 1.37-1.26a7.63 7.63 0 0 1 2.53-.78c1.77-.18 2.93.6 3.28 2.21.94 4.35.07 6.27-.56 7.68-.12.26-.23.5-.32.74l-.08.22c-.33.9-.62 1.66-.53 2.24a.49.49 0 0 1-.4.56h-.08Zm-4.23-11.47.02.34c.05.91.15 2.6-.12 4.55-.2 1.4.23 2.76 1.17 3.75a3.8 3.8 0 0 0 2.74 1.2h.02c.11-.47.3-.97.5-1.52l.08-.2c.1-.28.22-.54.34-.81.6-1.36 1.36-3.04.5-7.07-.18-.8-.6-1.26-1.29-1.42-1.41-.3-3.52.76-3.96 1.18Zm2.94-.21c-.02.17.32.63.76.7.44.06.82-.3.85-.48.02-.17-.32-.36-.76-.42-.45-.06-.82.03-.85.2Zm.86.86h-.12a1.17 1.17 0 0 1-.75-.47c-.06-.09-.17-.26-.15-.41.03-.23.3-.36.73-.36a2.15 2.15 0 0 1 .91.2c.28.16.3.34.29.43-.04.24-.43.61-.9.61Zm-.7-.83c.02.1.28.46.62.5h.08c.32 0 .56-.24.58-.32-.03-.06-.23-.2-.62-.25a1.78 1.78 0 0 0-.25-.02c-.24 0-.38.06-.4.09Zm13.33-.38c.02.17-.32.63-.76.7-.44.05-.82-.3-.85-.48-.02-.17.32-.36.76-.42s.82.03.85.2Zm-.87.78c-.42 0-.79-.33-.82-.55-.03-.26.4-.45.83-.51.1-.02.2-.02.28-.02.38 0 .63.1.66.29.01.11-.08.3-.23.45-.1.1-.31.3-.6.33l-.12.01Zm.3-.92c-.1 0-.18 0-.27.02-.44.06-.7.24-.69.33.02.1.3.4.67.4h.09a.9.9 0 0 0 .5-.28c.14-.14.2-.28.19-.32-.01-.06-.18-.15-.5-.15Zm1.2 10.04a.49.49 0 0 1-.48-.52c0-.08.03-.17.08-.24 1.04-1.55.85-3.14.67-4.66-.08-.66-.16-1.33-.14-1.98.02-.66.1-1.21.18-1.74.1-.63.2-1.22.15-1.93a.5.5 0 0 1 .13-.35.49.49 0 0 1 .85.3c.04.8-.06 1.48-.16 2.13-.08.5-.16 1.02-.18 1.62-.02.58.06 1.19.13 1.83.2 1.63.42 3.47-.82 5.32a.49.49 0 0 1-.4.22Z"
      />
    </g>
    <path fill="url(#o)" d="M0 0h341v147H0z" transform="translate(8.33 -.43)" />
  </g>
  <defs>
    <linearGradient
      id="b"
      x1="178.83"
      x2="178.83"
      y1="-62.43"
      y2="208.57"
      gradientUnits="userSpaceOnUse"
    >
      <stop stop-color="#868690" />
      <stop offset="1" stop-color="#27272A" />
    </linearGradient>
    <linearGradient
      id="c"
      x1="178.83"
      x2="178.83"
      y1="-16.43"
      y2="162.57"
      gradientUnits="userSpaceOnUse"
    >
      <stop stop-color="#868690" />
      <stop offset="1" stop-color="#27272A" />
    </linearGradient>
    <linearGradient
      id="d"
      x1="178.83"
      x2="178.83"
      y1="21.57"
      y2="124.57"
      gradientUnits="userSpaceOnUse"
    >
      <stop stop-color="#868690" />
      <stop offset="1" stop-color="#27272A" />
    </linearGradient>
    <linearGradient
      id="e"
      x1="38.67"
      x2="38.67"
      y1="43.5"
      y2="103.5"
      gradientUnits="userSpaceOnUse"
    >
      <stop stop-color="#292929" />
      <stop offset="1" stop-color="#191919" />
    </linearGradient>
    <linearGradient
      id="f"
      x1="38.67"
      x2="38.67"
      y1="43.5"
      y2="103.5"
      gradientUnits="userSpaceOnUse"
    >
      <stop stop-color="#868690" />
      <stop offset="1" stop-color="#27272A" />
    </linearGradient>
    <linearGradient
      id="g"
      x1="108.67"
      x2="108.67"
      y1="43.5"
      y2="103.5"
      gradientUnits="userSpaceOnUse"
    >
      <stop stop-color="#292929" />
      <stop offset="1" stop-color="#191919" />
    </linearGradient>
    <linearGradient
      id="h"
      x1="108.67"
      x2="108.67"
      y1="43.5"
      y2="103.5"
      gradientUnits="userSpaceOnUse"
    >
      <stop stop-color="#868690" />
      <stop offset="1" stop-color="#27272A" />
    </linearGradient>
    <linearGradient
      id="i"
      x1="178.67"
      x2="178.67"
      y1="43.5"
      y2="103.5"
      gradientUnits="userSpaceOnUse"
    >
      <stop stop-color="#292929" />
      <stop offset="1" stop-color="#191919" />
    </linearGradient>
    <linearGradient
      id="j"
      x1="178.67"
      x2="178.67"
      y1="43.5"
      y2="103.5"
      gradientUnits="userSpaceOnUse"
    >
      <stop stop-color="#868690" />
      <stop offset="1" stop-color="#27272A" />
    </linearGradient>
    <linearGradient
      id="k"
      x1="248.67"
      x2="248.67"
      y1="43.5"
      y2="103.5"
      gradientUnits="userSpaceOnUse"
    >
      <stop stop-color="#292929" />
      <stop offset="1" stop-color="#191919" />
    </linearGradient>
    <linearGradient
      id="l"
      x1="248.67"
      x2="248.67"
      y1="43.5"
      y2="103.5"
      gradientUnits="userSpaceOnUse"
    >
      <stop stop-color="#868690" />
      <stop offset="1" stop-color="#27272A" />
    </linearGradient>
    <linearGradient
      id="m"
      x1="318.67"
      x2="318.67"
      y1="43.5"
      y2="103.5"
      gradientUnits="userSpaceOnUse"
    >
      <stop stop-color="#292929" />
      <stop offset="1" stop-color="#191919" />
    </linearGradient>
    <linearGradient
      id="n"
      x1="318.67"
      x2="318.67"
      y1="43.5"
      y2="103.5"
      gradientUnits="userSpaceOnUse"
    >
      <stop stop-color="#868690" />
      <stop offset="1" stop-color="#27272A" />
    </linearGradient>
    <linearGradient
      id="o"
      x1="0"
      x2="341"
      y1="73.5"
      y2="73.5"
      gradientUnits="userSpaceOnUse"
    >
      <stop stop-color="#0A0A0A" stop-opacity=".8" />
      <stop offset=".47" stop-color="#0A0A0A" stop-opacity="0" />
      <stop offset="1" stop-color="#0A0A0A" stop-opacity=".8" />
    </linearGradient>
    <clipPath id="a"><path fill="#fff" d="M0 0h357.33v147H0z" /></clipPath>
  </defs>
</svg>
