<svg xmlns="http://www.w3.org/2000/svg" fill="none" viewBox="0 0 358 147">
  <g clip-path="url(#a)">
    <g filter="url(#b)">
      <g clip-path="url(#c)">
        <path
          fill="#09090B"
          d="M52.24-21.07c0-5.84 4.73-10.57 10.57-10.57h218.56c5.84 0 10.58 4.73 10.58 10.57v201.01c0 5.84-4.74 10.57-10.58 10.57H62.81a10.58 10.58 0 0 1-10.57-10.57v-201Z"
        />
        <g clip-path="url(#d)">
          <g clip-path="url(#e)" opacity=".8">
            <mask
              id="f"
              width="22"
              height="22"
              x="68"
              y="8"
              maskUnits="userSpaceOnUse"
              style="mask-type: luminance"
            >
              <path
                fill="#fff"
                d="M89.26 18.6a10.58 10.58 0 1 0-21.16 0 10.58 10.58 0 0 0 21.16 0Z"
              />
            </mask>
            <g mask="url(#f)">
              <path fill="#B4F8CC" d="M89.26 8.03H68.1v21.15h21.16V8.03Z" />
              <g filter="url(#g)">
                <path
                  fill="#4294FF"
                  d="m90.13 12.68 1.88-7.6-2.54-7.8-25 8.13 4.44 13.65 5.72.96 7.35-9.81 8.15 2.47Z"
                />
              </g>
              <g filter="url(#h)" style="mix-blend-mode: overlay">
                <path
                  fill="#FFE5F0"
                  d="m81.98 22.53 10.43-5.47-.61-15.04-22.37-7.7-5.7 21.22 8.34 1.15-2.25-8.59 11.35-6.97.81 21.4Z"
                />
              </g>
            </g>
          </g>
          <path
            fill="#A1A1AA"
            d="M100.94 22.6v-7.72h-2.72v-1.03h6.51v1.03h-2.72v7.73h-1.07Zm6.49.16c-.62 0-1.15-.14-1.6-.42a2.8 2.8 0 0 1-1.04-1.19 4.3 4.3 0 0 1-.36-1.81c0-.7.12-1.3.36-1.8.25-.51.59-.9 1.02-1.19.45-.29.97-.43 1.57-.43.57 0 1.07.14 1.5.4.44.27.78.66 1.02 1.17.24.5.37 1.13.37 1.86v.3h-4.75c.04.7.22 1.23.55 1.59.34.35.8.53 1.36.53a1.58 1.58 0 0 0 1.63-1.1l1.11.09a2.77 2.77 0 0 1-2.74 2Zm-1.91-4.01h3.61c-.05-.64-.23-1.1-.55-1.4-.31-.3-.71-.44-1.2-.44-.5 0-.92.15-1.24.47-.33.3-.53.76-.62 1.37Zm8.53 4c-.58 0-1.08-.09-1.49-.28-.4-.19-.72-.45-.95-.78a2.38 2.38 0 0 1-.38-1.14l1.08-.08c.07.4.24.71.5.95.28.23.7.35 1.24.35.45 0 .8-.07 1.06-.21.28-.15.41-.38.41-.7a.73.73 0 0 0-.12-.44c-.08-.11-.25-.21-.48-.3-.24-.08-.6-.17-1.06-.25a6.56 6.56 0 0 1-1.48-.42c-.36-.17-.61-.38-.77-.63a1.76 1.76 0 0 1-.22-.9c0-.59.21-1.06.64-1.43a2.67 2.67 0 0 1 1.83-.57c.53 0 .98.1 1.34.3.37.19.66.44.86.76.22.31.36.66.42 1.04l-1.08.07a1.5 1.5 0 0 0-.27-.6 1.3 1.3 0 0 0-.52-.42c-.22-.1-.47-.16-.77-.16-.47 0-.81.09-1.03.27a.85.85 0 0 0-.34.69c0 .21.05.39.15.53.1.13.28.24.5.33.24.09.55.16.93.23.67.11 1.19.25 1.56.41.37.17.63.37.78.6.14.25.22.54.22.89 0 .4-.12.74-.35 1.03-.22.28-.53.5-.91.64-.38.15-.81.23-1.3.23Zm6.11-.14c-.59 0-1.03-.14-1.32-.41-.28-.27-.42-.7-.42-1.27v-6.4h1.04v6.37c0 .3.07.5.2.62s.33.17.6.17h.94v.92h-1.04Zm-2.7-5.63v-.91h3.74v.91h-3.74Z"
          />
          <g clip-path="url(#i)" opacity=".8">
            <mask
              id="j"
              width="22"
              height="22"
              x="68"
              y="43"
              maskUnits="userSpaceOnUse"
              style="mask-type: luminance"
            >
              <path
                fill="#fff"
                d="M89.25 53.86a10.58 10.58 0 1 0-21.15 0 10.58 10.58 0 0 0 21.15 0Z"
              />
            </mask>
            <g mask="url(#j)">
              <path fill="#FF9E9E" d="M89.25 43.28H68.1v21.15h21.15V43.28Z" />
              <g filter="url(#k)">
                <path
                  fill="#B4F8CC"
                  d="m73.15 60 2.09 6.37 5.38 4.5L95.1 53.63l-9.43-7.9-4.58 1.9-.9 10.46L73.15 60Z"
                />
              </g>
              <g filter="url(#l)" style="mix-blend-mode: overlay">
                <path
                  fill="#4294FF"
                  d="m78.42 48.27-9.77-2.5-8.24 9.93 9.83 17.73 15.8-10.25-4.66-5.51-3.49 6.76-11.23-2.07 11.76-14.1Z"
                />
              </g>
            </g>
          </g>
          <path
            fill="#A1A1AA"
            d="M102.21 58.06c-.67 0-1.26-.13-1.76-.39-.5-.25-.9-.6-1.2-1.05a3.4 3.4 0 0 1-.5-1.56l1.1-.08c.06.44.19.81.39 1.11.2.3.46.54.79.7.33.15.74.23 1.2.23.42 0 .77-.05 1.05-.16.3-.1.51-.26.66-.47.16-.2.23-.46.23-.75 0-.27-.06-.51-.2-.72a1.6 1.6 0 0 0-.72-.58 7.7 7.7 0 0 0-1.58-.53 8.02 8.02 0 0 1-1.62-.57c-.4-.2-.68-.45-.86-.75-.17-.3-.26-.66-.26-1.1 0-.49.11-.92.34-1.3.24-.37.58-.66 1.02-.87a3.5 3.5 0 0 1 1.55-.32c.64 0 1.2.12 1.65.37.47.24.83.57 1.1.99.27.42.44.9.5 1.43l-1.1.07a2.23 2.23 0 0 0-.35-.93c-.17-.28-.4-.5-.71-.66a2.4 2.4 0 0 0-1.11-.23c-.55 0-.98.13-1.3.4-.32.25-.48.58-.48 1 0 .28.06.5.18.68.14.18.37.33.7.47.33.13.8.28 1.41.43.74.18 1.32.4 1.74.66.44.24.75.53.93.86.19.33.28.7.28 1.12a2.28 2.28 0 0 1-1.48 2.2c-.46.2-.99.3-1.59.3Zm6.83-.2c-.6 0-1.04-.14-1.32-.4-.28-.28-.42-.7-.42-1.28V49.8h1.03v6.37c0 .3.07.5.2.61.13.12.33.18.6.18h.94v.9h-1.03Zm-2.7-5.63v-.91h3.73v.91h-3.73Zm6.78 5.78c-.68 0-1.21-.16-1.62-.47-.4-.31-.59-.75-.59-1.31s.17-1 .5-1.32c.32-.32.84-.55 1.56-.68l2.32-.43c0-.55-.13-.96-.4-1.23-.25-.28-.64-.41-1.15-.41-.46 0-.81.1-1.08.3-.26.2-.44.5-.54.87l-1.1-.09c.13-.61.42-1.11.89-1.49a2.8 2.8 0 0 1 1.83-.58c.84 0 1.48.24 1.92.72.45.47.67 1.12.67 1.95v2.7c0 .15.02.25.07.32.06.06.15.09.27.09h.26v.9a.73.73 0 0 1-.16.02 2.13 2.13 0 0 1-.96-.12.87.87 0 0 1-.4-.45 2.2 2.2 0 0 1-.12-.8l.12.03c-.05.28-.2.53-.42.76-.22.22-.5.4-.82.53-.33.13-.68.19-1.05.19Zm.1-.92c.43 0 .8-.08 1.1-.24a1.81 1.81 0 0 0 .97-1.68v-.47l-2.12.4c-.45.08-.75.2-.93.38a.88.88 0 0 0-.24.65c0 .3.1.54.32.72.22.16.52.24.9.24Zm7.34 2.77c-.47 0-.9-.08-1.27-.24-.38-.15-.7-.38-.95-.66a2.28 2.28 0 0 1-.52-1l1.08-.08c.1.3.28.55.52.72.26.18.64.27 1.14.27.59 0 1.04-.12 1.36-.36.32-.24.48-.6.48-1.07v-1.06c-.16.34-.41.62-.76.82-.34.21-.73.31-1.16.31a2.74 2.74 0 0 1-2.49-1.53 3.63 3.63 0 0 1-.36-1.64c0-.62.12-1.17.36-1.64a2.66 2.66 0 0 1 3.68-1.2c.37.2.63.5.77.86v-1.04h1v6.1c0 .5-.12.94-.35 1.3-.23.37-.56.65-.99.84-.43.2-.94.3-1.54.3Zm-.03-3.33c.56 0 1.01-.2 1.35-.58.34-.4.5-.93.52-1.6 0-.46-.07-.85-.23-1.17a1.63 1.63 0 0 0-.65-.75c-.28-.18-.6-.27-.99-.27-.57 0-1.02.2-1.34.6-.31.38-.47.9-.47 1.58s.16 1.21.48 1.6c.33.4.77.59 1.33.59Zm7.3 1.48c-.61 0-1.14-.14-1.6-.42a2.8 2.8 0 0 1-1.03-1.19 4.3 4.3 0 0 1-.36-1.81c0-.7.12-1.3.36-1.8.24-.51.58-.9 1.02-1.19.45-.28.97-.43 1.57-.43.56 0 1.07.14 1.5.4.44.27.78.66 1.02 1.17.24.5.37 1.13.37 1.86v.31h-4.76c.05.7.23 1.23.56 1.58.34.35.79.53 1.36.53.42 0 .77-.1 1.05-.3.28-.2.47-.47.58-.8l1.1.09a2.77 2.77 0 0 1-2.74 2Zm-1.9-4.01h3.61c-.05-.64-.23-1.1-.56-1.4-.3-.3-.7-.44-1.2-.44s-.91.15-1.24.47c-.32.3-.53.76-.62 1.37Z"
          />
        </g>
        <path fill="#09090B" d="M69.86 115.33H87.5v17.63H69.86z" />
        <path
          stroke="#A1A1AA"
          stroke-linecap="round"
          stroke-linejoin="round"
          stroke-width="1.47"
          d="M73.54 124.15h10.28M78.68 119v10.29"
        />
        <path
          fill="#A1A1AA"
          d="M102.56 128.34c-.78 0-1.47-.18-2.06-.54-.6-.37-1.06-.9-1.39-1.58-.32-.68-.49-1.5-.49-2.44 0-.95.17-1.76.5-2.45a3.7 3.7 0 0 1 1.38-1.59 3.8 3.8 0 0 1 2.06-.55c1.06 0 1.88.27 2.46.8.59.54.97 1.26 1.15 2.18l-1.12.08a2.6 2.6 0 0 0-.8-1.48c-.4-.36-.96-.55-1.7-.55a2.59 2.59 0 0 0-2.46 1.66 4.59 4.59 0 0 0-.36 1.9c0 .74.12 1.37.36 1.9.24.52.57.93.99 1.2.42.29.92.43 1.48.43.76 0 1.35-.2 1.77-.6.42-.4.69-.94.8-1.62l1.12.07c-.11.63-.32 1.19-.63 1.67-.32.47-.73.85-1.25 1.12-.5.26-1.11.4-1.81.4Zm5.07-.2v-6.53h.92l.04 1.65-.1-.04c.09-.56.26-.96.54-1.22s.65-.4 1.1-.4h.65v1h-.63c-.33 0-.6.06-.83.18-.21.11-.38.3-.5.53-.1.23-.15.53-.15.89v3.95h-1.04Zm6.74.15a3 3 0 0 1-1.6-.41 2.81 2.81 0 0 1-1.04-1.19 4.3 4.3 0 0 1-.36-1.81c0-.7.12-1.3.36-1.8.24-.52.58-.91 1.02-1.19.44-.29.97-.43 1.57-.43.57 0 1.07.14 1.5.4.44.27.78.66 1.01 1.17.25.5.37 1.13.37 1.86v.3h-4.75c.05.7.23 1.23.56 1.59.34.35.79.53 1.36.53a1.58 1.58 0 0 0 1.63-1.1l1.1.08c-.17.59-.5 1.07-.98 1.45-.48.37-1.06.55-1.75.55Zm-1.92-4h3.62c-.05-.64-.23-1.1-.56-1.4-.3-.3-.7-.44-1.2-.44s-.91.15-1.24.47c-.32.3-.52.76-.62 1.36Zm8.1 4c-.68 0-1.22-.15-1.63-.46-.39-.32-.59-.75-.59-1.31s.17-1 .5-1.32c.33-.32.85-.55 1.56-.68l2.32-.43c0-.55-.13-.97-.4-1.24-.25-.27-.63-.4-1.15-.4-.45 0-.81.1-1.08.3-.26.2-.44.49-.54.87l-1.1-.09c.13-.61.42-1.11.9-1.5a2.8 2.8 0 0 1 1.82-.57c.84 0 1.48.24 1.92.71.45.47.67 1.12.67 1.95v2.7c0 .15.02.26.07.33.06.05.15.08.27.08h.26v.92a.75.75 0 0 1-.16 0c-.07.02-.15.02-.23.02-.3 0-.54-.04-.73-.13a.87.87 0 0 1-.4-.45 2.2 2.2 0 0 1-.12-.8l.13.02c-.06.28-.2.54-.42.77-.23.22-.5.4-.83.53-.33.12-.68.18-1.05.18Zm.09-.9c.44 0 .8-.1 1.11-.26a1.8 1.8 0 0 0 .96-1.67v-.47l-2.12.4c-.44.08-.75.2-.92.38a.88.88 0 0 0-.25.65c0 .3.1.54.32.71.22.17.52.25.9.25Zm6.95.76c-.59 0-1.03-.14-1.32-.41-.28-.27-.42-.7-.42-1.27v-6.4h1.04v6.37c0 .3.06.5.2.62.13.11.33.17.6.17h.94v.92h-1.04Zm-2.7-5.63v-.91h3.74v.91h-3.74Zm7.5 5.77a3 3 0 0 1-1.6-.41 2.81 2.81 0 0 1-1.04-1.19 4.3 4.3 0 0 1-.36-1.81c0-.7.12-1.3.36-1.8.25-.52.59-.91 1.03-1.19.44-.29.96-.43 1.56-.43.57 0 1.07.14 1.5.4.44.27.78.66 1.02 1.17.25.5.37 1.13.37 1.86v.3h-4.75c.04.7.23 1.23.55 1.59.34.35.8.53 1.36.53a1.58 1.58 0 0 0 1.63-1.1l1.11.08a2.77 2.77 0 0 1-2.74 2Zm-1.91-4h3.61c-.05-.64-.23-1.1-.55-1.4-.31-.3-.71-.44-1.2-.44-.5 0-.91.15-1.24.47-.32.3-.53.76-.62 1.36Zm11.15 3.86-2.31-8.76h1.16l1.8 7.3 1.79-7.3h1.2l1.81 7.3 1.79-7.3h1.17l-2.3 8.76h-1.34l-1.73-6.79-1.72 6.79h-1.32Zm11.93.14c-.6 0-1.13-.14-1.58-.41-.45-.28-.8-.68-1.05-1.19a4.17 4.17 0 0 1-.37-1.81c0-.7.13-1.3.37-1.82a2.78 2.78 0 0 1 2.63-1.6 2.79 2.79 0 0 1 2.62 1.6c.24.51.37 1.12.37 1.82 0 .69-.13 1.3-.37 1.81a2.79 2.79 0 0 1-2.62 1.6Zm0-.98c.6 0 1.07-.22 1.4-.64.33-.44.5-1.04.5-1.8a2.8 2.8 0 0 0-.5-1.77c-.33-.44-.8-.65-1.4-.65-.6 0-1.07.21-1.4.65a2.8 2.8 0 0 0-.51 1.78c0 .75.17 1.35.5 1.79.34.42.81.64 1.41.64Zm4.4.84v-6.54h.91l.05 1.65-.1-.04c.09-.56.26-.96.53-1.22.28-.26.65-.4 1.11-.4h.64v1h-.62c-.33 0-.6.06-.83.18-.21.11-.38.3-.5.53-.1.23-.15.53-.15.89v3.95h-1.04Zm4.3 0v-8.76h1.04v5.73l3.18-3.51h1.38l-2.58 2.77 2.7 3.77h-1.26l-2.14-3.06-1.28 1.35v1.7h-1.04Zm9.05.14c-.59 0-1.09-.1-1.5-.28-.4-.19-.72-.45-.95-.78a2.38 2.38 0 0 1-.38-1.14l1.09-.08c.06.4.23.71.5.95.27.23.68.35 1.24.35.44 0 .8-.07 1.06-.21.27-.15.4-.38.4-.7a.73.73 0 0 0-.12-.44c-.08-.11-.24-.21-.48-.3-.24-.08-.6-.17-1.06-.25a6.51 6.51 0 0 1-1.48-.42 1.8 1.8 0 0 1-.77-.63 1.76 1.76 0 0 1-.22-.9c0-.59.21-1.06.64-1.43a2.67 2.67 0 0 1 1.83-.57c.53 0 .98.1 1.34.3.37.18.66.44.87.76.21.31.35.66.42 1.04l-1.09.07a1.5 1.5 0 0 0-.27-.6 1.3 1.3 0 0 0-.52-.42 1.7 1.7 0 0 0-.77-.16c-.46 0-.8.09-1.03.27a.85.85 0 0 0-.33.69c0 .21.05.39.14.53.11.13.28.24.5.33.24.08.55.16.94.22.66.12 1.18.26 1.55.42.37.17.63.37.78.6.15.25.22.54.22.88 0 .4-.12.75-.35 1.04-.22.28-.52.5-.91.64-.38.15-.81.22-1.3.22Zm3.96 1.7v-8.38h.97l.02 1.4-.15-.07c.17-.49.44-.85.82-1.1.38-.25.83-.38 1.33-.38.65 0 1.18.16 1.6.48.41.32.72.74.92 1.26.2.52.3 1.08.3 1.68 0 .6-.1 1.16-.3 1.67-.2.52-.51.94-.93 1.26-.41.32-.94.48-1.6.48a2.6 2.6 0 0 1-.94-.17 2.16 2.16 0 0 1-.74-.48c-.2-.2-.33-.45-.4-.73l.14-.17V130h-1.04Zm2.89-2.68a1.6 1.6 0 0 0 1.34-.64c.33-.43.5-1.03.5-1.8 0-.76-.17-1.36-.5-1.78a1.6 1.6 0 0 0-1.34-.64c-.38 0-.7.09-.99.27a1.8 1.8 0 0 0-.64.81c-.15.36-.22.81-.22 1.35 0 .53.07.98.22 1.34.15.36.36.64.64.82.28.18.61.27.99.27Zm6.26.98c-.67 0-1.21-.15-1.61-.46-.4-.32-.6-.75-.6-1.31s.17-1 .5-1.32c.33-.32.85-.55 1.56-.68l2.32-.43c0-.55-.13-.97-.39-1.24-.25-.27-.64-.4-1.16-.4-.45 0-.81.1-1.07.3-.27.2-.45.49-.55.87l-1.1-.09c.13-.61.43-1.11.9-1.5a2.8 2.8 0 0 1 1.82-.57c.84 0 1.48.24 1.93.71.44.47.66 1.12.66 1.95v2.7c0 .15.03.26.08.33.05.05.14.08.27.08h.26v.92a.75.75 0 0 1-.16 0c-.08.02-.16.02-.24.02-.3 0-.54-.04-.73-.13a.88.88 0 0 1-.4-.45 2.2 2.2 0 0 1-.12-.8l.13.02c-.06.28-.2.54-.42.77-.22.22-.5.4-.83.53-.33.12-.68.18-1.05.18Zm.1-.9c.44 0 .8-.1 1.11-.26a1.8 1.8 0 0 0 .97-1.67v-.47l-2.13.4c-.44.08-.75.2-.92.38a.88.88 0 0 0-.25.65c0 .3.1.54.32.71.22.17.52.25.9.25Zm7.42.9c-.61 0-1.14-.14-1.6-.41a2.81 2.81 0 0 1-1.03-1.19 4.19 4.19 0 0 1-.37-1.81c0-.7.12-1.3.37-1.8a2.8 2.8 0 0 1 2.63-1.62c.5 0 .94.09 1.33.27.4.17.71.43.96.77.25.33.4.74.48 1.23l-1.08.07a1.51 1.51 0 0 0-.57-1c-.3-.23-.68-.35-1.12-.35-.6 0-1.07.21-1.41.65a2.8 2.8 0 0 0-.5 1.78c0 .75.16 1.35.5 1.79.34.42.8.64 1.4.64.45 0 .82-.13 1.13-.37.3-.25.5-.62.57-1.11l1.08.07c-.07.49-.23.9-.48 1.27-.25.36-.57.63-.96.83-.39.2-.83.3-1.33.3Zm6.61 0a3 3 0 0 1-1.6-.41 2.81 2.81 0 0 1-1.04-1.19 4.3 4.3 0 0 1-.36-1.81c0-.7.12-1.3.36-1.8.25-.52.59-.91 1.03-1.19.44-.29.96-.43 1.56-.43.57 0 1.07.14 1.5.4.44.27.78.66 1.02 1.17.24.5.37 1.13.37 1.86v.3h-4.75c.04.7.23 1.23.55 1.59.34.35.8.53 1.36.53.43 0 .78-.1 1.05-.3.28-.2.47-.47.58-.8l1.11.09a2.77 2.77 0 0 1-2.74 2Zm-1.91-4h3.61c-.05-.64-.23-1.1-.55-1.4-.31-.3-.71-.44-1.2-.44-.5 0-.91.15-1.24.47-.32.3-.53.76-.62 1.36Z"
        />
        <path stroke="#27272A" stroke-width=".88" d="M53.12 144.86h237.95" />
      </g>
      <path
        stroke="#27272A"
        stroke-width=".44"
        d="M62.81-31.42h218.56c5.72 0 10.36 4.63 10.36 10.35v201c0 5.73-4.64 10.36-10.36 10.36H62.81a10.36 10.36 0 0 1-10.35-10.35v-201c0-5.73 4.64-10.36 10.35-10.36Z"
      />
    </g>
    <path
      fill="#27272A"
      d="M32.41 76.82a8.78 8.78 0 0 1 8.78-8.78h263.54a8.78 8.78 0 0 1 8.78 8.78v26.36a8.78 8.78 0 0 1-8.78 8.78H41.19a8.78 8.78 0 0 1-8.78-8.78V76.82Z"
    />
    <g clip-path="url(#m)" opacity=".8">
      <mask
        id="n"
        width="27"
        height="26"
        x="43"
        y="77"
        maskUnits="userSpaceOnUse"
        style="mask-type: luminance"
      >
        <path
          fill="#fff"
          d="M69.05 90a12.86 12.86 0 1 0-25.71 0 12.86 12.86 0 0 0 25.71 0Z"
        />
      </mask>
      <g mask="url(#n)">
        <path fill="#4294FF" d="M69.05 77.14H43.34v25.72h25.71V77.14Z" />
        <g filter="url(#o)">
          <path
            fill="#FFE5F0"
            d="m56.2 76.27-7.96-3.85-9.2.96 3.1 29.5 16.12-1.69 2.4-6.08-9.1-10.42 4.63-8.42Z"
          />
        </g>
        <g filter="url(#p)" style="mix-blend-mode: overlay">
          <path
            fill="#03E2DB"
            d="M57.94 85.3 50 74.65l-16.66 3.33-4.63 26.3 24.66 2.6-.19-9.5-9.18 4.04-9.78-11.43 23.72-4.69Z"
          />
        </g>
      </g>
    </g>
    <path
      fill="#FAFAFA"
      d="M81.4 95V84.08h3.91c1.22 0 2.17.3 2.85.88.67.58 1.01 1.4 1.01 2.43 0 .7-.15 1.3-.46 1.81-.3.5-.75.89-1.32 1.16a4.9 4.9 0 0 1-2.08.4h-2.6V95H81.4Zm1.32-5.54h2.6c.81 0 1.43-.17 1.84-.52.42-.35.63-.86.63-1.55 0-.67-.21-1.17-.63-1.5-.41-.35-1.03-.51-1.85-.51h-2.6v4.08ZM91.06 95v-8.15h1.13l.07 2.06-.13-.04c.1-.7.33-1.2.66-1.53.35-.32.81-.49 1.39-.49h.8v1.23h-.79c-.4 0-.75.08-1.03.23-.26.15-.47.37-.61.66-.13.29-.2.66-.2 1.11V95h-1.3Zm8.39.18a3.46 3.46 0 0 1-3.27-2 5.2 5.2 0 0 1-.47-2.25c0-.88.16-1.63.46-2.26a3.46 3.46 0 0 1 3.28-2 3.46 3.46 0 0 1 3.26 2c.3.63.46 1.38.46 2.26a5.2 5.2 0 0 1-.46 2.25 3.46 3.46 0 0 1-3.26 2Zm0-1.23c.75 0 1.33-.26 1.74-.8.42-.54.63-1.28.63-2.22a3.5 3.5 0 0 0-.63-2.22 2.05 2.05 0 0 0-1.74-.81 2.1 2.1 0 0 0-1.75.81 3.49 3.49 0 0 0-.63 2.22c0 .94.2 1.68.63 2.22.42.54 1 .8 1.75.8Zm8.37 1.23c-.7 0-1.32-.17-1.85-.52-.5-.35-.9-.84-1.18-1.47a5.63 5.63 0 0 1-.42-2.26c0-.88.14-1.63.42-2.26.28-.64.67-1.13 1.18-1.48a3.25 3.25 0 0 1 1.85-.52c.54 0 1.04.11 1.49.35.45.23.79.55 1.01.97v-3.9h1.3v10.9h-1.17l-.05-1.22c-.22.44-.57.79-1.03 1.04-.46.25-.98.37-1.55.37Zm.26-1.23c.48 0 .89-.12 1.21-.37.34-.24.6-.59.77-1.04.18-.46.26-1 .26-1.61 0-.64-.08-1.18-.26-1.63-.17-.46-.43-.8-.77-1.03a1.96 1.96 0 0 0-1.21-.37c-.72 0-1.3.27-1.72.81a3.5 3.5 0 0 0-.63 2.22c0 .93.2 1.67.63 2.2.43.55 1 .82 1.72.82Z"
    />
    <path
      stroke="#2563EB"
      stroke-linecap="round"
      stroke-linejoin="round"
      stroke-width="1.46"
      d="m301.8 85.6-8.05 8.06-3.66-3.66"
    />
    <path fill="url(#q)" d="M0 0h358v147H0z" transform="translate(-.33 .07)" />
  </g>
  <defs>
    <filter
      id="b"
      width="264.38"
      height="246.83"
      x="39.9"
      y="-36.93"
      color-interpolation-filters="sRGB"
      filterUnits="userSpaceOnUse"
    >
      <feFlood flood-opacity="0" result="BackgroundImageFix" />
      <feColorMatrix
        in="SourceAlpha"
        result="hardAlpha"
        values="0 0 0 0 0 0 0 0 0 0 0 0 0 0 0 0 0 0 127 0"
      />
      <feMorphology
        in="SourceAlpha"
        radius="8.81"
        result="effect1_dropShadow_3245_7615"
      />
      <feOffset dy="7.05" />
      <feGaussianBlur stdDeviation="10.58" />
      <feComposite in2="hardAlpha" operator="out" />
      <feColorMatrix values="0 0 0 0 0 0 0 0 0 0 0 0 0 0 0 0 0 0 0.2 0" />
      <feBlend in2="BackgroundImageFix" result="effect1_dropShadow_3245_7615" />
      <feBlend
        in="SourceGraphic"
        in2="effect1_dropShadow_3245_7615"
        result="shape"
      />
    </filter>
    <filter
      id="g"
      width="37.89"
      height="33.1"
      x="59.29"
      y="-7.9"
      color-interpolation-filters="sRGB"
      filterUnits="userSpaceOnUse"
    >
      <feFlood flood-opacity="0" result="BackgroundImageFix" />
      <feBlend in="SourceGraphic" in2="BackgroundImageFix" result="shape" />
      <feGaussianBlur
        result="effect1_foregroundBlur_3245_7615"
        stdDeviation="2.59"
      />
    </filter>
    <filter
      id="h"
      width="39.03"
      height="38.58"
      x="58.55"
      y="-10.86"
      color-interpolation-filters="sRGB"
      filterUnits="userSpaceOnUse"
    >
      <feFlood flood-opacity="0" result="BackgroundImageFix" />
      <feBlend in="SourceGraphic" in2="BackgroundImageFix" result="shape" />
      <feGaussianBlur
        result="effect1_foregroundBlur_3245_7615"
        stdDeviation="2.59"
      />
    </filter>
    <filter
      id="k"
      width="30.83"
      height="34.05"
      x="68.71"
      y="41.27"
      color-interpolation-filters="sRGB"
      filterUnits="userSpaceOnUse"
    >
      <feFlood flood-opacity="0" result="BackgroundImageFix" />
      <feBlend in="SourceGraphic" in2="BackgroundImageFix" result="shape" />
      <feGaussianBlur
        result="effect1_foregroundBlur_3245_7615"
        stdDeviation="2.22"
      />
    </filter>
    <filter
      id="l"
      width="34.51"
      height="36.54"
      x="55.97"
      y="41.33"
      color-interpolation-filters="sRGB"
      filterUnits="userSpaceOnUse"
    >
      <feFlood flood-opacity="0" result="BackgroundImageFix" />
      <feBlend in="SourceGraphic" in2="BackgroundImageFix" result="shape" />
      <feGaussianBlur
        result="effect1_foregroundBlur_3245_7615"
        stdDeviation="2.22"
      />
    </filter>
    <filter
      id="o"
      width="33.31"
      height="42.17"
      x="33.2"
      y="66.57"
      color-interpolation-filters="sRGB"
      filterUnits="userSpaceOnUse"
    >
      <feFlood flood-opacity="0" result="BackgroundImageFix" />
      <feBlend in="SourceGraphic" in2="BackgroundImageFix" result="shape" />
      <feGaussianBlur
        result="effect1_foregroundBlur_3245_7615"
        stdDeviation="2.92"
      />
    </filter>
    <filter
      id="p"
      width="40.93"
      height="43.93"
      x="22.86"
      y="68.8"
      color-interpolation-filters="sRGB"
      filterUnits="userSpaceOnUse"
    >
      <feFlood flood-opacity="0" result="BackgroundImageFix" />
      <feBlend in="SourceGraphic" in2="BackgroundImageFix" result="shape" />
      <feGaussianBlur
        result="effect1_foregroundBlur_3245_7615"
        stdDeviation="2.92"
      />
    </filter>
    <clipPath id="a"><path fill="#fff" d="M0 0h357.33v147H0z" /></clipPath>
    <clipPath id="c">
      <path
        fill="#fff"
        d="M52.24-21.07c0-5.84 4.73-10.57 10.57-10.57h218.56c5.84 0 10.58 4.73 10.58 10.57v201.01c0 5.84-4.74 10.57-10.58 10.57H62.81a10.58 10.58 0 0 1-10.57-10.57v-201Z"
      />
    </clipPath>
    <clipPath id="d">
      <path fill="#fff" d="M52.24.98H292.1v105.54H52.24z" />
    </clipPath>
    <clipPath id="e">
      <path fill="#fff" d="M68.1 8.03h21.15v21.15H68.1z" />
    </clipPath>
    <clipPath id="i">
      <path fill="#fff" d="M68.1 43.28h21.15v21.15H68.1z" />
    </clipPath>
    <clipPath id="m">
      <path fill="#fff" d="M43.34 77.14h25.7v25.71h-25.7z" />
    </clipPath>
    <linearGradient
      id="q"
      x1="179"
      x2="179"
      y1="92.66"
      y2="150.39"
      gradientUnits="userSpaceOnUse"
    >
      <stop stop-color="#0A0A0A" stop-opacity="0" />
      <stop offset="1" stop-color="#0A0A0A" />
    </linearGradient>
  </defs>
</svg>
