<svg xmlns="http://www.w3.org/2000/svg" fill="none" viewBox="0 0 358 147">
  <g clip-path="url(#a)">
    <path
      fill="url(#b)"
      d="M0 0h576.9v180.28H0z"
      transform="translate(11.33 12.07)"
    />
    <g filter="url(#c)">
      <rect
        width="576.9"
        height="182.01"
        x="11.33"
        y="12.07"
        fill="#121214"
        rx="11.54"
      />
      <rect
        width="577.62"
        height="182.74"
        x="10.97"
        y="11.71"
        stroke="#fff"
        stroke-opacity=".15"
        stroke-width=".72"
        rx="11.9"
      />
      <rect
        width="577.62"
        height="182.74"
        x="10.97"
        y="11.71"
        stroke="url(#d)"
        stroke-width=".72"
        rx="11.9"
      />
      <g clip-path="url(#e)">
        <rect
          width="559.59"
          height="79.32"
          x="19.99"
          y="23.61"
          fill="#fff"
          fill-opacity=".07"
          rx="8.65"
        />
        <path
          fill="#A1A1AA"
          d="M29.7 45.26v-8.2h2.54c1.26 0 2.23.37 2.9 1.08.7.71 1.03 1.72 1.03 3.04 0 1.3-.33 2.31-1 3.02-.67.7-1.62 1.06-2.86 1.06h-2.6Zm1-.97h1.54c.96 0 1.68-.26 2.17-.77.48-.52.73-1.3.73-2.34 0-1.06-.25-1.84-.73-2.36-.49-.52-1.2-.78-2.17-.78h-1.55v6.25Zm9.47 1.11a2.8 2.8 0 0 1-1.5-.4 2.62 2.62 0 0 1-.97-1.1 4.02 4.02 0 0 1-.34-1.7c0-.64.11-1.2.34-1.68.23-.48.55-.85.95-1.1.42-.28.9-.41 1.47-.41.53 0 1 .12 1.4.38.41.24.73.6.95 1.08.23.48.35 1.06.35 1.75v.28h-4.44c.04.66.2 1.15.52 1.48.31.33.73.5 1.27.5.4 0 .72-.1.98-.28.26-.2.44-.44.54-.75l1.04.08a2.6 2.6 0 0 1-2.56 1.87Zm-1.8-3.75h3.39c-.05-.6-.22-1.03-.52-1.3-.3-.28-.67-.42-1.12-.42-.47 0-.86.15-1.17.44-.3.28-.49.71-.57 1.28Zm7.99 3.75c-.55 0-1.01-.09-1.4-.27a2.2 2.2 0 0 1-.89-.72c-.2-.32-.32-.68-.35-1.08l1.01-.06c.06.36.22.66.48.88.25.22.63.33 1.15.33.41 0 .75-.07 1-.2a.7.7 0 0 0 .37-.66c0-.16-.04-.3-.11-.4-.08-.1-.23-.2-.45-.28a5.81 5.81 0 0 0-1-.24 6.13 6.13 0 0 1-1.38-.4 1.7 1.7 0 0 1-.72-.58c-.13-.24-.2-.52-.2-.84 0-.55.2-1 .6-1.34.4-.36.97-.53 1.7-.53.5 0 .92.09 1.26.27.35.18.62.42.81.72.2.3.33.62.4.97l-1.02.07a1.4 1.4 0 0 0-.26-.57c-.12-.17-.28-.3-.48-.39-.2-.1-.44-.15-.72-.15-.44 0-.76.09-.97.25a.8.8 0 0 0-.3.65c0 .2.04.37.13.5.1.12.26.22.47.3.22.09.5.15.87.22.62.1 1.1.23 1.45.39.35.15.6.34.73.56.14.23.2.5.2.82 0 .38-.1.7-.32.97-.2.26-.49.46-.85.6-.35.14-.76.21-1.21.21Zm6.1 0c-.57 0-1.07-.13-1.49-.4a2.62 2.62 0 0 1-.97-1.1 3.9 3.9 0 0 1-.35-1.7c0-.64.12-1.2.35-1.68A2.62 2.62 0 0 1 52.46 39c.47 0 .88.08 1.24.25.37.16.67.4.9.72.24.31.39.7.45 1.15l-1.01.07c-.07-.4-.25-.72-.53-.93a1.65 1.65 0 0 0-1.05-.34c-.56 0-1 .2-1.32.61-.31.4-.47.96-.47 1.66 0 .71.16 1.27.47 1.68.32.4.76.6 1.32.6.41 0 .76-.12 1.05-.35.28-.23.46-.58.53-1.04l1.01.07c-.06.46-.21.85-.45 1.19-.23.33-.53.59-.9.77a2.7 2.7 0 0 1-1.24.28Zm3.8-.14v-6.11h.85l.05 1.54-.1-.03c.08-.53.25-.9.5-1.14.26-.25.6-.37 1.04-.37h.6v.92h-.59c-.3 0-.57.06-.77.17-.2.11-.36.28-.46.5-.1.21-.15.5-.15.83v3.7h-.97Zm4.02 0v-6.11h.97v6.11h-.97Zm-.02-7.07v-1.13h1.01v1.13h-1.01Zm5.41 7.21c-.42 0-.8-.1-1.13-.28-.33-.19-.58-.45-.76-.78l-.03.92h-.88v-8.2h.97V40c.15-.25.4-.48.71-.68a2.46 2.46 0 0 1 2.52.08c.4.26.7.63.91 1.1.22.48.32 1.05.32 1.7 0 .66-.1 1.22-.32 1.7-.21.48-.52.85-.91 1.1-.4.27-.86.4-1.4.4Zm-.05-.92c.51 0 .92-.2 1.22-.61.3-.41.45-.97.45-1.67s-.15-1.26-.45-1.66c-.3-.4-.7-.6-1.2-.6a1.67 1.67 0 0 0-1.6 1.04c-.13.34-.2.75-.2 1.22s.07.87.2 1.22c.15.33.36.6.62.78.27.18.59.28.96.28Zm6.39.92a2.8 2.8 0 0 1-1.5-.4 2.62 2.62 0 0 1-.97-1.1 4.02 4.02 0 0 1-.34-1.7c0-.64.12-1.2.34-1.68.23-.48.55-.85.96-1.1.41-.28.9-.41 1.46-.41.53 0 1 .12 1.4.38.42.24.73.6.96 1.08.23.48.34 1.06.34 1.75v.28h-4.44c.04.66.21 1.15.52 1.48.31.33.74.5 1.27.5.4 0 .72-.1.98-.28.26-.2.44-.44.54-.75l1.04.08A2.6 2.6 0 0 1 72 45.4Zm-1.8-3.75h3.39c-.05-.6-.22-1.03-.52-1.3-.3-.28-.66-.42-1.12-.42-.47 0-.86.15-1.16.44-.3.28-.5.71-.58 1.28Zm9.98 3.61-1.89-6.11h1.06l1.43 5.1 1.46-5.1h1.04l1.45 5.1 1.44-5.1h1.06l-1.89 6.11h-1.22l-1.36-4.65-1.36 4.65h-1.22Zm8.12 0v-8.2h.97v3.44l-.11-.03c.07-.34.2-.61.39-.83.18-.21.41-.37.68-.47a2.37 2.37 0 0 1 2 .14c.3.19.53.46.69.82.16.34.24.74.24 1.2v3.93h-.97V41.6c0-.59-.1-1.03-.32-1.31-.21-.29-.53-.43-.96-.43-.5 0-.89.15-1.19.45-.3.3-.45.74-.45 1.3v3.65h-.97Zm8.24.14a2.4 2.4 0 0 1-1.5-.44c-.38-.3-.56-.7-.56-1.22s.15-.94.46-1.24c.3-.3.8-.5 1.47-.63l2.16-.4c0-.52-.12-.9-.36-1.16-.24-.25-.6-.38-1.09-.38-.42 0-.76.1-1 .29-.25.18-.42.45-.51.8l-1.03-.07c.12-.58.4-1.05.83-1.4a2.63 2.63 0 0 1 1.71-.54c.79 0 1.39.22 1.8.67.42.44.62 1.04.62 1.82v2.53c0 .14.03.24.07.3.06.05.14.08.26.08h.24v.85a.69.69 0 0 1-.15.01 1.99 1.99 0 0 1-.9-.11.81.81 0 0 1-.37-.42c-.08-.19-.12-.44-.12-.75l.12.03c-.05.26-.18.5-.4.71-.2.2-.46.37-.77.5-.3.11-.63.17-.98.17Zm.1-.85c.4 0 .75-.08 1.03-.23a1.7 1.7 0 0 0 .9-1.57v-.44l-1.98.37c-.42.07-.7.2-.87.35a.83.83 0 0 0-.23.62c0 .28.1.5.3.67.21.15.5.23.85.23Zm6.5.71c-.56 0-.97-.13-1.24-.38-.26-.25-.39-.65-.39-1.19v-5.97h.97v5.95c0 .28.06.47.19.58.12.1.3.16.56.16h.88v.85h-.97ZM100.62 40v-.85h3.5V40h-3.5Zm7.96 7v-.86h.7c.22 0 .37-.04.47-.1.11-.07.2-.17.25-.32l.22-.57h-.34l-2.24-6h1.06l1.83 5.1 1.74-5.1h1.06l-2.48 6.88c-.11.34-.29.58-.52.73-.23.16-.55.23-.96.23h-.8Zm8.01-1.6a2.6 2.6 0 0 1-2.46-1.5 3.9 3.9 0 0 1-.34-1.7c0-.65.11-1.22.35-1.7a2.6 2.6 0 0 1 2.45-1.5 2.6 2.6 0 0 1 2.45 1.5c.23.48.35 1.05.35 1.7a3.9 3.9 0 0 1-.35 1.7 2.6 2.6 0 0 1-2.45 1.5Zm0-.92c.56 0 1-.2 1.3-.6.32-.41.48-.97.48-1.68 0-.7-.16-1.26-.47-1.66-.31-.4-.75-.6-1.3-.6-.57 0-1 .2-1.32.6-.32.4-.47.96-.47 1.66 0 .71.15 1.27.47 1.68.31.4.75.6 1.31.6Zm6.12.92c-.6 0-1.1-.2-1.46-.61a2.51 2.51 0 0 1-.54-1.7v-3.94h.97v3.67c0 .59.1 1.03.3 1.31.22.28.55.42.99.42.48 0 .86-.16 1.14-.47.28-.31.42-.74.42-1.29v-3.64h.97v6.11h-.93v-1.51l.15.08c-.12.5-.36.89-.7 1.17-.35.27-.78.4-1.3.4Zm8.74-.14-1.9-6.11h1.07l1.43 5.1 1.45-5.1h1.04l1.46 5.1 1.44-5.1h1.06l-1.9 6.11h-1.22l-1.36-4.65-1.36 4.65h-1.21Zm9.62.14a2.4 2.4 0 0 1-1.51-.44c-.37-.3-.55-.7-.55-1.22s.15-.94.46-1.24c.3-.3.8-.5 1.46-.63l2.17-.4c0-.52-.12-.9-.37-1.16-.23-.25-.6-.38-1.08-.38-.42 0-.76.1-1 .29-.25.18-.42.45-.51.8l-1.03-.07c.12-.58.4-1.05.83-1.4a2.62 2.62 0 0 1 1.7-.54c.8 0 1.4.22 1.8.67.42.44.63 1.04.63 1.82v2.53c0 .14.03.24.07.3.06.05.14.08.26.08h.24v.85a.69.69 0 0 1-.15.01 1.98 1.98 0 0 1-.9-.11.82.82 0 0 1-.37-.42c-.08-.19-.12-.44-.12-.75l.12.03c-.06.26-.19.5-.4.71-.2.2-.46.37-.77.5-.3.11-.63.17-.98.17Zm.1-.85c.4 0 .75-.08 1.03-.23a1.7 1.7 0 0 0 .9-1.57v-.44l-1.98.37c-.42.07-.7.2-.87.35a.83.83 0 0 0-.23.62c0 .28.1.5.3.67.2.15.49.23.84.23Zm4.56.71v-6.11h.89l.03 1.55-.11-.1c.08-.36.21-.66.4-.89.2-.24.43-.41.7-.53.27-.11.57-.17.88-.17.47 0 .86.1 1.16.3.3.22.53.5.68.85.15.35.23.74.23 1.17v3.93h-.97V41.6c0-.37-.05-.69-.14-.94a1.09 1.09 0 0 0-.41-.6c-.2-.13-.45-.2-.75-.2-.47 0-.86.15-1.17.45-.3.3-.45.72-.45 1.3v3.65h-.97Zm8.48 0c-.55 0-.96-.13-1.23-.38-.26-.25-.4-.65-.4-1.19v-5.97h.97v5.95c0 .28.07.47.19.58.12.1.31.16.56.16h.88v.85h-.97ZM151.68 40v-.85h3.5V40h-3.5Zm9.94 5.26c-.56 0-.97-.13-1.24-.38-.26-.25-.4-.65-.4-1.19v-5.97h.98v5.95c0 .28.06.47.18.58.13.1.31.16.57.16h.87v.85h-.97ZM159.09 40v-.85h3.5V40h-3.5Zm7.01 5.4a2.6 2.6 0 0 1-2.46-1.5 3.92 3.92 0 0 1-.34-1.7c0-.65.11-1.22.34-1.7a2.6 2.6 0 0 1 2.46-1.5 2.6 2.6 0 0 1 2.45 1.5c.23.48.35 1.05.35 1.7a3.9 3.9 0 0 1-.35 1.7 2.6 2.6 0 0 1-2.45 1.5Zm0-.92c.56 0 1-.2 1.3-.6.32-.41.48-.97.48-1.68 0-.7-.16-1.26-.47-1.66-.31-.4-.75-.6-1.3-.6-.57 0-1 .2-1.32.6-.32.4-.47.96-.47 1.66 0 .71.15 1.27.47 1.68.31.4.75.6 1.31.6Zm9.34.92c-.55 0-1.01-.09-1.4-.27a2.2 2.2 0 0 1-.88-.72c-.21-.32-.33-.68-.36-1.08l1.01-.06c.06.36.22.66.48.88.25.22.64.33 1.15.33.41 0 .75-.07 1-.2a.7.7 0 0 0 .37-.66c0-.16-.03-.3-.11-.4-.08-.1-.23-.2-.45-.28a5.8 5.8 0 0 0-1-.24 6.13 6.13 0 0 1-1.38-.4 1.7 1.7 0 0 1-.72-.58c-.13-.24-.2-.52-.2-.84 0-.55.2-1 .6-1.34.4-.36.97-.53 1.7-.53.5 0 .93.09 1.26.27.35.18.62.42.81.72.2.3.33.62.4.97l-1.02.07c-.05-.22-.13-.4-.26-.57-.12-.17-.28-.3-.48-.39-.2-.1-.44-.15-.72-.15-.44 0-.76.09-.97.25a.8.8 0 0 0-.3.65c0 .2.04.37.13.5.1.12.26.22.47.3.22.09.5.15.87.22.62.1 1.1.23 1.45.39.35.15.6.34.73.56.14.23.2.5.2.82 0 .38-.1.7-.31.97-.21.26-.5.46-.86.6-.35.14-.76.21-1.21.21Zm3.71-.14v-8.2h.97v3.44l-.12-.03c.08-.34.21-.61.4-.83.18-.21.4-.37.68-.47a2.37 2.37 0 0 1 2 .14c.3.19.53.46.69.82.16.34.24.74.24 1.2v3.93h-.97V41.6c0-.59-.1-1.03-.32-1.31-.21-.29-.53-.43-.96-.43-.5 0-.89.15-1.19.45-.3.3-.45.74-.45 1.3v3.65h-.97Zm6.6 0v-6.11h.96v6.11h-.97Zm-.03-7.07v-1.13h1.02v1.13h-1.02Zm2.95 8.8v-7.84h.9l.03 1.31-.14-.07c.15-.45.4-.8.76-1.02.36-.24.78-.36 1.24-.36.61 0 1.1.15 1.5.45.38.3.67.69.86 1.17.19.49.29 1.01.29 1.57 0 .57-.1 1.09-.3 1.57a2.35 2.35 0 0 1-2.35 1.63c-.31 0-.6-.05-.88-.16-.27-.11-.5-.26-.7-.45-.18-.2-.3-.42-.38-.68l.14-.16v3.04h-.97Zm2.7-2.51c.53 0 .95-.2 1.26-.6.3-.4.46-.96.46-1.68a2.7 2.7 0 0 0-.46-1.67c-.3-.4-.73-.6-1.26-.6-.35 0-.66.09-.92.25-.25.17-.45.43-.6.77-.14.33-.2.75-.2 1.25s.06.92.2 1.26c.14.34.34.6.6.76.26.17.57.26.92.26Zm3.75.78v-1.3h1.3v1.3h-1.3Zm8 .14a2.8 2.8 0 0 1-1.5-.4 2.63 2.63 0 0 1-.96-1.1 4.02 4.02 0 0 1-.34-1.7c0-.64.12-1.2.34-1.68.23-.48.55-.85.96-1.1.41-.28.9-.41 1.46-.41.53 0 1 .12 1.41.38.4.24.72.6.95 1.08.23.48.34 1.06.34 1.75v.28h-4.44c.04.66.21 1.15.52 1.48.31.33.74.5 1.27.5.4 0 .72-.1.98-.28.26-.2.44-.44.54-.75l1.04.08a2.6 2.6 0 0 1-2.56 1.87Zm-1.78-3.75h3.38c-.05-.6-.22-1.03-.52-1.3-.3-.28-.66-.42-1.12-.42-.47 0-.86.15-1.16.44-.3.28-.5.71-.58 1.28Zm5.45 3.61v-1.3h1.3v1.3h-1.3Zm5.06 1.87c-.44 0-.84-.07-1.2-.22a2.38 2.38 0 0 1-.88-.62c-.24-.27-.4-.58-.48-.94l1.01-.07c.1.29.25.51.49.67.24.17.59.26 1.06.26.55 0 .97-.11 1.27-.34.3-.22.45-.55.45-1v-1a1.7 1.7 0 0 1-.7.78c-.33.2-.7.29-1.1.29a2.56 2.56 0 0 1-2.32-1.43 3.39 3.39 0 0 1-.34-1.54c0-.58.11-1.1.34-1.53a2.49 2.49 0 0 1 3.44-1.13c.34.2.58.47.72.8v-.96h.93v5.7c0 .47-.11.88-.33 1.22-.21.34-.52.6-.92.78-.4.19-.88.28-1.44.28Zm-.03-3.11c.53 0 .95-.19 1.26-.55.32-.37.48-.87.49-1.5 0-.42-.06-.78-.21-1.08-.14-.3-.34-.54-.61-.7a1.66 1.66 0 0 0-.93-.26c-.53 0-.95.19-1.25.55-.3.37-.44.86-.44 1.5 0 .62.15 1.12.45 1.5.3.35.72.54 1.24.54Zm4.14 1.24v-1.3h1.3v1.3h-1.3Zm2.36 1.8.55-1.8h-.59v-1.3h1.3v1.14l-.68 1.96h-.58Zm5.72-1.8v-8.2h1v8.2h-1Zm7.08 0-1.89-6.11h1.06l1.43 5.1 1.46-5.1h1.03l1.46 5.1 1.44-5.1h1.06l-1.89 6.11h-1.22l-1.36-4.65-1.36 4.65h-1.22Zm9.62.14a2.4 2.4 0 0 1-1.5-.44c-.38-.3-.56-.7-.56-1.22s.15-.94.46-1.24c.3-.3.8-.5 1.47-.63l2.16-.4c0-.52-.12-.9-.36-1.16-.24-.25-.6-.38-1.09-.38-.42 0-.76.1-1 .29-.25.18-.42.45-.51.8l-1.03-.07c.12-.58.4-1.05.83-1.4a2.62 2.62 0 0 1 1.71-.54c.79 0 1.39.22 1.8.67.42.44.62 1.04.62 1.82v2.53c0 .14.03.24.07.3.06.05.14.08.26.08h.24v.85a.69.69 0 0 1-.15.01 2 2 0 0 1-.9-.11.81.81 0 0 1-.37-.42c-.08-.19-.11-.44-.11-.75l.11.03c-.05.26-.18.5-.4.71-.2.2-.46.37-.77.5-.3.11-.63.17-.98.17Zm.1-.85c.4 0 .75-.08 1.03-.23a1.7 1.7 0 0 0 .9-1.57v-.44l-1.98.37c-.41.07-.7.2-.86.35a.83.83 0 0 0-.24.62c0 .28.1.5.3.67.21.15.5.23.85.23Zm4.56.71v-6.11h.9l.03 1.55-.12-.1c.08-.36.21-.66.4-.89.2-.24.43-.41.7-.53.28-.11.57-.17.89-.17.47 0 .85.1 1.15.3.3.22.53.5.68.85.16.35.23.74.23 1.17v3.93h-.97V41.6c0-.37-.04-.69-.14-.94a1.09 1.09 0 0 0-.41-.6c-.2-.13-.44-.2-.75-.2-.47 0-.86.15-1.17.45-.3.3-.45.72-.45 1.3v3.65h-.97Zm8.48 0c-.55 0-.96-.13-1.23-.38-.26-.25-.4-.65-.4-1.19v-5.97h.98v5.95c0 .28.06.47.18.58.13.1.31.16.57.16h.87v.85h-.97ZM251.36 40v-.85h3.5V40h-3.5Zm9.93 5.26c-.56 0-.97-.13-1.24-.38-.26-.25-.39-.65-.39-1.19v-5.97h.97v5.95c0 .28.06.47.19.58.12.1.3.16.56.16h.88v.85h-.97ZM258.76 40v-.85h3.5V40h-3.5Zm7.02 5.4a2.6 2.6 0 0 1-2.46-1.5 3.9 3.9 0 0 1-.35-1.7c0-.65.12-1.22.35-1.7a2.6 2.6 0 0 1 2.46-1.5 2.6 2.6 0 0 1 2.45 1.5c.22.48.34 1.05.34 1.7 0 .65-.12 1.22-.35 1.7a2.6 2.6 0 0 1-2.44 1.5Zm0-.92c.56 0 1-.2 1.3-.6.31-.41.47-.97.47-1.68 0-.7-.16-1.26-.47-1.66-.3-.4-.74-.6-1.3-.6-.57 0-1 .2-1.32.6-.31.4-.47.96-.47 1.66 0 .71.15 1.27.47 1.68.32.4.75.6 1.32.6Zm9.28.92c-.54 0-1-.13-1.39-.4a2.52 2.52 0 0 1-.89-1.1 4.22 4.22 0 0 1-.3-1.7c0-.65.1-1.22.3-1.7.21-.47.5-.84.89-1.1.4-.26.85-.4 1.38-.4.41 0 .79.1 1.12.27.34.17.6.41.77.73v-2.93h.96v8.2h-.87l-.04-.93c-.17.33-.42.59-.77.78-.35.19-.73.28-1.17.28Zm.2-.92c.35 0 .66-.1.9-.28.26-.18.45-.45.58-.78.13-.35.2-.75.2-1.22s-.07-.88-.2-1.22c-.13-.34-.32-.6-.58-.77a1.48 1.48 0 0 0-.9-.28c-.55 0-.98.2-1.3.61-.32.4-.47.96-.47 1.66s.15 1.26.47 1.67c.32.4.75.6 1.3.6Zm6.76.92a2.8 2.8 0 0 1-1.5-.4 2.62 2.62 0 0 1-.97-1.1 4.02 4.02 0 0 1-.33-1.7c0-.64.11-1.2.33-1.68.24-.48.55-.85.96-1.1.42-.28.9-.41 1.47-.41.53 0 1 .12 1.4.38.41.24.73.6.95 1.08.23.48.35 1.06.35 1.75v.28h-4.44c.03.66.2 1.15.51 1.48.32.33.74.5 1.27.5a1.47 1.47 0 0 0 1.52-1.03l1.04.08a2.6 2.6 0 0 1-2.56 1.87Zm-1.78-3.75h3.38c-.05-.6-.22-1.03-.52-1.3-.3-.28-.67-.42-1.12-.42-.47 0-.86.15-1.17.44-.3.28-.49.71-.57 1.28Zm5.75 5.34v-7.84h.9l.02 1.31-.14-.07c.16-.45.41-.8.77-1.02.36-.24.77-.36 1.24-.36.61 0 1.1.15 1.5.45.38.3.67.69.86 1.17.19.49.28 1.01.28 1.57 0 .57-.1 1.09-.28 1.57-.19.49-.48.88-.87 1.18-.38.3-.88.45-1.49.45-.31 0-.6-.05-.89-.16-.26-.11-.5-.26-.69-.45-.18-.2-.31-.42-.38-.68l.14-.16v3.04h-.97Zm2.7-2.51c.53 0 .95-.2 1.26-.6.3-.4.46-.96.46-1.68a2.7 2.7 0 0 0-.46-1.67c-.31-.4-.73-.6-1.26-.6-.35 0-.66.09-.92.25-.26.17-.46.43-.6.77-.14.33-.21.75-.21 1.25s.07.92.2 1.26c.14.34.34.6.6.76.27.17.58.26.93.26Zm5.3.78c-.35 0-.64-.1-.86-.28-.22-.18-.33-.47-.33-.87v-7.04h.96v6.96c0 .12.04.22.1.29.07.06.16.09.29.09h.53v.85H294Zm4.2.14a2.6 2.6 0 0 1-2.46-1.5 3.9 3.9 0 0 1-.34-1.7c0-.65.11-1.22.35-1.7a2.6 2.6 0 0 1 2.45-1.5 2.6 2.6 0 0 1 2.45 1.5c.23.48.34 1.05.34 1.7a3.9 3.9 0 0 1-.34 1.7 2.6 2.6 0 0 1-2.45 1.5Zm0-.92c.56 0 1-.2 1.3-.6.32-.41.48-.97.48-1.68 0-.7-.16-1.26-.47-1.66-.31-.4-.75-.6-1.3-.6-.57 0-1 .2-1.32.6-.32.4-.48.96-.48 1.66 0 .71.16 1.27.48 1.68.31.4.75.6 1.31.6Zm4.2 2.51v-.85h.7c.22 0 .38-.04.48-.1.1-.07.19-.17.24-.32l.22-.57h-.34l-2.23-6h1.06l1.82 5.1 1.74-5.1h1.06l-2.48 6.88c-.11.34-.29.58-.52.73-.23.16-.55.23-.95.23h-.8Zm8.96-1.73v-8.2h1.4l4.05 7.2v-7.2h1v8.2h-1.48l-3.98-7.06v7.06h-1Zm11 .19c-.6 0-1.12-.1-1.58-.28a2.4 2.4 0 0 1-1.07-.82c-.25-.36-.38-.8-.38-1.34 0-.6.18-1.08.53-1.46.35-.4.82-.66 1.4-.8l.03.23a2.54 2.54 0 0 1-1.14-.63c-.29-.3-.43-.7-.43-1.22 0-.43.11-.81.33-1.15.22-.34.53-.6.92-.8.4-.2.85-.3 1.38-.3a3 3 0 0 1 1.39.3 2.1 2.1 0 0 1 1.25 1.95c0 .51-.15.92-.43 1.22-.29.29-.67.5-1.15.63l.03-.23c.59.14 1.06.4 1.4.8.36.38.54.87.54 1.46a2.22 2.22 0 0 1-1.46 2.16c-.45.18-.98.28-1.57.28Zm0-.97c.6 0 1.08-.13 1.44-.37.36-.26.54-.64.54-1.16 0-.47-.16-.85-.49-1.14-.31-.3-.81-.44-1.5-.44-.67 0-1.17.15-1.5.44-.32.29-.48.67-.48 1.14 0 .52.18.9.53 1.16.36.24.85.37 1.45.37Zm0-4.03c.5 0 .9-.1 1.17-.32.28-.23.42-.56.42-1 0-.39-.14-.7-.4-.93-.28-.23-.67-.35-1.2-.35-.51 0-.9.12-1.19.35-.26.23-.4.54-.4.93 0 .44.14.77.42 1 .27.21.66.32 1.17.32Zm4.53 4.81v-8.2h1.41l4.05 7.2v-7.2h1v8.2h-1.48l-3.99-7.06v7.06h-.99Zm11.92 0V38.6c0-.45.13-.82.4-1.1.26-.28.67-.42 1.22-.42h.97v.85h-.9c-.24 0-.42.07-.54.2a.8.8 0 0 0-.18.54v6.6h-.97Zm-.83-5.26v-.85h3.34V40h-3.34Zm4.44 5.26v-6.11h.85l.05 1.54-.1-.03c.08-.53.25-.9.5-1.14.26-.25.6-.37 1.04-.37h.6v.92h-.59c-.3 0-.56.06-.77.17-.2.11-.36.28-.46.5-.1.21-.15.5-.15.83v3.7h-.97Zm6.3.14a2.6 2.6 0 0 1-2.46-1.5 3.9 3.9 0 0 1-.35-1.7c0-.65.12-1.22.35-1.7a2.6 2.6 0 0 1 2.45-1.5 2.6 2.6 0 0 1 2.45 1.5c.23.48.35 1.05.35 1.7a3.9 3.9 0 0 1-.35 1.7 2.6 2.6 0 0 1-2.44 1.5Zm0-.92c.56 0 1-.2 1.3-.6.31-.41.47-.97.47-1.68 0-.7-.16-1.26-.47-1.66-.3-.4-.74-.6-1.3-.6-.57 0-1 .2-1.32.6-.32.4-.47.96-.47 1.66 0 .71.15 1.27.47 1.68.31.4.75.6 1.31.6Zm4.1.78v-6.11h.9l.03 1.54-.14-.04c.07-.34.2-.63.36-.87a1.81 1.81 0 0 1 1.49-.77c.53 0 .96.14 1.3.44.33.29.54.7.63 1.22l-.19-.01c.06-.36.17-.65.33-.9.18-.24.39-.43.65-.56.26-.13.56-.2.9-.2.44 0 .8.1 1.1.28.3.18.54.44.69.79.15.35.23.76.23 1.26v3.93h-.97v-3.73c0-.55-.1-.96-.32-1.24-.22-.29-.54-.43-.96-.43-.28 0-.53.07-.75.2-.2.15-.37.35-.48.6-.12.26-.18.57-.18.94v3.66h-.97V41.6c0-.54-.1-.97-.28-1.28-.2-.3-.52-.46-.97-.46-.29 0-.54.07-.75.2-.21.15-.38.35-.5.6-.11.27-.17.58-.17.94v3.66h-.97Zm14.66.14a2.4 2.4 0 0 1-1.51-.44c-.37-.3-.56-.7-.56-1.22s.16-.94.47-1.24c.3-.3.8-.5 1.46-.63l2.17-.4c0-.52-.12-.9-.37-1.16-.24-.25-.6-.38-1.08-.38-.43 0-.76.1-1 .29-.25.18-.42.45-.51.8l-1.03-.07c.11-.58.4-1.05.83-1.4a2.62 2.62 0 0 1 1.7-.54c.8 0 1.4.22 1.8.67.42.44.63 1.04.63 1.82v2.53c0 .14.02.24.07.3.05.05.14.08.25.08h.25v.85a.69.69 0 0 1-.15.01 1.99 1.99 0 0 1-.9-.11.82.82 0 0 1-.37-.42c-.08-.19-.12-.44-.12-.75l.12.03c-.06.26-.19.5-.4.71-.2.2-.46.37-.77.5-.3.11-.63.17-.98.17Zm.1-.85c.4 0 .75-.08 1.03-.23a1.68 1.68 0 0 0 .9-1.57v-.44l-1.98.37c-.42.07-.7.2-.87.35a.83.83 0 0 0-.23.62c0 .28.1.5.3.67.2.15.49.23.84.23Zm4.56 2.44v-7.84h.9l.02 1.31-.13-.07c.15-.45.4-.8.76-1.02a2.2 2.2 0 0 1 1.24-.36c.61 0 1.1.15 1.5.45.38.3.67.69.86 1.17.19.49.29 1.01.29 1.57 0 .57-.1 1.09-.3 1.57a2.35 2.35 0 0 1-2.35 1.63c-.31 0-.6-.05-.89-.16-.26-.11-.5-.26-.69-.45-.18-.2-.31-.42-.38-.68l.14-.16v3.04h-.97Zm2.7-2.51c.53 0 .95-.2 1.26-.6.3-.4.46-.96.46-1.68 0-.71-.15-1.27-.46-1.67-.31-.4-.73-.6-1.26-.6-.35 0-.66.09-.92.25-.26.17-.46.43-.6.77-.14.33-.21.75-.21 1.25s.07.92.2 1.26c.15.34.35.6.6.76.27.17.58.26.93.26Zm4.05 2.51v-7.84h.9l.02 1.31-.14-.07c.16-.45.41-.8.77-1.02.36-.24.77-.36 1.24-.36.61 0 1.1.15 1.49.45.4.3.68.69.87 1.17.19.49.28 1.01.28 1.57 0 .57-.1 1.09-.28 1.57-.19.49-.48.88-.87 1.18-.38.3-.88.45-1.49.45-.31 0-.61-.05-.89-.16-.27-.11-.5-.26-.69-.45-.18-.2-.31-.42-.38-.68l.14-.16v3.04h-.97Zm2.7-2.51c.53 0 .95-.2 1.26-.6.3-.4.46-.96.46-1.68 0-.71-.16-1.27-.46-1.67-.31-.4-.73-.6-1.26-.6-.35 0-.66.09-.92.25-.26.17-.46.43-.6.77-.14.33-.21.75-.21 1.25s.07.92.2 1.26c.14.34.34.6.6.76.27.17.58.26.93.26Zm9.27.92c-.54 0-1-.09-1.4-.27a2.2 2.2 0 0 1-.88-.72c-.2-.32-.33-.68-.36-1.08l1.02-.06c.06.36.21.66.47.88.25.22.64.33 1.15.33.42 0 .75-.07 1-.2a.7.7 0 0 0 .38-.66c0-.16-.04-.3-.12-.4-.08-.1-.23-.2-.45-.28a5.8 5.8 0 0 0-1-.24 6.13 6.13 0 0 1-1.38-.4 1.7 1.7 0 0 1-.71-.58c-.14-.24-.2-.52-.2-.84 0-.55.2-1 .6-1.34.4-.36.96-.53 1.7-.53.5 0 .92.09 1.26.27.34.18.61.42.8.72.2.3.33.62.4.97l-1.02.07c-.05-.22-.13-.4-.25-.57-.13-.17-.29-.3-.49-.39-.2-.1-.44-.15-.71-.15-.44 0-.77.09-.97.25a.8.8 0 0 0-.31.65c0 .2.04.37.13.5.1.12.26.22.48.3.21.09.5.15.86.22.63.1 1.11.23 1.46.39.34.15.58.34.72.56.14.23.21.5.21.82 0 .38-.1.7-.32.97-.2.26-.5.46-.86.6-.35.14-.75.21-1.2.21Zm5.72-.14c-.56 0-.97-.13-1.24-.38-.26-.25-.4-.65-.4-1.19v-5.97h.98v5.95c0 .28.06.47.18.58.13.1.31.16.57.16h.88v.85h-.97ZM394.04 40v-.85h3.5V40h-3.5Zm7.01 5.4a2.6 2.6 0 0 1-2.46-1.5 3.92 3.92 0 0 1-.34-1.7c0-.65.12-1.22.35-1.7a2.6 2.6 0 0 1 2.45-1.5 2.6 2.6 0 0 1 2.45 1.5c.23.48.35 1.05.35 1.7a3.9 3.9 0 0 1-.35 1.7 2.6 2.6 0 0 1-2.45 1.5Zm0-.92c.56 0 1-.2 1.3-.6.32-.41.48-.97.48-1.68 0-.7-.16-1.26-.47-1.66-.31-.4-.75-.6-1.3-.6-.57 0-1 .2-1.32.6-.32.4-.48.96-.48 1.66 0 .71.16 1.27.48 1.68.31.4.75.6 1.31.6Zm4.12.78v-6.11h.85l.05 1.54-.1-.03c.08-.53.25-.9.5-1.14.26-.25.6-.37 1.04-.37h.6v.92h-.59c-.3 0-.56.06-.77.17-.2.11-.36.28-.46.5-.1.21-.15.5-.15.83v3.7h-.97Zm6.3.14a2.8 2.8 0 0 1-1.5-.4 2.63 2.63 0 0 1-.97-1.1 4.02 4.02 0 0 1-.34-1.7c0-.64.11-1.2.34-1.68.23-.48.55-.85.95-1.1.42-.28.9-.41 1.47-.41.53 0 1 .12 1.4.38.41.24.73.6.95 1.08.23.48.35 1.06.35 1.75v.28h-4.44c.03.66.2 1.15.52 1.48.31.33.73.5 1.26.5.4 0 .73-.1.99-.28.26-.2.44-.44.54-.75l1.04.08a2.6 2.6 0 0 1-2.56 1.87Zm-1.8-3.75h3.39c-.05-.6-.22-1.03-.52-1.3-.3-.28-.67-.42-1.12-.42-.47 0-.86.15-1.17.44-.3.28-.49.71-.57 1.28Zm5.46 3.61v-1.3h1.3v1.3h-1.3Z"
        />
      </g>
      <path
        fill="#71717A"
        d="M29.15 119.86c-.55 0-1.04-.1-1.45-.31-.4-.21-.73-.5-.97-.86-.24-.37-.38-.8-.42-1.28l.91-.06c.05.36.15.66.31.9.16.26.38.44.65.57.27.13.6.2.99.2.33 0 .62-.05.86-.14.23-.08.41-.21.53-.38.13-.17.2-.38.2-.62 0-.22-.06-.41-.17-.58-.1-.18-.3-.34-.6-.48a6.3 6.3 0 0 0-1.29-.43c-.55-.14-.99-.3-1.32-.47a1.74 1.74 0 0 1-.7-.61 1.76 1.76 0 0 1-.22-.9c0-.4.1-.76.29-1.06.19-.31.47-.55.82-.72.36-.17.78-.26 1.28-.26.52 0 .97.1 1.35.3.37.2.67.47.9.81.22.34.36.73.41 1.17l-.9.06a1.81 1.81 0 0 0-.3-.76c-.13-.23-.33-.41-.58-.54-.25-.13-.55-.2-.9-.2-.45 0-.8.12-1.07.33a1 1 0 0 0-.39.83c0 .22.05.4.15.55.11.15.3.27.57.39.27.1.65.22 1.16.35.6.15 1.07.33 1.42.54.36.2.61.43.76.7.15.27.23.58.23.92a1.86 1.86 0 0 1-1.21 1.8c-.38.16-.81.24-1.3.24Zm6.1-.04a2.27 2.27 0 0 1-2.15-1.31c-.2-.43-.3-.92-.3-1.48 0-.58.1-1.07.3-1.49a2.26 2.26 0 0 1 2.15-1.31 2.26 2.26 0 0 1 2.14 1.31c.2.42.3.91.3 1.49 0 .56-.1 1.05-.3 1.48a2.27 2.27 0 0 1-2.14 1.31Zm0-.8c.49 0 .87-.18 1.14-.53.28-.36.41-.85.41-1.46 0-.62-.13-1.1-.41-1.46a1.34 1.34 0 0 0-1.14-.53c-.5 0-.88.17-1.15.53a2.3 2.3 0 0 0-.42 1.46c0 .61.14 1.1.42 1.46.27.35.66.52 1.15.52Zm3.6.68v-5.35h.78l.03 1.35-.13-.04c.06-.3.17-.55.32-.75a1.58 1.58 0 0 1 1.3-.68c.46 0 .84.13 1.13.38.3.26.48.61.56 1.07h-.17c.06-.32.16-.58.3-.79.15-.21.33-.38.56-.49.23-.11.5-.17.79-.17.38 0 .7.08.97.24.26.16.46.38.6.69.13.3.2.67.2 1.1v3.44h-.85v-3.26c0-.48-.1-.85-.28-1.1-.2-.24-.47-.37-.84-.37-.25 0-.47.07-.66.19-.18.12-.32.3-.42.52-.1.22-.15.5-.15.82v3.2h-.85v-3.2c0-.48-.09-.85-.25-1.12-.17-.27-.46-.4-.85-.4-.25 0-.47.06-.66.18-.18.12-.32.3-.43.52-.1.23-.15.5-.15.82v3.2h-.85Zm10.82.12c-.5 0-.94-.11-1.3-.34a2.3 2.3 0 0 1-.86-.97c-.2-.43-.29-.92-.29-1.48 0-.57.1-1.06.3-1.48.2-.42.47-.74.83-.97.36-.23.8-.35 1.28-.35.47 0 .88.1 1.23.33.36.22.64.53.83.95.2.42.3.93.3 1.52v.26h-3.88c.03.57.18 1 .45 1.29.28.29.65.43 1.11.43.35 0 .64-.08.86-.24.23-.17.39-.39.48-.66l.9.08c-.14.47-.4.87-.8 1.18-.4.3-.87.45-1.44.45Zm-1.56-3.28h2.96c-.04-.52-.2-.9-.46-1.14a1.37 1.37 0 0 0-.98-.36c-.4 0-.75.12-1.02.38-.26.25-.43.62-.5 1.12Zm7.66 3.16v-5.35h.84v5.35h-.84Zm-.02-6.19v-.99h.88v1h-.88Zm4.28 6.31c-.46 0-.87-.11-1.21-.34a2.2 2.2 0 0 1-.78-.97 3.7 3.7 0 0 1-.27-1.48c0-.58.09-1.07.27-1.49.18-.42.44-.74.78-.97.34-.23.75-.34 1.21-.34.36 0 .68.08.98.23.3.15.52.36.67.64v-2.57h.84v7.17h-.76l-.03-.8c-.15.28-.38.51-.68.68-.3.16-.64.24-1.02.24Zm.17-.8c.32 0 .58-.09.8-.25.22-.16.39-.39.5-.69.12-.3.18-.65.18-1.05 0-.42-.06-.78-.18-1.08-.11-.3-.28-.52-.5-.67a1.3 1.3 0 0 0-.8-.24c-.47 0-.85.17-1.13.53a2.3 2.3 0 0 0-.41 1.46c0 .6.14 1.1.41 1.45.28.35.66.53 1.13.53Zm5.93.8c-.5 0-.94-.11-1.31-.34a2.3 2.3 0 0 1-.85-.97c-.2-.43-.3-.92-.3-1.48 0-.57.1-1.06.3-1.48.2-.42.48-.74.84-.97.36-.23.79-.35 1.28-.35.46 0 .87.1 1.23.33.36.22.63.53.83.95.2.42.3.93.3 1.52v.26h-3.89c.04.57.19 1 .46 1.29.27.29.64.43 1.1.43.36 0 .64-.08.87-.24.22-.17.38-.39.47-.66l.9.08c-.13.47-.4.87-.8 1.18-.39.3-.87.45-1.43.45Zm-1.57-3.28h2.96c-.04-.52-.2-.9-.45-1.14a1.37 1.37 0 0 0-.98-.36c-.41 0-.75.12-1.02.38-.26.25-.43.62-.5 1.12Zm6.62 3.28c-.55 0-1-.13-1.32-.38a1.29 1.29 0 0 1-.49-1.07c0-.46.14-.82.4-1.08.28-.27.7-.45 1.29-.56l1.9-.35c0-.45-.11-.79-.33-1.01-.2-.22-.52-.33-.94-.33-.38 0-.67.08-.88.25-.22.16-.37.4-.45.7l-.9-.07c.1-.5.35-.9.73-1.22a2.3 2.3 0 0 1 1.5-.47c.68 0 1.2.2 1.57.58.36.39.55.92.55 1.6v2.21c0 .12.02.2.06.26.04.05.12.07.22.07h.21v.75a.59.59 0 0 1-.13.01 1.68 1.68 0 0 1-.79-.1.71.71 0 0 1-.32-.36 1.8 1.8 0 0 1-.1-.66l.1.02c-.05.23-.16.44-.35.63-.18.18-.4.32-.67.43-.27.1-.56.15-.86.15Zm.08-.75c.36 0 .66-.06.91-.2a1.48 1.48 0 0 0 .79-1.37v-.38l-1.74.32c-.36.07-.62.17-.76.31a.72.72 0 0 0-.2.54c0 .25.09.44.26.58.19.14.43.2.74.2Zm5.93.75a2.9 2.9 0 0 1-1.23-.23 1.92 1.92 0 0 1-.77-.64 1.95 1.95 0 0 1-.32-.94l.9-.06c.05.33.18.59.4.78.23.19.57.28 1.02.28.36 0 .65-.05.86-.17a.6.6 0 0 0 .34-.57.6.6 0 0 0-.1-.36c-.07-.1-.2-.17-.4-.24-.2-.07-.48-.14-.87-.21-.5-.1-.91-.21-1.2-.34-.3-.15-.5-.32-.63-.52-.12-.2-.18-.45-.18-.74 0-.47.17-.86.52-1.17.35-.3.85-.46 1.5-.46.43 0 .8.08 1.1.24.3.16.53.36.7.63.18.25.3.54.35.84l-.9.06a1.24 1.24 0 0 0-.22-.49c-.1-.15-.24-.26-.42-.34a1.4 1.4 0 0 0-.63-.13c-.38 0-.66.07-.84.22a.7.7 0 0 0-.28.56c0 .18.04.32.13.44.08.1.22.2.4.27.2.07.45.13.77.18.54.1.97.21 1.27.35.3.13.51.3.63.49.13.2.19.43.19.72 0 .33-.1.6-.29.84-.18.23-.43.4-.74.53a2.9 2.9 0 0 1-1.06.18Zm7.82-.12c-.48 0-.84-.11-1.08-.33-.22-.23-.34-.57-.34-1.04v-5.23h.85v5.2c0 .25.05.42.16.51.1.1.27.14.5.14h.76v.75h-.85Zm-2.2-4.6v-.75h3.05v.75H82.8Zm6.13 4.72a2.27 2.27 0 0 1-2.15-1.31c-.2-.43-.3-.92-.3-1.48 0-.58.1-1.07.3-1.49a2.26 2.26 0 0 1 2.15-1.31 2.26 2.26 0 0 1 2.14 1.31c.2.42.3.91.3 1.49 0 .56-.1 1.05-.3 1.48a2.27 2.27 0 0 1-2.14 1.31Zm0-.8c.5 0 .87-.18 1.14-.53.28-.36.42-.85.42-1.46 0-.62-.14-1.1-.42-1.46a1.35 1.35 0 0 0-1.14-.53c-.49 0-.87.17-1.15.53a2.3 2.3 0 0 0-.41 1.46c0 .61.13 1.1.41 1.46.28.35.66.52 1.15.52Zm8.25 2.32a2.7 2.7 0 0 1-1.04-.2 2.09 2.09 0 0 1-.77-.54c-.21-.24-.35-.5-.43-.82l.89-.06c.08.25.22.45.42.59.21.14.52.22.93.22.49 0 .86-.1 1.11-.3.27-.19.4-.48.4-.87v-.87c-.13.28-.34.5-.62.68-.28.16-.6.25-.95.25a2.25 2.25 0 0 1-2.04-1.25c-.2-.4-.29-.84-.29-1.35 0-.5.1-.96.3-1.34.19-.39.46-.7.8-.92a2.18 2.18 0 0 1 2.2-.07c.3.18.52.41.64.7v-.84h.8v4.99c0 .41-.09.77-.28 1.07-.19.3-.46.53-.8.68-.36.16-.78.25-1.27.25Zm-.02-2.73c.46 0 .83-.16 1.1-.47a2 2 0 0 0 .43-1.32c0-.37-.06-.68-.19-.95-.12-.27-.3-.47-.53-.61-.23-.15-.5-.22-.8-.22-.48 0-.85.16-1.1.48-.26.32-.4.75-.4 1.3 0 .56.14 1 .4 1.32.27.31.63.47 1.1.47Zm5.98 1.21c-.5 0-.94-.11-1.31-.34a2.3 2.3 0 0 1-.85-.97c-.2-.43-.3-.92-.3-1.48 0-.57.1-1.06.3-1.48.2-.42.48-.74.84-.97.36-.23.79-.35 1.28-.35.46 0 .87.1 1.23.33.36.22.63.53.83.95.2.42.3.93.3 1.52v.26h-3.89c.04.57.19 1 .46 1.29.27.29.64.43 1.1.43.36 0 .64-.08.87-.24.23-.17.38-.39.47-.66l.91.08c-.14.47-.41.87-.8 1.18-.4.3-.88.45-1.44.45Zm-1.57-3.28h2.96c-.04-.52-.19-.9-.45-1.14a1.37 1.37 0 0 0-.98-.36c-.41 0-.75.12-1.02.38-.26.25-.43.62-.5 1.12Zm6.8 3.16c-.5 0-.85-.11-1.09-.33-.23-.23-.34-.57-.34-1.04v-5.23h.85v5.2c0 .25.05.42.16.51.1.1.27.14.5.14h.76v.75h-.85Zm-2.22-4.6v-.75h3.06v.75h-3.06Zm8.68 4.72a2.9 2.9 0 0 1-1.22-.23 1.93 1.93 0 0 1-.78-.64 1.96 1.96 0 0 1-.31-.94l.89-.06c.05.33.19.59.4.78.23.19.57.28 1.02.28.36 0 .65-.05.87-.17a.6.6 0 0 0 .33-.57.6.6 0 0 0-.1-.36c-.07-.1-.2-.17-.4-.24-.19-.07-.48-.14-.86-.21-.52-.1-.92-.21-1.22-.34a1.5 1.5 0 0 1-.62-.52c-.12-.2-.18-.45-.18-.74 0-.47.17-.86.52-1.17.35-.3.85-.46 1.5-.46.43 0 .8.08 1.1.24.3.16.54.36.7.63.18.25.3.54.35.84l-.9.06a1.26 1.26 0 0 0-.21-.49c-.11-.15-.25-.26-.43-.34a1.4 1.4 0 0 0-.62-.13c-.39 0-.67.07-.85.22a.7.7 0 0 0-.27.56c0 .18.04.32.12.44.08.1.22.2.41.27.19.07.44.13.76.18.54.1.97.21 1.27.35.3.13.52.3.64.49.12.2.18.43.18.72 0 .33-.1.6-.29.84-.18.23-.42.4-.74.53-.31.12-.67.18-1.06.18Zm5-.12c-.49 0-.85-.11-1.08-.33-.23-.23-.35-.57-.35-1.04v-5.23h.85v5.2c0 .25.05.42.16.51.11.1.28.14.5.14h.77v.75h-.85Zm-2.21-4.6v-.75h3.06v.75h-3.06Zm5.55 4.72c-.56 0-1-.13-1.33-.38a1.29 1.29 0 0 1-.48-1.07c0-.46.13-.82.4-1.08.27-.27.7-.45 1.29-.56l1.9-.35c0-.45-.11-.79-.33-1.01-.2-.22-.52-.33-.95-.33-.37 0-.66.08-.88.25-.21.16-.36.4-.44.7l-.9-.07c.1-.5.34-.9.73-1.22a2.3 2.3 0 0 1 1.5-.47c.68 0 1.2.2 1.57.58.36.39.54.92.54 1.6v2.21c0 .12.02.2.06.26.05.05.12.07.22.07h.22v.75a.6.6 0 0 1-.13.01l-.2.01c-.24 0-.44-.04-.6-.11a.71.71 0 0 1-.31-.36 1.8 1.8 0 0 1-.1-.66l.1.02c-.05.23-.17.44-.35.63a2 2 0 0 1-.67.43c-.27.1-.56.15-.86.15Zm.08-.75c.35 0 .66-.06.9-.2a1.48 1.48 0 0 0 .8-1.37v-.38l-1.74.32c-.37.07-.62.17-.76.31a.72.72 0 0 0-.2.54c0 .25.09.44.26.58.18.14.43.2.74.2Zm4 .63v-5.35h.74l.04 1.35-.08-.03c.07-.46.21-.79.44-1 .22-.21.53-.32.9-.32h.53v.8h-.52c-.27 0-.5.06-.67.16a.93.93 0 0 0-.4.43c-.1.2-.14.43-.14.73v3.23h-.84Zm5.28 0c-.49 0-.85-.11-1.08-.33-.23-.23-.35-.57-.35-1.04v-5.23h.85v5.2c0 .25.05.42.16.51.1.1.27.14.5.14h.76v.75h-.84Zm-2.22-4.6v-.75h3.06v.75h-3.06Zm6.14 4.72c-.5 0-.94-.11-1.31-.34a2.3 2.3 0 0 1-.85-.97c-.2-.43-.3-.92-.3-1.48 0-.57.1-1.06.3-1.48.2-.42.48-.74.84-.97.36-.23.8-.35 1.28-.35.47 0 .88.1 1.23.33.36.22.64.53.83.95.2.42.3.93.3 1.52v.26h-3.88c.03.57.18 1 .45 1.29.28.29.65.43 1.11.43.35 0 .64-.08.86-.24.23-.17.39-.39.47-.66l.91.08c-.14.47-.4.87-.8 1.18-.4.3-.87.45-1.44.45Zm-1.56-3.28h2.96c-.05-.52-.2-.9-.46-1.14a1.37 1.37 0 0 0-.98-.36c-.4 0-.75.12-1.02.38-.26.25-.43.62-.5 1.12Zm6.93 3.28c-.46 0-.87-.11-1.21-.34a2.2 2.2 0 0 1-.78-.97 3.7 3.7 0 0 1-.27-1.48c0-.58.1-1.07.27-1.49.18-.42.44-.74.78-.97.34-.23.75-.34 1.21-.34.36 0 .68.08.98.23.3.15.52.36.67.64v-2.57h.84v7.17h-.76l-.03-.8c-.15.28-.38.51-.68.68-.3.16-.64.24-1.02.24Zm.17-.8c.32 0 .59-.09.8-.25.22-.16.4-.39.5-.69.12-.3.18-.65.18-1.05 0-.42-.06-.78-.17-1.08-.12-.3-.29-.52-.5-.67a1.3 1.3 0 0 0-.8-.24c-.48 0-.85.17-1.14.53a2.3 2.3 0 0 0-.41 1.46c0 .6.14 1.1.41 1.45.28.35.66.53 1.13.53Zm4.06.68v-1.14h1.14v1.14h-1.14Zm0-3.97v-1.14h1.14v1.14h-1.14Z"
      />
      <g filter="url(#f)">
        <rect
          width="71.54"
          height="20.77"
          x="25.76"
          y="129.47"
          fill="#fff"
          fill-opacity=".07"
          rx="10.38"
          shape-rendering="crispEdges"
        />
        <path
          fill="#A1A1AA"
          d="M35.2 143.51c-.64 0-1.2-.14-1.69-.44-.48-.3-.86-.73-1.13-1.3a4.57 4.57 0 0 1-.4-1.99c0-.77.13-1.44.4-2s.65-1 1.13-1.3c.49-.3 1.05-.46 1.69-.46.87 0 1.54.22 2.02.66.48.44.79 1.03.94 1.79l-.92.06c-.1-.51-.32-.92-.65-1.21-.33-.3-.8-.45-1.39-.45a2.12 2.12 0 0 0-2.02 1.35c-.2.44-.3.95-.3 1.56 0 .6.1 1.12.3 1.56.2.42.47.75.8.98.36.23.76.35 1.22.35.63 0 1.11-.16 1.45-.49.35-.33.56-.77.65-1.33l.92.06c-.09.52-.26.97-.52 1.36-.25.4-.6.7-1.02.92-.41.22-.9.32-1.48.32Zm5.18-.16c-.3 0-.56-.08-.75-.24-.2-.16-.3-.42-.3-.77v-6.15h.85v6.08c0 .11.03.2.08.26.06.05.15.08.25.08h.47v.74h-.6Zm3.09.13c-.55 0-1-.13-1.32-.39a1.29 1.29 0 0 1-.49-1.07c0-.46.14-.82.4-1.08.27-.26.7-.45 1.29-.55l1.9-.36c0-.45-.11-.78-.33-1-.2-.23-.52-.34-.95-.34-.37 0-.66.08-.88.25-.21.16-.36.4-.44.7l-.9-.06c.1-.5.34-.91.73-1.22a2.3 2.3 0 0 1 1.5-.48c.68 0 1.2.2 1.57.59.36.38.54.91.54 1.6v2.2c0 .13.02.21.06.27.05.04.12.07.23.07h.2v.74a.65.65 0 0 1-.12.01 1.68 1.68 0 0 1-.8-.1.71.71 0 0 1-.31-.36c-.07-.17-.1-.39-.1-.66l.1.02c-.05.23-.17.44-.35.63-.18.18-.4.33-.67.43-.27.1-.56.16-.86.16Zm.08-.75c.36 0 .66-.07.9-.2a1.48 1.48 0 0 0 .8-1.38v-.38l-1.74.32c-.37.07-.62.17-.76.31a.72.72 0 0 0-.2.54c0 .25.09.44.26.59.18.13.43.2.74.2Zm5.7.75c-.54 0-.97-.18-1.29-.54a2.2 2.2 0 0 1-.47-1.5V138h.84v3.21c0 .52.1.9.28 1.15.19.25.47.37.85.37.43 0 .76-.14 1-.4.25-.28.37-.66.37-1.14V138h.85v5.35h-.81v-1.32l.13.07c-.1.44-.31.78-.62 1.02-.3.24-.68.35-1.14.35Zm5.84 0c-.46 0-.87-.12-1.2-.35a2.2 2.2 0 0 1-.79-.97 3.7 3.7 0 0 1-.27-1.48c0-.57.1-1.07.27-1.49.19-.41.44-.74.78-.97.34-.22.75-.34 1.21-.34.36 0 .69.08.98.23.3.15.52.36.67.64v-2.56h.85v7.16h-.77l-.03-.8c-.15.29-.38.51-.68.68-.3.16-.64.25-1.02.25Zm.17-.81c.32 0 .59-.08.8-.24.22-.17.4-.4.5-.7.12-.3.18-.65.18-1.05 0-.42-.06-.78-.17-1.07-.12-.3-.29-.52-.5-.68a1.29 1.29 0 0 0-.8-.24c-.48 0-.85.18-1.14.53-.27.35-.41.84-.41 1.46 0 .61.14 1.1.41 1.45.29.36.66.54 1.13.54Zm5.93.8c-.5 0-.94-.11-1.31-.34a2.3 2.3 0 0 1-.85-.97c-.2-.42-.3-.92-.3-1.48 0-.57.1-1.06.3-1.48.2-.41.48-.74.84-.96.36-.24.79-.36 1.28-.36.46 0 .87.11 1.23.34.36.21.63.53.83.94.2.42.3.93.3 1.53v.25h-3.88c.03.57.18 1 .45 1.3.28.28.65.43 1.11.43.35 0 .64-.08.86-.24.23-.17.39-.4.47-.66l.91.07c-.14.48-.41.87-.8 1.18-.4.3-.87.45-1.44.45Zm-1.56-3.28h2.95c-.04-.51-.19-.9-.45-1.14a1.37 1.37 0 0 0-.98-.36c-.41 0-.75.13-1.02.38-.26.25-.43.63-.5 1.12Zm10.52 3.32c-.64 0-1.2-.14-1.69-.44-.48-.3-.86-.73-1.13-1.3a4.57 4.57 0 0 1-.4-1.99c0-.77.13-1.44.4-2s.65-1 1.13-1.3c.49-.3 1.05-.46 1.69-.46.87 0 1.54.22 2.02.66.48.44.79 1.03.94 1.79l-.92.06c-.1-.51-.32-.92-.65-1.21-.33-.3-.8-.45-1.39-.45a2.12 2.12 0 0 0-2.02 1.35c-.2.44-.3.95-.3 1.56 0 .6.1 1.12.3 1.56.2.42.47.75.8.98.36.23.76.35 1.22.35.63 0 1.11-.16 1.45-.49.35-.33.56-.77.65-1.33l.92.06c-.09.52-.26.97-.52 1.36-.25.4-.6.7-1.02.92-.41.22-.9.32-1.48.32Zm6.24-.03a2.27 2.27 0 0 1-2.15-1.31c-.2-.43-.3-.93-.3-1.5 0-.56.1-1.06.3-1.48a2.27 2.27 0 0 1 2.15-1.3 2.27 2.27 0 0 1 2.14 1.31c.2.41.3.9.3 1.48 0 .56-.1 1.06-.3 1.48a2.27 2.27 0 0 1-2.14 1.31Zm0-.81c.5 0 .87-.18 1.14-.53.28-.35.42-.84.42-1.46s-.14-1.1-.42-1.46a1.34 1.34 0 0 0-1.14-.53c-.49 0-.87.18-1.15.53-.27.35-.41.84-.41 1.46s.14 1.1.41 1.46c.28.35.66.53 1.15.53Zm5.5.8c-.46 0-.87-.11-1.21-.34a2.2 2.2 0 0 1-.78-.97 3.7 3.7 0 0 1-.27-1.48c0-.57.09-1.07.27-1.49.18-.41.44-.74.78-.97.34-.22.75-.34 1.2-.34.37 0 .7.08.99.23.3.15.52.36.67.64v-2.56h.84v7.16h-.76l-.03-.8c-.15.29-.38.51-.68.68-.3.16-.64.25-1.02.25Zm.17-.8c.32 0 .58-.08.8-.24.22-.17.39-.4.5-.7.12-.3.18-.65.18-1.05 0-.42-.06-.78-.18-1.07-.11-.3-.28-.52-.5-.68a1.29 1.29 0 0 0-.8-.24c-.47 0-.85.18-1.13.53-.28.35-.41.84-.41 1.46 0 .61.13 1.1.41 1.45.28.36.66.54 1.13.54Zm5.93.8c-.5 0-.95-.11-1.32-.34a2.3 2.3 0 0 1-.84-.97c-.2-.42-.3-.92-.3-1.48 0-.57.1-1.06.3-1.48.2-.41.48-.74.83-.96.37-.24.8-.36 1.29-.36.46 0 .87.11 1.23.34.35.21.63.53.83.94.2.42.3.93.3 1.53v.25h-3.89c.04.57.19 1 .46 1.3.27.28.64.43 1.1.43.36 0 .64-.08.86-.24.23-.17.4-.4.48-.66l.9.07c-.13.48-.4.87-.8 1.18-.39.3-.87.45-1.43.45Zm-1.57-3.28h2.96c-.04-.51-.2-.9-.45-1.14a1.37 1.37 0 0 0-.98-.36c-.41 0-.75.13-1.02.38s-.43.63-.5 1.12Z"
        />
      </g>
      <g filter="url(#g)">
        <rect
          width="136.54"
          height="20.77"
          x="103.06"
          y="129.47"
          fill="#fff"
          fill-opacity=".07"
          rx="10.38"
          shape-rendering="crispEdges"
        />
        <path
          fill="#A1A1AA"
          d="M109.76 143.35v-7.16h2.46c.85 0 1.49.15 1.91.46.43.31.64.8.64 1.46 0 .31-.07.59-.2.82-.14.24-.33.42-.58.56-.25.13-.54.19-.89.19v-.06c.6 0 1.09.16 1.44.5.35.32.53.74.53 1.26 0 .66-.21 1.15-.63 1.48-.43.33-1.03.5-1.81.5h-2.87Zm.87-.84h2c.49 0 .87-.1 1.13-.3.27-.2.4-.5.4-.88 0-.37-.13-.67-.4-.87a1.74 1.74 0 0 0-1.13-.33h-2v2.38Zm0-3.22h1.6c.52 0 .92-.1 1.2-.3.29-.2.43-.48.43-.84 0-.37-.14-.65-.41-.83a2.14 2.14 0 0 0-1.23-.29h-1.6v2.25Zm7.51 4.19c-.53 0-.96-.18-1.28-.54a2.2 2.2 0 0 1-.48-1.5V138h.85v3.21c0 .52.1.9.27 1.15.2.25.48.37.86.37.43 0 .76-.14 1-.4.24-.28.36-.66.36-1.14V138h.85v5.35h-.8v-1.32l.13.07c-.11.44-.32.78-.62 1.02s-.68.35-1.14.35Zm3.9-.13V138h.85v5.35h-.85Zm-.02-6.19v-.98h.89v.98h-.89Zm3.44 6.2c-.31 0-.56-.09-.76-.25-.2-.16-.3-.42-.3-.77v-6.15h.86v6.08c0 .11.02.2.08.26.06.05.14.08.25.08h.46v.74h-.6Zm3.48.11c-.47 0-.87-.11-1.21-.34a2.2 2.2 0 0 1-.78-.97 3.7 3.7 0 0 1-.27-1.48c0-.57.09-1.07.27-1.49.18-.41.44-.74.78-.97.34-.22.74-.34 1.2-.34.36 0 .7.08.99.23.3.15.52.36.66.64v-2.56h.85v7.16h-.77l-.03-.8c-.14.29-.37.51-.67.68-.3.16-.64.25-1.02.25Zm.17-.8c.32 0 .58-.08.8-.24.22-.17.39-.4.5-.7a3 3 0 0 0 .17-1.05c0-.42-.05-.78-.17-1.07-.11-.3-.28-.52-.5-.68a1.29 1.29 0 0 0-.8-.24c-.47 0-.85.18-1.13.53-.28.35-.41.84-.41 1.46 0 .61.13 1.1.41 1.45.28.36.66.54 1.13.54Zm6.98.68v-5.83c0-.4.12-.72.35-.96.23-.25.58-.37 1.07-.37h.84v.74h-.78c-.21 0-.37.06-.48.17a.69.69 0 0 0-.15.48v5.77h-.85Zm-.72-4.6V138h2.91v.75h-2.91Zm5.94 4.72c-.53 0-.96-.17-1.28-.53a2.2 2.2 0 0 1-.48-1.5V138h.85v3.21c0 .52.1.9.27 1.15.2.25.48.37.86.37.43 0 .76-.14 1-.4.24-.28.36-.66.36-1.14V138h.85v5.35h-.8v-1.32l.13.07c-.11.44-.32.78-.62 1.02s-.68.35-1.14.35Zm5.1-.12c-.31 0-.56-.08-.76-.24-.2-.16-.3-.42-.3-.77v-6.15h.86v6.08c0 .11.02.2.08.26.06.05.14.08.25.08h.47v.74h-.6Zm2.6 0c-.32 0-.57-.08-.76-.24-.2-.16-.3-.42-.3-.77v-6.15h.85v6.08c0 .11.03.2.08.26.06.05.15.08.25.08h.47v.74h-.6Zm1.27-2.54v-.8h3.34v.8h-3.34Zm6.54 2.66a2.9 2.9 0 0 1-1.22-.23 1.92 1.92 0 0 1-.78-.63 1.94 1.94 0 0 1-.31-.94l.89-.06c.05.32.19.58.41.77.22.2.56.29 1.01.29.37 0 .65-.06.87-.17a.61.61 0 0 0 .33-.58.6.6 0 0 0-.1-.35c-.06-.1-.2-.18-.4-.25-.19-.07-.48-.14-.86-.2-.51-.1-.91-.22-1.21-.35-.3-.14-.5-.31-.63-.52-.12-.2-.18-.45-.18-.73 0-.48.18-.87.53-1.17.35-.31.84-.47 1.49-.47.44 0 .8.08 1.1.24.3.16.54.37.7.63.18.26.3.54.35.85l-.89.06a1.22 1.22 0 0 0-.22-.5c-.1-.14-.25-.26-.42-.34a1.38 1.38 0 0 0-.63-.13c-.38 0-.67.07-.85.22a.7.7 0 0 0-.27.57c0 .17.04.32.12.43.09.1.23.2.41.27.2.07.44.13.76.19.55.09.97.2 1.27.34.3.13.52.3.64.5.12.19.18.43.18.71 0 .33-.1.61-.28.85-.18.23-.43.4-.75.52a2.9 2.9 0 0 1-1.06.19Zm5-.12c-.48 0-.84-.1-1.08-.33-.23-.22-.34-.57-.34-1.04v-5.23h.84v5.21c0 .24.06.41.17.5.1.1.27.15.5.15h.76v.74h-.85Zm-2.21-4.6V138h3.06v.75h-3.06Zm5.55 4.72c-.55 0-1-.12-1.32-.38a1.29 1.29 0 0 1-.49-1.07c0-.46.14-.82.4-1.08.28-.26.7-.45 1.29-.55l1.9-.36c0-.45-.11-.78-.33-1-.2-.23-.52-.34-.95-.34-.37 0-.66.08-.87.25-.22.16-.37.4-.45.7l-.9-.06c.1-.5.35-.91.73-1.22a2.3 2.3 0 0 1 1.5-.48c.68 0 1.2.2 1.57.59.36.38.54.91.54 1.6v2.2c0 .13.03.21.07.27.04.04.12.07.22.07h.21v.74a.66.66 0 0 1-.13.01 1.69 1.69 0 0 1-.79-.1.71.71 0 0 1-.32-.36 1.8 1.8 0 0 1-.1-.66l.1.02c-.05.23-.16.44-.34.63-.19.18-.41.33-.68.43-.27.1-.56.16-.86.16Zm.08-.74c.36 0 .66-.07.91-.2a1.48 1.48 0 0 0 .79-1.38v-.38l-1.74.32c-.36.07-.61.17-.76.31a.72.72 0 0 0-.2.54c0 .25.09.44.26.59.19.13.43.2.74.2Zm6.07.75c-.5 0-.93-.12-1.3-.35a2.3 2.3 0 0 1-.85-.97c-.2-.42-.3-.92-.3-1.48 0-.57.1-1.06.3-1.48a2.3 2.3 0 0 1 2.15-1.32c.4 0 .77.08 1.09.22.32.15.58.35.79.63.2.28.33.61.39 1l-.89.07a1.24 1.24 0 0 0-.46-.82c-.25-.2-.56-.29-.92-.29-.5 0-.88.18-1.15.53-.28.35-.42.84-.42 1.46s.14 1.1.42 1.46c.27.35.66.53 1.15.53.36 0 .67-.1.92-.3.25-.2.4-.51.46-.91l.89.06c-.06.4-.2.74-.4 1.04-.2.29-.46.51-.78.67-.32.16-.68.25-1.1.25Zm3.32-.13v-7.16h.85v4.69l2.6-2.88h1.13l-2.1 2.28 2.2 3.07h-1.03l-1.75-2.5-1.05 1.11v1.4h-.85Zm9.92.13c-.55 0-.99-.13-1.32-.39a1.29 1.29 0 0 1-.48-1.07c0-.46.13-.82.4-1.08.27-.26.7-.45 1.28-.55l1.9-.36c0-.45-.1-.78-.32-1-.21-.23-.53-.34-.95-.34-.37 0-.66.08-.88.25-.22.16-.36.4-.44.7l-.9-.06c.1-.5.34-.91.72-1.22a2.3 2.3 0 0 1 1.5-.48c.68 0 1.2.2 1.57.59.37.38.55.91.55 1.6v2.2c0 .13.02.21.06.27.05.04.12.07.22.07h.21v.74a.66.66 0 0 1-.13.01 1.69 1.69 0 0 1-.79-.1.71.71 0 0 1-.32-.36 1.8 1.8 0 0 1-.1-.66l.1.02c-.05.23-.16.44-.34.63-.18.18-.4.33-.68.43-.27.1-.55.16-.86.16Zm.08-.75c.36 0 .66-.07.91-.2a1.49 1.49 0 0 0 .79-1.38v-.38l-1.74.32c-.36.07-.61.17-.75.31a.73.73 0 0 0-.2.54c0 .25.08.44.26.59.18.13.42.2.73.2Zm4 2.14V138h.79l.02 1.15-.12-.06c.13-.4.35-.7.66-.9.32-.2.68-.3 1.1-.3.52 0 .96.12 1.3.39.34.26.6.6.75 1.03a3.67 3.67 0 0 1 0 2.75 2.05 2.05 0 0 1-2.06 1.42c-.27 0-.53-.05-.77-.15a1.8 1.8 0 0 1-.6-.39 1.34 1.34 0 0 1-.34-.6l.12-.14v2.67h-.85Zm2.36-2.2c.47 0 .83-.18 1.1-.53.27-.35.4-.84.4-1.46 0-.63-.13-1.12-.4-1.47a1.31 1.31 0 0 0-1.1-.52c-.3 0-.58.07-.8.22-.23.15-.4.37-.53.67-.12.3-.18.66-.18 1.1 0 .44.06.8.18 1.1.12.3.3.52.53.66.22.15.5.23.8.23Zm3.55 2.2V138h.78l.02 1.15-.12-.06c.14-.4.36-.7.67-.9.32-.2.68-.3 1.09-.3.53 0 .97.12 1.3.39.34.26.6.6.76 1.03.17.42.25.88.25 1.37 0 .49-.08.95-.25 1.37a2.3 2.3 0 0 1-.76 1.03c-.34.26-.77.4-1.3.4-.28 0-.54-.05-.78-.15a1.8 1.8 0 0 1-.6-.39 1.35 1.35 0 0 1-.34-.6l.12-.14v2.67h-.84Zm2.36-2.2c.46 0 .83-.18 1.1-.53.27-.35.4-.84.4-1.46 0-.63-.13-1.12-.4-1.47a1.31 1.31 0 0 0-1.1-.52c-.31 0-.58.07-.8.22-.23.15-.4.37-.53.67-.13.3-.19.66-.19 1.1 0 .44.06.8.19 1.1.12.3.3.52.52.66.23.15.5.23.8.23Zm4.64.68c-.3 0-.56-.08-.76-.24-.2-.16-.29-.42-.29-.77v-6.15h.85v6.08c0 .11.03.2.08.26.06.05.15.08.25.08h.47v.74h-.6Zm1.56 0V138h.85v5.35h-.85Zm-.02-6.19v-.98h.9v.98h-.9Zm4.48 6.31c-.5 0-.93-.11-1.3-.34a2.3 2.3 0 0 1-.85-.97c-.2-.42-.3-.92-.3-1.48 0-.57.1-1.06.3-1.48a2.3 2.3 0 0 1 2.15-1.32c.41 0 .77.08 1.09.22.32.15.59.35.79.63.2.28.33.61.4 1l-.9.07a1.24 1.24 0 0 0-.46-.82c-.25-.2-.56-.29-.92-.29-.5 0-.88.18-1.15.53-.28.35-.41.84-.41 1.46s.13 1.1.4 1.46c.28.35.67.53 1.16.53.36 0 .67-.1.92-.3.25-.2.4-.51.46-.91l.9.06c-.07.4-.2.74-.4 1.04-.2.29-.47.51-.79.67-.32.16-.68.25-1.09.25Zm4.9 0c-.55 0-.99-.12-1.32-.38a1.29 1.29 0 0 1-.48-1.07c0-.46.13-.82.4-1.08.27-.26.7-.45 1.28-.55l1.9-.36c0-.45-.1-.78-.32-1-.21-.23-.53-.34-.95-.34-.37 0-.66.08-.88.25-.22.16-.36.4-.44.7l-.9-.06c.1-.5.34-.91.72-1.22a2.3 2.3 0 0 1 1.5-.48c.69 0 1.21.2 1.57.59.37.38.55.91.55 1.6v2.2c0 .13.02.21.06.27.05.04.12.07.22.07h.21v.74a.66.66 0 0 1-.13.01 1.69 1.69 0 0 1-.78-.1.71.71 0 0 1-.33-.36 1.8 1.8 0 0 1-.1-.66l.1.02c-.05.23-.16.44-.34.63-.18.18-.4.33-.68.43-.27.1-.55.16-.86.16Zm.08-.74c.36 0 .67-.07.91-.2a1.48 1.48 0 0 0 .8-1.38v-.38l-1.75.32c-.36.07-.61.17-.75.31a.72.72 0 0 0-.2.54c0 .25.08.44.26.59.18.13.43.2.73.2Zm5.7.62c-.5 0-.85-.1-1.09-.33-.22-.22-.34-.57-.34-1.04v-5.23h.85v5.21c0 .24.05.41.16.5.1.1.27.15.5.15h.76v.74h-.85Zm-2.22-4.6V138h3.06v.75h-3.06Zm4.15 4.6V138h.85v5.35h-.85Zm-.02-6.19v-.98h.89v.98h-.89Zm4.48 6.31a2.27 2.27 0 0 1-2.15-1.31c-.2-.42-.3-.92-.3-1.48 0-.57.1-1.07.3-1.49a2.27 2.27 0 0 1 2.15-1.3 2.28 2.28 0 0 1 2.14 1.31c.2.41.3.9.3 1.48 0 .56-.1 1.06-.3 1.48a2.27 2.27 0 0 1-2.14 1.31Zm0-.8c.49 0 .87-.18 1.14-.53.27-.35.41-.84.41-1.46s-.14-1.1-.41-1.46a1.35 1.35 0 0 0-1.14-.53c-.5 0-.88.18-1.16.53-.27.35-.4.84-.4 1.46s.13 1.1.4 1.46c.28.35.66.53 1.16.53Zm3.6.68V138h.77l.03 1.37-.1-.1c.07-.31.19-.57.35-.77.17-.21.38-.37.61-.47a2 2 0 0 1 .78-.15c.4 0 .75.1 1 .27.28.19.48.43.6.74.14.3.2.64.2 1.02v3.44h-.84v-3.2c0-.33-.04-.6-.12-.82a.95.95 0 0 0-.37-.52 1.1 1.1 0 0 0-.65-.18c-.41 0-.75.13-1.02.4-.27.25-.4.63-.4 1.12v3.2h-.84Z"
        />
      </g>
      <g filter="url(#h)">
        <rect
          width="67.54"
          height="20.77"
          x="245.37"
          y="129.47"
          fill="#fff"
          fill-opacity=".07"
          rx="10.38"
          shape-rendering="crispEdges"
        />
        <path
          fill="#A1A1AA"
          d="M252.07 143.35v-7.16h2.22c1.1 0 1.95.3 2.54.94.6.61.9 1.5.9 2.65 0 1.14-.3 2.03-.88 2.65-.58.61-1.42.92-2.5.92h-2.28Zm.87-.84h1.35c.84 0 1.47-.23 1.9-.68.42-.46.63-1.14.63-2.05 0-.92-.2-1.6-.63-2.06-.43-.46-1.06-.69-1.9-.69h-1.35v5.48Zm8.28.97c-.5 0-.94-.12-1.3-.35a2.3 2.3 0 0 1-.86-.97c-.2-.42-.29-.92-.29-1.48 0-.57.1-1.06.3-1.48.2-.41.47-.74.83-.96.36-.24.8-.36 1.28-.36.47 0 .88.11 1.24.34.35.21.63.53.82.94.2.42.3.93.3 1.53v.25h-3.88c.03.57.18 1 .45 1.3.28.28.65.43 1.11.43.35 0 .64-.08.86-.24.23-.17.39-.4.48-.66l.9.07a2.27 2.27 0 0 1-2.24 1.64Zm-1.56-3.29h2.96c-.04-.51-.2-.9-.46-1.14a1.37 1.37 0 0 0-.98-.36c-.4 0-.75.13-1.02.38-.26.25-.43.63-.5 1.12Zm5.03 4.68V138h.8l.01 1.15-.12-.06c.13-.4.36-.7.67-.9.31-.2.68-.3 1.09-.3.53 0 .96.12 1.3.39.34.26.6.6.76 1.03.17.42.25.88.25 1.37 0 .49-.08.95-.25 1.37a2.3 2.3 0 0 1-.76 1.03c-.34.26-.77.4-1.3.4-.28 0-.54-.05-.78-.15-.24-.1-.44-.22-.6-.39a1.35 1.35 0 0 1-.34-.6l.12-.14v2.67h-.85Zm2.37-2.2c.46 0 .83-.18 1.1-.53.27-.35.4-.84.4-1.46 0-.63-.13-1.12-.4-1.47a1.31 1.31 0 0 0-1.1-.52c-.31 0-.58.07-.81.22-.22.15-.4.37-.53.67-.12.3-.18.66-.18 1.1 0 .44.06.8.18 1.1.13.3.3.52.53.66.23.15.5.23.8.23Zm4.64.68c-.31 0-.56-.08-.76-.24-.2-.16-.3-.42-.3-.77v-6.15h.86v6.08c0 .11.02.2.08.26.06.05.14.08.25.08h.47v.74h-.6Zm3.67.13a2.27 2.27 0 0 1-2.15-1.31c-.2-.43-.3-.93-.3-1.5 0-.56.1-1.06.3-1.48a2.28 2.28 0 0 1 2.15-1.3 2.27 2.27 0 0 1 2.14 1.31c.2.41.3.9.3 1.48 0 .56-.1 1.06-.3 1.48a2.27 2.27 0 0 1-2.14 1.31Zm0-.81c.5 0 .87-.18 1.14-.53.28-.35.42-.84.42-1.46s-.14-1.1-.42-1.46a1.34 1.34 0 0 0-1.14-.53c-.49 0-.87.18-1.15.53-.28.35-.41.84-.41 1.46s.13 1.1.41 1.46c.28.35.66.53 1.15.53Zm3.68 2.2v-.75h.61c.19 0 .33-.03.41-.09a.5.5 0 0 0 .22-.27l.19-.5h-.3l-1.95-5.26h.93l1.6 4.47 1.51-4.47h.93l-2.17 6.03c-.1.29-.25.5-.45.64-.2.13-.48.2-.84.2h-.7Zm7.83-1.52v-7.16h1.23l3.54 6.3v-6.3h.87v7.16h-1.29l-3.48-6.17v6.17h-.87Zm9.62.16c-.5 0-.97-.07-1.37-.24a2.1 2.1 0 0 1-.94-.71c-.22-.32-.33-.71-.33-1.18 0-.51.15-.94.46-1.28.31-.34.72-.57 1.23-.7l.02.2c-.4-.1-.74-.3-1-.55a1.48 1.48 0 0 1-.37-1.06 1.84 1.84 0 0 1 1.1-1.7c.33-.18.74-.27 1.2-.27.47 0 .87.1 1.21.27a1.85 1.85 0 0 1 1.1 1.7c0 .45-.13.8-.38 1.06s-.58.44-1 .56l.02-.2c.52.12.93.35 1.23.7.31.33.47.76.47 1.27a1.94 1.94 0 0 1-1.27 1.9c-.4.16-.86.23-1.38.23Zm0-.84c.54 0 .95-.11 1.26-.33.32-.22.48-.55.48-1 0-.42-.14-.76-.43-1-.27-.26-.7-.39-1.3-.39-.6 0-1.04.13-1.32.39-.28.24-.42.58-.42 1 0 .45.15.78.46 1 .32.22.74.33 1.27.33Zm0-3.53c.45 0 .79-.09 1.03-.28.25-.2.37-.48.37-.87 0-.34-.12-.61-.36-.81-.23-.2-.58-.3-1.04-.3-.45 0-.8.1-1.04.3-.23.2-.35.47-.35.81 0 .39.12.68.36.87.24.19.59.28 1.03.28Zm3.98 4.21v-7.16h1.23l3.54 6.3v-6.3h.87v7.16h-1.3l-3.48-6.17v6.17h-.86Z"
        />
      </g>
      <g filter="url(#i)">
        <rect
          width="123.54"
          height="20.77"
          x="318.68"
          y="129.47"
          fill="#fff"
          fill-opacity=".07"
          rx="10.38"
          shape-rendering="crispEdges"
        />
        <path
          fill="#A1A1AA"
          d="M325.38 143.35v-7.16h2.46c.85 0 1.48.15 1.9.46.43.31.64.8.64 1.46 0 .31-.06.59-.2.82-.13.24-.33.42-.57.56-.25.13-.55.19-.9.19v-.06c.6 0 1.09.16 1.44.5.36.32.54.74.54 1.26 0 .66-.22 1.15-.64 1.48-.43.33-1.03.5-1.8.5h-2.88Zm.86-.84h2c.5 0 .87-.1 1.13-.3.27-.2.4-.5.4-.88 0-.37-.13-.67-.4-.87a1.75 1.75 0 0 0-1.13-.33h-2v2.38Zm0-3.22h1.6c.52 0 .93-.1 1.2-.3.3-.2.43-.48.43-.84 0-.37-.14-.65-.41-.83a2.14 2.14 0 0 0-1.22-.29h-1.6v2.25Zm7.51 4.19c-.53 0-.95-.18-1.28-.54a2.2 2.2 0 0 1-.47-1.5V138h.85v3.21c0 .52.09.9.27 1.15.19.25.47.37.86.37.42 0 .75-.14 1-.4.24-.28.36-.66.36-1.14V138h.85v5.35h-.81v-1.32l.13.07c-.1.44-.31.78-.62 1.02-.3.24-.68.35-1.14.35Zm3.9-.13V138h.85v5.35h-.84Zm-.01-6.19v-.98h.88v.98h-.88Zm3.43 6.2c-.3 0-.56-.09-.75-.25-.2-.16-.3-.42-.3-.77v-6.15h.85v6.08c0 .11.03.2.08.26.06.05.15.08.25.08h.47v.74h-.6Zm3.48.11c-.46 0-.87-.11-1.2-.34a2.2 2.2 0 0 1-.79-.97 3.7 3.7 0 0 1-.27-1.48c0-.57.1-1.07.27-1.49.19-.41.44-.74.78-.97.35-.22.75-.34 1.21-.34.36 0 .69.08.98.23.3.15.52.36.67.64v-2.56h.85v7.16h-.77l-.03-.8c-.15.29-.38.51-.68.68-.3.16-.64.25-1.02.25Zm.17-.8c.32 0 .59-.08.8-.24.22-.17.4-.4.5-.7a3 3 0 0 0 .18-1.05c0-.42-.06-.78-.17-1.07-.12-.3-.29-.52-.5-.68a1.29 1.29 0 0 0-.8-.24c-.48 0-.85.18-1.14.53-.27.35-.41.84-.41 1.46 0 .61.14 1.1.41 1.45.29.36.66.54 1.13.54Zm6.58.68v-7.16h2.22c1.1 0 1.96.3 2.55.94.6.61.9 1.5.9 2.65 0 1.14-.3 2.03-.88 2.65-.59.61-1.42.92-2.5.92h-2.29Zm.87-.84h1.35c.85 0 1.48-.23 1.9-.68.43-.46.64-1.14.64-2.05 0-.92-.21-1.6-.64-2.06-.42-.46-1.05-.69-1.9-.69h-1.35v5.48Zm5 2.36v-.75h.44c.18 0 .32-.04.43-.13.1-.08.16-.23.16-.46V138h.85v5.58c0 .47-.11.8-.32 1-.2.2-.55.29-1.04.29h-.51Zm1-7.7v-1h.9v1h-.9Zm3.83 6.3c-.55 0-.99-.12-1.32-.38a1.29 1.29 0 0 1-.49-1.07c0-.46.14-.82.4-1.08.28-.26.7-.45 1.3-.55l1.89-.36c0-.45-.1-.78-.32-1-.21-.23-.53-.34-.95-.34-.37 0-.67.08-.88.25-.22.16-.36.4-.44.7l-.9-.06c.1-.5.34-.91.72-1.22.4-.32.9-.48 1.5-.48.68 0 1.2.2 1.57.59.37.38.55.91.55 1.6v2.2c0 .13.02.21.06.27.05.04.12.07.22.07h.21v.74a.65.65 0 0 1-.13.01 1.69 1.69 0 0 1-.79-.1.72.72 0 0 1-.32-.36 1.8 1.8 0 0 1-.1-.66l.1.02c-.05.23-.16.44-.34.63-.19.18-.41.33-.68.43-.27.1-.56.16-.86.16Zm.08-.74c.36 0 .66-.07.91-.2a1.48 1.48 0 0 0 .79-1.38v-.38l-1.74.32c-.36.07-.61.17-.75.31a.72.72 0 0 0-.2.54c0 .25.08.44.26.59.18.13.42.2.73.2Zm4 .62V138h.78l.03 1.37-.1-.1c.06-.31.18-.57.35-.77.17-.21.37-.37.6-.47a2 2 0 0 1 .78-.15c.41 0 .75.1 1.01.27.27.19.47.43.6.74.13.3.2.64.2 1.02v3.44h-.85v-3.2c0-.33-.04-.6-.12-.82a.95.95 0 0 0-.36-.52 1.1 1.1 0 0 0-.66-.18c-.4 0-.75.13-1.02.4-.26.25-.4.63-.4 1.12v3.2h-.84Zm7.78 1.64a2.7 2.7 0 0 1-1.04-.2c-.31-.12-.57-.3-.78-.54-.2-.23-.35-.5-.42-.81l.88-.07c.08.25.23.45.43.59.2.15.52.22.93.22.48 0 .85-.1 1.1-.3.27-.19.4-.48.4-.87v-.87c-.13.29-.33.51-.61.68-.29.17-.6.25-.95.25a2.25 2.25 0 0 1-2.04-1.25c-.2-.4-.3-.84-.3-1.34 0-.51.1-.96.3-1.35a2.18 2.18 0 0 1 3-.99c.3.18.52.42.64.71V138h.8V143a1.77 1.77 0 0 1-1.09 1.76c-.34.16-.76.24-1.25.24Zm-.02-2.73c.46 0 .82-.16 1.1-.47.27-.32.42-.76.42-1.31 0-.37-.05-.69-.18-.95a1.45 1.45 0 0 0-1.34-.84c-.47 0-.84.16-1.1.48-.26.32-.39.76-.39 1.3 0 .56.13 1 .4 1.32.27.31.63.47 1.09.47Zm5.97 1.22a2.27 2.27 0 0 1-2.15-1.31c-.2-.43-.3-.93-.3-1.5 0-.56.1-1.06.3-1.48a2.28 2.28 0 0 1 2.15-1.3 2.28 2.28 0 0 1 2.14 1.31c.2.41.3.9.3 1.48 0 .56-.1 1.06-.3 1.48a2.27 2.27 0 0 1-2.14 1.31Zm0-.81c.5 0 .88-.18 1.14-.53.28-.35.42-.84.42-1.46s-.14-1.1-.42-1.46a1.34 1.34 0 0 0-1.14-.53c-.49 0-.87.18-1.15.53-.27.35-.41.84-.41 1.46s.14 1.1.41 1.46c.28.35.66.53 1.15.53Zm7.67.8c-.55 0-1-.12-1.32-.38a1.29 1.29 0 0 1-.49-1.07c0-.46.14-.82.4-1.08.27-.26.7-.45 1.29-.55l1.9-.36c0-.45-.11-.78-.33-1-.2-.23-.52-.34-.95-.34-.37 0-.66.08-.88.25-.21.16-.36.4-.44.7l-.9-.06c.1-.5.35-.91.73-1.22.39-.32.89-.48 1.5-.48.68 0 1.2.2 1.57.59.36.38.54.91.54 1.6v2.2c0 .13.02.21.06.27.05.04.13.07.23.07h.2v.74a.66.66 0 0 1-.12.01 1.69 1.69 0 0 1-.8-.1.72.72 0 0 1-.31-.36 1.8 1.8 0 0 1-.1-.66l.1.02c-.05.23-.17.44-.35.63-.18.18-.4.33-.67.43-.27.1-.56.16-.86.16Zm.08-.74c.36 0 .66-.07.9-.2a1.48 1.48 0 0 0 .8-1.38v-.38l-1.74.32c-.37.07-.62.17-.76.31a.72.72 0 0 0-.2.54c0 .25.09.44.26.59.18.13.43.2.74.2Zm4 2.14V138h.78l.02 1.15-.12-.06c.14-.4.36-.7.67-.9.31-.2.68-.3 1.09-.3.53 0 .96.12 1.3.39.34.26.6.6.76 1.03.17.42.25.88.25 1.37 0 .49-.08.95-.25 1.37a2.3 2.3 0 0 1-.76 1.03c-.34.26-.77.4-1.3.4-.28 0-.54-.05-.78-.15-.23-.1-.44-.22-.6-.39a1.33 1.33 0 0 1-.34-.6l.12-.14v2.67h-.84Zm2.36-2.2c.46 0 .83-.18 1.1-.53.27-.35.4-.84.4-1.46 0-.63-.13-1.12-.4-1.47a1.31 1.31 0 0 0-1.1-.52c-.31 0-.58.07-.8.22-.23.15-.4.37-.53.67-.13.3-.19.66-.19 1.1 0 .44.06.8.19 1.1.12.3.3.52.52.66.23.15.5.23.8.23Zm3.54 2.2V138h.79l.02 1.15-.12-.06c.13-.4.36-.7.66-.9.32-.2.68-.3 1.1-.3.53 0 .96.12 1.3.39.34.26.6.6.75 1.03a3.7 3.7 0 0 1 0 2.75 2.05 2.05 0 0 1-2.06 1.42c-.27 0-.53-.05-.77-.15a1.8 1.8 0 0 1-.6-.39 1.34 1.34 0 0 1-.34-.6l.12-.14v2.67h-.85Zm2.36-2.2c.47 0 .83-.18 1.1-.53.27-.35.4-.84.4-1.46 0-.63-.13-1.12-.4-1.47a1.31 1.31 0 0 0-1.1-.52c-.3 0-.57.07-.8.22-.23.15-.4.37-.53.67-.12.3-.18.66-.18 1.1 0 .44.06.8.18 1.1.12.3.3.52.53.66.23.15.5.23.8.23Zm4.65.68c-.31 0-.57-.08-.76-.24-.2-.16-.3-.42-.3-.77v-6.15h.85v6.08c0 .11.03.2.09.26.06.05.14.08.25.08h.46v.74h-.6Zm1.56 0V138h.85v5.35h-.85Zm-.02-6.19v-.98h.89v.98h-.9Zm4.48 6.31c-.5 0-.94-.11-1.3-.34a2.3 2.3 0 0 1-.86-.97c-.2-.42-.3-.92-.3-1.48 0-.57.1-1.06.3-1.48a2.3 2.3 0 0 1 2.16-1.32c.4 0 .77.08 1.08.22.33.15.6.35.8.63.2.28.33.61.39 1l-.9.07a1.24 1.24 0 0 0-.46-.82c-.25-.2-.55-.29-.91-.29-.5 0-.88.18-1.16.53-.27.35-.41.84-.41 1.46s.14 1.1.41 1.46c.28.35.66.53 1.16.53.36 0 .66-.1.91-.3.25-.2.4-.51.47-.91l.89.06c-.06.4-.2.74-.4 1.04-.2.29-.46.51-.79.67-.31.16-.67.25-1.08.25Zm4.9 0c-.55 0-1-.12-1.32-.38a1.29 1.29 0 0 1-.49-1.07c0-.46.14-.82.4-1.08.28-.26.7-.45 1.29-.55l1.9-.36c0-.45-.11-.78-.33-1-.2-.23-.52-.34-.95-.34-.37 0-.66.08-.87.25-.22.16-.37.4-.45.7l-.9-.06c.1-.5.35-.91.73-1.22.4-.32.89-.48 1.5-.48.68 0 1.2.2 1.57.59.36.38.54.91.54 1.6v2.2c0 .13.03.21.06.27.05.04.13.07.23.07h.2v.74a.65.65 0 0 1-.12.01 1.69 1.69 0 0 1-.79-.1.71.71 0 0 1-.32-.36 1.8 1.8 0 0 1-.1-.66l.1.02c-.05.23-.16.44-.35.63-.18.18-.4.33-.67.43-.27.1-.56.16-.86.16Zm.08-.74c.36 0 .66-.07.9-.2a1.48 1.48 0 0 0 .8-1.38v-.38l-1.74.32c-.36.07-.62.17-.76.31a.72.72 0 0 0-.2.54c0 .25.09.44.26.59.19.13.43.2.74.2Zm5.69.62c-.49 0-.85-.1-1.08-.33-.23-.22-.34-.57-.34-1.04v-5.23h.84v5.21c0 .24.06.41.17.5.1.1.27.15.49.15h.77v.74h-.85Zm-2.21-4.6V138H422v.75h-3.06Zm4.15 4.6V138h.84v5.35h-.84Zm-.03-6.19v-.98h.9v.98h-.9Zm4.48 6.31a2.27 2.27 0 0 1-2.15-1.31c-.2-.42-.3-.92-.3-1.48 0-.57.1-1.07.3-1.49a2.28 2.28 0 0 1 2.15-1.3 2.26 2.26 0 0 1 2.14 1.31c.2.41.3.9.3 1.48 0 .56-.1 1.06-.3 1.48a2.26 2.26 0 0 1-2.14 1.31Zm0-.8c.5 0 .87-.18 1.14-.53.28-.35.42-.84.42-1.46s-.14-1.1-.42-1.46a1.34 1.34 0 0 0-1.14-.53c-.49 0-.87.18-1.15.53-.28.35-.41.84-.41 1.46s.13 1.1.41 1.46c.28.35.66.53 1.15.53Zm3.6.68V138h.78l.03 1.37-.1-.1c.06-.31.18-.57.35-.77.17-.21.37-.37.6-.47a2 2 0 0 1 .78-.15c.41 0 .75.1 1.01.27.27.19.47.43.6.74.13.3.2.64.2 1.02v3.44h-.85v-3.2c0-.33-.04-.6-.12-.82a.95.95 0 0 0-.36-.52 1.1 1.1 0 0 0-.66-.18c-.4 0-.75.13-1.02.4-.26.25-.4.63-.4 1.12v3.2h-.84Z"
        />
      </g>
    </g>
    <path fill="url(#j)" d="M0 0h358v147H0z" transform="translate(-.67 .07)" />
    <path
      fill="url(#k)"
      d="M0 0h159v371H0z"
      transform="rotate(-90 72.7 86.37)"
    />
  </g>
  <defs>
    <filter
      id="c"
      width="578.34"
      height="183.46"
      x="10.61"
      y="11.35"
      color-interpolation-filters="sRGB"
      filterUnits="userSpaceOnUse"
    >
      <feFlood flood-opacity="0" result="BackgroundImageFix" />
      <feBlend in="SourceGraphic" in2="BackgroundImageFix" result="shape" />
      <feColorMatrix
        in="SourceAlpha"
        result="hardAlpha"
        values="0 0 0 0 0 0 0 0 0 0 0 0 0 0 0 0 0 0 127 0"
      />
      <feOffset />
      <feGaussianBlur stdDeviation="2.88" />
      <feComposite in2="hardAlpha" k2="-1" k3="1" operator="arithmetic" />
      <feColorMatrix values="0 0 0 0 1 0 0 0 0 1 0 0 0 0 1 0 0 0 0.25 0" />
      <feBlend in2="shape" result="effect1_innerShadow_3245_7573" />
    </filter>
    <filter
      id="f"
      width="74.42"
      height="23.65"
      x="24.31"
      y="128.75"
      color-interpolation-filters="sRGB"
      filterUnits="userSpaceOnUse"
    >
      <feFlood flood-opacity="0" result="BackgroundImageFix" />
      <feColorMatrix
        in="SourceAlpha"
        result="hardAlpha"
        values="0 0 0 0 0 0 0 0 0 0 0 0 0 0 0 0 0 0 127 0"
      />
      <feOffset dy=".72" />
      <feGaussianBlur stdDeviation=".72" />
      <feComposite in2="hardAlpha" operator="out" />
      <feColorMatrix values="0 0 0 0 0 0 0 0 0 0 0 0 0 0 0 0 0 0 0.05 0" />
      <feBlend in2="BackgroundImageFix" result="effect1_dropShadow_3245_7573" />
      <feBlend
        in="SourceGraphic"
        in2="effect1_dropShadow_3245_7573"
        result="shape"
      />
    </filter>
    <filter
      id="g"
      width="139.42"
      height="23.65"
      x="101.62"
      y="128.75"
      color-interpolation-filters="sRGB"
      filterUnits="userSpaceOnUse"
    >
      <feFlood flood-opacity="0" result="BackgroundImageFix" />
      <feColorMatrix
        in="SourceAlpha"
        result="hardAlpha"
        values="0 0 0 0 0 0 0 0 0 0 0 0 0 0 0 0 0 0 127 0"
      />
      <feOffset dy=".72" />
      <feGaussianBlur stdDeviation=".72" />
      <feComposite in2="hardAlpha" operator="out" />
      <feColorMatrix values="0 0 0 0 0 0 0 0 0 0 0 0 0 0 0 0 0 0 0.05 0" />
      <feBlend in2="BackgroundImageFix" result="effect1_dropShadow_3245_7573" />
      <feBlend
        in="SourceGraphic"
        in2="effect1_dropShadow_3245_7573"
        result="shape"
      />
    </filter>
    <filter
      id="h"
      width="70.42"
      height="23.65"
      x="243.93"
      y="128.75"
      color-interpolation-filters="sRGB"
      filterUnits="userSpaceOnUse"
    >
      <feFlood flood-opacity="0" result="BackgroundImageFix" />
      <feColorMatrix
        in="SourceAlpha"
        result="hardAlpha"
        values="0 0 0 0 0 0 0 0 0 0 0 0 0 0 0 0 0 0 127 0"
      />
      <feOffset dy=".72" />
      <feGaussianBlur stdDeviation=".72" />
      <feComposite in2="hardAlpha" operator="out" />
      <feColorMatrix values="0 0 0 0 0 0 0 0 0 0 0 0 0 0 0 0 0 0 0.05 0" />
      <feBlend in2="BackgroundImageFix" result="effect1_dropShadow_3245_7573" />
      <feBlend
        in="SourceGraphic"
        in2="effect1_dropShadow_3245_7573"
        result="shape"
      />
    </filter>
    <filter
      id="i"
      width="126.42"
      height="23.65"
      x="317.24"
      y="128.75"
      color-interpolation-filters="sRGB"
      filterUnits="userSpaceOnUse"
    >
      <feFlood flood-opacity="0" result="BackgroundImageFix" />
      <feColorMatrix
        in="SourceAlpha"
        result="hardAlpha"
        values="0 0 0 0 0 0 0 0 0 0 0 0 0 0 0 0 0 0 127 0"
      />
      <feOffset dy=".72" />
      <feGaussianBlur stdDeviation=".72" />
      <feComposite in2="hardAlpha" operator="out" />
      <feColorMatrix values="0 0 0 0 0 0 0 0 0 0 0 0 0 0 0 0 0 0 0.05 0" />
      <feBlend in2="BackgroundImageFix" result="effect1_dropShadow_3245_7573" />
      <feBlend
        in="SourceGraphic"
        in2="effect1_dropShadow_3245_7573"
        result="shape"
      />
    </filter>
    <linearGradient
      id="b"
      x1="288.45"
      x2="288.45"
      y1="113.64"
      y2="180.28"
      gradientUnits="userSpaceOnUse"
    >
      <stop stop-color="#0A0A0A" stop-opacity="0" />
      <stop offset="1" stop-color="#0A0A0A" />
    </linearGradient>
    <linearGradient
      id="d"
      x1="15.57"
      x2="107.61"
      y1="12.07"
      y2="112.97"
      gradientUnits="userSpaceOnUse"
    >
      <stop stop-color="#fff" />
      <stop offset="1" stop-color="#fff" stop-opacity="0" />
    </linearGradient>
    <linearGradient
      id="j"
      x1="179"
      x2="179"
      y1="92.66"
      y2="147"
      gradientUnits="userSpaceOnUse"
    >
      <stop stop-color="#0A0A0A" stop-opacity="0" />
      <stop offset="1" stop-color="#0A0A0A" />
    </linearGradient>
    <linearGradient
      id="k"
      x1="79.5"
      x2="79.5"
      y1="233.85"
      y2="371"
      gradientUnits="userSpaceOnUse"
    >
      <stop stop-color="#0A0A0A" stop-opacity="0" />
      <stop offset="1" stop-color="#0A0A0A" />
    </linearGradient>
    <clipPath id="a"><path fill="#fff" d="M0 0h357.33v147H0z" /></clipPath>
    <clipPath id="e">
      <rect
        width="559.59"
        height="79.32"
        x="19.99"
        y="23.61"
        fill="#fff"
        rx="8.65"
      />
    </clipPath>
  </defs>
</svg>
