<svg xmlns="http://www.w3.org/2000/svg" width="48" height="48" viewBox="0 0 48 48" fill="none">
  <path d="M44.7737 32.494C35.1702 38.0895 17.0595 37.7879 11.4099 35.9057C11.102 36.9794 12.5742 43.4619 19.1585 44.7688C29.6502 46.8513 38.5406 36.7965 44.7737 32.494Z" fill="black"/>
  <path d="M21.7996 3.23083C28.3113 4.91528 42.7673 17.4419 10.5664 27.0268C14.4378 25.045 23.1373 12.5393 21.7996 3.23083Z" fill="black"/>
  <path d="M20.7821 25.8256C20.69 25.8658 20.6072 25.9297 20.5452 26.0088C17.4606 29.9468 14.6278 32.431 12.4291 33.5565C33.2648 33.5565 35.0575 22.2865 30.4457 19.0758C28.621 21.3601 26.3002 23.4142 20.7821 25.8256Z" fill="black"/>
</svg>