<svg width="410" height="287" viewBox="0 0 410 287" fill="none" xmlns="http://www.w3.org/2000/svg">
<g clip-path="url(#clip0_420_2317)">
<g filter="url(#filter0_d_420_2317)">
<rect width="123.608" height="89.8965" rx="6.74224" transform="matrix(0.996195 -0.0871557 0.34202 0.939693 286.528 138.343)" fill="white" fill-opacity="0.7" shape-rendering="crispEdges"/>
<rect x="0.234721" y="0.149534" width="123.257" height="89.5457" rx="6.56684" transform="matrix(0.996195 -0.0871557 0.34202 0.939693 286.477 138.372)" stroke="#E3EDFE" stroke-width="0.350797" shape-rendering="crispEdges"/>
<g clip-path="url(#clip1_420_2317)">
<path d="M347.672 157.082C348.342 156.022 349.279 155.146 350.427 154.503C351.576 153.861 352.914 153.465 354.365 153.338C355.817 153.211 357.352 153.356 358.883 153.764C360.414 154.172 361.911 154.835 363.288 155.716C366.076 157.494 368.208 160.049 369.216 162.819C370.224 165.589 370.026 168.347 368.664 170.489C367.993 171.547 367.055 172.423 365.906 173.064C364.757 173.706 363.418 174.101 361.967 174.227C360.516 174.354 358.981 174.209 357.45 173.8C355.919 173.392 354.423 172.729 353.046 171.848L343.57 165.794C343.301 165.622 343.095 165.375 342.998 165.108C342.901 164.841 342.92 164.575 343.051 164.368L347.672 157.082ZM362.329 157.822C361.317 157.175 360.218 156.688 359.093 156.388C357.968 156.089 356.84 155.982 355.774 156.076C354.708 156.169 353.725 156.46 352.881 156.932C352.037 157.404 351.349 158.047 350.857 158.826L347.464 164.178C347.368 164.33 347.355 164.526 347.426 164.722C347.498 164.918 347.648 165.099 347.845 165.226L354.816 169.678C355.827 170.325 356.927 170.812 358.052 171.112C359.176 171.411 360.304 171.518 361.37 171.424C362.436 171.331 363.419 171.04 364.263 170.568C365.107 170.096 365.795 169.453 366.288 168.674C367.284 167.099 367.428 165.073 366.686 163.039C365.944 161.005 364.378 159.129 362.331 157.822L362.329 157.822ZM356.759 158.597C359.77 158.334 363.064 160.458 364.113 163.34C365.163 166.225 363.574 168.777 360.56 169.04C357.547 169.304 354.253 167.18 353.203 164.295C352.154 161.412 353.746 158.861 356.759 158.597ZM375.022 161.654L370.795 158.951C370.741 158.915 370.678 158.894 370.618 158.89C370.558 158.887 370.503 158.902 370.461 158.933C370.42 158.964 370.396 159.009 370.391 159.062C370.387 159.114 370.402 159.17 370.436 159.222C371.806 161.45 372.666 163.811 372.952 166.134C372.984 166.387 373.36 166.519 373.48 166.328L375.54 163.077C375.67 162.87 375.689 162.605 375.592 162.338C375.495 162.072 375.29 161.826 375.022 161.654Z" fill="#43B6EA"/>
</g>
<path d="M348.897 191.42L350.686 191.264L356.403 198.155L356.518 198.145L357.021 190.709L358.809 190.553L362.164 199.768L360.761 199.891L358.334 193.222L358.243 193.23L357.784 200.137L356.62 200.239L351.315 193.832L351.225 193.84L353.653 200.513L352.251 200.636L348.897 191.42ZM364.192 199.591L361.676 192.679L363.103 192.554L365.618 199.466L364.192 199.591ZM362.009 191.55C361.761 191.571 361.519 191.512 361.284 191.372C361.051 191.228 360.895 191.047 360.816 190.828C360.735 190.606 360.753 190.409 360.872 190.238C360.992 190.063 361.176 189.965 361.424 189.943C361.672 189.922 361.912 189.983 362.145 190.126C362.38 190.267 362.538 190.448 362.619 190.67C362.698 190.889 362.678 191.086 362.558 191.26C362.44 191.432 362.257 191.528 362.009 191.55ZM365.609 189.958L368.964 199.173L367.537 199.298L364.183 190.083L365.609 189.958ZM374.635 191.545L374.494 198.69L372.967 198.823L367.79 192.144L369.321 192.01L373.112 197.167L373.189 197.16L373.104 191.679L374.635 191.545ZM382.089 195.067L380.617 191.022L382.048 190.897L384.564 197.809L383.161 197.931L382.726 196.734L382.649 196.741C382.615 197.125 382.457 197.456 382.174 197.734C381.894 198.01 381.478 198.171 380.928 198.219C380.457 198.261 380.005 198.2 379.572 198.036C379.14 197.87 378.751 197.602 378.403 197.233C378.059 196.864 377.783 196.394 377.576 195.824L375.975 191.428L377.402 191.303L378.943 195.538C379.114 196.009 379.389 196.372 379.767 196.626C380.146 196.881 380.556 196.989 380.998 196.95C381.265 196.927 381.508 196.841 381.726 196.692C381.947 196.542 382.099 196.333 382.181 196.062C382.266 195.792 382.236 195.46 382.089 195.067ZM390.069 191.936L388.855 192.265C388.744 192.114 388.604 191.973 388.435 191.842C388.27 191.711 388.072 191.61 387.842 191.537C387.612 191.464 387.349 191.441 387.053 191.467C386.649 191.502 386.343 191.617 386.135 191.812C385.926 192.003 385.87 192.232 385.967 192.499C386.051 192.73 386.21 192.908 386.442 193.034C386.675 193.159 387.01 193.249 387.446 193.303L388.702 193.453C389.43 193.541 390.014 193.724 390.457 194.001C390.899 194.278 391.209 194.661 391.387 195.15C391.537 195.564 391.544 195.944 391.408 196.29C391.274 196.633 391.014 196.916 390.629 197.139C390.247 197.361 389.76 197.498 389.169 197.55C388.348 197.621 387.619 197.515 386.98 197.23C386.341 196.943 385.851 196.498 385.51 195.896L386.817 195.578C387.026 195.909 387.296 196.15 387.627 196.301C387.956 196.448 388.335 196.504 388.765 196.466C389.232 196.425 389.573 196.301 389.786 196.093C389.998 195.883 390.055 195.644 389.958 195.377C389.88 195.161 389.728 194.987 389.502 194.855C389.28 194.723 388.981 194.635 388.604 194.59L387.27 194.442C386.533 194.355 385.942 194.165 385.498 193.873C385.056 193.58 384.746 193.188 384.567 192.696C384.419 192.288 384.41 191.921 384.54 191.594C384.67 191.266 384.917 190.999 385.281 190.79C385.644 190.579 386.101 190.449 386.651 190.401C387.443 190.332 388.125 190.44 388.698 190.724C389.269 191.005 389.726 191.409 390.069 191.936Z" fill="#24282C"/>
</g>
<g filter="url(#filter1_d_420_2317)">
<rect width="123.608" height="89.8965" rx="6.74224" transform="matrix(0.996195 -0.0871557 0.34202 0.939693 149.957 150.291)" fill="white" fill-opacity="0.7" shape-rendering="crispEdges"/>
<rect x="0.234721" y="0.149534" width="123.257" height="89.5457" rx="6.56684" transform="matrix(0.996195 -0.0871557 0.34202 0.939693 149.907 150.321)" stroke="#E3EDFE" stroke-width="0.350797" shape-rendering="crispEdges"/>
<g clip-path="url(#clip2_420_2317)">
<path d="M228.883 176.737C228.3 176.788 227.766 176.956 227.317 177.229C226.869 177.502 226.516 177.874 226.282 178.32L223.885 177.206C223.897 176.658 223.809 176.08 223.592 175.485C223.379 174.9 223.063 174.352 222.675 173.846L224.139 172.409C224.672 172.786 225.264 173.073 225.876 173.252C226.488 173.431 227.105 173.497 227.687 173.446C229.951 173.248 231.165 171.359 230.391 169.232C229.617 167.106 227.145 165.539 224.881 165.737C224.242 165.794 223.664 165.989 223.191 166.308C222.718 166.627 222.364 167.061 222.157 167.575C221.95 168.089 221.895 168.669 221.997 169.269C222.099 169.868 222.356 170.472 222.746 171.031L221.281 172.469C220.111 171.584 218.709 171.049 217.345 170.966L216.552 168.787C217.407 168.523 218.061 167.976 218.405 167.238C218.748 166.5 218.761 165.615 218.441 164.73C217.667 162.604 215.195 161.037 212.931 161.235C210.667 161.433 209.454 163.322 210.228 165.449C210.547 166.32 211.17 167.138 211.997 167.769C212.825 168.4 213.806 168.807 214.782 168.924L215.586 171.131C214.433 171.442 213.54 172.142 213.064 173.108C212.589 174.073 212.56 175.243 212.983 176.413C213.414 177.589 214.273 178.687 215.409 179.514C216.545 180.341 217.885 180.842 219.192 180.931L220.041 183.261C219.196 183.531 218.552 184.078 218.215 184.813C217.877 185.549 217.867 186.428 218.185 187.306C218.957 189.432 221.428 190.999 223.692 190.801C225.956 190.603 227.17 188.714 226.396 186.587C226.075 185.709 225.445 184.886 224.61 184.254C223.775 183.621 222.784 183.216 221.802 183.107L220.953 180.776C222.149 180.465 223.068 179.738 223.541 178.731L225.954 179.852C225.971 180.214 226.047 180.584 226.18 180.951C226.954 183.076 229.426 184.644 231.691 184.446C233.955 184.248 235.169 182.359 234.395 180.232C233.621 178.106 231.147 176.539 228.883 176.737ZM225.603 167.724C226.131 167.678 226.709 167.831 227.209 168.149C227.71 168.467 228.093 168.923 228.274 169.419C228.454 169.914 228.417 170.408 228.171 170.79C227.925 171.173 227.491 171.415 226.963 171.462C226.435 171.507 225.857 171.354 225.357 171.036C224.856 170.719 224.473 170.262 224.292 169.767C224.112 169.272 224.15 168.779 224.395 168.396C224.641 168.013 225.075 167.771 225.603 167.724L225.603 167.724ZM212.343 165.264C212.163 164.769 212.2 164.276 212.446 163.893C212.692 163.51 213.126 163.268 213.654 163.222C214.182 163.176 214.76 163.329 215.261 163.646C215.762 163.964 216.145 164.421 216.326 164.916C216.505 165.412 216.468 165.905 216.222 166.288C215.976 166.671 215.542 166.912 215.014 166.959C214.486 167.004 213.908 166.852 213.407 166.534C212.907 166.216 212.524 165.76 212.343 165.264ZM224.28 186.773C224.46 187.268 224.423 187.762 224.177 188.145C223.931 188.528 223.497 188.769 222.969 188.816C222.441 188.861 221.863 188.709 221.363 188.391C220.862 188.073 220.479 187.617 220.298 187.121C220.118 186.626 220.156 186.132 220.401 185.75C220.647 185.367 221.081 185.125 221.609 185.078C222.137 185.033 222.715 185.185 223.216 185.503C223.717 185.821 224.1 186.277 224.281 186.773L224.28 186.773ZM219.235 178.556C218.499 178.62 217.693 178.407 216.994 177.964C216.296 177.521 215.762 176.884 215.509 176.193C215.258 175.502 215.31 174.813 215.653 174.279C215.996 173.745 216.602 173.408 217.338 173.343C218.074 173.279 218.881 173.492 219.579 173.935C220.278 174.379 220.812 175.016 221.064 175.707C221.315 176.398 221.263 177.086 220.92 177.62C220.577 178.155 219.971 178.491 219.235 178.556ZM230.966 182.461C230.438 182.506 229.86 182.353 229.36 182.036C228.859 181.718 228.476 181.262 228.295 180.766C228.115 180.271 228.153 179.777 228.398 179.394C228.644 179.012 229.078 178.77 229.606 178.723C230.134 178.678 230.712 178.831 231.213 179.148C231.714 179.466 232.096 179.922 232.277 180.418C232.457 180.913 232.42 181.407 232.174 181.79C231.928 182.173 231.494 182.414 230.966 182.461Z" fill="#111824"/>
</g>
<path d="M218.171 212.366L214.817 203.151L216.291 203.022L217.892 207.422L218.012 207.412L220.508 202.653L222.363 202.49L219.933 206.984L225.732 211.704L223.957 211.86L219.301 208.019L218.602 209.371L219.645 212.237L218.171 212.366ZM229.165 211.562C228.7 211.603 228.251 211.558 227.817 211.429C227.382 211.297 226.997 211.085 226.665 210.792C226.335 210.499 226.087 210.126 225.923 209.673C225.781 209.283 225.743 208.955 225.811 208.689C225.878 208.423 226.02 208.205 226.237 208.034C226.454 207.863 226.715 207.726 227.022 207.622C227.328 207.518 227.648 207.431 227.98 207.362C228.402 207.275 228.744 207.205 229.006 207.151C229.268 207.094 229.448 207.024 229.545 206.941C229.643 206.859 229.663 206.736 229.604 206.574L229.592 206.543C229.449 206.15 229.221 205.855 228.907 205.66C228.596 205.464 228.21 205.387 227.749 205.427C227.269 205.469 226.927 205.603 226.723 205.828C226.522 206.05 226.413 206.287 226.396 206.539L224.951 206.368C224.957 205.934 225.066 205.575 225.277 205.29C225.491 205.002 225.777 204.782 226.135 204.63C226.492 204.475 226.891 204.378 227.333 204.34C227.626 204.314 227.948 204.32 228.3 204.357C228.653 204.391 229.004 204.481 229.353 204.627C229.705 204.773 230.03 204.997 230.331 205.299C230.63 205.598 230.871 205.999 231.054 206.503L232.725 211.093L231.332 211.215L230.988 210.27L230.931 210.275C230.902 210.457 230.826 210.64 230.703 210.824C230.579 211.008 230.393 211.168 230.144 211.305C229.895 211.441 229.569 211.527 229.165 211.562ZM229.082 210.455C229.476 210.42 229.786 210.317 230.013 210.146C230.242 209.974 230.387 209.763 230.447 209.514C230.509 209.261 230.491 208.998 230.391 208.725L230.067 207.834C230.034 207.886 229.951 207.94 229.82 207.995C229.692 208.046 229.54 208.095 229.367 208.141C229.192 208.184 229.022 208.225 228.856 208.265C228.688 208.301 228.549 208.332 228.436 208.357C228.172 208.414 227.939 208.492 227.738 208.59C227.541 208.688 227.401 208.816 227.317 208.975C227.236 209.131 227.239 209.328 227.327 209.568C227.448 209.901 227.67 210.142 227.993 210.29C228.315 210.435 228.678 210.49 229.082 210.455ZM235.596 203.71L235.989 204.79L231.849 205.152L231.456 204.072L235.596 203.71ZM235.107 210.884L232.299 203.172C232.142 202.74 232.112 202.373 232.209 202.07C232.304 201.765 232.492 201.527 232.771 201.357C233.049 201.184 233.382 201.08 233.77 201.047C234.057 201.022 234.31 201.023 234.53 201.05C234.748 201.074 234.914 201.1 235.025 201.127L235.088 202.245C235.014 202.233 234.921 202.22 234.807 202.205C234.692 202.187 234.56 202.185 234.411 202.198C234.064 202.228 233.846 202.331 233.755 202.506C233.668 202.681 233.68 202.921 233.791 203.227L236.533 210.76L235.107 210.884ZM240.042 208.033L239.435 206.392L239.683 206.37L241.538 203.19L243.245 203.041L241.128 206.662L240.903 206.681L240.042 208.033ZM239.583 210.493L236.229 201.277L237.656 201.152L241.01 210.368L239.583 210.493ZM244.211 210.088L240.391 207.033L241.032 206.006L245.961 209.935L244.211 210.088ZM249.249 209.805C248.785 209.845 248.335 209.801 247.901 209.672C247.466 209.54 247.082 209.327 246.749 209.035C246.419 208.742 246.172 208.369 246.007 207.916C245.865 207.526 245.827 207.198 245.895 206.932C245.962 206.666 246.104 206.448 246.321 206.277C246.538 206.106 246.799 205.969 247.106 205.865C247.413 205.76 247.732 205.674 248.065 205.604C248.486 205.518 248.828 205.448 249.091 205.394C249.352 205.337 249.532 205.267 249.63 205.184C249.727 205.101 249.747 204.979 249.688 204.817L249.676 204.786C249.533 204.393 249.305 204.098 248.991 203.903C248.68 203.707 248.294 203.63 247.833 203.67C247.353 203.712 247.011 203.846 246.807 204.071C246.606 204.293 246.497 204.53 246.481 204.782L245.035 204.611C245.041 204.177 245.15 203.818 245.362 203.533C245.575 203.245 245.861 203.025 246.219 202.873C246.576 202.718 246.976 202.621 247.418 202.583C247.71 202.557 248.032 202.563 248.384 202.6C248.738 202.634 249.089 202.724 249.437 202.87C249.789 203.016 250.115 203.24 250.415 203.542C250.714 203.84 250.955 204.242 251.139 204.746L252.809 209.336L251.416 209.457L251.072 208.512L251.015 208.517C250.986 208.7 250.91 208.883 250.787 209.067C250.663 209.251 250.477 209.411 250.228 209.547C249.979 209.684 249.653 209.77 249.249 209.805ZM249.166 208.698C249.56 208.663 249.871 208.56 250.097 208.389C250.327 208.217 250.471 208.006 250.531 207.757C250.593 207.503 250.575 207.24 250.475 206.967L250.151 206.077C250.118 206.129 250.036 206.183 249.905 206.237C249.776 206.289 249.624 206.338 249.451 206.384C249.276 206.427 249.106 206.468 248.94 206.508C248.772 206.544 248.633 206.575 248.52 206.6C248.256 206.657 248.023 206.735 247.823 206.833C247.625 206.931 247.485 207.059 247.402 207.218C247.32 207.373 247.324 207.571 247.411 207.811C247.532 208.144 247.754 208.385 248.077 208.533C248.399 208.678 248.762 208.733 249.166 208.698Z" fill="#24282C"/>
</g>
<g filter="url(#filter2_d_420_2317)">
<rect width="123.608" height="89.8965" rx="6.74224" transform="matrix(0.996195 -0.0871557 0.34202 0.939693 13.3867 162.24)" fill="white" fill-opacity="0.7" shape-rendering="crispEdges"/>
<rect x="0.234721" y="0.149534" width="123.257" height="89.5457" rx="6.56684" transform="matrix(0.996195 -0.0871557 0.34202 0.939693 13.3365 162.269)" stroke="#E3EDFE" stroke-width="0.350797" shape-rendering="crispEdges"/>
<g clip-path="url(#clip3_420_2317)">
<path d="M104.248 194.225C102.81 195.242 95.0174 199.566 93.4316 200.687C91.8458 201.809 90.7689 201.894 88.9909 201.338C87.213 200.781 76.2096 197.936 74.1831 197.302C73.1704 196.985 72.5922 196.693 72.4781 196.379L71.3357 193.241C71.3357 193.241 82.97 189.551 84.7496 188.685C86.5291 187.818 87.2245 187.732 89.1701 188.179C91.116 188.627 102.089 189.485 104.012 189.928L105.137 193.022C105.251 193.332 104.98 193.707 104.248 194.225Z" fill="#A73434"/>
<path d="M103.112 191.105C101.674 192.121 93.8814 196.445 92.2955 197.567C90.7099 198.689 89.6329 198.774 87.8551 198.217C86.0773 197.661 75.074 194.815 73.0478 194.182C71.0214 193.547 70.7879 193.009 72.2669 192.226C73.7457 191.444 82.0554 187.039 83.8352 186.172C85.6148 185.306 86.31 185.219 88.2557 185.667C90.2014 186.114 100.461 188.721 102.384 189.163C104.307 189.606 104.55 190.088 103.112 191.105Z" fill="#DA5551"/>
<path d="M102.4 189.146C100.962 190.163 93.1689 194.487 91.5832 195.609C89.9973 196.731 88.9203 196.815 87.1423 196.259C85.3645 195.703 74.3611 192.857 72.3345 192.223C71.3218 191.906 70.7438 191.615 70.6297 191.301L69.4872 188.162C69.4872 188.162 81.1215 184.473 82.9011 183.606C84.6806 182.74 85.376 182.653 87.3216 183.101C89.2676 183.548 100.241 184.406 102.163 184.849L103.289 187.943C103.402 188.253 103.132 188.628 102.4 189.146Z" fill="#A73434"/>
<path d="M101.264 186.025C99.8256 187.042 92.0327 191.366 90.447 192.488C88.8613 193.61 87.7843 193.695 86.0064 193.138C84.2286 192.582 73.2254 189.736 71.1991 189.102C69.1728 188.468 68.9393 187.93 70.4182 187.147C71.8971 186.365 80.2068 181.96 81.9866 181.093C83.7662 180.227 84.4614 180.14 86.407 180.588C88.3528 181.035 98.6123 183.642 100.535 184.084C102.458 184.527 102.701 185.009 101.264 186.025Z" fill="#DA5551"/>
<path d="M100.483 183.879C99.0449 184.896 91.2519 189.22 89.6662 190.342C88.0804 191.464 87.0034 191.549 85.2254 190.992C83.4475 190.436 72.4441 187.59 70.4177 186.956C69.4048 186.639 68.8268 186.348 68.7128 186.034L67.5702 182.895C67.5702 182.895 79.2046 179.206 80.9843 178.34C82.7637 177.473 83.4591 177.387 85.4047 177.834C87.3508 178.281 98.3236 179.14 100.246 179.582L101.372 182.677C101.485 182.987 101.215 183.361 100.483 183.879Z" fill="#A73434"/>
<path d="M99.3464 180.759C97.9085 181.776 90.1157 186.1 88.5298 187.222C86.9441 188.343 85.8671 188.428 84.0894 187.872C82.3115 187.315 71.3083 184.47 69.2821 183.836C67.2557 183.202 67.0223 182.663 68.501 181.881C69.98 181.098 78.2899 176.694 80.0696 175.827C81.8491 174.961 82.5444 174.874 84.49 175.322C86.4358 175.769 96.6953 178.376 98.618 178.818C100.541 179.26 100.784 179.742 99.3464 180.759Z" fill="#DA5551"/>
<path d="M87.1166 178.678L84.3943 179.202L84.2858 180.695L82.681 179.18L79.3202 179.188L81.4507 178.146L80.2574 176.936L82.8414 177.579L84.7464 176.727L84.6453 178.094L87.1166 178.678ZM86.0323 185.972L80.0113 184.366L87.1622 182.61L86.0323 185.972ZM76.479 180.433C78.7077 180.238 80.7554 180.743 81.0527 181.559C81.3501 182.376 79.7844 183.197 77.5558 183.392C75.3271 183.587 73.2794 183.082 72.9821 182.265C72.6848 181.449 74.2504 180.628 76.479 180.433Z" fill="white"/>
<path d="M90.5964 178.78L95.6724 180.059L91.8151 182.117L90.5964 178.78Z" fill="#C83B3D"/>
<path d="M86.3258 181.061L90.5961 178.779L91.8149 182.117L91.3955 182.339L86.3258 181.061Z" fill="#962C2B"/>
</g>
<path d="M82.0984 224.271L78.7442 215.055L82.2266 214.751C82.9834 214.684 83.6563 214.752 84.2451 214.955C84.8371 215.157 85.3363 215.464 85.7427 215.878C86.148 216.288 86.4538 216.777 86.6602 217.344C86.8654 217.908 86.9205 218.415 86.8254 218.866C86.7324 219.314 86.4778 219.678 86.0616 219.959C85.6485 220.24 85.0636 220.413 84.3067 220.479L81.6687 220.71L81.233 219.513L83.7375 219.294C84.2145 219.252 84.579 219.154 84.831 218.999C85.0862 218.843 85.2389 218.636 85.2893 218.378C85.3397 218.12 85.3021 217.818 85.1766 217.473C85.0499 217.125 84.8686 216.83 84.6327 216.588C84.4 216.345 84.108 216.169 83.7568 216.061C83.4076 215.949 82.9897 215.914 82.5031 215.957L80.6523 216.119L83.5724 224.142L82.0984 224.271ZM85.4079 219.691L89.3349 223.638L87.6558 223.785L83.7764 219.834L85.4079 219.691ZM93.7589 223.395C93.037 223.458 92.3623 223.367 91.7348 223.121C91.1095 222.873 90.5586 222.495 90.0823 221.989C89.6081 221.48 89.2405 220.866 88.9796 220.149C88.7219 219.441 88.6347 218.805 88.7181 218.241C88.8046 217.676 89.0455 217.22 89.4409 216.873C89.8394 216.525 90.379 216.322 91.0596 216.262C91.473 216.226 91.8972 216.255 92.3321 216.351C92.767 216.446 93.189 216.618 93.5979 216.867C94.0068 217.116 94.3806 217.453 94.7192 217.878C95.0567 218.301 95.3395 218.825 95.5677 219.452L95.7413 219.929L89.9168 220.439L89.5499 219.431L93.9768 219.044C93.8479 218.69 93.6575 218.383 93.4055 218.123C93.1524 217.861 92.8586 217.662 92.524 217.527C92.1927 217.392 91.8425 217.341 91.4736 217.373C91.0729 217.408 90.757 217.531 90.5257 217.744C90.2966 217.952 90.1549 218.213 90.1008 218.524C90.0488 218.832 90.0856 219.158 90.2112 219.503L90.4978 220.29C90.6659 220.752 90.8948 221.138 91.1845 221.447C91.4773 221.756 91.8107 221.982 92.1846 222.125C92.5574 222.266 92.9521 222.318 93.3687 222.282C93.639 222.258 93.8723 222.201 94.0688 222.109C94.2641 222.015 94.4161 221.887 94.5248 221.726C94.6335 221.565 94.6914 221.372 94.6987 221.149L96.1322 221.26C96.1606 221.644 96.0861 221.99 95.9089 222.296C95.7338 222.6 95.4647 222.848 95.1017 223.04C94.7408 223.23 94.2932 223.348 93.7589 223.395ZM101.226 222.737C100.635 222.788 100.055 222.692 99.487 222.448C98.9211 222.2 98.4095 221.822 97.9523 221.314C97.4971 220.803 97.1337 220.174 96.8618 219.427C96.5899 218.68 96.4893 218.03 96.56 217.476C96.6339 216.921 96.8517 216.483 97.2134 216.16C97.575 215.838 98.05 215.651 98.6384 215.599C99.0931 215.559 99.4851 215.599 99.8142 215.719C100.145 215.836 100.422 215.982 100.643 216.157C100.868 216.333 101.049 216.489 101.187 216.625L101.273 216.618L100.027 213.193L101.453 213.069L104.807 222.284L103.414 222.406L103.023 221.33L102.904 221.341C102.871 221.495 102.809 221.674 102.715 221.877C102.625 222.08 102.466 222.264 102.237 222.43C102.008 222.595 101.672 222.698 101.226 222.737ZM101.124 221.562C101.534 221.526 101.843 221.393 102.052 221.165C102.263 220.933 102.375 220.627 102.388 220.248C102.404 219.869 102.324 219.437 102.147 218.951C101.972 218.471 101.746 218.057 101.469 217.71C101.192 217.363 100.875 217.101 100.519 216.925C100.163 216.749 99.7763 216.679 99.3597 216.715C98.9303 216.753 98.6108 216.889 98.401 217.124C98.1912 217.359 98.0792 217.665 98.0651 218.04C98.0541 218.416 98.1315 218.832 98.2975 219.288C98.4656 219.75 98.69 220.159 98.9706 220.515C99.2512 220.871 99.5739 221.145 99.9387 221.336C100.306 221.523 100.701 221.599 101.124 221.562ZM106.843 222.106L104.328 215.194L105.754 215.07L108.269 221.981L106.843 222.106ZM104.66 214.065C104.412 214.087 104.17 214.027 103.935 213.887C103.703 213.743 103.546 213.562 103.467 213.343C103.386 213.121 103.404 212.924 103.523 212.753C103.643 212.578 103.827 212.48 104.075 212.458C104.323 212.437 104.563 212.498 104.796 212.641C105.031 212.782 105.189 212.963 105.27 213.185C105.349 213.404 105.329 213.601 105.209 213.775C105.091 213.947 104.908 214.043 104.66 214.065ZM113.777 216.109L112.563 216.438C112.452 216.286 112.313 216.146 112.144 216.015C111.978 215.884 111.78 215.782 111.55 215.709C111.32 215.636 111.057 215.613 110.761 215.639C110.358 215.674 110.052 215.789 109.844 215.984C109.634 216.176 109.578 216.405 109.676 216.672C109.76 216.903 109.918 217.081 110.151 217.206C110.383 217.331 110.718 217.421 111.154 217.476L112.41 217.626C113.138 217.714 113.723 217.896 114.165 218.173C114.607 218.45 114.917 218.833 115.095 219.322C115.246 219.736 115.253 220.117 115.116 220.463C114.982 220.806 114.722 221.088 114.337 221.311C113.955 221.533 113.469 221.67 112.877 221.722C112.057 221.794 111.327 221.687 110.689 221.403C110.049 221.115 109.559 220.67 109.219 220.069L110.525 219.75C110.734 220.082 111.004 220.323 111.335 220.473C111.664 220.621 112.043 220.676 112.473 220.638C112.94 220.597 113.281 220.473 113.494 220.266C113.706 220.055 113.764 219.817 113.666 219.55C113.588 219.334 113.436 219.16 113.211 219.028C112.989 218.895 112.689 218.807 112.312 218.763L110.978 218.615C110.241 218.528 109.65 218.338 109.206 218.045C108.765 217.753 108.454 217.361 108.275 216.869C108.127 216.461 108.118 216.093 108.248 215.766C108.378 215.439 108.626 215.171 108.99 214.963C109.352 214.752 109.809 214.622 110.359 214.574C111.151 214.504 111.833 214.612 112.406 214.896C112.977 215.177 113.435 215.581 113.777 216.109Z" fill="#24282C"/>
</g>
<g filter="url(#filter3_d_420_2317)">
<rect width="123.608" height="89.8965" rx="6.74224" transform="matrix(0.996195 -0.0871557 0.34202 0.939693 249.632 36.9727)" fill="white" fill-opacity="0.7" shape-rendering="crispEdges"/>
<rect x="0.234721" y="0.149534" width="123.257" height="89.5457" rx="6.56684" transform="matrix(0.996195 -0.0871557 0.34202 0.939693 249.582 37.0021)" stroke="#E3EDFE" stroke-width="0.350797" shape-rendering="crispEdges"/>
<g clip-path="url(#clip4_420_2317)">
<path d="M338.351 69.0556C336.637 69.1604 335.395 69.4229 334.448 69.9605C334.178 70.1133 333.677 70.1608 333.761 70.5374C333.996 70.6933 334.116 70.9466 334.331 71.145C334.742 71.5254 335.386 72.028 335.888 72.2768C336.437 72.549 337.006 72.8412 337.571 73.0689C338.575 73.4737 339.602 73.6656 340.575 74.0741C341.149 74.3151 341.747 74.6295 342.322 74.9074C342.607 75.045 342.849 75.2764 343.18 75.3492L343.164 75.3039C342.941 75.1309 342.807 74.8783 342.594 74.6959L341.751 74.159C340.858 73.4447 339.834 72.8381 338.802 72.3504C337.98 71.9612 336.283 71.4867 335.744 70.7864L335.679 70.7451C336.129 70.6543 336.618 70.4468 337.011 70.2996C337.67 70.0527 338.335 70.0433 339.018 69.7954L339.932 69.4336L339.866 69.2516C339.353 68.9182 338.907 68.4566 338.373 68.161C336.977 67.3877 335.482 66.6238 334.004 66.0068C333.185 65.665 332.258 65.4772 331.42 65.1997C331.138 65.1062 330.695 65.0836 330.467 64.9071C329.928 64.4893 329.516 63.9356 329.035 63.4357C328.029 62.3883 326.997 61.2387 326.039 60.1278C325.386 59.3704 324.863 58.6131 324.149 57.9448C320.721 54.7382 317.616 52.8937 313.229 51.1973C312.295 50.8365 311.297 50.7493 310.227 50.6142C309.686 50.6305 309.144 50.6464 308.602 50.6623C308.231 50.5633 307.758 50.2188 307.388 50.0639C305.915 49.4484 302.24 48.1512 302.094 50.2924C302.002 51.6439 303.876 52.7903 304.621 53.4061C305.144 53.8375 305.787 54.3168 306.23 54.8151C306.521 55.1428 306.675 55.4835 306.949 55.8328C307.624 56.6938 308.282 57.637 309.036 58.4211C309.417 58.8181 309.83 59.2351 310.255 59.5825C310.516 59.7958 310.858 59.8699 311.035 60.2189C310.88 60.6383 311.085 61.2505 311.099 61.7635C311.161 64.0725 312.461 66.8359 314.162 68.3999C314.684 68.8805 315.875 69.904 316.812 69.3892C317.633 68.9395 317.006 67.8225 316.915 66.7969C316.894 66.5645 316.795 66.4008 316.86 66.2381L316.877 66.2836L318.342 67.8462C319.341 68.7667 320.853 69.6876 322.071 70.2916C322.702 70.6049 323.321 71.1877 324.045 71.34L324.029 71.2943L323.981 71.2985C323.788 71.1249 323.563 71.0656 323.349 70.9313C322.844 70.6151 322.266 70.2177 321.809 69.8449C320.519 68.7958 319.294 67.6313 318.119 66.4104C317.557 65.8272 317.017 65.1773 316.506 64.5786C316.308 64.348 316.177 63.9841 315.903 63.8798C315.757 64.3639 315.432 64.7737 315.387 65.3342C315.314 66.2302 315.648 67.2862 315.901 68.3891C315.827 68.4249 315.857 68.4021 315.821 68.4428C315.093 68.3488 314.62 67.7169 314.166 67.1787C313.019 65.8179 312.072 63.5485 312.034 61.8699C312.025 61.4353 312.191 60.0505 311.786 59.6837C311.519 59.3061 311.023 59.1174 310.683 58.8407C310.262 58.4987 309.8 58.0404 309.446 57.6337C308.528 56.5752 307.835 55.3569 306.885 54.2884C306.43 53.7777 305.794 53.2761 305.26 52.8337C304.669 52.3431 304.08 51.9953 303.538 51.3872C303.346 51.171 303.064 50.8225 303.143 50.5761C303.138 50.415 303.188 50.3432 303.333 50.2778C303.539 50.0497 304.418 50.2528 304.75 50.3414C305.635 50.5769 306.386 50.8092 307.191 51.1615C307.577 51.3309 308.034 51.6835 308.452 51.7557L308.887 51.7177C309.62 51.8055 310.343 51.6372 311.045 51.7636C312.283 51.9869 313.471 52.3994 314.582 52.8633C317.966 54.2768 321.098 56.4359 323.678 59.113C324.093 59.5441 324.359 59.9667 324.754 60.428C325.551 61.3579 326.474 62.3058 327.262 63.2147C328.047 64.1213 328.825 65.0376 329.735 65.7696C330.214 66.1543 331.562 66.2652 332.222 66.4446C332.684 66.57 333.407 66.6801 333.868 66.8638C334.75 67.2157 335.638 67.6485 336.489 68.044C336.914 68.2415 338.148 68.6489 338.351 69.0556ZM310.468 53.5999C310.112 53.6246 309.877 53.6892 309.632 53.7667L309.649 53.8122L309.697 53.808C309.985 54.1203 310.36 54.3051 310.671 54.5684C310.947 54.8732 311.224 55.1776 311.501 55.4819L311.533 55.4327C311.759 55.2076 311.781 54.8781 311.602 54.393C311.439 54.2847 311.368 54.1374 311.212 54.0047C311.006 53.8275 310.7 53.7433 310.468 53.5999Z" fill="#0080B7"/>
</g>
<path d="M313.495 89.9191L315.284 89.7626L321.002 96.654L321.116 96.644L321.619 89.2083L323.408 89.0518L326.762 98.2673L325.36 98.39L322.933 91.7214L322.842 91.7293L322.383 98.6365L321.219 98.7383L315.914 92.3308L315.823 92.3387L318.252 99.0118L316.849 99.1345L313.495 89.9191ZM330.636 100.603C330.423 100.621 330.223 100.622 330.036 100.604C329.85 100.59 329.707 100.568 329.609 100.539L329.551 99.407C329.836 99.4501 330.078 99.4583 330.278 99.4315C330.479 99.4047 330.632 99.317 330.739 99.1684C330.849 99.0195 330.908 98.7867 330.918 98.4702L330.927 97.9958L325.698 91.2287L327.224 91.0952L331.032 96.2965L331.109 96.2898L331.012 90.7638L332.543 90.6298L332.375 98.7281C332.366 99.1003 332.299 99.4203 332.173 99.6882C332.049 99.9591 331.86 100.171 331.607 100.323C331.354 100.475 331.03 100.568 330.636 100.603ZM339.989 91.7196L338.774 92.0487C338.664 91.8974 338.524 91.7564 338.355 91.6257C338.189 91.4948 337.991 91.3929 337.761 91.3202C337.531 91.2474 337.268 91.224 336.973 91.2499C336.569 91.2852 336.263 91.4002 336.055 91.5948C335.845 91.7865 335.789 92.0158 335.887 92.2828C335.971 92.5137 336.129 92.6918 336.362 92.8169C336.594 92.9421 336.929 93.032 337.365 93.0866L338.621 93.2368C339.349 93.3248 339.934 93.5073 340.376 93.7844C340.818 94.0614 341.128 94.4444 341.306 94.9334C341.457 95.3474 341.464 95.7275 341.327 96.0737C341.193 96.4167 340.933 96.6994 340.548 96.9219C340.166 97.1441 339.68 97.2811 339.088 97.3328C338.268 97.4046 337.538 97.2982 336.9 97.0136C336.26 96.726 335.77 96.2813 335.43 95.6796L336.736 95.361C336.946 95.6925 337.215 95.9335 337.546 96.0842C337.875 96.2318 338.255 96.2868 338.684 96.2492C339.151 96.2083 339.492 96.0842 339.705 95.8767C339.917 95.6662 339.975 95.4275 339.877 95.1605C339.799 94.9445 339.647 94.7705 339.422 94.6386C339.2 94.5063 338.9 94.418 338.523 94.3736L337.189 94.2256C336.452 94.1385 335.861 93.9487 335.417 93.6564C334.976 93.3638 334.666 92.9715 334.486 92.4795C334.338 92.0716 334.329 91.704 334.459 91.3769C334.59 91.0498 334.837 90.7821 335.201 90.5738C335.563 90.3625 336.02 90.2328 336.57 90.1847C337.362 90.1154 338.044 90.2228 338.617 90.507C339.189 90.7882 339.646 91.1924 339.989 91.7196ZM349.491 98.9531L348.157 95.2858L348.071 95.2933C348.038 95.4478 347.976 95.6267 347.882 95.8299C347.792 96.0328 347.633 96.217 347.404 96.3824C347.176 96.5479 346.839 96.6501 346.393 96.6891C345.802 96.7408 345.222 96.6445 344.654 96.4002C344.088 96.1525 343.577 95.7748 343.119 95.2669C342.664 94.7557 342.301 94.1267 342.029 93.3797C341.757 92.6328 341.656 91.9823 341.727 91.4282C341.801 90.8739 342.019 90.4354 342.38 90.1128C342.742 89.7902 343.217 89.6031 343.805 89.5517C344.26 89.5119 344.652 89.5519 344.981 89.6717C345.312 89.7882 345.589 89.9342 345.81 90.1099C346.035 90.2852 346.216 90.4411 346.354 90.5776L346.474 90.5672L346.066 89.4468L347.459 89.3249L350.918 98.8283L349.491 98.9531ZM346.291 95.5141C346.701 95.4782 347.01 95.3459 347.219 95.1171C347.43 94.8851 347.542 94.5797 347.555 94.2009C347.571 93.8219 347.491 93.3894 347.314 92.9034C347.139 92.4234 346.913 92.0098 346.636 91.6627C346.359 91.3155 346.042 91.0538 345.686 90.8775C345.33 90.7013 344.943 90.6314 344.527 90.6679C344.097 90.7054 343.778 90.8417 343.568 91.0768C343.358 91.3118 343.246 91.6172 343.232 91.993C343.221 92.3685 343.299 92.7842 343.465 93.2402C343.633 93.7022 343.857 94.1112 344.138 94.4674C344.418 94.8236 344.741 95.0972 345.106 95.2881C345.473 95.4758 345.868 95.5511 346.291 95.5141ZM349.964 86.7285L353.318 95.9439L351.892 96.0687L348.538 86.8532L349.964 86.7285Z" fill="#24282C"/>
</g>
<g filter="url(#filter4_d_420_2317)">
<rect width="123.608" height="89.8965" rx="6.74224" transform="matrix(0.996195 -0.0871557 0.34202 0.939693 113.061 48.9211)" fill="white" fill-opacity="0.7" shape-rendering="crispEdges"/>
<rect x="0.234721" y="0.149534" width="123.257" height="89.5457" rx="6.56684" transform="matrix(0.996195 -0.0871557 0.34202 0.939693 113.011 48.9506)" stroke="#E3EDFE" stroke-width="0.350797" shape-rendering="crispEdges"/>
<path d="M192.177 89.6875L191.196 89.4891C191.196 89.4891 189.784 85.2752 188.064 85.1209C186.586 84.0539 170.205 35.6137 192.018 84.6049C191.413 85.0192 191.073 85.6719 191.068 86.4264C191.315 87.5185 191.687 88.6115 192.177 89.6875Z" fill="#88851F"/>
<path d="M191.176 85.5848C192.914 83.7146 193.888 81.2987 193.984 78.6182C194.079 75.9376 193.292 73.1024 191.714 70.442C187.379 63.419 182.439 61.4177 181.671 60.5557C181.088 60.0282 180.548 59.464 180.059 58.8704L187.659 78.8303C187.659 78.8303 189.21 84.9978 191.176 85.5848Z" fill="#2D9F2C"/>
<path d="M189.467 86.008C189.467 86.008 180.61 82.0241 178.056 73.8294C177.2 71.3665 176.916 68.8911 177.223 66.5706C177.531 64.25 178.422 62.1382 179.839 60.3779C180.004 60.1708 180.103 59.9206 180.131 59.6459C180.158 59.3713 180.112 59.0795 179.996 58.7923C180.773 59.6603 185.3 72.3031 185.884 73.7769C188.159 79.51 189.575 84.8787 189.467 86.008Z" fill="#5FB765"/>
<path d="M173.936 102.129L175.725 101.973L181.443 108.864L181.557 108.854L182.06 101.418L183.849 101.262L187.203 110.477L185.801 110.6L183.373 103.931L183.283 103.939L182.824 110.846L181.66 110.948L176.355 104.541L176.264 104.549L178.693 111.222L177.29 111.345L173.936 102.129ZM192.369 110.169C191.682 110.229 191.028 110.133 190.408 109.881C189.788 109.629 189.239 109.248 188.762 108.739C188.285 108.23 187.916 107.618 187.656 106.904C187.395 106.187 187.308 105.548 187.396 104.986C187.484 104.425 187.729 103.973 188.133 103.631C188.537 103.289 189.083 103.088 189.77 103.028C190.456 102.968 191.11 103.064 191.73 103.316C192.35 103.568 192.899 103.951 193.378 104.463C193.856 104.975 194.226 105.59 194.487 106.307C194.747 107.021 194.833 107.657 194.744 108.216C194.655 108.774 194.409 109.225 194.005 109.566C193.601 109.908 193.056 110.109 192.369 110.169ZM191.962 109.039C192.408 109 192.736 108.857 192.948 108.61C193.16 108.362 193.268 108.048 193.274 107.666C193.283 107.285 193.206 106.872 193.045 106.428C192.884 105.987 192.665 105.588 192.388 105.232C192.113 104.872 191.788 104.593 191.413 104.393C191.039 104.194 190.629 104.114 190.184 104.153C189.735 104.192 189.404 104.337 189.19 104.588C188.98 104.838 188.87 105.156 188.863 105.54C188.857 105.922 188.935 106.333 189.095 106.774C189.257 107.218 189.475 107.618 189.749 107.975C190.026 108.331 190.352 108.608 190.725 108.804C191.101 109 191.514 109.079 191.962 109.039ZM197.258 105.363L198.752 109.467L197.326 109.592L194.81 102.68L196.179 102.56L196.588 103.685L196.679 103.677C196.714 103.297 196.871 102.979 197.15 102.726C197.432 102.472 197.848 102.321 198.398 102.273C198.897 102.23 199.37 102.29 199.818 102.455C200.264 102.618 200.661 102.883 201.008 103.252C201.356 103.621 201.634 104.09 201.841 104.66L203.441 109.057L202.015 109.181L200.474 104.947C200.291 104.446 200.01 104.067 199.631 103.809C199.251 103.548 198.819 103.439 198.335 103.481C198.005 103.51 197.735 103.603 197.527 103.761C197.321 103.918 197.191 104.134 197.137 104.408C197.085 104.679 197.125 104.997 197.258 105.363ZM209.422 111.356C208.84 111.407 208.313 111.379 207.841 111.272C207.372 111.164 206.962 111.004 206.612 110.79C206.261 110.576 205.97 110.334 205.737 110.063L206.789 109.479C206.923 109.603 207.088 109.733 207.285 109.867C207.486 110.004 207.729 110.115 208.016 110.198C208.305 110.281 208.647 110.305 209.041 110.271C209.582 110.223 209.984 110.06 210.246 109.78C210.509 109.503 210.543 109.095 210.346 108.555L209.852 107.196L209.761 107.204C209.729 107.358 209.664 107.532 209.568 107.727C209.474 107.921 209.311 108.096 209.08 108.252C208.848 108.409 208.508 108.507 208.059 108.546C207.48 108.596 206.912 108.515 206.355 108.3C205.8 108.083 205.296 107.735 204.844 107.258C204.393 106.777 204.034 106.169 203.767 105.434C203.499 104.699 203.402 104.058 203.475 103.51C203.551 102.962 203.77 102.528 204.133 102.208C204.495 101.885 204.97 101.698 205.558 101.647C206.013 101.607 206.406 101.647 206.739 101.766C207.07 101.883 207.348 102.029 207.572 102.204C207.8 102.379 207.983 102.535 208.121 102.672L208.226 102.662L207.819 101.542L209.216 101.42L211.788 108.484C212.004 109.078 212.035 109.578 211.881 109.985C211.727 110.392 211.434 110.708 211.001 110.935C210.572 111.161 210.045 111.302 209.422 111.356ZM207.968 107.402C208.378 107.366 208.692 107.246 208.91 107.041C209.129 106.833 209.25 106.553 209.273 106.202C209.298 105.847 209.224 105.431 209.05 104.954C208.881 104.489 208.659 104.086 208.384 103.744C208.109 103.403 207.794 103.146 207.439 102.973C207.082 102.797 206.696 102.727 206.279 102.763C205.85 102.801 205.53 102.937 205.321 103.172C205.11 103.404 204.996 103.705 204.98 104.075C204.967 104.444 205.04 104.849 205.201 105.29C205.366 105.743 205.583 106.134 205.854 106.464C206.125 106.793 206.438 107.041 206.795 107.208C207.154 107.374 207.545 107.439 207.968 107.402ZM216.782 108.033C216.095 108.093 215.441 107.997 214.821 107.745C214.201 107.493 213.653 107.112 213.175 106.603C212.698 106.094 212.329 105.482 212.069 104.768C211.808 104.051 211.722 103.412 211.809 102.85C211.897 102.289 212.143 101.837 212.546 101.495C212.95 101.153 213.496 100.952 214.183 100.892C214.87 100.832 215.523 100.928 216.143 101.18C216.763 101.433 217.313 101.815 217.791 102.327C218.27 102.839 218.639 103.454 218.9 104.171C219.16 104.885 219.246 105.521 219.157 106.08C219.068 106.639 218.822 107.089 218.418 107.431C218.014 107.772 217.469 107.973 216.782 108.033ZM216.376 106.904C216.821 106.865 217.149 106.721 217.361 106.474C217.573 106.226 217.682 105.912 217.687 105.531C217.696 105.149 217.62 104.736 217.458 104.292C217.298 103.851 217.079 103.453 216.801 103.096C216.526 102.736 216.201 102.457 215.827 102.257C215.452 102.058 215.042 101.978 214.597 102.017C214.149 102.056 213.817 102.201 213.604 102.452C213.393 102.703 213.284 103.02 213.276 103.405C213.27 103.786 213.348 104.197 213.508 104.638C213.67 105.082 213.888 105.482 214.162 105.839C214.439 106.195 214.765 106.472 215.138 106.668C215.515 106.864 215.927 106.943 216.376 106.904Z" fill="#24282C"/>
</g>
<g filter="url(#filter5_d_420_2317)">
<rect width="123.608" height="89.8965" rx="6.74224" transform="matrix(0.996195 -0.0871557 0.34202 0.939693 -23.509 60.8694)" fill="white"/>
<rect x="0.75188" y="0.479" width="122.484" height="88.7728" rx="6.18039" transform="matrix(0.996195 -0.0871557 0.34202 0.939693 -23.67 60.9638)" stroke="#219BF4" stroke-width="1.12371"/>
<g clip-path="url(#clip5_420_2317)">
<path d="M59.972 92.7603C59.5731 91.0551 59.4187 90.8132 60.8497 90.9701L61.1978 90.9684C62.2377 90.9227 63.5047 90.6062 64.1662 90.1925C65.5904 89.3027 66.1442 87.9771 64.5924 88.4482C61.0521 89.5232 60.3473 88.329 60.3473 88.329C62.3212 82.3461 61.4012 75.0507 59.3124 73.4279C53.6157 69.0019 47.5832 71.8583 47.4897 71.9267L47.4554 71.9363C46.649 71.8548 45.7744 71.8405 44.8226 71.9088C43.0886 72.0328 41.9453 72.6006 41.2111 73.3972C41.2111 73.3972 27.2543 69.7152 31.7278 80.393C32.6793 82.6645 41.4804 97.3576 43.8249 92.4819C44.6815 90.6992 45.582 89.1763 45.582 89.1763C46.4416 89.5536 47.3616 89.7043 48.2112 89.5469L48.2594 89.4862C48.3128 89.6935 48.3953 89.8938 48.5211 90.1284C47.8875 91.3022 48.2588 91.466 46.3482 92.0449C44.4151 92.6311 45.8992 93.2441 46.7654 93.3625C47.8157 93.506 50.171 93.6334 50.9565 91.5048L50.9792 91.7378C51.4934 92.0071 52.1518 93.893 52.6985 95.2336C53.2456 96.5744 53.7981 97.8218 54.3586 98.537C54.9189 99.2518 55.9561 101.129 58.4593 100.346C60.5517 99.6933 62.039 98.8854 59.972 92.7603Z" fill="#2971A4"/>
<path d="M58.0619 101.755C56.8669 101.86 55.93 101.492 55.3041 101.112C54.3596 100.54 53.779 99.7463 53.432 99.2725L53.2847 99.075C52.6288 98.238 52.0591 97.0001 51.4058 95.399C51.3075 95.1585 51.2099 94.9106 51.1061 94.6477C51.0301 94.4554 50.935 94.2142 50.8325 93.9621C50.4725 94.1934 50.0651 94.3696 49.622 94.4857C48.8289 94.6951 47.9071 94.7305 46.8817 94.5904C46.1582 94.4915 45.3473 94.2263 44.7696 93.7577C43.9653 94.8085 42.8214 94.7757 42.1552 94.6398C40.9802 94.4003 39.6974 93.5508 38.2336 92.0433C37.1907 90.9692 36.0441 89.5514 34.8253 87.8288C32.7029 84.829 30.8848 81.6329 30.4399 80.5703C29.0464 77.2444 29.1302 74.7712 30.6888 73.2203C33.1474 70.7738 38.528 71.6153 40.531 72.0359C41.4864 71.2457 42.7823 70.7885 44.3924 70.6724C45.2573 70.6103 46.1022 70.6099 46.9095 70.6713C47.6174 70.3665 49.0619 69.8915 50.8639 69.7557C54.1833 69.5036 57.3651 70.4792 60.0647 72.577C61.9913 74.0736 62.5626 77.5204 62.7319 79.4419C62.9697 82.1448 62.7248 85.0629 62.0584 87.643C62.4819 87.6089 63.0767 87.5076 63.8851 87.2618C65.4803 86.7774 66.2985 87.6018 66.5763 87.9786C67.6898 89.4904 65.7458 90.8766 65.1235 91.2656C64.3263 91.7639 62.872 92.1521 61.5856 92.2082L61.5291 92.2097L61.1863 92.2112L61.2487 92.4758L61.3101 92.7344C62.3523 95.839 62.5972 97.8416 62.1038 99.222C61.5867 100.669 60.3192 101.173 59.1719 101.532C58.7804 101.654 58.41 101.725 58.0619 101.755ZM51.4442 90.7026C52.4276 91.2175 52.894 92.3073 53.6998 94.3497C53.8004 94.6046 53.8956 94.8458 53.9874 95.0708C54.2653 95.7523 54.9164 97.348 55.4287 98.0015C55.5011 98.094 55.5701 98.1881 55.6431 98.288C56.251 99.118 56.5559 99.5343 57.7433 99.1638C58.7398 98.8521 59.2218 98.6086 59.4431 97.9894C59.7646 97.0893 59.4978 95.3585 58.6497 92.8451L59.9694 92.7606L58.616 92.7272L58.5429 92.4177C58.3001 91.3975 58.1245 90.6607 58.6641 90.116C59.0972 89.6791 59.7645 89.6593 60.3175 89.7023C59.5969 89.3445 59.2646 88.8801 59.1511 88.6876L58.8573 88.1899L59.0078 87.7338C59.8747 85.1064 60.2254 81.9398 59.9705 79.0456C59.7087 76.0719 58.9049 74.5508 58.5563 74.2804C53.9387 70.6927 48.9544 72.7769 48.4391 73.0089L48.3591 73.0676L47.898 73.1972L47.6278 73.1699C46.8826 73.0945 46.0824 73.0867 45.2495 73.1466C43.9405 73.2398 42.9961 73.6218 42.3595 74.3132L41.9176 74.7927L41.1265 74.5841C39.4376 74.1424 34.6698 73.3746 32.9326 75.1089C31.9683 76.0717 31.995 77.7905 33.0117 80.2177C33.3475 81.019 35.0366 84.016 37.069 86.888C39.8778 90.8572 41.573 92.1091 42.132 92.2229C42.2297 92.2431 42.3962 92.0567 42.529 91.7809C43.0836 90.6328 43.6813 89.5084 44.3214 88.4093L44.8056 87.5906L45.931 88.0847C46.3847 88.2839 46.84 88.3797 47.2674 88.3679L48.813 86.4183L49.6058 89.4939C49.6236 89.563 49.6539 89.6564 49.7453 89.8269L50.0508 90.3963L49.7962 90.8681L49.767 90.9229L51.158 91.3405L51.4442 90.7026Z" fill="#2971A4"/>
<path d="M64.5922 88.4459C61.0516 89.5209 60.3467 88.3268 60.3467 88.3268C62.3205 82.3435 61.4005 75.0479 59.3124 73.4256C53.6158 68.9998 47.5827 71.8563 47.4896 71.9249L47.455 71.9343C46.6485 71.8528 45.774 71.8387 44.8217 71.9071C43.0878 72.0314 41.9449 72.5988 41.2108 73.3955C41.2108 73.3955 27.2538 69.7137 31.7269 80.3913C32.6785 82.6631 41.4796 97.3562 43.8241 92.4805C44.6807 90.6978 45.5809 89.1749 45.5809 89.1749C46.4407 89.5522 47.3605 89.7029 48.2098 89.5455L48.2583 89.4848C48.3118 89.6921 48.3948 89.8923 48.5203 90.1269C47.8864 91.3008 48.2578 91.4646 46.3471 92.0435C44.414 92.6297 45.8981 93.2427 46.7646 93.3611C47.8147 93.5046 50.1702 93.632 50.9554 91.5034L50.9778 91.7364C51.4918 92.0057 52.3846 93.6567 52.8902 95.1799C53.3955 96.7031 53.7434 97.749 54.3576 98.5358C54.9715 99.3227 55.9549 101.128 58.4586 100.345C60.5506 99.6911 61.2901 98.4058 60.7351 96.4184C60.3399 95.0054 60.6768 95.1901 60.237 93.9344L60.2308 93.3223C59.7806 91.3996 59.3538 90.8041 60.8491 90.9676L61.1972 90.9659C62.2371 90.9202 63.5046 90.6037 64.1658 90.19C65.59 89.3007 66.1439 87.9749 64.5922 88.4459Z" fill="#3B8CCD"/>
<path d="M57.9481 100.971C55.6955 101.168 54.3693 99.5474 53.8269 98.8848C53.0324 97.9137 51.5157 94.0081 50.4428 90.7903C50.4245 90.736 50.4178 90.6816 50.4232 90.6301C50.4286 90.5786 50.4458 90.531 50.474 90.4902C50.5022 90.4493 50.5407 90.416 50.5874 90.3921C50.6341 90.3682 50.6879 90.3542 50.7459 90.3509C50.8038 90.3474 50.8646 90.3545 50.925 90.372C50.9854 90.3895 51.0441 90.4169 51.0978 90.4528C51.1515 90.4886 51.1991 90.5322 51.2379 90.5809C51.2768 90.6297 51.306 90.6827 51.3241 90.7369C52.5617 94.4482 53.9383 97.7892 54.5264 98.508C55.4436 99.6287 56.5629 100.581 58.5238 99.9683C60.3852 99.386 60.8762 98.6015 60.5443 96.7393C60.2896 95.3102 59.3419 91.2643 59.1172 90.4692C59.1017 90.4149 59.098 90.3609 59.1062 90.3103C59.1144 90.2597 59.1344 90.2136 59.165 90.1745C59.1956 90.1354 59.2363 90.1041 59.2846 90.0824C59.333 90.0608 59.3881 90.0492 59.4468 90.0483C59.5652 90.0465 59.6911 90.0882 59.7967 90.1643C59.9023 90.2405 59.9791 90.3448 60.0102 90.4545C60.2441 91.2823 61.1914 95.3203 61.4559 96.8041C61.8482 99.0036 61.1824 100.075 59 100.758C58.6291 100.873 58.2786 100.941 57.9481 100.971ZM42.7423 93.8203C42.5451 93.8369 42.3385 93.8235 42.1303 93.7806C40.4996 93.4481 38.2878 91.3223 35.556 87.4615C33.4767 84.5227 31.7076 81.4201 31.2797 80.3988C30.0114 77.3711 30.0584 75.1465 31.4201 73.787C34.1135 71.0968 40.9257 72.8382 41.2143 72.9136C41.3366 72.9456 41.451 73.0179 41.5326 73.1147C41.6141 73.2115 41.656 73.3249 41.649 73.4299C41.642 73.5349 41.5867 73.6229 41.4953 73.6745C41.4039 73.7262 41.2839 73.7372 41.1616 73.7053C41.0958 73.6881 34.5645 72.0207 32.1681 74.4162C31.0041 75.5797 30.9936 77.5532 32.1366 80.2815C32.4969 81.1419 34.1976 84.1722 36.3034 87.1479C38.7421 90.5946 40.8628 92.7185 42.1221 92.9751C42.3197 93.0154 42.921 93.1377 43.374 92.1952C43.9026 91.0974 44.4748 90.0235 45.0897 88.9752C45.1428 88.8921 45.2362 88.8394 45.3499 88.8284C45.4637 88.8173 45.5887 88.8488 45.6982 88.916C45.8077 88.9833 45.893 89.0811 45.9359 89.1883C45.9787 89.2956 45.9758 89.4039 45.9276 89.49C45.9191 89.5041 45.0773 90.914 44.2372 92.6633C43.8393 93.4915 43.2718 93.774 42.7423 93.8203ZM60.478 88.6876C60.3988 88.6945 60.3137 88.6809 60.2319 88.6483C60.15 88.6157 60.0745 88.5654 60.0134 88.5027C59.9522 88.44 59.9077 88.3674 59.8847 88.2924C59.8617 88.2175 59.8609 88.1431 59.8826 88.0773C61.8777 82.0286 60.8016 75.0249 59.0425 73.658C56.8284 71.9378 54.3028 71.1592 51.5353 71.3435C49.4863 71.4801 48.0479 72.1115 47.8147 72.2201L47.7575 72.2514C47.5204 72.3534 47.2666 72.2339 47.1313 72.0801C47.0539 71.9919 47.0095 71.8886 47.0062 71.7895C47.003 71.6904 47.0412 71.6025 47.1137 71.5423C47.1237 71.5342 47.1579 71.5147 47.2145 71.4866C47.6071 71.2922 49.0793 70.6839 51.1202 70.528C54.171 70.2926 57.0843 71.1784 59.545 73.0904C60.7092 73.9951 61.529 76.2421 61.7943 79.2558C62.065 82.3283 61.6929 85.6883 60.774 88.4745C60.7332 88.5998 60.6184 88.6754 60.478 88.6876ZM61.6452 91.3049C60.9507 91.3657 60.2945 91.3277 59.8451 91.1497C59.3832 90.9666 59.203 90.6788 59.1366 90.5234C58.4017 88.8006 59.305 88.4105 59.7715 88.2277C59.6622 88.1312 59.5159 88.0194 59.3646 87.904C58.934 87.5752 58.3444 87.125 57.7617 86.4254C57.6705 86.3162 57.4184 86.0658 57.1265 85.7757C55.5441 84.2047 52.2516 80.9358 52.9182 79.0559C53.2267 78.186 54.3162 77.7588 56.159 77.7827C55.0891 76.3256 50.888 71.8425 44.9459 72.2681C43.1587 72.3957 41.8889 73.0387 41.1734 74.1776C39.5717 76.7278 41.1986 80.9463 41.2154 80.9886C41.2366 81.0425 41.2464 81.0972 41.2442 81.1495C41.242 81.2017 41.228 81.2506 41.2028 81.2933C41.1776 81.336 41.1418 81.3717 41.0974 81.3983C41.0531 81.4248 41.001 81.4418 40.9442 81.4483C40.8874 81.4547 40.827 81.4505 40.7664 81.4358C40.7058 81.4211 40.6463 81.3962 40.5911 81.3627C40.536 81.3291 40.4863 81.2874 40.445 81.24C40.4037 81.1927 40.3715 81.1405 40.3503 81.0866C40.2766 80.8994 38.5709 76.4723 40.3421 73.6521C41.171 72.3323 42.6241 71.5894 44.6607 71.4434C48.4622 71.1713 51.5552 72.7712 53.4802 74.1612C55.5787 75.676 56.9745 77.4274 57.2556 78.0282C57.4648 78.4749 57.1547 78.595 57.0903 78.6145L56.9339 78.6316C55.0935 78.5207 54.0409 78.8016 53.8052 79.4657C53.298 80.8954 56.4127 83.9876 57.7427 85.3081C58.0821 85.6449 58.3272 85.8885 58.4544 86.0409C58.9499 86.6357 59.4538 87.0204 59.8586 87.3297C60.2148 87.6016 60.5235 87.8375 60.7094 88.1296C60.7669 88.1859 61.534 88.8512 64.3386 87.9994C65.0417 87.786 65.5411 87.8721 65.8239 88.2556C66.38 89.01 65.1796 90.0517 64.4673 90.4971C63.8291 90.8965 62.6938 91.2132 61.6452 91.3049ZM59.9824 90.3794C60.1113 90.4621 60.6477 90.5774 61.6252 90.4503C62.4945 90.3375 63.359 90.0752 63.8283 89.7819C64.4284 89.4066 64.7778 89.0151 64.9377 88.7548L64.8095 88.7905C63.0163 89.3352 61.6329 89.4045 60.6977 88.9965C60.6349 88.9691 60.573 88.9389 60.5123 88.906C60.4408 88.9439 60.3718 88.9707 60.3226 88.9899C59.9319 89.1421 59.5278 89.2997 59.9824 90.3794ZM48.3521 93.7714C47.8727 93.8133 47.3457 93.7958 46.7861 93.7193C46.2064 93.64 45.1684 93.3396 44.9554 92.7155C44.7166 92.0154 45.7177 91.7116 46.0946 91.5974C47.456 91.1845 47.51 91.062 47.7682 90.4735C47.8436 90.302 47.9372 90.0884 48.077 89.8301C48.284 89.4455 48.5861 89.2334 48.9746 89.1995C49.2453 89.1758 49.4987 89.2428 49.6663 89.2876C50.2002 89.4294 50.751 89.8372 51.1036 90.3516C51.4219 90.8157 51.5197 91.2807 51.3797 91.6607C50.9198 92.9083 49.8728 93.6383 48.3521 93.7714ZM45.9115 92.6684C46.0781 92.7529 46.3885 92.8581 46.7073 92.9016C47.192 92.9678 47.6443 92.9834 48.0526 92.9477C49.2966 92.8388 50.1186 92.2657 50.4953 91.244C50.5739 91.031 50.4361 90.7812 50.347 90.6513C50.1605 90.3792 49.8572 90.1434 49.6093 90.0775C49.4749 90.0418 49.3645 90.0153 49.2747 90.0231C49.2265 90.0273 49.0799 90.0401 48.9278 90.3222C48.8233 90.5178 48.7273 90.7182 48.64 90.9232C48.3183 91.6561 48.1414 91.9107 46.5648 92.3888C46.1799 92.505 45.9972 92.6052 45.9115 92.6684ZM48.5774 90.4748C48.4731 90.4838 48.3595 90.4573 48.2571 90.4001C48.1547 90.3429 48.0703 90.2588 48.0192 90.163C47.9834 90.0956 47.9511 90.0274 47.9222 89.9587C46.803 90.0364 45.5662 89.6801 44.4597 88.9496C43.0608 88.0261 42.0808 86.6627 41.7715 85.2091C41.4355 83.6306 40.8484 82.2626 40.5329 81.5277C40.4453 81.3233 40.3819 81.1757 40.3451 81.0729C40.2985 80.9425 40.1754 80.5967 41.1871 79.9038C41.5469 79.6574 42.2881 79.2175 43.2084 79.0409C44.7331 78.7485 46.0169 79.3215 46.824 80.6545C49.0027 84.2534 48.8187 85.9456 48.6843 87.1815C48.6594 87.4116 48.6357 87.6289 48.6296 87.838L48.6241 88.0223C48.6004 88.805 48.5797 89.4812 48.8367 89.9623C48.8648 90.015 48.8822 90.0698 48.8876 90.1235C48.8931 90.1773 48.8866 90.2289 48.8686 90.2755C48.8505 90.322 48.8212 90.3626 48.7824 90.395C48.7436 90.4273 48.6959 90.4507 48.6422 90.4638L48.5774 90.4748ZM41.2626 81.1104L41.3865 81.4029C41.7141 82.1664 42.3238 83.587 42.6775 85.2478C42.9329 86.4467 43.7364 87.5683 44.8825 88.3246C45.7882 88.9224 46.7976 89.2077 47.6995 89.1288L47.7181 89.1272C47.673 88.717 47.6865 88.2785 47.7009 87.806L47.7062 87.6229C47.7132 87.3868 47.7381 87.1566 47.7646 86.913C47.8938 85.7234 48.0548 84.2426 46.0333 80.9034C45.633 80.242 45.1157 79.8842 44.4523 79.8094C43.0899 79.6564 41.5296 80.72 41.2626 81.1104ZM43.8341 80.7051C43.8652 80.8526 44.3113 81.2147 44.7275 81.2318C45.1431 81.2495 45.3717 80.9158 45.3404 80.7683C45.309 80.6208 44.9463 80.4869 44.53 80.4695C44.1139 80.4521 43.8022 80.5577 43.8341 80.7051ZM44.8708 81.3671L44.7568 81.3696C44.4988 81.3589 44.1965 81.2343 43.9484 81.036C43.8612 80.9664 43.7107 80.8299 43.683 80.6986C43.6415 80.5062 43.8458 80.3709 44.2292 80.3374C44.3148 80.3299 44.4062 80.328 44.5002 80.332C44.7198 80.341 44.9351 80.3811 45.1063 80.4441C45.4031 80.5535 45.4747 80.6982 45.491 80.7748C45.5367 80.9874 45.2963 81.3299 44.8708 81.3671ZM43.9877 80.7167C44.0327 80.8055 44.3765 81.0811 44.6981 81.0943L44.7712 81.0927C45.0547 81.0679 45.1899 80.839 45.1897 80.7679C45.1464 80.7232 44.9216 80.6225 44.5595 80.6073C44.4814 80.6037 44.4045 80.6052 44.3293 80.6117C44.1071 80.6312 44.0063 80.6887 43.9877 80.7167ZM55.803 79.3514C55.8776 79.4951 55.7148 79.9104 55.3368 79.9973C54.959 80.0842 54.5088 79.8101 54.4339 79.6664C54.3601 79.5227 54.6059 79.3352 54.9838 79.2486C55.3615 79.1615 55.7283 79.208 55.803 79.3514ZM55.2721 80.0797C54.8901 80.1131 54.4584 79.8616 54.365 79.682C54.2541 79.4664 54.5749 79.2671 54.9486 79.1814C55.0309 79.1625 55.1145 79.1493 55.1969 79.1421C55.5356 79.1124 55.7941 79.1865 55.8716 79.3358C55.9217 79.4324 55.8971 79.5903 55.8096 79.7386C55.7516 79.8361 55.6179 80.0079 55.371 80.0644L55.2721 80.0797ZM55.2471 79.2794C55.1716 79.286 55.0948 79.2983 55.0186 79.3156C54.6432 79.402 54.4621 79.5718 54.5028 79.6508C54.5479 79.7377 54.8928 79.9714 55.2225 79.9426L55.3018 79.9301C55.5069 79.8831 55.6204 79.7363 55.6697 79.6531C55.7473 79.5225 55.7543 79.4052 55.7345 79.3672C55.7083 79.3168 55.5353 79.2542 55.2471 79.2794ZM59.4177 87.662C59.3386 87.669 59.2536 87.6555 59.1718 87.6231C59.09 87.5907 59.0145 87.5405 58.9533 87.4779C58.8921 87.4153 58.8476 87.3427 58.8245 87.2678C58.8014 87.1929 58.8005 87.1186 58.8221 87.0528C59.2752 85.6615 58.6188 84.3406 57.9841 83.063C57.7135 82.5189 57.4341 81.956 57.2539 81.4082C57.0685 80.8446 56.9756 80.3744 56.8854 79.9196C56.7788 79.3808 56.6783 78.8718 56.4275 78.2791C56.4048 78.2253 56.3933 78.1706 56.3938 78.1179C56.3943 78.0652 56.4067 78.0157 56.4304 77.9721C56.454 77.9285 56.4884 77.8917 56.5316 77.8638C56.5748 77.8359 56.626 77.8175 56.6822 77.8096C56.7384 77.8017 56.7985 77.8044 56.8591 77.8177C56.9197 77.8309 56.9796 77.8544 57.0354 77.8868C57.0912 77.9192 57.1418 77.9598 57.1844 78.0064C57.2269 78.053 57.2605 78.1047 57.2832 78.1584C57.5699 78.8359 57.6838 79.4119 57.7941 79.9693C57.8792 80.3995 57.9671 80.8443 58.1364 81.3582C58.2958 81.8434 58.5481 82.3513 58.8152 82.8889C59.4903 84.2473 60.2554 85.7869 59.7146 87.4475C59.6951 87.5073 59.6578 87.5581 59.606 87.5956C59.5543 87.633 59.4896 87.6558 59.4177 87.662Z" fill="white"/>
</g>
<path d="M34.2445 123.859L30.8904 114.644L34.3727 114.339C35.1327 114.273 35.8099 114.348 36.4042 114.565C36.9985 114.783 37.5021 115.107 37.915 115.538C38.3268 115.967 38.6354 116.463 38.8407 117.027C39.047 117.594 39.107 118.115 39.0207 118.59C38.9364 119.061 38.691 119.451 38.2846 119.759C37.8803 120.064 37.2998 120.249 36.5429 120.315L34.1482 120.525L33.7191 119.346L35.9802 119.148C36.4604 119.106 36.8216 118.994 37.0638 118.812C37.3048 118.627 37.4457 118.392 37.4862 118.106C37.5268 117.821 37.4838 117.504 37.3571 117.156C37.2304 116.809 37.048 116.506 36.8098 116.248C36.5716 115.99 36.2736 115.798 35.9158 115.671C35.5612 115.545 35.139 115.503 34.6493 115.545L32.7984 115.707L35.7185 123.73L34.2445 123.859ZM45.7679 122.995C45.0809 123.055 44.4274 122.959 43.8073 122.707C43.1872 122.455 42.6385 122.074 42.1611 121.565C41.6837 121.056 41.3151 120.444 41.0552 119.73C40.7943 119.013 40.7076 118.374 40.7952 117.812C40.8828 117.25 41.1285 116.799 41.5324 116.457C41.9364 116.115 42.4818 115.914 43.1687 115.854C43.8556 115.794 44.5091 115.89 45.1293 116.142C45.7494 116.394 46.2987 116.777 46.7771 117.289C47.2556 117.801 47.6253 118.416 47.8863 119.133C48.1461 119.847 48.2317 120.483 48.143 121.042C48.0543 121.6 47.808 122.051 47.4041 122.392C47.0002 122.734 46.4548 122.935 45.7679 122.995ZM45.3615 121.865C45.8068 121.826 46.1353 121.683 46.3471 121.436C46.5588 121.188 46.6675 120.874 46.6732 120.492C46.682 120.111 46.6056 119.698 46.444 119.254C46.2835 118.813 46.0646 118.414 45.7871 118.058C45.5118 117.698 45.1869 117.419 44.8125 117.219C44.438 117.02 44.0282 116.94 43.5829 116.979C43.1345 117.018 42.8034 117.163 42.5895 117.414C42.3788 117.664 42.2696 117.982 42.2619 118.366C42.2563 118.748 42.3337 119.159 42.4942 119.6C42.6558 120.044 42.8737 120.444 43.1479 120.801C43.4253 121.157 43.7507 121.434 44.1241 121.63C44.5007 121.826 44.9131 121.905 45.3615 121.865ZM54.3139 116.713L53.0997 117.042C52.9889 116.891 52.849 116.75 52.68 116.619C52.5142 116.488 52.3163 116.386 52.0864 116.314C51.8565 116.241 51.5936 116.217 51.2979 116.243C50.894 116.279 50.588 116.394 50.3799 116.588C50.1707 116.78 50.1147 117.009 50.2119 117.276C50.296 117.507 50.4543 117.685 50.6869 117.81C50.9195 117.935 51.2541 118.025 51.6908 118.08L52.9464 118.23C53.6741 118.318 54.259 118.501 54.7011 118.778C55.1432 119.055 55.4533 119.438 55.6313 119.927C55.7819 120.341 55.789 120.721 55.6525 121.067C55.5181 121.41 55.2584 121.693 54.8734 121.915C54.4916 122.138 54.005 122.275 53.4135 122.326C52.593 122.398 51.8635 122.292 51.225 122.007C50.5854 121.719 50.0954 121.275 49.755 120.673L51.0616 120.354C51.2708 120.686 51.5407 120.927 51.8712 121.078C52.2005 121.225 52.5799 121.28 53.0092 121.243C53.4767 121.202 53.8171 121.078 54.0303 120.87C54.2425 120.66 54.3 120.421 54.2028 120.154C54.1242 119.938 53.9723 119.764 53.747 119.632C53.525 119.5 53.2254 119.411 52.8483 119.367L51.5147 119.219C50.7774 119.132 50.1866 118.942 49.7422 118.65C49.301 118.357 48.9909 117.965 48.8118 117.473C48.6633 117.065 48.6542 116.697 48.7846 116.37C48.9149 116.043 49.162 115.775 49.5259 115.567C49.8887 115.356 50.3452 115.226 50.8954 115.178C51.6873 115.109 52.3696 115.216 52.9422 115.5C53.5138 115.782 53.971 116.186 54.3139 116.713ZM58.8314 114.577L59.2244 115.657L55.2221 116.007L54.8291 114.927L58.8314 114.577ZM55.2997 113.177L56.726 113.052L59.1057 119.59C59.2007 119.851 59.3135 120.044 59.4443 120.169C59.5739 120.291 59.7126 120.37 59.8605 120.406C60.0105 120.44 60.1633 120.45 60.3192 120.436C60.4337 120.426 60.5311 120.41 60.6115 120.387C60.6919 120.365 60.7543 120.347 60.7988 120.334L61.4609 121.423C61.3891 121.46 61.2824 121.5 61.1406 121.543C61 121.59 60.8157 121.624 60.5879 121.648C60.2148 121.686 59.842 121.654 59.4696 121.55C59.0972 121.447 58.7606 121.266 58.4598 121.007C58.159 120.749 57.9327 120.411 57.7809 119.994L55.2997 113.177ZM66.9139 123.824C66.3319 123.875 65.8048 123.847 65.3326 123.74C64.8636 123.632 64.454 123.471 64.1038 123.257C63.7536 123.044 63.4619 122.801 63.2289 122.531L64.2813 121.947C64.4152 122.071 64.5805 122.201 64.7771 122.335C64.9779 122.472 65.2215 122.582 65.5078 122.666C65.7972 122.749 66.1391 122.773 66.5335 122.738C67.0741 122.691 67.4756 122.528 67.738 122.248C68.0015 121.971 68.0349 121.562 67.8384 121.022L67.3438 119.664L67.2532 119.671C67.2208 119.826 67.1563 120 67.0596 120.194C66.9661 120.388 66.8034 120.564 66.5716 120.72C66.3398 120.877 65.9997 120.974 65.5513 121.014C64.9725 121.064 64.4045 120.982 63.8474 120.768C63.2924 120.55 62.7886 120.203 62.3359 119.726C61.8853 119.245 61.5263 118.637 61.2588 117.902C60.9913 117.167 60.894 116.526 60.9669 115.978C61.0429 115.429 61.2623 114.995 61.6251 114.676C61.9868 114.353 62.4618 114.166 63.0501 114.115C63.5049 114.075 63.8984 114.115 64.2307 114.234C64.5619 114.351 64.8398 114.497 65.0644 114.672C65.2922 114.847 65.4752 115.003 65.6135 115.139L65.7184 115.13L65.3106 114.01L66.7083 113.887L69.2796 120.952C69.4958 121.546 69.5269 122.046 69.373 122.453C69.2191 122.859 68.9258 123.176 68.4931 123.403C68.0636 123.629 67.5372 123.77 66.9139 123.824ZM65.46 119.87C65.8702 119.834 66.1841 119.714 66.4016 119.509C66.6212 119.301 66.7425 119.021 66.7654 118.669C66.7904 118.314 66.7161 117.898 66.5425 117.421C66.3733 116.956 66.1511 116.553 65.876 116.212C65.6008 115.871 65.2857 115.614 64.9306 115.441C64.5744 115.264 64.188 115.194 63.7714 115.231C63.3421 115.268 63.0225 115.405 62.8128 115.64C62.6019 115.872 62.4882 116.173 62.4719 116.543C62.4587 116.912 62.5324 117.317 62.6929 117.758C62.8577 118.211 63.0756 118.602 63.3463 118.931C63.6171 119.261 63.9305 119.509 64.2866 119.676C64.6459 119.842 65.037 119.907 65.46 119.87ZM71.1368 120.632L68.6212 113.72L69.9998 113.6L70.3994 114.697L70.4758 114.691C70.4739 114.307 70.6028 113.994 70.8624 113.752C71.1241 113.506 71.4696 113.364 71.8989 113.327C71.9879 113.319 72.094 113.313 72.217 113.308C72.3432 113.303 72.4429 113.302 72.5162 113.305L72.9846 114.592C72.9219 114.582 72.8141 114.574 72.6613 114.569C72.5073 114.561 72.3572 114.563 72.2109 114.576C71.8738 114.606 71.5979 114.699 71.3831 114.857C71.1703 115.012 71.0308 115.215 70.9644 115.465C70.8969 115.713 70.9177 115.986 71.0269 116.286L72.5631 120.507L71.1368 120.632ZM79.2387 120.067C78.5168 120.13 77.8421 120.039 77.2146 119.794C76.5892 119.545 76.0384 119.168 75.5621 118.661C75.0879 118.152 74.7203 117.539 74.4594 116.822C74.2017 116.114 74.1145 115.477 74.1978 114.913C74.2844 114.348 74.5253 113.892 74.9207 113.545C75.3192 113.198 75.8588 112.994 76.5393 112.935C76.9528 112.898 77.377 112.928 77.8119 113.023C78.2468 113.118 78.6688 113.29 79.0777 113.539C79.4866 113.788 79.8604 114.125 80.199 114.55C80.5365 114.973 80.8193 115.498 81.0475 116.125L81.2211 116.602L75.3966 117.111L75.0297 116.103L79.4566 115.716C79.3277 115.362 79.1373 115.055 78.8853 114.795C78.6322 114.533 78.3384 114.334 78.0038 114.199C77.6725 114.064 77.3223 114.013 76.9534 114.045C76.5527 114.08 76.2367 114.204 76.0055 114.416C75.7763 114.625 75.6347 114.885 75.5806 115.196C75.5286 115.504 75.5654 115.83 75.6909 116.175L75.9776 116.963C76.1457 117.425 76.3746 117.81 76.6642 118.119C76.9571 118.428 77.2904 118.654 77.6643 118.798C78.0371 118.938 78.4318 118.991 78.8484 118.954C79.1188 118.931 79.3521 118.873 79.5485 118.781C79.7439 118.687 79.8959 118.559 80.0045 118.398C80.1132 118.237 80.1712 118.044 80.1785 117.821L81.612 117.932C81.6403 118.317 81.5659 118.662 81.3887 118.969C81.2135 119.272 80.9445 119.52 80.5815 119.713C80.2205 119.902 79.7729 120.02 79.2387 120.067ZM87.5032 113.809L86.2891 114.138C86.1783 113.987 86.0383 113.846 85.8694 113.715C85.7036 113.584 85.5057 113.483 85.2758 113.41C85.0458 113.337 84.783 113.314 84.4872 113.34C84.0833 113.375 83.7774 113.49 83.5693 113.685C83.3601 113.876 83.3041 114.105 83.4013 114.372C83.4854 114.603 83.6437 114.782 83.8763 114.907C84.1089 115.032 84.4435 115.122 84.8801 115.176L86.1358 115.326C86.8635 115.415 87.4484 115.597 87.8905 115.874C88.3326 116.151 88.6426 116.534 88.8206 117.023C88.9713 117.437 88.9784 117.817 88.8419 118.163C88.7075 118.506 88.4478 118.789 88.0628 119.012C87.681 119.234 87.1943 119.371 86.6028 119.423C85.7823 119.494 85.0528 119.388 84.4144 119.103C83.7748 118.816 83.2848 118.371 82.9444 117.769L84.251 117.451C84.4602 117.782 84.7301 118.023 85.0605 118.174C85.3899 118.322 85.7692 118.377 86.1986 118.339C86.6661 118.298 87.0064 118.174 87.2197 117.966C87.4318 117.756 87.4893 117.517 87.3922 117.25C87.3136 117.034 87.1616 116.86 86.9364 116.728C86.7144 116.596 86.4148 116.508 86.0376 116.463L84.704 116.315C83.9668 116.228 83.376 116.038 82.9316 115.746C82.4904 115.454 82.1802 115.061 82.0012 114.569C81.8527 114.161 81.8436 113.794 81.9739 113.467C82.1042 113.139 82.3514 112.872 82.7153 112.664C83.0781 112.452 83.5346 112.323 84.0848 112.274C84.8766 112.205 85.5589 112.313 86.1316 112.597C86.7032 112.878 87.1604 113.282 87.5032 113.809Z" fill="#24282C"/>
</g>
<rect x="410.667" y="298.716" width="438.404" height="108.34" transform="rotate(-180 410.667 298.716)" fill="url(#paint0_linear_420_2317)"/>
</g>
<defs>
<filter id="filter0_d_420_2317" x="260.218" y="117.923" width="181.948" height="123.312" filterUnits="userSpaceOnUse" color-interpolation-filters="sRGB">
<feFlood flood-opacity="0" result="BackgroundImageFix"/>
<feColorMatrix in="SourceAlpha" type="matrix" values="0 0 0 0 0 0 0 0 0 0 0 0 0 0 0 0 0 0 127 0" result="hardAlpha"/>
<feOffset dx="-12.2779" dy="4.38496"/>
<feGaussianBlur stdDeviation="7.01594"/>
<feComposite in2="hardAlpha" operator="out"/>
<feColorMatrix type="matrix" values="0 0 0 0 0.556645 0 0 0 0 0.678679 0 0 0 0 0.791325 0 0 0 0.1 0"/>
<feBlend mode="normal" in2="BackgroundImageFix" result="effect1_dropShadow_420_2317"/>
<feBlend mode="normal" in="SourceGraphic" in2="effect1_dropShadow_420_2317" result="shape"/>
</filter>
<filter id="filter1_d_420_2317" x="123.647" y="129.871" width="181.948" height="123.312" filterUnits="userSpaceOnUse" color-interpolation-filters="sRGB">
<feFlood flood-opacity="0" result="BackgroundImageFix"/>
<feColorMatrix in="SourceAlpha" type="matrix" values="0 0 0 0 0 0 0 0 0 0 0 0 0 0 0 0 0 0 127 0" result="hardAlpha"/>
<feOffset dx="-12.2779" dy="4.38496"/>
<feGaussianBlur stdDeviation="7.01594"/>
<feComposite in2="hardAlpha" operator="out"/>
<feColorMatrix type="matrix" values="0 0 0 0 0.556645 0 0 0 0 0.678679 0 0 0 0 0.791325 0 0 0 0.1 0"/>
<feBlend mode="normal" in2="BackgroundImageFix" result="effect1_dropShadow_420_2317"/>
<feBlend mode="normal" in="SourceGraphic" in2="effect1_dropShadow_420_2317" result="shape"/>
</filter>
<filter id="filter2_d_420_2317" x="-12.923" y="141.819" width="181.948" height="123.312" filterUnits="userSpaceOnUse" color-interpolation-filters="sRGB">
<feFlood flood-opacity="0" result="BackgroundImageFix"/>
<feColorMatrix in="SourceAlpha" type="matrix" values="0 0 0 0 0 0 0 0 0 0 0 0 0 0 0 0 0 0 127 0" result="hardAlpha"/>
<feOffset dx="-12.2779" dy="4.38496"/>
<feGaussianBlur stdDeviation="7.01594"/>
<feComposite in2="hardAlpha" operator="out"/>
<feColorMatrix type="matrix" values="0 0 0 0 0.556645 0 0 0 0 0.678679 0 0 0 0 0.791325 0 0 0 0.1 0"/>
<feBlend mode="normal" in2="BackgroundImageFix" result="effect1_dropShadow_420_2317"/>
<feBlend mode="normal" in="SourceGraphic" in2="effect1_dropShadow_420_2317" result="shape"/>
</filter>
<filter id="filter3_d_420_2317" x="223.322" y="16.5526" width="181.948" height="123.312" filterUnits="userSpaceOnUse" color-interpolation-filters="sRGB">
<feFlood flood-opacity="0" result="BackgroundImageFix"/>
<feColorMatrix in="SourceAlpha" type="matrix" values="0 0 0 0 0 0 0 0 0 0 0 0 0 0 0 0 0 0 127 0" result="hardAlpha"/>
<feOffset dx="-12.2779" dy="4.38496"/>
<feGaussianBlur stdDeviation="7.01594"/>
<feComposite in2="hardAlpha" operator="out"/>
<feColorMatrix type="matrix" values="0 0 0 0 0.556645 0 0 0 0 0.678679 0 0 0 0 0.791325 0 0 0 0.1 0"/>
<feBlend mode="normal" in2="BackgroundImageFix" result="effect1_dropShadow_420_2317"/>
<feBlend mode="normal" in="SourceGraphic" in2="effect1_dropShadow_420_2317" result="shape"/>
</filter>
<filter id="filter4_d_420_2317" x="86.7516" y="28.501" width="181.948" height="123.312" filterUnits="userSpaceOnUse" color-interpolation-filters="sRGB">
<feFlood flood-opacity="0" result="BackgroundImageFix"/>
<feColorMatrix in="SourceAlpha" type="matrix" values="0 0 0 0 0 0 0 0 0 0 0 0 0 0 0 0 0 0 127 0" result="hardAlpha"/>
<feOffset dx="-12.2779" dy="4.38496"/>
<feGaussianBlur stdDeviation="7.01594"/>
<feComposite in2="hardAlpha" operator="out"/>
<feColorMatrix type="matrix" values="0 0 0 0 0.556645 0 0 0 0 0.678679 0 0 0 0 0.791325 0 0 0 0.1 0"/>
<feBlend mode="normal" in2="BackgroundImageFix" result="effect1_dropShadow_420_2317"/>
<feBlend mode="normal" in="SourceGraphic" in2="effect1_dropShadow_420_2317" result="shape"/>
</filter>
<filter id="filter5_d_420_2317" x="-49.8188" y="40.4493" width="181.948" height="123.312" filterUnits="userSpaceOnUse" color-interpolation-filters="sRGB">
<feFlood flood-opacity="0" result="BackgroundImageFix"/>
<feColorMatrix in="SourceAlpha" type="matrix" values="0 0 0 0 0 0 0 0 0 0 0 0 0 0 0 0 0 0 127 0" result="hardAlpha"/>
<feOffset dx="-12.2779" dy="4.38496"/>
<feGaussianBlur stdDeviation="7.01594"/>
<feComposite in2="hardAlpha" operator="out"/>
<feColorMatrix type="matrix" values="0 0 0 0 0.556645 0 0 0 0 0.678679 0 0 0 0 0.791325 0 0 0 0.1 0"/>
<feBlend mode="normal" in2="BackgroundImageFix" result="effect1_dropShadow_420_2317"/>
<feBlend mode="normal" in="SourceGraphic" in2="effect1_dropShadow_420_2317" result="shape"/>
</filter>
<linearGradient id="paint0_linear_420_2317" x1="481.494" y1="352.886" x2="492.387" y2="406.399" gradientUnits="userSpaceOnUse">
<stop stop-color="#EFF7FF"/>
<stop offset="1" stop-color="#EFF7FF" stop-opacity="0"/>
</linearGradient>
<clipPath id="clip0_420_2317">
<rect width="410" height="286" fill="white" transform="translate(0 0.727295)"/>
</clipPath>
<clipPath id="clip1_420_2317">
<rect width="35.9586" height="35.9586" fill="white" transform="matrix(0.996195 -0.0871557 0.34202 0.939693 335.221 148.357)"/>
</clipPath>
<clipPath id="clip2_420_2317">
<rect width="35.9586" height="35.9586" fill="white" transform="matrix(0.996195 -0.0871557 0.34202 0.939693 198.65 160.305)"/>
</clipPath>
<clipPath id="clip3_420_2317">
<rect width="35.9586" height="35.9586" fill="white" transform="matrix(0.996195 -0.0871557 0.34202 0.939693 62.0796 172.254)"/>
</clipPath>
<clipPath id="clip4_420_2317">
<rect width="35.9586" height="35.9586" fill="white" transform="matrix(0.996195 -0.0871557 0.34202 0.939693 298.325 46.9868)"/>
</clipPath>
<clipPath id="clip5_420_2317">
<rect width="35.9586" height="35.9586" fill="white" transform="matrix(0.996195 -0.0871557 0.34202 0.939693 25.1838 70.8835)"/>
</clipPath>
</defs>
</svg>
