<svg width="701" height="450" viewBox="0 0 701 450" fill="none" xmlns="http://www.w3.org/2000/svg">
<g clip-path="url(#clip0_436_3150)">
<rect width="366.509" height="519.451" rx="23.5263" transform="matrix(0.996195 -0.0871557 0.34202 0.939693 64.8457 -41.197)" fill="white"/>
<g filter="url(#filter0_d_436_3150)">
<g clip-path="url(#clip1_436_3150)">
<rect width="366.509" height="519.451" rx="16.5342" transform="matrix(0.996195 -0.0871557 0.34202 0.939693 64.8457 -41.197)" fill="white" fill-opacity="0.35" shape-rendering="crispEdges"/>
<rect width="72.3373" height="55.1141" rx="27.5571" transform="matrix(0.996195 -0.0871557 0.34202 0.939693 122.623 55.2834)" fill="#DDE8F5" fill-opacity="0.5"/>
<path fill-rule="evenodd" clip-rule="evenodd" d="M156.42 69.4344L156.95 69.3881C158.12 69.2857 159.071 69.2025 159.865 69.1944C160.684 69.1861 161.444 69.2544 162.222 69.5149C163.054 69.793 163.845 70.2165 164.546 70.7528C164.826 70.1307 165.27 69.5992 165.854 69.1972C166.4 68.8208 167.065 68.6279 167.84 68.4967C168.59 68.3697 169.541 68.2865 170.711 68.1842L171.241 68.1378C171.808 68.0881 172.306 68.0446 172.728 68.0403C173.176 68.0358 173.648 68.0718 174.155 68.2411C174.901 68.491 175.595 68.9331 176.137 69.5042C176.505 69.8914 176.737 70.3039 176.922 70.7121C177.097 71.0968 177.267 71.5658 177.462 72.1012L181.063 81.9947C181.258 82.5301 181.429 82.999 181.536 83.3896C181.65 83.8041 181.724 84.2305 181.652 84.6561C181.546 85.2838 181.207 85.8164 180.683 86.1774C180.327 86.4222 179.91 86.536 179.486 86.6077C179.087 86.6753 178.589 86.7188 178.022 86.7685L163.201 88.0651C162.634 88.1148 162.137 88.1583 161.714 88.1626C161.266 88.1671 160.794 88.1311 160.288 87.9617C159.541 87.7119 158.847 87.2698 158.305 86.6987C157.938 86.3115 157.706 85.899 157.52 85.4908C157.346 85.106 157.175 84.6371 156.98 84.1017L153.379 74.2082C153.184 73.6728 153.014 73.2038 152.906 72.8132C152.792 72.3988 152.719 71.9724 152.79 71.5468C152.896 70.919 153.235 70.3865 153.759 70.0255C154.115 69.7807 154.532 69.6669 154.956 69.5952C155.356 69.5275 155.853 69.4841 156.42 69.4344ZM165.415 76.5728C164.992 75.4096 164.698 74.6061 164.417 73.9867C164.142 73.3805 163.921 73.0515 163.696 72.8141C163.195 72.2864 162.554 71.8777 161.864 71.6469C161.553 71.543 161.162 71.4822 160.496 71.4889C159.816 71.4958 158.964 71.5695 157.731 71.6774L157.298 71.7153C156.671 71.7701 156.274 71.8057 155.982 71.8551C155.704 71.9023 155.627 71.9466 155.6 71.9651C155.452 72.0672 155.356 72.2178 155.326 72.3953C155.321 72.4274 155.313 72.516 155.388 72.7881C155.466 73.0736 155.602 73.4483 155.817 74.0393L159.387 83.8468C159.602 84.4378 159.739 84.8122 159.867 85.0935C159.988 85.3615 160.058 85.4434 160.086 85.4726C160.239 85.6341 160.435 85.7591 160.646 85.8297C160.685 85.8425 160.788 85.871 161.082 85.8681C161.391 85.8649 161.789 85.8311 162.415 85.7763L168.569 85.2379L165.415 76.5728ZM170.991 85.026L167.837 76.3609C167.414 75.1977 167.122 74.394 166.949 73.7651C166.78 73.1497 166.755 72.8036 166.799 72.5427C166.896 71.9626 167.21 71.4704 167.694 71.1368C167.912 70.9867 168.236 70.8633 168.866 70.7567C169.509 70.6478 170.361 70.5724 171.594 70.4645L172.027 70.4266C172.653 70.3718 173.051 70.3379 173.36 70.3348C173.654 70.3318 173.758 70.3604 173.796 70.3732C174.007 70.4438 174.203 70.5688 174.356 70.7303C174.384 70.7595 174.454 70.8414 174.576 71.1094C174.703 71.3906 174.84 71.7651 175.056 72.3561L178.625 82.1636C178.84 82.7546 178.976 83.1292 179.054 83.4148C179.129 83.6869 179.122 83.7755 179.116 83.8076C179.086 83.9851 178.99 84.1357 178.842 84.2378C178.815 84.2563 178.738 84.3006 178.46 84.3477C178.168 84.3972 177.771 84.4328 177.145 84.4876L170.991 85.026Z" fill="#3A5A70"/>
<rect width="72.3373" height="55.1141" rx="27.5571" transform="matrix(0.996195 -0.0871557 0.34202 0.939693 205.666 48.0181)" fill="#DDE8F5" fill-opacity="0.5"/>
<path d="M237.99 63.8863L249.257 62.9006L249.958 64.8272L241.085 65.6035L242.654 69.9125L250.999 69.1823L251.7 71.1089L243.355 71.8391L245.066 76.5416L254.312 75.7327L255.013 77.6593L243.374 78.6776L237.99 63.8863ZM252.265 62.6374L254.681 62.4261L266.701 72.725L266.789 72.7173L262.785 61.7171L265.179 61.5076L270.562 76.2989L268.234 76.5026L256.082 66.0871L255.994 66.0947L260.043 77.2193L257.649 77.4287L252.265 62.6374Z" fill="#3A5A70"/>
<rect width="72.3373" height="55.1141" rx="27.5571" transform="matrix(0.996195 -0.0871557 0.34202 0.939693 288.709 40.7529)" fill="#DDE8F5" fill-opacity="0.5"/>
<g clip-path="url(#clip2_436_3150)">
<path d="M330.462 53.7524C329.07 53.8742 328.359 54.0787 327.298 54.4161C326.564 54.1068 325.773 53.845 325.042 53.6626C324.188 53.4491 323.199 53.2884 322.484 53.4284C322.183 53.4874 321.967 53.6584 321.861 53.8876C321.808 53.981 321.774 54.0877 321.763 54.2056C321.623 55.6509 322.178 57.0301 322.838 58.0436C322.599 58.6581 322.45 59.2278 322.431 59.8409C322.406 60.6239 322.597 61.3935 322.93 62.3069C323.791 64.6732 325.23 66.4488 327.135 67.613C328.481 68.4355 329.965 68.8954 331.486 69.0911C331.485 69.4907 331.561 69.8869 331.684 70.2911C331.695 70.3397 331.709 70.3891 331.727 70.4389L331.851 70.7784C331.805 70.7924 331.762 70.8095 331.719 70.8297C330.855 71.2442 328.247 71.3506 325.972 68.7821C325.512 68.263 324.747 68.0837 324.262 68.3815C323.778 68.6794 323.758 69.3416 324.217 69.8607C327.177 73.2027 330.761 73.5563 332.662 73.0073L332.877 73.5993C333.094 74.1952 333.782 74.6334 334.414 74.5782C335.046 74.5229 335.382 73.995 335.165 73.3991L334.1 70.4725C333.946 70.0503 333.899 69.7887 333.906 69.5762C333.912 69.367 333.973 69.1296 334.163 68.7905C334.431 68.3141 334.151 67.6343 333.539 67.2721C333.385 67.181 333.225 67.1187 333.067 67.084C332.953 67.0544 332.836 67.0384 332.719 67.0381C330.903 67.0336 329.359 66.6549 328.144 65.9125C326.962 65.1898 325.911 64.0129 325.218 62.1068C324.931 61.3204 324.835 60.8403 324.849 60.4085C324.862 59.9642 324.994 59.4865 325.322 58.735C325.382 58.5983 325.401 58.4493 325.384 58.2982C325.362 58.0884 325.272 57.8672 325.109 57.6623C324.71 57.1613 324.3 56.4106 324.189 55.5907C324.396 55.6223 324.646 55.6715 324.936 55.7441C325.667 55.9264 326.471 56.2096 327.134 56.5232C327.361 56.6308 327.592 56.6782 327.805 56.6716C327.913 56.669 328.018 56.6524 328.119 56.6205L328.289 56.566C329.481 56.1855 330.001 56.0194 331.248 55.9103C332.561 55.7954 333.239 55.8599 334.786 56.0364C334.889 56.0481 334.987 56.048 335.079 56.0372C335.308 56.0158 335.514 55.9298 335.665 55.7769C336.065 55.3702 336.62 54.9681 337.177 54.6732C337.396 54.5572 337.593 54.4694 337.763 54.4048C338.223 55.1687 338.361 55.8923 338.342 56.4299C338.34 56.4883 338.343 56.547 338.352 56.6053C338.373 56.9408 338.573 57.3001 338.921 57.5619C339.607 58.0785 340.054 58.4623 340.412 58.8997C340.764 59.329 341.087 59.8786 341.406 60.7543C342.051 62.527 341.953 63.7608 341.402 64.637C340.84 65.5333 339.715 66.1981 337.957 66.584C337.938 66.5881 337.92 66.5925 337.903 66.5974C337.634 66.625 337.398 66.7425 337.251 66.9474C336.932 67.391 337.149 68.0763 337.736 68.4779C338.154 68.7638 338.378 68.9763 338.532 69.1715C338.688 69.3698 338.829 69.6232 338.982 70.0453L340.048 72.972C340.265 73.5679 340.952 74.0061 341.584 73.9509C342.216 73.8956 342.552 73.3677 342.335 72.7718L341.185 69.6114C341.167 69.5616 341.145 69.5129 341.121 69.4655C340.95 69.0617 340.739 68.6737 340.452 68.2959C341.829 67.8042 342.919 67.0664 343.581 66.0129C344.469 64.598 344.495 62.756 343.694 60.5541C343.306 59.4877 342.85 58.6512 342.243 57.91C341.791 57.3599 341.287 56.9011 340.747 56.4685C340.663 55.3883 340.208 54.0155 339.036 52.6587C338.873 52.4703 338.67 52.3252 338.454 52.23C338.262 52.14 338.053 52.0874 337.844 52.0846C337.075 52.0744 336.26 52.3929 335.609 52.7381C335.05 53.034 334.492 53.4148 334.021 53.8308C332.714 53.6872 331.858 53.6302 330.462 53.7524Z" fill="#3A5A70"/>
</g>
<rect width="72.3373" height="55.1141" rx="27.5571" transform="matrix(0.996195 -0.0871557 0.34202 0.939693 371.752 33.4875)" fill="#DDE8F5" fill-opacity="0.5"/>
<path fill-rule="evenodd" clip-rule="evenodd" d="M412.962 46.9982C412.054 47.0776 411.571 47.8365 411.882 48.6931C411.966 48.9218 412.096 49.1337 412.261 49.3206C412.723 49.1961 413.209 49.1105 413.715 49.0663C414.22 49.0221 414.737 49.0198 415.258 49.0584C415.281 48.8551 415.254 48.634 415.171 48.4054C414.859 47.5488 413.87 46.9187 412.962 46.9982ZM417.583 49.4977C417.595 49.0908 417.525 48.6576 417.364 48.2136C416.636 46.2147 414.328 44.7446 412.209 44.93C410.09 45.1154 408.962 46.8861 409.69 48.885C409.851 49.329 410.091 49.7473 410.39 50.127C409.851 50.4674 409.385 50.882 409.011 51.3636C407.991 52.6778 407.737 54.397 408.375 56.149C409.168 58.3285 409.159 59.9215 408.878 61.0513L408.873 61.07C408.692 61.7965 408.551 62.3639 408.465 62.7699C408.422 62.9728 408.388 63.1604 408.371 63.3199C408.363 63.399 408.357 63.4936 408.361 63.5932C408.364 63.6674 408.376 63.8596 408.482 64.0845C408.54 64.2079 408.66 64.4528 408.905 64.692C409.149 64.9312 409.415 65.0628 409.549 65.1273C409.767 65.2325 409.961 65.2688 410.056 65.284C410.168 65.3018 410.274 65.3089 410.36 65.3121C410.533 65.3185 410.73 65.3123 410.933 65.3013C411.338 65.2794 411.897 65.2305 412.602 65.1688L415.114 64.9491C416.25 66.6905 418.446 67.8585 420.49 67.6798C422.533 67.501 423.77 66.0326 423.607 64.206L426.119 63.9863C426.824 63.9246 427.383 63.8756 427.779 63.8276C427.977 63.8034 428.166 63.7759 428.323 63.7406C428.402 63.7229 428.496 63.6983 428.589 63.6625C428.668 63.6322 428.824 63.5652 428.955 63.4295C429.035 63.3463 429.191 63.1778 429.252 62.9119C429.313 62.6459 429.252 62.3959 429.22 62.2702C429.161 62.0412 429.036 61.8589 428.987 61.7887C428.921 61.6945 428.848 61.6068 428.784 61.5339C428.656 61.3871 428.492 61.2169 428.308 61.0338C427.942 60.6674 427.409 60.159 426.726 59.508L426.709 59.4913C425.647 58.479 424.516 56.9857 423.722 54.8063C423.085 53.0542 421.633 51.4843 419.749 50.4242C419.058 50.0356 418.329 49.7257 417.583 49.4977ZM416.202 51.1941C416.217 51.1967 416.233 51.1991 416.248 51.2012C417.171 51.3467 418.076 51.6593 418.882 52.1127C420.199 52.8536 421.129 53.8978 421.53 54.9981C422.454 57.5377 423.819 59.3873 425.205 60.7091C425.681 61.1637 426.068 61.5323 426.372 61.8279C426.089 61.8548 425.748 61.8847 425.341 61.9203L411.875 63.0984C411.468 63.134 411.127 63.1638 410.842 63.1867C410.919 62.8577 411.022 62.4463 411.148 61.9389C411.516 60.4637 411.491 58.4968 410.567 55.9572C410.167 54.8569 410.303 53.7194 411.016 52.8009C411.452 52.2389 412.081 51.7921 412.844 51.4989C412.857 51.4944 412.87 51.4896 412.882 51.4845C413.363 51.3043 413.896 51.1845 414.468 51.1345C415.039 51.0845 415.624 51.1065 416.202 51.1941ZM417.461 64.7437C418.065 65.3287 418.925 65.6826 419.737 65.6116C420.548 65.5406 421.106 65.0627 421.26 64.4114L417.461 64.7437Z" fill="#3A5A70"/>
<g clip-path="url(#clip3_436_3150)">
<rect width="322.418" height="55.1141" rx="27.5571" transform="matrix(0.996195 -0.0871557 0.34202 0.939693 145.242 117.432)" fill="#DDE8F5" fill-opacity="0.5"/>
<path d="M439.316 111.441C439.551 111.073 440.13 111.022 440.61 111.328L445.474 114.426C445.487 114.434 445.499 114.442 445.511 114.451C445.61 114.518 445.696 114.596 445.769 114.68C445.855 114.781 445.924 114.894 445.968 115.016C446.012 115.136 446.028 115.254 446.018 115.362C446.01 115.456 445.983 115.546 445.935 115.628C445.927 115.642 445.918 115.656 445.909 115.67C445.853 115.75 445.781 115.814 445.696 115.861C445.607 115.912 445.501 115.945 445.381 115.958L445.366 115.959L432.007 117.128C431.502 117.172 430.951 116.821 430.778 116.345C430.604 115.868 430.873 115.446 431.379 115.401L442.53 114.426L439.761 112.662C439.28 112.356 439.082 111.809 439.316 111.441Z" fill="#3A5A70" fill-opacity="0.8"/>
<path d="M429.321 120.403C429.379 120.312 429.457 120.241 429.55 120.189C429.64 120.139 429.747 120.106 429.868 120.094L429.876 120.093L443.236 118.925C443.742 118.88 444.292 119.231 444.466 119.708C444.639 120.184 444.37 120.607 443.865 120.651L432.714 121.627L435.483 123.391C435.963 123.696 436.162 124.243 435.927 124.611C435.692 124.98 435.113 125.03 434.633 124.725L429.767 121.624L429.755 121.617C429.642 121.543 429.544 121.456 429.465 121.361C429.383 121.263 429.318 121.154 429.275 121.037C429.233 120.92 429.217 120.806 429.224 120.701C429.232 120.595 429.263 120.493 429.321 120.403Z" fill="#3A5A70" fill-opacity="0.8"/>
<g clip-path="url(#clip4_436_3150)">
<path d="M182.669 132.836C182.976 132.594 183.597 132.54 184.056 132.715L191.068 135.39C191.986 135.74 192.232 136.417 191.618 136.901L186.988 140.551C186.68 140.793 186.06 140.847 185.601 140.672L178.589 137.997C177.671 137.647 177.425 136.971 178.039 136.487L182.669 132.836Z" fill="url(#paint0_linear_436_3150)"/>
<path d="M178.229 140.001C178.017 139.417 178.365 139.142 179.008 139.387L185.489 141.86C185.856 142 186.252 142.384 186.374 142.718L188.337 148.112C188.55 148.696 188.201 148.971 187.559 148.726L181.077 146.253C180.71 146.113 180.314 145.729 180.193 145.395L178.229 140.001Z" fill="url(#paint1_linear_436_3150)"/>
<path d="M187.642 142.649C187.521 142.315 187.622 141.887 187.867 141.694L192.205 138.274C192.635 137.935 193.156 138.134 193.368 138.718L195.331 144.111C195.453 144.445 195.352 144.873 195.107 145.066L190.769 148.486C190.339 148.825 189.818 148.626 189.605 148.042L187.642 142.649Z" fill="url(#paint2_linear_436_3150)"/>
</g>
<path d="M202.551 133.146L207.426 132.72C210.226 132.475 212.034 133.471 212.854 135.724C213.679 137.992 212.675 139.25 209.859 139.497L206.812 139.763L208.384 144.083L206.588 144.24L202.551 133.146ZM204.872 134.434L206.286 138.318L209.218 138.062C210.107 137.984 210.693 137.772 210.992 137.426C211.274 137.08 211.307 136.564 211.058 135.881C210.809 135.197 210.414 134.719 209.901 134.475C209.376 134.2 208.677 134.101 207.804 134.178L204.872 134.434ZM218.459 134.688C219.843 134.567 221.072 134.908 222.125 135.746C223.078 136.496 223.831 137.585 224.367 139.013L217.911 139.578C218.259 140.349 218.694 140.936 219.242 141.321C219.784 141.69 220.407 141.86 221.099 141.8C221.708 141.746 222.151 141.563 222.434 141.266C222.651 141.023 222.769 140.644 222.829 140.157L224.575 140.005C224.649 140.768 224.502 141.438 224.09 141.987C223.57 142.658 222.744 143.051 221.607 143.15C220.355 143.26 219.215 142.975 218.224 142.308C217.151 141.6 216.377 140.594 215.896 139.273C215.461 138.077 215.461 137.051 215.925 136.176C216.35 135.29 217.208 134.798 218.459 134.688ZM219.001 136.036C218.342 136.093 217.894 136.309 217.634 136.716C217.402 137.105 217.341 137.64 217.491 138.332L222.087 137.93C221.413 136.546 220.384 135.914 219.001 136.036ZM228.789 133.784C229.217 133.747 229.619 133.776 229.966 133.89L230.565 135.537C230.092 135.45 229.663 135.439 229.268 135.474C228.741 135.52 228.337 135.764 228.072 136.204C227.785 136.678 227.781 137.271 228.035 137.971L229.585 142.228L227.839 142.38L224.915 134.348L226.661 134.195L227.102 135.407C227.158 134.953 227.319 134.602 227.569 134.356C227.851 134.011 228.262 133.831 228.789 133.784ZM234.83 133.256C237.037 133.063 238.561 133.795 239.375 135.471L237.678 135.62C237.388 135.196 237.083 134.918 236.741 134.772C236.377 134.612 235.882 134.559 235.289 134.611C234.761 134.657 234.389 134.753 234.182 134.932C233.925 135.115 233.868 135.376 233.981 135.687C234.083 135.967 234.398 136.179 234.933 136.341C235.274 136.439 235.891 136.546 236.821 136.673C237.872 136.805 238.693 137.006 239.256 137.245C240.078 137.59 240.628 138.119 240.888 138.834C241.504 140.528 240.547 141.493 238.027 141.714C235.688 141.918 234.091 141.08 233.215 139.233L234.928 139.083C235.225 139.618 235.58 139.988 235.956 140.179C236.326 140.355 236.827 140.424 237.485 140.366C238.836 140.248 239.392 139.815 239.132 139.1C238.991 138.711 238.614 138.424 238.041 138.249C237.732 138.148 237.099 138.043 236.158 137.933C235.074 137.804 234.281 137.633 233.795 137.419C232.995 137.088 232.468 136.573 232.219 135.889C231.953 135.159 232.057 134.557 232.552 134.096C233.042 133.621 233.808 133.345 234.83 133.256ZM244.814 132.382C246.099 132.27 247.284 132.583 248.352 133.323C249.398 134.049 250.161 135.025 250.608 136.252C251.049 137.464 251.038 138.507 250.563 139.35C250.066 140.227 249.181 140.738 247.896 140.85C246.612 140.962 245.421 140.634 244.337 139.895C243.296 139.184 242.55 138.208 242.109 136.996C241.662 135.768 241.673 134.725 242.159 133.865C242.639 132.99 243.53 132.495 244.814 132.382ZM245.306 133.734C244.499 133.805 243.981 134.155 243.757 134.8C243.548 135.347 243.61 136.031 243.904 136.839C244.198 137.647 244.617 138.283 245.199 138.761C245.858 139.313 246.597 139.569 247.404 139.498C248.211 139.428 248.724 139.062 248.971 138.431C249.174 137.869 249.134 137.199 248.845 136.406C248.551 135.598 248.11 134.948 247.529 134.47C246.847 133.904 246.113 133.663 245.306 133.734ZM255.724 131.428C257.832 131.243 259.299 132.237 260.102 134.444L261.906 139.4L260.16 139.553L258.407 134.736C257.909 133.369 256.985 132.744 255.667 132.86C255.173 132.903 254.785 133.097 254.547 133.471C254.288 133.878 254.227 134.413 254.399 135.071L256.157 139.903L254.411 140.056L251.488 132.023L253.234 131.87L253.596 132.865C253.778 132.432 254.049 132.103 254.404 131.864C254.753 131.609 255.197 131.474 255.724 131.428ZM265.423 130.579C266.675 130.47 267.705 130.684 268.513 131.223C269.21 131.691 269.745 132.414 270.101 133.392L271.967 138.52L270.353 138.661L269.94 137.527C269.758 137.96 269.465 138.322 269.055 138.598C268.586 138.896 267.978 139.093 267.22 139.159C266.331 139.237 265.56 139.08 264.913 138.704C264.217 138.332 263.755 137.811 263.512 137.143C263.184 136.242 263.309 135.51 263.891 134.962C264.413 134.435 265.317 134.116 266.557 133.975L268.451 133.761L268.332 133.435C267.925 132.316 267.079 131.813 265.794 131.926C265.251 131.973 264.84 132.105 264.578 132.321C264.262 132.573 264.134 132.921 264.199 133.38L262.418 133.391C262.283 132.505 262.507 131.812 263.084 131.345C263.575 130.917 264.369 130.672 265.423 130.579ZM268.886 134.958L267.108 135.161C265.521 135.332 264.923 135.93 265.285 136.924C265.398 137.235 265.62 137.472 265.974 137.649C266.311 137.828 266.713 137.905 267.158 137.866C267.899 137.802 268.445 137.529 268.82 137.064C269.194 136.598 269.282 136.045 269.056 135.424L268.886 134.958ZM270.733 126.957L272.479 126.804L276.596 138.115L274.85 138.268L270.733 126.957ZM280.684 126.31L282.71 126.133L288.144 134.571L288.21 134.566L287.47 125.717L289.348 125.552L294.897 133.981L294.963 133.975L294.108 125.136L296.134 124.959L296.779 136.349L294.868 136.516L289.364 128.164L289.298 128.17L290.025 136.94L288.098 137.108L280.684 126.31ZM302.85 127.305C304.135 127.193 305.32 127.506 306.388 128.246C307.434 128.972 308.197 129.947 308.643 131.175C309.085 132.387 309.073 133.43 308.598 134.273C308.102 135.15 307.217 135.66 305.932 135.773C304.647 135.885 303.457 135.556 302.372 134.818C301.332 134.107 300.585 133.13 300.144 131.918C299.698 130.691 299.709 129.648 300.195 128.788C300.675 127.912 301.565 127.417 302.85 127.305ZM303.342 128.657C302.535 128.727 302.016 129.077 301.792 129.722C301.584 130.269 301.646 130.953 301.94 131.761C302.234 132.569 302.652 133.206 303.234 133.684C303.894 134.236 304.633 134.492 305.44 134.421C306.247 134.35 306.76 133.985 307.006 133.354C307.209 132.791 307.169 132.121 306.881 131.329C306.587 130.521 306.146 129.87 305.564 129.392C304.882 128.826 304.149 128.586 303.342 128.657ZM313.397 126.382C313.826 126.345 314.227 126.374 314.574 126.488L315.174 128.135C314.7 128.048 314.272 128.037 313.876 128.072C313.349 128.118 312.945 128.362 312.68 128.802C312.394 129.275 312.389 129.869 312.644 130.568L314.193 134.825L312.447 134.978L309.523 126.946L311.269 126.793L311.71 128.005C311.766 127.551 311.928 127.2 312.178 126.954C312.46 126.608 312.87 126.428 313.397 126.382ZM315.145 123.071L316.891 122.918L319.289 129.506L321.774 125.874L324.03 125.676L321.463 129.316L327.283 133.68L325.043 133.876L320.645 130.477L319.984 131.417L321.008 134.229L319.262 134.382L315.145 123.071ZM329.132 125.006C331.339 124.812 332.863 125.545 333.678 127.221L331.981 127.369C331.691 126.946 331.386 126.668 331.044 126.522C330.679 126.361 330.184 126.308 329.591 126.36C329.064 126.406 328.691 126.503 328.484 126.681C328.228 126.864 328.17 127.126 328.283 127.436C328.385 127.716 328.701 127.929 329.235 128.091C329.577 128.189 330.194 128.295 331.124 128.422C332.175 128.555 332.995 128.756 333.558 128.995C334.381 129.34 334.93 129.869 335.19 130.584C335.807 132.277 334.849 133.243 332.329 133.463C329.99 133.668 328.394 132.83 327.517 130.982L329.23 130.833C329.527 131.368 329.883 131.737 330.258 131.929C330.628 132.105 331.129 132.173 331.788 132.116C333.139 131.998 333.695 131.564 333.435 130.849C333.293 130.461 332.917 130.173 332.343 129.999C332.034 129.898 331.401 129.793 330.461 129.683C329.377 129.553 328.584 129.382 328.098 129.168C327.298 128.837 326.77 128.322 326.521 127.639C326.256 126.908 326.359 126.306 326.855 125.846C327.344 125.37 328.111 125.095 329.132 125.006ZM339.463 124.102C340.715 123.992 341.839 124.327 342.869 125.102C343.811 125.821 344.502 126.787 344.955 128.03C345.384 129.211 345.411 130.218 345.052 131.052C344.665 131.951 343.846 132.456 342.627 132.562C341.573 132.654 340.547 132.263 339.516 131.392L341.065 135.649L339.319 135.801L335.276 124.692L336.907 124.55L337.257 125.513C337.562 124.669 338.31 124.203 339.463 124.102ZM339.686 125.461C338.928 125.527 338.437 125.859 338.234 126.47C338.053 126.999 338.115 127.683 338.415 128.506L338.465 128.646C338.776 129.5 339.245 130.181 339.899 130.669C340.469 131.116 341.087 131.318 341.746 131.261C342.602 131.186 343.132 130.867 343.351 130.302C343.533 129.774 343.482 129.073 343.159 128.187C342.837 127.301 342.407 126.634 341.897 126.165C341.27 125.611 340.542 125.386 339.686 125.461ZM349.565 123.218C350.817 123.108 351.847 123.323 352.655 123.861C353.352 124.329 353.887 125.052 354.243 126.031L356.109 131.158L354.495 131.299L354.082 130.165C353.9 130.598 353.607 130.96 353.198 131.237C352.728 131.534 352.12 131.732 351.362 131.798C350.473 131.876 349.702 131.719 349.055 131.343C348.359 130.971 347.897 130.45 347.654 129.782C347.326 128.881 347.451 128.148 348.033 127.6C348.555 127.074 349.459 126.754 350.699 126.614L352.593 126.4L352.474 126.074C352.067 124.955 351.221 124.452 349.936 124.564C349.393 124.612 348.982 124.744 348.72 124.959C348.404 125.211 348.276 125.559 348.341 126.018L346.561 126.03C346.425 125.144 346.649 124.451 347.226 123.984C347.717 123.556 348.511 123.31 349.565 123.218ZM353.028 127.596L351.25 127.8C349.663 127.971 349.065 128.568 349.427 129.563C349.54 129.873 349.762 130.11 350.116 130.288C350.453 130.467 350.855 130.544 351.3 130.505C352.041 130.44 352.588 130.168 352.962 129.702C353.336 129.237 353.424 128.684 353.198 128.062L353.028 127.596ZM359.58 122.342C360.667 122.247 361.625 122.403 362.453 122.812C363.293 123.251 363.993 123.96 364.519 124.94L362.79 125.091C362.477 124.557 362.099 124.173 361.646 123.956C361.188 123.724 360.665 123.642 360.072 123.693C359.347 123.757 358.877 124.054 358.652 124.603C358.405 125.138 358.467 125.87 358.795 126.771C359.123 127.672 359.581 128.37 360.18 128.846C360.739 129.31 361.396 129.525 362.153 129.459C363.454 129.345 363.953 128.66 363.677 127.434L365.406 127.283C365.599 128.372 365.448 129.219 364.981 129.805C364.509 130.375 363.716 130.717 362.629 130.812C361.328 130.926 360.176 130.61 359.157 129.866C358.166 129.151 357.458 128.187 357.006 126.944C356.565 125.732 356.549 124.707 356.958 123.87C357.393 122.966 358.262 122.457 359.58 122.342ZM369.27 121.494C370.653 121.373 371.882 121.714 372.935 122.552C373.888 123.302 374.641 124.391 375.178 125.819L368.721 126.384C369.069 127.155 369.504 127.742 370.052 128.127C370.594 128.496 371.217 128.666 371.909 128.606C372.518 128.552 372.962 128.369 373.244 128.072C373.462 127.829 373.579 127.45 373.64 126.963L375.386 126.811C375.459 127.574 375.312 128.244 374.9 128.793C374.38 129.464 373.554 129.856 372.417 129.956C371.166 130.065 370.025 129.78 369.035 129.114C367.961 128.406 367.187 127.4 366.706 126.079C366.271 124.883 366.271 123.856 366.735 122.982C367.16 122.095 368.018 121.603 369.27 121.494ZM369.811 122.841C369.152 122.899 368.704 123.115 368.444 123.522C368.212 123.911 368.151 124.445 368.301 125.138L372.897 124.736C372.223 123.352 371.195 122.72 369.811 122.841Z" fill="black"/>
</g>
</g>
<rect x="0.709659" y="0.452103" width="365.448" height="518.39" rx="16.0039" transform="matrix(0.996195 -0.0871557 0.34202 0.939693 64.6938 -41.1079)" stroke="url(#paint3_linear_436_3150)" stroke-width="1.06061" shape-rendering="crispEdges"/>
</g>
<g filter="url(#filter1_dd_436_3150)">
<rect width="354.377" height="288.448" rx="12.1154" transform="matrix(0.996195 -0.0871557 0.34202 0.939693 169.794 173.447)" fill="white" fill-opacity="0.4" shape-rendering="crispEdges"/>
<rect x="1.01332" y="0.645554" width="352.862" height="286.934" rx="11.3582" transform="matrix(0.996195 -0.0871557 0.34202 0.939693 169.577 173.574)" stroke="url(#paint4_linear_436_3150)" stroke-width="1.51443" shape-rendering="crispEdges"/>
<mask id="path-19-inside-1_436_3150" fill="white">
<path d="M194.623 182.641L512.16 154.86L529.594 202.759L212.057 230.54L194.623 182.641Z"/>
</mask>
<path d="M529.103 201.41L211.566 229.191L212.548 231.889L530.085 204.108L529.103 201.41Z" fill="white" fill-opacity="0.05" mask="url(#path-19-inside-1_436_3150)"/>
<g clip-path="url(#clip5_436_3150)">
<path fill-rule="evenodd" clip-rule="evenodd" d="M213.923 195.033C214.073 192.537 217.684 192.221 219.585 194.537C219.697 194.673 219.864 194.917 220.093 195.252C220.112 195.279 220.131 195.307 220.15 195.336C220.251 195.483 220.276 195.518 220.294 195.542C220.664 196.027 221.319 196.276 221.837 196.131C221.863 196.124 221.899 196.112 222.046 196.059C222.075 196.049 222.103 196.039 222.131 196.029C222.467 195.91 222.712 195.823 222.863 195.788C225.452 195.185 228.331 197.976 227.378 200.166C227.322 200.294 227.198 200.498 227.028 200.778C227.014 200.801 227 200.824 226.985 200.848C226.91 200.971 226.893 201.001 226.882 201.023C226.663 201.459 226.879 202.054 227.392 202.425C227.418 202.444 227.455 202.469 227.612 202.572C227.643 202.592 227.673 202.611 227.702 202.631C228.059 202.864 228.32 203.035 228.463 203.146C230.902 205.038 230.17 208.146 227.315 208.019C227.148 208.011 226.857 207.971 226.457 207.917C226.425 207.912 226.391 207.907 226.357 207.903C226.181 207.879 226.139 207.873 226.11 207.871C225.521 207.822 225.083 208.168 225.078 208.685C225.077 208.711 225.079 208.748 225.088 208.903C225.09 208.933 225.092 208.963 225.094 208.992C225.115 209.345 225.13 209.602 225.122 209.748C224.972 212.244 221.361 212.56 219.459 210.244C219.348 210.108 219.181 209.864 218.952 209.529C218.933 209.502 218.914 209.474 218.894 209.445C218.793 209.298 218.769 209.263 218.75 209.238C218.38 208.754 217.726 208.504 217.208 208.65C217.182 208.657 217.146 208.669 216.998 208.722C216.969 208.732 216.941 208.742 216.914 208.752C216.578 208.871 216.333 208.958 216.181 208.993C213.592 209.596 210.713 206.804 211.666 204.615C211.722 204.487 211.846 204.283 212.017 204.003C212.031 203.98 212.045 203.957 212.059 203.933C212.134 203.809 212.152 203.78 212.163 203.758C212.382 203.322 212.165 202.727 211.652 202.355C211.627 202.337 211.589 202.312 211.432 202.209C211.401 202.189 211.372 202.169 211.342 202.15C210.985 201.916 210.725 201.746 210.582 201.635C208.143 199.743 208.875 196.635 211.729 196.762C211.897 196.769 212.188 196.809 212.587 196.864C212.62 196.869 212.653 196.873 212.687 196.878C212.863 196.902 212.905 196.907 212.935 196.91C213.523 196.958 213.961 196.613 213.967 196.096C213.967 196.07 213.965 196.033 213.956 195.878C213.954 195.848 213.953 195.818 213.951 195.789C213.93 195.436 213.914 195.179 213.923 195.033ZM218.06 195.363C217.347 194.494 215.993 194.613 215.937 195.549C215.937 195.548 215.937 195.549 215.937 195.549C215.937 195.549 215.936 195.559 215.937 195.587C215.937 195.618 215.939 195.66 215.942 195.718C215.947 195.833 215.957 195.991 215.97 196.211C215.97 196.219 215.971 196.227 215.971 196.236C215.978 196.353 215.984 196.451 215.983 196.539C215.968 197.918 214.801 198.838 213.23 198.709C213.13 198.701 213.02 198.686 212.887 198.667C212.877 198.666 212.868 198.665 212.859 198.664C212.61 198.629 212.431 198.605 212.3 198.588C212.235 198.58 212.188 198.574 212.153 198.571C212.121 198.567 212.108 198.566 212.108 198.566C212.108 198.566 212.108 198.566 212.108 198.566C211.038 198.519 210.764 199.684 211.679 200.394C211.675 200.391 211.684 200.398 211.717 200.421C211.748 200.443 211.79 200.471 211.848 200.51C211.964 200.587 212.124 200.692 212.347 200.838C212.355 200.843 212.363 200.849 212.372 200.854C212.491 200.932 212.59 200.997 212.677 201.06C214.044 202.051 214.621 203.638 214.038 204.8C214.001 204.874 213.954 204.951 213.897 205.045C213.893 205.051 213.889 205.057 213.885 205.064C213.779 205.239 213.703 205.364 213.648 205.456C213.621 205.502 213.602 205.536 213.588 205.562C213.575 205.585 213.571 205.594 213.571 205.594C213.571 205.594 213.571 205.595 213.571 205.594C213.213 206.415 214.293 207.462 215.264 207.235C215.26 207.236 215.27 207.234 215.302 207.224C215.333 207.215 215.373 207.201 215.428 207.183C215.539 207.145 215.69 207.092 215.899 207.017L215.923 207.009C216.035 206.969 216.128 206.936 216.216 206.912C217.598 206.524 219.343 207.19 220.33 208.481C220.393 208.563 220.456 208.656 220.533 208.768L220.548 208.791C220.691 209 220.794 209.149 220.87 209.259C220.908 209.313 220.936 209.353 220.957 209.381C220.977 209.408 220.985 209.418 220.985 209.418C220.985 209.418 220.985 209.419 220.985 209.418C221.698 210.287 223.052 210.168 223.108 209.232C223.108 209.236 223.108 209.226 223.108 209.193C223.107 209.163 223.106 209.121 223.103 209.063C223.097 208.948 223.088 208.79 223.075 208.57L223.073 208.545C223.066 208.427 223.06 208.33 223.061 208.242C223.076 206.863 224.244 205.942 225.814 206.072C225.914 206.08 226.025 206.095 226.158 206.113C226.167 206.115 226.176 206.116 226.186 206.117C226.435 206.151 226.613 206.176 226.744 206.193C226.809 206.201 226.857 206.207 226.892 206.21C226.924 206.214 226.936 206.214 226.936 206.214C226.936 206.214 226.937 206.214 226.936 206.214C228.007 206.262 228.28 205.097 227.366 204.387C227.366 204.387 227.366 204.387 227.366 204.387C227.366 204.387 227.356 204.379 227.327 204.36C227.297 204.338 227.254 204.31 227.197 204.271C227.08 204.193 226.921 204.089 226.698 203.943L226.673 203.927C226.554 203.849 226.455 203.784 226.368 203.721C225 202.73 224.423 201.143 225.007 199.981C225.044 199.907 225.091 199.83 225.148 199.736L225.159 199.717C225.266 199.542 225.342 199.417 225.396 199.324C225.423 199.278 225.443 199.244 225.456 199.219C225.469 199.196 225.474 199.186 225.474 199.186C225.474 199.186 225.474 199.186 225.474 199.186C225.831 198.365 224.751 197.319 223.78 197.545C223.784 197.544 223.774 197.547 223.742 197.557C223.712 197.566 223.671 197.579 223.616 197.598C223.505 197.636 223.355 197.689 223.145 197.764L223.122 197.772C223.01 197.812 222.917 197.845 222.829 197.869C221.446 198.257 219.701 197.591 218.715 196.3C218.652 196.218 218.588 196.125 218.512 196.013L218.496 195.99C218.353 195.781 218.251 195.631 218.174 195.522C218.136 195.468 218.108 195.428 218.087 195.399C218.068 195.373 218.06 195.363 218.06 195.363C218.06 195.363 218.06 195.363 218.06 195.363Z" fill="#3A5A70"/>
<path fill-rule="evenodd" clip-rule="evenodd" d="M220.142 204.092C221.138 204.005 221.668 203.172 221.326 202.233C220.984 201.293 219.899 200.602 218.903 200.689C217.907 200.776 217.376 201.608 217.718 202.548C218.06 203.488 219.145 204.179 220.142 204.092ZM220.796 205.891C222.846 205.712 223.937 203.999 223.233 202.066C222.53 200.132 220.298 198.711 218.248 198.89C216.199 199.069 215.108 200.782 215.811 202.715C216.515 204.648 218.747 206.07 220.796 205.891Z" fill="#3A5A70"/>
</g>
<path d="M241.545 194.329L243.944 194.119L252.225 203.746L252.281 203.742L253.241 193.305L255.64 193.095L260.198 205.619L258.171 205.796L254.915 196.851L254.841 196.857L254.024 206.159L252.277 206.312L244.949 197.723L244.874 197.729L248.13 206.675L246.103 206.852L241.545 194.329ZM263.752 195.698C265.165 195.574 266.328 195.816 267.24 196.424C268.027 196.953 268.631 197.769 269.033 198.874L271.14 204.662L269.317 204.821L268.851 203.541C268.645 204.029 268.315 204.438 267.852 204.75C267.322 205.086 266.636 205.309 265.781 205.384C264.777 205.472 263.906 205.295 263.176 204.87C262.39 204.45 261.869 203.862 261.595 203.108C261.224 202.09 261.365 201.264 262.022 200.645C262.612 200.051 263.632 199.69 265.032 199.531L267.17 199.29L267.036 198.922C266.576 197.659 265.621 197.091 264.171 197.218C263.557 197.271 263.093 197.42 262.798 197.663C262.441 197.948 262.296 198.341 262.37 198.859L260.36 198.872C260.207 197.872 260.46 197.09 261.112 196.562C261.665 196.079 262.562 195.802 263.752 195.698ZM267.661 200.64L265.654 200.87C263.863 201.063 263.187 201.738 263.596 202.86C263.724 203.211 263.974 203.479 264.374 203.679C264.754 203.881 265.208 203.968 265.71 203.924C266.547 203.851 267.164 203.544 267.587 203.018C268.009 202.492 268.108 201.868 267.853 201.167L267.661 200.64ZM275.064 194.708C277.444 194.5 279.099 195.622 280.006 198.113L282.042 203.708L280.071 203.88L278.092 198.443C277.53 196.899 276.487 196.194 275 196.324C274.442 196.373 274.003 196.593 273.735 197.014C273.442 197.474 273.374 198.078 273.567 198.821L275.553 204.276L273.582 204.448L270.281 195.38L272.252 195.207L272.661 196.33C272.867 195.841 273.173 195.471 273.573 195.2C273.968 194.913 274.469 194.76 275.064 194.708ZM285.424 193.802C286.837 193.678 288 193.92 288.912 194.528C289.699 195.057 290.303 195.872 290.705 196.977L292.812 202.766L290.989 202.925L290.523 201.645C290.317 202.133 289.987 202.542 289.525 202.854C288.994 203.19 288.308 203.413 287.453 203.488C286.449 203.576 285.578 203.398 284.848 202.974C284.062 202.554 283.541 201.966 283.267 201.212C282.896 200.194 283.037 199.368 283.694 198.749C284.284 198.155 285.304 197.794 286.704 197.635L288.842 197.394L288.708 197.026C288.248 195.763 287.293 195.195 285.843 195.322C285.229 195.375 284.765 195.524 284.47 195.767C284.113 196.052 283.968 196.445 284.042 196.963L282.032 196.976C281.879 195.976 282.132 195.194 282.784 194.666C283.337 194.183 284.234 193.906 285.424 193.802ZM289.333 198.744L287.326 198.974C285.535 199.167 284.859 199.842 285.268 200.964C285.396 201.315 285.647 201.583 286.046 201.783C286.426 201.985 286.88 202.072 287.382 202.028C288.219 201.955 288.836 201.647 289.259 201.122C289.681 200.596 289.78 199.972 289.525 199.271L289.333 198.744ZM295.862 192.889C297.126 192.778 298.265 193.167 299.329 194.087L298.889 192.877L300.86 192.705L303.943 201.176C304.99 204.053 304.008 205.623 301.033 205.883C299.694 206 298.582 205.844 297.703 205.433C296.817 205.003 296.122 204.304 295.572 203.32L297.543 203.148C297.846 203.664 298.21 204.031 298.664 204.226C299.094 204.406 299.715 204.478 300.496 204.41C302.17 204.263 302.694 203.331 302.075 201.629L301.564 200.226C301.221 201.288 300.439 201.881 299.175 201.992C297.873 202.106 296.66 201.777 295.561 201.023C294.442 200.27 293.656 199.217 293.158 197.849C292.66 196.481 292.655 195.359 293.167 194.446C293.653 193.516 294.56 193.002 295.862 192.889ZM296.708 194.371C295.871 194.444 295.316 194.764 295.074 195.364C294.782 195.933 294.834 196.707 295.185 197.671C295.504 198.548 295.945 199.234 296.503 199.71C297.147 200.269 297.95 200.524 298.917 200.44C299.754 200.367 300.309 200.046 300.601 199.478C300.849 198.895 300.823 198.137 300.484 197.208C300.14 196.261 299.623 195.528 298.979 195.023C298.292 194.504 297.545 194.298 296.708 194.371ZM307.253 191.892C308.815 191.755 310.203 192.141 311.391 193.086C312.467 193.933 313.317 195.162 313.923 196.774L306.634 197.412C307.027 198.282 307.518 198.945 308.137 199.38C308.749 199.797 309.452 199.989 310.233 199.92C310.921 199.86 311.421 199.653 311.74 199.318C311.986 199.043 312.118 198.615 312.187 198.066L314.158 197.894C314.241 198.755 314.075 199.512 313.61 200.132C313.022 200.889 312.09 201.332 310.807 201.445C309.394 201.568 308.106 201.247 306.988 200.494C305.776 199.695 304.902 198.559 304.36 197.068C303.868 195.717 303.869 194.559 304.392 193.572C304.872 192.571 305.84 192.016 307.253 191.892ZM307.864 193.413C307.121 193.478 306.614 193.721 306.321 194.181C306.059 194.621 305.991 195.224 306.16 196.005L311.348 195.551C310.588 193.989 309.426 193.276 307.864 193.413ZM318.05 187.635L320.337 187.435L326.471 196.961L326.546 196.955L325.711 186.965L327.831 186.78L334.095 196.294L334.169 196.288L333.204 186.309L335.492 186.109L336.219 198.968L334.062 199.157L327.848 189.728L327.774 189.735L328.595 199.635L326.42 199.825L318.05 187.635ZM342.484 188.81C343.935 188.683 345.272 189.036 346.478 189.872C347.659 190.692 348.52 191.793 349.025 193.178C349.523 194.546 349.51 195.724 348.974 196.676C348.413 197.666 347.414 198.242 345.964 198.369C344.513 198.496 343.169 198.125 341.945 197.291C340.77 196.488 339.928 195.386 339.43 194.018C338.925 192.632 338.938 191.455 339.487 190.484C340.029 189.495 341.034 188.936 342.484 188.81ZM343.04 190.336C342.129 190.415 341.543 190.81 341.29 191.538C341.055 192.156 341.125 192.928 341.457 193.84C341.789 194.752 342.261 195.471 342.918 196.011C343.663 196.634 344.497 196.923 345.408 196.843C346.319 196.763 346.898 196.351 347.176 195.638C347.406 195.003 347.361 194.247 347.035 193.352C346.703 192.44 346.205 191.706 345.548 191.166C344.779 190.527 343.951 190.256 343.04 190.336ZM353.802 187.819C354.286 187.777 354.739 187.81 355.131 187.938L355.808 189.798C355.273 189.7 354.789 189.688 354.343 189.727C353.748 189.779 353.292 190.054 352.993 190.551C352.67 191.086 352.664 191.756 352.952 192.545L354.701 197.351L352.73 197.523L349.429 188.455L351.4 188.283L351.898 189.651C351.961 189.139 352.143 188.743 352.426 188.465C352.744 188.075 353.207 187.871 353.802 187.819ZM355.187 184.133L357.158 183.96L359.864 191.397L362.67 187.297L365.217 187.074L362.319 191.183L368.89 196.11L366.361 196.331L361.396 192.494L360.65 193.555L361.805 196.729L359.834 196.902L355.187 184.133ZM370.388 186.368C372.879 186.15 374.6 186.977 375.519 188.869L373.604 189.037C373.276 188.559 372.932 188.245 372.546 188.08C372.134 187.899 371.575 187.839 370.906 187.898C370.311 187.95 369.89 188.059 369.657 188.26C369.367 188.467 369.302 188.762 369.43 189.113C369.545 189.428 369.901 189.669 370.504 189.851C370.89 189.962 371.586 190.082 372.636 190.226C373.822 190.375 374.749 190.602 375.385 190.872C376.313 191.261 376.933 191.859 377.227 192.665C377.923 194.577 376.842 195.667 373.997 195.916C371.357 196.147 369.554 195.201 368.565 193.116L370.499 192.946C370.834 193.551 371.235 193.968 371.659 194.184C372.077 194.383 372.642 194.46 373.386 194.395C374.911 194.262 375.539 193.772 375.245 192.966C375.085 192.527 374.66 192.202 374.013 192.006C373.664 191.891 372.95 191.773 371.888 191.649C370.664 191.502 369.769 191.309 369.22 191.067C368.317 190.694 367.721 190.113 367.441 189.341C367.14 188.517 367.258 187.837 367.817 187.317C368.37 186.78 369.235 186.469 370.388 186.368ZM381.461 185.4C382.875 185.276 384.144 185.653 385.307 186.529C386.37 187.341 387.15 188.431 387.661 189.834C388.146 191.167 388.177 192.305 387.771 193.245C387.334 194.261 386.41 194.83 385.034 194.951C383.844 195.055 382.685 194.613 381.521 193.629L383.27 198.435L381.299 198.607L376.735 186.066L378.576 185.905L378.971 186.993C379.315 186.04 380.16 185.513 381.461 185.4ZM381.713 186.934C380.858 187.009 380.303 187.383 380.074 188.073C379.87 188.67 379.94 189.442 380.278 190.372L380.335 190.529C380.687 191.494 381.216 192.262 381.953 192.813C382.597 193.318 383.295 193.546 384.038 193.481C385.005 193.397 385.603 193.037 385.851 192.4C386.056 191.803 385.998 191.011 385.634 190.012C385.27 189.012 384.785 188.258 384.209 187.729C383.501 187.103 382.68 186.849 381.713 186.934ZM392.277 184.453C393.69 184.33 394.853 184.572 395.765 185.18C396.552 185.708 397.156 186.524 397.558 187.629L399.665 193.417L397.842 193.577L397.376 192.296C397.171 192.785 396.84 193.194 396.378 193.506C395.848 193.842 395.161 194.065 394.306 194.139C393.302 194.227 392.431 194.05 391.701 193.625C390.915 193.205 390.394 192.617 390.12 191.863C389.75 190.846 389.89 190.019 390.547 189.401C391.137 188.806 392.157 188.445 393.557 188.287L395.695 188.045L395.561 187.677C395.101 186.414 394.146 185.846 392.696 185.973C392.082 186.027 391.619 186.176 391.323 186.419C390.966 186.704 390.821 187.096 390.895 187.615L388.885 187.628C388.732 186.628 388.985 185.845 389.637 185.318C390.19 184.835 391.087 184.557 392.277 184.453ZM396.187 189.396L394.179 189.626C392.388 189.819 391.713 190.493 392.121 191.616C392.249 191.967 392.5 192.234 392.899 192.435C393.279 192.637 393.733 192.724 394.235 192.68C395.072 192.606 395.689 192.299 396.112 191.773C396.534 191.248 396.633 190.624 396.378 189.922L396.187 189.396ZM402.994 183.516C404.221 183.408 405.302 183.585 406.238 184.046C407.186 184.543 407.975 185.342 408.57 186.448L406.618 186.619C406.264 186.017 405.838 185.583 405.326 185.339C404.809 185.076 404.219 184.983 403.549 185.042C402.731 185.113 402.201 185.449 401.947 186.069C401.668 186.672 401.738 187.499 402.108 188.516C402.479 189.533 402.995 190.321 403.671 190.859C404.303 191.383 405.044 191.625 405.899 191.551C407.368 191.422 407.931 190.649 407.619 189.265L409.571 189.094C409.789 190.323 409.618 191.279 409.092 191.941C408.559 192.585 407.663 192.971 406.436 193.078C404.967 193.207 403.667 192.85 402.516 192.009C401.398 191.202 400.599 190.114 400.088 188.711C399.59 187.343 399.572 186.186 400.034 185.241C400.526 184.22 401.506 183.646 402.994 183.516ZM413.344 182.61C414.906 182.474 416.293 182.859 417.482 183.805C418.557 184.652 419.407 185.88 420.013 187.492L412.724 188.13C413.118 189.001 413.609 189.663 414.227 190.098C414.839 190.515 415.542 190.707 416.323 190.639C417.011 190.578 417.512 190.372 417.831 190.036C418.076 189.761 418.208 189.333 418.277 188.784L420.248 188.612C420.331 189.473 420.166 190.23 419.7 190.85C419.113 191.607 418.18 192.051 416.897 192.163C415.484 192.287 414.197 191.965 413.079 191.212C411.867 190.413 410.993 189.277 410.45 187.786C409.959 186.436 409.959 185.277 410.482 184.29C410.962 183.289 411.931 182.734 413.344 182.61ZM413.955 184.131C413.211 184.196 412.705 184.44 412.412 184.9C412.15 185.339 412.081 185.942 412.251 186.724L417.439 186.27C416.678 184.707 415.517 183.995 413.955 184.131Z" fill="black"/>
<rect width="318.75" height="45.2297" rx="5.74325" transform="matrix(0.996195 -0.0871557 0.34202 0.939693 214.021 235.937)" fill="#DDE8F5" fill-opacity="0.5"/>
<circle cx="5.74325" cy="5.74325" r="5.74325" transform="matrix(0.996195 -0.0871557 0.34202 0.939693 231.252 250.788)" fill="#47C8BF"/>
<path d="M260.943 247.625L266.447 247.143C269.608 246.866 271.649 247.991 272.574 250.534C273.506 253.095 272.373 254.515 269.194 254.794L265.754 255.095L267.528 259.971L265.502 260.148L260.943 247.625ZM263.564 249.078L265.16 253.463L268.47 253.174C269.474 253.086 270.135 252.847 270.472 252.456C270.791 252.066 270.828 251.483 270.548 250.712C270.267 249.94 269.821 249.4 269.241 249.125C268.648 248.815 267.859 248.703 266.874 248.789L263.564 249.078ZM278.128 249.433C279.69 249.296 281.077 249.682 282.266 250.628C283.342 251.475 284.192 252.703 284.798 254.315L277.509 254.953C277.902 255.823 278.393 256.486 279.011 256.921C279.624 257.338 280.327 257.53 281.108 257.461C281.796 257.401 282.296 257.195 282.615 256.859C282.86 256.584 282.993 256.156 283.061 255.607L285.032 255.435C285.116 256.296 284.95 257.053 284.485 257.673C283.897 258.43 282.965 258.874 281.682 258.986C280.268 259.109 278.981 258.788 277.863 258.035C276.651 257.236 275.777 256.1 275.234 254.609C274.743 253.258 274.743 252.1 275.267 251.113C275.747 250.112 276.715 249.557 278.128 249.433ZM278.739 250.954C277.995 251.019 277.489 251.263 277.196 251.723C276.934 252.162 276.866 252.765 277.035 253.547L282.223 253.093C281.462 251.53 280.301 250.818 278.739 250.954ZM289.014 248.481C289.498 248.438 289.951 248.471 290.343 248.6L291.02 250.459C290.485 250.361 290.001 250.349 289.555 250.388C288.96 250.44 288.504 250.715 288.205 251.212C287.881 251.747 287.876 252.417 288.163 253.206L289.912 258.012L287.941 258.185L284.641 249.117L286.612 248.944L287.11 250.312C287.173 249.8 287.355 249.404 287.637 249.126C287.956 248.736 288.419 248.533 289.014 248.481ZM295.059 247.952C297.55 247.734 299.271 248.561 300.19 250.453L298.275 250.62C297.947 250.142 297.603 249.829 297.217 249.663C296.805 249.482 296.246 249.422 295.577 249.481C294.982 249.533 294.561 249.642 294.328 249.844C294.038 250.05 293.973 250.345 294.101 250.696C294.215 251.012 294.572 251.252 295.175 251.435C295.561 251.546 296.257 251.666 297.307 251.809C298.493 251.959 299.42 252.185 300.056 252.456C300.984 252.845 301.604 253.442 301.898 254.249C302.594 256.161 301.513 257.251 298.668 257.5C296.028 257.731 294.225 256.784 293.236 254.699L295.17 254.53C295.505 255.134 295.906 255.551 296.33 255.768C296.748 255.966 297.313 256.044 298.057 255.979C299.582 255.845 300.209 255.356 299.916 254.549C299.756 254.111 299.331 253.786 298.684 253.589C298.335 253.475 297.621 253.356 296.558 253.232C295.335 253.086 294.44 252.893 293.891 252.651C292.988 252.278 292.392 251.696 292.111 250.924C291.811 250.1 291.929 249.42 292.488 248.901C293.041 248.364 293.906 248.053 295.059 247.952ZM305.556 247.033C307.006 246.907 308.344 247.26 309.55 248.096C310.731 248.915 311.592 250.016 312.096 251.402C312.594 252.77 312.581 253.948 312.045 254.9C311.485 255.89 310.486 256.466 309.035 256.593C307.585 256.72 306.241 256.348 305.017 255.514C303.842 254.712 302.999 253.61 302.501 252.242C301.997 250.856 302.01 249.678 302.558 248.707C303.1 247.719 304.106 247.16 305.556 247.033ZM306.111 248.559C305.2 248.639 304.615 249.034 304.362 249.762C304.126 250.38 304.196 251.152 304.528 252.064C304.86 252.976 305.333 253.695 305.99 254.235C306.734 254.857 307.569 255.146 308.48 255.067C309.391 254.987 309.97 254.574 310.248 253.862C310.477 253.227 310.432 252.471 310.107 251.576C309.775 250.664 309.277 249.929 308.62 249.39C307.85 248.751 307.022 248.48 306.111 248.559ZM317.097 246.024C319.477 245.815 321.133 246.938 322.039 249.428L324.076 255.023L322.105 255.196L320.126 249.758C319.564 248.215 318.521 247.51 317.033 247.64C316.475 247.689 316.037 247.908 315.768 248.33C315.475 248.79 315.407 249.393 315.601 250.136L317.586 255.591L315.615 255.764L312.315 246.695L314.286 246.523L314.694 247.646C314.9 247.157 315.207 246.786 315.607 246.516C316.001 246.228 316.502 246.076 317.097 246.024ZM327.272 245.134C328.685 245.01 329.847 245.252 330.759 245.86C331.546 246.388 332.15 247.204 332.553 248.309L334.659 254.097L332.837 254.257L332.371 252.976C332.165 253.465 331.834 253.874 331.372 254.186C330.842 254.522 330.156 254.745 329.3 254.82C328.296 254.908 327.426 254.73 326.696 254.306C325.91 253.886 325.389 253.298 325.114 252.544C324.744 251.526 324.885 250.7 325.542 250.081C326.131 249.486 327.151 249.126 328.552 248.967L330.69 248.726L330.555 248.357C330.096 247.094 329.141 246.526 327.69 246.653C327.077 246.707 326.613 246.856 326.318 247.099C325.961 247.384 325.816 247.777 325.89 248.295L323.88 248.308C323.727 247.308 323.979 246.526 324.631 245.998C325.185 245.515 326.082 245.238 327.272 245.134ZM331.181 250.076L329.173 250.306C327.383 250.499 326.707 251.174 327.116 252.296C327.243 252.647 327.494 252.914 327.893 253.115C328.274 253.317 328.728 253.404 329.23 253.36C330.066 253.287 330.684 252.979 331.106 252.454C331.529 251.928 331.628 251.304 331.373 250.602L331.181 250.076ZM332.491 241.112L334.462 240.939L339.11 253.708L337.139 253.881L332.491 241.112ZM342.175 240.518L344.462 240.318L350.597 249.844L350.671 249.837L349.836 239.847L351.956 239.662L358.22 249.177L358.295 249.17L357.33 239.192L359.617 238.992L360.345 251.85L358.188 252.039L351.974 242.61L351.9 242.617L352.721 252.517L350.545 252.708L342.175 240.518ZM366.424 241.708C367.874 241.581 369.212 241.935 370.418 242.77C371.599 243.59 372.46 244.691 372.964 246.077C373.462 247.445 373.449 248.622 372.913 249.574C372.353 250.564 371.354 251.141 369.903 251.267C368.453 251.394 367.109 251.023 365.885 250.189C364.71 249.387 363.867 248.284 363.369 246.916C362.865 245.531 362.878 244.353 363.426 243.382C363.968 242.394 364.974 241.835 366.424 241.708ZM366.979 243.234C366.068 243.314 365.483 243.709 365.23 244.437C364.994 245.055 365.064 245.827 365.396 246.739C365.728 247.651 366.201 248.37 366.858 248.91C367.602 249.532 368.437 249.821 369.348 249.741C370.259 249.662 370.838 249.249 371.116 248.537C371.345 247.902 371.3 247.145 370.975 246.251C370.643 245.339 370.145 244.604 369.488 244.064C368.718 243.426 367.89 243.154 366.979 243.234ZM377.556 240.734C378.04 240.692 378.493 240.725 378.885 240.853L379.562 242.712C379.027 242.614 378.543 242.603 378.097 242.642C377.502 242.694 377.046 242.969 376.747 243.466C376.423 244.001 376.418 244.671 376.705 245.46L378.454 250.266L376.483 250.438L373.183 241.37L375.154 241.198L375.652 242.566C375.715 242.054 375.897 241.658 376.179 241.38C376.498 240.99 376.961 240.786 377.556 240.734ZM378.754 237.064L380.725 236.892L383.432 244.328L386.237 240.228L388.785 240.005L385.887 244.114L392.457 249.041L389.928 249.262L384.963 245.425L384.217 246.486L385.373 249.661L383.402 249.833L378.754 237.064ZM393.77 239.316C396.261 239.098 397.982 239.925 398.901 241.817L396.986 241.984C396.658 241.506 396.314 241.193 395.927 241.027C395.516 240.846 394.957 240.786 394.288 240.845C393.693 240.897 393.272 241.006 393.038 241.208C392.749 241.414 392.684 241.709 392.811 242.06C392.926 242.376 393.282 242.616 393.886 242.799C394.272 242.91 394.968 243.03 396.018 243.173C397.204 243.323 398.131 243.549 398.766 243.819C399.695 244.209 400.315 244.806 400.609 245.613C401.305 247.525 400.224 248.615 397.379 248.864C394.739 249.095 392.936 248.148 391.947 246.063L393.881 245.894C394.216 246.498 394.617 246.915 395.041 247.132C395.459 247.33 396.024 247.408 396.768 247.343C398.293 247.209 398.92 246.72 398.627 245.913C398.467 245.474 398.042 245.15 397.395 244.953C397.046 244.839 396.331 244.72 395.269 244.596C394.046 244.45 393.15 244.256 392.602 244.015C391.698 243.641 391.103 243.06 390.822 242.288C390.522 241.464 390.639 240.784 391.199 240.265C391.751 239.728 392.617 239.417 393.77 239.316ZM404.657 238.363C406.07 238.24 407.34 238.617 408.503 239.493C409.566 240.305 410.346 241.395 410.857 242.798C411.342 244.131 411.372 245.268 410.966 246.209C410.53 247.224 409.605 247.794 408.229 247.914C407.039 248.018 405.881 247.577 404.717 246.593L406.466 251.399L404.495 251.571L399.931 239.03L401.771 238.869L402.167 239.957C402.511 239.003 403.356 238.477 404.657 238.363ZM404.909 239.898C404.053 239.972 403.499 240.347 403.27 241.036C403.065 241.633 403.135 242.406 403.474 243.335L403.531 243.493C403.882 244.458 404.411 245.226 405.149 245.777C405.793 246.281 406.49 246.51 407.234 246.445C408.201 246.36 408.799 246 409.047 245.363C409.252 244.766 409.194 243.975 408.83 242.975C408.466 241.975 407.981 241.222 407.405 240.693C406.697 240.067 405.876 239.813 404.909 239.898ZM415.287 237.433C416.7 237.31 417.863 237.552 418.775 238.16C419.562 238.688 420.166 239.504 420.568 240.609L422.675 246.397L420.852 246.557L420.386 245.276C420.18 245.765 419.85 246.174 419.388 246.486C418.857 246.822 418.171 247.045 417.316 247.119C416.312 247.207 415.441 247.03 414.711 246.605C413.925 246.185 413.404 245.597 413.13 244.843C412.759 243.826 412.9 242.999 413.557 242.381C414.147 241.786 415.167 241.425 416.567 241.267L418.705 241.025L418.571 240.657C418.111 239.394 417.156 238.826 415.706 238.953C415.092 239.007 414.628 239.156 414.333 239.399C413.976 239.684 413.831 240.076 413.905 240.595L411.895 240.608C411.742 239.607 411.995 238.825 412.647 238.298C413.2 237.815 414.097 237.537 415.287 237.433ZM419.196 242.376L417.189 242.606C415.398 242.799 414.722 243.473 415.131 244.596C415.259 244.947 415.51 245.214 415.909 245.415C416.289 245.617 416.743 245.703 417.245 245.66C418.082 245.586 418.699 245.279 419.122 244.753C419.544 244.228 419.643 243.604 419.388 242.902L419.196 242.376ZM425.818 236.512C427.045 236.405 428.126 236.581 429.061 237.043C430.009 237.539 430.799 238.338 431.394 239.445L429.441 239.615C429.088 239.013 428.662 238.58 428.15 238.335C427.633 238.072 427.042 237.979 426.373 238.038C425.555 238.109 425.025 238.445 424.771 239.065C424.491 239.668 424.562 240.495 424.932 241.512C425.303 242.529 425.819 243.317 426.495 243.855C427.127 244.379 427.868 244.622 428.723 244.547C430.192 244.418 430.755 243.645 430.443 242.261L432.395 242.09C432.612 243.32 432.442 244.276 431.916 244.937C431.383 245.581 430.487 245.967 429.26 246.074C427.791 246.203 426.49 245.846 425.34 245.006C424.222 244.199 423.423 243.11 422.912 241.707C422.414 240.339 422.396 239.182 422.858 238.237C423.35 237.216 424.33 236.642 425.818 236.512ZM435.982 235.623C437.544 235.486 438.931 235.871 440.119 236.817C441.195 237.664 442.045 238.893 442.651 240.505L435.362 241.143C435.756 242.013 436.247 242.676 436.865 243.111C437.477 243.527 438.18 243.719 438.961 243.651C439.649 243.591 440.15 243.384 440.469 243.049C440.714 242.774 440.846 242.346 440.915 241.797L442.886 241.625C442.969 242.486 442.803 243.243 442.338 243.862C441.751 244.62 440.818 245.063 439.535 245.175C438.122 245.299 436.835 244.977 435.716 244.225C434.505 243.426 433.631 242.289 433.088 240.799C432.597 239.448 432.597 238.29 433.12 237.303C433.6 236.302 434.569 235.746 435.982 235.623ZM436.593 237.144C435.849 237.209 435.343 237.452 435.05 237.912C434.788 238.351 434.719 238.955 434.889 239.736L440.077 239.282C439.316 237.72 438.155 237.007 436.593 237.144Z" fill="black"/>
<circle cx="5.74325" cy="5.74325" r="5.74325" transform="matrix(0.996195 -0.0871557 0.34202 0.939693 247.702 295.989)" fill="#ADC1CF" fill-opacity="0.5"/>
<path d="M277.395 292.825L282.899 292.343C286.06 292.067 288.1 293.191 289.026 295.734C289.958 298.295 288.824 299.716 285.645 299.994L282.205 300.295L283.98 305.171L281.953 305.348L277.395 292.825ZM280.015 294.279L281.611 298.664L284.921 298.374C285.925 298.286 286.586 298.047 286.924 297.656C287.242 297.266 287.28 296.684 286.999 295.912C286.718 295.14 286.272 294.6 285.692 294.325C285.099 294.015 284.31 293.903 283.325 293.989L280.015 294.279ZM294.97 294.599C295.453 294.557 295.906 294.59 296.298 294.718L296.975 296.577C296.441 296.479 295.957 296.467 295.51 296.506C294.915 296.558 294.459 296.834 294.16 297.33C293.837 297.865 293.831 298.536 294.119 299.325L295.868 304.131L293.897 304.303L290.596 295.235L292.567 295.063L293.065 296.431C293.128 295.918 293.31 295.523 293.593 295.244C293.911 294.855 294.375 294.651 294.97 294.599ZM301.851 293.997C303.301 293.87 304.639 294.224 305.845 295.059C307.026 295.879 307.887 296.98 308.391 298.366C308.889 299.734 308.876 300.911 308.34 301.863C307.78 302.853 306.781 303.429 305.33 303.556C303.88 303.683 302.536 303.312 301.312 302.478C300.137 301.676 299.294 300.573 298.796 299.205C298.292 297.82 298.305 296.642 298.853 295.671C299.395 294.682 300.401 294.124 301.851 293.997ZM302.406 295.523C301.495 295.603 300.91 295.998 300.657 296.726C300.421 297.344 300.491 298.116 300.823 299.028C301.155 299.94 301.628 300.659 302.285 301.198C303.029 301.821 303.864 302.11 304.775 302.03C305.686 301.951 306.265 301.538 306.543 300.826C306.772 300.191 306.727 299.434 306.402 298.54C306.07 297.628 305.572 296.893 304.915 296.353C304.145 295.715 303.317 295.443 302.406 295.523ZM308.739 289.901C309.129 289.867 309.502 289.943 309.852 290.166C310.195 290.371 310.434 290.658 310.568 291.026C310.702 291.395 310.68 291.704 310.509 291.973C310.313 292.225 310.023 292.377 309.652 292.41C309.28 292.442 308.919 292.347 308.576 292.142C308.207 291.921 307.962 291.616 307.835 291.266C307.7 290.897 307.722 290.588 307.918 290.335C308.089 290.067 308.367 289.934 308.739 289.901ZM309.075 293.618L311.046 293.446L314.665 303.391C315.291 305.11 314.625 306.073 312.691 306.242L311.78 306.322L311.224 304.796L311.968 304.731C312.712 304.666 312.943 304.248 312.669 303.493L309.075 293.618ZM317.695 292.611C319.257 292.474 320.645 292.86 321.833 293.805C322.909 294.652 323.759 295.881 324.365 297.493L317.076 298.131C317.469 299.001 317.96 299.664 318.579 300.099C319.191 300.516 319.894 300.708 320.675 300.639C321.363 300.579 321.863 300.372 322.182 300.037C322.428 299.762 322.56 299.334 322.629 298.785L324.6 298.613C324.683 299.474 324.517 300.231 324.052 300.851C323.464 301.608 322.532 302.051 321.249 302.164C319.836 302.287 318.548 301.966 317.43 301.213C316.218 300.414 315.344 299.278 314.802 297.787C314.31 296.436 314.311 295.278 314.834 294.291C315.314 293.29 316.282 292.735 317.695 292.611ZM318.306 294.132C317.563 294.197 317.056 294.44 316.763 294.9C316.501 295.34 316.433 295.943 316.602 296.724L321.79 296.27C321.03 294.708 319.868 293.995 318.306 294.132ZM328.395 291.675C329.623 291.567 330.704 291.744 331.639 292.205C332.587 292.702 333.377 293.501 333.972 294.607L332.019 294.778C331.666 294.176 331.239 293.743 330.728 293.498C330.211 293.235 329.62 293.142 328.951 293.201C328.133 293.272 327.603 293.608 327.348 294.228C327.069 294.831 327.14 295.658 327.51 296.675C327.88 297.692 328.397 298.48 329.073 299.018C329.705 299.542 330.445 299.784 331.301 299.71C332.77 299.581 333.333 298.808 333.021 297.424L334.973 297.253C335.19 298.482 335.02 299.438 334.494 300.1C333.96 300.744 333.065 301.13 331.838 301.237C330.369 301.366 329.068 301.009 327.918 300.168C326.799 299.361 326 298.273 325.49 296.87C324.992 295.502 324.974 294.345 325.435 293.4C325.927 292.379 326.908 291.805 328.395 291.675ZM336.43 288.203L337.496 291.132L339.69 290.94L340.252 292.483L338.058 292.675L339.973 297.937C340.062 298.183 340.182 298.353 340.338 298.466C340.488 298.562 340.681 298.617 340.923 298.596L342.187 298.486L342.749 300.029L341.169 300.167C340.35 300.239 339.66 300.082 339.141 299.711C338.629 299.358 338.264 298.829 338.002 298.11L336.087 292.848L334.302 293.004L333.74 291.461L335.525 291.304L334.74 289.147L336.43 288.203ZM350.21 286.454L352.515 286.252L362.187 298.329L360.011 298.519L357.591 295.401L351.882 295.9L351.811 299.236L349.654 299.425L350.21 286.454ZM351.921 294.268L356.403 293.876L352.147 288.402L352.072 288.409L351.921 294.268Z" fill="black"/>
<circle cx="5.74325" cy="5.74325" r="5.74325" transform="matrix(0.996195 -0.0871557 0.34202 0.939693 264.154 341.189)" fill="#ADC1CF" fill-opacity="0.5"/>
<path d="M293.847 338.025L298.681 337.602C300.82 337.415 302.642 337.835 304.172 338.878C305.597 339.839 306.673 341.319 307.394 343.301C308.109 345.266 308.125 346.839 307.461 348.019C306.754 349.239 305.341 349.942 303.202 350.129L298.405 350.549L293.847 338.025ZM296.467 339.479L299.838 348.74L302.237 348.53C303.91 348.384 305.016 347.889 305.522 347.067C306.01 346.246 305.979 345.054 305.405 343.475C304.817 341.862 304.005 340.738 302.993 340.067C301.938 339.381 300.577 339.12 298.903 339.266L296.467 339.479ZM312.23 339.729C313.792 339.592 315.179 339.978 316.368 340.924C317.443 341.771 318.293 342.999 318.899 344.611L311.61 345.249C312.004 346.119 312.495 346.782 313.113 347.217C313.725 347.634 314.428 347.826 315.209 347.757C315.897 347.697 316.398 347.491 316.717 347.155C316.962 346.88 317.094 346.452 317.163 345.903L319.134 345.731C319.217 346.592 319.052 347.349 318.586 347.969C317.999 348.726 317.066 349.17 315.783 349.282C314.37 349.405 313.083 349.084 311.965 348.331C310.753 347.532 309.879 346.396 309.336 344.905C308.845 343.554 308.845 342.396 309.369 341.409C309.848 340.408 310.817 339.853 312.23 339.729ZM312.841 341.25C312.097 341.315 311.591 341.559 311.298 342.019C311.036 342.458 310.967 343.061 311.137 343.843L316.325 343.389C315.564 341.826 314.403 341.114 312.841 341.25ZM317.72 339.502L319.858 339.315L324.734 345.856L324.693 338.892L326.831 338.705L326.562 348.085L324.591 348.258L317.72 339.502ZM332.023 337.997C333.585 337.861 334.972 338.246 336.161 339.192C337.236 340.039 338.086 341.268 338.692 342.88L331.403 343.517C331.797 344.388 332.288 345.051 332.906 345.485C333.518 345.902 334.221 346.094 335.002 346.026C335.69 345.966 336.191 345.759 336.51 345.423C336.755 345.149 336.887 344.721 336.956 344.172L338.927 343.999C339.01 344.861 338.845 345.617 338.379 346.237C337.792 346.994 336.859 347.438 335.576 347.55C334.163 347.674 332.876 347.352 331.758 346.599C330.546 345.8 329.672 344.664 329.129 343.173C328.638 341.823 328.638 340.664 329.162 339.678C329.641 338.676 330.61 338.121 332.023 337.997ZM332.634 339.519C331.89 339.584 331.384 339.827 331.091 340.287C330.829 340.726 330.76 341.329 330.93 342.111L336.118 341.657C335.357 340.095 334.196 339.382 332.634 339.519ZM337.412 333.961L339.383 333.788L344.03 346.557L342.059 346.73L337.412 333.961ZM347.52 336.642C348.971 336.515 350.308 336.868 351.514 337.704C352.695 338.524 353.556 339.625 354.061 341.01C354.559 342.378 354.546 343.556 354.01 344.508C353.449 345.498 352.45 346.074 351 346.201C349.549 346.328 348.206 345.957 346.981 345.123C345.806 344.32 344.964 343.218 344.466 341.85C343.962 340.464 343.974 339.287 344.523 338.316C345.065 337.327 346.07 336.768 347.52 336.642ZM348.076 338.168C347.165 338.247 346.579 338.642 346.326 339.37C346.091 339.988 346.161 340.76 346.493 341.672C346.825 342.584 347.297 343.303 347.954 343.843C348.699 344.466 349.533 344.755 350.444 344.675C351.355 344.595 351.934 344.182 352.212 343.47C352.442 342.835 352.397 342.079 352.071 341.184C351.739 340.272 351.241 339.538 350.585 338.998C349.815 338.359 348.987 338.088 348.076 338.168ZM359.006 335.637C360.419 335.513 361.689 335.891 362.851 336.766C363.914 337.578 364.695 338.668 365.206 340.071C365.691 341.404 365.721 342.542 365.315 343.482C364.879 344.498 363.954 345.067 362.578 345.188C361.388 345.292 360.23 344.85 359.066 343.866L360.815 348.672L358.844 348.845L354.279 336.304L356.12 336.143L356.516 337.23C356.86 336.277 357.704 335.751 359.006 335.637ZM359.257 337.171C358.402 337.246 357.848 337.62 357.619 338.31C357.414 338.907 357.484 339.679 357.822 340.609L357.88 340.767C358.231 341.731 358.76 342.499 359.498 343.05C360.142 343.555 360.839 343.784 361.583 343.718C362.55 343.634 363.148 343.274 363.396 342.637C363.6 342.04 363.543 341.248 363.179 340.249C362.815 339.249 362.329 338.495 361.753 337.966C361.046 337.34 360.224 337.087 359.257 337.171ZM369.915 334.682C371.328 334.559 372.536 334.978 373.501 335.943C373.724 335.344 374.042 334.9 374.443 334.63C374.806 334.363 375.307 334.211 375.958 334.154C376.943 334.067 377.87 334.294 378.751 334.868C379.606 335.427 380.235 336.205 380.605 337.222L382.769 343.168L380.798 343.34L378.749 337.71C378.481 336.973 378.115 336.444 377.659 336.14C377.197 335.819 376.582 335.71 375.838 335.775C375.28 335.824 374.904 336.056 374.673 336.474C374.441 336.892 374.453 337.452 374.696 338.119L376.726 343.697L374.755 343.869L372.712 338.256C372.188 336.818 371.264 336.175 369.962 336.289C369.33 336.344 368.892 336.618 368.686 337.106C368.437 337.581 368.449 338.141 368.679 338.772L370.664 344.227L368.693 344.399L365.392 335.331L367.363 335.159L367.727 336.159C368.202 335.248 368.948 334.767 369.915 334.682ZM385.682 333.303C387.244 333.166 388.631 333.552 389.82 334.497C390.895 335.344 391.745 336.573 392.351 338.185L385.062 338.823C385.456 339.693 385.947 340.356 386.565 340.791C387.177 341.208 387.88 341.4 388.661 341.331C389.349 341.271 389.85 341.064 390.169 340.729C390.414 340.454 390.546 340.026 390.615 339.477L392.586 339.305C392.669 340.166 392.504 340.923 392.038 341.543C391.451 342.3 390.518 342.743 389.235 342.856C387.822 342.979 386.535 342.658 385.417 341.905C384.205 341.106 383.331 339.97 382.788 338.479C382.297 337.128 382.297 335.97 382.821 334.983C383.3 333.982 384.269 333.427 385.682 333.303ZM386.293 334.824C385.549 334.889 385.043 335.132 384.75 335.592C384.488 336.032 384.419 336.635 384.589 337.416L389.777 336.962C389.016 335.4 387.855 334.687 386.293 334.824ZM396.977 332.315C399.357 332.106 401.013 333.228 401.919 335.719L403.956 341.314L401.985 341.487L400.006 336.049C399.444 334.506 398.401 333.801 396.913 333.931C396.355 333.98 395.917 334.199 395.648 334.621C395.355 335.081 395.287 335.684 395.481 336.427L397.466 341.882L395.495 342.055L392.195 332.986L394.166 332.814L394.574 333.937C394.78 333.448 395.087 333.077 395.487 332.807C395.881 332.519 396.382 332.367 396.977 332.315ZM404.762 328.865L405.828 331.794L408.022 331.602L408.584 333.145L406.389 333.337L408.305 338.599C408.394 338.845 408.514 339.015 408.67 339.128C408.82 339.224 409.013 339.279 409.254 339.258L410.519 339.148L411.081 340.691L409.5 340.829C408.682 340.901 407.992 340.744 407.473 340.373C406.961 340.02 406.595 339.491 406.334 338.772L404.418 333.51L402.633 333.666L402.072 332.122L403.857 331.966L403.071 329.809L404.762 328.865Z" fill="black"/>
<circle cx="5.74325" cy="5.74325" r="5.74325" transform="matrix(0.996195 -0.0871557 0.34202 0.939693 280.605 386.39)" fill="#ADC1CF" fill-opacity="0.5"/>
<path d="M309.275 383.315L320.153 382.363L320.747 383.995L316.321 384.382L320.286 395.274L318.278 395.45L314.313 384.557L309.869 384.946L309.275 383.315ZM326.811 385.093C328.373 384.956 329.76 385.342 330.948 386.287C332.024 387.134 332.874 388.363 333.48 389.975L326.191 390.613C326.585 391.483 327.075 392.146 327.694 392.581C328.306 392.998 329.009 393.19 329.79 393.121C330.478 393.061 330.979 392.854 331.298 392.519C331.543 392.244 331.675 391.816 331.744 391.267L333.715 391.095C333.798 391.956 333.632 392.713 333.167 393.333C332.579 394.09 331.647 394.533 330.364 394.646C328.951 394.769 327.664 394.448 326.545 393.695C325.334 392.896 324.46 391.76 323.917 390.269C323.425 388.918 323.426 387.76 323.949 386.773C324.429 385.772 325.397 385.217 326.811 385.093ZM327.422 386.614C326.678 386.679 326.172 386.922 325.879 387.382C325.617 387.822 325.548 388.425 325.718 389.206L330.905 388.753C330.145 387.19 328.984 386.477 327.422 386.614ZM336.823 384.217C339.315 383.999 341.035 384.826 341.954 386.718L340.039 386.886C339.712 386.408 339.367 386.094 338.981 385.929C338.569 385.747 338.011 385.688 337.341 385.746C336.746 385.798 336.325 385.907 336.092 386.109C335.802 386.315 335.737 386.61 335.865 386.961C335.98 387.277 336.336 387.517 336.939 387.7C337.325 387.811 338.021 387.931 339.071 388.074C340.258 388.224 341.184 388.45 341.82 388.721C342.748 389.11 343.368 389.707 343.662 390.514C344.358 392.426 343.277 393.516 340.432 393.765C337.792 393.996 335.989 393.05 335 390.964L336.934 390.795C337.269 391.399 337.67 391.817 338.094 392.033C338.512 392.232 339.077 392.309 339.821 392.244C341.346 392.11 341.974 391.621 341.68 390.814C341.52 390.376 341.095 390.051 340.448 389.854C340.099 389.74 339.385 389.621 338.323 389.497C337.099 389.351 336.204 389.158 335.655 388.916C334.752 388.543 334.157 387.961 333.876 387.19C333.576 386.365 333.693 385.685 334.252 385.166C334.805 384.629 335.67 384.318 336.823 384.217ZM344.837 380.747L345.903 383.676L348.097 383.484L348.659 385.027L346.465 385.219L348.38 390.481C348.47 390.727 348.589 390.897 348.746 391.01C348.895 391.106 349.088 391.161 349.33 391.14L350.594 391.03L351.156 392.573L349.576 392.711C348.758 392.783 348.067 392.626 347.549 392.255C347.036 391.902 346.671 391.373 346.409 390.654L344.494 385.392L342.709 385.548L342.147 384.005L343.932 383.848L343.147 381.691L344.837 380.747ZM349.758 379.592C350.148 379.558 350.521 379.634 350.871 379.857C351.214 380.062 351.453 380.349 351.587 380.717C351.721 381.086 351.681 381.397 351.51 381.665C351.332 381.916 351.042 382.068 350.671 382.101C350.28 382.135 349.919 382.04 349.576 381.834C349.226 381.612 348.981 381.307 348.853 380.956C348.719 380.588 348.741 380.279 348.918 380.028C349.089 379.759 349.367 379.626 349.758 379.592ZM350.094 383.309L352.065 383.137L355.365 392.205L353.394 392.377L350.094 383.309ZM359.515 382.232C361.895 382.023 363.551 383.145 364.457 385.636L366.494 391.231L364.523 391.404L362.544 385.966C361.982 384.423 360.939 383.718 359.451 383.848C358.893 383.897 358.455 384.116 358.186 384.538C357.893 384.998 357.825 385.601 358.019 386.344L360.004 391.799L358.033 391.972L354.733 382.903L356.704 382.731L357.112 383.854C357.318 383.365 357.625 382.994 358.025 382.724C358.419 382.436 358.92 382.284 359.515 382.232ZM369.355 381.371C370.619 381.26 371.758 381.649 372.823 382.57L372.382 381.359L374.353 381.187L377.437 389.659C378.484 392.535 377.501 394.105 374.526 394.366C373.187 394.483 372.075 394.327 371.196 393.915C370.311 393.486 369.615 392.786 369.065 391.803L371.036 391.63C371.339 392.147 371.703 392.513 372.157 392.709C372.587 392.888 373.208 392.96 373.989 392.892C375.663 392.746 376.187 391.813 375.568 390.112L375.057 388.709C374.714 389.77 373.932 390.363 372.668 390.474C371.366 390.588 370.153 390.26 369.054 389.505C367.935 388.752 367.149 387.699 366.651 386.331C366.153 384.963 366.148 383.841 366.66 382.928C367.146 381.998 368.053 381.485 369.355 381.371ZM370.201 382.853C369.365 382.926 368.809 383.246 368.567 383.847C368.276 384.415 368.327 385.189 368.678 386.154C368.997 387.031 369.439 387.716 369.996 388.192C370.64 388.751 371.443 389.007 372.41 388.922C373.247 388.849 373.802 388.529 374.094 387.96C374.342 387.377 374.316 386.62 373.977 385.69C373.633 384.743 373.117 384.01 372.472 383.505C371.785 382.986 371.038 382.78 370.201 382.853Z" fill="black"/>
</g>
<rect x="0.574219" width="700" height="78.9733" fill="url(#paint5_linear_436_3150)"/>
<rect x="700.574" y="450.455" width="700" height="166.482" transform="rotate(-180 700.574 450.455)" fill="url(#paint6_linear_436_3150)"/>
</g>
<defs>
<filter id="filter0_d_436_3150" x="-72.9396" y="-210.926" width="818.347" height="795.638" filterUnits="userSpaceOnUse" color-interpolation-filters="sRGB">
<feFlood flood-opacity="0" result="BackgroundImageFix"/>
<feColorMatrix in="SourceAlpha" type="matrix" values="0 0 0 0 0 0 0 0 0 0 0 0 0 0 0 0 0 0 127 0" result="hardAlpha"/>
<feOffset/>
<feGaussianBlur stdDeviation="0.530303"/>
<feComposite in2="hardAlpha" operator="out"/>
<feColorMatrix type="matrix" values="0 0 0 0 0.0745098 0 0 0 0 0.2 0 0 0 0 0.419608 0 0 0 0.08 0"/>
<feBlend mode="normal" in2="BackgroundImageFix" result="effect1_dropShadow_436_3150"/>
<feBlend mode="normal" in="SourceGraphic" in2="effect1_dropShadow_436_3150" result="shape"/>
</filter>
<filter id="filter1_dd_436_3150" x="18.351" y="-8.88242" width="754.57" height="604.825" filterUnits="userSpaceOnUse" color-interpolation-filters="sRGB">
<feFlood flood-opacity="0" result="BackgroundImageFix"/>
<feColorMatrix in="SourceAlpha" type="matrix" values="0 0 0 0 0 0 0 0 0 0 0 0 0 0 0 0 0 0 127 0" result="hardAlpha"/>
<feOffset dx="-14.0329" dy="21.1787"/>
<feGaussianBlur stdDeviation="13.9587"/>
<feComposite in2="hardAlpha" operator="out"/>
<feColorMatrix type="matrix" values="0 0 0 0 0.556645 0 0 0 0 0.678679 0 0 0 0 0.791325 0 0 0 0.2 0"/>
<feBlend mode="normal" in2="BackgroundImageFix" result="effect1_dropShadow_436_3150"/>
<feColorMatrix in="SourceAlpha" type="matrix" values="0 0 0 0 0 0 0 0 0 0 0 0 0 0 0 0 0 0 127 0" result="hardAlpha"/>
<feOffset/>
<feGaussianBlur stdDeviation="0.530303"/>
<feComposite in2="hardAlpha" operator="out"/>
<feColorMatrix type="matrix" values="0 0 0 0 0.0745098 0 0 0 0 0.2 0 0 0 0 0.419608 0 0 0 0.08 0"/>
<feBlend mode="normal" in2="effect1_dropShadow_436_3150" result="effect2_dropShadow_436_3150"/>
<feBlend mode="normal" in="SourceGraphic" in2="effect2_dropShadow_436_3150" result="shape"/>
</filter>
<linearGradient id="paint0_linear_436_3150" x1="183.344" y1="132.616" x2="184.79" y2="149.138" gradientUnits="userSpaceOnUse">
<stop stop-color="#B7CCE1"/>
<stop offset="1" stop-color="#5997C3"/>
</linearGradient>
<linearGradient id="paint1_linear_436_3150" x1="183.344" y1="132.616" x2="184.79" y2="149.138" gradientUnits="userSpaceOnUse">
<stop stop-color="#B7CCE1"/>
<stop offset="1" stop-color="#5997C3"/>
</linearGradient>
<linearGradient id="paint2_linear_436_3150" x1="183.344" y1="132.616" x2="184.79" y2="149.138" gradientUnits="userSpaceOnUse">
<stop stop-color="#B7CCE1"/>
<stop offset="1" stop-color="#5997C3"/>
</linearGradient>
<linearGradient id="paint3_linear_436_3150" x1="14.4006" y1="313.768" x2="254.432" y2="540.647" gradientUnits="userSpaceOnUse">
<stop stop-color="white"/>
<stop offset="1" stop-color="white" stop-opacity="0"/>
</linearGradient>
<linearGradient id="paint4_linear_436_3150" x1="-4.50474" y1="193.842" x2="125.958" y2="386.876" gradientUnits="userSpaceOnUse">
<stop stop-color="white"/>
<stop offset="1" stop-color="white" stop-opacity="0"/>
</linearGradient>
<linearGradient id="paint5_linear_436_3150" x1="107.192" y1="31.9516" x2="105.936" y2="96.4211" gradientUnits="userSpaceOnUse">
<stop stop-color="#F0F8FF"/>
<stop offset="0.845" stop-color="#EFF7FF" stop-opacity="0"/>
</linearGradient>
<linearGradient id="paint6_linear_436_3150" x1="813.664" y1="533.696" x2="829.821" y2="616.17" gradientUnits="userSpaceOnUse">
<stop stop-color="#F2F9FF"/>
<stop offset="0.585" stop-color="#EFF7FF" stop-opacity="0"/>
</linearGradient>
<clipPath id="clip0_436_3150">
<rect width="700" height="450" fill="white" transform="translate(0.574219)"/>
</clipPath>
<clipPath id="clip1_436_3150">
<rect width="366.509" height="519.451" rx="16.5342" transform="matrix(0.996195 -0.0871557 0.34202 0.939693 64.8457 -41.197)" fill="white"/>
</clipPath>
<clipPath id="clip2_436_3150">
<rect width="27.5571" height="27.5571" fill="white" transform="matrix(0.996195 -0.0871557 0.34202 0.939693 314.868 51.8245)"/>
</clipPath>
<clipPath id="clip3_436_3150">
<rect width="322.418" height="55.1141" rx="27.5571" transform="matrix(0.996195 -0.0871557 0.34202 0.939693 145.242 117.432)" fill="white"/>
</clipPath>
<clipPath id="clip4_436_3150">
<rect width="19.2899" height="19.2899" fill="white" transform="matrix(0.996195 -0.0871557 0.34202 0.939693 173.374 132.461)"/>
</clipPath>
<clipPath id="clip5_436_3150">
<rect width="22.973" height="22.973" fill="white" transform="matrix(0.996195 -0.0871557 0.34202 0.939693 204.15 192.598)"/>
</clipPath>
</defs>
</svg>
