<svg xmlns="http://www.w3.org/2000/svg" fill="none" viewBox="0 0 1440 801">
  <path
    fill="url(#a)"
    d="M-743 1589.4h-1V-726.3h1v2315.7Zm75.6 0h-1V-726.3h1v2315.7Zm75.6 0h-1V-726.3h1v2315.7Zm75.6-1686.9h74.5v-628.8h1v628.8h74.6v-628.8h1v628.8h74.6v-628.8h1v628.8h74.6v-628.8h1v628.8h74.6v-628.8h1v628.8h74.5v-628.8h1v628.8h74.6v-628.8h1v628.8h74.6v-628.8h1v628.8H163v-628.8h1v628.8h74.6v-628.8h1v628.8H314v-628.8h1v628.8h74.6v-628.8h1v628.8h74.6v-628.8h1v628.8h74.6v-628.8h1v628.8h74.6v-628.8h1v628.8H692v-628.8h1v628.8h74.6v-628.8h1v628.8h74.6v-628.8h1v628.8h74.6v-628.8h1v628.8h74.6v-628.8h1v628.8h74.6v-628.8h1v628.8h74.5v-628.8h1v628.8h74.6v-628.8h1v628.8h74.6v-628.8h1v628.8h74.6v-628.8h1v628.8h74.5v-628.8h1v628.8h74.6v-628.8h1v628.8h74.6v-628.8h1v628.8h74.6v-628.8h1v628.8h58.4v1h-58.4v74.6h58.4v1h-58.4v74.6h58.4v1h-58.4v74.6h58.4v1h-58.4v74.5h58.4v1h-58.4v74.6h58.4v1h-58.4V356h58.4v1h-58.4v74.6h58.4v1h-58.4v74.6h58.4v1h-58.4v74.5h58.4v1h-58.4v74.6h58.4v1h-58.4V734h58.4v1h-58.4v74.6h58.4v1h-58.4V885h58.4v1h-58.4v74.5h58.4v1h-58.4v74.6h58.4v1h-58.4v552.2h-1v-552.2H1600v552.2h-1v-552.2h-74.6v552.2h-1v-552.2h-74.6v552.2h-1v-552.2h-74.5v552.2h-1v-552.2h-74.6v552.2h-1v-552.2H1222v552.2h-1v-552.2h-74.6v552.2h-1v-552.2H1071v552.2h-1v-552.2h-74.6v552.2h-1v-552.2h-74.6v552.2h-1v-552.2h-74.6v552.2h-1v-552.2h-74.6v552.2h-1v-552.2H693v552.2h-1v-552.2h-74.5v552.2h-1v-552.2h-74.6v552.2h-1v-552.2h-74.6v552.2h-1v-552.2h-74.6v552.2h-1v-552.2h-74.6v552.2h-1v-552.2h-74.5v552.2h-1v-552.2H164v552.2h-1v-552.2H88.4v552.2h-1v-552.2H12.8v552.2h-1v-552.2h-74.6v552.2h-1v-552.2h-74.5v552.2h-1v-552.2H-214v552.2h-1v-552.2h-74.6v552.2h-1v-552.2h-74.6v552.2h-1v-552.2h-74.6v552.2h-1v-552.2h-74.5v552.2h-1v-552.2h-64.4v-1h64.4v-74.6h-64.4v-1h64.4v-74.5h-64.4v-1h64.4v-74.6h-64.4v-1h64.4v-74.6h-64.4v-1h64.4v-74.6h-64.4v-1h64.4v-74.6h-64.4v-1h64.4v-74.5h-64.4v-1h64.4v-74.6h-64.4v-1h64.4V357h-64.4v-1h64.4v-74.6h-64.4v-1h64.4v-74.6h-64.4v-1h64.4v-74.5h-64.4v-1h64.4V54.7h-64.4v-1h64.4V-21h-64.4v-1h64.4v-74.6h-64.4v-1h64.4v-628.8h1v628.8Zm2267.4 1686.9h-1V-726.3h1v2315.7ZM-516.2 961.6v74.6h74.5v-74.6h-74.5Zm75.5 0v74.6h74.6v-74.6h-74.6Zm75.6 0v74.6h74.6v-74.6h-74.6Zm75.6 0v74.6h74.6v-74.6h-74.6Zm75.6 0v74.6h74.6v-74.6H-214Zm75.6 0v74.6h74.5v-74.6h-74.5Zm75.5 0v74.6h74.6v-74.6h-74.6Zm75.6 0v74.6h74.6v-74.6H12.8Zm75.6 0v74.6H163v-74.6H88.4Zm75.6 0v74.6h74.6v-74.6H164Zm75.6 0v74.6H314v-74.6h-74.5Zm75.5 0v74.6h74.6v-74.6h-74.6Zm75.6 0v74.6h74.6v-74.6h-74.6Zm75.6 0v74.6h74.6v-74.6h-74.6Zm75.6 0v74.6h74.6v-74.6h-74.6Zm75.6 0v74.6H692v-74.6h-74.5Zm75.5 0v74.6h74.6v-74.6H693Zm75.6 0v74.6h74.6v-74.6h-74.6Zm75.6 0v74.6h74.6v-74.6h-74.6Zm75.6 0v74.6h74.6v-74.6h-74.6Zm75.6 0v74.6h74.6v-74.6h-74.6Zm75.6 0v74.6h74.5v-74.6H1071Zm75.5 0v74.6h74.6v-74.6h-74.6Zm75.6 0v74.6h74.6v-74.6H1222Zm75.6 0v74.6h74.6v-74.6h-74.6Zm75.6 0v74.6h74.5v-74.6h-74.5Zm75.5 0v74.6h74.6v-74.6h-74.6Zm75.6 0v74.6h74.6v-74.6h-74.6Zm75.6 0v74.6h74.6v-74.6H1600Zm-2116.2-75.5v74.5h74.5v-74.5h-74.5Zm75.5 0v74.5h74.6v-74.5h-74.6Zm75.6 0v74.5h74.6v-74.5h-74.6Zm75.6 0v74.5h74.6v-74.5h-74.6Zm75.6 0v74.5h74.6v-74.5H-214Zm75.6 0v74.5h74.5v-74.5h-74.5Zm75.5 0v74.5h74.6v-74.5h-74.6Zm75.6 0v74.5h74.6v-74.5H12.8Zm75.6 0v74.5H163v-74.5H88.4Zm75.6 0v74.5h74.6v-74.5H164Zm75.6 0v74.5H314v-74.5h-74.5Zm75.5 0v74.5h74.6v-74.5h-74.6Zm75.6 0v74.5h74.6v-74.5h-74.6Zm75.6 0v74.5h74.6v-74.5h-74.6Zm75.6 0v74.5h74.6v-74.5h-74.6Zm75.6 0v74.5H692v-74.5h-74.5Zm75.5 0v74.5h74.6v-74.5H693Zm75.6 0v74.5h74.6v-74.5h-74.6Zm75.6 0v74.5h74.6v-74.5h-74.6Zm75.6 0v74.5h74.6v-74.5h-74.6Zm75.6 0v74.5h74.6v-74.5h-74.6Zm75.6 0v74.5h74.5v-74.5H1071Zm75.5 0v74.5h74.6v-74.5h-74.6Zm75.6 0v74.5h74.6v-74.5H1222Zm75.6 0v74.5h74.6v-74.5h-74.6Zm75.6 0v74.5h74.5v-74.5h-74.5Zm75.5 0v74.5h74.6v-74.5h-74.6Zm75.6 0v74.5h74.6v-74.5h-74.6Zm75.6 0v74.5h74.6v-74.5H1600Zm-2116.2-75.6V885h74.5v-74.6h-74.5Zm75.5 0V885h74.6v-74.6h-74.6Zm75.6 0V885h74.6v-74.6h-74.6Zm75.6 0V885h74.6v-74.6h-74.6Zm75.6 0V885h74.6v-74.6H-214Zm75.6 0V885h74.5v-74.6h-74.5Zm75.5 0V885h74.6v-74.6h-74.6Zm75.6 0V885h74.6v-74.6H12.8Zm75.6 0V885H163v-74.6H88.4Zm75.6 0V885h74.6v-74.6H164Zm75.6 0V885H314v-74.6h-74.5Zm75.5 0V885h74.6v-74.6h-74.6Zm75.6 0V885h74.6v-74.6h-74.6Zm75.6 0V885h74.6v-74.6h-74.6Zm75.6 0V885h74.6v-74.6h-74.6Zm75.6 0V885H692v-74.6h-74.5Zm75.5 0V885h74.6v-74.6H693Zm75.6 0V885h74.6v-74.6h-74.6Zm75.6 0V885h74.6v-74.6h-74.6Zm75.6 0V885h74.6v-74.6h-74.6Zm75.6 0V885h74.6v-74.6h-74.6Zm75.6 0V885h74.5v-74.6H1071Zm75.5 0V885h74.6v-74.6h-74.6Zm75.6 0V885h74.6v-74.6H1222Zm75.6 0V885h74.6v-74.6h-74.6Zm75.6 0V885h74.5v-74.6h-74.5Zm75.5 0V885h74.6v-74.6h-74.6Zm75.6 0V885h74.6v-74.6h-74.6Zm75.6 0V885h74.6v-74.6H1600Zm-2116.2-75.6v74.6h74.5v-74.6h-74.5Zm75.5 0v74.6h74.6v-74.6h-74.6Zm75.6 0v74.6h74.6v-74.6h-74.6Zm75.6 0v74.6h74.6v-74.6h-74.6Zm75.6 0v74.6h74.6v-74.6H-214Zm75.6 0v74.6h74.5v-74.6h-74.5Zm75.5 0v74.6h74.6v-74.6h-74.6Zm75.6 0v74.6h74.6v-74.6H12.8Zm75.6 0v74.6H163v-74.6H88.4Zm75.6 0v74.6h74.6v-74.6H164Zm75.6 0v74.6H314v-74.6h-74.5Zm75.5 0v74.6h74.6v-74.6h-74.6Zm75.6 0v74.6h74.6v-74.6h-74.6Zm75.6 0v74.6h74.6v-74.6h-74.6Zm75.6 0v74.6h74.6v-74.6h-74.6Zm75.6 0v74.6H692v-74.6h-74.5Zm75.5 0v74.6h74.6v-74.6H693Zm75.6 0v74.6h74.6v-74.6h-74.6Zm75.6 0v74.6h74.6v-74.6h-74.6Zm75.6 0v74.6h74.6v-74.6h-74.6Zm75.6 0v74.6h74.6v-74.6h-74.6Zm75.6 0v74.6h74.5v-74.6H1071Zm75.5 0v74.6h74.6v-74.6h-74.6Zm75.6 0v74.6h74.6v-74.6H1222Zm75.6 0v74.6h74.6v-74.6h-74.6Zm75.6 0v74.6h74.5v-74.6h-74.5Zm75.5 0v74.6h74.6v-74.6h-74.6Zm75.6 0v74.6h74.6v-74.6h-74.6Zm75.6 0v74.6h74.6v-74.6H1600Zm-2116.2-75.6V734h74.5v-74.6h-74.5Zm75.5 0V734h74.6v-74.6h-74.6Zm75.6 0V734h74.6v-74.6h-74.6Zm75.6 0V734h74.6v-74.6h-74.6Zm75.6 0V734h74.6v-74.6H-214Zm75.6 0V734h74.5v-74.6h-74.5Zm75.5 0V734h74.6v-74.6h-74.6Zm75.6 0V734h74.6v-74.6H12.8Zm75.6 0V734H163v-74.6H88.4Zm75.6 0V734h74.6v-74.6H164Zm75.6 0V734H314v-74.6h-74.5Zm75.5 0V734h74.6v-74.6h-74.6Zm75.6 0V734h74.6v-74.6h-74.6Zm75.6 0V734h74.6v-74.6h-74.6Zm75.6 0V734h74.6v-74.6h-74.6Zm75.6 0V734H692v-74.6h-74.5Zm75.5 0V734h74.6v-74.6H693Zm75.6 0V734h74.6v-74.6h-74.6Zm75.6 0V734h74.6v-74.6h-74.6Zm75.6 0V734h74.6v-74.6h-74.6Zm75.6 0V734h74.6v-74.6h-74.6Zm75.6 0V734h74.5v-74.6H1071Zm75.5 0V734h74.6v-74.6h-74.6Zm75.6 0V734h74.6v-74.6H1222Zm75.6 0V734h74.6v-74.6h-74.6Zm75.6 0V734h74.5v-74.6h-74.5Zm75.5 0V734h74.6v-74.6h-74.6Zm75.6 0V734h74.6v-74.6h-74.6Zm75.6 0V734h74.6v-74.6H1600Zm-2116.2-75.6v74.6h74.5v-74.6h-74.5Zm75.5 0v74.6h74.6v-74.6h-74.6Zm75.6 0v74.6h74.6v-74.6h-74.6Zm75.6 0v74.6h74.6v-74.6h-74.6Zm75.6 0v74.6h74.6v-74.6H-214Zm75.6 0v74.6h74.5v-74.6h-74.5Zm75.5 0v74.6h74.6v-74.6h-74.6Zm75.6 0v74.6h74.6v-74.6H12.8Zm75.6 0v74.6H163v-74.6H88.4Zm75.6 0v74.6h74.6v-74.6H164Zm75.6 0v74.6H314v-74.6h-74.5Zm75.5 0v74.6h74.6v-74.6h-74.6Zm75.6 0v74.6h74.6v-74.6h-74.6Zm75.6 0v74.6h74.6v-74.6h-74.6Zm75.6 0v74.6h74.6v-74.6h-74.6Zm75.6 0v74.6H692v-74.6h-74.5Zm75.5 0v74.6h74.6v-74.6H693Zm75.6 0v74.6h74.6v-74.6h-74.6Zm75.6 0v74.6h74.6v-74.6h-74.6Zm75.6 0v74.6h74.6v-74.6h-74.6Zm75.6 0v74.6h74.6v-74.6h-74.6Zm75.6 0v74.6h74.5v-74.6H1071Zm75.5 0v74.6h74.6v-74.6h-74.6Zm75.6 0v74.6h74.6v-74.6H1222Zm75.6 0v74.6h74.6v-74.6h-74.6Zm75.6 0v74.6h74.5v-74.6h-74.5Zm75.5 0v74.6h74.6v-74.6h-74.6Zm75.6 0v74.6h74.6v-74.6h-74.6Zm75.6 0v74.6h74.6v-74.6H1600Zm-2116.2-75.5v74.5h74.5v-74.5h-74.5Zm75.5 0v74.5h74.6v-74.5h-74.6Zm75.6 0v74.5h74.6v-74.5h-74.6Zm75.6 0v74.5h74.6v-74.5h-74.6Zm75.6 0v74.5h74.6v-74.5H-214Zm75.6 0v74.5h74.5v-74.5h-74.5Zm75.5 0v74.5h74.6v-74.5h-74.6Zm75.6 0v74.5h74.6v-74.5H12.8Zm75.6 0v74.5H163v-74.5H88.4Zm75.6 0v74.5h74.6v-74.5H164Zm75.6 0v74.5H314v-74.5h-74.5Zm75.5 0v74.5h74.6v-74.5h-74.6Zm75.6 0v74.5h74.6v-74.5h-74.6Zm75.6 0v74.5h74.6v-74.5h-74.6Zm75.6 0v74.5h74.6v-74.5h-74.6Zm75.6 0v74.5H692v-74.5h-74.5Zm75.5 0v74.5h74.6v-74.5H693Zm75.6 0v74.5h74.6v-74.5h-74.6Zm75.6 0v74.5h74.6v-74.5h-74.6Zm75.6 0v74.5h74.6v-74.5h-74.6Zm75.6 0v74.5h74.6v-74.5h-74.6Zm75.6 0v74.5h74.5v-74.5H1071Zm75.5 0v74.5h74.6v-74.5h-74.6Zm75.6 0v74.5h74.6v-74.5H1222Zm75.6 0v74.5h74.6v-74.5h-74.6Zm75.6 0v74.5h74.5v-74.5h-74.5Zm75.5 0v74.5h74.6v-74.5h-74.6Zm75.6 0v74.5h74.6v-74.5h-74.6Zm75.6 0v74.5h74.6v-74.5H1600Zm-2116.2-75.6v74.6h74.5v-74.6h-74.5Zm75.5 0v74.6h74.6v-74.6h-74.6Zm75.6 0v74.6h74.6v-74.6h-74.6Zm75.6 0v74.6h74.6v-74.6h-74.6Zm75.6 0v74.6h74.6v-74.6H-214Zm75.6 0v74.6h74.5v-74.6h-74.5Zm75.5 0v74.6h74.6v-74.6h-74.6Zm75.6 0v74.6h74.6v-74.6H12.8Zm75.6 0v74.6H163v-74.6H88.4Zm75.6 0v74.6h74.6v-74.6H164Zm75.6 0v74.6H314v-74.6h-74.5Zm75.5 0v74.6h74.6v-74.6h-74.6Zm75.6 0v74.6h74.6v-74.6h-74.6Zm75.6 0v74.6h74.6v-74.6h-74.6Zm75.6 0v74.6h74.6v-74.6h-74.6Zm75.6 0v74.6H692v-74.6h-74.5Zm75.5 0v74.6h74.6v-74.6H693Zm75.6 0v74.6h74.6v-74.6h-74.6Zm75.6 0v74.6h74.6v-74.6h-74.6Zm75.6 0v74.6h74.6v-74.6h-74.6Zm75.6 0v74.6h74.6v-74.6h-74.6Zm75.6 0v74.6h74.5v-74.6H1071Zm75.5 0v74.6h74.6v-74.6h-74.6Zm75.6 0v74.6h74.6v-74.6H1222Zm75.6 0v74.6h74.6v-74.6h-74.6Zm75.6 0v74.6h74.5v-74.6h-74.5Zm75.5 0v74.6h74.6v-74.6h-74.6Zm75.6 0v74.6h74.6v-74.6h-74.6Zm75.6 0v74.6h74.6v-74.6H1600ZM-516.2 357v74.6h74.5V357h-74.5Zm75.5 0v74.6h74.6V357h-74.6Zm75.6 0v74.6h74.6V357h-74.6Zm75.6 0v74.6h74.6V357h-74.6Zm75.6 0v74.6h74.6V357H-214Zm75.6 0v74.6h74.5V357h-74.5Zm75.5 0v74.6h74.6V357h-74.6Zm75.6 0v74.6h74.6V357H12.8Zm75.6 0v74.6H163V357H88.4Zm75.6 0v74.6h74.6V357H164Zm75.6 0v74.6H314V357h-74.5Zm75.5 0v74.6h74.6V357h-74.6Zm75.6 0v74.6h74.6V357h-74.6Zm75.6 0v74.6h74.6V357h-74.6Zm75.6 0v74.6h74.6V357h-74.6Zm75.6 0v74.6H692V357h-74.5Zm75.5 0v74.6h74.6V357H693Zm75.6 0v74.6h74.6V357h-74.6Zm75.6 0v74.6h74.6V357h-74.6Zm75.6 0v74.6h74.6V357h-74.6Zm75.6 0v74.6h74.6V357h-74.6Zm75.6 0v74.6h74.5V357H1071Zm75.5 0v74.6h74.6V357h-74.6Zm75.6 0v74.6h74.6V357H1222Zm75.6 0v74.6h74.6V357h-74.6Zm75.6 0v74.6h74.5V357h-74.5Zm75.5 0v74.6h74.6V357h-74.6Zm75.6 0v74.6h74.6V357h-74.6Zm75.6 0v74.6h74.6V357H1600Zm-2116.2-75.6V356h74.5v-74.6h-74.5Zm75.5 0V356h74.6v-74.6h-74.6Zm75.6 0V356h74.6v-74.6h-74.6Zm75.6 0V356h74.6v-74.6h-74.6Zm75.6 0V356h74.6v-74.6H-214Zm75.6 0V356h74.5v-74.6h-74.5Zm75.5 0V356h74.6v-74.6h-74.6Zm75.6 0V356h74.6v-74.6H12.8Zm75.6 0V356H163v-74.6H88.4Zm75.6 0V356h74.6v-74.6H164Zm75.6 0V356H314v-74.6h-74.5Zm75.5 0V356h74.6v-74.6h-74.6Zm75.6 0V356h74.6v-74.6h-74.6Zm75.6 0V356h74.6v-74.6h-74.6Zm75.6 0V356h74.6v-74.6h-74.6Zm75.6 0V356H692v-74.6h-74.5Zm75.5 0V356h74.6v-74.6H693Zm75.6 0V356h74.6v-74.6h-74.6Zm75.6 0V356h74.6v-74.6h-74.6Zm75.6 0V356h74.6v-74.6h-74.6Zm75.6 0V356h74.6v-74.6h-74.6Zm75.6 0V356h74.5v-74.6H1071Zm75.5 0V356h74.6v-74.6h-74.6Zm75.6 0V356h74.6v-74.6H1222Zm75.6 0V356h74.6v-74.6h-74.6Zm75.6 0V356h74.5v-74.6h-74.5Zm75.5 0V356h74.6v-74.6h-74.6Zm75.6 0V356h74.6v-74.6h-74.6Zm75.6 0V356h74.6v-74.6H1600Zm-2116.2-75.6v74.6h74.5v-74.6h-74.5Zm75.5 0v74.6h74.6v-74.6h-74.6Zm75.6 0v74.6h74.6v-74.6h-74.6Zm75.6 0v74.6h74.6v-74.6h-74.6Zm75.6 0v74.6h74.6v-74.6H-214Zm75.6 0v74.6h74.5v-74.6h-74.5Zm75.5 0v74.6h74.6v-74.6h-74.6Zm75.6 0v74.6h74.6v-74.6H12.8Zm75.6 0v74.6H163v-74.6H88.4Zm75.6 0v74.6h74.6v-74.6H164Zm75.6 0v74.6H314v-74.6h-74.5Zm75.5 0v74.6h74.6v-74.6h-74.6Zm75.6 0v74.6h74.6v-74.6h-74.6Zm75.6 0v74.6h74.6v-74.6h-74.6Zm75.6 0v74.6h74.6v-74.6h-74.6Zm75.6 0v74.6H692v-74.6h-74.5Zm75.5 0v74.6h74.6v-74.6H693Zm75.6 0v74.6h74.6v-74.6h-74.6Zm75.6 0v74.6h74.6v-74.6h-74.6Zm75.6 0v74.6h74.6v-74.6h-74.6Zm75.6 0v74.6h74.6v-74.6h-74.6Zm75.6 0v74.6h74.5v-74.6H1071Zm75.5 0v74.6h74.6v-74.6h-74.6Zm75.6 0v74.6h74.6v-74.6H1222Zm75.6 0v74.6h74.6v-74.6h-74.6Zm75.6 0v74.6h74.5v-74.6h-74.5Zm75.5 0v74.6h74.6v-74.6h-74.6Zm75.6 0v74.6h74.6v-74.6h-74.6Zm75.6 0v74.6h74.6v-74.6H1600Zm-2116.2-75.5v74.5h74.5v-74.5h-74.5Zm75.5 0v74.5h74.6v-74.5h-74.6Zm75.6 0v74.5h74.6v-74.5h-74.6Zm75.6 0v74.5h74.6v-74.5h-74.6Zm75.6 0v74.5h74.6v-74.5H-214Zm75.6 0v74.5h74.5v-74.5h-74.5Zm75.5 0v74.5h74.6v-74.5h-74.6Zm75.6 0v74.5h74.6v-74.5H12.8Zm75.6 0v74.5H163v-74.5H88.4Zm75.6 0v74.5h74.6v-74.5H164Zm75.6 0v74.5H314v-74.5h-74.5Zm75.5 0v74.5h74.6v-74.5h-74.6Zm75.6 0v74.5h74.6v-74.5h-74.6Zm75.6 0v74.5h74.6v-74.5h-74.6Zm75.6 0v74.5h74.6v-74.5h-74.6Zm75.6 0v74.5H692v-74.5h-74.5Zm75.5 0v74.5h74.6v-74.5H693Zm75.6 0v74.5h74.6v-74.5h-74.6Zm75.6 0v74.5h74.6v-74.5h-74.6Zm75.6 0v74.5h74.6v-74.5h-74.6Zm75.6 0v74.5h74.6v-74.5h-74.6Zm75.6 0v74.5h74.5v-74.5H1071Zm75.5 0v74.5h74.6v-74.5h-74.6Zm75.6 0v74.5h74.6v-74.5H1222Zm75.6 0v74.5h74.6v-74.5h-74.6Zm75.6 0v74.5h74.5v-74.5h-74.5Zm75.5 0v74.5h74.6v-74.5h-74.6Zm75.6 0v74.5h74.6v-74.5h-74.6Zm75.6 0v74.5h74.6v-74.5H1600ZM-516.2 54.7v74.6h74.5V54.7h-74.5Zm75.5 0v74.6h74.6V54.7h-74.6Zm75.6 0v74.6h74.6V54.7h-74.6Zm75.6 0v74.6h74.6V54.7h-74.6Zm75.6 0v74.6h74.6V54.7H-214Zm75.6 0v74.6h74.5V54.7h-74.5Zm75.5 0v74.6h74.6V54.7h-74.6Zm75.6 0v74.6h74.6V54.7H12.8Zm75.6 0v74.6H163V54.7H88.4Zm75.6 0v74.6h74.6V54.7H164Zm75.6 0v74.6H314V54.7h-74.5Zm75.5 0v74.6h74.6V54.7h-74.6Zm75.6 0v74.6h74.6V54.7h-74.6Zm75.6 0v74.6h74.6V54.7h-74.6Zm75.6 0v74.6h74.6V54.7h-74.6Zm75.6 0v74.6H692V54.7h-74.5Zm75.5 0v74.6h74.6V54.7H693Zm75.6 0v74.6h74.6V54.7h-74.6Zm75.6 0v74.6h74.6V54.7h-74.6Zm75.6 0v74.6h74.6V54.7h-74.6Zm75.6 0v74.6h74.6V54.7h-74.6Zm75.6 0v74.6h74.5V54.7H1071Zm75.5 0v74.6h74.6V54.7h-74.6Zm75.6 0v74.6h74.6V54.7H1222Zm75.6 0v74.6h74.6V54.7h-74.6Zm75.6 0v74.6h74.5V54.7h-74.5Zm75.5 0v74.6h74.6V54.7h-74.6Zm75.6 0v74.6h74.6V54.7h-74.6Zm75.6 0v74.6h74.6V54.7H1600ZM-516.2-21v74.6h74.5V-21h-74.5Zm75.5 0v74.6h74.6V-21h-74.6Zm75.6 0v74.6h74.6V-21h-74.6Zm75.6 0v74.6h74.6V-21h-74.6Zm75.6 0v74.6h74.6V-21H-214Zm75.6 0v74.6h74.5V-21h-74.5Zm75.5 0v74.6h74.6V-21h-74.6Zm75.6 0v74.6h74.6V-21H12.8Zm75.6 0v74.6H163V-21H88.4Zm75.6 0v74.6h74.6V-21H164Zm75.6 0v74.6H314V-21h-74.5Zm75.5 0v74.6h74.6V-21h-74.6Zm75.6 0v74.6h74.6V-21h-74.6Zm75.6 0v74.6h74.6V-21h-74.6Zm75.6 0v74.6h74.6V-21h-74.6Zm75.6 0v74.6H692V-21h-74.5Zm75.5 0v74.6h74.6V-21H693Zm75.6 0v74.6h74.6V-21h-74.6Zm75.6 0v74.6h74.6V-21h-74.6Zm75.6 0v74.6h74.6V-21h-74.6Zm75.6 0v74.6h74.6V-21h-74.6Zm75.6 0v74.6h74.5V-21H1071Zm75.5 0v74.6h74.6V-21h-74.6Zm75.6 0v74.6h74.6V-21H1222Zm75.6 0v74.6h74.6V-21h-74.6Zm75.6 0v74.6h74.5V-21h-74.5Zm75.5 0v74.6h74.6V-21h-74.6Zm75.6 0v74.6h74.6V-21h-74.6Zm75.6 0v74.6h74.6V-21H1600ZM-516.2-96.5v74.6h74.5v-74.6h-74.5Zm75.5 0v74.6h74.6v-74.6h-74.6Zm75.6 0v74.6h74.6v-74.6h-74.6Zm75.6 0v74.6h74.6v-74.6h-74.6Zm75.6 0v74.6h74.6v-74.6H-214Zm75.6 0v74.6h74.5v-74.6h-74.5Zm75.5 0v74.6h74.6v-74.6h-74.6Zm75.6 0v74.6h74.6v-74.6H12.8Zm75.6 0v74.6H163v-74.6H88.4Zm75.6 0v74.6h74.6v-74.6H164Zm75.6 0v74.6H314v-74.6h-74.5Zm75.5 0v74.6h74.6v-74.6h-74.6Zm75.6 0v74.6h74.6v-74.6h-74.6Zm75.6 0v74.6h74.6v-74.6h-74.6Zm75.6 0v74.6h74.6v-74.6h-74.6Zm75.6 0v74.6H692v-74.6h-74.5Zm75.5 0v74.6h74.6v-74.6H693Zm75.6 0v74.6h74.6v-74.6h-74.6Zm75.6 0v74.6h74.6v-74.6h-74.6Zm75.6 0v74.6h74.6v-74.6h-74.6Zm75.6 0v74.6h74.6v-74.6h-74.6Zm75.6 0v74.6h74.5v-74.6H1071Zm75.5 0v74.6h74.6v-74.6h-74.6Zm75.6 0v74.6h74.6v-74.6H1222Zm75.6 0v74.6h74.6v-74.6h-74.6Zm75.6 0v74.6h74.5v-74.6h-74.5Zm75.5 0v74.6h74.6v-74.6h-74.6Zm75.6 0v74.6h74.6v-74.6h-74.6Zm75.6 0v74.6h74.6v-74.6H1600Z"
    opacity=".3"
  />
  <defs>
    <radialGradient
      id="a"
      cx="0"
      cy="0"
      r="1"
      gradientTransform="rotate(154 472.5 314.7) scale(1263.6 1361.5)"
      gradientUnits="userSpaceOnUse"
    >
      <stop offset=".4" stop-color="#404040" />
      <stop offset="1" />
    </radialGradient>
  </defs>
</svg>
