<svg
  width="1440"
  height="801"
  viewBox="0 0 1440 801"
  fill="none"
  xmlns="http://www.w3.org/2000/svg"
>
  <path
    opacity="0.3"
    d="M-742.986 1589.4H-743.986V-726.255H-742.986V1589.4ZM-667.406 1589.4H-668.406V-726.255H-667.406V1589.4ZM-591.825 1589.4H-592.825V-726.255H-591.825V1589.4ZM-516.245 -97.489H-441.665V-726.255H-440.665V-97.489H-366.084V-726.255H-365.084V-97.489H-290.504V-726.255H-289.504V-97.489H-214.923V-726.255H-213.923V-97.489H-139.343V-726.255H-138.343V-97.489H-63.7627V-726.255H-62.7627V-97.489H11.8184V-726.255H12.8184V-97.489H87.3984V-726.255H88.3984V-97.489H162.979V-726.255H163.979V-97.489H238.56V-726.255H239.56V-97.489H314.141V-726.255H315.141V-97.489H389.721V-726.255H390.721V-97.489H465.301V-726.255H466.301V-97.489H540.882V-726.255H541.882V-97.489H616.462V-726.255H617.462V-97.489H692.043V-726.255H693.043V-97.489H767.623V-726.255H768.623V-97.489H843.203V-726.255H844.203V-97.489H918.784V-726.255H919.784V-97.489H994.364V-726.255H995.364V-97.489H1069.95V-726.255H1070.95V-97.489H1145.53V-726.255H1146.53V-97.489H1221.11V-726.255H1222.11V-97.489H1296.69V-726.255H1297.69V-97.489H1372.27V-726.255H1373.27V-97.489H1447.85V-726.255H1448.85V-97.489H1523.43V-726.255H1524.43V-97.489H1599.01V-726.255H1600.01V-97.489H1674.59V-726.255H1675.59V-97.489H1734.04V-96.489H1675.59V-21.9089H1734.04V-20.9089H1675.59V53.6722H1734.04V54.6722H1675.59V129.252H1734.04V130.252H1675.59V204.832H1734.04V205.832H1675.59V280.413H1734.04V281.413H1675.59V355.993H1734.04V356.993H1675.59V431.575H1734.04V432.575H1675.59V507.155H1734.04V508.155H1675.59V582.736H1734.04V583.736H1675.59V658.316H1734.04V659.316H1675.59V733.896H1734.04V734.896H1675.59V809.477H1734.04V810.477H1675.59V885.057H1734.04V886.057H1675.59V960.638H1734.04V961.638H1675.59V1036.22H1734.04V1037.22H1675.59V1589.4H1674.59V1037.22H1600.01V1589.4H1599.01V1037.22H1524.43V1589.4H1523.43V1037.22H1448.85V1589.4H1447.85V1037.22H1373.27V1589.4H1372.27V1037.22H1297.69V1589.4H1296.69V1037.22H1222.11V1589.4H1221.11V1037.22H1146.53V1589.4H1145.53V1037.22H1070.95V1589.4H1069.95V1037.22H995.364V1589.4H994.364V1037.22H919.784V1589.4H918.784V1037.22H844.203V1589.4H843.203V1037.22H768.623V1589.4H767.623V1037.22H693.043V1589.4H692.043V1037.22H617.462V1589.4H616.462V1037.22H541.882V1589.4H540.882V1037.22H466.301V1589.4H465.301V1037.22H390.721V1589.4H389.721V1037.22H315.141V1589.4H314.141V1037.22H239.56V1589.4H238.56V1037.22H163.979V1589.4H162.979V1037.22H88.3984V1589.4H87.3984V1037.22H12.8184V1589.4H11.8184V1037.22H-62.7627V1589.4H-63.7627V1037.22H-138.343V1589.4H-139.343V1037.22H-213.923V1589.4H-214.923V1037.22H-289.504V1589.4H-290.504V1037.22H-365.084V1589.4H-366.084V1037.22H-440.665V1589.4H-441.665V1037.22H-516.245V1589.4H-517.245V1037.22H-581.621V1036.22H-517.245V961.638H-581.621V960.638H-517.245V886.057H-581.621V885.057H-517.245V810.477H-581.621V809.477H-517.245V734.896H-581.621V733.896H-517.245V659.316H-581.621V658.316H-517.245V583.736H-581.621V582.736H-517.245V508.155H-581.621V507.155H-517.245V432.575H-581.621V431.575H-517.245V356.993H-581.621V355.993H-517.245V281.413H-581.621V280.413H-517.245V205.832H-581.621V204.832H-517.245V130.252H-581.621V129.252H-517.245V54.6722H-581.621V53.6722H-517.245V-20.9089H-581.621V-21.9089H-517.245V-96.489H-581.621V-97.489H-517.245V-726.255H-516.245V-97.489ZM1751.17 1589.4H1750.17V-726.255H1751.17V1589.4ZM-516.245 961.638V1036.22H-441.665V961.638H-516.245ZM-440.665 961.638V1036.22H-366.084V961.638H-440.665ZM-365.084 961.638V1036.22H-290.504V961.638H-365.084ZM-289.504 961.638V1036.22H-214.923V961.638H-289.504ZM-213.923 961.638V1036.22H-139.343V961.638H-213.923ZM-138.343 961.638V1036.22H-63.7627V961.638H-138.343ZM-62.7627 961.638V1036.22H11.8184V961.638H-62.7627ZM12.8184 961.638V1036.22H87.3984V961.638H12.8184ZM88.3984 961.638V1036.22H162.979V961.638H88.3984ZM163.979 961.638V1036.22H238.56V961.638H163.979ZM239.56 961.638V1036.22H314.141V961.638H239.56ZM315.141 961.638V1036.22H389.721V961.638H315.141ZM390.721 961.638V1036.22H465.301V961.638H390.721ZM466.301 961.638V1036.22H540.882V961.638H466.301ZM541.882 961.638V1036.22H616.462V961.638H541.882ZM617.462 961.638V1036.22H692.043V961.638H617.462ZM693.043 961.638V1036.22H767.623V961.638H693.043ZM768.623 961.638V1036.22H843.203V961.638H768.623ZM844.203 961.638V1036.22H918.784V961.638H844.203ZM919.784 961.638V1036.22H994.364V961.638H919.784ZM995.364 961.638V1036.22H1069.95V961.638H995.364ZM1070.95 961.638V1036.22H1145.53V961.638H1070.95ZM1146.53 961.638V1036.22H1221.11V961.638H1146.53ZM1222.11 961.638V1036.22H1296.69V961.638H1222.11ZM1297.69 961.638V1036.22H1372.27V961.638H1297.69ZM1373.27 961.638V1036.22H1447.85V961.638H1373.27ZM1448.85 961.638V1036.22H1523.43V961.638H1448.85ZM1524.43 961.638V1036.22H1599.01V961.638H1524.43ZM1600.01 961.638V1036.22H1674.59V961.638H1600.01ZM-516.245 886.057V960.638H-441.665V886.057H-516.245ZM-440.665 886.057V960.638H-366.084V886.057H-440.665ZM-365.084 886.057V960.638H-290.504V886.057H-365.084ZM-289.504 886.057V960.638H-214.923V886.057H-289.504ZM-213.923 886.057V960.638H-139.343V886.057H-213.923ZM-138.343 886.057V960.638H-63.7627V886.057H-138.343ZM-62.7627 886.057V960.638H11.8184V886.057H-62.7627ZM12.8184 886.057V960.638H87.3984V886.057H12.8184ZM88.3984 886.057V960.638H162.979V886.057H88.3984ZM163.979 886.057V960.638H238.56V886.057H163.979ZM239.56 886.057V960.638H314.141V886.057H239.56ZM315.141 886.057V960.638H389.721V886.057H315.141ZM390.721 886.057V960.638H465.301V886.057H390.721ZM466.301 886.057V960.638H540.882V886.057H466.301ZM541.882 886.057V960.638H616.462V886.057H541.882ZM617.462 886.057V960.638H692.043V886.057H617.462ZM693.043 886.057V960.638H767.623V886.057H693.043ZM768.623 886.057V960.638H843.203V886.057H768.623ZM844.203 886.057V960.638H918.784V886.057H844.203ZM919.784 886.057V960.638H994.364V886.057H919.784ZM995.364 886.057V960.638H1069.95V886.057H995.364ZM1070.95 886.057V960.638H1145.53V886.057H1070.95ZM1146.53 886.057V960.638H1221.11V886.057H1146.53ZM1222.11 886.057V960.638H1296.69V886.057H1222.11ZM1297.69 886.057V960.638H1372.27V886.057H1297.69ZM1373.27 886.057V960.638H1447.85V886.057H1373.27ZM1448.85 886.057V960.638H1523.43V886.057H1448.85ZM1524.43 886.057V960.638H1599.01V886.057H1524.43ZM1600.01 886.057V960.638H1674.59V886.057H1600.01ZM-516.245 810.477V885.057H-441.665V810.477H-516.245ZM-440.665 810.477V885.057H-366.084V810.477H-440.665ZM-365.084 810.477V885.057H-290.504V810.477H-365.084ZM-289.504 810.477V885.057H-214.923V810.477H-289.504ZM-213.923 810.477V885.057H-139.343V810.477H-213.923ZM-138.343 810.477V885.057H-63.7627V810.477H-138.343ZM-62.7627 810.477V885.057H11.8184V810.477H-62.7627ZM12.8184 810.477V885.057H87.3984V810.477H12.8184ZM88.3984 810.477V885.057H162.979V810.477H88.3984ZM163.979 810.477V885.057H238.56V810.477H163.979ZM239.56 810.477V885.057H314.141V810.477H239.56ZM315.141 810.477V885.057H389.721V810.477H315.141ZM390.721 810.477V885.057H465.301V810.477H390.721ZM466.301 810.477V885.057H540.882V810.477H466.301ZM541.882 810.477V885.057H616.462V810.477H541.882ZM617.462 810.477V885.057H692.043V810.477H617.462ZM693.043 810.477V885.057H767.623V810.477H693.043ZM768.623 810.477V885.057H843.203V810.477H768.623ZM844.203 810.477V885.057H918.784V810.477H844.203ZM919.784 810.477V885.057H994.364V810.477H919.784ZM995.364 810.477V885.057H1069.95V810.477H995.364ZM1070.95 810.477V885.057H1145.53V810.477H1070.95ZM1146.53 810.477V885.057H1221.11V810.477H1146.53ZM1222.11 810.477V885.057H1296.69V810.477H1222.11ZM1297.69 810.477V885.057H1372.27V810.477H1297.69ZM1373.27 810.477V885.057H1447.85V810.477H1373.27ZM1448.85 810.477V885.057H1523.43V810.477H1448.85ZM1524.43 810.477V885.057H1599.01V810.477H1524.43ZM1600.01 810.477V885.057H1674.59V810.477H1600.01ZM-516.245 734.896V809.477H-441.665V734.896H-516.245ZM-440.665 734.896V809.477H-366.084V734.896H-440.665ZM-365.084 734.896V809.477H-290.504V734.896H-365.084ZM-289.504 734.896V809.477H-214.923V734.896H-289.504ZM-213.923 734.896V809.477H-139.343V734.896H-213.923ZM-138.343 734.896V809.477H-63.7627V734.896H-138.343ZM-62.7627 734.896V809.477H11.8184V734.896H-62.7627ZM12.8184 734.896V809.477H87.3984V734.896H12.8184ZM88.3984 734.896V809.477H162.979V734.896H88.3984ZM163.979 734.896V809.477H238.56V734.896H163.979ZM239.56 734.896V809.477H314.141V734.896H239.56ZM315.141 734.896V809.477H389.721V734.896H315.141ZM390.721 734.896V809.477H465.301V734.896H390.721ZM466.301 734.896V809.477H540.882V734.896H466.301ZM541.882 734.896V809.477H616.462V734.896H541.882ZM617.462 734.896V809.477H692.043V734.896H617.462ZM693.043 734.896V809.477H767.623V734.896H693.043ZM768.623 734.896V809.477H843.203V734.896H768.623ZM844.203 734.896V809.477H918.784V734.896H844.203ZM919.784 734.896V809.477H994.364V734.896H919.784ZM995.364 734.896V809.477H1069.95V734.896H995.364ZM1070.95 734.896V809.477H1145.53V734.896H1070.95ZM1146.53 734.896V809.477H1221.11V734.896H1146.53ZM1222.11 734.896V809.477H1296.69V734.896H1222.11ZM1297.69 734.896V809.477H1372.27V734.896H1297.69ZM1373.27 734.896V809.477H1447.85V734.896H1373.27ZM1448.85 734.896V809.477H1523.43V734.896H1448.85ZM1524.43 734.896V809.477H1599.01V734.896H1524.43ZM1600.01 734.896V809.477H1674.59V734.896H1600.01ZM-516.245 659.316V733.896H-441.665V659.316H-516.245ZM-440.665 659.316V733.896H-366.084V659.316H-440.665ZM-365.084 659.316V733.896H-290.504V659.316H-365.084ZM-289.504 659.316V733.896H-214.923V659.316H-289.504ZM-213.923 659.316V733.896H-139.343V659.316H-213.923ZM-138.343 659.316V733.896H-63.7627V659.316H-138.343ZM-62.7627 659.316V733.896H11.8184V659.316H-62.7627ZM12.8184 659.316V733.896H87.3984V659.316H12.8184ZM88.3984 659.316V733.896H162.979V659.316H88.3984ZM163.979 659.316V733.896H238.56V659.316H163.979ZM239.56 659.316V733.896H314.141V659.316H239.56ZM315.141 659.316V733.896H389.721V659.316H315.141ZM390.721 659.316V733.896H465.301V659.316H390.721ZM466.301 659.316V733.896H540.882V659.316H466.301ZM541.882 659.316V733.896H616.462V659.316H541.882ZM617.462 659.316V733.896H692.043V659.316H617.462ZM693.043 659.316V733.896H767.623V659.316H693.043ZM768.623 659.316V733.896H843.203V659.316H768.623ZM844.203 659.316V733.896H918.784V659.316H844.203ZM919.784 659.316V733.896H994.364V659.316H919.784ZM995.364 659.316V733.896H1069.95V659.316H995.364ZM1070.95 659.316V733.896H1145.53V659.316H1070.95ZM1146.53 659.316V733.896H1221.11V659.316H1146.53ZM1222.11 659.316V733.896H1296.69V659.316H1222.11ZM1297.69 659.316V733.896H1372.27V659.316H1297.69ZM1373.27 659.316V733.896H1447.85V659.316H1373.27ZM1448.85 659.316V733.896H1523.43V659.316H1448.85ZM1524.43 659.316V733.896H1599.01V659.316H1524.43ZM1600.01 659.316V733.896H1674.59V659.316H1600.01ZM-516.245 583.736V658.316H-441.665V583.736H-516.245ZM-440.665 583.736V658.316H-366.084V583.736H-440.665ZM-365.084 583.736V658.316H-290.504V583.736H-365.084ZM-289.504 583.736V658.316H-214.923V583.736H-289.504ZM-213.923 583.736V658.316H-139.343V583.736H-213.923ZM-138.343 583.736V658.316H-63.7627V583.736H-138.343ZM-62.7627 583.736V658.316H11.8184V583.736H-62.7627ZM12.8184 583.736V658.316H87.3984V583.736H12.8184ZM88.3984 583.736V658.316H162.979V583.736H88.3984ZM163.979 583.736V658.316H238.56V583.736H163.979ZM239.56 583.736V658.316H314.141V583.736H239.56ZM315.141 583.736V658.316H389.721V583.736H315.141ZM390.721 583.736V658.316H465.301V583.736H390.721ZM466.301 583.736V658.316H540.882V583.736H466.301ZM541.882 583.736V658.316H616.462V583.736H541.882ZM617.462 583.736V658.316H692.043V583.736H617.462ZM693.043 583.736V658.316H767.623V583.736H693.043ZM768.623 583.736V658.316H843.203V583.736H768.623ZM844.203 583.736V658.316H918.784V583.736H844.203ZM919.784 583.736V658.316H994.364V583.736H919.784ZM995.364 583.736V658.316H1069.95V583.736H995.364ZM1070.95 583.736V658.316H1145.53V583.736H1070.95ZM1146.53 583.736V658.316H1221.11V583.736H1146.53ZM1222.11 583.736V658.316H1296.69V583.736H1222.11ZM1297.69 583.736V658.316H1372.27V583.736H1297.69ZM1373.27 583.736V658.316H1447.85V583.736H1373.27ZM1448.85 583.736V658.316H1523.43V583.736H1448.85ZM1524.43 583.736V658.316H1599.01V583.736H1524.43ZM1600.01 583.736V658.316H1674.59V583.736H1600.01ZM-516.245 508.155V582.736H-441.665V508.155H-516.245ZM-440.665 508.155V582.736H-366.084V508.155H-440.665ZM-365.084 508.155V582.736H-290.504V508.155H-365.084ZM-289.504 508.155V582.736H-214.923V508.155H-289.504ZM-213.923 508.155V582.736H-139.343V508.155H-213.923ZM-138.343 508.155V582.736H-63.7627V508.155H-138.343ZM-62.7627 508.155V582.736H11.8184V508.155H-62.7627ZM12.8184 508.155V582.736H87.3984V508.155H12.8184ZM88.3984 508.155V582.736H162.979V508.155H88.3984ZM163.979 508.155V582.736H238.56V508.155H163.979ZM239.56 508.155V582.736H314.141V508.155H239.56ZM315.141 508.155V582.736H389.721V508.155H315.141ZM390.721 508.155V582.736H465.301V508.155H390.721ZM466.301 508.155V582.736H540.882V508.155H466.301ZM541.882 508.155V582.736H616.462V508.155H541.882ZM617.462 508.155V582.736H692.043V508.155H617.462ZM693.043 508.155V582.736H767.623V508.155H693.043ZM768.623 508.155V582.736H843.203V508.155H768.623ZM844.203 508.155V582.736H918.784V508.155H844.203ZM919.784 508.155V582.736H994.364V508.155H919.784ZM995.364 508.155V582.736H1069.95V508.155H995.364ZM1070.95 508.155V582.736H1145.53V508.155H1070.95ZM1146.53 508.155V582.736H1221.11V508.155H1146.53ZM1222.11 508.155V582.736H1296.69V508.155H1222.11ZM1297.69 508.155V582.736H1372.27V508.155H1297.69ZM1373.27 508.155V582.736H1447.85V508.155H1373.27ZM1448.85 508.155V582.736H1523.43V508.155H1448.85ZM1524.43 508.155V582.736H1599.01V508.155H1524.43ZM1600.01 508.155V582.736H1674.59V508.155H1600.01ZM-516.245 432.575V507.155H-441.665V432.575H-516.245ZM-440.665 432.575V507.155H-366.084V432.575H-440.665ZM-365.084 432.575V507.155H-290.504V432.575H-365.084ZM-289.504 432.575V507.155H-214.923V432.575H-289.504ZM-213.923 432.575V507.155H-139.343V432.575H-213.923ZM-138.343 432.575V507.155H-63.7627V432.575H-138.343ZM-62.7627 432.575V507.155H11.8184V432.575H-62.7627ZM12.8184 432.575V507.155H87.3984V432.575H12.8184ZM88.3984 432.575V507.155H162.979V432.575H88.3984ZM163.979 432.575V507.155H238.56V432.575H163.979ZM239.56 432.575V507.155H314.141V432.575H239.56ZM315.141 432.575V507.155H389.721V432.575H315.141ZM390.721 432.575V507.155H465.301V432.575H390.721ZM466.301 432.575V507.155H540.882V432.575H466.301ZM541.882 432.575V507.155H616.462V432.575H541.882ZM617.462 432.575V507.155H692.043V432.575H617.462ZM693.043 432.575V507.155H767.623V432.575H693.043ZM768.623 432.575V507.155H843.203V432.575H768.623ZM844.203 432.575V507.155H918.784V432.575H844.203ZM919.784 432.575V507.155H994.364V432.575H919.784ZM995.364 432.575V507.155H1069.95V432.575H995.364ZM1070.95 432.575V507.155H1145.53V432.575H1070.95ZM1146.53 432.575V507.155H1221.11V432.575H1146.53ZM1222.11 432.575V507.155H1296.69V432.575H1222.11ZM1297.69 432.575V507.155H1372.27V432.575H1297.69ZM1373.27 432.575V507.155H1447.85V432.575H1373.27ZM1448.85 432.575V507.155H1523.43V432.575H1448.85ZM1524.43 432.575V507.155H1599.01V432.575H1524.43ZM1600.01 432.575V507.155H1674.59V432.575H1600.01ZM-516.245 356.993V431.575H-441.665V356.993H-516.245ZM-440.665 356.993V431.575H-366.084V356.993H-440.665ZM-365.084 356.993V431.575H-290.504V356.993H-365.084ZM-289.504 356.993V431.575H-214.923V356.993H-289.504ZM-213.923 356.993V431.575H-139.343V356.993H-213.923ZM-138.343 356.993V431.575H-63.7627V356.993H-138.343ZM-62.7627 356.993V431.575H11.8184V356.993H-62.7627ZM12.8184 356.993V431.575H87.3984V356.993H12.8184ZM88.3984 356.993V431.575H162.979V356.993H88.3984ZM163.979 356.993V431.575H238.56V356.993H163.979ZM239.56 356.993V431.575H314.141V356.993H239.56ZM315.141 356.993V431.575H389.721V356.993H315.141ZM390.721 356.993V431.575H465.301V356.993H390.721ZM466.301 356.993V431.575H540.882V356.993H466.301ZM541.882 356.993V431.575H616.462V356.993H541.882ZM617.462 356.993V431.575H692.043V356.993H617.462ZM693.043 356.993V431.575H767.623V356.993H693.043ZM768.623 356.993V431.575H843.203V356.993H768.623ZM844.203 356.993V431.575H918.784V356.993H844.203ZM919.784 356.993V431.575H994.364V356.993H919.784ZM995.364 356.993V431.575H1069.95V356.993H995.364ZM1070.95 356.993V431.575H1145.53V356.993H1070.95ZM1146.53 356.993V431.575H1221.11V356.993H1146.53ZM1222.11 356.993V431.575H1296.69V356.993H1222.11ZM1297.69 356.993V431.575H1372.27V356.993H1297.69ZM1373.27 356.993V431.575H1447.85V356.993H1373.27ZM1448.85 356.993V431.575H1523.43V356.993H1448.85ZM1524.43 356.993V431.575H1599.01V356.993H1524.43ZM1600.01 356.993V431.575H1674.59V356.993H1600.01ZM-516.245 281.413V355.993H-441.665V281.413H-516.245ZM-440.665 281.413V355.993H-366.084V281.413H-440.665ZM-365.084 281.413V355.993H-290.504V281.413H-365.084ZM-289.504 281.413V355.993H-214.923V281.413H-289.504ZM-213.923 281.413V355.993H-139.343V281.413H-213.923ZM-138.343 281.413V355.993H-63.7627V281.413H-138.343ZM-62.7627 281.413V355.993H11.8184V281.413H-62.7627ZM12.8184 281.413V355.993H87.3984V281.413H12.8184ZM88.3984 281.413V355.993H162.979V281.413H88.3984ZM163.979 281.413V355.993H238.56V281.413H163.979ZM239.56 281.413V355.993H314.141V281.413H239.56ZM315.141 281.413V355.993H389.721V281.413H315.141ZM390.721 281.413V355.993H465.301V281.413H390.721ZM466.301 281.413V355.993H540.882V281.413H466.301ZM541.882 281.413V355.993H616.462V281.413H541.882ZM617.462 281.413V355.993H692.043V281.413H617.462ZM693.043 281.413V355.993H767.623V281.413H693.043ZM768.623 281.413V355.993H843.203V281.413H768.623ZM844.203 281.413V355.993H918.784V281.413H844.203ZM919.784 281.413V355.993H994.364V281.413H919.784ZM995.364 281.413V355.993H1069.95V281.413H995.364ZM1070.95 281.413V355.993H1145.53V281.413H1070.95ZM1146.53 281.413V355.993H1221.11V281.413H1146.53ZM1222.11 281.413V355.993H1296.69V281.413H1222.11ZM1297.69 281.413V355.993H1372.27V281.413H1297.69ZM1373.27 281.413V355.993H1447.85V281.413H1373.27ZM1448.85 281.413V355.993H1523.43V281.413H1448.85ZM1524.43 281.413V355.993H1599.01V281.413H1524.43ZM1600.01 281.413V355.993H1674.59V281.413H1600.01ZM-516.245 205.832V280.413H-441.665V205.832H-516.245ZM-440.665 205.832V280.413H-366.084V205.832H-440.665ZM-365.084 205.832V280.413H-290.504V205.832H-365.084ZM-289.504 205.832V280.413H-214.923V205.832H-289.504ZM-213.923 205.832V280.413H-139.343V205.832H-213.923ZM-138.343 205.832V280.413H-63.7627V205.832H-138.343ZM-62.7627 205.832V280.413H11.8184V205.832H-62.7627ZM12.8184 205.832V280.413H87.3984V205.832H12.8184ZM88.3984 205.832V280.413H162.979V205.832H88.3984ZM163.979 205.832V280.413H238.56V205.832H163.979ZM239.56 205.832V280.413H314.141V205.832H239.56ZM315.141 205.832V280.413H389.721V205.832H315.141ZM390.721 205.832V280.413H465.301V205.832H390.721ZM466.301 205.832V280.413H540.882V205.832H466.301ZM541.882 205.832V280.413H616.462V205.832H541.882ZM617.462 205.832V280.413H692.043V205.832H617.462ZM693.043 205.832V280.413H767.623V205.832H693.043ZM768.623 205.832V280.413H843.203V205.832H768.623ZM844.203 205.832V280.413H918.784V205.832H844.203ZM919.784 205.832V280.413H994.364V205.832H919.784ZM995.364 205.832V280.413H1069.95V205.832H995.364ZM1070.95 205.832V280.413H1145.53V205.832H1070.95ZM1146.53 205.832V280.413H1221.11V205.832H1146.53ZM1222.11 205.832V280.413H1296.69V205.832H1222.11ZM1297.69 205.832V280.413H1372.27V205.832H1297.69ZM1373.27 205.832V280.413H1447.85V205.832H1373.27ZM1448.85 205.832V280.413H1523.43V205.832H1448.85ZM1524.43 205.832V280.413H1599.01V205.832H1524.43ZM1600.01 205.832V280.413H1674.59V205.832H1600.01ZM-516.245 130.252V204.832H-441.665V130.252H-516.245ZM-440.665 130.252V204.832H-366.084V130.252H-440.665ZM-365.084 130.252V204.832H-290.504V130.252H-365.084ZM-289.504 130.252V204.832H-214.923V130.252H-289.504ZM-213.923 130.252V204.832H-139.343V130.252H-213.923ZM-138.343 130.252V204.832H-63.7627V130.252H-138.343ZM-62.7627 130.252V204.832H11.8184V130.252H-62.7627ZM12.8184 130.252V204.832H87.3984V130.252H12.8184ZM88.3984 130.252V204.832H162.979V130.252H88.3984ZM163.979 130.252V204.832H238.56V130.252H163.979ZM239.56 130.252V204.832H314.141V130.252H239.56ZM315.141 130.252V204.832H389.721V130.252H315.141ZM390.721 130.252V204.832H465.301V130.252H390.721ZM466.301 130.252V204.832H540.882V130.252H466.301ZM541.882 130.252V204.832H616.462V130.252H541.882ZM617.462 130.252V204.832H692.043V130.252H617.462ZM693.043 130.252V204.832H767.623V130.252H693.043ZM768.623 130.252V204.832H843.203V130.252H768.623ZM844.203 130.252V204.832H918.784V130.252H844.203ZM919.784 130.252V204.832H994.364V130.252H919.784ZM995.364 130.252V204.832H1069.95V130.252H995.364ZM1070.95 130.252V204.832H1145.53V130.252H1070.95ZM1146.53 130.252V204.832H1221.11V130.252H1146.53ZM1222.11 130.252V204.832H1296.69V130.252H1222.11ZM1297.69 130.252V204.832H1372.27V130.252H1297.69ZM1373.27 130.252V204.832H1447.85V130.252H1373.27ZM1448.85 130.252V204.832H1523.43V130.252H1448.85ZM1524.43 130.252V204.832H1599.01V130.252H1524.43ZM1600.01 130.252V204.832H1674.59V130.252H1600.01ZM-516.245 54.6722V129.252H-441.665V54.6722H-516.245ZM-440.665 54.6722V129.252H-366.084V54.6722H-440.665ZM-365.084 54.6722V129.252H-290.504V54.6722H-365.084ZM-289.504 54.6722V129.252H-214.923V54.6722H-289.504ZM-213.923 54.6722V129.252H-139.343V54.6722H-213.923ZM-138.343 54.6722V129.252H-63.7627V54.6722H-138.343ZM-62.7627 54.6722V129.252H11.8184V54.6722H-62.7627ZM12.8184 54.6722V129.252H87.3984V54.6722H12.8184ZM88.3984 54.6722V129.252H162.979V54.6722H88.3984ZM163.979 54.6722V129.252H238.56V54.6722H163.979ZM239.56 54.6722V129.252H314.141V54.6722H239.56ZM315.141 54.6722V129.252H389.721V54.6722H315.141ZM390.721 54.6722V129.252H465.301V54.6722H390.721ZM466.301 54.6722V129.252H540.882V54.6722H466.301ZM541.882 54.6722V129.252H616.462V54.6722H541.882ZM617.462 54.6722V129.252H692.043V54.6722H617.462ZM693.043 54.6722V129.252H767.623V54.6722H693.043ZM768.623 54.6722V129.252H843.203V54.6722H768.623ZM844.203 54.6722V129.252H918.784V54.6722H844.203ZM919.784 54.6722V129.252H994.364V54.6722H919.784ZM995.364 54.6722V129.252H1069.95V54.6722H995.364ZM1070.95 54.6722V129.252H1145.53V54.6722H1070.95ZM1146.53 54.6722V129.252H1221.11V54.6722H1146.53ZM1222.11 54.6722V129.252H1296.69V54.6722H1222.11ZM1297.69 54.6722V129.252H1372.27V54.6722H1297.69ZM1373.27 54.6722V129.252H1447.85V54.6722H1373.27ZM1448.85 54.6722V129.252H1523.43V54.6722H1448.85ZM1524.43 54.6722V129.252H1599.01V54.6722H1524.43ZM1600.01 54.6722V129.252H1674.59V54.6722H1600.01ZM-516.245 -20.9089V53.6722H-441.665V-20.9089H-516.245ZM-440.665 -20.9089V53.6722H-366.084V-20.9089H-440.665ZM-365.084 -20.9089V53.6722H-290.504V-20.9089H-365.084ZM-289.504 -20.9089V53.6722H-214.923V-20.9089H-289.504ZM-213.923 -20.9089V53.6722H-139.343V-20.9089H-213.923ZM-138.343 -20.9089V53.6722H-63.7627V-20.9089H-138.343ZM-62.7627 -20.9089V53.6722H11.8184V-20.9089H-62.7627ZM12.8184 -20.9089V53.6722H87.3984V-20.9089H12.8184ZM88.3984 -20.9089V53.6722H162.979V-20.9089H88.3984ZM163.979 -20.9089V53.6722H238.56V-20.9089H163.979ZM239.56 -20.9089V53.6722H314.141V-20.9089H239.56ZM315.141 -20.9089V53.6722H389.721V-20.9089H315.141ZM390.721 -20.9089V53.6722H465.301V-20.9089H390.721ZM466.301 -20.9089V53.6722H540.882V-20.9089H466.301ZM541.882 -20.9089V53.6722H616.462V-20.9089H541.882ZM617.462 -20.9089V53.6722H692.043V-20.9089H617.462ZM693.043 -20.9089V53.6722H767.623V-20.9089H693.043ZM768.623 -20.9089V53.6722H843.203V-20.9089H768.623ZM844.203 -20.9089V53.6722H918.784V-20.9089H844.203ZM919.784 -20.9089V53.6722H994.364V-20.9089H919.784ZM995.364 -20.9089V53.6722H1069.95V-20.9089H995.364ZM1070.95 -20.9089V53.6722H1145.53V-20.9089H1070.95ZM1146.53 -20.9089V53.6722H1221.11V-20.9089H1146.53ZM1222.11 -20.9089V53.6722H1296.69V-20.9089H1222.11ZM1297.69 -20.9089V53.6722H1372.27V-20.9089H1297.69ZM1373.27 -20.9089V53.6722H1447.85V-20.9089H1373.27ZM1448.85 -20.9089V53.6722H1523.43V-20.9089H1448.85ZM1524.43 -20.9089V53.6722H1599.01V-20.9089H1524.43ZM1600.01 -20.9089V53.6722H1674.59V-20.9089H1600.01ZM-516.245 -96.489V-21.9089H-441.665V-96.489H-516.245ZM-440.665 -96.489V-21.9089H-366.084V-96.489H-440.665ZM-365.084 -96.489V-21.9089H-290.504V-96.489H-365.084ZM-289.504 -96.489V-21.9089H-214.923V-96.489H-289.504ZM-213.923 -96.489V-21.9089H-139.343V-96.489H-213.923ZM-138.343 -96.489V-21.9089H-63.7627V-96.489H-138.343ZM-62.7627 -96.489V-21.9089H11.8184V-96.489H-62.7627ZM12.8184 -96.489V-21.9089H87.3984V-96.489H12.8184ZM88.3984 -96.489V-21.9089H162.979V-96.489H88.3984ZM163.979 -96.489V-21.9089H238.56V-96.489H163.979ZM239.56 -96.489V-21.9089H314.141V-96.489H239.56ZM315.141 -96.489V-21.9089H389.721V-96.489H315.141ZM390.721 -96.489V-21.9089H465.301V-96.489H390.721ZM466.301 -96.489V-21.9089H540.882V-96.489H466.301ZM541.882 -96.489V-21.9089H616.462V-96.489H541.882ZM617.462 -96.489V-21.9089H692.043V-96.489H617.462ZM693.043 -96.489V-21.9089H767.623V-96.489H693.043ZM768.623 -96.489V-21.9089H843.203V-96.489H768.623ZM844.203 -96.489V-21.9089H918.784V-96.489H844.203ZM919.784 -96.489V-21.9089H994.364V-96.489H919.784ZM995.364 -96.489V-21.9089H1069.95V-96.489H995.364ZM1070.95 -96.489V-21.9089H1145.53V-96.489H1070.95ZM1146.53 -96.489V-21.9089H1221.11V-96.489H1146.53ZM1222.11 -96.489V-21.9089H1296.69V-96.489H1222.11ZM1297.69 -96.489V-21.9089H1372.27V-96.489H1297.69ZM1373.27 -96.489V-21.9089H1447.85V-96.489H1373.27ZM1448.85 -96.489V-21.9089H1523.43V-96.489H1448.85ZM1524.43 -96.489V-21.9089H1599.01V-96.489H1524.43ZM1600.01 -96.489V-21.9089H1674.59V-96.489H1600.01Z"
    fill="url(#paint0_radial_881_1666)"
  />
  <defs>
    <radialGradient
      id="paint0_radial_881_1666"
      cx="0"
      cy="0"
      r="1"
      gradientUnits="userSpaceOnUse"
      gradientTransform="translate(1035.11 390.954) rotate(154.049) scale(1263.56 1361.51)"
    >
      <stop offset="0.354622" stop-color="#404040" />
      <stop offset="1" />
    </radialGradient>
  </defs>
</svg>
