<svg
  width="49"
  height="49"
  viewBox="0 0 49 49"
  fill="none"
  xmlns="http://www.w3.org/2000/svg"
>
  <path
    d="M31.8032 26.6472C31.0172 26.6476 30.2404 26.8152 29.5249 27.1387C28.8093 27.4623 28.1716 27.9343 27.6544 28.5231L25.0547 26.6914C25.3306 25.9346 25.4897 25.1237 25.4897 24.2738C25.4897 23.4378 25.3372 22.6407 25.0706 21.8945L27.665 20.0826C28.1822 20.6683 28.819 21.1376 29.5329 21.4592C30.2469 21.7807 31.0215 21.9471 31.8052 21.9472C34.8558 21.9472 37.3387 19.4788 37.3387 16.4416C37.3387 13.4051 34.8558 10.936 31.8052 10.936C30.9446 10.9373 30.0961 11.1381 29.3271 11.5225C28.5581 11.9069 27.8897 12.4643 27.375 13.1505C26.8602 13.8366 26.5132 14.6327 26.3615 15.4756C26.2098 16.3184 26.2576 17.1848 26.5011 18.0061L23.9054 19.8186C22.7979 18.4525 21.2221 17.5419 19.4807 17.2618V14.1494C20.7222 13.8877 21.8358 13.2101 22.6356 12.2298C23.4354 11.2495 23.8728 10.0258 23.8749 8.76319C23.8749 5.72599 21.392 3.25757 18.3413 3.25757C15.2907 3.25757 12.8098 5.72599 12.8098 8.76319C12.8117 10.0082 13.2374 11.2158 14.0174 12.1894C14.7974 13.1629 15.8858 13.8449 17.1052 14.1243V17.2776C15.4517 17.5685 13.9538 18.4287 12.8736 19.7078C11.7935 20.9868 11.1999 22.6032 11.1969 24.2738C11.2 25.9533 11.8 27.5777 12.8907 28.8596C13.9813 30.1415 15.4925 30.9983 17.1569 31.2786V34.6074C15.9264 34.878 14.8254 35.5578 14.0355 36.5347C13.2455 37.5116 12.8139 38.7272 12.8118 39.981C12.8098 43.0182 15.2907 45.4867 18.3413 45.4867C21.392 45.4867 23.8749 43.0182 23.8749 39.981C23.8731 38.7271 23.4416 37.5113 22.6516 36.5343C21.8617 35.5574 20.7604 34.8776 19.5298 34.6074V31.2786C21.2387 30.9917 22.7848 30.0969 23.8802 28.7606L26.4978 30.6042C26.3483 31.107 26.2722 31.6285 26.2716 32.1528C26.2716 35.188 28.7546 37.6584 31.8052 37.6584C34.8558 37.6584 37.3387 35.19 37.3387 32.1528C37.3387 29.1156 34.8538 26.6472 31.8032 26.6472ZM31.8032 13.7739C32.5145 13.7748 33.1964 14.0564 33.6993 14.5569C34.2022 15.0574 34.4851 15.7359 34.4858 16.4436C34.4849 17.1512 34.202 17.8296 33.6991 18.3299C33.1962 18.8303 32.5144 19.1117 31.8032 19.1126C31.0921 19.1114 30.4105 18.8298 29.9077 18.3295C29.4049 17.8293 29.1219 17.1511 29.1206 16.4436C29.1219 15.7361 29.4049 15.0579 29.9077 14.5577C30.4105 14.0574 31.0921 13.7758 31.8032 13.7746V13.7739ZM15.6588 8.76385C15.6597 8.05625 15.9426 7.37788 16.4455 6.87753C16.9484 6.37719 17.6302 6.09571 18.3413 6.09484C19.0527 6.09553 19.7346 6.37694 20.2377 6.8773C20.7407 7.37767 21.0237 8.05613 21.0246 8.76385C21.0237 9.47156 20.7407 10.15 20.2377 10.6504C19.7346 11.1508 19.0527 11.4322 18.3413 11.4329C17.6302 11.432 16.9484 11.1505 16.4455 10.6502C15.9426 10.1498 15.6597 9.47144 15.6588 8.76385ZM21.0239 39.9817C21.023 40.6893 20.7401 41.3677 20.2372 41.868C19.7343 42.3684 19.0525 42.6498 18.3413 42.6507C17.6302 42.6498 16.9484 42.3684 16.4455 41.868C15.9426 41.3677 15.6597 40.6893 15.6588 39.9817C15.6597 39.2741 15.9426 38.5957 16.4455 38.0954C16.9484 37.595 17.6302 37.3136 18.3413 37.3127C19.0527 37.3134 19.7346 37.5948 20.2377 38.0952C20.7407 38.5955 21.0237 39.274 21.0246 39.9817H21.0239ZM18.3413 27.9972C17.3493 27.9962 16.3982 27.6036 15.6968 26.9057C14.9953 26.2078 14.6008 25.2615 14.5997 24.2745C14.6006 23.2873 14.995 22.3409 15.6965 21.6428C16.398 20.9447 17.3492 20.5521 18.3413 20.551C19.3336 20.5519 20.285 20.9445 20.9866 21.6426C21.6882 22.3407 22.0828 23.2872 22.0837 24.2745C22.0826 25.2616 21.688 26.208 20.9864 26.9059C20.2847 27.6039 19.3335 27.9963 18.3413 27.9972ZM31.8032 34.8225C31.092 34.8216 30.4102 34.5401 29.9073 34.0398C29.4044 33.5394 29.1215 32.8611 29.1206 32.1535C29.1215 31.4459 29.4044 30.7675 29.9073 30.2672C30.4102 29.7668 31.092 29.4853 31.8032 29.4845C32.5144 29.4853 33.1962 29.7668 33.6991 30.2672C34.202 30.7675 34.4849 31.4459 34.4858 32.1535C34.4849 32.8611 34.202 33.5394 33.6991 34.0398C33.1962 34.5401 32.5144 34.8216 31.8032 34.8225Z"
    fill="#D9D9D9"
  />
</svg>
