<svg xmlns="http://www.w3.org/2000/svg" fill="none" viewBox="0 0 516 211">
  <style>
    @keyframes shake {
      0%,
      to {
        transform: translate(0, 0) rotate(0deg);
      }
      10% {
        transform: translate(-10px, -5px) rotate(-0.8deg);
      }
      20% {
        transform: translate(10px, 5px) rotate(0.8deg);
      }
      30% {
        transform: translate(-2px, 2px) rotate(-0.6deg);
      }
      40% {
        transform: translate(2px, -2px) rotate(0.6deg);
      }
      50% {
        transform: translate(-2.5px, 2.5px) rotate(-1deg);
      }
      60% {
        transform: translate(2.5px, -2.5px) rotate(1deg);
      }
      70% {
        transform: translate(-1.5px, -1.5px) rotate(-0.4deg);
      }
      80% {
        transform: translate(1.5px, 1.5px) rotate(0.4deg);
      }
      90% {
        transform: translate(-1px, 1px) rotate(-0.3deg);
      }
    }
    .shake-item {
      animation: shake 5s ease-in-out infinite;
      transform-origin: center;
      will-change: transform;
    }
  </style>
  <g
    class="shake-item"
    opacity=".5"
    style="animation-delay: 0s; animation-duration: 4.6s"
  >
    <path
      stroke="url(#paint0_linear_0_1)"
      stroke-dasharray="1.76 1.76"
      stroke-opacity=".5"
      stroke-width=".6"
      d="m131.6-30.6 1.6 1-.2.2 1.5.9.2-.3 1.5.9-.1.3 1.5.8.1-.2 1.6.9-.2.2 1.6.9.1-.3 1.5 1-.1.2 1.5.9.2-.3 1.5.9-.1.3 1.5.8.1-.2 1.6.9-.2.2 1.5.9.2-.3 1.5 1-.1.2 1.5.9.2-.3 1.5.9-.2.3 1.6.8.1-.2 1.5.9-.1.2.6.4v.7h.3v1.8h-.3v1.7h.3v1.8h-.3v1.8h.3v1.7h-.3v1.8h.3v1.8h-.3v1.7h.3v1.8h-.3v1.8h.3v1.7h-.3V7h.3v1.8h-.3v1.7h.3v1.8h-.3V14h.3v1.7h-.3v1.8h.3v1.8h-.3V21h.3v2h-.3v1.8h.3v1.7h-.3v1.8h.3V30h-.3v1.7h.3v1.8h-.3v1.8h.3V37h-.3v1.8h.3v1.8h-.3v1.7h.3v1.8h-.3v.7l-.6.4.1.2-1.5 1-.1-.3-1.6.8.2.3-1.5.9-.2-.3-1.5 1 .1.2-1.5.8-.2-.2-1.5.9.2.2-1.6 1-.1-.3-1.5.8.1.3-1.5.9-.2-.3-1.5 1 .1.2-1.5.8-.1-.2-1.6.9.2.2-1.6 1-.1-.3-1.5.8.1.3-1.5.9-.2-.3-1.5 1 .2.2-1.6.8-.1-.2-1.5.9.1.2-1.5 1-.2-.3-1.5.8.1.3-1.5.9-.1-.3-1.6 1 .2.2-1.6.8-.1-.2-1.5.9.1.2-1.5 1-.2-.3-1.5.8.2.3-1.6.9-.1-.3-1.6 1 .2.2-1.5.8-.2-.2-1.5.9.1.2-1.5 1-.1-.3-1.6.8.2.3-1.6.9-.1-.3-.6.4-.6-.4-.2.3-1.5-.9.1-.3-1.5-.8-.1.2-1.6-.9.2-.2-1.6-1-.1.3-1.5-.8.1-.3-1.5-.9-.2.3-1.5-1 .1-.2-1.5-.8-.1.2-1.6-.9.2-.2-1.5-1-.2.3-1.5-.8.1-.3-1.5-.9-.1.3-1.6-1 .2-.2-1.6-.8-.1.2-1.5-.9.1-.2-1.5-1-.2.3-1.5-.8.1-.3-1.5-.9-.1.3-1.6-1 .2-.2-1.5-.8-.2.2-1.5-.9.1-.2-1.5-1-.2.3-1.5-.8.2-.3-1.6-.9-.1.3-1.5-1 .1-.2-1.5-.8-.2.2-1.5-.9.1-.2-1.5-1-.1.3-1.6-.8.2-.3-1.5-.9-.2.3-1.5-1 .1-.2-1.5-.8-.2.2-1.5-.9.2-.2-.7-.4v-.7h-.2v-1.8h.2v-1.7h-.2v-1.8h.2V37h-.2v-1.7h.2v-1.8h-.2v-1.8h.2V30h-.2v-1.8h.2v-1.8h-.2v-1.7h.2v-1.8h-.2v-1.8h.2v-1.7h-.2v-1.8h.2v-1.8h-.2v-1.7h.2v-1.8h-.2v-1.8h.2V8.8h-.2V7h.2V5.2h-.2V3.5h.2V1.7h-.2V-.1h.2v-1.7h-.2v-1.8h.2v-1.8h-.2V-7h.2v-2h-.2v-1.8h.2v-1.7h-.2v-1.8h.2v-.7l.7-.4-.2-.2 1.5-1 .2.3 1.5-.8-.1-.3 1.5-.9.2.3 1.5-1-.2-.2 1.6-.9.1.3 1.5-.9-.1-.2 1.5-1 .2.3 1.5-.8-.1-.3 1.5-.9.1.3 1.6-1-.2-.2 1.5-.9.2.3 1.5-.9-.1-.2 1.5-1 .2.3 1.5-.8-.2-.3 1.6-.9.1.3 1.5-1-.1-.2 1.5-.9.2.3 1.5-.9-.1-.2 1.5-1 .1.3L86-33l-.2-.2 1.6-.9.1.3 1.5-1-.1-.2 1.5-.9.2.3 1.5-.9-.2-.2 1.6-1 .1.3 1.5-.9-.1-.2 1.5-.9.2.3 1.5-1-.1-.2 1.5-.9.1.3 1.6-.9-.2-.2 1.6-1 .1.3 1.5-.9-.1-.2 1.5-.9.2.3.6-.4.6.4.1-.3 1.6.9-.2.2 1.6 1 .1-.3 1.5.9-.1.2 1.5.9.2-.3 1.5 1-.2.2 1.6.9.1-.3 1.6.9-.2.2 1.5 1 .2-.3 1.5.9-.1.2 1.5.9.1-.3 1.6 1-.2.2 1.6.9.1-.3 1.5.9-.1.2 1.5 1 .2-.3 1.5.9-.1.2 1.5.9.1-.3Z"
    />
  </g>
  <g
    class="shake-item"
    opacity=".5"
    style="animation-delay: 0.3s; animation-duration: 5.2s"
  >
    <path
      stroke="#fff"
      stroke-dasharray="1.76 1.76"
      stroke-opacity=".5"
      stroke-width=".6"
      d="m428.8-32.3 1.5.9-.1.2 1.5 1 .1-.3 1.6.8-.2.3 1.6.9.1-.3 1.5 1-.1.2 1.5.8.2-.2 1.5.9-.1.2 1.5 1 .1-.3 1.6.8-.2.3 1.5.9.2-.3 1.5 1-.1.2 1.5.8.1-.2 1.6.9-.2.2 1.6 1 .1-.3 1.5.8-.1.3 1.5.9.2-.3 1.5 1-.1.2.6.3v.7h.3v1.8h-.3v1.8h.3v1.7h-.3v1.8h.3v1.8h-.3v1.7h.3v1.8h-.3v1.8h.3v1.7h-.3v1.8h.3v1.8h-.3v1.7h.3V7h-.3v1.8h.3v1.7h-.3v1.8h.3v1.8h-.3v1.7h.3v1.8h-.3v1.8h.3V21h-.3v2h.3v1.8h-.3v1.7h.3v1.8h-.3V30h.3v1.7h-.3v1.8h.3v1.8h-.3V37h.3v1.8h-.3v1.8h.3v1.7h-.3v.8l-.6.3.1.3-1.5.9-.2-.3-1.5.9.1.2-1.5 1-.1-.3-1.6.8.2.3-1.6.9-.1-.3-1.5 1 .1.2-1.5.9-.2-.3-1.5.9.2.2-1.6 1-.1-.3-1.5.8.1.3-1.5.9-.2-.3-1.5 1 .1.2-1.5.9-.1-.3-1.6.9.2.2-1.6 1-.1-.3-1.5.8.1.3-1.5.9-.2-.3-1.5 1 .2.2-1.6.9-.1-.3-1.6.9.2.2-1.5 1-.2-.3-1.5.9.1.2-1.5.9-.1-.3-1.6 1 .2.2-1.6.9-.1-.3-1.5.9.1.2-1.5 1-.2-.3-1.5.9.2.2-1.6.9-.1-.3-1.6 1 .2.2-1.5.9-.2-.3-1.5.9.1.2-1.5 1-.1-.3-.7.3-.6-.3-.1.2-1.6-.9.2-.2-1.5-.9-.2.3-1.5-1 .1-.2-1.5-.9-.1.3-1.6-.9.2-.2-1.6-1-.1.3-1.5-.9.1-.2-1.5-.9-.2.3-1.5-1 .1-.2-1.5-.9-.1.3-1.6-.9.2-.2-1.5-1-.2.3-1.5-.9.1-.2-1.5-.9-.2.3-1.5-1 .2-.2-1.6-.9-.1.3-1.5-.9.1-.3-1.5-.8-.2.2-1.5-.9.1-.2-1.5-.9-.1.3-1.6-1 .2-.2-1.5-.9-.2.3-1.5-.9.1-.3-1.5-.8-.2.2-1.5-.9.2-.2-1.6-.9-.1.3-1.5-1 .1-.2-1.5-.9-.2.3-1.5-.9.1-.3-1.5-.8-.1.2-1.6-.9.2-.2-1.5-.9-.2.2-1.5-.8.1-.3-.6-.3v-.8h-.3v-1.7h.3v-1.8h-.3V37h.3v-1.7h-.3v-1.8h.3v-1.8h-.3V30h.3v-1.8h-.3v-1.8h.3v-1.7h-.3v-1.8h.3v-1.8h-.3v-1.7h.3v-1.8h-.3v-1.8h.3v-1.7h-.3v-1.8h.3v-1.8h-.3V8.8h.3V7h-.3V5.2h.3V3.5h-.3V1.7h.3V-.1h-.3v-1.7h.3v-1.8h-.3v-1.8h.3V-7h-.3v-2h.3v-1.8h-.3v-1.7h.3v-1.8h-.3V-16h.3v-.7l.6-.3-.1-.3 1.5-.9.2.3 1.5-1-.2-.2 1.6-.8.1.2 1.5-.9-.1-.2 1.5-1 .2.3 1.5-.8-.1-.3 1.5-.9.1.3 1.6-1-.2-.2 1.5-.8.2.2 1.5-.9-.1-.2 1.5-1 .2.3 1.5-.8-.2-.3 1.6-.9.1.3 1.5-1-.1-.2 1.5-.8.2.2 1.5-.9-.1-.2 1.5-1 .1.3 1.6-.8-.2-.3 1.5-.9.2.3 1.5-1-.1-.2 1.5-.8.2.2 1.5-.9-.2-.2 1.6-1 .1.3 1.5-.8-.1-.3 1.5-.9.2.3 1.5-1-.1-.2 1.5-.8.1.2 1.6-.9-.2-.2 1.6-1 .1.3 1.5-.8-.1-.3 1.5-.9.2.3 1.5-1-.2-.2 1.6-.8.1.2.6-.4.7.4.1-.2 1.5.8-.1.3 1.5.9.2-.3 1.5.9-.2.3 1.6.8.1-.2 1.6.9-.2.2 1.5 1 .2-.3 1.5.8-.1.3 1.5.9.1-.3 1.6.9-.2.3 1.6.8.1-.2 1.5.9-.1.2 1.5 1 .2-.3 1.5.8-.2.3 1.6.9.1-.3 1.6.9-.2.3 1.5.8.2-.2Z"
    />
  </g>
  <g
    class="shake-item"
    opacity=".3"
    style="animation-delay: 0.6s; animation-duration: 4.8s"
  >
    <path
      stroke="url(#paint1_linear_0_1)"
      stroke-opacity=".8"
      stroke-width=".6"
      d="M605.9 71.8v59.8l-51.7 29.8-51.8-29.8V71.8L554.2 42l51.7 29.8Z"
    />
  </g>
  <g
    class="shake-item"
    opacity=".3"
    style="animation-delay: 0.9s; animation-duration: 5.4s"
  >
    <path
      stroke="url(#paint2_linear_0_1)"
      stroke-opacity=".5"
      stroke-width=".6"
      d="M531.5 203.1v59.7l-51.8 30-51.7-30v-59.7l51.7-29.9 51.8 30Z"
    />
  </g>
  <g class="shake-item" style="animation-delay: 1.2s; animation-duration: 5s">
    <path
      id="Polygon 108"
      stroke="#fff"
      stroke-dasharray="1.76 1.76"
      stroke-opacity=".6"
      stroke-width=".6"
      d="m387.2 12.8 1.5.9-.1.3 1.5.8.1-.2 1.6.9-.2.2 1.5 1 .2-.3 1.5.8-.1.3 1.5.9.2-.3 1.5.9-.2.3 1.6.8.1-.2 1.5.9-.1.2 1.5 1 .2-.3 1.5.8-.1.3 1.5.9.1-.3 1.6.9-.2.3 1.5.8.2-.2 1.5.9-.1.2 1.5 1 .2-.3 1.5.8-.2.3.7.3v.8h.3v1.7h-.3v1.8h.3v1.8h-.3v1.7h.3V38h-.3v1.8h.3v1.7h-.3v1.8h.3v1.8h-.3v1.7h.3v1.8h-.3v1.8h.3V52h-.3v2h.3v1.8h-.3v1.7h.3v1.8h-.3V61h.3v1.7h-.3v1.8h.3v1.8h-.3V68h.3v1.8h-.3v1.8h.3v1.7h-.3v1.8h.3v1.8h-.3v1.7h.3v1.8h-.3v1.8h.3v1.7h-.3v1.8h.3v1.8h-.3v.7l-.7.3.2.3-1.5.9-.2-.3-1.5 1 .1.2-1.5.8-.2-.2-1.5.9.2.2-1.6 1-.1-.3-1.5.8.1.3-1.5.9-.2-.3-1.5 1 .1.2-1.5.8-.1-.2-1.6.9.2.2-1.5 1-.2-.3-1.5.8.1.3-1.5.9-.2-.3-1.5 1 .2.2-1.6.8-.1-.2-1.5.9.1.2-1.5 1-.2-.3-1.5.8.1.3-1.5.9-.1-.3-1.6 1 .2.2-1.5.9-.2-.3-1.5.9.1.2-1.5 1-.2-.3-1.5.8.2.3-1.6.9-.1-.3-1.5 1 .1.2-1.5.9-.2-.3-1.5.9.1.2-1.5 1-.1-.3-1.6.8.2.3-1.6.9-.1-.3-1.5 1 .1.2-1.5.9-.2-.3-.6.4-.6-.4-.1.3-1.6-1 .2-.2-1.6-.9-.1.3-1.5-.9.1-.3-1.5-.8-.2.2-1.5-.9.2-.2-1.6-.9-.1.3-1.6-1 .2-.2-1.5-.9-.2.3-1.5-.9.1-.3-1.5-.8-.1.2-1.6-.9.2-.2-1.6-.9-.1.3-1.5-1 .1-.2-1.5-.9-.2.3-1.5-.9.2-.3-1.6-.8-.1.2-1.6-.9.2-.2-1.5-.9-.2.3-1.5-1 .1-.2-1.5-.9-.1.3-1.6-.9.2-.3-1.6-.8-.1.2-1.5-.9.1-.2-1.5-.9-.2.2-1.5-.8.2-.3-1.6-.9-.1.3-1.6-.9.2-.3-1.5-.8-.2.2-1.5-.9.1-.2-1.5-.9-.1.2-1.6-.8.2-.3-1.6-.9-.1.3-1.5-.9.1-.3-.6-.3v-.7h-.3v-1.8h.3V84h-.3v-1.7h.3v-1.8h-.3v-1.8h.3V77h-.3v-2h.3v-1.8h-.3v-1.7h.3v-1.8h-.3V68h.3v-1.7h-.3v-1.8h.3v-1.8h-.3V61h.3v-1.8h-.3v-1.8h.3v-1.7h-.3v-1.8h.3v-1.8h-.3v-1.7h.3v-1.8h-.3v-1.8h.3v-1.7h-.3v-1.8h.3v-1.8h-.3v-1.7h.3V38h-.3v-1.8h.3v-1.7h-.3v-1.8h.3v-1.8h-.3v-1.7h.3v-.8l.6-.3-.1-.3 1.5-.8.1.2 1.6-.9-.2-.2 1.6-1 .1.3 1.5-.8-.1-.3 1.5-.9.2.3 1.5-1-.2-.2 1.6-.8.1.2 1.6-.9-.2-.2 1.5-1 .2.3 1.5-.8-.1-.3 1.5-.9.1.3 1.6-1-.2-.2 1.6-.8.1.2 1.5-.9-.1-.2 1.5-1 .2.3 1.5-.8-.2-.3 1.6-.9.1.3 1.6-1-.2-.2 1.5-.8.2.2 1.5-.9-.1-.2 1.5-1 .1.3 1.6-.8-.2-.3 1.6-.9.1.3 1.5-1-.1-.2 1.5-.8.2.2 1.5-.9-.2-.2 1.6-1 .1.3 1.6-.8-.2-.3 1.5-.9.2.3 1.5-1-.1-.2 1.5-.8.1.2 1.6-.9-.2-.2 1.6-1 .1.3.6-.3.6.3.2-.2 1.5.9-.1.2 1.5 1 .1-.3 1.6.8-.2.3 1.6.9.1-.3 1.5.9-.1.3 1.5.8.2-.2 1.5.9-.1.2 1.5 1 .1-.3 1.6.8-.2.3 1.5.9.2-.3 1.5.9-.1.3 1.5.8.2-.2 1.5.9-.2.2 1.6 1 .1-.3 1.5.8-.1.3 1.5.9.2-.3Z"
      opacity=".4"
    />
    <g id="icon/logo/milvus" opacity=".8">
      <path
        id="Vector"
        fill="#43B6EA"
        d="M353.8 48.8a10.5 10.5 0 0 1 17.8 7.5 10.5 10.5 0 0 1-17.9 7.4l-6.6-6.7a1 1 0 0 1 0-1.5l6.6-6.7Zm13.2 2a7.7 7.7 0 0 0-10.9 0l-5 5a.7.7 0 0 0 0 1l5 5a7.7 7.7 0 0 0 10.9 0 7.7 7.7 0 0 0 0-11Zm-5.4.3c2.9 0 5.2 2.3 5.2 5.2 0 3-2.3 5.3-5.2 5.3a5.2 5.2 0 0 1-5.2-5.3c0-2.9 2.3-5.2 5.2-5.2Zm15.8 4.5-3-3a.2.2 0 0 0-.4.3c.5 2.3.5 4.6 0 7 0 .2.2.3.4.2l3-3a1 1 0 0 0 0-1.5Z"
      />
    </g>
  </g>
  <g class="shake-item" style="animation-delay: 1.5s; animation-duration: 5.6s">
    <g id="Polygon 97" opacity=".4">
      <path
        fill="#fff"
        fill-opacity=".1"
        d="m181.4 86.2 52 30v60l-52 30.1-52-30v-60.1l52-30Z"
      />
      <path
        stroke="#fff"
        stroke-opacity=".4"
        stroke-width=".6"
        d="M233.1 116.4V176l-51.7 30-51.7-30v-59.7l51.7-29.9 51.7 29.9Z"
      />
    </g>
    <g id="icon/logo/mongo" opacity=".8">
      <g id="Group 450">
        <path
          id="Vector_2"
          fill="#88851F"
          d="m182.4 163.8-.9-.3s.2-4.3-1.4-4.7c-1-1.2.1-51.5 4-.1-.8.3-1.4 1-1.6 1.7a9.7 9.7 0 0 0 0 3.4Z"
        />
        <path
          id="Vector_3"
          fill="#2D9F2C"
          d="M182.9 159.6a15.2 15.2 0 0 0 5.7-15.2c-1.7-7.5-5.7-10-6.1-10.9l-1-1.8.4 20.8s-.7 6.3 1 7Z"
        />
        <path
          id="Vector_4"
          fill="#5FB765"
          d="M181.1 159.9s-7-4.8-6.6-13.3a17.9 17.9 0 0 1 6.3-13.4 2 2 0 0 0 .7-1.6c.5 1 .4 14 .4 15.6a50 50 0 0 1-.8 12.7Z"
        />
      </g>
    </g>
  </g>
  <g class="shake-item" style="animation-delay: 1.8s; animation-duration: 4.8s">
    <path
      id="Polygon 95"
      stroke="#fff"
      stroke-opacity=".5"
      stroke-width=".6"
      d="M158.1 74.2v59.7l-51.7 29.9-51.8-29.9V74.2l51.8-30 51.7 30Z"
      opacity=".4"
    />
    <g id="icon/logo/mysql" opacity=".8">
      <path
        id="Vector_5"
        fill="#0080B7"
        d="M121.2 116a12 12 0 0 0-4.5.6c-.4.2-1 .2-1 .6l.4.8a6 6 0 0 0 1.2 1.4c.5.4 1 .8 1.5 1l2.9 1.5 1.5 1.2.8.6v-.1l-.4-.8-.7-.7a9.2 9.2 0 0 0-2.5-2.3c-.7-.5-2.3-1.3-2.6-2.1h-.1l1.6-.4c.8-.3 1.5-.2 2.4-.4l1.1-.3v-.3c-.4-.4-.7-1-1.2-1.3l-3.8-3-2.5-1.1c-.3-.2-.8-.2-1-.5l-.9-1.8-2-4c-.3-1-.6-2-1.1-2.7-2.5-4-5-6.5-9.1-8.9-.9-.5-2-.7-3-1h-1.8l-1-.8c-1.4-.9-4.9-2.7-5.9-.3-.6 1.5 1 3 1.5 3.8.4.6 1 1.2 1.2 1.8l.4 1.2c.4 1 .7 2.2 1.2 3.2.3.5.5 1 .9 1.4.2.3.5.4.6.8-.4.5-.4 1.2-.6 1.8-.8 2.7-.5 6 .7 8 .4.5 1.3 1.8 2.5 1.3 1-.4.8-1.8 1.1-3 0-.2 0-.4.2-.6l1 2c.7 1.1 2 2.3 3 3.2.6.4 1 1.1 1.7 1.4v-.1l-.6-.5-1.2-1.4c-1-1.3-1.8-2.8-2.6-4.3l-1-2.2c-.2-.3-.2-.7-.4-.9-.4.6-.9 1-1.2 1.6-.4 1-.4 2.3-.6 3.6h-.1c-.8-.2-1-1-1.3-1.6-.7-1.7-.8-4.4-.2-6.3.1-.5.9-2 .6-2.5-.2-.5-.6-.7-.9-1l-.8-1.6c-.6-1.3-.9-2.7-1.5-4-.3-.7-.8-1.3-1.2-1.9-.4-.6-1-1-1.3-1.8 0-.3-.3-.7 0-1 0-.2 0-.2.3-.3.3-.2 1.1 0 1.5.2l2.3 1.2c.3.2.7.7 1 .8h.6c.7.2 1.6 0 2.3.3 1.2.4 2.4 1 3.4 1.6 3 2 5.6 4.7 7.3 8l.7 1.7 1.6 3.4 1.6 3.2c.4.4 1.8.7 2.5 1l1.6.6 2.3 1.6c.4.3 1.6.9 1.6 1.4Zm-24-20.5-1 .1h.1c.2.5.5.7.8 1l.5 1.2c.4-.3.6-.7.6-1.3-.2-.1-.2-.3-.3-.4l-.7-.6Z"
      />
    </g>
  </g>
  <g id="Sealos">
    <path
      id="Vector 58"
      fill="#EEF0F7"
      stroke="url(#paint3_linear_0_1)"
      stroke-opacity=".3"
      stroke-width=".4"
      d="M256.5 105.4 204 136.6l54 31 54.1-32.7-55.6-29.5Z"
      opacity=".2"
    />
    <path
      id="Vector 46"
      fill="#fff"
      fill-opacity=".4"
      stroke="url(#paint4_linear_0_1)"
      stroke-width=".4"
      d="M204 74.7 256.5 44v61.4L204 136.6V74.7Z"
      opacity=".2"
    />
    <path
      id="Vector 59"
      fill="#F4F4F5"
      fill-opacity=".4"
      stroke="#CCDAFF"
      stroke-width=".4"
      d="m312.1 73.4-55.6-29.3v61l55.6 29.6V73.4Z"
      opacity=".2"
    />
    <g id="logo">
      <g id="icon/logo/sealos">
        <g id="Group">
          <path
            id="Vector_6"
            fill="url(#paint5_linear_0_1)"
            d="M237.3 104.6c4 6 12.5 5.4 12.5 5.4-2-2-3.5-4-3.6-9.2-.2-5.4-3.2-6.8-3.2-6.8 5.5-3.4 3.5-7.1 3.3-11.3a7.3 7.3 0 0 1 2.7-5.5 27 27 0 0 0-23.1 26.8c0 1 0 1.8.2 2.7.5-1.3 7.4-7.6 11.2-2.1Z"
          />
          <g id="Group_2">
            <path
              id="Vector_7"
              fill="url(#paint6_linear_0_1)"
              d="M283.6 88.3a13.1 13.1 0 0 0-21.4 9.4v.8l.1 1.3c0 .7.3 1.8.5 2.8a18.7 18.7 0 0 1-7.3 18.5 18.3 18.3 0 0 1-19.2 1.6 18.6 18.6 0 0 1-10-13.3A31.8 31.8 0 1 0 288.7 98c-.3-1.4-.8-3-1.4-4.5-1-2-2-3.7-3.8-5.2Z"
            />
            <g id="Clip path group">
              <mask
                id="mask0_0_1"
                width="64"
                height="52"
                x="226"
                y="85"
                maskUnits="userSpaceOnUse"
                style="mask-type: luminance"
              >
                <g id="clippath">
                  <path
                    id="Vector_8"
                    fill="#fff"
                    d="M283.6 88.3a13.1 13.1 0 0 0-21.4 9.4v.8l.1 1.3c0 .7.3 1.8.5 2.8a18.7 18.7 0 0 1-7.3 18.5 18.3 18.3 0 0 1-19.2 1.6 18.6 18.6 0 0 1-10-13.3A31.8 31.8 0 1 0 288.7 98c-.3-1.4-.8-3-1.4-4.5-1-2-2-3.7-3.8-5.2Z"
                  />
                </g>
              </mask>
              <g mask="url(#mask0_0_1)">
                <g id="Group_3">
                  <path
                    id="Vector_9"
                    fill="url(#paint7_linear_0_1)"
                    d="M254.3 130.3a27.8 27.8 0 1 0 0-55.7 27.8 27.8 0 0 0 0 55.7Z"
                  />
                </g>
              </g>
            </g>
          </g>
        </g>
      </g>
    </g>
    <path
      id="Vector 61"
      fill="#E4EAFB"
      fill-opacity=".4"
      stroke="url(#paint8_linear_0_1)"
      stroke-width=".4"
      d="M256.4 44 204 74.7l53.6 31L312 73.3 256.4 44Z"
      opacity=".2"
    />
    <path
      id="Vector 60"
      fill="#C9D3EE"
      fill-opacity=".4"
      stroke="url(#paint9_linear_0_1)"
      stroke-width=".4"
      d="M257.9 105.7 312 73.3v61.4l-54 32.9v-62Z"
      opacity=".2"
    />
  </g>
  <g class="shake-item" style="animation-delay: 2.1s; animation-duration: 5.2s">
    <path
      id="Polygon 107"
      stroke="#fff"
      stroke-opacity=".3"
      stroke-width=".6"
      d="M483.4 71.8v59.8l-51.7 29.8-51.8-29.8V71.8L431.7 42l51.7 29.8Z"
      opacity=".5"
    />
    <g id="icon/logo/redis" opacity=".8">
      <g id="Group 456">
        <path
          id="Vector_10"
          fill="#A73434"
          d="M446.4 109.4c-1.7.9-10.3 4.4-12.1 5.4-1.9 1-2.9 1-4.3.3l-12.3-5.2c-.8-.4-1.2-.8-1.2-1v-3.2s11.9-2.7 13.8-3.3c2-.7 2.6-.8 4.3-.2 1.6.6 11.4 2.4 13 3v3.1c0 .3-.4.7-1.2 1.1Z"
        />
        <path
          id="Vector_11"
          fill="#DA5551"
          d="M446.4 106.3c-1.7.8-10.3 4.4-12.1 5.4-1.9 1-2.9 1-4.3.2l-12.3-5.2c-1.6-.8-1.7-1.3 0-2l12.6-4.9c2-.7 2.6-.7 4.3 0 1.6.5 10.2 4 11.8 4.5 1.6.6 1.7 1.1 0 2Z"
        />
        <path
          id="Vector_12"
          fill="#A73434"
          d="M446.4 104.3c-1.7.9-10.3 4.4-12.1 5.4-1.9 1-2.9 1-4.3.2l-12.3-5.2c-.8-.4-1.2-.7-1.2-1v-3.2s11.9-2.6 13.8-3.3c2-.6 2.6-.7 4.3 0 1.6.5 11.4 2.3 13 2.9v3.1c0 .3-.4.7-1.2 1.1Z"
        />
        <path
          id="Vector_13"
          fill="#DA5551"
          d="M446.4 101.2c-1.7.8-10.3 4.4-12.1 5.3-1.9 1-2.9 1-4.3.3l-12.3-5.2c-1.6-.8-1.7-1.3 0-2l12.6-4.9c2-.7 2.6-.7 4.3-.1l11.8 4.6c1.6.6 1.7 1.1 0 2Z"
        />
        <path
          id="Vector_14"
          fill="#A73434"
          d="M446.4 99c-1.7.9-10.3 4.4-12.1 5.4-1.9 1-2.9 1-4.3.2l-12.3-5.2c-.8-.3-1.2-.7-1.2-1v-3.2s11.9-2.6 13.8-3.3c2-.6 2.6-.7 4.3 0 1.6.5 11.4 2.3 13 2.9v3.1c0 .3-.4.7-1.2 1.1Z"
        />
        <path
          id="Vector_15"
          fill="#DA5551"
          d="M446.4 95.9c-1.7.8-10.3 4.4-12.1 5.3-1.9 1-2.9 1-4.3.3l-12.3-5.2c-1.6-.8-1.7-1.3 0-2l12.6-4.9c2-.7 2.6-.7 4.3-.1l11.8 4.6c1.6.6 1.7 1.1 0 2Z"
        />
        <path
          id="Vector_16"
          fill="#fff"
          d="m435.8 92.8-2.6.3-.6 1.4-1-1.6-3.1-.3 2.3-.8-.7-1.3 2.2.9 2-.7-.5 1.3 2 .8Zm-3.4 7-5-2 7.2-1.2-2.2 3.2Zm-7-6.2c2.2 0 3.9.7 3.9 1.5s-1.7 1.5-3.8 1.5c-2.1 0-3.9-.7-3.9-1.5s1.8-1.5 3.9-1.5Z"
        />
        <path
          id="Vector_17"
          fill="#C83B3D"
          d="m439 93.2 4.3 1.7-4.3 1.7v-3.4Z"
        />
        <path
          id="Vector_18"
          fill="#962C2B"
          d="m434.3 95 4.7-1.8v3.4l-.4.1-4.3-1.6Z"
        />
      </g>
    </g>
  </g>
  <g class="shake-item" style="animation-delay: 2.4s; animation-duration: 5s">
    <g id="Polygon 94">
      <path
        fill="#fff"
        fill-opacity=".1"
        d="m352 86.2 52 30v60l-52 30.1-52-30v-60.1l52-30Z"
      />
      <path
        stroke="#fff"
        stroke-opacity=".2"
        stroke-width=".6"
        d="M403.7 116.4V176L352 206l-51.8-30v-59.7L352 86.5l51.7 29.9Z"
      />
    </g>
    <g id="icon/logo/pgsql" opacity=".8">
      <g id="Group 449">
        <path
          id="Vector_19"
          fill="#2971A4"
          d="M358.9 157c.1-1.5 0-1.8 1.2-1.5h.3c.8 0 1.9-.1 2.5-.4 1.4-.7 2.2-1.7.9-1.5-3.1.7-3.4-.4-3.4-.4 3.3-4.9 4.7-11 3.5-12.6-3.2-4.1-8.8-2.2-9-2.1a11 11 0 0 0-2-.2c-1.4 0-2.5.4-3.3 1 0 0-10-4.2-9.6 5.1.1 2 2.9 15 6.1 11.1l2.4-2.6a3 3 0 0 0 2 .5v.5c-.8 1-.5 1-2.2 1.4-1.7.4-.7 1 0 1.2.7.2 2.5.4 3.8-1.3v.2c.3.3.2 1.9.3 3 0 1.2.1 2.3.4 3 .2.6.5 2.3 2.7 1.8 1.8-.4 3.2-1 3.4-6.3Z"
        />
        <path
          id="Vector_20"
          fill="#2971A4"
          d="M354.8 164.3c-1 0-1.7-.3-2-.7-.6-.6-.9-1.3-1-1.7v-.2c-.3-.7-.4-1.8-.5-3.2v-1.2l-1.1.3c-.7.1-1.5 0-2.2-.1-.6-.1-1.1-.4-1.5-.9-1 .9-1.8.8-2.3.6-.9-.3-1.6-1.1-2.4-2.5a35.8 35.8 0 0 1-2.9-10.2c0-2.9.7-5 2.4-6.2 2.6-1.8 6.7-.7 8.1-.2a6 6 0 0 1 3.5-.9c.7 0 1.4 0 2 .2.6-.2 2-.5 3.4-.5a8 8 0 0 1 6.5 3c1 1.5.5 4.4.1 6a26 26 0 0 1-2.9 6.9l1.6-.2c1.4-.3 1.8.5 1.9.8.4 1.3-1.5 2.4-2.1 2.6-.8.4-2 .6-3 .6h-.4v.4c-.1 2.7-.5 4.4-1.3 5.5-.8 1.2-2 1.5-3 1.7l-1 .1Zm-2.1-9.7c.6.5.7 1.4.7 3.2v.6c0 .6.1 2 .4 2.6v.2c.3.8.4 1.2 1.5 1 .8-.2 1.3-.4 1.6-1 .6-.7.8-2.1.9-4.3h1l-1-.1v-.3c.1-.8.2-1.5.8-1.9.5-.3 1-.3 1.4-.2-.4-.4-.6-.8-.6-1l-.1-.4.3-.4c1.4-2.1 2.6-4.8 3.2-7.2.7-2.5.5-3.9.3-4.1-2.6-3.4-7.2-2-7.7-1.8h-.7a10 10 0 0 0-1.8-.1c-1.1 0-2 .2-2.7.7l-.5.4-.5-.2c-1.2-.5-4.8-1.5-6.7-.2-1 .7-1.5 2.2-1.4 4.3 0 .7.5 3.3 1.3 5.9 1 3.5 2 4.7 2.5 4.9l.4-.4 2.4-2.7.6-.6.8.5c.3.2.6.3 1 .3l1.8-1.5-.3 2.6v.8l-.3.4 1 .5.4-.5Z"
        />
        <path
          id="Vector_21"
          fill="#3B8CCD"
          d="M363.8 153.6c-3.1.7-3.4-.4-3.4-.4 3.3-4.9 4.7-11 3.5-12.6-3.2-4.1-8.8-2.2-9-2.1l-2-.2c-1.4 0-2.5.3-3.3 1 0 0-10-4.2-9.6 5.1.1 2 2.9 15 6.1 11.1l2.4-2.7a3 3 0 0 0 2 .6v.5c-.8 1-.5 1-2.2 1.4-1.7.4-.7 1 0 1.2.7.2 2.5.4 3.8-1.3v.2c.3.3.5 1.7.5 3 0 1.4-.1 2.3.1 3 .3.7.6 2.3 2.8 1.8 1.8-.4 2.8-1.4 3-3.1 0-1.3.2-1 .2-2.2l.2-.5c.2-1.6 0-2.2 1.2-2l.3.1c.8 0 1.9-.1 2.5-.4 1.4-.7 2.2-1.7.9-1.5Z"
        />
        <path
          id="Vector_22"
          fill="#fff"
          d="M354.9 163.7c-1.8 0-2.4-1.5-2.7-2a30.8 30.8 0 0 1-.2-7.4.4.4 0 0 1 .2 0 .4.4 0 0 1 .3 0v.1l.1.2c0 3.2 0 6.1.3 6.8.4 1 1 1.8 2.7 1.5 1.7-.4 2.3-1 2.6-2.6a108.3 108.3 0 0 0 .9-5.7.4.4 0 0 1 .4.1v.3l-.6 5.4c-.3 2-1.2 2.8-3.1 3.2h-1Zm-10-7.2h-.5c-1.2-.4-2.3-2.4-3.4-5.8a35 35 0 0 1-1.3-6.3c-.1-2.6.5-4.5 2-5.5 3-2 7.8-.1 8 0 .1 0 .2 0 .2.2a.4.4 0 0 1-.2.4h-.2s-4.8-1.9-7.4 0c-1.2.9-1.8 2.5-1.7 4.9 0 .7.5 3.4 1.3 6 1 3.1 2 5 3 5.4.1 0 .5.2 1.2-.6a54.3 54.3 0 0 1 2.5-2.7.4.4 0 0 1 .3.6l-2.3 2.6c-.5.7-1 .8-1.5.8Zm15.5-3a.4.4 0 0 1-.3-.3v-.2c3.4-5 4.5-11 3.5-12.2a6.6 6.6 0 0 0-5.2-2.5c-1.7 0-3 .4-3.2.5h-.1a.4.4 0 0 1-.5-.5l.2-.2c.5-.1 1.8-.5 3.5-.5 2.5 0 4.5 1 6 2.8.6.8.6 2.8 0 5.3-.8 2.6-2 5.4-3.6 7.7l-.3.1Zm.2 2.3c-.6 0-1 0-1.4-.2a.7.7 0 0 1-.3-.6c-.1-1.5.7-1.8 1.1-1.9l-.2-.3c-.3-.3-.6-.7-.9-1.4l-.3-.6c-.8-1.4-2.4-4.4-1.4-6 .5-.6 1.5-.9 3-.7-.5-1.3-2.5-5.4-7.3-5.5-1.5 0-2.7.4-3.6 1.3-2 2-2 5.7-2 5.7a.4.4 0 0 1 0 .3.4.4 0 0 1-.4 0 .4.4 0 0 1-.2-.1v-.1c0-.2-.1-4 2.1-6.3 1-1 2.4-1.5 4-1.5 3.2 0 5.2 1.6 6.3 3 1.2 1.3 1.8 3 1.9 3.4 0 .4-.3.5-.3.5h-.2c-1.4-.2-2.3 0-2.7.5-.8 1.2.8 4 1.5 5.2l.3.7.7 1.2.5.7s.4.7 2.9.1c.6 0 1 0 1.1.4.2.6-1 1.4-1.7 1.8-.6.2-1.6.4-2.5.4Zm-1-.9c0 .1.4.2 1.2.2.8 0 1.5-.2 2-.4a4 4 0 0 0 1.2-.8h-.2c-1.5.4-2.6.3-3.3 0v-.2h-.3c-.3.2-.7.3-.6 1.2Zm-10.2 2a5 5 0 0 1-1.3-.1c-.4-.2-1.1-.5-1.1-1 0-.6.9-.8 1.2-.9 1.2-.2 1.3-.3 1.7-.8l.4-.5c.3-.3.6-.5.9-.5l.5.1c.4.2.7.6.8 1 .1.5 0 .9-.1 1.2-.8 1-1.8 1.5-3 1.5Zm-1.7-1 .6.2 1 .1a3 3 0 0 0 2.5-1.2v-.6c0-.2-.2-.4-.4-.5h-.2l-.4.2-.4.4c-.5.6-.7.8-2 1.1-.4 0-.6.2-.7.2Zm2.8-1.7a.4.4 0 0 1-.4-.3v-.2c-.9 0-1.8-.4-2.4-1.1a4 4 0 0 1-1-3.4v-3.5c0-.2 0-.5 1-1 .3-.1 1-.5 1.8-.5 1.3-.2 2.2.4 2.4 1.6.7 3.2 0 4.6-.4 5.6l-.2.6v.1c-.3.7-.5 1.2-.5 1.7a.4.4 0 0 1-.1.3h-.2Zm-3.1-8.4v3.5c-.2 1 0 2 .8 2.8.5.6 1.2.9 2 .9 0-.4.2-.7.4-1.1v-.2l.3-.6c.4-1 1-2.2.3-5.2 0-.6-.4-.9-.9-1-1-.2-2.6.5-2.9.9Zm2.2-.2c0 .1.2.5.5.5s.6-.2.6-.3c0-.2-.2-.3-.5-.3l-.6.1Zm.6.6h-.1a.9.9 0 0 1-.6-.3v-.3c0-.2.2-.3.5-.3a1.5 1.5 0 0 1 .6.2c.2 0 .3.2.2.3 0 .2-.3.4-.6.4Zm-.5-.6c0 .1.2.4.4.4.3 0 .5-.2.5-.2l-.4-.2h-.5Zm9.7-.3c0 .2-.2.5-.5.6-.3 0-.6-.3-.6-.4 0-.1.2-.3.5-.3l.6.1Zm-.6.6c-.3 0-.6-.2-.6-.4s.3-.3.6-.4h.2c.3 0 .5.1.5.2s0 .3-.2.4l-.4.2h-.1Zm.2-.7h-.2l-.5.3s.2.3.5.3l.4-.2.2-.2-.4-.2Zm.9 7.4a.4.4 0 0 1-.3-.2.4.4 0 0 1 0-.4c.8-1 .6-2.3.5-3.4l-.1-1.4.1-1.3c.1-.5.2-.9.1-1.4v-.1l.1-.2a.4.4 0 0 1 .3 0h.2l.1.1v1.7l-.2 1.2.1 1.3c.1 1.2.3 2.6-.6 4a.4.4 0 0 1-.3.1Z"
        />
      </g>
    </g>
  </g>
  <g class="shake-item" style="animation-delay: 2.7s; animation-duration: 5.4s">
    <path
      id="Polygon 98"
      stroke="#fff"
      stroke-dasharray="1.76 1.76"
      stroke-opacity=".5"
      stroke-width=".6"
      d="m71.3 121.6 1.6.9-.2.2 1.5.9.2-.3 1.5 1-.1.2 1.5.9.1-.3 1.6.9-.2.2 1.6 1 .1-.3 1.5.9-.1.2 1.5.9.2-.3 1.5 1-.1.2 1.5.9.1-.3 1.6.9-.2.3 1.5.8.2-.2 1.5.9-.1.2 1.5.9.1-.3 1.6 1-.2.2 1.6.9.1-.3 1.5.9-.1.3.6.3v.7h.3v1.8h-.3v1.8h.3v1.7h-.3v1.8h.3v1.8h-.3v1.7h.3v1.8h-.3v1.8h.3v1.7h-.3v1.8h.3v1.8h-.3v1.7h.3v1.8h-.3v1.8h.3v1.7h-.3v1.8h.3v1.8h-.3v1.7h.3v1.8h-.3v1.8h.3v1.7h-.3v1.8h.3v1.8h-.3v1.7h.3v1.8h-.3v1.8h.3v1.7h-.3v1.8h.3v1.8h-.3v1.7h.3v1.8h-.3v1.8h.3v1.7h-.3v.7l-.6.4.1.3-1.5.8-.1-.2-1.6.9.2.2-1.6 1-.1-.3-1.5.8.1.3-1.5.9-.2-.3-1.5.9.2.3-1.6.8-.1-.2-1.5.9.1.2-1.5 1-.2-.3-1.5.8.1.3-1.5.9-.1-.3-1.6.9.2.3-1.6.8-.1-.2-1.5.9.1.2-1.5 1-.2-.3-1.5.8.2.3-1.6.9-.1-.3-1.6 1 .2.2-1.5.8-.2-.2-1.5.9.1.2-1.5 1-.1-.3-1.6.8.2.3-1.6.9-.1-.3-1.5 1 .1.2-1.5.8-.2-.2-1.5.9.2.2-1.6 1-.1-.3-1.6.8.2.3-1.5.9-.2-.3-1.5 1 .1.2-1.5.8-.1-.2-1.6.9.2.2-1.6 1-.1-.3-.6.3-.6-.3-.2.2-1.5-.9.1-.2-1.5-1-.1.3-1.6-.8.2-.3-1.6-.9-.1.3-1.5-1 .1-.2-1.5-.8-.2.2-1.5-.9.1-.2-1.5-1-.1.3-1.6-.8.2-.3-1.5-.9-.2.3-1.5-1 .1-.2-1.5-.8-.2.2-1.5-.9.2-.2-1.6-1-.1.3-1.5-.8.1-.3-1.5-.9-.2.3-1.5-1 .1-.2-1.5-.8-.1.2-1.6-.9.2-.2-1.5-1-.2.3-1.5-.8.1-.3-1.5-.9-.2.3-1.5-1 .2-.2-1.6-.8-.1.2-1.5-.9.1-.2-1.5-1-.2.3L4 203l.1-.3-1.5-.9-.1.3-1.6-1 .2-.2-1.5-.8-.2.2-1.5-.9.1-.2-1.5-1-.2.3-1.5-.8.2-.3-.7-.4v-.7H-6v-1.7h.3v-1.8H-6V191h.3v-1.7H-6v-1.8h.3v-1.8H-6V184h.3v-2H-6v-1.8h.3v-1.7H-6v-1.8h.3V175H-6v-1.7h.3v-1.8H-6v-1.8h.3V168H-6v-1.8h.3v-1.8H-6v-1.7h.3v-1.8H-6V159h.3v-1.7H-6v-1.8h.3v-1.8H-6V152h.3v-1.8H-6v-1.8h.3v-1.7H-6V145h.3v-1.8H-6v-1.7h.3v-1.8H-6v-1.8h.3v-.7l.7-.3-.2-.3 1.5-.9.2.3 1.5-1-.1-.2 1.5-.9.2.3 1.5-.9-.2-.2 1.6-1 .1.3 1.5-.8-.1-.3 1.5-.9.2.3 1.5-1-.1-.2 1.5-.9.1.3 1.6-.9-.2-.2 1.5-1 .2.3 1.5-.9-.1-.2 1.5-.9.2.3 1.5-1-.2-.2 1.6-.9.1.3 1.5-.9-.1-.2 1.5-1 .2.3 1.5-.9-.1-.2 1.5-.9.1.3 1.6-1-.2-.2 1.5-.9.2.3 1.5-.9-.1-.2 1.5-1 .2.3 1.5-.9-.2-.2 1.6-.9.1.3 1.5-1-.1-.2 1.5-.9.2.3 1.5-.9-.1-.2 1.5-1 .1.3 1.6-.9-.2-.2 1.5-.9.2.3 1.5-1-.1-.2 1.5-.9.2.3.6-.4.6.4.1-.3 1.6 1-.2.2 1.6.9.1-.3 1.5.9-.1.2 1.5 1 .2-.3 1.5.9-.2.2 1.6.9.1-.3 1.6 1-.2.2 1.5.9.2-.3 1.5.9-.1.2 1.5 1 .1-.3 1.6.9-.2.2 1.6.9.1-.3 1.5 1-.1.2 1.5.9.2-.3 1.5.9-.2.2 1.6 1 .1-.3Z"
      opacity=".5"
    />
    <g id="icon/logo/kafka" opacity=".4">
      <path
        id="Vector_23"
        fill="#FBFBFB"
        d="M50.4 166.6a3.2 3.2 0 0 0-2.4 1l-1.5-1a4 4 0 0 0 0-2.7l1.5-1a3.1 3.1 0 0 0 2.4 1c1.7 0 3.1-1.4 3.1-3.1a3.2 3.2 0 1 0-6.1.9l-1.5 1a4 4 0 0 0-2.6-1.4v-1.8a3.2 3.2 0 0 0 2.6-3 3.2 3.2 0 1 0-5.7 1.9c.5.5 1 1 1.8 1v1.9a4 4 0 0 0-3.4 4 4 4 0 0 0 3.4 4v1.9a3.2 3.2 0 0 0-2.5 3 3.2 3.2 0 1 0 5.7-2c-.5-.5-1.1-.9-1.8-1v-2a4 4 0 0 0 2.5-1.4l1.4 1v1a3.2 3.2 0 0 0 6.2 0c0-1.8-1.4-3.2-3.1-3.2Zm0-7.3a1.5 1.5 0 0 1 1.5 1.5 1.5 1.5 0 0 1-1.5 1.5 1.5 1.5 0 0 1-1.6-1.5 1.5 1.5 0 0 1 1.6-1.5Zm-9.2-2.9a1.5 1.5 0 0 1 1.5-1.5 1.5 1.5 0 0 1 1.5 1.5 1.5 1.5 0 0 1-1.5 1.5 1.5 1.5 0 0 1-1.5-1.5Zm3 17.8a1.5 1.5 0 0 1-1.5 1.6 1.5 1.5 0 0 1-1.5-1.6 1.5 1.5 0 0 1 1.5-1.5 1.5 1.5 0 0 1 1.5 1.5Zm-1.5-6.8a2.1 2.1 0 0 1-2.1-2.1 2.1 2.1 0 0 1 2-2.2 2.1 2.1 0 0 1 2.2 2.2 2.1 2.1 0 0 1-2.1 2Zm7.7 3.9a1.5 1.5 0 0 1-1.6-1.5 1.5 1.5 0 0 1 1.6-1.6 1.5 1.5 0 0 1 1.5 1.6 1.5 1.5 0 0 1-1.5 1.5Z"
      />
    </g>
  </g>
  <defs>
    <linearGradient
      id="paint0_linear_0_1"
      x1="151.8"
      x2="46.3"
      y1="30.2"
      y2="-22.6"
      gradientUnits="userSpaceOnUse"
    >
      <stop stop-color="#fff" />
      <stop offset="1" stop-color="#fff" stop-opacity=".2" />
    </linearGradient>
    <linearGradient
      id="paint1_linear_0_1"
      x1="494.1"
      x2="629.8"
      y1="114"
      y2="101.4"
      gradientUnits="userSpaceOnUse"
    >
      <stop stop-color="#fff" stop-opacity=".8" />
      <stop offset="1" stop-color="#fff" stop-opacity=".1" />
    </linearGradient>
    <linearGradient
      id="paint2_linear_0_1"
      x1="441"
      x2="526.9"
      y1="201.3"
      y2="264.9"
      gradientUnits="userSpaceOnUse"
    >
      <stop stop-color="#fff" />
      <stop offset="1" stop-color="#fff" stop-opacity=".2" />
    </linearGradient>
    <linearGradient
      id="paint3_linear_0_1"
      x1="258"
      x2="215.6"
      y1="102.7"
      y2="133.5"
      gradientUnits="userSpaceOnUse"
    >
      <stop stop-color="#83AFFF" />
      <stop offset="1" stop-color="#0042BA" />
    </linearGradient>
    <linearGradient
      id="paint4_linear_0_1"
      x1="256.5"
      x2="203.6"
      y1="104.1"
      y2="77.2"
      gradientUnits="userSpaceOnUse"
    >
      <stop offset=".5" stop-color="#C6C6C6" />
      <stop offset="1" stop-color="#fff" />
    </linearGradient>
    <linearGradient
      id="paint5_linear_0_1"
      x1="245.1"
      x2="218.5"
      y1="73.5"
      y2="115.4"
      gradientUnits="userSpaceOnUse"
    >
      <stop stop-color="#0AA3F9" />
      <stop offset="1" stop-color="#B5B4FF" />
    </linearGradient>
    <linearGradient
      id="paint6_linear_0_1"
      x1="298.7"
      x2="256.5"
      y1="137.7"
      y2="83.3"
      gradientUnits="userSpaceOnUse"
    >
      <stop stop-color="#0AA3F9" />
      <stop offset="1" stop-color="#B5B4FF" />
    </linearGradient>
    <linearGradient
      id="paint7_linear_0_1"
      x1="273.7"
      x2="225.2"
      y1="74.6"
      y2="120.7"
      gradientUnits="userSpaceOnUse"
    >
      <stop stop-color="#7ABBFD" />
      <stop offset="1" stop-color="#7ABBFD" stop-opacity="0" />
    </linearGradient>
    <linearGradient
      id="paint8_linear_0_1"
      x1="258"
      x2="258"
      y1="44"
      y2="105.7"
      gradientUnits="userSpaceOnUse"
    >
      <stop offset=".4" stop-color="#E0E0E0" />
      <stop offset="1" stop-color="#fff" />
    </linearGradient>
    <linearGradient
      id="paint9_linear_0_1"
      x1="312"
      x2="257.5"
      y1="135"
      y2="105.5"
      gradientUnits="userSpaceOnUse"
    >
      <stop offset=".5" stop-color="#fff" />
      <stop offset="1" stop-color="#D0D0D0" />
    </linearGradient>
    <clipPath id="clip0_0_1">
      <path fill="#fff" d="M0 0h515.8v211H0z" />
    </clipPath>
  </defs>
</svg>
