<svg
  width="55"
  height="56"
  viewBox="0 0 55 56"
  fill="none"
  xmlns="http://www.w3.org/2000/svg"
>
  <g clip-path="url(#clip0_867_10852)">
    <path
      d="M30.042 26.2447H24.4066V21.207H30.042V26.2447ZM30.042 8.82617H24.4066V14.0346H30.042V8.82617ZM36.702 21.207H31.0666V26.2447H36.702V21.207ZM23.3819 15.0593H17.7465V20.1824H23.3819V15.0593ZM30.042 15.0593H24.4066V20.1824H30.042V15.0593ZM53.6936 23.5978C52.4982 22.7439 49.5951 22.4878 47.4605 22.9147C47.2043 20.8654 46.0089 19.0724 43.9597 17.45L42.7643 16.6816L41.9958 17.877C40.4589 20.2677 40.032 24.1955 41.6543 26.757C40.8858 27.1839 39.4343 27.6962 37.5558 27.6962H0.328025C-0.440439 32.0509 0.840334 37.6863 4.08496 41.5286C7.2442 45.2855 12.0258 47.164 18.1735 47.164C31.5789 47.164 41.5689 41.0163 46.1797 29.7455C47.9728 29.7455 51.9859 29.7455 53.9497 25.9031C54.0351 25.7324 54.5474 24.7931 54.6328 24.4516L53.6936 23.5978ZM10.0619 21.207H4.4265V26.2447H10.0619V21.207ZM16.7219 21.207H11.0865V26.2447H16.7219V21.207ZM23.3819 21.207H17.7465V26.2447H23.3819V21.207ZM16.7219 15.0593H11.0865V20.1824H16.7219V15.0593Z"
      fill="#1C63ED"
    />
  </g>
  <defs>
    <clipPath id="clip0_867_10852">
      <rect
        width="54.6463"
        height="54.6463"
        fill="white"
        transform="translate(0.111328 0.628906)"
      />
    </clipPath>
  </defs>
</svg>
