<svg xmlns="http://www.w3.org/2000/svg" fill="none" viewBox="0 0 55 56">
  <g clip-path="url(#a)">
    <path
      fill="#1C63ED"
      d="M30 26.2h-5.6v-5H30v5Zm0-17.4h-5.6V14H30V8.8Zm6.7 12.4h-5.6v5h5.6v-5Zm-13.3-6.1h-5.7v5h5.7v-5Zm6.6 0h-5.6v5H30v-5Zm23.7 8.5c-1.2-.9-4.1-1.1-6.2-.7-.3-2-1.5-3.8-3.5-5.4l-1.2-.8-.8 1.2c-1.5 2.4-2 6.3-.3 8.9-.8.4-2.3.9-4.1.9H.3c-.7 4.4.5 10 3.8 13.8 3.1 3.8 8 5.7 14 5.7 13.5 0 23.5-6.2 28-17.5 1.9 0 5.9 0 7.8-3.8l.7-1.4-1-.9ZM10 21.2H4.4v5h5.7v-5Zm6.6 0h-5.6v5h5.6v-5Zm6.7 0h-5.7v5h5.7v-5Zm-6.7-6.1h-5.6v5h5.6v-5Z"
    />
  </g>
  <defs>
    <clipPath id="a"><path fill="#fff" d="M.1.6h54.6v54.6H.1z" /></clipPath>
  </defs>
</svg>
