<svg
  width="55"
  height="55"
  viewBox="0 0 55 55"
  fill="none"
  xmlns="http://www.w3.org/2000/svg"
>
  <path
    d="M34.1534 50.0918V40.9841C34.4702 38.1318 33.6523 35.2693 31.8765 33.0149C38.7073 33.0149 45.5381 28.461 45.5381 20.4917C45.7202 17.6456 44.9233 14.8449 43.2611 12.5225C43.8987 9.90401 43.8987 7.17169 43.2611 4.55322C43.2611 4.55322 40.9842 4.55322 36.4303 7.96862C30.4192 6.83015 24.226 6.83015 18.2149 7.96862C13.661 4.55322 11.3841 4.55322 11.3841 4.55322C10.701 7.17169 10.701 9.90401 11.3841 12.5225C9.7262 14.8356 8.92154 17.6519 9.10717 20.4917C9.10717 28.461 15.938 33.0149 22.7688 33.0149C21.8807 34.1305 21.2204 35.4056 20.8334 36.7718C20.4463 38.1379 20.3324 39.5724 20.4918 40.9841M20.4918 40.9841V50.0918M20.4918 40.9841C10.2229 45.538 9.10708 36.4302 4.55322 36.4302"
    stroke="white"
    stroke-opacity="0.8"
    stroke-width="2.18585"
    stroke-linecap="round"
    stroke-linejoin="round"
  />
</svg>
