<svg
  width="55"
  height="55"
  viewBox="0 0 55 55"
  fill="none"
  xmlns="http://www.w3.org/2000/svg"
>
  <path
    d="M25.5373 23.8651C25.8527 22.7578 26.0464 20.2843 26.1003 17.98C23.7909 18.246 21.6405 19.2893 20.0022 20.9386C21.8327 22.3085 23.9283 23.7098 24.898 24.188C25.1024 24.0637 25.3158 23.9559 25.5373 23.8651ZM22.8034 26.9134C22.0835 25.9485 20.2712 24.2664 18.5235 22.8106C17.5289 24.4286 17.004 26.2912 17.0073 28.1904C17.0095 28.5576 17.0314 28.9242 17.0719 29.2892C19.2882 28.7118 21.703 27.9455 22.6833 27.4828C22.7121 27.2907 22.7516 27.1007 22.8034 26.9134ZM17.597 31.6224C18.3636 33.7805 19.8275 35.6216 21.7574 36.8548C22.7463 34.6087 23.6823 32.1138 23.8002 31.2851C23.6706 31.1393 23.5508 30.9851 23.4416 30.8235C22.2078 30.8011 19.7909 31.1682 17.597 31.6224ZM25.9738 29.3474L27.364 29.9776L28.7232 29.2855L29.0231 27.7848L28.0455 26.6145L26.5246 26.654L25.6008 27.8686L25.9738 29.3474Z"
    fill="#316ADF"
  />
  <path
    d="M50.9707 31.9176L47.0317 14.6597C47.0317 14.6597 46.8247 13.4788 46.5952 13.1644C46.3657 12.8501 45.3721 12.3421 45.3721 12.3421L29.0945 4.50428C29.0945 4.50428 27.7769 4.02026 27.3238 4.01172C26.9017 4.01172 25.6631 4.45145 25.6631 4.45145L9.09364 12.4312C9.09364 12.4312 8.31663 12.8389 8.12879 13.0743C7.94094 13.3096 7.75469 14.0615 7.75469 14.0615L3.53935 32.5329L3.41287 33.0901C3.41287 33.0901 3.30774 33.5394 3.47851 33.8804L3.71759 34.3586L4.05112 34.8752L16.1256 49.8949C16.1256 49.8949 16.4842 50.3731 16.7233 50.4926C16.9624 50.7317 17.8066 50.6121 17.8066 50.6121H36.8389C36.8389 50.6121 37.7952 50.6612 38.0439 50.4926C38.4025 50.2535 38.8044 49.6558 38.8044 49.6558L50.2812 35.2626C50.2812 35.2626 51.0737 34.2705 51.1692 33.8687C51.2887 32.9049 50.9707 31.9176 50.9707 31.9176ZM43.412 32.8222C42.5378 32.6237 42.4642 32.4086 41.3094 32.098C40.7321 31.9715 40.1314 32.0041 39.5712 32.1925H39.5654C38.5925 35.1613 36.5791 37.6783 33.8963 39.2794C33.8493 39.798 33.9664 40.3182 34.2309 40.7667C34.7902 41.8186 35.0165 41.8474 35.4061 42.6553C35.706 43.2792 35.5651 43.974 35.0891 44.2008C34.6136 44.4281 33.9833 44.1074 33.6818 43.4836C33.2971 42.6756 33.4166 42.484 32.9384 41.3868C32.7123 40.9261 32.3795 40.526 31.9677 40.2197C29.0125 41.3651 25.7398 41.3867 22.7696 40.2806L22.7147 40.406C22.0246 40.7374 21.7258 41.318 21.5572 41.7054C21.0801 42.8031 21.2023 42.9942 20.8138 43.8021C20.5128 44.4287 19.8826 44.7499 19.4065 44.5194C18.931 44.2888 18.7896 43.5978 19.0895 42.9734C19.478 42.1606 19.7043 42.1414 20.2646 41.0848C20.5159 40.5501 20.6179 39.9575 20.5598 39.3696L20.6243 39.2501C17.9542 37.6378 15.9558 35.116 14.9964 32.1482C14.3507 31.8819 13.7589 32.0025 13.373 32.1066C12.2182 32.4161 12.144 32.6311 11.2704 32.8313C10.5975 32.9855 9.95549 32.6936 9.83595 32.1786C9.71641 31.6636 10.1706 31.122 10.8472 30.9757C11.7214 30.7772 11.8815 30.9389 13.0566 30.7174C13.5945 30.5892 14.0908 30.3258 14.4985 29.9522C14.4195 29.3713 14.3795 28.7859 14.379 28.1997C14.3752 25.6944 15.104 23.2427 16.4757 21.1463C16.2905 20.4446 15.8124 20.0395 15.4836 19.8005C14.5214 19.0832 14.3059 19.1643 13.6057 18.6051C13.064 18.1675 12.8922 17.4801 13.2209 17.0665C13.5497 16.653 14.2562 16.6695 14.7979 17.1012C15.4996 17.6605 15.4719 17.8857 16.378 18.667C16.822 19.0133 17.3479 19.2391 17.9048 19.3223C20.0581 17.0399 22.9703 15.6219 26.0948 15.3343V15.2793C26.573 14.6816 26.5895 14.0279 26.573 13.6058C26.5276 12.4115 26.3339 12.2909 26.3339 11.3943C26.3339 10.7011 26.7619 10.1392 27.2902 10.1392C27.8185 10.1392 28.2465 10.7011 28.2465 11.3943C28.2465 12.2909 28.0528 12.4104 28.0075 13.6058C28.0133 14.1965 28.1782 14.775 28.4856 15.2793V15.3343C31.5758 15.6174 34.4596 17.0073 36.6062 19.2481L36.6233 19.2326C37.3934 19.2337 37.9105 18.8393 38.2302 18.5634C39.1363 17.7827 39.1102 17.557 39.8103 16.9972C40.352 16.5644 41.0559 16.55 41.3883 16.9625C41.7208 17.375 41.5452 18.0597 41.0036 18.4925C40.3018 19.0555 40.0878 18.9792 39.1256 19.6879C38.6671 20.0589 38.3176 20.5472 38.1144 21.101L38.0941 21.1154C39.4746 23.2183 40.2074 25.6803 40.2015 28.1959C40.2015 28.7557 40.1652 29.3145 40.0937 29.8695H40.1044C40.5804 30.4672 41.2138 30.6283 41.6301 30.7062C42.8052 30.9277 42.9653 30.766 43.8394 30.9656C44.515 31.1188 44.9665 31.654 44.847 32.1695C44.7269 32.685 44.087 32.9764 43.412 32.8222Z"
    fill="#316ADF"
  />
  <path
    d="M31.767 26.8764C31.8214 27.0605 31.8642 27.2478 31.8951 27.4372C32.924 27.9906 35.2897 28.7255 37.5113 29.2848C37.5502 28.9213 37.5695 28.5558 37.57 28.1902C37.5743 26.2792 37.0427 24.4055 36.0363 22.7806C34.2357 24.3132 32.3567 26.0967 31.767 26.8764ZM29.5998 24.1409C30.6757 23.6808 32.7212 22.2917 34.5431 20.9048C32.9129 19.2791 30.7829 18.2495 28.4962 17.9819C28.5742 20.3599 28.8036 22.9503 29.0427 23.8698C29.2343 23.9482 29.42 24.0389 29.5998 24.1409ZM30.7547 31.3078C31.0284 32.5465 31.9261 34.8129 32.8514 36.8344C34.7669 35.5996 36.2194 33.765 36.9819 31.6174C34.6808 31.1691 32.132 30.8126 31.1298 30.8297C31.0155 30.9972 30.8902 31.157 30.7547 31.3078ZM27.2891 32.8522C27.1947 32.8522 27.1002 32.8485 27.0068 32.8426C26.2597 33.6362 24.9933 35.8098 23.9175 37.9033C25.0016 38.2793 26.1411 38.4712 27.2886 38.4711C28.4546 38.4716 29.6127 38.2737 30.7125 37.8851C29.689 35.9069 28.4354 33.7621 27.7369 32.8309C27.589 32.8453 27.4396 32.8522 27.2891 32.8522Z"
    fill="#316ADF"
  />
</svg>
