<svg xmlns="http://www.w3.org/2000/svg" fill="none" viewBox="0 0 55 55">
  <path
    fill="#316ADF"
    d="M25.5 23.9c.4-1.1.5-3.6.6-6-2.3.3-4.5 1.4-6.1 3 1.8 1.4 4 2.8 4.9 3.3l.6-.3Zm-2.7 3c-.7-1-2.5-2.6-4.3-4a10.2 10.2 0 0 0-1.4 6.4 42 42 0 0 0 5.6-1.8l.1-.6Zm-5.2 4.7c.8 2.2 2.2 4 4.2 5.3 1-2.3 1.9-4.8 2-5.6l-.4-.5c-1.2 0-3.6.4-5.8.8Zm8.4-2.3 1.4.7 1.3-.7.3-1.5-1-1.2h-1.5l-.9 1.3.4 1.4Z"
  />
  <path
    fill="#316ADF"
    d="m51 32-4-17.3s-.2-1.2-.4-1.5c-.2-.3-1.2-.9-1.2-.9L29 4.5S27.8 4 27.3 4c-.4 0-1.6.5-1.6.5L9 12.5s-.8.3-1 .6c-.2.2-.3 1-.3 1L3.5 32.5v.6s-.2.4 0 .8l.2.5.4.5 12 15 .6.6c.3.2 1.1.1 1.1.1h19l1.2-.1c.4-.2.8-.8.8-.8l11.5-14.4s.8-1 .9-1.4l-.2-2Zm-7.6.8c-.9-.2-1-.4-2-.7h-1.8c-1 3-3 5.6-5.7 7.2 0 .5 0 1 .3 1.5.6 1 .8 1 1.2 1.9.3.6.2 1.3-.3 1.5-.5.2-1.1 0-1.4-.7l-.8-2.1c-.2-.5-.5-.9-1-1.2a13 13 0 0 1-9.1 0v.2c-.8.3-1 1-1.2 1.3l-.8 2.1c-.3.6-1 1-1.4.7-.5-.2-.6-.9-.3-1.5l1.2-2c.2-.4.3-1 .3-1.6v-.1A13 13 0 0 1 15 32c-.6-.2-1.2-.1-1.6 0l-2.1.7c-.7.2-1.3-.1-1.5-.6 0-.5.4-1 1-1.2 1-.2 1 0 2.3-.3.5-.1 1-.4 1.4-.7a13 13 0 0 1 2-8.9c-.2-.7-.7-1-1-1.3-1-.7-1.2-.6-1.9-1.2-.5-.4-.7-1.1-.4-1.5.3-.4 1-.4 1.6 0l1.6 1.6c.4.3 1 .5 1.5.6 2.2-2.3 5-3.7 8.2-4 .5-.6.5-1.3.5-1.7 0-1.2-.3-1.3-.3-2.2 0-.7.5-1.3 1-1.3s1 .6 1 1.3c0 .9-.2 1-.3 2.2 0 .6.2 1.2.5 1.7 3 .3 6 1.7 8.1 4 .8 0 1.3-.5 1.6-.7 1-.8 1-1 1.6-1.6.6-.4 1.3-.4 1.6 0 .3.4.1 1-.4 1.5-.7.6-1 .5-1.9 1.2-.4.4-.8.8-1 1.4a12.8 12.8 0 0 1 2 8.8c.5.6 1.1.7 1.5.8 1.2.2 1.4 0 2.2.3.7.1 1.2.7 1 1.2 0 .5-.7.8-1.4.6Z"
  />
  <path
    fill="#316ADF"
    d="m31.8 26.9.1.5c1 .6 3.4 1.3 5.6 1.9a10.4 10.4 0 0 0-1.5-6.5 38.4 38.4 0 0 0-4.2 4ZM29.6 24c1-.4 3.1-1.8 5-3.2a10.3 10.3 0 0 0-6.1-3c0 2.5.3 5 .5 6l.6.2Zm1.2 7.2c.2 1.2 1.1 3.5 2 5.5 2-1.2 3.4-3 4.2-5.2-2.3-.4-4.9-.8-5.9-.8 0 .2-.2.4-.3.5ZM27.3 33H27c-.7.7-2 3-3 5a10.3 10.3 0 0 0 6.7 0c-1-2-2.3-4.1-3-5h-.4Z"
  />
</svg>
