<svg
  xmlns="http://www.w3.org/2000/svg"
  width="514"
  height="210"
  viewBox="0 0 514 210"
  fill="none"
>
  <g filter="url(#filter0_i_565_33591)">
    <rect x="340" y="79" width="173" height="52" rx="26" fill="#141414" />

    <path
      d="M387.701 104.276C389.068 106.275 391.902 106.09 391.902 106.09C391.2 105.406 390.737 104.777 390.682 103C390.626 101.223 389.627 100.742 389.627 100.742C391.449 99.6011 390.793 98.3547 390.737 96.9718C390.703 96.1167 391.214 95.4736 391.609 95.1094C387.24 95.7539 383.886 99.5186 383.886 104.067C383.886 104.389 383.921 104.689 383.953 105.002C384.121 104.554 386.437 102.428 387.702 104.276H387.701Z"
      fill="url(#paint2_linear_565_33591)"
    />
    <path
      d="M403.18 98.8476C402.214 98.0338 401.177 97.8232 400.379 97.8232C398.092 97.8232 396.165 99.6871 396.054 101.971C396.048 102.073 396.048 102.147 396.048 102.234C396.048 102.389 396.062 102.557 396.074 102.689C396.095 102.918 396.173 103.285 396.229 103.605C396.295 103.994 396.324 104.2 396.338 104.604C396.351 105.005 396.314 105.437 396.274 105.703C396.213 106.118 396.083 106.619 395.933 107C395.482 108.144 394.742 109.1 393.8 109.79C392.791 110.53 391.543 110.981 390.146 110.981C389.136 110.981 388.211 110.748 387.377 110.329C385.657 109.464 384.424 107.868 384.042 105.875C384.795 110.973 389.248 114.874 394.555 114.874C400.39 114.874 405.121 110.143 405.121 104.308C405.121 103.475 405.028 102.726 404.899 102.092C404.802 101.618 404.647 101.084 404.421 100.558C404.129 99.8792 403.755 99.3328 403.18 98.8476Z"
      fill="url(#paint3_linear_565_33591)"
    />
    <mask
      id="mask0_565_33591"
      style="mask-type: luminance"
      maskUnits="userSpaceOnUse"
      x="384"
      y="97"
      width="22"
      height="18"
    >
      <path
        d="M403.18 98.8476C402.214 98.0338 401.177 97.8232 400.378 97.8232C398.092 97.8232 396.164 99.6871 396.053 101.971C396.048 102.073 396.048 102.147 396.048 102.234C396.048 102.389 396.062 102.557 396.073 102.689C396.094 102.918 396.173 103.285 396.228 103.605C396.295 103.994 396.324 104.2 396.338 104.604C396.351 105.005 396.314 105.437 396.274 105.703C396.213 106.118 396.083 106.619 395.932 107C395.481 108.144 394.741 109.1 393.8 109.79C392.791 110.53 391.543 110.981 390.146 110.981C389.136 110.981 388.211 110.748 387.377 110.329C385.657 109.464 384.423 107.868 384.042 105.875C384.795 110.973 389.248 114.874 394.555 114.874C400.39 114.874 405.121 110.143 405.121 104.308C405.121 103.475 405.028 102.726 404.899 102.092C404.802 101.618 404.647 101.084 404.421 100.558C404.129 99.8792 403.755 99.3328 403.18 98.8476Z"
        fill="white"
      />
    </mask>
    <g mask="url(#mask0_565_33591)">
      <path
        d="M393.412 112.871C398.554 112.871 402.722 108.703 402.722 103.561C402.722 98.4185 398.554 94.25 393.412 94.25C388.269 94.25 384.101 98.4185 384.101 103.561C384.101 108.703 388.269 112.871 393.412 112.871Z"
        fill="url(#paint4_linear_565_33591)"
      />
    </g>
    <path
      d="M420.548 111.288C419.564 111.288 418.706 111.102 417.974 110.73C417.242 110.358 416.66 109.848 416.228 109.2C415.808 108.54 415.562 107.778 415.49 106.914L417.11 106.806C417.194 107.442 417.38 107.982 417.668 108.426C417.956 108.87 418.34 109.206 418.82 109.434C419.312 109.662 419.9 109.776 420.584 109.776C421.184 109.776 421.694 109.698 422.114 109.542C422.534 109.386 422.852 109.158 423.068 108.858C423.296 108.558 423.41 108.192 423.41 107.76C423.41 107.364 423.314 107.016 423.122 106.716C422.942 106.404 422.588 106.122 422.06 105.87C421.544 105.606 420.776 105.348 419.756 105.096C418.772 104.844 417.986 104.568 417.398 104.268C416.822 103.968 416.402 103.602 416.138 103.17C415.886 102.738 415.76 102.204 415.76 101.568C415.76 100.848 415.928 100.218 416.264 99.678C416.612 99.126 417.104 98.7 417.74 98.4C418.376 98.088 419.132 97.932 420.008 97.932C420.944 97.932 421.748 98.112 422.42 98.472C423.092 98.82 423.626 99.3 424.022 99.912C424.418 100.524 424.664 101.22 424.76 102L423.14 102.108C423.068 101.592 422.9 101.136 422.636 100.74C422.384 100.332 422.036 100.014 421.592 99.786C421.148 99.558 420.608 99.444 419.972 99.444C419.18 99.444 418.55 99.636 418.082 100.02C417.614 100.392 417.38 100.884 417.38 101.496C417.38 101.892 417.47 102.222 417.65 102.486C417.842 102.738 418.178 102.966 418.658 103.17C419.138 103.362 419.828 103.572 420.728 103.8C421.796 104.064 422.642 104.382 423.266 104.754C423.902 105.114 424.352 105.534 424.616 106.014C424.892 106.494 425.03 107.04 425.03 107.652C425.03 108.396 424.838 109.044 424.454 109.596C424.07 110.136 423.542 110.556 422.87 110.856C422.198 111.144 421.424 111.288 420.548 111.288ZM431.426 111.216C430.526 111.216 429.746 111.012 429.086 110.604C428.438 110.196 427.934 109.62 427.574 108.876C427.226 108.12 427.052 107.238 427.052 106.23C427.052 105.222 427.226 104.346 427.574 103.602C427.934 102.858 428.432 102.282 429.068 101.874C429.716 101.454 430.478 101.244 431.354 101.244C432.182 101.244 432.914 101.442 433.55 101.838C434.186 102.222 434.678 102.786 435.026 103.53C435.386 104.274 435.566 105.18 435.566 106.248V106.698H428.636C428.696 107.718 428.966 108.486 429.446 109.002C429.938 109.518 430.598 109.776 431.426 109.776C432.05 109.776 432.56 109.632 432.956 109.344C433.364 109.044 433.646 108.654 433.802 108.174L435.422 108.3C435.17 109.152 434.69 109.854 433.982 110.406C433.286 110.946 432.434 111.216 431.426 111.216ZM428.636 105.366H433.91C433.838 104.442 433.568 103.764 433.1 103.332C432.644 102.9 432.062 102.684 431.354 102.684C430.622 102.684 430.016 102.912 429.536 103.368C429.068 103.812 428.768 104.478 428.636 105.366ZM440.434 111.216C439.45 111.216 438.664 110.988 438.076 110.532C437.5 110.076 437.212 109.44 437.212 108.624C437.212 107.808 437.452 107.166 437.932 106.698C438.412 106.23 439.174 105.9 440.218 105.708L443.602 105.078C443.602 104.274 443.41 103.674 443.026 103.278C442.654 102.882 442.09 102.684 441.334 102.684C440.674 102.684 440.152 102.834 439.768 103.134C439.384 103.422 439.12 103.842 438.976 104.394L437.374 104.268C437.554 103.368 437.986 102.642 438.67 102.09C439.366 101.526 440.254 101.244 441.334 101.244C442.558 101.244 443.494 101.592 444.142 102.288C444.79 102.972 445.114 103.92 445.114 105.132V109.074C445.114 109.29 445.15 109.446 445.222 109.542C445.306 109.626 445.438 109.668 445.618 109.668H445.996V111C445.948 111.012 445.87 111.018 445.762 111.018C445.654 111.03 445.54 111.036 445.42 111.036C444.988 111.036 444.634 110.97 444.358 110.838C444.094 110.694 443.902 110.478 443.782 110.19C443.662 109.89 443.602 109.5 443.602 109.02L443.782 109.056C443.698 109.464 443.494 109.836 443.17 110.172C442.846 110.496 442.444 110.754 441.964 110.946C441.484 111.126 440.974 111.216 440.434 111.216ZM440.578 109.884C441.214 109.884 441.754 109.764 442.198 109.524C442.654 109.272 443.002 108.936 443.242 108.516C443.482 108.084 443.602 107.604 443.602 107.076V106.392L440.506 106.968C439.858 107.088 439.408 107.274 439.156 107.526C438.916 107.766 438.796 108.084 438.796 108.48C438.796 108.924 438.952 109.272 439.264 109.524C439.588 109.764 440.026 109.884 440.578 109.884ZM449.47 111C448.918 111 448.468 110.856 448.12 110.568C447.772 110.28 447.598 109.824 447.598 109.2V98.22H449.11V109.074C449.11 109.266 449.158 109.416 449.254 109.524C449.362 109.62 449.512 109.668 449.704 109.668H450.532V111H449.47ZM456.018 111.216C455.142 111.216 454.374 111.012 453.714 110.604C453.054 110.196 452.544 109.62 452.184 108.876C451.824 108.12 451.644 107.238 451.644 106.23C451.644 105.21 451.824 104.328 452.184 103.584C452.544 102.84 453.054 102.264 453.714 101.856C454.374 101.448 455.142 101.244 456.018 101.244C456.894 101.244 457.656 101.448 458.304 101.856C458.964 102.264 459.474 102.84 459.834 103.584C460.194 104.328 460.374 105.21 460.374 106.23C460.374 107.238 460.194 108.12 459.834 108.876C459.474 109.62 458.964 110.196 458.304 110.604C457.656 111.012 456.894 111.216 456.018 111.216ZM456.018 109.776C456.894 109.776 457.572 109.464 458.052 108.84C458.544 108.204 458.79 107.334 458.79 106.23C458.79 105.126 458.544 104.262 458.052 103.638C457.572 103.002 456.894 102.684 456.018 102.684C455.142 102.684 454.458 103.002 453.966 103.638C453.474 104.262 453.228 105.126 453.228 106.23C453.228 107.334 453.474 108.204 453.966 108.84C454.458 109.464 455.142 109.776 456.018 109.776ZM465.908 111.216C465.056 111.216 464.33 111.078 463.73 110.802C463.142 110.526 462.68 110.148 462.344 109.668C462.02 109.176 461.834 108.618 461.786 107.994L463.37 107.886C463.466 108.462 463.712 108.924 464.108 109.272C464.504 109.608 465.104 109.776 465.908 109.776C466.556 109.776 467.072 109.674 467.456 109.47C467.852 109.254 468.05 108.912 468.05 108.444C468.05 108.192 467.99 107.982 467.87 107.814C467.75 107.646 467.516 107.502 467.168 107.382C466.82 107.25 466.304 107.124 465.62 107.004C464.708 106.836 463.988 106.632 463.46 106.392C462.944 106.14 462.572 105.834 462.344 105.474C462.128 105.102 462.02 104.664 462.02 104.16C462.02 103.308 462.332 102.612 462.956 102.072C463.58 101.52 464.468 101.244 465.62 101.244C466.4 101.244 467.054 101.388 467.582 101.676C468.122 101.952 468.542 102.324 468.842 102.792C469.154 103.248 469.358 103.752 469.454 104.304L467.87 104.412C467.798 104.076 467.666 103.782 467.474 103.53C467.282 103.266 467.03 103.062 466.718 102.918C466.406 102.762 466.034 102.684 465.602 102.684C464.918 102.684 464.414 102.816 464.09 103.08C463.766 103.344 463.604 103.68 463.604 104.088C463.604 104.4 463.676 104.658 463.82 104.862C463.976 105.054 464.222 105.216 464.558 105.348C464.894 105.468 465.344 105.576 465.908 105.672C466.88 105.84 467.636 106.044 468.176 106.284C468.716 106.524 469.094 106.818 469.31 107.166C469.526 107.514 469.634 107.94 469.634 108.444C469.634 109.032 469.466 109.536 469.13 109.956C468.806 110.364 468.362 110.676 467.798 110.892C467.246 111.108 466.616 111.216 465.908 111.216Z"
      fill="#E4E4E7"
    />
  </g>
  <g filter="url(#filter1_i_565_33591)">
    <rect x="94" y="1" width="158" height="52" rx="26" fill="#141414" />
    <rect
      x="93.5"
      y="0.5"
      width="159"
      height="53"
      rx="26.5"
      stroke="white"
      stroke-opacity="0.05"
    />
    <path
      d="M122.5 35.3337V32.0003C122.616 30.9564 122.317 29.9088 121.667 29.0837C124.167 29.0837 126.667 27.417 126.667 24.5003C126.733 23.4587 126.442 22.4337 125.833 21.5837C126.067 20.6253 126.067 19.6253 125.833 18.667C125.833 18.667 125 18.667 123.333 19.917C121.133 19.5003 118.867 19.5003 116.667 19.917C115 18.667 114.167 18.667 114.167 18.667C113.917 19.6253 113.917 20.6253 114.167 21.5837C113.56 22.4302 113.265 23.461 113.333 24.5003C113.333 27.417 115.833 29.0837 118.333 29.0837C118.008 29.492 117.767 29.9587 117.625 30.4587C117.483 30.9587 117.442 31.4837 117.5 32.0003M117.5 32.0003V35.3337M117.5 32.0003C113.742 33.667 113.333 30.3337 111.667 30.3337"
      stroke="white"
      stroke-opacity="0.8"
      stroke-width="1.33"
      stroke-linecap="round"
      stroke-linejoin="round"
    />
    <path
      d="M144.516 33.288C143.316 33.288 142.29 33 141.438 32.424C140.586 31.848 139.932 31.062 139.476 30.066C139.032 29.058 138.81 27.912 138.81 26.628C138.81 25.344 139.038 24.198 139.494 23.19C139.95 22.182 140.604 21.39 141.456 20.814C142.32 20.226 143.352 19.932 144.552 19.932C145.572 19.932 146.43 20.118 147.126 20.49C147.834 20.862 148.392 21.366 148.8 22.002C149.22 22.638 149.508 23.352 149.664 24.144L148.044 24.252C147.888 23.424 147.54 22.752 147 22.236C146.46 21.708 145.644 21.444 144.552 21.444C143.58 21.444 142.788 21.684 142.176 22.164C141.576 22.644 141.132 23.28 140.844 24.072C140.568 24.852 140.43 25.704 140.43 26.628C140.43 27.6 140.574 28.476 140.862 29.256C141.15 30.024 141.6 30.636 142.212 31.092C142.824 31.548 143.604 31.776 144.552 31.776C145.308 31.776 145.962 31.608 146.514 31.272C147.066 30.924 147.492 30.462 147.792 29.886C148.092 29.31 148.248 28.686 148.26 28.014H144.588V26.538H149.7V33H148.548L148.44 30.048L148.656 30.3C148.512 30.876 148.236 31.392 147.828 31.848C147.42 32.292 146.928 32.646 146.352 32.91C145.788 33.162 145.176 33.288 144.516 33.288ZM152.044 33V23.46H153.556V33H152.044ZM152.008 21.966V20.202H153.592V21.966H152.008ZM159.209 33C158.345 33 157.703 32.802 157.283 32.406C156.875 32.01 156.671 31.392 156.671 30.552V21.228H158.183V30.516C158.183 30.948 158.279 31.248 158.471 31.416C158.663 31.584 158.957 31.668 159.353 31.668H160.721V33H159.209ZM155.267 24.792V23.46H160.721V24.792H155.267ZM162.877 33V20.22H164.425V26.43L163.633 25.818H171.643L170.851 26.43V20.22H172.399V33H170.851V26.718L171.643 27.33H163.633L164.425 26.718V33H162.877ZM178.273 33.216C177.325 33.216 176.563 32.898 175.987 32.262C175.423 31.614 175.141 30.726 175.141 29.598V23.46H176.653V29.184C176.653 30.108 176.815 30.792 177.139 31.236C177.475 31.668 177.985 31.884 178.669 31.884C179.425 31.884 180.019 31.644 180.451 31.164C180.883 30.672 181.099 30 181.099 29.148V23.46H182.611V33H181.171V30.642L181.405 30.768C181.213 31.548 180.847 32.154 180.307 32.586C179.767 33.006 179.089 33.216 178.273 33.216ZM189.605 33.216C188.945 33.216 188.357 33.072 187.841 32.784C187.325 32.484 186.929 32.076 186.653 31.56L186.599 33H185.231V20.22H186.743V24.792C186.983 24.396 187.355 24.042 187.859 23.73C188.363 23.406 188.945 23.244 189.605 23.244C190.445 23.244 191.171 23.448 191.783 23.856C192.395 24.264 192.869 24.84 193.205 25.584C193.541 26.328 193.709 27.21 193.709 28.23C193.709 29.25 193.541 30.132 193.205 30.876C192.869 31.62 192.395 32.196 191.783 32.604C191.171 33.012 190.445 33.216 189.605 33.216ZM189.515 31.776C190.319 31.776 190.955 31.458 191.423 30.822C191.891 30.186 192.125 29.322 192.125 28.23C192.125 27.126 191.891 26.262 191.423 25.638C190.955 25.002 190.331 24.684 189.551 24.684C188.963 24.684 188.459 24.828 188.039 25.116C187.619 25.392 187.295 25.794 187.067 26.322C186.851 26.85 186.743 27.486 186.743 28.23C186.743 28.95 186.851 29.58 187.067 30.12C187.295 30.648 187.613 31.056 188.021 31.344C188.441 31.632 188.939 31.776 189.515 31.776ZM200.436 33V23.46H201.768L201.84 25.872L201.696 25.818C201.816 25.002 202.074 24.408 202.47 24.036C202.878 23.652 203.418 23.46 204.09 23.46H205.026V24.9H204.108C203.628 24.9 203.226 24.99 202.902 25.17C202.59 25.338 202.35 25.596 202.182 25.944C202.026 26.28 201.948 26.712 201.948 27.24V33H200.436ZM210.262 33.216C209.362 33.216 208.582 33.012 207.922 32.604C207.274 32.196 206.77 31.62 206.41 30.876C206.062 30.12 205.888 29.238 205.888 28.23C205.888 27.222 206.062 26.346 206.41 25.602C206.77 24.858 207.268 24.282 207.904 23.874C208.552 23.454 209.314 23.244 210.19 23.244C211.018 23.244 211.75 23.442 212.386 23.838C213.022 24.222 213.514 24.786 213.862 25.53C214.222 26.274 214.402 27.18 214.402 28.248V28.698H207.472C207.532 29.718 207.802 30.486 208.282 31.002C208.774 31.518 209.434 31.776 210.262 31.776C210.886 31.776 211.396 31.632 211.792 31.344C212.2 31.044 212.482 30.654 212.638 30.174L214.258 30.3C214.006 31.152 213.526 31.854 212.818 32.406C212.122 32.946 211.27 33.216 210.262 33.216ZM207.472 27.366H212.746C212.674 26.442 212.404 25.764 211.936 25.332C211.48 24.9 210.898 24.684 210.19 24.684C209.458 24.684 208.852 24.912 208.372 25.368C207.904 25.812 207.604 26.478 207.472 27.366ZM216.45 35.7V23.46H217.854L217.89 25.512L217.674 25.404C217.914 24.696 218.31 24.162 218.862 23.802C219.426 23.43 220.074 23.244 220.806 23.244C221.754 23.244 222.528 23.478 223.128 23.946C223.74 24.414 224.19 25.026 224.478 25.782C224.778 26.538 224.928 27.354 224.928 28.23C224.928 29.106 224.778 29.922 224.478 30.678C224.19 31.434 223.74 32.046 223.128 32.514C222.528 32.982 221.754 33.216 220.806 33.216C220.314 33.216 219.852 33.132 219.42 32.964C219 32.796 218.64 32.562 218.34 32.262C218.052 31.962 217.854 31.608 217.746 31.2L217.962 30.948V35.7H216.45ZM220.662 31.776C221.49 31.776 222.144 31.464 222.624 30.84C223.104 30.216 223.344 29.346 223.344 28.23C223.344 27.114 223.104 26.244 222.624 25.62C222.144 24.996 221.49 24.684 220.662 24.684C220.11 24.684 219.63 24.816 219.222 25.08C218.826 25.344 218.514 25.74 218.286 26.268C218.07 26.796 217.962 27.45 217.962 28.23C217.962 29.01 218.07 29.664 218.286 30.192C218.502 30.72 218.814 31.116 219.222 31.38C219.63 31.644 220.11 31.776 220.662 31.776ZM230.705 33.216C229.829 33.216 229.061 33.012 228.401 32.604C227.741 32.196 227.231 31.62 226.871 30.876C226.511 30.12 226.331 29.238 226.331 28.23C226.331 27.21 226.511 26.328 226.871 25.584C227.231 24.84 227.741 24.264 228.401 23.856C229.061 23.448 229.829 23.244 230.705 23.244C231.581 23.244 232.343 23.448 232.991 23.856C233.651 24.264 234.161 24.84 234.521 25.584C234.881 26.328 235.061 27.21 235.061 28.23C235.061 29.238 234.881 30.12 234.521 30.876C234.161 31.62 233.651 32.196 232.991 32.604C232.343 33.012 231.581 33.216 230.705 33.216ZM230.705 31.776C231.581 31.776 232.259 31.464 232.739 30.84C233.231 30.204 233.477 29.334 233.477 28.23C233.477 27.126 233.231 26.262 232.739 25.638C232.259 25.002 231.581 24.684 230.705 24.684C229.829 24.684 229.145 25.002 228.653 25.638C228.161 26.262 227.915 27.126 227.915 28.23C227.915 29.334 228.161 30.204 228.653 30.84C229.145 31.464 229.829 31.776 230.705 31.776Z"
      fill="#E4E4E7"
    />
  </g>
  <g filter="url(#filter2_i_565_33591)">
    <rect x="1" y="79" width="213" height="52" rx="26" fill="#141414" />
    <rect
      x="0.5"
      y="78.5"
      width="214"
      height="53"
      rx="26.5"
      stroke="white"
      stroke-opacity="0.05"
    />
    <path
      d="M27.9544 104.375H25.8919V102.531H27.9544V104.375ZM27.9544 98H25.8919V99.9062H27.9544V98ZM30.3919 102.531H28.3294V104.375H30.3919V102.531ZM25.5169 100.281H23.4544V102.156H25.5169V100.281ZM27.9544 100.281H25.8919V102.156H27.9544V100.281ZM36.6107 103.406C36.1732 103.094 35.1107 103 34.3294 103.156C34.2357 102.406 33.7982 101.75 33.0482 101.156L32.6107 100.875L32.3294 101.312C31.7669 102.188 31.6107 103.625 32.2044 104.562C31.9232 104.719 31.3919 104.906 30.7044 104.906H17.0794C16.7982 106.5 17.2669 108.563 18.4544 109.969C19.6107 111.344 21.3607 112.031 23.6107 112.031C28.5169 112.031 32.1732 109.781 33.8607 105.656C34.5169 105.656 35.9857 105.656 36.7044 104.25C36.7357 104.188 36.9232 103.844 36.9544 103.719L36.6107 103.406ZM20.6419 102.531H18.5794V104.375H20.6419V102.531ZM23.0794 102.531H21.0169V104.375H23.0794V102.531ZM25.5169 102.531H23.4544V104.375H25.5169V102.531ZM23.0794 100.281H21.0169V102.156H23.0794V100.281Z"
      fill="#1C63ED"
    />
    <path
      d="M46.656 111V98.22H50.616C52.584 98.22 54.096 98.778 55.152 99.894C56.22 100.998 56.754 102.576 56.754 104.628C56.754 106.668 56.232 108.24 55.188 109.344C54.144 110.448 52.656 111 50.724 111H46.656ZM48.204 109.488H50.616C52.116 109.488 53.244 109.086 54 108.282C54.756 107.466 55.134 106.248 55.134 104.628C55.134 102.984 54.756 101.76 54 100.956C53.244 100.14 52.116 99.732 50.616 99.732H48.204V109.488ZM62.9805 111.216C62.1045 111.216 61.3365 111.012 60.6765 110.604C60.0165 110.196 59.5065 109.62 59.1465 108.876C58.7865 108.12 58.6065 107.238 58.6065 106.23C58.6065 105.21 58.7865 104.328 59.1465 103.584C59.5065 102.84 60.0165 102.264 60.6765 101.856C61.3365 101.448 62.1045 101.244 62.9805 101.244C63.8565 101.244 64.6185 101.448 65.2665 101.856C65.9265 102.264 66.4365 102.84 66.7965 103.584C67.1565 104.328 67.3365 105.21 67.3365 106.23C67.3365 107.238 67.1565 108.12 66.7965 108.876C66.4365 109.62 65.9265 110.196 65.2665 110.604C64.6185 111.012 63.8565 111.216 62.9805 111.216ZM62.9805 109.776C63.8565 109.776 64.5345 109.464 65.0145 108.84C65.5065 108.204 65.7525 107.334 65.7525 106.23C65.7525 105.126 65.5065 104.262 65.0145 103.638C64.5345 103.002 63.8565 102.684 62.9805 102.684C62.1045 102.684 61.4205 103.002 60.9285 103.638C60.4365 104.262 60.1905 105.126 60.1905 106.23C60.1905 107.334 60.4365 108.204 60.9285 108.84C61.4205 109.464 62.1045 109.776 62.9805 109.776ZM73.123 111.216C72.235 111.216 71.461 111.012 70.801 110.604C70.153 110.196 69.649 109.62 69.289 108.876C68.929 108.12 68.749 107.238 68.749 106.23C68.749 105.222 68.929 104.346 69.289 103.602C69.649 102.858 70.153 102.282 70.801 101.874C71.461 101.454 72.235 101.244 73.123 101.244C73.855 101.244 74.503 101.376 75.067 101.64C75.643 101.892 76.111 102.264 76.471 102.756C76.831 103.248 77.065 103.848 77.173 104.556L75.589 104.664C75.481 104.028 75.205 103.542 74.761 103.206C74.317 102.858 73.771 102.684 73.123 102.684C72.247 102.684 71.563 103.002 71.071 103.638C70.579 104.262 70.333 105.126 70.333 106.23C70.333 107.334 70.579 108.204 71.071 108.84C71.563 109.464 72.247 109.776 73.123 109.776C73.771 109.776 74.317 109.596 74.761 109.236C75.205 108.876 75.481 108.336 75.589 107.616L77.173 107.724C77.065 108.432 76.831 109.05 76.471 109.578C76.111 110.094 75.643 110.496 75.067 110.784C74.503 111.072 73.855 111.216 73.123 111.216ZM79.0474 111V98.22H80.5594V106.59L85.2034 101.46H87.2194L83.4574 105.51L87.3814 111H85.5454L82.4314 106.536L80.5594 108.516V111H79.0474ZM92.4941 111.216C91.5941 111.216 90.8141 111.012 90.1541 110.604C89.5061 110.196 89.0021 109.62 88.6421 108.876C88.2941 108.12 88.1201 107.238 88.1201 106.23C88.1201 105.222 88.2941 104.346 88.6421 103.602C89.0021 102.858 89.5001 102.282 90.1361 101.874C90.7841 101.454 91.5461 101.244 92.4221 101.244C93.2501 101.244 93.9821 101.442 94.6181 101.838C95.2541 102.222 95.7461 102.786 96.0941 103.53C96.4541 104.274 96.6341 105.18 96.6341 106.248V106.698H89.7041C89.7641 107.718 90.0341 108.486 90.5141 109.002C91.0061 109.518 91.6661 109.776 92.4941 109.776C93.1181 109.776 93.6281 109.632 94.0241 109.344C94.4321 109.044 94.7141 108.654 94.8701 108.174L96.4901 108.3C96.2381 109.152 95.7581 109.854 95.0501 110.406C94.3541 110.946 93.5021 111.216 92.4941 111.216ZM89.7041 105.366H94.9781C94.9061 104.442 94.6361 103.764 94.1681 103.332C93.7121 102.9 93.1301 102.684 92.4221 102.684C91.6901 102.684 91.0841 102.912 90.6041 103.368C90.1361 103.812 89.8361 104.478 89.7041 105.366ZM98.6822 111V101.46H100.014L100.086 103.872L99.9422 103.818C100.062 103.002 100.32 102.408 100.716 102.036C101.124 101.652 101.664 101.46 102.336 101.46H103.272V102.9H102.354C101.874 102.9 101.472 102.99 101.148 103.17C100.836 103.338 100.596 103.596 100.428 103.944C100.272 104.28 100.194 104.712 100.194 105.24V111H98.6822ZM110.219 111V98.22H111.767V104.43L110.975 103.818H118.985L118.193 104.43V98.22H119.741V111H118.193V104.718L118.985 105.33H110.975L111.767 104.718V111H110.219ZM125.615 111.216C124.667 111.216 123.905 110.898 123.329 110.262C122.765 109.614 122.483 108.726 122.483 107.598V101.46H123.995V107.184C123.995 108.108 124.157 108.792 124.481 109.236C124.817 109.668 125.327 109.884 126.011 109.884C126.767 109.884 127.361 109.644 127.793 109.164C128.225 108.672 128.441 108 128.441 107.148V101.46H129.953V111H128.513V108.642L128.747 108.768C128.555 109.548 128.189 110.154 127.649 110.586C127.109 111.006 126.431 111.216 125.615 111.216ZM136.947 111.216C136.287 111.216 135.699 111.072 135.183 110.784C134.667 110.484 134.271 110.076 133.995 109.56L133.941 111H132.573V98.22H134.085V102.792C134.325 102.396 134.697 102.042 135.201 101.73C135.705 101.406 136.287 101.244 136.947 101.244C137.787 101.244 138.513 101.448 139.125 101.856C139.737 102.264 140.211 102.84 140.547 103.584C140.883 104.328 141.051 105.21 141.051 106.23C141.051 107.25 140.883 108.132 140.547 108.876C140.211 109.62 139.737 110.196 139.125 110.604C138.513 111.012 137.787 111.216 136.947 111.216ZM136.857 109.776C137.661 109.776 138.297 109.458 138.765 108.822C139.233 108.186 139.467 107.322 139.467 106.23C139.467 105.126 139.233 104.262 138.765 103.638C138.297 103.002 137.673 102.684 136.893 102.684C136.305 102.684 135.801 102.828 135.381 103.116C134.961 103.392 134.637 103.794 134.409 104.322C134.193 104.85 134.085 105.486 134.085 106.23C134.085 106.95 134.193 107.58 134.409 108.12C134.637 108.648 134.955 109.056 135.363 109.344C135.783 109.632 136.281 109.776 136.857 109.776ZM147.994 111V98.22H149.542V111H147.994ZM152.805 111V101.46H154.191L154.245 103.872L154.029 103.8C154.137 103.272 154.323 102.822 154.587 102.45C154.863 102.066 155.199 101.772 155.595 101.568C155.991 101.352 156.429 101.244 156.909 101.244C157.737 101.244 158.409 101.472 158.925 101.928C159.453 102.384 159.783 103.02 159.915 103.836L159.627 103.818C159.723 103.266 159.897 102.804 160.149 102.432C160.413 102.048 160.749 101.754 161.157 101.55C161.565 101.346 162.033 101.244 162.561 101.244C163.245 101.244 163.821 101.388 164.289 101.676C164.757 101.952 165.111 102.36 165.351 102.9C165.591 103.44 165.711 104.094 165.711 104.862V111H164.199V105.186C164.199 104.322 164.031 103.674 163.695 103.242C163.359 102.798 162.861 102.576 162.201 102.576C161.757 102.576 161.367 102.684 161.031 102.9C160.707 103.116 160.455 103.428 160.275 103.836C160.095 104.232 160.005 104.718 160.005 105.294V111H158.493V105.294C158.493 104.442 158.343 103.776 158.043 103.296C157.743 102.816 157.239 102.576 156.531 102.576C156.087 102.576 155.697 102.684 155.361 102.9C155.037 103.116 154.779 103.428 154.587 103.836C154.407 104.244 154.317 104.73 154.317 105.294V111H152.805ZM170.989 111.216C170.005 111.216 169.219 110.988 168.631 110.532C168.055 110.076 167.767 109.44 167.767 108.624C167.767 107.808 168.007 107.166 168.487 106.698C168.967 106.23 169.729 105.9 170.773 105.708L174.157 105.078C174.157 104.274 173.965 103.674 173.581 103.278C173.209 102.882 172.645 102.684 171.889 102.684C171.229 102.684 170.707 102.834 170.323 103.134C169.939 103.422 169.675 103.842 169.531 104.394L167.929 104.268C168.109 103.368 168.541 102.642 169.225 102.09C169.921 101.526 170.809 101.244 171.889 101.244C173.113 101.244 174.049 101.592 174.697 102.288C175.345 102.972 175.669 103.92 175.669 105.132V109.074C175.669 109.29 175.705 109.446 175.777 109.542C175.861 109.626 175.993 109.668 176.173 109.668H176.551V111C176.503 111.012 176.425 111.018 176.317 111.018C176.209 111.03 176.095 111.036 175.975 111.036C175.543 111.036 175.189 110.97 174.913 110.838C174.649 110.694 174.457 110.478 174.337 110.19C174.217 109.89 174.157 109.5 174.157 109.02L174.337 109.056C174.253 109.464 174.049 109.836 173.725 110.172C173.401 110.496 172.999 110.754 172.519 110.946C172.039 111.126 171.529 111.216 170.989 111.216ZM171.133 109.884C171.769 109.884 172.309 109.764 172.753 109.524C173.209 109.272 173.557 108.936 173.797 108.516C174.037 108.084 174.157 107.604 174.157 107.076V106.392L171.061 106.968C170.413 107.088 169.963 107.274 169.711 107.526C169.471 107.766 169.351 108.084 169.351 108.48C169.351 108.924 169.507 109.272 169.819 109.524C170.143 109.764 170.581 109.884 171.133 109.884ZM181.841 113.916C181.157 113.916 180.539 113.802 179.987 113.574C179.435 113.346 178.973 113.022 178.601 112.602C178.229 112.182 177.977 111.696 177.845 111.144L179.429 111.036C179.573 111.48 179.825 111.828 180.185 112.08C180.557 112.344 181.109 112.476 181.841 112.476C182.705 112.476 183.365 112.302 183.821 111.954C184.289 111.606 184.523 111.084 184.523 110.388V108.84C184.295 109.344 183.929 109.746 183.425 110.046C182.921 110.346 182.357 110.496 181.733 110.496C180.929 110.496 180.209 110.298 179.573 109.902C178.949 109.506 178.457 108.96 178.097 108.264C177.749 107.568 177.575 106.77 177.575 105.87C177.575 104.958 177.749 104.16 178.097 103.476C178.445 102.78 178.925 102.234 179.537 101.838C180.161 101.442 180.869 101.244 181.661 101.244C182.333 101.244 182.933 101.4 183.461 101.712C184.001 102.024 184.379 102.444 184.595 102.972V101.46H186.035V110.352C186.035 111.096 185.867 111.732 185.531 112.26C185.195 112.8 184.715 113.208 184.091 113.484C183.467 113.772 182.717 113.916 181.841 113.916ZM181.805 109.056C182.621 109.056 183.275 108.774 183.767 108.21C184.259 107.634 184.511 106.854 184.523 105.87C184.535 105.21 184.427 104.646 184.199 104.178C183.983 103.698 183.665 103.332 183.245 103.08C182.837 102.816 182.357 102.684 181.805 102.684C180.965 102.684 180.311 102.972 179.843 103.548C179.387 104.112 179.159 104.886 179.159 105.87C179.159 106.854 179.393 107.634 179.861 108.21C180.341 108.774 180.989 109.056 181.805 109.056ZM192.461 111.216C191.561 111.216 190.781 111.012 190.121 110.604C189.473 110.196 188.969 109.62 188.609 108.876C188.261 108.12 188.087 107.238 188.087 106.23C188.087 105.222 188.261 104.346 188.609 103.602C188.969 102.858 189.467 102.282 190.103 101.874C190.751 101.454 191.513 101.244 192.389 101.244C193.217 101.244 193.949 101.442 194.585 101.838C195.221 102.222 195.713 102.786 196.061 103.53C196.421 104.274 196.601 105.18 196.601 106.248V106.698H189.671C189.731 107.718 190.001 108.486 190.481 109.002C190.973 109.518 191.633 109.776 192.461 109.776C193.085 109.776 193.595 109.632 193.991 109.344C194.399 109.044 194.681 108.654 194.837 108.174L196.457 108.3C196.205 109.152 195.725 109.854 195.017 110.406C194.321 110.946 193.469 111.216 192.461 111.216ZM189.671 105.366H194.945C194.873 104.442 194.603 103.764 194.135 103.332C193.679 102.9 193.097 102.684 192.389 102.684C191.657 102.684 191.051 102.912 190.571 103.368C190.103 103.812 189.803 104.478 189.671 105.366Z"
      fill="#E4E4E7"
    />
  </g>
  <g filter="url(#filter3_i_565_33591)">
    <rect x="69" y="157" width="183" height="52" rx="26" fill="#141414" />
    <rect
      x="68.5"
      y="156.5"
      width="184"
      height="53"
      rx="26.5"
      stroke="white"
      stroke-opacity="0.05"
    />
    <path
      d="M101.667 178L92.5 187.167L88.3333 183"
      stroke="white"
      stroke-opacity="0.8"
      stroke-width="1.33"
      stroke-linecap="round"
      stroke-linejoin="round"
    />
    <path
      d="M119.516 189.288C118.316 189.288 117.29 189 116.438 188.424C115.586 187.848 114.932 187.062 114.476 186.066C114.032 185.058 113.81 183.912 113.81 182.628C113.81 181.344 114.038 180.198 114.494 179.19C114.95 178.182 115.604 177.39 116.456 176.814C117.32 176.226 118.352 175.932 119.552 175.932C120.572 175.932 121.43 176.118 122.126 176.49C122.834 176.862 123.392 177.366 123.8 178.002C124.22 178.638 124.508 179.352 124.664 180.144L123.044 180.252C122.888 179.424 122.54 178.752 122 178.236C121.46 177.708 120.644 177.444 119.552 177.444C118.58 177.444 117.788 177.684 117.176 178.164C116.576 178.644 116.132 179.28 115.844 180.072C115.568 180.852 115.43 181.704 115.43 182.628C115.43 183.6 115.574 184.476 115.862 185.256C116.15 186.024 116.6 186.636 117.212 187.092C117.824 187.548 118.604 187.776 119.552 187.776C120.308 187.776 120.962 187.608 121.514 187.272C122.066 186.924 122.492 186.462 122.792 185.886C123.092 185.31 123.248 184.686 123.26 184.014H119.588V182.538H124.7V189H123.548L123.44 186.048L123.656 186.3C123.512 186.876 123.236 187.392 122.828 187.848C122.42 188.292 121.928 188.646 121.352 188.91C120.788 189.162 120.176 189.288 119.516 189.288ZM127.044 189V179.46H128.556V189H127.044ZM127.008 177.966V176.202H128.592V177.966H127.008ZM134.209 189C133.345 189 132.703 188.802 132.283 188.406C131.875 188.01 131.671 187.392 131.671 186.552V177.228H133.183V186.516C133.183 186.948 133.279 187.248 133.471 187.416C133.663 187.584 133.957 187.668 134.353 187.668H135.721V189H134.209ZM130.267 180.792V179.46H135.721V180.792H130.267ZM137.877 189V176.22H139.425V182.43L138.633 181.818H146.643L145.851 182.43V176.22H147.399V189H145.851V182.718L146.643 183.33H138.633L139.425 182.718V189H137.877ZM153.273 189.216C152.325 189.216 151.563 188.898 150.987 188.262C150.423 187.614 150.141 186.726 150.141 185.598V179.46H151.653V185.184C151.653 186.108 151.815 186.792 152.139 187.236C152.475 187.668 152.985 187.884 153.669 187.884C154.425 187.884 155.019 187.644 155.451 187.164C155.883 186.672 156.099 186 156.099 185.148V179.46H157.611V189H156.171V186.642L156.405 186.768C156.213 187.548 155.847 188.154 155.307 188.586C154.767 189.006 154.089 189.216 153.273 189.216ZM164.605 189.216C163.945 189.216 163.357 189.072 162.841 188.784C162.325 188.484 161.929 188.076 161.653 187.56L161.599 189H160.231V176.22H161.743V180.792C161.983 180.396 162.355 180.042 162.859 179.73C163.363 179.406 163.945 179.244 164.605 179.244C165.445 179.244 166.171 179.448 166.783 179.856C167.395 180.264 167.869 180.84 168.205 181.584C168.541 182.328 168.709 183.21 168.709 184.23C168.709 185.25 168.541 186.132 168.205 186.876C167.869 187.62 167.395 188.196 166.783 188.604C166.171 189.012 165.445 189.216 164.605 189.216ZM164.515 187.776C165.319 187.776 165.955 187.458 166.423 186.822C166.891 186.186 167.125 185.322 167.125 184.23C167.125 183.126 166.891 182.262 166.423 181.638C165.955 181.002 165.331 180.684 164.551 180.684C163.963 180.684 163.459 180.828 163.039 181.116C162.619 181.392 162.295 181.794 162.067 182.322C161.851 182.85 161.743 183.486 161.743 184.23C161.743 184.95 161.851 185.58 162.067 186.12C162.295 186.648 162.613 187.056 163.021 187.344C163.441 187.632 163.939 187.776 164.515 187.776ZM174.356 189L178.964 176.22H181.052L185.66 189H183.968L182.69 185.364H177.326L176.048 189H174.356ZM177.848 183.852H182.168L180.008 177.57L177.848 183.852ZM190.869 189.216C189.981 189.216 189.207 189.012 188.547 188.604C187.899 188.196 187.395 187.62 187.035 186.876C186.675 186.12 186.495 185.238 186.495 184.23C186.495 183.222 186.675 182.346 187.035 181.602C187.395 180.858 187.899 180.282 188.547 179.874C189.207 179.454 189.981 179.244 190.869 179.244C191.601 179.244 192.249 179.376 192.813 179.64C193.389 179.892 193.857 180.264 194.217 180.756C194.577 181.248 194.811 181.848 194.919 182.556L193.335 182.664C193.227 182.028 192.951 181.542 192.507 181.206C192.063 180.858 191.517 180.684 190.869 180.684C189.993 180.684 189.309 181.002 188.817 181.638C188.325 182.262 188.079 183.126 188.079 184.23C188.079 185.334 188.325 186.204 188.817 186.84C189.309 187.464 189.993 187.776 190.869 187.776C191.517 187.776 192.063 187.596 192.507 187.236C192.951 186.876 193.227 186.336 193.335 185.616L194.919 185.724C194.811 186.432 194.577 187.05 194.217 187.578C193.857 188.094 193.389 188.496 192.813 188.784C192.249 189.072 191.601 189.216 190.869 189.216ZM199.916 189C199.052 189 198.41 188.802 197.99 188.406C197.582 188.01 197.378 187.392 197.378 186.552V177.228H198.89V186.516C198.89 186.948 198.986 187.248 199.178 187.416C199.37 187.584 199.664 187.668 200.06 187.668H201.428V189H199.916ZM195.974 180.792V179.46H201.428V180.792H195.974ZM203.368 189V179.46H204.88V189H203.368ZM203.332 177.966V176.202H204.916V177.966H203.332ZM211.312 189.216C210.436 189.216 209.668 189.012 209.008 188.604C208.348 188.196 207.838 187.62 207.478 186.876C207.118 186.12 206.938 185.238 206.938 184.23C206.938 183.21 207.118 182.328 207.478 181.584C207.838 180.84 208.348 180.264 209.008 179.856C209.668 179.448 210.436 179.244 211.312 179.244C212.188 179.244 212.95 179.448 213.598 179.856C214.258 180.264 214.768 180.84 215.128 181.584C215.488 182.328 215.668 183.21 215.668 184.23C215.668 185.238 215.488 186.12 215.128 186.876C214.768 187.62 214.258 188.196 213.598 188.604C212.95 189.012 212.188 189.216 211.312 189.216ZM211.312 187.776C212.188 187.776 212.866 187.464 213.346 186.84C213.838 186.204 214.084 185.334 214.084 184.23C214.084 183.126 213.838 182.262 213.346 181.638C212.866 181.002 212.188 180.684 211.312 180.684C210.436 180.684 209.752 181.002 209.26 181.638C208.768 182.262 208.522 183.126 208.522 184.23C208.522 185.334 208.768 186.204 209.26 186.84C209.752 187.464 210.436 187.776 211.312 187.776ZM217.729 189V179.46H219.115L219.169 181.89L218.989 181.728C219.109 181.164 219.319 180.702 219.619 180.342C219.919 179.97 220.279 179.694 220.699 179.514C221.131 179.334 221.593 179.244 222.085 179.244C222.817 179.244 223.417 179.406 223.885 179.73C224.365 180.054 224.719 180.492 224.947 181.044C225.187 181.584 225.307 182.19 225.307 182.862V189H223.795V183.294C223.795 182.706 223.723 182.214 223.579 181.818C223.447 181.41 223.231 181.104 222.931 180.9C222.631 180.684 222.241 180.576 221.761 180.576C221.029 180.576 220.423 180.81 219.943 181.278C219.475 181.734 219.241 182.406 219.241 183.294V189H217.729ZM231.451 189.216C230.599 189.216 229.873 189.078 229.273 188.802C228.685 188.526 228.223 188.148 227.887 187.668C227.563 187.176 227.377 186.618 227.329 185.994L228.913 185.886C229.009 186.462 229.255 186.924 229.651 187.272C230.047 187.608 230.647 187.776 231.451 187.776C232.099 187.776 232.615 187.674 232.999 187.47C233.395 187.254 233.593 186.912 233.593 186.444C233.593 186.192 233.533 185.982 233.413 185.814C233.293 185.646 233.059 185.502 232.711 185.382C232.363 185.25 231.847 185.124 231.163 185.004C230.251 184.836 229.531 184.632 229.003 184.392C228.487 184.14 228.115 183.834 227.887 183.474C227.671 183.102 227.563 182.664 227.563 182.16C227.563 181.308 227.875 180.612 228.499 180.072C229.123 179.52 230.011 179.244 231.163 179.244C231.943 179.244 232.597 179.388 233.125 179.676C233.665 179.952 234.085 180.324 234.385 180.792C234.697 181.248 234.901 181.752 234.997 182.304L233.413 182.412C233.341 182.076 233.209 181.782 233.017 181.53C232.825 181.266 232.573 181.062 232.261 180.918C231.949 180.762 231.577 180.684 231.145 180.684C230.461 180.684 229.957 180.816 229.633 181.08C229.309 181.344 229.147 181.68 229.147 182.088C229.147 182.4 229.219 182.658 229.363 182.862C229.519 183.054 229.765 183.216 230.101 183.348C230.437 183.468 230.887 183.576 231.451 183.672C232.423 183.84 233.179 184.044 233.719 184.284C234.259 184.524 234.637 184.818 234.853 185.166C235.069 185.514 235.177 185.94 235.177 186.444C235.177 187.032 235.009 187.536 234.673 187.956C234.349 188.364 233.905 188.676 233.341 188.892C232.789 189.108 232.159 189.216 231.451 189.216Z"
      fill="#E4E4E7"
    />
  </g>
  <defs>
    <filter
      id="filter0_i_565_33591"
      x="339"
      y="78"
      width="175"
      height="54"
      filterUnits="userSpaceOnUse"
      color-interpolation-filters="sRGB"
    >
      <feFlood flood-opacity="0" result="BackgroundImageFix" />
      <feBlend
        mode="normal"
        in="SourceGraphic"
        in2="BackgroundImageFix"
        result="shape"
      />
      <feColorMatrix
        in="SourceAlpha"
        type="matrix"
        values="0 0 0 0 0 0 0 0 0 0 0 0 0 0 0 0 0 0 127 0"
        result="hardAlpha"
      />
      <feOffset />
      <feGaussianBlur stdDeviation="4" />
      <feComposite in2="hardAlpha" operator="arithmetic" k2="-1" k3="1" />
      <feColorMatrix
        type="matrix"
        values="0 0 0 0 0.997296 0 0 0 0 0.998322 0 0 0 0 1 0 0 0 0.25 0"
      />
      <feBlend
        mode="normal"
        in2="shape"
        result="effect1_innerShadow_565_33591"
      />
    </filter>
    <filter
      id="filter1_i_565_33591"
      x="93"
      y="0"
      width="160"
      height="54"
      filterUnits="userSpaceOnUse"
      color-interpolation-filters="sRGB"
    >
      <feFlood flood-opacity="0" result="BackgroundImageFix" />
      <feBlend
        mode="normal"
        in="SourceGraphic"
        in2="BackgroundImageFix"
        result="shape"
      />
      <feColorMatrix
        in="SourceAlpha"
        type="matrix"
        values="0 0 0 0 0 0 0 0 0 0 0 0 0 0 0 0 0 0 127 0"
        result="hardAlpha"
      />
      <feOffset />
      <feGaussianBlur stdDeviation="4" />
      <feComposite in2="hardAlpha" operator="arithmetic" k2="-1" k3="1" />
      <feColorMatrix
        type="matrix"
        values="0 0 0 0 0.997296 0 0 0 0 0.998322 0 0 0 0 1 0 0 0 0.25 0"
      />
      <feBlend
        mode="normal"
        in2="shape"
        result="effect1_innerShadow_565_33591"
      />
    </filter>
    <filter
      id="filter2_i_565_33591"
      x="0"
      y="78"
      width="215"
      height="54"
      filterUnits="userSpaceOnUse"
      color-interpolation-filters="sRGB"
    >
      <feFlood flood-opacity="0" result="BackgroundImageFix" />
      <feBlend
        mode="normal"
        in="SourceGraphic"
        in2="BackgroundImageFix"
        result="shape"
      />
      <feColorMatrix
        in="SourceAlpha"
        type="matrix"
        values="0 0 0 0 0 0 0 0 0 0 0 0 0 0 0 0 0 0 127 0"
        result="hardAlpha"
      />
      <feOffset />
      <feGaussianBlur stdDeviation="4" />
      <feComposite in2="hardAlpha" operator="arithmetic" k2="-1" k3="1" />
      <feColorMatrix
        type="matrix"
        values="0 0 0 0 0.997296 0 0 0 0 0.998322 0 0 0 0 1 0 0 0 0.25 0"
      />
      <feBlend
        mode="normal"
        in2="shape"
        result="effect1_innerShadow_565_33591"
      />
    </filter>
    <filter
      id="filter3_i_565_33591"
      x="68"
      y="156"
      width="185"
      height="54"
      filterUnits="userSpaceOnUse"
      color-interpolation-filters="sRGB"
    >
      <feFlood flood-opacity="0" result="BackgroundImageFix" />
      <feBlend
        mode="normal"
        in="SourceGraphic"
        in2="BackgroundImageFix"
        result="shape"
      />
      <feColorMatrix
        in="SourceAlpha"
        type="matrix"
        values="0 0 0 0 0 0 0 0 0 0 0 0 0 0 0 0 0 0 127 0"
        result="hardAlpha"
      />
      <feOffset />
      <feGaussianBlur stdDeviation="4" />
      <feComposite in2="hardAlpha" operator="arithmetic" k2="-1" k3="1" />
      <feColorMatrix
        type="matrix"
        values="0 0 0 0 0.997296 0 0 0 0 0.998322 0 0 0 0 1 0 0 0 0.25 0"
      />
      <feBlend
        mode="normal"
        in2="shape"
        result="effect1_innerShadow_565_33591"
      />
    </filter>
    <linearGradient
      id="paint0_linear_565_33591"
      x1="217"
      y1="106.43"
      x2="339"
      y2="106.43"
      gradientUnits="userSpaceOnUse"
    >
      <stop stop-color="white" />
      <stop offset="1" stop-color="#146DFF" />
    </linearGradient>
    <linearGradient
      id="paint1_linear_565_33591"
      x1="426.5"
      y1="79"
      x2="333"
      y2="111"
      gradientUnits="userSpaceOnUse"
    >
      <stop stop-color="#A9A9A9" />
      <stop offset="1" stop-color="#0051E6" />
    </linearGradient>
    <linearGradient
      id="paint2_linear_565_33591"
      x1="390.333"
      y1="93.868"
      x2="381.437"
      y2="107.887"
      gradientUnits="userSpaceOnUse"
    >
      <stop stop-color="#0AA3F9" />
      <stop offset="1" stop-color="#B5B4FF" />
    </linearGradient>
    <linearGradient
      id="paint3_linear_565_33591"
      x1="408.257"
      y1="115.351"
      x2="394.117"
      y2="97.1588"
      gradientUnits="userSpaceOnUse"
    >
      <stop stop-color="#0AA3F9" />
      <stop offset="1" stop-color="#B5B4FF" />
    </linearGradient>
    <linearGradient
      id="paint4_linear_565_33591"
      x1="399.87"
      y1="94.2547"
      x2="383.649"
      y2="109.652"
      gradientUnits="userSpaceOnUse"
    >
      <stop stop-color="#7ABBFD" />
      <stop offset="1" stop-color="#7ABBFD" stop-opacity="0" />
    </linearGradient>
  </defs>
</svg>
