<svg xmlns="http://www.w3.org/2000/svg" fill="none" viewBox="0 0 514 210">
  <g filter="url(#a)">
    <rect width="173" height="52" x="340" y="79" fill="#141414" rx="26" />
    <path
      fill="url(#b)"
      d="M387.7 104.3c1.4 2 4.2 1.8 4.2 1.8-.7-.7-1.2-1.3-1.2-3.1s-1-2.3-1-2.3c1.7-1.1 1-2.3 1-3.7 0-.9.5-1.5 1-1.9a9 9 0 0 0-7.8 9v.9c.2-.4 2.5-2.6 3.8-.7Z"
    />
    <path
      fill="url(#c)"
      d="M403.2 98.8c-1-.8-2-1-2.8-1a4.4 4.4 0 0 0-4.3 4.2v.7l.1 1a6.3 6.3 0 0 1-.3 3.3 6.1 6.1 0 0 1-8.6 3.3c-1.6-.8-2.9-2.4-3.3-4.4A10.6 10.6 0 1 0 405 102a8 8 0 0 0-.5-1.5c-.3-.7-.6-1.3-1.2-1.8Z"
    />
    <mask
      id="d"
      width="22"
      height="18"
      x="384"
      y="97"
      maskUnits="userSpaceOnUse"
      style="mask-type: luminance"
    >
      <path
        fill="#fff"
        d="M403.2 98.8c-1-.8-2-1-2.8-1a4.4 4.4 0 0 0-4.3 4.2v.7l.1 1a6.2 6.2 0 1 1-12.2 2.2A10.6 10.6 0 1 0 405 102a8 8 0 0 0-.5-1.5c-.3-.7-.6-1.3-1.2-1.8Z"
      />
    </mask>
    <g mask="url(#d)">
      <path
        fill="url(#e)"
        d="M393.4 112.9a9.3 9.3 0 1 0 0-18.6 9.3 9.3 0 0 0 0 18.6Z"
      />
    </g>
    <path
      fill="#E4E4E7"
      d="M420.5 111.3c-1 0-1.8-.2-2.5-.6-.8-.3-1.3-.9-1.8-1.5a5 5 0 0 1-.7-2.3h1.6c0 .5.3 1 .6 1.5s.6.8 1.1 1c.5.3 1.1.4 1.8.4.6 0 1-.1 1.5-.3a2 2 0 0 0 1-.6c.2-.3.3-.7.3-1.1 0-.4 0-.8-.3-1-.2-.4-.5-.7-1-1l-2.3-.7-2.4-.8c-.6-.3-1-.7-1.3-1.1-.2-.5-.3-1-.3-1.6 0-.8.1-1.4.5-2 .3-.5.8-.9 1.4-1.2.7-.3 1.4-.5 2.3-.5 1 0 1.7.2 2.4.6.7.3 1.2.8 1.6 1.4.4.6.7 1.3.8 2.1l-1.7.1c0-.5-.2-1-.5-1.4-.2-.4-.6-.7-1-1-.5-.1-1-.3-1.6-.3-.8 0-1.4.2-2 .6-.4.4-.6.9-.6 1.5 0 .4 0 .7.3 1 .1.2.5.5 1 .7l2 .6c1.1.3 2 .6 2.6 1 .6.3 1 .7 1.3 1.2.3.5.4 1 .4 1.7s-.2 1.3-.5 1.9c-.4.5-1 1-1.6 1.3-.7.2-1.5.4-2.4.4Zm11 0c-1 0-1.8-.3-2.4-.7a4 4 0 0 1-1.5-1.7c-.4-.8-.5-1.7-.5-2.7 0-1 .1-1.9.5-2.6a4.1 4.1 0 0 1 3.8-2.4 4 4 0 0 1 2.1.6c.7.4 1.2 1 1.5 1.7.4.8.6 1.7.6 2.7v.5h-7c.1 1 .4 1.8.8 2.3.5.5 1.2.8 2 .8.7 0 1.2-.2 1.6-.5.4-.3.6-.6.8-1.1l1.6.1a4 4 0 0 1-4 3Zm-2.9-6h5.3c0-.9-.3-1.5-.8-2-.5-.4-1-.6-1.7-.6-.8 0-1.4.2-1.9.7-.4.4-.7 1-.9 2Zm11.8 6c-1 0-1.7-.3-2.3-.8-.6-.4-.9-1-.9-1.9 0-.8.3-1.4.7-1.9.5-.5 1.3-.8 2.3-1l3.4-.6c0-.8-.2-1.4-.6-1.8-.3-.4-1-.6-1.7-.6-.6 0-1.1.1-1.5.4-.4.3-.7.7-.8 1.3l-1.6-.1c.2-1 .6-1.7 1.3-2.2.7-.6 1.6-.9 2.6-.9 1.3 0 2.2.4 2.8 1a4 4 0 0 1 1 3v3.9l.1.4.4.2h.4v1.3h-.2a3.1 3.1 0 0 1-1.4-.2c-.3-.1-.5-.3-.6-.6l-.2-1.2h.2c-.1.5-.3.8-.6 1.2a4.3 4.3 0 0 1-2.7 1Zm.2-1.4c.6 0 1.2-.1 1.6-.4a2.6 2.6 0 0 0 1.4-2.4v-.7l-3 .6c-.7 0-1.2.3-1.4.5-.3.3-.4.6-.4 1s.2.8.5 1c.3.3.7.4 1.3.4Zm8.9 1.1a2 2 0 0 1-1.4-.4c-.3-.3-.5-.8-.5-1.4v-11h1.5v10.9c0 .2 0 .3.2.4l.4.2h.8v1.3h-1Zm6.5.2c-.9 0-1.6-.2-2.3-.6a4 4 0 0 1-1.5-1.7 6 6 0 0 1-.6-2.7c0-1 .2-1.9.6-2.6a4 4 0 0 1 3.8-2.4c.9 0 1.7.2 2.3.7a4 4 0 0 1 1.5 1.7c.4.7.6 1.6.6 2.6a6 6 0 0 1-.6 2.7 4 4 0 0 1-3.8 2.3Zm0-1.4c.9 0 1.6-.3 2-1 .5-.6.8-1.5.8-2.6a4 4 0 0 0-.7-2.6c-.5-.6-1.2-1-2-1-1 0-1.6.4-2.1 1a4 4 0 0 0-.8 2.6c0 1.1.3 2 .8 2.6.5.7 1.1 1 2 1Zm10 1.4c-1 0-1.7-.1-2.3-.4-.6-.3-1-.7-1.4-1.1-.3-.5-.5-1-.5-1.7l1.6-.1c0 .6.3 1 .7 1.4.4.3 1 .5 1.8.5.7 0 1.2-.1 1.6-.3.4-.2.6-.6.6-1l-.2-.7c-.1-.2-.4-.3-.7-.4a9 9 0 0 0-1.6-.4l-2.1-.6c-.6-.3-1-.6-1.2-1-.2-.3-.3-.7-.3-1.2 0-.9.3-1.6 1-2.1.6-.6 1.5-.9 2.6-.9a4 4 0 0 1 2 .5c.5.3 1 .6 1.2 1 .4.5.6 1 .7 1.6l-1.6.1-.4-.9-.8-.6-1.1-.2c-.7 0-1.2.1-1.5.4-.3.2-.5.6-.5 1 0 .3 0 .6.2.8l.8.4c.3.2.7.3 1.3.4 1 .1 1.7.3 2.3.6.5.2.9.5 1.1.9.2.3.3.7.3 1.2 0 .6-.1 1.1-.5 1.6a3 3 0 0 1-1.3.9c-.6.2-1.2.3-1.9.3Z"
    />
  </g>
  <g filter="url(#f)">
    <rect width="158" height="52" x="94" y="1" fill="#141414" rx="26" />
    <rect
      width="159"
      height="53"
      x="93.5"
      y=".5"
      stroke="#fff"
      stroke-opacity=".1"
      rx="26.5"
    />
    <path
      stroke="#fff"
      stroke-linecap="round"
      stroke-linejoin="round"
      stroke-opacity=".8"
      stroke-width="1.3"
      d="M122.5 35.3V32c.1-1-.2-2-.8-3 2.5 0 5-1.6 5-4.5 0-1-.3-2-.9-3 .3-.9.3-1.9 0-2.8 0 0-.8 0-2.5 1.2a18 18 0 0 0-6.6 0c-1.7-1.2-2.5-1.2-2.5-1.2-.3 1-.3 2 0 2.9-.6.8-1 1.9-.9 2.9 0 3 2.5 4.6 5 4.6a4 4 0 0 0-.8 2.9m0 0v3.3m0-3.3c-3.8 1.7-4.2-1.7-5.8-1.7"
    />
    <path
      fill="#E4E4E7"
      d="M144.5 33.3c-1.2 0-2.2-.3-3-.9a5.6 5.6 0 0 1-2-2.3c-.5-1-.7-2.2-.7-3.5 0-1.3.2-2.4.7-3.4a5.4 5.4 0 0 1 5-3.3c1 0 2 .2 2.6.6.7.4 1.3.9 1.7 1.5.4.6.7 1.4.9 2.1l-1.7.2c-.1-.9-.5-1.5-1-2-.5-.6-1.4-.9-2.4-.9s-1.8.3-2.4.8c-.6.4-1 1-1.4 1.9-.2.8-.4 1.6-.4 2.5 0 1 .2 1.9.5 2.7a4 4 0 0 0 1.3 1.8c.6.4 1.4.7 2.4.7.7 0 1.4-.2 2-.5a4.2 4.2 0 0 0 1.7-3.3h-3.7v-1.5h5.1V33h-1.2v-3l.2.3a4.6 4.6 0 0 1-2.3 2.6c-.6.3-1.2.4-1.9.4Zm7.5-.3v-9.5h1.6V33H152Zm0-11v-1.8h1.6V22H152Zm7.2 11c-.9 0-1.5-.2-2-.6-.3-.4-.5-1-.5-1.8v-9.4h1.5v9.3c0 .4 0 .7.3 1l.9.2h1.3V33h-1.5Zm-4-8.2v-1.3h5.5v1.3h-5.4ZM163 33V20.2h1.5v6.2l-.8-.6h8l-.7.6v-6.2h1.5V33h-1.5v-6.3l.7.6h-8l.8-.6V33H163Zm15.4.2a3 3 0 0 1-2.3-1 4 4 0 0 1-.9-2.6v-6.1h1.6v5.7c0 1 .1 1.6.4 2 .4.5.9.7 1.6.7.7 0 1.3-.3 1.8-.7a3 3 0 0 0 .6-2v-5.7h1.5V33h-1.4v-2.4l.2.2c-.2.7-.6 1.4-1 1.8-.6.4-1.3.6-2.1.6Zm11.3 0c-.7 0-1.2-.1-1.8-.4a3 3 0 0 1-1.1-1.2l-.1 1.4h-1.4V20.2h1.5v4.6c.3-.4.7-.8 1.2-1 .5-.4 1-.6 1.7-.6.8 0 1.6.2 2.2.7.6.4 1 1 1.4 1.7.3.7.5 1.6.5 2.6s-.2 2-.5 2.7a4 4 0 0 1-1.4 1.7c-.6.4-1.4.6-2.2.6Zm0-1.4c.7 0 1.4-.3 1.8-1 .5-.6.7-1.5.7-2.6 0-1-.2-2-.7-2.6-.4-.6-1-1-1.8-1a2.6 2.6 0 0 0-2.5 1.7 5 5 0 0 0-.4 2c0 .6.2 1.3.4 1.8s.5 1 1 1.2c.3.3.8.5 1.4.5Zm10.8 1.2v-9.5h1.4v2.4h-.1c.1-.9.4-1.5.8-1.9.4-.3 1-.5 1.6-.5h1v1.4h-1c-.5 0-.9 0-1.2.3-.3.1-.6.4-.7.7a3 3 0 0 0-.3 1.3V33h-1.5Zm9.9.2c-1 0-1.7-.2-2.4-.6a4 4 0 0 1-1.5-1.7c-.3-.8-.5-1.7-.5-2.7 0-1 .2-1.9.5-2.6.4-.7.9-1.3 1.5-1.7.7-.4 1.4-.7 2.3-.7a4 4 0 0 1 2.2.6c.6.4 1.1 1 1.5 1.7.3.8.5 1.7.5 2.7v.5h-7c.1 1 .4 1.8.9 2.3.5.5 1.1.8 2 .8.6 0 1.1-.2 1.5-.5.4-.3.7-.6.8-1.1l1.7.1a4 4 0 0 1-4 3Zm-2.8-5.8h5.2c0-1-.3-1.6-.8-2-.4-.5-1-.7-1.7-.7s-1.3.2-1.8.7c-.5.4-.8 1-1 2Zm9 8.3V23.5h1.4v2l-.2-.1a3 3 0 0 1 1.2-1.6c.5-.4 1.2-.6 2-.6.9 0 1.6.3 2.2.7.6.5 1 1.1 1.4 1.9.3.7.4 1.6.4 2.4 0 1-.1 1.7-.4 2.5a4 4 0 0 1-1.4 1.8c-.6.5-1.3.7-2.3.7-.5 0-1 0-1.4-.2-.4-.2-.8-.4-1-.7l-.7-1.1.3-.3v4.8h-1.6Zm4.2-4c.8 0 1.4-.2 2-.9.4-.6.6-1.5.6-2.6 0-1-.2-2-.7-2.6-.5-.6-1.1-1-2-1-.5 0-1 .2-1.4.5-.4.2-.7.6-1 1.2l-.2 2c0 .7 0 1.4.3 1.9.2.5.5 1 1 1.2.3.2.8.4 1.4.4Zm10 1.5c-.9 0-1.6-.2-2.3-.6a4 4 0 0 1-1.5-1.7 6 6 0 0 1-.6-2.7c0-1 .2-1.9.6-2.6a4 4 0 0 1 3.8-2.4c.9 0 1.6.2 2.3.7a4 4 0 0 1 1.5 1.7c.4.7.6 1.6.6 2.6a6 6 0 0 1-.6 2.7 4 4 0 0 1-3.8 2.3Zm0-1.4c.9 0 1.6-.3 2-1 .5-.6.8-1.5.8-2.6a4 4 0 0 0-.8-2.6c-.4-.6-1.1-1-2-1-.9 0-1.6.4-2 1a4 4 0 0 0-.8 2.6c0 1.1.3 2 .8 2.6.4.7 1.1 1 2 1Z"
    />
  </g>
  <g filter="url(#g)">
    <rect width="213" height="52" x="1" y="79" fill="#141414" rx="26" />
    <rect
      width="214"
      height="53"
      x=".5"
      y="78.5"
      stroke="#fff"
      stroke-opacity=".1"
      rx="26.5"
    />
    <path
      fill="#1C63ED"
      d="M28 104.4h-2.1v-1.9h2v1.9Zm0-6.4h-2.1v2h2v-2Zm2.4 4.5h-2v1.9h2v-1.9Zm-4.9-2.2h-2v1.9h2v-2Zm2.5 0h-2.1v1.9h2v-2Zm8.6 3.1c-.4-.3-1.5-.4-2.3-.2 0-.8-.5-1.5-1.3-2l-.4-.3-.3.4c-.5.9-.7 2.3-.1 3.3-.3.1-.8.3-1.5.3H17.1c-.3 1.6.2 3.7 1.4 5 1.1 1.4 2.9 2.1 5.1 2.1 5 0 8.6-2.2 10.3-6.3.6 0 2 0 2.8-1.5l.3-.5-.4-.3Zm-16-.9h-2v1.9h2v-1.9Zm2.5 0h-2v1.9h2v-1.9Zm2.4 0h-2v1.9h2v-1.9Zm-2.4-2.2h-2v1.9h2v-2Z"
    />
    <path
      fill="#E4E4E7"
      d="M46.7 111V98.2h4c1.9 0 3.4.6 4.5 1.7 1 1.1 1.6 2.7 1.6 4.7s-.6 3.6-1.6 4.7-2.5 1.7-4.5 1.7h-4Zm1.5-1.5h2.4c1.5 0 2.6-.4 3.4-1.2.8-.8 1.1-2 1.1-3.7 0-1.6-.3-2.8-1.1-3.6-.8-.9-1.9-1.3-3.4-1.3h-2.4v9.8Zm14.8 1.7a4 4 0 0 1-3.8-2.3 6 6 0 0 1-.6-2.7c0-1 .2-1.9.5-2.6a4 4 0 0 1 3.9-2.4c.9 0 1.6.2 2.3.7a4 4 0 0 1 1.5 1.7c.4.7.5 1.6.5 2.6a6 6 0 0 1-.5 2.7 4 4 0 0 1-3.8 2.3Zm0-1.4c.9 0 1.5-.3 2-1 .5-.6.8-1.5.8-2.6a4 4 0 0 0-.8-2.6c-.5-.6-1.1-1-2-1-.9 0-1.6.4-2 1a4 4 0 0 0-.8 2.6c0 1.1.2 2 .7 2.6.5.7 1.2 1 2 1Zm10.1 1.4c-.9 0-1.6-.2-2.3-.6a4 4 0 0 1-1.5-1.7 6 6 0 0 1-.6-2.7c0-1 .2-1.9.6-2.6a4 4 0 0 1 3.8-2.4c.8 0 1.4.2 2 .4.5.3 1 .7 1.4 1.2.3.4.6 1 .7 1.8h-1.6c-.1-.6-.4-1-.8-1.4-.5-.3-1-.5-1.7-.5-.9 0-1.5.3-2 1a4 4 0 0 0-.8 2.5c0 1.1.3 2 .8 2.6.5.7 1.1 1 2 1a2.5 2.5 0 0 0 2.5-2.2l1.6.1c-.1.7-.4 1.3-.7 1.9-.4.5-.9.9-1.4 1.2-.6.3-1.2.4-2 .4Zm6-.2V98.2h1.5v8.4l4.6-5.1h2l-3.7 4 3.9 5.5h-1.9l-3-4.5-2 2v2.5H79Zm13.4.2c-1 0-1.7-.2-2.3-.6a4 4 0 0 1-1.6-1.7c-.3-.8-.5-1.7-.5-2.7 0-1 .2-1.9.5-2.6.4-.7.9-1.3 1.5-1.7.7-.4 1.4-.7 2.3-.7a4 4 0 0 1 2.2.6c.7.4 1.1 1 1.5 1.7.4.8.5 1.7.5 2.7v.5h-6.9c0 1 .3 1.8.8 2.3.5.5 1.2.8 2 .8.6 0 1.1-.2 1.5-.5.4-.3.7-.6.9-1.1l1.6.1a4 4 0 0 1-4 3Zm-2.8-5.8H95c0-1-.4-1.6-.8-2-.5-.5-1-.7-1.8-.7-.7 0-1.3.2-1.8.7-.5.4-.8 1-.9 2Zm9 5.6v-9.5h1.3v2.4c0-.9.3-1.5.7-1.9.4-.3 1-.5 1.6-.5h1v1.4h-1c-.4 0-.8 0-1.2.3-.3.1-.5.4-.7.7a3 3 0 0 0-.2 1.3v5.8h-1.5Zm11.5 0V98.2h1.6v6.2l-.8-.6h8l-.8.6v-6.2h1.5V111h-1.5v-6.3l.8.6h-8l.8-.6v6.3h-1.6Zm15.4.2a3 3 0 0 1-2.3-1 4 4 0 0 1-.8-2.6v-6.1h1.5v5.7c0 1 .2 1.6.5 2 .3.5.8.7 1.5.7.8 0 1.4-.3 1.8-.7a3 3 0 0 0 .6-2v-5.7h1.6v9.5h-1.5v-2.4l.2.2c-.1.7-.5 1.4-1 1.8-.6.4-1.3.6-2 .6Zm11.3 0a3 3 0 0 1-3-1.7v1.5h-1.3V98.2h1.5v4.6c.2-.4.6-.8 1.1-1 .5-.4 1-.6 1.7-.6.9 0 1.6.2 2.2.7.6.4 1.1 1 1.4 1.7.4.7.6 1.6.6 2.6s-.2 2-.6 2.7a4 4 0 0 1-1.4 1.7c-.6.4-1.3.6-2.2.6Zm0-1.4c.8 0 1.4-.3 1.9-1 .4-.6.7-1.5.7-2.6 0-1-.3-2-.7-2.6-.5-.6-1.1-1-2-1a2.6 2.6 0 0 0-2.4 1.7 5 5 0 0 0-.3 2c0 .7 0 1.3.3 1.8.2.5.6 1 1 1.2.4.3.9.5 1.5.5Zm11 1.2V98.2h1.6V111H148Zm5 0v-9.5h1.3v2.4l-.2-.1c.1-.5.3-1 .6-1.3a2.8 2.8 0 0 1 2.3-1.3 3 3 0 0 1 2 .7c.6.5.9 1.1 1 2h-.3l.5-1.5 1-.9 1.5-.3c.6 0 1.2.2 1.7.5s.8.7 1 1.2c.3.5.4 1.2.4 2v6.1h-1.5v-5.8c0-.9-.2-1.5-.5-2-.3-.4-.8-.6-1.5-.6-.4 0-.8 0-1.2.3-.3.2-.5.5-.7 1-.2.3-.3.8-.3 1.4v5.7h-1.5v-5.7c0-.9-.2-1.5-.5-2s-.8-.7-1.5-.7c-.4 0-.8 0-1.1.3-.4.2-.6.5-.8 1-.2.3-.3.8-.3 1.4v5.7h-1.5Zm18 .2c-.9 0-1.7-.2-2.3-.7-.5-.4-.8-1-.8-1.9 0-.8.2-1.4.7-1.9.5-.5 1.2-.8 2.3-1l3.4-.6c0-.8-.2-1.4-.6-1.8-.4-.4-1-.6-1.7-.6s-1.2.1-1.6.4c-.4.3-.6.7-.8 1.3l-1.6-.1c.2-1 .6-1.7 1.3-2.2.7-.6 1.6-.9 2.7-.9 1.2 0 2.1.4 2.8 1a4 4 0 0 1 1 3v4.3l.5.2h.4v1.3h-.3a3.1 3.1 0 0 1-1.4-.2c-.3-.1-.4-.3-.6-.6l-.1-1.2h.1c0 .5-.3.8-.6 1.2-.3.3-.7.6-1.2.7l-1.5.3Zm.2-1.3c.7 0 1.2-.1 1.7-.4a2.6 2.6 0 0 0 1.4-2.4v-.7l-3.1.6c-.7 0-1.1.3-1.4.5-.2.3-.3.6-.3 1s.1.8.4 1c.3.3.8.4 1.3.4Zm10.7 4c-.6 0-1.3-.1-1.8-.3-.6-.3-1-.6-1.4-1-.4-.4-.6-.9-.8-1.5h1.6c.2.4.4.7.8 1 .4.2 1 .4 1.6.4 1 0 1.6-.2 2-.5.5-.4.7-1 .7-1.6v-1.6c-.2.5-.6 1-1 1.2-.6.3-1.1.5-1.8.5a4 4 0 0 1-3.6-2.2c-.4-.7-.5-1.5-.5-2.4 0-1 .1-1.7.5-2.4a3.9 3.9 0 0 1 5.4-1.8c.5.3.9.7 1 1.3v-1.5h1.5v8.9c0 .7-.1 1.3-.5 1.9-.3.5-.8 1-1.4 1.2-.6.3-1.4.4-2.3.4Zm0-4.8c.8 0 1.5-.3 2-.9.5-.6.7-1.3.7-2.3 0-.7 0-1.3-.3-1.7-.2-.5-.5-.9-1-1.1-.4-.3-.8-.4-1.4-.4-.8 0-1.5.3-2 .8-.4.6-.6 1.4-.6 2.4s.2 1.7.7 2.3c.4.6 1 .9 2 .9Zm10.7 2.1c-1 0-1.7-.2-2.4-.6a4 4 0 0 1-1.5-1.7c-.3-.8-.5-1.7-.5-2.7 0-1 .2-1.9.5-2.6.4-.7.9-1.3 1.5-1.7.7-.4 1.4-.7 2.3-.7a4 4 0 0 1 2.2.6c.6.4 1.1 1 1.5 1.7.3.8.5 1.7.5 2.7v.5h-7c.1 1 .4 1.8.9 2.3.5.5 1.1.8 2 .8.6 0 1-.2 1.5-.5.4-.3.7-.6.8-1.1l1.7.1a4 4 0 0 1-4 3Zm-2.8-5.8h5.2c0-1-.3-1.6-.8-2-.4-.5-1-.7-1.7-.7s-1.3.2-1.8.7c-.5.4-.8 1-1 2Z"
    />
  </g>
  <g filter="url(#h)">
    <rect width="183" height="52" x="69" y="157" fill="#141414" rx="26" />
    <rect
      width="184"
      height="53"
      x="68.5"
      y="156.5"
      stroke="#fff"
      stroke-opacity=".1"
      rx="26.5"
    />
    <path
      stroke="#fff"
      stroke-linecap="round"
      stroke-linejoin="round"
      stroke-opacity=".8"
      stroke-width="1.3"
      d="m101.7 178-9.2 9.2-4.2-4.2"
    />
    <path
      fill="#E4E4E7"
      d="M119.5 189.3c-1.2 0-2.2-.3-3-.9a5.6 5.6 0 0 1-2-2.3c-.5-1-.7-2.2-.7-3.5 0-1.3.2-2.4.7-3.4a5.4 5.4 0 0 1 5-3.3c1 0 2 .2 2.6.6.7.4 1.3.9 1.7 1.5.4.6.7 1.4.9 2.1l-1.7.2c-.1-.9-.5-1.5-1-2-.5-.6-1.4-.9-2.4-.9s-1.8.3-2.4.8c-.6.4-1 1-1.4 1.9-.2.8-.4 1.6-.4 2.5 0 1 .2 1.9.5 2.7a4 4 0 0 0 1.3 1.8c.6.4 1.4.7 2.4.7.7 0 1.4-.2 2-.5a4.2 4.2 0 0 0 1.7-3.3h-3.7v-1.5h5.1v6.5h-1.2v-3l.2.3a4.6 4.6 0 0 1-2.3 2.6c-.6.3-1.2.4-1.9.4Zm7.5-.3v-9.5h1.6v9.5H127Zm0-11v-1.8h1.6v1.8H127Zm7.2 11c-.9 0-1.5-.2-2-.6-.3-.4-.5-1-.5-1.8v-9.4h1.5v9.3c0 .4 0 .7.3 1l.9.2h1.3v1.3h-1.5Zm-4-8.2v-1.3h5.5v1.3h-5.4Zm7.7 8.2v-12.8h1.5v6.2l-.8-.6h8l-.7.6v-6.2h1.5V189h-1.5v-6.3l.7.6h-8l.8-.6v6.3H138Zm15.4.2a3 3 0 0 1-2.3-1 4 4 0 0 1-.9-2.6v-6.1h1.6v5.7c0 1 .1 1.6.4 2 .4.5.9.7 1.6.7.7 0 1.3-.3 1.8-.7a3 3 0 0 0 .6-2v-5.7h1.5v9.5h-1.4v-2.4l.2.2c-.2.7-.6 1.4-1 1.8-.6.4-1.3.6-2.1.6Zm11.3 0c-.7 0-1.2-.1-1.8-.4a3 3 0 0 1-1.1-1.2l-.1 1.4h-1.4v-12.8h1.5v4.6c.3-.4.7-.8 1.2-1 .5-.4 1-.6 1.7-.6.8 0 1.6.2 2.2.7.6.4 1 1 1.4 1.7.3.7.5 1.6.5 2.6s-.2 2-.5 2.7a4 4 0 0 1-1.4 1.7c-.6.4-1.4.6-2.2.6Zm0-1.4c.7 0 1.4-.3 1.8-1 .5-.6.7-1.5.7-2.6 0-1-.2-2-.7-2.6-.4-.6-1-1-1.8-1a2.6 2.6 0 0 0-2.5 1.7 5 5 0 0 0-.4 2c0 .6.2 1.3.4 1.8s.5 1 1 1.2c.3.3.8.5 1.4.5Zm9.8 1.2 4.6-12.8h2l4.7 12.8H184l-1.3-3.6h-5.4L176 189h-1.6Zm3.4-5.1h4.4l-2.2-6.3-2.2 6.3Zm13 5.3c-.8 0-1.6-.2-2.3-.6a4 4 0 0 1-1.5-1.7 6 6 0 0 1-.5-2.7c0-1 .2-1.9.5-2.6a4 4 0 0 1 3.9-2.4c.7 0 1.3.2 2 .4a4 4 0 0 1 2.1 3h-1.7c0-.6-.3-1-.8-1.4-.4-.3-1-.5-1.6-.5-1 0-1.6.3-2 1a4 4 0 0 0-.8 2.5c0 1.1.2 2 .7 2.6.5.7 1.2 1 2 1 .7 0 1.3-.2 1.7-.6.5-.3.7-.9.8-1.6l1.6.1c0 .7-.3 1.4-.7 1.9-.3.5-.8.9-1.4 1.2-.6.3-1.2.4-2 .4Zm9.1-.2c-.8 0-1.5-.2-2-.6-.3-.4-.5-1-.5-1.8v-9.4h1.5v9.3c0 .4 0 .7.3 1l.9.2h1.3v1.3H200Zm-4-8.2v-1.3h5.5v1.3H196Zm7.5 8.2v-9.5h1.5v9.5h-1.5Zm0-11v-1.8h1.5v1.8h-1.6Zm8 11.2c-1 0-1.7-.2-2.4-.6a4 4 0 0 1-1.5-1.7 6 6 0 0 1-.6-2.7c0-1 .2-1.9.6-2.6a4 4 0 0 1 3.8-2.4c.9 0 1.6.2 2.3.7a4 4 0 0 1 1.5 1.7c.4.7.6 1.6.6 2.6a6 6 0 0 1-.6 2.7 4 4 0 0 1-3.8 2.3Zm0-1.4c.8 0 1.5-.3 2-1 .4-.6.7-1.5.7-2.6a4 4 0 0 0-.8-2.6c-.4-.6-1.1-1-2-1-.9 0-1.5.4-2 1a4 4 0 0 0-.8 2.6c0 1.1.3 2 .8 2.6.5.7 1.1 1 2 1Zm6.3 1.2v-9.5h1.4v2.4l-.1-.2c.1-.5.3-1 .6-1.4l1.1-.8c.4-.2.9-.3 1.4-.3a2.9 2.9 0 0 1 2.9 1.8c.2.6.3 1.2.3 1.9v6.1h-1.5v-5.7c0-.6 0-1-.2-1.5-.2-.4-.4-.7-.7-.9a2 2 0 0 0-1.1-.3c-.8 0-1.4.2-1.9.7-.4.4-.7 1.1-.7 2v5.7h-1.5Zm13.8.2c-.9 0-1.6-.1-2.2-.4-.6-.3-1-.7-1.4-1.1-.3-.5-.5-1-.6-1.7l1.6-.1c.1.6.4 1 .8 1.4.3.3 1 .5 1.8.5.6 0 1.1-.1 1.5-.3.4-.2.6-.6.6-1 0-.3 0-.5-.2-.7-.1-.2-.3-.3-.7-.4a9 9 0 0 0-1.5-.4l-2.2-.6c-.5-.3-.9-.6-1.1-1-.2-.3-.3-.7-.3-1.2 0-.9.3-1.6.9-2.1.6-.6 1.5-.9 2.7-.9a4 4 0 0 1 2 .5c.5.3.9.6 1.2 1 .3.5.5 1 .6 1.6l-1.6.1c0-.3-.2-.6-.4-.9l-.7-.6-1.2-.2c-.6 0-1.1.1-1.5.4-.3.2-.5.6-.5 1 0 .3.1.6.3.8.1.2.4.3.7.4.3.2.8.3 1.4.4 1 .1 1.7.3 2.2.6.6.2 1 .5 1.2.9.2.3.3.7.3 1.2 0 .6-.2 1.1-.5 1.6a3 3 0 0 1-1.4.9c-.5.2-1.1.3-1.8.3Z"
    />
  </g>
  <defs>
    <filter
      id="a"
      width="175"
      height="54"
      x="339"
      y="78"
      color-interpolation-filters="sRGB"
      filterUnits="userSpaceOnUse"
    >
      <feFlood flood-opacity="0" result="BackgroundImageFix" />
      <feBlend in="SourceGraphic" in2="BackgroundImageFix" result="shape" />
      <feColorMatrix
        in="SourceAlpha"
        result="hardAlpha"
        values="0 0 0 0 0 0 0 0 0 0 0 0 0 0 0 0 0 0 127 0"
      />
      <feOffset />
      <feGaussianBlur stdDeviation="4" />
      <feComposite in2="hardAlpha" k2="-1" k3="1" operator="arithmetic" />
      <feColorMatrix
        values="0 0 0 0 0.997296 0 0 0 0 0.998322 0 0 0 0 1 0 0 0 0.25 0"
      />
      <feBlend in2="shape" result="effect1_innerShadow_565_33591" />
    </filter>
    <filter
      id="f"
      width="160"
      height="54"
      x="93"
      y="0"
      color-interpolation-filters="sRGB"
      filterUnits="userSpaceOnUse"
    >
      <feFlood flood-opacity="0" result="BackgroundImageFix" />
      <feBlend in="SourceGraphic" in2="BackgroundImageFix" result="shape" />
      <feColorMatrix
        in="SourceAlpha"
        result="hardAlpha"
        values="0 0 0 0 0 0 0 0 0 0 0 0 0 0 0 0 0 0 127 0"
      />
      <feOffset />
      <feGaussianBlur stdDeviation="4" />
      <feComposite in2="hardAlpha" k2="-1" k3="1" operator="arithmetic" />
      <feColorMatrix
        values="0 0 0 0 0.997296 0 0 0 0 0.998322 0 0 0 0 1 0 0 0 0.25 0"
      />
      <feBlend in2="shape" result="effect1_innerShadow_565_33591" />
    </filter>
    <filter
      id="g"
      width="215"
      height="54"
      x="0"
      y="78"
      color-interpolation-filters="sRGB"
      filterUnits="userSpaceOnUse"
    >
      <feFlood flood-opacity="0" result="BackgroundImageFix" />
      <feBlend in="SourceGraphic" in2="BackgroundImageFix" result="shape" />
      <feColorMatrix
        in="SourceAlpha"
        result="hardAlpha"
        values="0 0 0 0 0 0 0 0 0 0 0 0 0 0 0 0 0 0 127 0"
      />
      <feOffset />
      <feGaussianBlur stdDeviation="4" />
      <feComposite in2="hardAlpha" k2="-1" k3="1" operator="arithmetic" />
      <feColorMatrix
        values="0 0 0 0 0.997296 0 0 0 0 0.998322 0 0 0 0 1 0 0 0 0.25 0"
      />
      <feBlend in2="shape" result="effect1_innerShadow_565_33591" />
    </filter>
    <filter
      id="h"
      width="185"
      height="54"
      x="68"
      y="156"
      color-interpolation-filters="sRGB"
      filterUnits="userSpaceOnUse"
    >
      <feFlood flood-opacity="0" result="BackgroundImageFix" />
      <feBlend in="SourceGraphic" in2="BackgroundImageFix" result="shape" />
      <feColorMatrix
        in="SourceAlpha"
        result="hardAlpha"
        values="0 0 0 0 0 0 0 0 0 0 0 0 0 0 0 0 0 0 127 0"
      />
      <feOffset />
      <feGaussianBlur stdDeviation="4" />
      <feComposite in2="hardAlpha" k2="-1" k3="1" operator="arithmetic" />
      <feColorMatrix
        values="0 0 0 0 0.997296 0 0 0 0 0.998322 0 0 0 0 1 0 0 0 0.25 0"
      />
      <feBlend in2="shape" result="effect1_innerShadow_565_33591" />
    </filter>
    <linearGradient
      id="b"
      x1="390.3"
      x2="381.4"
      y1="93.9"
      y2="107.9"
      gradientUnits="userSpaceOnUse"
    >
      <stop stop-color="#0AA3F9" />
      <stop offset="1" stop-color="#B5B4FF" />
    </linearGradient>
    <linearGradient
      id="c"
      x1="408.3"
      x2="394.1"
      y1="115.4"
      y2="97.2"
      gradientUnits="userSpaceOnUse"
    >
      <stop stop-color="#0AA3F9" />
      <stop offset="1" stop-color="#B5B4FF" />
    </linearGradient>
    <linearGradient
      id="e"
      x1="399.9"
      x2="383.6"
      y1="94.3"
      y2="109.7"
      gradientUnits="userSpaceOnUse"
    >
      <stop stop-color="#7ABBFD" />
      <stop offset="1" stop-color="#7ABBFD" stop-opacity="0" />
    </linearGradient>
  </defs>
</svg>
