<svg xmlns="http://www.w3.org/2000/svg" fill="none" viewBox="0 0 64 64">
  <g opacity=".7">
    <rect width="64" height="64" fill="#9146FF" rx="10.32" />
    <path
      fill="#fff"
      d="M18.78 46c-5.29 11.72 5.97 14.66 14.27 7.8 2.44 7.7 11.6 1.96 14.88-4 7.23-13.12 4.31-26.51 3.56-29.28-5.14-18.83-30.86-18.85-35.29.1-1.03 3.32-1.05 7.09-1.63 11-.3 1.98-.5 3.24-1.27 5.32-.44 1.2-1.04 2.25-2 4.04-1.47 2.78-.85 8.13 6.76 5.35l.72-.32Z"
    />
    <path
      fill="#000"
      d="M34.05 28.68c-2.11 0-2.42-2.53-2.42-4.03 0-1.36.24-2.43.7-3.12.4-.6.98-.9 1.72-.9s1.37.3 1.82.92c.5.7.77 1.77.77 3.1 0 2.52-.97 4.03-2.59 4.03ZM42.73 28.68c-2.1 0-2.42-2.53-2.42-4.03 0-1.36.24-2.43.7-3.12.4-.6.99-.9 1.72-.9.74 0 1.37.3 1.82.92.5.7.78 1.77.78 3.1 0 2.52-.97 4.03-2.6 4.03Z"
    />
  </g>
</svg>
