<svg xmlns="http://www.w3.org/2000/svg" fill="none" viewBox="0 0 64 64">
  <g opacity=".7">
    <rect width="64" height="64" fill="url(#a)" rx="10.67" />
    <path
      fill="#fff"
      d="m56.52 37.27-6.17-10.8L53 21.4c.37-.48.46-1.2.31-1.76l-3.4-6.13c-.25-.4-.7-.65-1.18-.67H36.1l-2.82-4.93c-.2-.4-.59-.66-1.02-.7h-6.66c-.5 0-.84.36-1.08.79l-.1.17-6.3 10.8h-6.05c-.5 0-.97.24-1.24.67L7.36 25.8c-.22.45-.22.97 0 1.42l6.26 10.89-2.82 4.93c-.22.45-.22.97 0 1.42L14 50.1c.26.44.73.7 1.24.7h12.61l3.04 5.3c.23.4.64.65 1.1.7h7.14c.5 0 .95-.27 1.2-.7l6.22-10.9h5.55c.5-.04.94-.32 1.2-.74l3.21-5.69c.3-.46.3-1.05 0-1.5Zm-7.8.7-3.22-5.94-13.23 23.32-3.61-5.95H15.43l3.18-5.78h6.74L12.12 20.38h6.92l6.57-11.73 3.3 5.78-3.39 5.95h26.46l-3.35 5.91 6.66 11.68h-6.57Z"
    />
    <path fill="#fff" d="m31.96 40.22 8.25-13.23H23.67l8.3 13.23Z" />
  </g>
  <defs>
    <linearGradient
      id="a"
      x1="32"
      x2="32"
      y1="0"
      y2="64"
      gradientUnits="userSpaceOnUse"
    >
      <stop stop-color="#131313" />
      <stop offset="1" stop-color="#3C3C3C" />
    </linearGradient>
  </defs>
</svg>
