<svg xmlns="http://www.w3.org/2000/svg" fill="none" viewBox="0 0 64 64">
  <g opacity=".7">
    <rect width="64" height="64" fill="#111113" rx="12.18" />
    <path
      fill="#2ADB5C"
      d="M56.15 36.77v-8.39c0-4.76-2.07-8.58-5.68-10.49L31.84 8.07l-.1.18-.09.18c3.48 1.83 5.47 5.52 5.47 10.13v8.38c0 .25 0 .52-.02.78l-.01.16-.01.12-.04.51-.02.2-.02.16-.05.42-.04.24-.02.12a14.76 14.76 0 0 1-.2 1.06l-.02.06-.15.6-.05.18-.18.62-.06.17-.23.67-.06.18-.04.1-.2.5-.13.3-.01.04-.18.38-.16.34-.18.38a17.93 17.93 0 0 1-.56 1.03l-.2.33-.2.34-.2.32-.24.35a34.1 34.1 0 0 1-.9 1.24c-.1.1-.17.21-.26.32l-.22.26-.01.02-.3.34-.24.27-.31.33-.24.25-.42.41-.06.06-.15.15-.55.48-.05.05-.06.05-.09.07-.45.38-.15.1-.03.04-.4.3-.18.13-.45.31-.12.08-.6.39-.14.07a21.82 21.82 0 0 1-.63.36l-.08.04-.4.21-.23.11-.02.02a13.2 13.2 0 0 1-1.06.46l-.07.02-.18.07-.44.16-.08.03-.14.05-.66.2-1.3.35a14.77 14.77 0 0 1-.69.17l-.14.03-.33.07-.13.02-.18.03a5.09 5.09 0 0 1-.4.06l-.17.02a9.5 9.5 0 0 1-.33.03l-.07.01-.37.03H18.95l-.32.01h-.52l-.17-.01h-.05l-.31-.02-.14-.02-.38-.04-.09-.01-.45-.07-.11-.02-.28-.06-.44-.11-.06-.02-.08-.02c-.19-.05-.38-.11-.55-.18l-.13-.05a8.6 8.6 0 0 1-.4-.15l-.14-.06-.03-.01-.34-.16-.05-.02a.3.3 0 0 0-.03-.02l-1.38-.72 1 1h.04l18.58 9.8.2.1.06.03.04.02a9 9 0 0 0 .35.16l.03.01.15.07.4.16.05.01a1 1 0 0 1 .07.03h.02l.58.19.09.02.06.02.45.11h.04l.05.02.14.03.18.03.47.08.09.01.4.04.26.03h.22l.2.02H37.67l.15-.01.38-.03h.07l.12-.02.22-.02.17-.02.16-.03c.1 0 .18-.02.27-.04l.17-.03.15-.02.33-.07.13-.03.12-.02.6-.15 1.3-.36a14.84 14.84 0 0 0 .82-.25l.08-.03.46-.16.2-.08.06-.03c.13-.05.27-.1.41-.17l.26-.11.4-.19.05-.02.21-.1.42-.22.07-.04c.06-.02.1-.05.15-.08l.5-.28.06-.04.08-.04.58-.37.14-.1 4.09 1.87a3.61 3.61 0 0 0 5.1-3.28V36.76h.01Z"
    />
    <path
      fill="#fff"
      d="m31.85 8.08-.19-.1-.1-.05-.35-.16-.18-.08-.4-.15-.11-.05h-.03l-.57-.19-.15-.04-.45-.1-.09-.03-.2-.04-.11-.02-.47-.07-.09-.02a11.84 11.84 0 0 0-.53-.05l-.12-.01-.2-.01-.23-.01-.31-.01h-.55l-.22.02-.38.02-.17.02h-.01l-.31.03-.25.03-.35.06-.23.04a14.92 14.92 0 0 0-1.18.27l-1.3.36-.69.2-.22.08-.45.16-.26.1-.41.17-.27.12a23.49 23.49 0 0 0-1.07.53l-.23.12-.5.28-.13.08-.59.37-.03.02-.12.09a17.92 17.92 0 0 0-1.06.76l-.18.14-.47.39-.09.07-.02.01-.1.09c-.18.16-.37.32-.55.5l-.22.2-.42.42-.12.12-.13.13a24.21 24.21 0 0 0-.56.62l-.3.35-.16.18-.09.1a12 12 0 0 0-.25.33l-.25.3-.24.34-.16.2c-.02.05-.05.09-.08.12l-.22.32a18.24 18.24 0 0 0-.43.67l-.14.22-.08.13a10.98 10.98 0 0 0-.4.7l-.18.34-.12.22-.06.13-.2.4-.16.34-.17.4-.1.23-.05.1-.2.53-.11.28-.23.68-.04.11v.02l-.03.05-.18.63-.05.18-.15.62-.02.07-.12.55-.01.1-.08.46-.06.34-.06.48-.03.32-.04.54-.02.26-.02.8v8.38a12.5 12.5 0 0 0 2.82 8.2 9.84 9.84 0 0 0 2.83 2.24l18.63 9.83c-3.42-1.8-5.64-5.55-5.64-10.44v-8.39c0-.26 0-.53.02-.8l.01-.27.05-.54.03-.31.06-.49.06-.34.07-.46.14-.65.01-.06.16-.62.05-.18.18-.63.02-.05.04-.13c.08-.23.15-.46.24-.68l.1-.28.2-.52.16-.34.17-.4a16.67 16.67 0 0 1 .35-.73l.19-.36a17.3 17.3 0 0 1 .38-.7l.2-.34.22-.34.2-.33a18.24 18.24 0 0 1 .69-.98l.24-.33.24-.32.26-.32.24-.28.3-.36.25-.27.32-.34a13.74 13.74 0 0 1 .67-.67l.22-.21.55-.5.12-.1.08-.07a20.19 20.19 0 0 1 1.71-1.29l.13-.08a19.13 19.13 0 0 1 1.25-.76l.22-.12a15.75 15.75 0 0 1 1.08-.53l.26-.11.42-.17.25-.1.46-.16.22-.08.68-.2 1.3-.36.6-.15.2-.04.38-.08.24-.04.34-.06.25-.03.33-.04h.17l.38-.04h.2l.34-.02h.22l.31.01a7.98 7.98 0 0 1 .55.03l.14.01.4.05.08.01a10.79 10.79 0 0 1 .58.1l.3.06a15.32 15.32 0 0 1 1.16.33l.14.05a9.34 9.34 0 0 1 .93.4l.3.14-18.64-9.82Z"
    />
  </g>
</svg>
