<svg xmlns="http://www.w3.org/2000/svg" fill="none" viewBox="0 0 64 64">
  <path
    fill="#4B9AE9"
    d="m46.04 7.27 9.7 4.75c1.48.76 1.68 1.3 1.68 2.07l.05 35.77c0 .95-.52 1.33-1.94 2.13l-9.46 4.74c-.39.18-.7.4-3.07.4 0 0 2.05.02 2.05-1.61V8.69a1.78 1.78 0 0 0-1.7-1.82c2.09 0 2.69.4 2.69.4Z"
  />
  <path
    fill="#2A63A4"
    d="M7.5 39.14a2.06 2.06 0 0 0 0 2.75l3.21 2.97c.74.66 1.82.36 2.52-.17L45.04 20.4V8.7a1.77 1.77 0 0 0-1.7-1.82c-.33 0-.64.14-.87.38L7.5 39.14Z"
  />
  <path
    fill="#3478C6"
    d="M10.72 19.27a1.64 1.64 0 0 1 2.3 0l32.03 24.27v11.98c0 1.64-2.05 1.61-2.05 1.61a1.2 1.2 0 0 1-.71-.39L7.26 24.66a1.58 1.58 0 0 1 0-2.23l3.46-3.16Z"
  />
</svg>
