<svg xmlns="http://www.w3.org/2000/svg" fill="none" viewBox="0 0 739 258">
  <g filter="url(#a)">
    <g clip-path="url(#b)">
      <rect
        width="672.4"
        height="192.3"
        x="33.2"
        y="32.9"
        fill="url(#c)"
        rx="21.4"
      />
      <path
        fill="#52525B"
        d="M63.7 112.4c-.8 0-1.5-.2-2-.7-.6-.5-.8-1.2-.8-2 0-1 .2-1.7.8-2.2.5-.5 1.3-.8 2.4-.8h1v-2h-1c-1 0-1.9-.3-2.4-.8-.6-.5-.8-1.2-.8-2 0-1 .2-1.6.7-2.1.6-.6 1.3-.8 2.1-.8a3 3 0 0 1 1.7.4c.4.2.7.6.8 1l.3 1.5v1.5h2V102c0-.6.1-1 .3-1.5.2-.4.5-.8.9-1a3 3 0 0 1 1.6-.4c.9 0 1.6.2 2 .8.6.5.9 1.2.9 2 0 1-.3 1.6-.8 2.1-.6.5-1.4.8-2.4.8h-1.1v2h1c1.1 0 2 .3 2.5.8s.8 1.2.8 2.1c0 .9-.3 1.6-.8 2-.5.6-1.2.8-2 .8a3 3 0 0 1-1.7-.3l-1-1-.2-1.5V108h-2v1.6c0 .5 0 1-.3 1.4a2 2 0 0 1-.8 1 3 3 0 0 1-1.7.4Zm6.2-10.6v1.6h1c.7 0 1.2-.1 1.5-.4.3-.2.4-.7.4-1.2s-.1-1-.4-1.2c-.3-.2-.7-.3-1-.3-.6 0-1 .1-1.2.4-.2.3-.3.7-.3 1.1Zm-5.8 1.6h1v-1.6c0-.4 0-.8-.3-1-.2-.4-.6-.5-1-.5-.5 0-.9.1-1.2.3-.3.3-.4.7-.4 1.2s.1 1 .4 1.2c.3.3.8.4 1.5.4Zm2.4 3.3h2v-2h-2v2Zm-2.8 4.5c.5 0 .9-.2 1.1-.5.3-.2.4-.6.4-1V108H64c-.7 0-1.2.2-1.5.4-.3.3-.4.7-.4 1.2 0 .6.1 1 .4 1.2.3.2.7.4 1.1.4Zm6.2-1.6c0 .5 0 .9.3 1.1.3.3.6.5 1.1.5.4 0 .8-.2 1.1-.4.3-.2.4-.6.4-1.2 0-.5-.1-1-.4-1.2-.3-.2-.8-.4-1.4-.4h-1.1v1.6Zm9.7 1.8v-9h1.5v9h-1.5Zm-3.7-3.7v-1.5h9v1.5h-9Zm11.4 4.7V99.2h1.6v6.6l6-6.6h2l-5.2 5.7 5.5 7.5h-2l-4.6-6.3-1.7 2v4.3h-1.6Zm20 0c-1 0-1.6-.2-2-.6-.4-.4-.6-1-.6-1.9v-9.7h1.5v9.7c0 .4.1.7.3.9.2.2.5.3 1 .3h1.4v1.3h-1.6Zm-4.1-8.5v-1.4h5.7v1.4h-5.7Zm11.4 8.8c-1 0-1.7-.2-2.4-.7-.7-.4-1.2-1-1.6-1.8-.4-.7-.6-1.7-.6-2.7 0-1 .2-2 .6-2.8a4.2 4.2 0 0 1 4-2.4c.9 0 1.7.2 2.3.7.7.4 1.2 1 1.6 1.7.4.8.6 1.7.6 2.8 0 1-.2 2-.6 2.7a4.2 4.2 0 0 1-4 2.5Zm0-1.5c.9 0 1.6-.3 2-1 .6-.7.8-1.6.8-2.7 0-1.2-.2-2-.7-2.7-.5-.7-1.2-1-2.1-1-1 0-1.7.3-2.2 1-.5.7-.7 1.5-.7 2.7 0 1.1.2 2 .7 2.7.5.7 1.3 1 2.2 1Zm15 1.5c-.8 0-1.6-.2-2.2-.5-.6-.2-1-.6-1.4-1.1-.4-.5-.5-1.1-.6-1.8h1.6c.1.5.4 1 .8 1.4.4.3 1 .5 1.9.5.7 0 1.2-.1 1.6-.3.4-.3.6-.6.6-1.1 0-.3 0-.5-.2-.7l-.7-.4-1.6-.4a10 10 0 0 1-2.3-.6c-.5-.3-.9-.6-1.1-1-.2-.4-.4-.8-.4-1.4 0-.8.4-1.6 1-2.1a4 4 0 0 1 2.8-.9c.8 0 1.5.2 2 .5.6.3 1 .6 1.3 1.1.3.5.6 1 .7 1.6l-1.7.1c0-.3-.2-.6-.4-1a2 2 0 0 0-.8-.5c-.3-.2-.7-.3-1.1-.3-.7 0-1.3.2-1.6.4-.3.3-.5.6-.5 1s0 .7.2.9l.8.5 1.4.3 2.3.6c.6.3 1 .6 1.2 1 .2.3.3.8.3 1.3 0 .6-.1 1.1-.5 1.6-.3.4-.8.7-1.4 1-.5.2-1.2.3-2 .3Zm9.3 0a3 3 0 0 1-2.3-1 4 4 0 0 1-1-2.8v-6.4h1.7v6c0 1 .1 1.7.5 2.1.3.5.8.7 1.5.7.8 0 1.5-.3 1.9-.8a3 3 0 0 0 .7-2v-6h1.5v10H142V110l.3.1c-.2.8-.6 1.5-1.1 2-.6.4-1.3.6-2.2.6Zm7.5-.3v-9.9h1.5v2.5h-.2c.1-.6.3-1 .6-1.4a3 3 0 0 1 2.4-1.3 3 3 0 0 1 2 .7c.6.5 1 1.2 1.1 2h-.3c.1-.6.3-1 .6-1.4.2-.4.6-.8 1-1 .4-.2 1-.3 1.5-.3.7 0 1.3.2 1.8.5.4.3.8.7 1 1.2.3.6.4 1.3.4 2v6.4h-1.5v-6c0-.9-.2-1.6-.6-2-.3-.5-.8-.7-1.5-.7-.5 0-.9.1-1.2.3-.4.3-.6.6-.8 1-.2.4-.3 1-.3 1.5v6h-1.6v-6a4 4 0 0 0-.4-2c-.3-.5-.9-.8-1.6-.8-.5 0-.9.1-1.2.3l-.8 1c-.2.4-.3 1-.3 1.5v6h-1.6Zm16 0v-9.9h1.5v2.5h-.2c.1-.6.3-1 .6-1.4a3 3 0 0 1 2.4-1.3 3 3 0 0 1 2.1.7c.6.5.9 1.2 1 2h-.3c.1-.6.3-1 .6-1.4.3-.4.6-.8 1-1 .4-.2 1-.3 1.5-.3.7 0 1.3.2 1.8.5s.8.7 1 1.2c.3.6.4 1.3.4 2v6.4h-1.5v-6c0-.9-.2-1.6-.5-2-.4-.5-1-.7-1.6-.7-.5 0-.9.1-1.2.3l-.8 1c-.2.4-.3 1-.3 1.5v6h-1.5v-6c0-.9-.2-1.6-.5-2-.3-.5-.8-.8-1.6-.8l-1.2.3-.8 1c-.2.4-.3 1-.3 1.5v6h-1.5Zm20 .3c-.8 0-1.6-.2-2.3-.7-.7-.4-1.2-1-1.6-1.8-.4-.7-.6-1.7-.6-2.7 0-1 .2-2 .6-2.8a4.2 4.2 0 0 1 4-2.4c.9 0 1.7.2 2.4.7.6.4 1.2 1 1.5 1.7.4.8.6 1.7.6 2.8 0 1-.2 2-.6 2.7a4.2 4.2 0 0 1-4 2.5Zm0-1.5c1 0 1.7-.3 2.2-1 .5-.7.8-1.6.8-2.7 0-1.2-.3-2-.8-2.7-.5-.7-1.2-1-2.1-1-1 0-1.6.3-2.1 1-.6.7-.8 1.5-.8 2.7 0 1.1.2 2 .8 2.7.5.7 1.2 1 2 1Zm6.7 1.2v-9.9h1.5v2.6l-.1-.2c0-.6.3-1 .6-1.4.3-.4.7-.7 1.1-.9l1.5-.3c.7 0 1.4.2 1.8.5.5.4.9.8 1.1 1.4.3.5.4 1.2.4 1.9v6.3h-1.6v-5.9c0-.6 0-1.1-.2-1.5-.1-.4-.3-.8-.7-1a2 2 0 0 0-1.2-.3c-.7 0-1.4.2-1.9.7-.4.5-.7 1.2-.7 2.1v6h-1.6Zm10.2 2.1 5.5-16h1.5l-5.6 16h-1.4Zm12.4-1.8a4 4 0 0 1-2.2-.7 4 4 0 0 1-1.4-1.8c-.4-.7-.5-1.6-.5-2.7 0-1 .1-2 .5-2.8a4 4 0 0 1 1.4-1.7 4 4 0 0 1 2.2-.7c.7 0 1.3.2 1.9.4.5.3 1 .7 1.2 1.2v-4.7h1.6v13.2h-1.5V111a3 3 0 0 1-1.3 1.2 4 4 0 0 1-1.9.5Zm.4-1.5c.5 0 1-.2 1.4-.5.4-.3.8-.7 1-1.2.2-.6.3-1.3.3-2 0-.8-.1-1.4-.3-2-.2-.5-.6-1-1-1.2-.4-.3-.9-.5-1.4-.5-1 0-1.6.3-2.1 1s-.8 1.5-.8 2.7c0 1.1.3 2 .8 2.7.5.6 1.2 1 2 1Zm6.9 1.2v-9.9h1.5v10H219Zm0-11.4v-1.8h1.6v1.8h-1.7Zm8 11.7c-1 0-1.7-.2-2.3-.5-.6-.2-1-.6-1.4-1.1-.4-.5-.6-1.1-.6-1.8h1.6c.1.5.4 1 .8 1.4.4.3 1 .5 1.9.5.6 0 1.2-.1 1.6-.3.4-.3.6-.6.6-1.1 0-.3 0-.5-.2-.7l-.7-.4-1.6-.4-2.3-.6c-.5-.3-.9-.6-1.1-1-.3-.4-.4-.8-.4-1.4 0-.8.3-1.6 1-2.1a4 4 0 0 1 2.8-.9c.8 0 1.5.2 2 .5.6.3 1 .6 1.3 1.1.3.5.5 1 .6 1.6l-1.6.1c0-.3-.2-.6-.4-1a2 2 0 0 0-.8-.5c-.3-.2-.7-.3-1.2-.3-.7 0-1.2.2-1.5.4-.4.3-.5.6-.5 1s0 .7.2.9l.8.5 1.4.3 2.3.6c.6.3 1 .6 1.2 1 .2.3.3.8.3 1.3 0 .6-.1 1.1-.5 1.6-.3.4-.8.7-1.4 1-.6.2-1.2.3-2 .3Zm6-.3v-9.9h1.4v2.5h-.2c.2-.6.3-1 .6-1.4a3 3 0 0 1 2.4-1.3 3 3 0 0 1 2.1.7c.6.5 1 1.2 1 2h-.2c0-.6.2-1 .5-1.4.3-.4.6-.8 1-1l1.5-.3c.7 0 1.3.2 1.8.5s.8.7 1 1.2c.3.6.5 1.3.5 2v6.4h-1.6v-6c0-.9-.2-1.6-.5-2-.4-.5-.9-.7-1.6-.7l-1.2.3-.8 1c-.2.4-.3 1-.3 1.5v6H239v-6a4 4 0 0 0-.5-2c-.3-.5-.8-.8-1.6-.8l-1.2.3-.8 1c-.2.4-.3 1-.3 1.5v6H233Zm16.2 0v-9.9h1.5v10h-1.5Zm0-11.4v-1.8h1.6v1.8H249Zm8 11.7c-1 0-1.7-.2-2.3-.5-.6-.2-1-.6-1.4-1.1-.4-.5-.6-1.1-.6-1.8h1.6c.1.5.4 1 .8 1.4.4.3 1 .5 1.9.5.6 0 1.2-.1 1.6-.3.4-.3.6-.6.6-1.1 0-.3 0-.5-.2-.7l-.7-.4-1.6-.4-2.3-.6c-.5-.3-1-.6-1.1-1-.3-.4-.4-.8-.4-1.4 0-.8.3-1.6 1-2.1a4 4 0 0 1 2.8-.9c.8 0 1.4.2 2 .5.6.3 1 .6 1.3 1.1.3.5.5 1 .6 1.6l-1.6.1c0-.3-.2-.6-.4-1a2 2 0 0 0-.8-.5c-.3-.2-.7-.3-1.2-.3-.7 0-1.2.2-1.5.4-.4.3-.5.6-.5 1s0 .7.2.9l.8.5 1.4.3 2.3.6c.6.3 1 .6 1.2 1 .2.3.3.8.3 1.3 0 .6-.1 1.1-.5 1.6-.3.4-.8.7-1.4 1-.6.2-1.2.3-2 .3Zm9.6 0c-1 0-1.7-.2-2.3-.5-.6-.2-1-.6-1.4-1.1-.4-.5-.6-1.1-.6-1.8h1.6c.1.5.4 1 .8 1.4.4.3 1 .5 1.9.5.6 0 1.2-.1 1.6-.3.4-.3.6-.6.6-1.1 0-.3 0-.5-.2-.7l-.7-.4-1.6-.4-2.3-.6c-.5-.3-.9-.6-1.1-1-.3-.4-.4-.8-.4-1.4 0-.8.4-1.6 1-2.1a4 4 0 0 1 2.8-.9c.8 0 1.5.2 2 .5.6.3 1 .6 1.3 1.1.3.5.6 1 .7 1.6l-1.7.1c0-.3-.2-.6-.4-1a2 2 0 0 0-.8-.5c-.3-.2-.7-.3-1.1-.3-.8 0-1.3.2-1.6.4-.4.3-.5.6-.5 1s0 .7.2.9l.8.5 1.4.3 2.3.6c.6.3 1 .6 1.2 1 .2.3.3.8.3 1.3 0 .6-.1 1.1-.5 1.6-.3.4-.8.7-1.4 1-.5.2-1.2.3-2 .3Zm9.7-.3 4.8-13.2h2.2l4.7 13.2h-1.7l-1.3-3.7h-5.6l-1.3 3.7h-1.8Zm3.6-5.3h4.5l-2.2-6.5-2.3 6.5Zm9.9 5.3V99.2h1.6v13.2H290Zm13 .3a4 4 0 0 1-2.3-.7 4 4 0 0 1-1.4-1.8c-.3-.7-.5-1.6-.5-2.7 0-1 .2-2 .5-2.8a4 4 0 0 1 1.4-1.7 4 4 0 0 1 2.3-.7c.6 0 1.2.2 1.8.4.5.3 1 .7 1.2 1.2v-4.7h1.6v13.2h-1.4V111a3 3 0 0 1-1.3 1.2 4 4 0 0 1-2 .5Zm.3-1.5c.6 0 1-.2 1.5-.5.4-.3.7-.7.9-1.2.2-.6.3-1.3.3-2 0-.8 0-1.4-.3-2-.2-.5-.5-1-1-1.2-.3-.3-.8-.5-1.4-.5-.9 0-1.6.3-2.1 1s-.8 1.5-.8 2.7c0 1.1.3 2 .8 2.7.5.6 1.2 1 2 1Zm6.9 1.2v-9.9h1.6v10h-1.6Zm0-11.4v-1.8h1.6v1.8h-1.6Zm7 11.7c-1 0-1.8-.3-2.4-.7-.6-.5-.9-1.2-.9-2 0-.9.3-1.5.8-2s1.2-.8 2.3-1l3.5-.7c0-.8-.2-1.5-.6-1.9-.3-.4-1-.6-1.7-.6s-1.2.2-1.6.5c-.4.3-.7.7-.9 1.3l-1.6-.1c.2-1 .6-1.7 1.3-2.3.7-.6 1.7-.9 2.8-.9 1.3 0 2.2.4 2.9 1.1.7.7 1 1.7 1 3v4l.1.5.4.2h.4v1.3H322.4l-1-.1-.7-.7-.2-1.2h.2c0 .5-.3.8-.6 1.2l-1.3.8-1.5.3Zm.2-1.4c.7 0 1.2-.1 1.7-.4a2.7 2.7 0 0 0 1.4-2.5v-.7l-3.2.6c-.6 0-1.1.3-1.4.5-.2.3-.3.6-.3 1 0 .5.1.9.4 1.1.4.3.8.4 1.4.4Zm9.2 1.1c-.5 0-1-.1-1.4-.4-.3-.3-.5-.8-.5-1.4V99.2h1.6v11.2l.1.5.5.2h.8v1.3h-1Zm6.8.3c-.9 0-1.7-.2-2.4-.7-.6-.4-1.2-1-1.6-1.8-.3-.7-.5-1.7-.5-2.7 0-1 .2-2 .5-2.8a4.2 4.2 0 0 1 4-2.4c1 0 1.7.2 2.4.7.7.4 1.2 1 1.6 1.7.4.8.6 1.7.6 2.8 0 1-.2 2-.6 2.7a4.2 4.2 0 0 1-4 2.5Zm0-1.5c1 0 1.6-.3 2.1-1 .6-.7.8-1.6.8-2.7 0-1.2-.3-2-.8-2.7-.5-.7-1.2-1-2-1-1 0-1.7.3-2.2 1-.5.7-.8 1.5-.8 2.7 0 1.1.3 2 .8 2.7.5.7 1.2 1 2.1 1Zm10.4 4.3a5 5 0 0 1-1.9-.4c-.6-.2-1-.6-1.4-1-.4-.4-.7-1-.8-1.5l1.6-.1c.2.4.5.8.8 1 .4.3 1 .5 1.7.5 1 0 1.6-.2 2.1-.6.5-.3.7-.9.7-1.6v-1.6c-.2.5-.6 1-1.1 1.3-.5.3-1.1.4-1.8.4a4.2 4.2 0 0 1-3.7-2.3c-.4-.7-.6-1.5-.6-2.5s.2-1.8.6-2.5c.3-.7.8-1.3 1.5-1.7a4 4 0 0 1 4 0c.6.2 1 .7 1.2 1.2v-1.6h1.5v9.3c0 .7-.2 1.4-.5 2-.4.5-.9 1-1.5 1.2-.7.3-1.4.5-2.4.5Zm0-5c.9 0 1.5-.4 2-1 .6-.5.8-1.4.8-2.4 0-.7 0-1.3-.3-1.7-.2-.5-.6-1-1-1.2-.4-.2-1-.4-1.5-.4-.9 0-1.5.3-2 1-.5.5-.7 1.3-.7 2.3 0 1 .2 1.9.7 2.4.5.6 1.2 1 2 1Zm6.8 4.9.9-3h-1v-2h2.1v1.8l-1.1 3.2h-1Zm19.3-1.7a11.1 11.1 0 0 1-4.1.8c-1.5 0-2.7-.3-3.7-.8s-1.8-1.3-2.3-2.3c-.6-1-.8-2.2-.8-3.6 0-1.3.2-2.5.6-3.5a7.9 7.9 0 0 1 7.6-5.1c1.4 0 2.7.3 3.7.8s1.9 1.3 2.4 2.3a7 7 0 0 1 .9 3.5c0 1-.1 2-.4 2.7-.3.7-.8 1.3-1.3 1.8-.5.4-1.1.6-1.8.6a2 2 0 0 1-1.4-.5 2 2 0 0 1-.6-1.4h.3a3 3 0 0 1-.7 1l-1.1.7-1.3.3c-.7 0-1.4-.2-1.9-.4-.5-.3-.9-.7-1.1-1.2-.3-.5-.4-1.1-.4-1.8 0-.8.1-1.6.5-2.3.3-.7.8-1.2 1.4-1.6.6-.4 1.3-.6 2-.6a3 3 0 0 1 1.7.4c.5.3.8.7 1 1.2l-.3.1.2-1.7h1.3l-.3 4V108.7l.1.7.7.2c.7 0 1.2-.4 1.5-1 .4-.7.6-1.6.6-2.8 0-1.2-.3-2.1-.7-3-.4-.8-1-1.4-2-1.8-.8-.4-1.8-.6-3-.6-1 0-2 .2-2.8.5a6.6 6.6 0 0 0-3.6 3.8c-.3.9-.5 1.9-.5 3s.2 2 .6 3c.5.7 1.1 1.3 2 1.8.7.4 1.7.6 3 .6a9.5 9.5 0 0 0 3.7-.8l.3 1.3Zm-3.8-4c.6 0 1.1 0 1.5-.4.4-.3.7-.7.9-1.2l.3-1.5c0-.4-.1-.8-.3-1.1-.1-.4-.3-.7-.6-.9-.4-.2-.8-.3-1.3-.3-.6 0-1 .1-1.4.4-.4.3-.7.7-.9 1.2a4 4 0 0 0-.3 1.6c0 .6.2 1.2.5 1.6.3.4.8.7 1.6.7Zm18.7 2.7c-.9 0-1.5-.2-2-.6-.4-.4-.6-1-.6-1.9v-9.7h1.6v9.7c0 .4 0 .7.3.9.2.2.5.3.9.3h1.4v1.3h-1.6Zm-4-8.5v-1.4h5.6v1.4h-5.7Zm11.3 8.8c-.9 0-1.7-.2-2.4-.7-.7-.4-1.2-1-1.6-1.8-.3-.7-.5-1.7-.5-2.7 0-1 .2-2 .5-2.8a4.2 4.2 0 0 1 4-2.4c1 0 1.7.2 2.4.7.7.4 1.2 1 1.6 1.7.3.8.5 1.7.5 2.8 0 1-.2 2-.5 2.7a4.2 4.2 0 0 1-4 2.5Zm0-1.5c1 0 1.6-.3 2.1-1s.8-1.6.8-2.7c0-1.2-.3-2-.8-2.7-.5-.7-1.2-1-2-1-1 0-1.7.3-2.2 1-.5.7-.8 1.5-.8 2.7 0 1.1.3 2 .8 2.7.5.7 1.2 1 2.1 1Zm15.1 1.5c-.9 0-1.6-.2-2.2-.5-.6-.2-1.1-.6-1.5-1.1-.3-.5-.5-1.1-.6-1.8h1.7c0 .5.3 1 .8 1.4.4.3 1 .5 1.8.5.7 0 1.2-.1 1.6-.3.4-.3.6-.6.6-1.1l-.1-.7-.8-.4-1.6-.4-2.2-.6c-.6-.3-1-.6-1.2-1-.2-.4-.3-.8-.3-1.4 0-.8.3-1.6 1-2.1a4 4 0 0 1 2.7-.9c.8 0 1.5.2 2 .5.6.3 1 .6 1.4 1.1.3.5.5 1 .6 1.6l-1.6.1-.5-1a2 2 0 0 0-.7-.5c-.4-.2-.7-.3-1.2-.3-.7 0-1.2.2-1.6.4-.3.3-.5.6-.5 1s.1.7.3.9c.1.2.4.3.7.5l1.4.3 2.4.6c.5.3 1 .6 1.2 1 .2.3.3.8.3 1.3 0 .6-.2 1.1-.5 1.6-.4.4-.8.7-1.4 1-.6.2-1.2.3-2 .3Zm9.9 0c-1 0-1.7-.2-2.4-.7-.7-.4-1.2-1-1.6-1.8-.4-.7-.5-1.7-.5-2.7 0-1 .1-2 .5-2.7a4.3 4.3 0 0 1 4-2.4c.8 0 1.5.1 2.2.5a4 4 0 0 1 1.5 1.8c.4.8.6 1.7.6 2.8v.5h-7.2c0 1 .3 1.8.8 2.4.6.5 1.2.8 2.1.8.6 0 1.2-.2 1.6-.5.4-.3.7-.7.9-1.2l1.6.1c-.2 1-.7 1.7-1.4 2.2-.8.6-1.7.9-2.7.9Zm-2.9-6.1h5.5c-.1-1-.4-1.7-.9-2.1-.4-.5-1-.7-1.8-.7-.7 0-1.4.3-1.9.7-.4.5-.8 1.2-.9 2.1Zm11.4 5.8c-.6 0-1-.1-1.4-.4-.4-.3-.6-.8-.6-1.4V99.2h1.6v11.2l.1.5.5.2h.9v1.3h-1.1Zm6.8.3c-1 0-1.8-.2-2.5-.7-.6-.4-1.2-1-1.5-1.8-.4-.7-.6-1.7-.6-2.7 0-1 .2-2 .6-2.7.3-.8.8-1.4 1.5-1.8.7-.5 1.5-.7 2.4-.7.8 0 1.6.2 2.3.6a4 4 0 0 1 1.5 1.8c.4.8.6 1.7.6 2.8v.5h-7.2c0 1 .3 1.8.8 2.4.5.5 1.2.8 2 .8.7 0 1.2-.2 1.6-.5.5-.3.8-.7 1-1.2l1.6.1a4.2 4.2 0 0 1-4.1 3Zm-3-6.1h5.5c0-1-.3-1.7-.8-2.1-.5-.5-1-.7-1.8-.7s-1.4.3-2 .7c-.4.5-.7 1.2-.8 2.1Zm13.2 6c-.9 0-1.7-.1-2.4-.6-.6-.4-1.2-1-1.5-1.8-.4-.7-.6-1.7-.6-2.7 0-1 .2-2 .6-2.7a4.2 4.2 0 0 1 4-2.5c.7 0 1.4.2 2 .4.6.3 1 .7 1.4 1.2.4.5.6 1.1.7 1.9h-1.6c-.1-.6-.4-1.1-.9-1.4-.4-.4-1-.6-1.7-.6-.9 0-1.6.3-2 1-.6.7-.9 1.5-.9 2.7 0 1.1.3 2 .8 2.7.5.7 1.2 1 2.1 1 .7 0 1.3-.2 1.7-.6.5-.4.8-1 .9-1.7l1.6.1c0 .8-.3 1.4-.7 2-.4.5-.8 1-1.4 1.2-.6.3-1.3.5-2 .5Zm9.4-.2c-.9 0-1.5-.2-2-.6-.4-.4-.6-1-.6-1.9v-9.7h1.6v9.7c0 .4 0 .7.3.9.2.2.5.3.9.3h1.4v1.3H452Zm-4-8.5v-1.4h5.6v1.4h-5.7Zm16 8.5c-.9 0-1.5-.2-2-.6-.4-.4-.6-1-.6-1.9v-9.7h1.6v9.7c0 .4 0 .7.3.9.2.2.5.3.9.3h1.4v1.3H464Zm-4-8.5v-1.4h5.6v1.4h-5.7Zm10.2 8.8c-1 0-1.8-.3-2.4-.7-.6-.5-1-1.2-1-2 0-.9.3-1.5.8-2s1.3-.8 2.4-1l3.5-.7c0-.8-.2-1.5-.6-1.9-.4-.4-1-.6-1.8-.6-.6 0-1.2.2-1.6.5-.4.3-.7.7-.8 1.3l-1.7-.1c.2-1 .7-1.7 1.4-2.3.7-.6 1.6-.9 2.7-.9 1.3 0 2.3.4 3 1.1.6.7 1 1.7 1 3v4.5l.5.2h.4v1.3h-.6l-1.1-.1c-.3-.2-.5-.4-.6-.7l-.2-1.2h.2c-.1.5-.3.8-.7 1.2-.3.3-.7.6-1.2.8-.5.2-1 .3-1.6.3Zm.2-1.4c.6 0 1.2-.1 1.6-.4a2.7 2.7 0 0 0 1.5-2.5v-.7l-3.2.6c-.7 0-1.2.3-1.4.5-.3.3-.4.6-.4 1 0 .5.2.9.5 1.1.3.3.8.4 1.4.4Zm11.8 1.4c-.7 0-1.3-.2-1.8-.5-.6-.3-1-.7-1.2-1.2l-.1 1.4h-1.4V99.2h1.5v4.7c.3-.4.7-.8 1.2-1 .5-.4 1.1-.6 1.8-.6a4 4 0 0 1 2.3.7c.6.4 1.1 1 1.5 1.7.3.8.5 1.7.5 2.8 0 1-.2 2-.5 2.7-.4.8-.9 1.4-1.5 1.8a4 4 0 0 1-2.3.7Zm0-1.5c.8 0 1.4-.4 1.9-1 .5-.7.7-1.6.7-2.7 0-1.2-.2-2-.7-2.7-.5-.7-1.1-1-2-1a2.7 2.7 0 0 0-2.5 1.7c-.2.6-.4 1.2-.4 2 0 .7.2 1.4.4 2 .2.5.5 1 1 1.2.4.3 1 .5 1.5.5Zm8.4 1.2c-.5 0-1-.1-1.4-.4-.3-.3-.5-.8-.5-1.4V99.2h1.6v11.2l.1.5.5.2h.8v1.3h-1Zm6.8.3c-.9 0-1.7-.2-2.4-.7-.7-.4-1.2-1-1.6-1.8-.3-.7-.5-1.7-.5-2.7 0-1 .2-2 .5-2.7a4.3 4.3 0 0 1 4-2.4c.8 0 1.6.1 2.2.5a4 4 0 0 1 1.6 1.8c.3.8.5 1.7.5 2.8v.5h-7.2c.1 1 .4 1.8.9 2.4.5.5 1.2.8 2 .8.7 0 1.2-.2 1.6-.5.4-.3.7-.7.9-1.2l1.7.1a4.2 4.2 0 0 1-4.1 3Zm-2.9-6.1h5.5c0-1-.3-1.7-.8-2.1-.5-.5-1.1-.7-1.8-.7-.8 0-1.4.3-2 .7-.4.5-.7 1.2-.9 2.1Zm15.2 5.8v-10.8c0-.7.2-1.3.6-1.7.4-.5 1.1-.7 2-.7h1.6v1.4h-1.5c-.4 0-.7 0-.9.3-.2.2-.2.5-.2.9v10.6h-1.6Zm-1.4-8.5v-1.4h5.4v1.4h-5.4Zm10.8 8.8c-.9 0-1.7-.2-2.4-.7-.6-.4-1.2-1-1.6-1.8-.3-.7-.5-1.7-.5-2.7 0-1 .2-2 .5-2.8a4.2 4.2 0 0 1 4-2.4c1 0 1.7.2 2.4.7.7.4 1.2 1 1.6 1.7.4.8.5 1.7.5 2.8 0 1-.1 2-.5 2.7a4.2 4.2 0 0 1-4 2.5Zm0-1.5c1 0 1.6-.3 2.1-1s.8-1.6.8-2.7c0-1.2-.3-2-.8-2.7-.5-.7-1.2-1-2-1-1 0-1.7.3-2.2 1-.5.7-.8 1.5-.8 2.7 0 1.1.3 2 .8 2.7.5.7 1.2 1 2.1 1Zm6.7 1.2v-9.9h1.4v2.5h-.1c.1-.9.4-1.5.8-1.9.4-.4 1-.6 1.7-.6h1v1.5h-1c-.5 0-1 .1-1.3.3l-.7.8c-.2.4-.2.8-.2 1.4v6h-1.6Zm15.3.3a4 4 0 0 1-2.3-.7 4 4 0 0 1-1.4-1.8c-.4-.7-.5-1.6-.5-2.7 0-1 .1-2 .5-2.8a4 4 0 0 1 1.4-1.7 4 4 0 0 1 2.3-.7c.6 0 1.2.2 1.8.4.5.3 1 .7 1.2 1.2v-4.7h1.6v13.2h-1.5V111a3 3 0 0 1-1.3 1.2 4 4 0 0 1-1.9.5Zm.3-1.5c.6 0 1-.2 1.4-.5.5-.3.8-.7 1-1.2.2-.6.3-1.3.3-2 0-.8-.1-1.4-.3-2-.2-.5-.5-1-1-1.2-.4-.3-.8-.5-1.4-.5-.9 0-1.6.3-2.1 1s-.8 1.5-.8 2.7c0 1.1.3 2 .8 2.7.5.6 1.2 1 2 1Zm9.7 1.5c-1 0-1.8-.3-2.4-.7-.6-.5-1-1.2-1-2 0-.9.3-1.5.8-2s1.3-.8 2.4-1l3.5-.7c0-.8-.2-1.5-.6-1.9-.4-.4-1-.6-1.7-.6s-1.3.2-1.7.5c-.4.3-.6.7-.8 1.3l-1.6-.1c.1-1 .6-1.7 1.3-2.3.7-.6 1.7-.9 2.8-.9 1.2 0 2.2.4 2.9 1.1.7.7 1 1.7 1 3v4l.1.5.4.2h.4v1.3H556.3l-1-.1c-.4-.2-.6-.4-.7-.7l-.2-1.2h.2c0 .5-.3.8-.6 1.2l-1.3.8c-.5.2-1 .3-1.6.3Zm.2-1.4c.6 0 1.2-.1 1.7-.4a2.7 2.7 0 0 0 1.4-2.5v-.7l-3.2.6c-.7 0-1.1.3-1.4.5-.2.3-.4.6-.4 1 0 .5.2.9.5 1.1.4.3.8.4 1.4.4Zm10.5 1.1c-.9 0-1.5-.2-2-.6-.4-.4-.6-1-.6-1.9v-9.7h1.6v9.7c0 .4 0 .7.3.9.1.2.5.3.9.3h1.4v1.3h-1.6Zm-4-8.5v-1.4h5.6v1.4h-5.7Zm10.2 8.8c-1 0-1.8-.3-2.5-.7-.5-.5-.8-1.2-.8-2 0-.9.2-1.5.7-2 .5-.5 1.3-.8 2.4-1l3.5-.7c0-.8-.2-1.5-.6-1.9-.4-.4-1-.6-1.8-.6-.7 0-1.2.2-1.6.5-.4.3-.7.7-.8 1.3l-1.7-.1c.2-1 .7-1.7 1.4-2.3.7-.6 1.6-.9 2.7-.9 1.3 0 2.3.4 3 1.1.6.7 1 1.7 1 3v4.5l.5.2h.4v1.3h-.6l-1.1-.1c-.3-.2-.5-.4-.6-.7-.2-.3-.2-.7-.2-1.2h.2c-.1.5-.3.8-.7 1.2-.3.3-.7.6-1.2.8-.5.2-1 .3-1.6.3Zm.1-1.4c.7 0 1.3-.1 1.7-.4a2.7 2.7 0 0 0 1.5-2.5v-.7l-3.2.6c-.7 0-1.2.3-1.4.5-.3.3-.4.6-.4 1 0 .5.2.9.5 1.1.3.3.8.4 1.3.4Zm12 1.4c-.8 0-1.4-.2-2-.5-.5-.3-.9-.7-1.2-1.2v1.4h-1.4V99.2h1.5v4.7c.3-.4.7-.8 1.2-1 .5-.4 1.1-.6 1.8-.6a4 4 0 0 1 2.3.7c.6.4 1.1 1 1.4 1.7.4.8.6 1.7.6 2.8 0 1-.2 2-.6 2.7-.3.8-.8 1.4-1.4 1.8a4 4 0 0 1-2.3.7Zm-.2-1.5c.9 0 1.5-.4 2-1 .5-.7.7-1.6.7-2.7 0-1.2-.2-2-.7-2.7-.5-.7-1.1-1-2-1a2.7 2.7 0 0 0-2.5 1.7c-.2.6-.4 1.2-.4 2 0 .7.2 1.4.4 2 .2.5.5 1 1 1.2.4.3 1 .5 1.5.5Zm9.4 1.5c-1 0-1.8-.3-2.4-.7-.6-.5-1-1.2-1-2 0-.9.3-1.5.8-2s1.3-.8 2.4-1l3.5-.7c0-.8-.2-1.5-.6-1.9-.4-.4-1-.6-1.7-.6s-1.3.2-1.7.5c-.4.3-.6.7-.8 1.3l-1.7-.1c.2-1 .7-1.7 1.4-2.3.7-.6 1.6-.9 2.8-.9 1.2 0 2.2.4 2.9 1.1.6.7 1 1.7 1 3v4.5l.5.2h.4v1.3H594.5l-1.1-.1c-.3-.2-.5-.4-.6-.7l-.2-1.2h.2c0 .5-.3.8-.6 1.2l-1.3.8c-.5.2-1 .3-1.6.3Zm.2-1.4c.6 0 1.2-.1 1.7-.4a2.7 2.7 0 0 0 1.4-2.5v-.7l-3.2.6c-.7 0-1.1.3-1.4.5-.3.3-.4.6-.4 1 0 .5.2.9.5 1.1.3.3.8.4 1.4.4Zm11 1.4c-1 0-1.7-.2-2.3-.5-.6-.2-1.1-.6-1.5-1.1-.3-.5-.5-1.1-.5-1.8h1.6c.1.5.4 1 .8 1.4.4.3 1 .5 1.8.5.7 0 1.2-.1 1.6-.3.5-.3.7-.6.7-1.1l-.2-.7-.8-.4-1.6-.4-2.2-.6c-.5-.3-1-.6-1.2-1-.2-.4-.3-.8-.3-1.4 0-.8.3-1.6 1-2.1a4 4 0 0 1 2.7-.9c.9 0 1.5.2 2 .5.6.3 1 .6 1.4 1.1.3.5.5 1 .6 1.6l-1.6.1-.4-1a2 2 0 0 0-.8-.5c-.3-.2-.7-.3-1.2-.3-.7 0-1.2.2-1.5.4-.4.3-.6.6-.6 1s.1.7.3.9c.1.2.4.3.7.5l1.4.3 2.4.6c.6.3 1 .6 1.2 1 .2.3.3.8.3 1.3 0 .6-.2 1.1-.5 1.6-.4.4-.8.7-1.4 1-.6.2-1.2.3-2 .3Zm9.8 0c-1 0-1.7-.2-2.4-.7-.7-.4-1.2-1-1.6-1.8-.3-.7-.5-1.7-.5-2.7 0-1 .2-2 .5-2.7a4.3 4.3 0 0 1 4-2.4c.8 0 1.6.1 2.2.5a4 4 0 0 1 1.6 1.8c.3.8.5 1.7.5 2.8v.5h-7.2c0 1 .4 1.8.9 2.4.5.5 1.2.8 2 .8.7 0 1.2-.2 1.6-.5.4-.3.7-.7.9-1.2l1.7.1a4.2 4.2 0 0 1-4.1 3Zm-2.9-6.1h5.5c0-1-.4-1.7-.8-2.1-.5-.5-1.1-.7-1.9-.7-.7 0-1.3.3-1.8.7-.5.5-.8 1.2-1 2.1Zm23 7.1-1.2-1.4-1 .3-1.3.1c-1.2 0-2.3-.3-3.2-.9a6 6 0 0 1-2-2.5 8.6 8.6 0 0 1 0-7A5.6 5.6 0 0 1 627 99c1.2 0 2.3.3 3.2 1 1 .5 1.6 1.4 2 2.4a8.5 8.5 0 0 1 0 6.9 6 6 0 0 1-1.8 2.5l1.7 2h-1.8Zm-3.5-2.5h.8l.5-.2-1.9-2.4h1.7l1.4 1.8c.7-.5 1.1-1 1.4-1.9.3-.7.5-1.6.5-2.7 0-1-.2-1.8-.5-2.7-.3-.8-.8-1.4-1.5-1.9-.6-.5-1.4-.7-2.4-.7s-1.7.2-2.4.7c-.6.5-1 1.1-1.4 2a7.4 7.4 0 0 0 0 5.4c.3.7.8 1.4 1.4 1.8.7.5 1.5.8 2.4.8Zm11.8 1.5c-1.3 0-2.3-.3-3-.9a3.3 3.3 0 0 1-1.2-2.6c0-.6.1-1 .3-1.5.2-.5.4-.9.8-1.3s.9-.9 1.6-1.3l-.8-1-.4-1-.2-1.2c0-1 .3-1.7.9-2.2.6-.5 1.4-.8 2.4-.8.6 0 1.2.1 1.7.3.4.3.8.6 1 1 .2.4.4 1 .4 1.5 0 .7-.2 1.4-.7 2-.4.5-1.1 1.1-2 1.8l3 3.8c.4-.6.6-1.5.6-2.8l1.6.2a7 7 0 0 1-1.3 3.8l1.6 2h-1.9l-.7-.9c-.3.4-.8.6-1.5.8-.6.2-1.3.3-2.2.3Zm.1-1.5c.7 0 1.2 0 1.6-.2.5-.1.8-.3 1-.5l-3.3-4.2c-.7.5-1.2 1-1.4 1.4-.3.4-.5 1-.5 1.5 0 .6.2 1.1.6 1.5.5.4 1.1.5 2 .5Zm-.3-6.9 1.2-.8c.3-.2.5-.5.6-.8l.2-.9c0-.4-.1-.8-.4-1-.2-.2-.6-.3-1-.3-.5 0-1 0-1.2.3-.3.3-.4.7-.4 1.1v.8l.4.7.6 1Zm7.3 8.1 4.7-13.2h2.2l4.8 13.2h-1.8l-1.3-3.7h-5.6l-1.3 3.7h-1.7Zm3.6-5.3h4.5l-2.3-6.5-2.2 6.5Z"
      />
      <path stroke="#fff" stroke-width="1.7" d="M59.2 92.8v26.4" />
      <path
        fill="#A1A1AA"
        d="M57.6 74.3V61h4.7c1.5 0 2.7.3 3.5 1 .8.8 1.2 1.7 1.2 3 0 .9-.2 1.6-.5 2.2-.4.6-1 1-1.6 1.4a6 6 0 0 1-2.6.5h-3.1v5.2h-1.6Zm1.6-6.8h3.1c1 0 1.8-.2 2.3-.6.5-.4.7-1 .7-1.9 0-.8-.2-1.4-.7-1.8-.5-.4-1.3-.6-2.3-.6h-3.1v5Zm12.2 6.8c-.5 0-1-.2-1.4-.5-.3-.3-.5-.8-.5-1.4V61h1.6v11.3l.1.4.5.2h.8v1.4h-1Zm6.8.2c-.9 0-1.7-.2-2.4-.7-.7-.4-1.2-1-1.6-1.7-.3-.8-.5-1.7-.5-2.8 0-1 .2-2 .5-2.7a4.3 4.3 0 0 1 4-2.4c.8 0 1.6.1 2.2.5a4 4 0 0 1 1.6 1.8c.3.8.5 1.7.5 2.8v.5h-7.2c.1 1 .4 1.8.9 2.4.5.5 1.2.8 2 .8.7 0 1.2-.2 1.6-.5.4-.3.7-.7.9-1.2l1.7.2a4.2 4.2 0 0 1-4.1 3Zm-2.9-6h5.5c0-1-.3-1.8-.8-2.2-.5-.5-1.1-.7-1.8-.7-.8 0-1.4.3-2 .7-.4.5-.7 1.2-.9 2.1Zm12.3 6c-1 0-1.9-.3-2.5-.7-.6-.5-.9-1.2-.9-2 0-.9.3-1.5.8-2s1.3-.8 2.4-1l3.5-.7c0-.8-.2-1.4-.6-1.9-.4-.4-1-.6-1.8-.6-.7 0-1.2.2-1.6.5-.4.3-.7.7-.8 1.3l-1.7-.1c.2-1 .6-1.7 1.4-2.3.7-.6 1.6-.9 2.7-.9 1.3 0 2.3.4 3 1.1.6.7 1 1.7 1 3v4.5l.5.2h.4v1.4H93a3.2 3.2 0 0 1-1.4-.2c-.3-.2-.5-.4-.6-.7-.2-.3-.2-.7-.2-1.2h.2c-.1.5-.3.8-.7 1.2-.3.3-.7.6-1.2.8-.5.2-1 .3-1.6.3Zm.1-1.4c.7 0 1.3-.1 1.7-.4a2.7 2.7 0 0 0 1.5-2.5v-.7l-3.2.6c-.7 0-1.2.3-1.4.5-.3.3-.4.6-.4 1 0 .5.1.9.5 1.1.3.3.8.4 1.3.4Zm11 1.4c-.9 0-1.6-.2-2.3-.5-.6-.2-1-.6-1.4-1.1-.3-.5-.5-1.1-.6-1.8h1.7c0 .5.3 1 .7 1.4.4.3 1 .5 1.9.5.7 0 1.2-.1 1.6-.3.4-.3.6-.6.6-1.1 0-.3 0-.5-.2-.7 0-.1-.3-.3-.7-.4l-1.6-.4a10 10 0 0 1-2.2-.6c-.6-.3-1-.6-1.2-1-.2-.4-.3-.8-.3-1.3 0-1 .3-1.7 1-2.2a4 4 0 0 1 2.7-.9c.8 0 1.5.2 2 .5.6.3 1 .6 1.3 1.1.4.5.6 1 .7 1.6l-1.7.1c0-.3-.2-.6-.4-.9a2 2 0 0 0-.8-.6c-.3-.2-.7-.3-1.1-.3-.7 0-1.3.2-1.6.4-.3.3-.5.7-.5 1 0 .4 0 .7.2.9.2.2.4.4.8.5l1.4.3c1 .2 1.8.4 2.4.7.5.2 1 .5 1.1.9.3.3.4.8.4 1.3 0 .6-.2 1.1-.6 1.6-.3.4-.8.7-1.3 1-.6.2-1.3.3-2 .3Zm9.9 0c-1 0-1.8-.2-2.5-.7-.6-.4-1.1-1-1.5-1.7-.4-.8-.6-1.7-.6-2.8 0-1 .2-2 .6-2.7.4-.8.9-1.4 1.5-1.8.7-.5 1.5-.7 2.4-.7.9 0 1.6.2 2.3.6a4 4 0 0 1 1.5 1.8c.4.8.6 1.7.6 2.8v.5h-7.2c0 1 .3 1.8.8 2.4.5.5 1.2.8 2 .8.7 0 1.3-.2 1.7-.5.4-.3.7-.7.8-1.2l1.7.2c-.2.8-.7 1.6-1.5 2.1-.7.6-1.6.9-2.6.9Zm-3-6h5.6c-.1-1-.4-1.8-.9-2.2-.5-.5-1-.7-1.8-.7s-1.4.3-1.9.7c-.5.5-.8 1.2-1 2.1Zm17.9 6c-1 0-1.7-.2-2.3-.5-.6-.2-1-.6-1.4-1.1-.4-.5-.6-1.1-.6-1.8h1.6c.1.5.4 1 .8 1.4.4.3 1 .5 1.9.5.6 0 1.2-.1 1.6-.3.4-.3.6-.6.6-1.1 0-.3 0-.5-.2-.7l-.7-.4-1.6-.4a10 10 0 0 1-2.3-.6c-.5-.3-1-.6-1.1-1-.3-.4-.4-.8-.4-1.3 0-1 .3-1.7 1-2.2a4 4 0 0 1 2.8-.9c.8 0 1.4.2 2 .5.6.3 1 .6 1.3 1.1.3.5.5 1 .6 1.6l-1.6.1c0-.3-.2-.6-.4-.9a2 2 0 0 0-.8-.6c-.3-.2-.7-.3-1.2-.3-.7 0-1.2.2-1.5.4-.4.3-.5.7-.5 1 0 .4 0 .7.2.9.2.2.4.4.8.5l1.4.3c1 .2 1.8.4 2.3.7.6.2 1 .5 1.2.9.2.3.3.8.3 1.3 0 .6-.1 1.1-.5 1.6-.3.4-.8.7-1.4 1-.6.2-1.2.3-2 .3Zm9.8 0c-.9 0-1.7-.2-2.4-.7-.7-.4-1.2-1-1.6-1.7-.3-.8-.5-1.7-.5-2.8 0-1 .2-2 .5-2.7a4.3 4.3 0 0 1 4-2.4c.8 0 1.6.1 2.2.5a4 4 0 0 1 1.6 1.8c.3.8.5 1.7.5 2.8v.5h-7.2c.1 1 .4 1.8.9 2.4.5.5 1.2.8 2 .8.7 0 1.2-.2 1.6-.5.4-.3.7-.7.9-1.2l1.7.2a4.2 4.2 0 0 1-4.1 3Zm-2.9-6h5.5c0-1-.3-1.8-.8-2.2-.5-.5-1.1-.7-1.8-.7-.8 0-1.4.3-2 .7-.4.5-.7 1.2-.9 2.1Zm11.4 5.8c-.6 0-1-.2-1.4-.5-.4-.3-.6-.8-.6-1.4V61h1.6v11.3c0 .2 0 .3.2.4l.4.2h.9v1.4h-1.1Zm6.8.2c-1 0-1.8-.2-2.4-.7-.7-.4-1.2-1-1.6-1.7-.4-.8-.6-1.7-.6-2.8 0-1 .2-2 .6-2.7.4-.8.9-1.4 1.5-1.8.7-.5 1.5-.7 2.4-.7.9 0 1.6.2 2.3.6a4 4 0 0 1 1.5 1.8c.4.8.6 1.7.6 2.8v.5h-7.2c0 1 .3 1.8.8 2.4.5.5 1.2.8 2 .8.7 0 1.3-.2 1.7-.5.4-.3.7-.7.9-1.2l1.6.2c-.2.8-.7 1.6-1.5 2.1-.7.6-1.6.9-2.6.9Zm-3-6h5.6c-.1-1-.4-1.8-.9-2.2-.4-.5-1-.7-1.8-.7-.7 0-1.4.3-1.9.7-.5.5-.8 1.2-1 2.1Zm13.3 6c-1 0-1.7-.2-2.4-.7-.7-.4-1.2-1-1.6-1.7-.4-.8-.6-1.7-.6-2.8 0-1 .2-2 .6-2.7a4.2 4.2 0 0 1 4-2.5c.7 0 1.4.2 2 .4.6.3 1 .7 1.5 1.2.3.5.6 1.1.7 1.9h-1.7c0-.6-.4-1-.8-1.4-.5-.4-1-.6-1.7-.6-1 0-1.6.4-2.2 1-.5.7-.7 1.6-.7 2.7s.2 2 .7 2.7c.6.7 1.3 1 2.2 1 .7 0 1.2-.2 1.7-.6.4-.3.7-1 .8-1.7l1.7.2c-.1.7-.4 1.3-.7 1.9a4.4 4.4 0 0 1-3.5 1.7Zm9.4-.2c-1 0-1.6-.3-2-.7-.5-.4-.7-1-.7-1.9V62h1.6v9.7c0 .4.1.7.3 1l1 .2h1.3v1.4h-1.5Zm-4.1-8.6v-1.3h5.6v1.3h-5.6Zm15.1 8.8c-1 0-1.8-.3-2.4-.7-.6-.5-1-1.2-1-2 0-.9.3-1.5.8-2s1.3-.8 2.4-1l3.5-.7c0-.8-.2-1.4-.6-1.9-.4-.4-1-.6-1.8-.6-.6 0-1.2.2-1.6.5-.4.3-.7.7-.8 1.3l-1.7-.1c.2-1 .7-1.7 1.4-2.3.7-.6 1.6-.9 2.7-.9 1.3 0 2.3.4 3 1.1.6.7 1 1.7 1 3v4.5l.5.2h.4v1.4h-.3a3.2 3.2 0 0 1-1.4-.2c-.3-.2-.5-.4-.6-.7l-.2-1.2h.2c-.1.5-.3.8-.7 1.2-.3.3-.7.6-1.2.8-.5.2-1 .3-1.6.3Zm.2-1.4c.6 0 1.2-.1 1.6-.4a2.7 2.7 0 0 0 1.5-2.5v-.7l-3.2.6c-.7 0-1.2.3-1.4.5-.3.3-.4.6-.4 1 0 .5.2.9.5 1.1.3.3.8.4 1.4.4Zm15.6 1.4a4 4 0 0 1-2.2-.7 4 4 0 0 1-1.5-1.7c-.3-.8-.5-1.7-.5-2.8 0-1 .2-2 .5-2.7a4 4 0 0 1 1.5-1.8 4 4 0 0 1 2.2-.7c.7 0 1.3.2 1.8.5.6.2 1 .6 1.3 1.1V61h1.5v13.3h-1.4v-1.5A3 3 0 0 1 197 74a4 4 0 0 1-1.9.5Zm.3-1.5c.6 0 1.1-.2 1.5-.5.4-.3.7-.7 1-1.2.1-.6.3-1.2.3-2s-.2-1.4-.4-2c-.2-.5-.5-1-.9-1.2-.4-.3-.9-.5-1.5-.5-.8 0-1.5.4-2 1-.6.7-.8 1.6-.8 2.7s.2 2 .7 2.7c.6.7 1.3 1 2.1 1Zm9.8 1.5c-1 0-1.8-.3-2.5-.7-.6-.5-.9-1.2-.9-2 0-.9.3-1.5.8-2s1.3-.8 2.4-1l3.5-.7c0-.8-.2-1.4-.6-1.9-.4-.4-1-.6-1.8-.6-.7 0-1.2.2-1.6.5-.4.3-.7.7-.8 1.3l-1.7-.1c.2-1 .7-1.7 1.4-2.3.7-.6 1.6-.9 2.7-.9 1.3 0 2.3.4 3 1.1.6.7 1 1.7 1 3v4.5l.5.2h.4v1.4h-.3a3.2 3.2 0 0 1-1.4-.2c-.3-.2-.5-.4-.6-.7-.2-.3-.2-.7-.2-1.2h.2c-.1.5-.3.8-.7 1.2-.3.3-.7.6-1.2.8-.5.2-1 .3-1.6.3Zm.1-1.4c.7 0 1.3-.1 1.7-.4a2.7 2.7 0 0 0 1.5-2.5v-.7l-3.2.6c-.7 0-1.2.3-1.4.5-.3.3-.4.6-.4 1 0 .5.2.9.5 1.1.3.3.8.4 1.3.4Zm10.6 1.2c-1 0-1.6-.3-2-.7-.5-.4-.7-1-.7-1.9V62h1.6v9.7c0 .4.1.7.3 1l1 .2h1.3v1.4H216Zm-4.1-8.6v-1.3h5.6v1.3h-5.6Zm10.3 8.8c-1 0-1.9-.3-2.5-.7-.6-.5-.9-1.2-.9-2 0-.9.3-1.5.8-2s1.2-.8 2.3-1l3.5-.7c0-.8-.2-1.4-.6-1.9-.3-.4-1-.6-1.7-.6s-1.2.2-1.6.5c-.4.3-.7.7-.9 1.3l-1.6-.1c.2-1 .6-1.7 1.3-2.3.7-.6 1.7-.9 2.8-.9 1.3 0 2.2.4 2.9 1.1.7.7 1 1.7 1 3v4l.1.5.4.2h.4v1.4h-.2a3.3 3.3 0 0 1-1.5-.2l-.6-.7-.2-1.2h.2c0 .5-.3.8-.6 1.2l-1.3.8-1.5.3Zm.1-1.4c.7 0 1.2-.1 1.7-.4a2.7 2.7 0 0 0 1.4-2.5v-.7l-3.2.6c-.6 0-1.1.3-1.4.5-.2.3-.3.6-.3 1 0 .5.1.9.4 1.1.4.3.8.4 1.4.4Zm11.9 1.4c-.7 0-1.3-.2-1.9-.5-.5-.3-1-.7-1.2-1.2v1.5h-1.5V61h1.6v4.7c.2-.4.6-.7 1.2-1 .5-.4 1-.6 1.8-.6a4 4 0 0 1 2.2.7c.7.4 1.2 1 1.5 1.8.3.7.5 1.6.5 2.7 0 1-.2 2-.5 2.8-.3.7-.8 1.3-1.5 1.7a4 4 0 0 1-2.2.7ZM234 73c.8 0 1.5-.3 2-1 .4-.7.7-1.6.7-2.7s-.3-2-.7-2.7c-.5-.6-1.2-1-2-1a2.7 2.7 0 0 0-2.6 1.7c-.2.6-.3 1.2-.3 2s.1 1.4.3 2c.3.5.6 1 1 1.2.5.3 1 .5 1.6.5Zm9.4 1.5c-1 0-1.9-.3-2.5-.7-.6-.5-.9-1.2-.9-2 0-.9.3-1.5.8-2s1.3-.8 2.4-1l3.5-.7c0-.8-.2-1.4-.6-1.9-.4-.4-1-.6-1.8-.6-.7 0-1.2.2-1.6.5-.4.3-.7.7-.8 1.3l-1.7-.1c.2-1 .6-1.7 1.3-2.3.8-.6 1.7-.9 2.8-.9 1.3 0 2.3.4 3 1.1.6.7 1 1.7 1 3v4.5l.5.2h.4v1.4h-.3a3.2 3.2 0 0 1-1.4-.2c-.3-.2-.5-.4-.6-.7-.2-.3-.2-.7-.2-1.2h.2c-.1.5-.3.8-.7 1.2-.3.3-.7.6-1.2.8-.5.2-1 .3-1.6.3Zm.1-1.4c.7 0 1.3-.1 1.7-.4a2.8 2.8 0 0 0 1.5-2.5v-.7l-3.2.6c-.7 0-1.2.3-1.4.5-.3.3-.4.6-.4 1 0 .5.1.9.5 1.1.3.3.8.4 1.3.4Zm11 1.4c-.9 0-1.6-.2-2.3-.5-.6-.2-1-.6-1.4-1.1-.3-.5-.5-1.1-.6-1.8h1.7c0 .5.3 1 .7 1.4.4.3 1 .5 1.9.5.7 0 1.2-.1 1.6-.3.4-.3.6-.6.6-1.1 0-.3 0-.5-.2-.7 0-.1-.3-.3-.7-.4l-1.6-.4a10 10 0 0 1-2.2-.6c-.6-.3-1-.6-1.2-1-.2-.4-.3-.8-.3-1.3 0-1 .3-1.7 1-2.2a4 4 0 0 1 2.7-.9c.8 0 1.5.2 2 .5.6.3 1 .6 1.3 1.1.4.5.6 1 .7 1.6l-1.7.1c0-.3-.2-.6-.4-.9a2 2 0 0 0-.8-.6c-.3-.2-.7-.3-1.1-.3-.7 0-1.3.2-1.6.4-.3.3-.5.7-.5 1 0 .4 0 .7.2.9.2.2.4.4.8.5l1.4.3c1 .2 1.8.4 2.3.7.6.2 1 .5 1.2.9.3.3.4.8.4 1.3 0 .6-.2 1.1-.6 1.6-.3.4-.8.7-1.3 1-.6.2-1.3.3-2 .3Zm9.9 0c-1 0-1.8-.2-2.5-.7-.6-.4-1.2-1-1.5-1.7-.4-.8-.6-1.7-.6-2.8 0-1 .2-2 .6-2.7.3-.8.9-1.4 1.5-1.8.7-.5 1.5-.7 2.4-.7.9 0 1.6.2 2.3.6a4 4 0 0 1 1.5 1.8c.4.8.6 1.7.6 2.8v.5h-7.2c0 1 .3 1.8.8 2.4.5.5 1.2.8 2 .8.7 0 1.2-.2 1.7-.5.4-.3.7-.7.8-1.2l1.7.2c-.2.8-.7 1.6-1.5 2.1-.7.6-1.6.9-2.6.9Zm-3-6h5.6c-.1-1-.4-1.8-.9-2.2-.5-.5-1-.7-1.8-.7s-1.4.3-1.9.7c-.5.5-.8 1.2-1 2.1Zm18.1 6c-.9 0-1.7-.2-2.4-.7-.7-.4-1.2-1-1.6-1.7-.3-.8-.5-1.7-.5-2.8 0-1 .2-2 .5-2.7a4.2 4.2 0 0 1 4-2.5c1 0 1.7.2 2.4.7.7.4 1.2 1 1.6 1.8.4.7.5 1.6.5 2.7 0 1-.1 2-.5 2.8a4.2 4.2 0 0 1-4 2.4Zm0-1.5c1 0 1.6-.3 2.1-1 .5-.6.8-1.6.8-2.7s-.3-2-.8-2.7c-.5-.6-1.2-1-2-1-1 0-1.7.4-2.2 1-.5.7-.8 1.6-.8 2.7s.3 2 .8 2.7c.5.7 1.2 1 2.1 1Zm6.7 1.3v-10h1.4V67l-.1-.1c.1-.8.4-1.5.8-1.8.4-.4 1-.6 1.7-.6h1v1.4h-1c-.5 0-1 .1-1.3.3l-.7.8c-.2.4-.3.8-.3 1.4v6h-1.5Zm15.2.2a4 4 0 0 1-2.2-.7 4 4 0 0 1-1.4-1.7c-.4-.8-.5-1.7-.5-2.8 0-1 .1-2 .5-2.7a4 4 0 0 1 1.4-1.8 4 4 0 0 1 2.2-.7c.7 0 1.3.2 1.9.5.5.2 1 .6 1.2 1.1V61h1.6v13.3h-1.5v-1.5a3 3 0 0 1-1.3 1.2 4 4 0 0 1-1.9.5Zm.4-1.5c.5 0 1-.2 1.4-.5.4-.3.8-.7 1-1.2.2-.6.3-1.2.3-2s-.1-1.4-.3-2c-.2-.5-.6-1-1-1.2-.4-.3-.9-.5-1.4-.5-1 0-1.6.4-2.1 1-.5.7-.8 1.6-.8 2.7s.3 2 .8 2.7c.5.7 1.2 1 2 1Zm9.7 1.5c-1 0-1.8-.3-2.4-.7-.6-.5-1-1.2-1-2 0-.9.3-1.5.8-2s1.3-.8 2.4-1l3.5-.7c0-.8-.2-1.4-.6-1.9-.4-.4-1-.6-1.7-.6s-1.3.2-1.7.5c-.4.3-.6.7-.8 1.3l-1.6-.1c.1-1 .6-1.7 1.3-2.3.7-.6 1.6-.9 2.8-.9 1.2 0 2.2.4 2.9 1.1.6.7 1 1.7 1 3v4l.1.5.4.2h.4v1.4h-.2a3.2 3.2 0 0 1-1.5-.2c-.3-.2-.5-.4-.6-.7l-.2-1.2h.2c0 .5-.3.8-.6 1.2l-1.3.8c-.5.2-1 .3-1.6.3Zm.2-1.4c.6 0 1.2-.1 1.7-.4a2.7 2.7 0 0 0 1.4-2.5v-.7l-3.2.6c-.7 0-1.1.3-1.4.5-.3.3-.4.6-.4 1 0 .5.2.9.5 1.1.3.3.8.4 1.4.4Zm10.5 1.2c-.9 0-1.6-.3-2-.7-.4-.4-.6-1-.6-1.9V62h1.5v9.7c0 .4.1.7.3 1l1 .2h1.4v1.4h-1.6Zm-4-8.6v-1.3h5.6v1.3H318Zm10.2 8.8c-1 0-1.9-.3-2.5-.7-.6-.5-.9-1.2-.9-2 0-.9.3-1.5.8-2s1.3-.8 2.4-1l3.5-.7c0-.8-.2-1.4-.6-1.9-.4-.4-1-.6-1.8-.6-.7 0-1.2.2-1.6.5-.4.3-.7.7-.8 1.3l-1.7-.1c.2-1 .6-1.7 1.4-2.3.7-.6 1.6-.9 2.7-.9 1.3 0 2.3.4 3 1.1.6.7 1 1.7 1 3v4.5l.5.2h.4v1.4h-.3a3.2 3.2 0 0 1-1.4-.2c-.3-.2-.5-.4-.6-.7-.2-.3-.2-.7-.2-1.2h.2c-.1.5-.3.8-.7 1.2-.3.3-.7.6-1.2.8-.5.2-1 .3-1.6.3Zm.1-1.4c.7 0 1.3-.1 1.7-.4a2.7 2.7 0 0 0 1.5-2.5v-.7l-3.2.6c-.7 0-1.2.3-1.4.5-.3.3-.4.6-.4 1 0 .5.1.9.5 1.1.3.3.8.4 1.3.4Zm11 1.4c-.9 0-1.6-.2-2.3-.5-.6-.2-1-.6-1.4-1.1-.3-.5-.5-1.1-.6-1.8h1.7c0 .5.3 1 .7 1.4.4.3 1 .5 1.9.5.7 0 1.2-.1 1.6-.3.4-.3.6-.6.6-1.1 0-.3 0-.5-.2-.7 0-.1-.3-.3-.7-.4l-1.6-.4a10 10 0 0 1-2.2-.6c-.6-.3-1-.6-1.2-1-.2-.4-.3-.8-.3-1.3 0-1 .3-1.7 1-2.2a4 4 0 0 1 2.7-.9c.8 0 1.5.2 2 .5.6.3 1 .6 1.3 1.1.4.5.6 1 .7 1.6l-1.7.1c0-.3-.2-.6-.4-.9a2 2 0 0 0-.8-.6c-.3-.2-.7-.3-1.1-.3-.7 0-1.3.2-1.6.4-.3.3-.5.7-.5 1 0 .4 0 .7.2.9.2.2.4.4.8.5l1.4.3c1 .2 1.8.4 2.4.7.5.2 1 .5 1.1.9.3.3.4.8.4 1.3 0 .6-.2 1.1-.6 1.6-.3.4-.8.7-1.3 1-.6.2-1.3.3-2 .3Zm9.9 0c-1 0-1.8-.2-2.5-.7-.6-.4-1.1-1-1.5-1.7-.4-.8-.6-1.7-.6-2.8 0-1 .2-2 .6-2.7.4-.8.9-1.4 1.5-1.8.7-.5 1.5-.7 2.4-.7.9 0 1.6.2 2.3.6a4 4 0 0 1 1.5 1.8c.4.8.6 1.7.6 2.8v.5h-7.2c0 1 .3 1.8.8 2.4.5.5 1.2.8 2 .8.7 0 1.3-.2 1.7-.5.4-.3.7-.7.8-1.2l1.7.2c-.2.8-.7 1.6-1.5 2.1-.7.6-1.6.9-2.6.9Zm-3-6h5.6c-.1-1-.4-1.8-.9-2.2-.5-.5-1-.7-1.8-.7s-1.4.3-1.9.7c-.5.5-.8 1.2-1 2.1Zm12.6 5.8c-.9 0-1.5-.3-2-.7-.4-.4-.6-1-.6-1.9V62h1.6v9.7c0 .4 0 .7.3 1l.9.2h1.4v1.4H359Zm-4-8.6v-1.3h5.6v1.3H355Zm7.5 8.6V72h2.1v2.2h-2Z"
      />
      <path
        stroke="#52525B"
        stroke-linecap="round"
        stroke-linejoin="round"
        stroke-width="1.7"
        d="m373.4 65.5 6.3 6.3 6.3-6.3"
      />
      <g opacity=".4">
        <rect
          width="48"
          height="48"
          x="641.6"
          y="163.7"
          fill="#27272A"
          rx="13.3"
        />
        <path
          fill="#BFBFBF"
          fill-rule="evenodd"
          d="M657.7 176.8c-1.8-.9-3.7.8-3.1 2.7l2.7 8.2-2.7 8.2a2.2 2.2 0 0 0 3 2.7l17.7-8.7a2.4 2.4 0 0 0 0-4.4l-17.6-8.7Zm-1 2 17.7 8.7c.1 0 .1.3 0 .4l-17.7 8.7 2.5-7.5 2.4-.3c2.3-.3 3.4-.5 3.6-.7.1-.3.1-.6 0-.8-.2-.2-1.3-.4-3.6-.7l-2.4-.3-2.5-7.5Z"
          clip-rule="evenodd"
        />
      </g>
    </g>
    <rect
      width="671.7"
      height="191.6"
      x="33.6"
      y="33.2"
      stroke="#fff"
      stroke-opacity=".1"
      stroke-width=".7"
      rx="21"
    />
    <rect
      width="671.7"
      height="191.6"
      x="33.6"
      y="33.2"
      stroke="url(#d)"
      stroke-width=".7"
      rx="21"
    />
  </g>
  <defs>
    <linearGradient
      id="c"
      x1="90.6"
      x2="381.6"
      y1="64.3"
      y2="147.7"
      gradientUnits="userSpaceOnUse"
    >
      <stop stop-color="#181818" />
      <stop offset="1" stop-color="#131313" />
    </linearGradient>
    <linearGradient
      id="d"
      x1="38.2"
      x2="134.1"
      y1="32.9"
      y2="148.9"
      gradientUnits="userSpaceOnUse"
    >
      <stop stop-color="#fff" />
      <stop offset="1" stop-color="#fff" stop-opacity="0" />
    </linearGradient>
    <clipPath id="b">
      <rect
        width="672.4"
        height="192.3"
        x="33.2"
        y="32.9"
        fill="#fff"
        rx="21.4"
      />
    </clipPath>
    <filter
      id="a"
      width="737.8"
      height="257.6"
      x=".5"
      y=".2"
      color-interpolation-filters="sRGB"
      filterUnits="userSpaceOnUse"
    >
      <feFlood flood-opacity="0" result="BackgroundImageFix" />
      <feColorMatrix
        in="SourceAlpha"
        result="hardAlpha"
        values="0 0 0 0 0 0 0 0 0 0 0 0 0 0 0 0 0 0 127 0"
      />
      <feMorphology
        in="SourceAlpha"
        operator="dilate"
        radius="13.8"
        result="effect1_dropShadow_528_4569"
      />
      <feOffset />
      <feGaussianBlur stdDeviation="9.4" />
      <feComposite in2="hardAlpha" operator="out" />
      <feColorMatrix values="0 0 0 0 0 0 0 0 0 0 0 0 0 0 0 0 0 0 0.5 0" />
      <feBlend in2="BackgroundImageFix" result="effect1_dropShadow_528_4569" />
      <feBlend
        in="SourceGraphic"
        in2="effect1_dropShadow_528_4569"
        result="shape"
      />
    </filter>
  </defs>
</svg>
