<svg
  width="739"
  height="258"
  viewBox="0 0 739 258"
  fill="none"
  xmlns="http://www.w3.org/2000/svg"
>
  <g filter="url(#filter0_d_528_4569)">
    <g clip-path="url(#clip0_528_4569)">
      <rect
        x="33.2266"
        y="32.8887"
        width="672.398"
        height="192.293"
        rx="21.3521"
        fill="url(#paint0_linear_528_4569)"
      />
      <path
        d="M63.7283 112.445C62.8565 112.445 62.159 112.19 61.6358 111.679C61.1252 111.169 60.8698 110.484 60.8698 109.624C60.8698 108.715 61.1376 108.011 61.6732 107.513C62.2212 107.002 63.0246 106.747 64.0833 106.747H65.1856V104.692H64.0833C63.0246 104.692 62.2212 104.443 61.6732 103.945C61.1376 103.434 60.8698 102.724 60.8698 101.815C60.8698 100.955 61.1252 100.27 61.6358 99.7595C62.159 99.2488 62.8565 98.9935 63.7283 98.9935C64.4258 98.9935 64.9739 99.1243 65.3724 99.3859C65.7835 99.6474 66.0699 99.9962 66.2319 100.432C66.4062 100.868 66.4934 101.348 66.4934 101.871V103.421H68.5486V101.871C68.5486 101.348 68.6295 100.868 68.7914 100.432C68.9658 99.9962 69.2523 99.6474 69.6509 99.3859C70.0619 99.1243 70.6162 98.9935 71.3137 98.9935C72.1855 98.9935 72.8768 99.2488 73.3875 99.7595C73.9106 100.27 74.1722 100.955 74.1722 101.815C74.1722 102.724 73.9044 103.434 73.3688 103.945C72.8332 104.443 72.0298 104.692 70.9587 104.692H69.8564V106.747H70.9587C72.0298 106.747 72.8332 107.002 73.3688 107.513C73.9044 108.011 74.1722 108.715 74.1722 109.624C74.1722 110.484 73.9106 111.169 73.3875 111.679C72.8768 112.19 72.1855 112.445 71.3137 112.445C70.6162 112.445 70.0619 112.315 69.6509 112.053C69.2523 111.791 68.9658 111.443 68.7914 111.007C68.6295 110.571 68.5486 110.091 68.5486 109.568V108.017H66.4934V109.568C66.4934 110.091 66.4062 110.571 66.2319 111.007C66.0699 111.443 65.7835 111.791 65.3724 112.053C64.9739 112.315 64.4258 112.445 63.7283 112.445ZM69.8564 101.833V103.421H70.9587C71.6188 103.421 72.0983 103.291 72.3973 103.029C72.6962 102.755 72.8457 102.35 72.8457 101.815C72.8457 101.267 72.6962 100.874 72.3973 100.638C72.1108 100.401 71.7496 100.283 71.3137 100.283C70.8279 100.283 70.4605 100.426 70.2114 100.712C69.9747 100.986 69.8564 101.36 69.8564 101.833ZM64.0833 103.421H65.1856V101.833C65.1856 101.36 65.0611 100.986 64.812 100.712C64.5753 100.426 64.2141 100.283 63.7283 100.283C63.2924 100.283 62.925 100.401 62.626 100.638C62.3396 100.874 62.1963 101.267 62.1963 101.815C62.1963 102.35 62.3458 102.755 62.6447 103.029C62.9436 103.291 63.4232 103.421 64.0833 103.421ZM66.4934 106.747H68.5486V104.692H66.4934V106.747ZM63.7283 111.156C64.2141 111.156 64.5753 111.019 64.812 110.745C65.0611 110.459 65.1856 110.079 65.1856 109.605V108.017H64.0833C63.4232 108.017 62.9436 108.154 62.6447 108.428C62.3458 108.69 62.1963 109.089 62.1963 109.624C62.1963 110.172 62.3396 110.565 62.626 110.801C62.925 111.038 63.2924 111.156 63.7283 111.156ZM69.8564 109.605C69.8564 110.079 69.9747 110.459 70.2114 110.745C70.4605 111.019 70.8279 111.156 71.3137 111.156C71.7496 111.156 72.1108 111.038 72.3973 110.801C72.6962 110.565 72.8457 110.172 72.8457 109.624C72.8457 109.089 72.6962 108.69 72.3973 108.428C72.0983 108.154 71.6188 108.017 70.9587 108.017H69.8564V109.605ZM79.6174 111.399V102.469H81.0747V111.399H79.6174ZM75.8808 107.662V106.205H84.8113V107.662H75.8808ZM87.2703 112.445V99.1803H88.8771V105.775L94.8369 99.1803H96.8734L91.6795 104.935L97.2284 112.445H95.2667L90.5959 106.13L88.8771 108.017V112.445H87.2703ZM107.292 112.445C106.395 112.445 105.729 112.24 105.293 111.829C104.869 111.418 104.658 110.776 104.658 109.904V100.227H106.227V109.867C106.227 110.315 106.327 110.627 106.526 110.801C106.725 110.976 107.03 111.063 107.441 111.063H108.861V112.445H107.292ZM103.2 103.926V102.543H108.861V103.926H103.2ZM114.559 112.67C113.65 112.67 112.853 112.458 112.168 112.034C111.483 111.611 110.953 111.013 110.58 110.241C110.206 109.456 110.019 108.541 110.019 107.494C110.019 106.436 110.206 105.52 110.58 104.748C110.953 103.976 111.483 103.378 112.168 102.954C112.853 102.531 113.65 102.319 114.559 102.319C115.468 102.319 116.259 102.531 116.932 102.954C117.617 103.378 118.146 103.976 118.52 104.748C118.894 105.52 119.081 106.436 119.081 107.494C119.081 108.541 118.894 109.456 118.52 110.241C118.146 111.013 117.617 111.611 116.932 112.034C116.259 112.458 115.468 112.67 114.559 112.67ZM114.559 111.175C115.468 111.175 116.172 110.851 116.67 110.203C117.181 109.543 117.436 108.64 117.436 107.494C117.436 106.348 117.181 105.452 116.67 104.804C116.172 104.144 115.468 103.814 114.559 103.814C113.65 103.814 112.94 104.144 112.429 104.804C111.919 105.452 111.663 106.348 111.663 107.494C111.663 108.64 111.919 109.543 112.429 110.203C112.94 110.851 113.65 111.175 114.559 111.175ZM129.678 112.67C128.794 112.67 128.04 112.526 127.418 112.24C126.807 111.953 126.328 111.561 125.979 111.063C125.643 110.552 125.45 109.973 125.4 109.325L127.044 109.213C127.144 109.811 127.399 110.291 127.81 110.652C128.221 111 128.844 111.175 129.678 111.175C130.351 111.175 130.887 111.069 131.285 110.857C131.696 110.633 131.902 110.278 131.902 109.792C131.902 109.531 131.839 109.313 131.715 109.138C131.59 108.964 131.347 108.815 130.986 108.69C130.625 108.553 130.089 108.422 129.379 108.298C128.433 108.123 127.686 107.912 127.137 107.662C126.602 107.401 126.216 107.083 125.979 106.71C125.755 106.323 125.643 105.869 125.643 105.346C125.643 104.461 125.967 103.739 126.614 103.179C127.262 102.606 128.184 102.319 129.379 102.319C130.189 102.319 130.868 102.469 131.416 102.767C131.976 103.054 132.412 103.44 132.724 103.926C133.048 104.399 133.259 104.922 133.359 105.495L131.715 105.607C131.64 105.259 131.503 104.953 131.304 104.692C131.105 104.418 130.843 104.206 130.519 104.057C130.195 103.895 129.809 103.814 129.361 103.814C128.651 103.814 128.128 103.951 127.791 104.225C127.455 104.499 127.287 104.848 127.287 105.271C127.287 105.595 127.362 105.863 127.511 106.074C127.673 106.274 127.928 106.442 128.277 106.579C128.626 106.703 129.093 106.815 129.678 106.915C130.687 107.09 131.472 107.301 132.032 107.55C132.593 107.799 132.985 108.105 133.209 108.466C133.434 108.827 133.546 109.269 133.546 109.792C133.546 110.403 133.371 110.926 133.023 111.362C132.686 111.785 132.226 112.109 131.64 112.333C131.067 112.557 130.413 112.67 129.678 112.67ZM138.939 112.67C137.955 112.67 137.164 112.339 136.566 111.679C135.98 111.007 135.688 110.085 135.688 108.914V102.543H137.257V108.485C137.257 109.444 137.425 110.154 137.762 110.614C138.11 111.063 138.64 111.287 139.35 111.287C140.134 111.287 140.751 111.038 141.199 110.54C141.648 110.029 141.872 109.331 141.872 108.447V102.543H143.441V112.445H141.947V109.998L142.189 110.129C141.99 110.938 141.61 111.567 141.05 112.016C140.489 112.452 139.786 112.67 138.939 112.67ZM146.434 112.445V102.543H147.873L147.929 105.047L147.705 104.972C147.817 104.424 148.01 103.957 148.284 103.571C148.57 103.172 148.919 102.867 149.33 102.655C149.741 102.431 150.196 102.319 150.694 102.319C151.553 102.319 152.251 102.556 152.786 103.029C153.334 103.502 153.677 104.162 153.814 105.009L153.515 104.991C153.615 104.418 153.795 103.938 154.057 103.552C154.331 103.154 154.68 102.848 155.103 102.637C155.527 102.425 156.012 102.319 156.56 102.319C157.27 102.319 157.868 102.469 158.354 102.767C158.84 103.054 159.207 103.477 159.456 104.038C159.705 104.598 159.83 105.277 159.83 106.074V112.445H158.261V106.411C158.261 105.514 158.086 104.841 157.737 104.393C157.389 103.932 156.872 103.702 156.187 103.702C155.726 103.702 155.321 103.814 154.972 104.038C154.636 104.262 154.374 104.586 154.188 105.009C154.001 105.42 153.907 105.925 153.907 106.523V112.445H152.338V106.523C152.338 105.638 152.182 104.947 151.871 104.449C151.56 103.951 151.036 103.702 150.302 103.702C149.841 103.702 149.436 103.814 149.087 104.038C148.751 104.262 148.483 104.586 148.284 105.009C148.097 105.433 148.004 105.937 148.004 106.523V112.445H146.434ZM162.453 112.445V102.543H163.892L163.948 105.047L163.724 104.972C163.836 104.424 164.029 103.957 164.303 103.571C164.59 103.172 164.938 102.867 165.349 102.655C165.76 102.431 166.215 102.319 166.713 102.319C167.573 102.319 168.27 102.556 168.806 103.029C169.354 103.502 169.696 104.162 169.833 105.009L169.534 104.991C169.634 104.418 169.815 103.938 170.076 103.552C170.35 103.154 170.699 102.848 171.122 102.637C171.546 102.425 172.032 102.319 172.58 102.319C173.29 102.319 173.887 102.469 174.373 102.767C174.859 103.054 175.226 103.477 175.476 104.038C175.725 104.598 175.849 105.277 175.849 106.074V112.445H174.28V106.411C174.28 105.514 174.105 104.841 173.757 104.393C173.408 103.932 172.891 103.702 172.206 103.702C171.745 103.702 171.34 103.814 170.992 104.038C170.655 104.262 170.394 104.586 170.207 105.009C170.02 105.42 169.927 105.925 169.927 106.523V112.445H168.357V106.523C168.357 105.638 168.202 104.947 167.89 104.449C167.579 103.951 167.056 103.702 166.321 103.702C165.86 103.702 165.455 103.814 165.106 104.038C164.77 104.262 164.502 104.586 164.303 105.009C164.116 105.433 164.023 105.937 164.023 106.523V112.445H162.453ZM182.486 112.67C181.577 112.67 180.78 112.458 180.095 112.034C179.41 111.611 178.88 111.013 178.507 110.241C178.133 109.456 177.946 108.541 177.946 107.494C177.946 106.436 178.133 105.52 178.507 104.748C178.88 103.976 179.41 103.378 180.095 102.954C180.78 102.531 181.577 102.319 182.486 102.319C183.395 102.319 184.186 102.531 184.859 102.954C185.544 103.378 186.073 103.976 186.447 104.748C186.821 105.52 187.007 106.436 187.007 107.494C187.007 108.541 186.821 109.456 186.447 110.241C186.073 111.013 185.544 111.611 184.859 112.034C184.186 112.458 183.395 112.67 182.486 112.67ZM182.486 111.175C183.395 111.175 184.099 110.851 184.597 110.203C185.108 109.543 185.363 108.64 185.363 107.494C185.363 106.348 185.108 105.452 184.597 104.804C184.099 104.144 183.395 103.814 182.486 103.814C181.577 103.814 180.867 104.144 180.356 104.804C179.846 105.452 179.59 106.348 179.59 107.494C179.59 108.64 179.846 109.543 180.356 110.203C180.867 110.851 181.577 111.175 182.486 111.175ZM189.146 112.445V102.543H190.585L190.641 105.066L190.454 104.897C190.578 104.312 190.796 103.832 191.108 103.459C191.419 103.073 191.793 102.786 192.229 102.599C192.677 102.413 193.157 102.319 193.667 102.319C194.427 102.319 195.05 102.487 195.536 102.824C196.034 103.16 196.401 103.614 196.638 104.187C196.887 104.748 197.012 105.377 197.012 106.074V112.445H195.442V106.523C195.442 105.912 195.368 105.402 195.218 104.991C195.081 104.567 194.857 104.25 194.546 104.038C194.234 103.814 193.829 103.702 193.331 103.702C192.571 103.702 191.942 103.945 191.444 104.43C190.958 104.904 190.716 105.601 190.716 106.523V112.445H189.146ZM199.255 114.5L204.766 98.433H206.261L200.749 114.5H199.255ZM211.743 112.67C210.884 112.67 210.136 112.458 209.501 112.034C208.878 111.611 208.399 111.013 208.062 110.241C207.726 109.468 207.558 108.553 207.558 107.494C207.558 106.436 207.726 105.52 208.062 104.748C208.399 103.976 208.878 103.378 209.501 102.954C210.136 102.531 210.884 102.319 211.743 102.319C212.403 102.319 213.007 102.462 213.555 102.749C214.103 103.023 214.514 103.415 214.788 103.926V99.1803H216.358V112.445H214.938L214.882 110.951C214.608 111.486 214.19 111.91 213.63 112.221C213.069 112.52 212.44 112.67 211.743 112.67ZM212.061 111.175C212.646 111.175 213.138 111.025 213.537 110.726C213.948 110.428 214.259 110.004 214.471 109.456C214.682 108.896 214.788 108.242 214.788 107.494C214.788 106.722 214.682 106.062 214.471 105.514C214.259 104.966 213.948 104.549 213.537 104.262C213.138 103.963 212.646 103.814 212.061 103.814C211.189 103.814 210.491 104.144 209.968 104.804C209.457 105.452 209.202 106.348 209.202 107.494C209.202 108.628 209.457 109.525 209.968 110.185C210.491 110.845 211.189 111.175 212.061 111.175ZM218.977 112.445V102.543H220.546V112.445H218.977ZM218.94 100.993V99.1617H220.584V100.993H218.94ZM226.962 112.67C226.077 112.67 225.324 112.526 224.701 112.24C224.091 111.953 223.611 111.561 223.262 111.063C222.926 110.552 222.733 109.973 222.683 109.325L224.327 109.213C224.427 109.811 224.682 110.291 225.093 110.652C225.504 111 226.127 111.175 226.962 111.175C227.634 111.175 228.17 111.069 228.568 110.857C228.979 110.633 229.185 110.278 229.185 109.792C229.185 109.531 229.123 109.313 228.998 109.138C228.874 108.964 228.631 108.815 228.269 108.69C227.908 108.553 227.373 108.422 226.663 108.298C225.716 108.123 224.969 107.912 224.421 107.662C223.885 107.401 223.499 107.083 223.262 106.71C223.038 106.323 222.926 105.869 222.926 105.346C222.926 104.461 223.25 103.739 223.898 103.179C224.545 102.606 225.467 102.319 226.663 102.319C227.472 102.319 228.151 102.469 228.699 102.767C229.26 103.054 229.696 103.44 230.007 103.926C230.331 104.399 230.543 104.922 230.642 105.495L228.998 105.607C228.923 105.259 228.786 104.953 228.587 104.692C228.388 104.418 228.126 104.206 227.802 104.057C227.479 103.895 227.092 103.814 226.644 103.814C225.934 103.814 225.411 103.951 225.075 104.225C224.738 104.499 224.57 104.848 224.57 105.271C224.57 105.595 224.645 105.863 224.794 106.074C224.956 106.274 225.212 106.442 225.56 106.579C225.909 106.703 226.376 106.815 226.962 106.915C227.971 107.09 228.755 107.301 229.316 107.55C229.876 107.799 230.269 108.105 230.493 108.466C230.717 108.827 230.829 109.269 230.829 109.792C230.829 110.403 230.655 110.926 230.306 111.362C229.97 111.785 229.509 112.109 228.923 112.333C228.35 112.557 227.697 112.67 226.962 112.67ZM232.971 112.445V102.543H234.41L234.466 105.047L234.241 104.972C234.354 104.424 234.547 103.957 234.821 103.571C235.107 103.172 235.456 102.867 235.867 102.655C236.278 102.431 236.733 102.319 237.231 102.319C238.09 102.319 238.788 102.556 239.323 103.029C239.871 103.502 240.214 104.162 240.351 105.009L240.052 104.991C240.152 104.418 240.332 103.938 240.594 103.552C240.868 103.154 241.216 102.848 241.64 102.637C242.063 102.425 242.549 102.319 243.097 102.319C243.807 102.319 244.405 102.469 244.891 102.767C245.377 103.054 245.744 103.477 245.993 104.038C246.242 104.598 246.367 105.277 246.367 106.074V112.445H244.797V106.411C244.797 105.514 244.623 104.841 244.274 104.393C243.926 103.932 243.409 103.702 242.724 103.702C242.263 103.702 241.858 103.814 241.509 104.038C241.173 104.262 240.911 104.586 240.725 105.009C240.538 105.42 240.444 105.925 240.444 106.523V112.445H238.875V106.523C238.875 105.638 238.719 104.947 238.408 104.449C238.096 103.951 237.573 103.702 236.838 103.702C236.378 103.702 235.973 103.814 235.624 104.038C235.288 104.262 235.02 104.586 234.821 105.009C234.634 105.433 234.54 105.937 234.54 106.523V112.445H232.971ZM249.173 112.445V102.543H250.742V112.445H249.173ZM249.135 100.993V99.1617H250.78V100.993H249.135ZM257.157 112.67C256.273 112.67 255.52 112.526 254.897 112.24C254.286 111.953 253.807 111.561 253.458 111.063C253.122 110.552 252.929 109.973 252.879 109.325L254.523 109.213C254.623 109.811 254.878 110.291 255.289 110.652C255.7 111 256.323 111.175 257.157 111.175C257.83 111.175 258.366 111.069 258.764 110.857C259.175 110.633 259.381 110.278 259.381 109.792C259.381 109.531 259.318 109.313 259.194 109.138C259.069 108.964 258.826 108.815 258.465 108.69C258.104 108.553 257.568 108.422 256.859 108.298C255.912 108.123 255.165 107.912 254.617 107.662C254.081 107.401 253.695 107.083 253.458 106.71C253.234 106.323 253.122 105.869 253.122 105.346C253.122 104.461 253.446 103.739 254.093 103.179C254.741 102.606 255.663 102.319 256.859 102.319C257.668 102.319 258.347 102.469 258.895 102.767C259.455 103.054 259.891 103.44 260.203 103.926C260.527 104.399 260.738 104.922 260.838 105.495L259.194 105.607C259.119 105.259 258.982 104.953 258.783 104.692C258.584 104.418 258.322 104.206 257.998 104.057C257.674 103.895 257.288 103.814 256.84 103.814C256.13 103.814 255.607 103.951 255.27 104.225C254.934 104.499 254.766 104.848 254.766 105.271C254.766 105.595 254.841 105.863 254.99 106.074C255.152 106.274 255.407 106.442 255.756 106.579C256.105 106.703 256.572 106.815 257.157 106.915C258.166 107.09 258.951 107.301 259.512 107.55C260.072 107.799 260.464 108.105 260.689 108.466C260.913 108.827 261.025 109.269 261.025 109.792C261.025 110.403 260.85 110.926 260.502 111.362C260.165 111.785 259.705 112.109 259.119 112.333C258.546 112.557 257.892 112.67 257.157 112.67ZM266.773 112.67C265.888 112.67 265.135 112.526 264.512 112.24C263.902 111.953 263.422 111.561 263.073 111.063C262.737 110.552 262.544 109.973 262.494 109.325L264.138 109.213C264.238 109.811 264.493 110.291 264.904 110.652C265.315 111 265.938 111.175 266.773 111.175C267.445 111.175 267.981 111.069 268.379 110.857C268.79 110.633 268.996 110.278 268.996 109.792C268.996 109.531 268.934 109.313 268.809 109.138C268.685 108.964 268.442 108.815 268.08 108.69C267.719 108.553 267.184 108.422 266.474 108.298C265.527 108.123 264.78 107.912 264.232 107.662C263.696 107.401 263.31 107.083 263.073 106.71C262.849 106.323 262.737 105.869 262.737 105.346C262.737 104.461 263.061 103.739 263.709 103.179C264.356 102.606 265.278 102.319 266.474 102.319C267.283 102.319 267.962 102.469 268.51 102.767C269.071 103.054 269.507 103.44 269.818 103.926C270.142 104.399 270.354 104.922 270.453 105.495L268.809 105.607C268.734 105.259 268.597 104.953 268.398 104.692C268.199 104.418 267.937 104.206 267.613 104.057C267.29 103.895 266.903 103.814 266.455 103.814C265.745 103.814 265.222 103.951 264.886 104.225C264.549 104.499 264.381 104.848 264.381 105.271C264.381 105.595 264.456 105.863 264.605 106.074C264.767 106.274 265.023 106.442 265.371 106.579C265.72 106.703 266.187 106.815 266.773 106.915C267.782 107.09 268.566 107.301 269.127 107.55C269.687 107.799 270.08 108.105 270.304 108.466C270.528 108.827 270.64 109.269 270.64 109.792C270.64 110.403 270.466 110.926 270.117 111.362C269.781 111.785 269.32 112.109 268.734 112.333C268.161 112.557 267.508 112.67 266.773 112.67ZM276.514 112.445L281.297 99.1803H283.464L288.247 112.445H286.491L285.165 108.671H279.597L278.27 112.445H276.514ZM280.139 107.102H284.623L282.381 100.582L280.139 107.102ZM289.974 112.445V99.1803H291.581V112.445H289.974ZM302.969 112.67C302.109 112.67 301.362 112.458 300.727 112.034C300.104 111.611 299.625 111.013 299.288 110.241C298.952 109.468 298.784 108.553 298.784 107.494C298.784 106.436 298.952 105.52 299.288 104.748C299.625 103.976 300.104 103.378 300.727 102.954C301.362 102.531 302.109 102.319 302.969 102.319C303.629 102.319 304.233 102.462 304.781 102.749C305.329 103.023 305.74 103.415 306.014 103.926V99.1803H307.584V112.445H306.164L306.108 110.951C305.834 111.486 305.416 111.91 304.856 112.221C304.295 112.52 303.666 112.67 302.969 112.67ZM303.286 111.175C303.872 111.175 304.364 111.025 304.762 110.726C305.173 110.428 305.485 110.004 305.697 109.456C305.908 108.896 306.014 108.242 306.014 107.494C306.014 106.722 305.908 106.062 305.697 105.514C305.485 104.966 305.173 104.549 304.762 104.262C304.364 103.963 303.872 103.814 303.286 103.814C302.415 103.814 301.717 104.144 301.194 104.804C300.683 105.452 300.428 106.348 300.428 107.494C300.428 108.628 300.683 109.525 301.194 110.185C301.717 110.845 302.415 111.175 303.286 111.175ZM310.203 112.445V102.543H311.772V112.445H310.203ZM310.166 100.993V99.1617H311.81V100.993H310.166ZM317.253 112.67C316.232 112.67 315.416 112.433 314.806 111.96C314.208 111.486 313.909 110.826 313.909 109.979C313.909 109.132 314.158 108.466 314.656 107.98C315.155 107.494 315.946 107.152 317.029 106.952L320.542 106.299C320.542 105.464 320.342 104.841 319.944 104.43C319.558 104.019 318.972 103.814 318.188 103.814C317.502 103.814 316.961 103.969 316.562 104.281C316.164 104.58 315.89 105.016 315.74 105.589L314.077 105.458C314.264 104.524 314.712 103.77 315.422 103.197C316.145 102.612 317.067 102.319 318.188 102.319C319.458 102.319 320.43 102.68 321.102 103.403C321.775 104.113 322.111 105.097 322.111 106.355V110.446C322.111 110.67 322.148 110.832 322.223 110.932C322.31 111.019 322.447 111.063 322.634 111.063H323.026V112.445C322.977 112.458 322.896 112.464 322.784 112.464C322.671 112.476 322.553 112.483 322.429 112.483C321.98 112.483 321.613 112.414 321.326 112.277C321.052 112.128 320.853 111.904 320.728 111.605C320.604 111.293 320.542 110.888 320.542 110.39L320.728 110.428C320.641 110.851 320.43 111.237 320.093 111.586C319.757 111.922 319.34 112.19 318.841 112.389C318.343 112.576 317.814 112.67 317.253 112.67ZM317.403 111.287C318.063 111.287 318.623 111.162 319.084 110.913C319.558 110.652 319.919 110.303 320.168 109.867C320.417 109.419 320.542 108.92 320.542 108.372V107.662L317.328 108.26C316.656 108.385 316.188 108.578 315.927 108.839C315.678 109.089 315.553 109.419 315.553 109.83C315.553 110.291 315.715 110.652 316.039 110.913C316.375 111.162 316.83 111.287 317.403 111.287ZM326.633 112.445C326.06 112.445 325.593 112.296 325.231 111.997C324.87 111.698 324.69 111.225 324.69 110.577V99.1803H326.259V110.446C326.259 110.646 326.309 110.801 326.408 110.913C326.521 111.013 326.676 111.063 326.875 111.063H327.735V112.445H326.633ZM333.428 112.67C332.519 112.67 331.722 112.458 331.037 112.034C330.352 111.611 329.823 111.013 329.449 110.241C329.075 109.456 328.888 108.541 328.888 107.494C328.888 106.436 329.075 105.52 329.449 104.748C329.823 103.976 330.352 103.378 331.037 102.954C331.722 102.531 332.519 102.319 333.428 102.319C334.338 102.319 335.129 102.531 335.801 102.954C336.486 103.378 337.016 103.976 337.389 104.748C337.763 105.52 337.95 106.436 337.95 107.494C337.95 108.541 337.763 109.456 337.389 110.241C337.016 111.013 336.486 111.611 335.801 112.034C335.129 112.458 334.338 112.67 333.428 112.67ZM333.428 111.175C334.338 111.175 335.041 110.851 335.54 110.203C336.05 109.543 336.306 108.64 336.306 107.494C336.306 106.348 336.05 105.452 335.54 104.804C335.041 104.144 334.338 103.814 333.428 103.814C332.519 103.814 331.809 104.144 331.299 104.804C330.788 105.452 330.533 106.348 330.533 107.494C330.533 108.64 330.788 109.543 331.299 110.203C331.809 110.851 332.519 111.175 333.428 111.175ZM343.844 115.472C343.134 115.472 342.492 115.354 341.919 115.117C341.346 114.88 340.867 114.544 340.481 114.108C340.095 113.672 339.833 113.168 339.696 112.595L341.34 112.483C341.49 112.944 341.751 113.305 342.125 113.566C342.511 113.84 343.084 113.977 343.844 113.977C344.741 113.977 345.426 113.797 345.899 113.436C346.385 113.074 346.628 112.533 346.628 111.81V110.203C346.391 110.726 346.011 111.144 345.488 111.455C344.965 111.766 344.379 111.922 343.732 111.922C342.897 111.922 342.15 111.717 341.49 111.306C340.842 110.895 340.331 110.328 339.958 109.605C339.596 108.883 339.416 108.055 339.416 107.121C339.416 106.174 339.596 105.346 339.958 104.636C340.319 103.913 340.817 103.347 341.452 102.936C342.1 102.525 342.835 102.319 343.657 102.319C344.354 102.319 344.977 102.481 345.525 102.805C346.086 103.129 346.478 103.565 346.702 104.113V102.543H348.197V111.773C348.197 112.545 348.023 113.205 347.674 113.753C347.325 114.314 346.827 114.737 346.179 115.024C345.531 115.323 344.753 115.472 343.844 115.472ZM343.806 110.428C344.653 110.428 345.332 110.135 345.843 109.549C346.354 108.952 346.615 108.142 346.628 107.121C346.64 106.436 346.528 105.85 346.291 105.364C346.067 104.866 345.737 104.486 345.301 104.225C344.878 103.951 344.379 103.814 343.806 103.814C342.935 103.814 342.256 104.113 341.77 104.711C341.297 105.296 341.06 106.099 341.06 107.121C341.06 108.142 341.303 108.952 341.789 109.549C342.287 110.135 342.959 110.428 343.806 110.428ZM350.565 115.36L351.462 112.445H350.509V110.334H352.62V112.184L351.499 115.36H350.565ZM369.924 113.716C369.301 113.977 368.647 114.17 367.962 114.295C367.277 114.432 366.548 114.5 365.776 114.5C364.344 114.5 363.117 114.233 362.096 113.697C361.087 113.174 360.308 112.408 359.76 111.399C359.225 110.39 358.957 109.182 358.957 107.775C358.957 106.504 359.156 105.346 359.555 104.299C359.953 103.253 360.52 102.35 361.255 101.59C362.002 100.818 362.88 100.227 363.889 99.8156C364.898 99.3921 366.013 99.1803 367.234 99.1803C368.641 99.1803 369.868 99.4544 370.914 100.002C371.96 100.55 372.77 101.323 373.343 102.319C373.916 103.316 374.202 104.493 374.202 105.85C374.202 106.847 374.053 107.725 373.754 108.485C373.455 109.244 373.044 109.842 372.521 110.278C371.998 110.702 371.394 110.913 370.709 110.913C370.136 110.913 369.662 110.745 369.289 110.409C368.927 110.073 368.728 109.618 368.691 109.045L368.971 108.97C368.822 109.331 368.585 109.668 368.261 109.979C367.937 110.291 367.57 110.54 367.159 110.726C366.748 110.901 366.324 110.988 365.888 110.988C365.153 110.988 364.531 110.845 364.02 110.558C363.522 110.272 363.142 109.873 362.88 109.363C362.619 108.852 362.488 108.26 362.488 107.588C362.488 106.753 362.65 105.993 362.974 105.308C363.31 104.623 363.771 104.082 364.356 103.683C364.954 103.272 365.652 103.066 366.449 103.066C367.109 103.066 367.669 103.216 368.13 103.515C368.604 103.801 368.903 104.181 369.027 104.654L368.84 104.841L368.971 103.104H370.335L370.036 107.027C370.024 107.301 369.999 107.613 369.961 107.961C369.936 108.31 369.924 108.597 369.924 108.821C369.924 109.095 369.999 109.307 370.148 109.456C370.298 109.605 370.522 109.68 370.821 109.68C371.456 109.68 371.954 109.344 372.315 108.671C372.677 107.999 372.857 107.077 372.857 105.906C372.857 104.748 372.639 103.764 372.203 102.954C371.767 102.145 371.126 101.534 370.279 101.123C369.444 100.7 368.417 100.488 367.196 100.488C366.175 100.488 365.241 100.663 364.394 101.011C363.547 101.36 362.818 101.858 362.208 102.506C361.597 103.141 361.124 103.901 360.788 104.785C360.464 105.67 360.302 106.654 360.302 107.737C360.302 108.896 360.514 109.886 360.937 110.708C361.373 111.517 362.002 112.134 362.824 112.557C363.646 112.981 364.643 113.193 365.814 113.193C366.486 113.193 367.146 113.124 367.794 112.987C368.454 112.863 369.058 112.682 369.606 112.445L369.924 113.716ZM366.075 109.755C366.698 109.755 367.202 109.605 367.588 109.307C367.987 108.995 368.28 108.603 368.467 108.13C368.666 107.644 368.766 107.146 368.766 106.635C368.766 106.199 368.691 105.807 368.541 105.458C368.404 105.097 368.174 104.816 367.85 104.617C367.539 104.405 367.121 104.299 366.598 104.299C366.038 104.299 365.564 104.449 365.178 104.748C364.805 105.034 364.518 105.42 364.319 105.906C364.12 106.38 364.02 106.903 364.02 107.476C364.02 108.123 364.169 108.665 364.468 109.101C364.78 109.537 365.315 109.755 366.075 109.755ZM384.838 112.445C383.941 112.445 383.274 112.24 382.839 111.829C382.415 111.418 382.203 110.776 382.203 109.904V100.227H383.773V109.867C383.773 110.315 383.872 110.627 384.072 110.801C384.271 110.976 384.576 111.063 384.987 111.063H386.407V112.445H384.838ZM380.746 103.926V102.543H386.407V103.926H380.746ZM392.105 112.67C391.196 112.67 390.399 112.458 389.713 112.034C389.028 111.611 388.499 111.013 388.125 110.241C387.752 109.456 387.565 108.541 387.565 107.494C387.565 106.436 387.752 105.52 388.125 104.748C388.499 103.976 389.028 103.378 389.713 102.954C390.399 102.531 391.196 102.319 392.105 102.319C393.014 102.319 393.805 102.531 394.478 102.954C395.163 103.378 395.692 103.976 396.066 104.748C396.439 105.52 396.626 106.436 396.626 107.494C396.626 108.541 396.439 109.456 396.066 110.241C395.692 111.013 395.163 111.611 394.478 112.034C393.805 112.458 393.014 112.67 392.105 112.67ZM392.105 111.175C393.014 111.175 393.718 110.851 394.216 110.203C394.727 109.543 394.982 108.64 394.982 107.494C394.982 106.348 394.727 105.452 394.216 104.804C393.718 104.144 393.014 103.814 392.105 103.814C391.196 103.814 390.486 104.144 389.975 104.804C389.464 105.452 389.209 106.348 389.209 107.494C389.209 108.64 389.464 109.543 389.975 110.203C390.486 110.851 391.196 111.175 392.105 111.175ZM407.224 112.67C406.34 112.67 405.586 112.526 404.963 112.24C404.353 111.953 403.874 111.561 403.525 111.063C403.188 110.552 402.995 109.973 402.946 109.325L404.59 109.213C404.689 109.811 404.945 110.291 405.356 110.652C405.767 111 406.39 111.175 407.224 111.175C407.897 111.175 408.432 111.069 408.831 110.857C409.242 110.633 409.447 110.278 409.447 109.792C409.447 109.531 409.385 109.313 409.26 109.138C409.136 108.964 408.893 108.815 408.532 108.69C408.171 108.553 407.635 108.422 406.925 108.298C405.978 108.123 405.231 107.912 404.683 107.662C404.148 107.401 403.761 107.083 403.525 106.71C403.301 106.323 403.188 105.869 403.188 105.346C403.188 104.461 403.512 103.739 404.16 103.179C404.808 102.606 405.729 102.319 406.925 102.319C407.735 102.319 408.413 102.469 408.962 102.767C409.522 103.054 409.958 103.44 410.269 103.926C410.593 104.399 410.805 104.922 410.905 105.495L409.26 105.607C409.186 105.259 409.049 104.953 408.849 104.692C408.65 104.418 408.389 104.206 408.065 104.057C407.741 103.895 407.355 103.814 406.906 103.814C406.196 103.814 405.673 103.951 405.337 104.225C405.001 104.499 404.833 104.848 404.833 105.271C404.833 105.595 404.907 105.863 405.057 106.074C405.219 106.274 405.474 106.442 405.823 106.579C406.172 106.703 406.639 106.815 407.224 106.915C408.233 107.09 409.018 107.301 409.578 107.55C410.139 107.799 410.531 108.105 410.755 108.466C410.979 108.827 411.091 109.269 411.091 109.792C411.091 110.403 410.917 110.926 410.568 111.362C410.232 111.785 409.771 112.109 409.186 112.333C408.613 112.557 407.959 112.67 407.224 112.67ZM417.101 112.67C416.167 112.67 415.357 112.458 414.672 112.034C413.999 111.611 413.476 111.013 413.103 110.241C412.741 109.456 412.561 108.541 412.561 107.494C412.561 106.448 412.741 105.539 413.103 104.767C413.476 103.994 413.993 103.396 414.653 102.973C415.326 102.537 416.117 102.319 417.026 102.319C417.885 102.319 418.645 102.525 419.305 102.936C419.966 103.334 420.476 103.92 420.837 104.692C421.211 105.464 421.398 106.404 421.398 107.513V107.98H414.205C414.267 109.039 414.547 109.836 415.046 110.371C415.556 110.907 416.241 111.175 417.101 111.175C417.748 111.175 418.278 111.025 418.689 110.726C419.112 110.415 419.405 110.01 419.567 109.512L421.248 109.643C420.987 110.527 420.489 111.256 419.754 111.829C419.031 112.389 418.147 112.67 417.101 112.67ZM414.205 106.598H419.679C419.604 105.638 419.324 104.935 418.838 104.486C418.365 104.038 417.761 103.814 417.026 103.814C416.266 103.814 415.637 104.05 415.139 104.524C414.653 104.985 414.342 105.676 414.205 106.598ZM425.558 112.445C424.985 112.445 424.518 112.296 424.157 111.997C423.795 111.698 423.615 111.225 423.615 110.577V99.1803H425.184V110.446C425.184 110.646 425.234 110.801 425.334 110.913C425.446 111.013 425.602 111.063 425.801 111.063H426.66V112.445H425.558ZM432.354 112.67C431.42 112.67 430.61 112.458 429.925 112.034C429.252 111.611 428.729 111.013 428.356 110.241C427.994 109.456 427.814 108.541 427.814 107.494C427.814 106.448 427.994 105.539 428.356 104.767C428.729 103.994 429.246 103.396 429.906 102.973C430.579 102.537 431.37 102.319 432.279 102.319C433.138 102.319 433.898 102.525 434.558 102.936C435.219 103.334 435.729 103.92 436.09 104.692C436.464 105.464 436.651 106.404 436.651 107.513V107.98H429.458C429.52 109.039 429.8 109.836 430.299 110.371C430.809 110.907 431.494 111.175 432.354 111.175C433.001 111.175 433.531 111.025 433.942 110.726C434.365 110.415 434.658 110.01 434.82 109.512L436.501 109.643C436.24 110.527 435.742 111.256 435.007 111.829C434.284 112.389 433.4 112.67 432.354 112.67ZM429.458 106.598H434.932C434.857 105.638 434.577 104.935 434.091 104.486C433.618 104.038 433.014 103.814 432.279 103.814C431.519 103.814 430.89 104.05 430.392 104.524C429.906 104.985 429.595 105.676 429.458 106.598ZM442.644 112.67C441.722 112.67 440.919 112.458 440.234 112.034C439.561 111.611 439.038 111.013 438.665 110.241C438.291 109.456 438.104 108.541 438.104 107.494C438.104 106.448 438.291 105.539 438.665 104.767C439.038 103.994 439.561 103.396 440.234 102.973C440.919 102.537 441.722 102.319 442.644 102.319C443.404 102.319 444.076 102.456 444.662 102.73C445.26 102.992 445.745 103.378 446.119 103.888C446.493 104.399 446.736 105.022 446.848 105.757L445.204 105.869C445.092 105.209 444.805 104.704 444.344 104.356C443.883 103.994 443.317 103.814 442.644 103.814C441.735 103.814 441.025 104.144 440.514 104.804C440.003 105.452 439.748 106.348 439.748 107.494C439.748 108.64 440.003 109.543 440.514 110.203C441.025 110.851 441.735 111.175 442.644 111.175C443.317 111.175 443.883 110.988 444.344 110.614C444.805 110.241 445.092 109.68 445.204 108.933L446.848 109.045C446.736 109.78 446.493 110.421 446.119 110.969C445.745 111.505 445.26 111.922 444.662 112.221C444.076 112.52 443.404 112.67 442.644 112.67ZM452.035 112.445C451.138 112.445 450.471 112.24 450.036 111.829C449.612 111.418 449.4 110.776 449.4 109.904V100.227H450.97V109.867C450.97 110.315 451.069 110.627 451.269 110.801C451.468 110.976 451.773 111.063 452.184 111.063H453.604V112.445H452.035ZM447.943 103.926V102.543H453.604V103.926H447.943ZM464.022 112.445C463.125 112.445 462.459 112.24 462.023 111.829C461.599 111.418 461.387 110.776 461.387 109.904V100.227H462.957V109.867C462.957 110.315 463.056 110.627 463.256 110.801C463.455 110.976 463.76 111.063 464.171 111.063H465.591V112.445H464.022ZM459.93 103.926V102.543H465.591V103.926H459.93ZM470.203 112.67C469.181 112.67 468.366 112.433 467.755 111.96C467.157 111.486 466.858 110.826 466.858 109.979C466.858 109.132 467.108 108.466 467.606 107.98C468.104 107.494 468.895 107.152 469.979 106.952L473.491 106.299C473.491 105.464 473.292 104.841 472.893 104.43C472.507 104.019 471.922 103.814 471.137 103.814C470.452 103.814 469.91 103.969 469.511 104.281C469.113 104.58 468.839 105.016 468.689 105.589L467.027 105.458C467.213 104.524 467.662 103.77 468.372 103.197C469.094 102.612 470.016 102.319 471.137 102.319C472.407 102.319 473.379 102.68 474.051 103.403C474.724 104.113 475.06 105.097 475.06 106.355V110.446C475.06 110.67 475.098 110.832 475.172 110.932C475.26 111.019 475.397 111.063 475.583 111.063H475.976V112.445C475.926 112.458 475.845 112.464 475.733 112.464C475.621 112.476 475.502 112.483 475.378 112.483C474.93 112.483 474.562 112.414 474.276 112.277C474.002 112.128 473.802 111.904 473.678 111.605C473.553 111.293 473.491 110.888 473.491 110.39L473.678 110.428C473.591 110.851 473.379 111.237 473.043 111.586C472.706 111.922 472.289 112.19 471.791 112.389C471.293 112.576 470.763 112.67 470.203 112.67ZM470.352 111.287C471.012 111.287 471.573 111.162 472.034 110.913C472.507 110.652 472.868 110.303 473.117 109.867C473.366 109.419 473.491 108.92 473.491 108.372V107.662L470.277 108.26C469.605 108.385 469.138 108.578 468.876 108.839C468.627 109.089 468.503 109.419 468.503 109.83C468.503 110.291 468.664 110.652 468.988 110.913C469.325 111.162 469.779 111.287 470.352 111.287ZM482.215 112.67C481.53 112.67 480.92 112.52 480.384 112.221C479.849 111.91 479.438 111.486 479.151 110.951L479.095 112.445H477.675V99.1803H479.245V103.926C479.494 103.515 479.88 103.147 480.403 102.824C480.926 102.487 481.53 102.319 482.215 102.319C483.087 102.319 483.841 102.531 484.476 102.954C485.111 103.378 485.603 103.976 485.952 104.748C486.301 105.52 486.475 106.436 486.475 107.494C486.475 108.553 486.301 109.468 485.952 110.241C485.603 111.013 485.111 111.611 484.476 112.034C483.841 112.458 483.087 112.67 482.215 112.67ZM482.122 111.175C482.956 111.175 483.617 110.845 484.102 110.185C484.588 109.525 484.831 108.628 484.831 107.494C484.831 106.348 484.588 105.452 484.102 104.804C483.617 104.144 482.969 103.814 482.159 103.814C481.549 103.814 481.026 103.963 480.59 104.262C480.154 104.549 479.818 104.966 479.581 105.514C479.357 106.062 479.245 106.722 479.245 107.494C479.245 108.242 479.357 108.896 479.581 109.456C479.818 110.004 480.148 110.428 480.571 110.726C481.007 111.025 481.524 111.175 482.122 111.175ZM490.638 112.445C490.066 112.445 489.598 112.296 489.237 111.997C488.876 111.698 488.695 111.225 488.695 110.577V99.1803H490.265V110.446C490.265 110.646 490.315 110.801 490.414 110.913C490.526 111.013 490.682 111.063 490.881 111.063H491.741V112.445H490.638ZM497.434 112.67C496.5 112.67 495.691 112.458 495.006 112.034C494.333 111.611 493.81 111.013 493.436 110.241C493.075 109.456 492.894 108.541 492.894 107.494C492.894 106.448 493.075 105.539 493.436 104.767C493.81 103.994 494.327 103.396 494.987 102.973C495.659 102.537 496.45 102.319 497.36 102.319C498.219 102.319 498.979 102.525 499.639 102.936C500.299 103.334 500.81 103.92 501.171 104.692C501.545 105.464 501.731 106.404 501.731 107.513V107.98H494.538C494.601 109.039 494.881 109.836 495.379 110.371C495.89 110.907 496.575 111.175 497.434 111.175C498.082 111.175 498.611 111.025 499.022 110.726C499.446 110.415 499.739 110.01 499.9 109.512L501.582 109.643C501.32 110.527 500.822 111.256 500.087 111.829C499.365 112.389 498.481 112.67 497.434 112.67ZM494.538 106.598H500.013C499.938 105.638 499.658 104.935 499.172 104.486C498.699 104.038 498.094 103.814 497.36 103.814C496.6 103.814 495.971 104.05 495.473 104.524C494.987 104.985 494.675 105.676 494.538 106.598ZM509.682 112.445V101.647C509.682 100.912 509.894 100.32 510.317 99.8716C510.741 99.4108 511.401 99.1803 512.298 99.1803H513.867V100.563H512.41C512.024 100.563 511.731 100.669 511.532 100.88C511.345 101.092 511.251 101.385 511.251 101.759V112.445H509.682ZM508.337 103.926V102.543H513.736V103.926H508.337ZM519.128 112.67C518.219 112.67 517.421 112.458 516.736 112.034C516.051 111.611 515.522 111.013 515.148 110.241C514.775 109.456 514.588 108.541 514.588 107.494C514.588 106.436 514.775 105.52 515.148 104.748C515.522 103.976 516.051 103.378 516.736 102.954C517.421 102.531 518.219 102.319 519.128 102.319C520.037 102.319 520.828 102.531 521.501 102.954C522.186 103.378 522.715 103.976 523.089 104.748C523.462 105.52 523.649 106.436 523.649 107.494C523.649 108.541 523.462 109.456 523.089 110.241C522.715 111.013 522.186 111.611 521.501 112.034C520.828 112.458 520.037 112.67 519.128 112.67ZM519.128 111.175C520.037 111.175 520.741 110.851 521.239 110.203C521.75 109.543 522.005 108.64 522.005 107.494C522.005 106.348 521.75 105.452 521.239 104.804C520.741 104.144 520.037 103.814 519.128 103.814C518.219 103.814 517.509 104.144 516.998 104.804C516.487 105.452 516.232 106.348 516.232 107.494C516.232 108.64 516.487 109.543 516.998 110.203C517.509 110.851 518.219 111.175 519.128 111.175ZM525.788 112.445V102.543H527.17L527.245 105.047L527.096 104.991C527.22 104.144 527.488 103.527 527.899 103.141C528.323 102.743 528.883 102.543 529.581 102.543H530.552V104.038H529.599C529.101 104.038 528.684 104.131 528.347 104.318C528.024 104.493 527.775 104.76 527.6 105.122C527.438 105.47 527.357 105.919 527.357 106.467V112.445H525.788ZM541.05 112.67C540.191 112.67 539.443 112.458 538.808 112.034C538.185 111.611 537.706 111.013 537.37 110.241C537.033 109.468 536.865 108.553 536.865 107.494C536.865 106.436 537.033 105.52 537.37 104.748C537.706 103.976 538.185 103.378 538.808 102.954C539.443 102.531 540.191 102.319 541.05 102.319C541.71 102.319 542.314 102.462 542.862 102.749C543.411 103.023 543.822 103.415 544.096 103.926V99.1803H545.665V112.445H544.245L544.189 110.951C543.915 111.486 543.498 111.91 542.937 112.221C542.377 112.52 541.748 112.67 541.05 112.67ZM541.368 111.175C541.953 111.175 542.445 111.025 542.844 110.726C543.255 110.428 543.566 110.004 543.778 109.456C543.99 108.896 544.096 108.242 544.096 107.494C544.096 106.722 543.99 106.062 543.778 105.514C543.566 104.966 543.255 104.549 542.844 104.262C542.445 103.963 541.953 103.814 541.368 103.814C540.496 103.814 539.798 104.144 539.275 104.804C538.765 105.452 538.509 106.348 538.509 107.494C538.509 108.628 538.765 109.525 539.275 110.185C539.798 110.845 540.496 111.175 541.368 111.175ZM551.138 112.67C550.117 112.67 549.301 112.433 548.691 111.96C548.093 111.486 547.794 110.826 547.794 109.979C547.794 109.132 548.043 108.466 548.541 107.98C549.04 107.494 549.831 107.152 550.914 106.952L554.427 106.299C554.427 105.464 554.227 104.841 553.829 104.43C553.443 104.019 552.857 103.814 552.072 103.814C551.387 103.814 550.846 103.969 550.447 104.281C550.048 104.58 549.774 105.016 549.625 105.589L547.962 105.458C548.149 104.524 548.597 103.77 549.307 103.197C550.03 102.612 550.952 102.319 552.072 102.319C553.343 102.319 554.314 102.68 554.987 103.403C555.66 104.113 555.996 105.097 555.996 106.355V110.446C555.996 110.67 556.033 110.832 556.108 110.932C556.195 111.019 556.332 111.063 556.519 111.063H556.911V112.445C556.862 112.458 556.781 112.464 556.669 112.464C556.556 112.476 556.438 112.483 556.314 112.483C555.865 112.483 555.498 112.414 555.211 112.277C554.937 112.128 554.738 111.904 554.613 111.605C554.489 111.293 554.427 110.888 554.427 110.39L554.613 110.428C554.526 110.851 554.314 111.237 553.978 111.586C553.642 111.922 553.225 112.19 552.726 112.389C552.228 112.576 551.699 112.67 551.138 112.67ZM551.288 111.287C551.948 111.287 552.508 111.162 552.969 110.913C553.443 110.652 553.804 110.303 554.053 109.867C554.302 109.419 554.427 108.92 554.427 108.372V107.662L551.213 108.26C550.54 108.385 550.073 108.578 549.812 108.839C549.563 109.089 549.438 109.419 549.438 109.83C549.438 110.291 549.6 110.652 549.924 110.913C550.26 111.162 550.715 111.287 551.288 111.287ZM561.816 112.445C560.919 112.445 560.253 112.24 559.817 111.829C559.393 111.418 559.182 110.776 559.182 109.904V100.227H560.751V109.867C560.751 110.315 560.851 110.627 561.05 110.801C561.249 110.976 561.554 111.063 561.965 111.063H563.385V112.445H561.816ZM557.724 103.926V102.543H563.385V103.926H557.724ZM567.997 112.67C566.976 112.67 566.16 112.433 565.549 111.96C564.952 111.486 564.653 110.826 564.653 109.979C564.653 109.132 564.902 108.466 565.4 107.98C565.898 107.494 566.689 107.152 567.773 106.952L571.285 106.299C571.285 105.464 571.086 104.841 570.687 104.43C570.301 104.019 569.716 103.814 568.931 103.814C568.246 103.814 567.704 103.969 567.306 104.281C566.907 104.58 566.633 105.016 566.484 105.589L564.821 105.458C565.008 104.524 565.456 103.77 566.166 103.197C566.888 102.612 567.81 102.319 568.931 102.319C570.201 102.319 571.173 102.68 571.846 103.403C572.518 104.113 572.854 105.097 572.854 106.355V110.446C572.854 110.67 572.892 110.832 572.967 110.932C573.054 111.019 573.191 111.063 573.378 111.063H573.77V112.445C573.72 112.458 573.639 112.464 573.527 112.464C573.415 112.476 573.297 112.483 573.172 112.483C572.724 112.483 572.356 112.414 572.07 112.277C571.796 112.128 571.596 111.904 571.472 111.605C571.347 111.293 571.285 110.888 571.285 110.39L571.472 110.428C571.385 110.851 571.173 111.237 570.837 111.586C570.5 111.922 570.083 112.19 569.585 112.389C569.087 112.576 568.557 112.67 567.997 112.67ZM568.146 111.287C568.806 111.287 569.367 111.162 569.828 110.913C570.301 110.652 570.662 110.303 570.911 109.867C571.161 109.419 571.285 108.92 571.285 108.372V107.662L568.072 108.26C567.399 108.385 566.932 108.578 566.67 108.839C566.421 109.089 566.297 109.419 566.297 109.83C566.297 110.291 566.459 110.652 566.782 110.913C567.119 111.162 567.573 111.287 568.146 111.287ZM580.009 112.67C579.324 112.67 578.714 112.52 578.179 112.221C577.643 111.91 577.232 111.486 576.945 110.951L576.889 112.445H575.469V99.1803H577.039V103.926C577.288 103.515 577.674 103.147 578.197 102.824C578.72 102.487 579.324 102.319 580.009 102.319C580.881 102.319 581.635 102.531 582.27 102.954C582.905 103.378 583.397 103.976 583.746 104.748C584.095 105.52 584.269 106.436 584.269 107.494C584.269 108.553 584.095 109.468 583.746 110.241C583.397 111.013 582.905 111.611 582.27 112.034C581.635 112.458 580.881 112.67 580.009 112.67ZM579.916 111.175C580.751 111.175 581.411 110.845 581.896 110.185C582.382 109.525 582.625 108.628 582.625 107.494C582.625 106.348 582.382 105.452 581.896 104.804C581.411 104.144 580.763 103.814 579.953 103.814C579.343 103.814 578.82 103.963 578.384 104.262C577.948 104.549 577.612 104.966 577.375 105.514C577.151 106.062 577.039 106.722 577.039 107.494C577.039 108.242 577.151 108.896 577.375 109.456C577.612 110.004 577.942 110.428 578.365 110.726C578.801 111.025 579.318 111.175 579.916 111.175ZM589.326 112.67C588.304 112.67 587.488 112.433 586.878 111.96C586.28 111.486 585.981 110.826 585.981 109.979C585.981 109.132 586.23 108.466 586.729 107.98C587.227 107.494 588.018 107.152 589.101 106.952L592.614 106.299C592.614 105.464 592.414 104.841 592.016 104.43C591.63 104.019 591.044 103.814 590.26 103.814C589.575 103.814 589.033 103.969 588.634 104.281C588.236 104.58 587.962 105.016 587.812 105.589L586.149 105.458C586.336 104.524 586.785 103.77 587.495 103.197C588.217 102.612 589.139 102.319 590.26 102.319C591.53 102.319 592.502 102.68 593.174 103.403C593.847 104.113 594.183 105.097 594.183 106.355V110.446C594.183 110.67 594.22 110.832 594.295 110.932C594.382 111.019 594.519 111.063 594.706 111.063H595.099V112.445C595.049 112.458 594.968 112.464 594.856 112.464C594.744 112.476 594.625 112.483 594.501 112.483C594.052 112.483 593.685 112.414 593.398 112.277C593.124 112.128 592.925 111.904 592.801 111.605C592.676 111.293 592.614 110.888 592.614 110.39L592.801 110.428C592.713 110.851 592.502 111.237 592.165 111.586C591.829 111.922 591.412 112.19 590.914 112.389C590.415 112.576 589.886 112.67 589.326 112.67ZM589.475 111.287C590.135 111.287 590.696 111.162 591.156 110.913C591.63 110.652 591.991 110.303 592.24 109.867C592.489 109.419 592.614 108.92 592.614 108.372V107.662L589.4 108.26C588.728 108.385 588.261 108.578 587.999 108.839C587.75 109.089 587.625 109.419 587.625 109.83C587.625 110.291 587.787 110.652 588.111 110.913C588.447 111.162 588.902 111.287 589.475 111.287ZM600.44 112.67C599.556 112.67 598.803 112.526 598.18 112.24C597.569 111.953 597.09 111.561 596.741 111.063C596.405 110.552 596.212 109.973 596.162 109.325L597.806 109.213C597.906 109.811 598.161 110.291 598.572 110.652C598.983 111 599.606 111.175 600.44 111.175C601.113 111.175 601.649 111.069 602.047 110.857C602.458 110.633 602.664 110.278 602.664 109.792C602.664 109.531 602.601 109.313 602.477 109.138C602.352 108.964 602.109 108.815 601.748 108.69C601.387 108.553 600.851 108.422 600.142 108.298C599.195 108.123 598.448 107.912 597.9 107.662C597.364 107.401 596.978 107.083 596.741 106.71C596.517 106.323 596.405 105.869 596.405 105.346C596.405 104.461 596.729 103.739 597.376 103.179C598.024 102.606 598.946 102.319 600.142 102.319C600.951 102.319 601.63 102.469 602.178 102.767C602.738 103.054 603.174 103.44 603.486 103.926C603.81 104.399 604.021 104.922 604.121 105.495L602.477 105.607C602.402 105.259 602.265 104.953 602.066 104.692C601.867 104.418 601.605 104.206 601.281 104.057C600.957 103.895 600.571 103.814 600.123 103.814C599.413 103.814 598.89 103.951 598.553 104.225C598.217 104.499 598.049 104.848 598.049 105.271C598.049 105.595 598.124 105.863 598.273 106.074C598.435 106.274 598.69 106.442 599.039 106.579C599.388 106.703 599.855 106.815 600.44 106.915C601.449 107.09 602.234 107.301 602.795 107.55C603.355 107.799 603.747 108.105 603.972 108.466C604.196 108.827 604.308 109.269 604.308 109.792C604.308 110.403 604.133 110.926 603.785 111.362C603.448 111.785 602.988 112.109 602.402 112.333C601.829 112.557 601.175 112.67 600.44 112.67ZM610.317 112.67C609.383 112.67 608.573 112.458 607.888 112.034C607.216 111.611 606.693 111.013 606.319 110.241C605.958 109.456 605.777 108.541 605.777 107.494C605.777 106.448 605.958 105.539 606.319 104.767C606.693 103.994 607.21 103.396 607.87 102.973C608.542 102.537 609.333 102.319 610.243 102.319C611.102 102.319 611.862 102.525 612.522 102.936C613.182 103.334 613.693 103.92 614.054 104.692C614.428 105.464 614.614 106.404 614.614 107.513V107.98H607.421C607.484 109.039 607.764 109.836 608.262 110.371C608.773 110.907 609.458 111.175 610.317 111.175C610.965 111.175 611.494 111.025 611.905 110.726C612.329 110.415 612.621 110.01 612.783 109.512L614.465 109.643C614.203 110.527 613.705 111.256 612.97 111.829C612.248 112.389 611.363 112.67 610.317 112.67ZM607.421 106.598H612.896C612.821 105.638 612.541 104.935 612.055 104.486C611.581 104.038 610.977 103.814 610.243 103.814C609.483 103.814 608.854 104.05 608.356 104.524C607.87 104.985 607.558 105.676 607.421 106.598ZM630.337 113.734L629.235 112.315C628.936 112.439 628.587 112.539 628.188 112.613C627.79 112.701 627.373 112.744 626.937 112.744C625.666 112.744 624.583 112.439 623.686 111.829C622.802 111.206 622.123 110.371 621.649 109.325C621.176 108.279 620.939 107.114 620.939 105.832C620.939 104.536 621.17 103.365 621.631 102.319C622.104 101.273 622.789 100.438 623.686 99.8156C624.583 99.1928 625.666 98.8814 626.937 98.8814C628.232 98.8814 629.328 99.1928 630.225 99.8156C631.122 100.438 631.801 101.273 632.261 102.319C632.722 103.365 632.953 104.536 632.953 105.832C632.953 107.052 632.735 108.173 632.299 109.194C631.863 110.216 631.234 111.038 630.412 111.661L632.056 113.734H630.337ZM626.937 111.175C627.211 111.175 627.454 111.162 627.665 111.137C627.877 111.1 628.064 111.044 628.226 110.969L626.301 108.559H628.02L629.44 110.428C630.051 109.942 630.505 109.313 630.804 108.541C631.115 107.756 631.271 106.853 631.271 105.832C631.271 104.848 631.109 103.951 630.785 103.141C630.474 102.332 629.994 101.684 629.347 101.198C628.712 100.7 627.908 100.451 626.937 100.451C625.965 100.451 625.162 100.7 624.527 101.198C623.891 101.684 623.412 102.332 623.088 103.141C622.777 103.951 622.621 104.848 622.621 105.832C622.621 106.803 622.777 107.694 623.088 108.503C623.412 109.313 623.891 109.96 624.527 110.446C625.174 110.932 625.978 111.175 626.937 111.175ZM638.658 112.744C637.388 112.744 636.385 112.439 635.65 111.829C634.916 111.206 634.548 110.328 634.548 109.194C634.548 108.622 634.629 108.117 634.791 107.681C634.953 107.233 635.221 106.803 635.594 106.392C635.98 105.981 636.504 105.545 637.164 105.084C636.877 104.711 636.634 104.362 636.435 104.038C636.236 103.702 636.08 103.365 635.968 103.029C635.868 102.693 635.819 102.332 635.819 101.945C635.819 100.986 636.105 100.239 636.678 99.7035C637.263 99.1554 638.061 98.8814 639.069 98.8814C639.73 98.8814 640.29 98.9997 640.751 99.2364C641.212 99.4606 641.56 99.7844 641.797 100.208C642.046 100.631 642.171 101.136 642.171 101.721C642.171 102.431 641.959 103.073 641.536 103.646C641.112 104.206 640.402 104.816 639.406 105.477L642.432 109.344C642.881 108.721 643.105 107.775 643.105 106.504L644.674 106.654C644.662 107.401 644.537 108.123 644.301 108.821C644.076 109.518 643.784 110.085 643.423 110.521L645.011 112.445H643.124L642.432 111.605C642.071 111.953 641.573 112.234 640.938 112.445C640.315 112.645 639.555 112.744 638.658 112.744ZM638.845 111.25C639.48 111.25 640.01 111.175 640.433 111.025C640.857 110.876 641.174 110.689 641.386 110.465L638.098 106.317C637.425 106.778 636.946 107.227 636.659 107.662C636.373 108.098 636.23 108.609 636.23 109.194C636.23 109.817 636.435 110.315 636.846 110.689C637.27 111.063 637.936 111.25 638.845 111.25ZM638.546 104.337C639.02 104.038 639.399 103.764 639.686 103.515C639.972 103.253 640.178 102.985 640.302 102.711C640.427 102.437 640.489 102.145 640.489 101.833C640.489 101.385 640.365 101.042 640.116 100.806C639.867 100.569 639.518 100.451 639.069 100.451C638.571 100.451 638.185 100.582 637.911 100.843C637.637 101.105 637.5 101.472 637.5 101.945C637.5 102.195 637.531 102.444 637.593 102.693C637.656 102.929 637.762 103.179 637.911 103.44C638.073 103.702 638.285 104.001 638.546 104.337ZM645.76 112.445L650.543 99.1803H652.71L657.493 112.445H655.737L654.41 108.671H648.843L647.516 112.445H645.76ZM649.385 107.102H653.869L651.627 100.582L649.385 107.102Z"
        fill="#52525B"
      />
      <line
        x1="59.2088"
        y1="92.7842"
        x2="59.2088"
        y2="119.21"
        stroke="white"
        stroke-width="1.70674"
      />
      <path
        d="M57.5685 74.2549V60.9899H62.3326C63.8148 60.9899 64.9669 61.3449 65.789 62.0548C66.6111 62.7648 67.0221 63.7488 67.0221 65.0068C67.0221 65.8537 66.8353 66.5886 66.4616 67.2114C66.0879 67.8217 65.5523 68.2888 64.8548 68.6126C64.1573 68.9364 63.3166 69.0984 62.3326 69.0984H59.1752V74.2549H57.5685ZM59.1752 67.529H62.3326C63.3291 67.529 64.0764 67.3172 64.5746 66.8938C65.0853 66.4703 65.3406 65.8413 65.3406 65.0068C65.3406 64.1972 65.0853 63.5869 64.5746 63.1758C64.0764 62.7648 63.3291 62.5593 62.3326 62.5593H59.1752V67.529ZM71.4386 74.2549C70.8656 74.2549 70.3986 74.1054 70.0374 73.8065C69.6761 73.5076 69.4955 73.0343 69.4955 72.3866V60.9899H71.0649V72.2558C71.0649 72.4551 71.1147 72.6108 71.2144 72.7229C71.3265 72.8225 71.4822 72.8723 71.6815 72.8723H72.5409V74.2549H71.4386ZM78.2344 74.4791C77.3002 74.4791 76.4906 74.2673 75.8056 73.8439C75.133 73.4204 74.6099 72.8225 74.2362 72.0503C73.875 71.2656 73.6944 70.3501 73.6944 69.3039C73.6944 68.2576 73.875 67.3484 74.2362 66.5761C74.6099 65.8039 75.1268 65.2061 75.7869 64.7826C76.4595 64.3466 77.2504 64.1287 78.1597 64.1287C79.0191 64.1287 79.7789 64.3342 80.439 64.7452C81.0991 65.1438 81.6098 65.7292 81.971 66.5014C82.3447 67.2736 82.5315 68.214 82.5315 69.3226V69.7896H75.3385C75.4008 70.8483 75.681 71.6455 76.1793 72.1811C76.6899 72.7166 77.375 72.9844 78.2344 72.9844C78.8821 72.9844 79.4114 72.835 79.8225 72.536C80.2459 72.2247 80.5386 71.8199 80.7006 71.3216L82.382 71.4524C82.1205 72.3368 81.6223 73.0654 80.8874 73.6383C80.165 74.1988 79.2807 74.4791 78.2344 74.4791ZM75.3385 68.4071H80.8127C80.7379 67.448 80.4577 66.7443 79.9719 66.2959C79.4986 65.8475 78.8945 65.6233 78.1597 65.6233C77.3999 65.6233 76.7709 65.86 76.2727 66.3333C75.7869 66.7941 75.4755 67.4854 75.3385 68.4071ZM87.5844 74.4791C86.5631 74.4791 85.7472 74.2424 85.1369 73.7691C84.5391 73.2958 84.2401 72.6357 84.2401 71.7887C84.2401 70.9418 84.4892 70.2754 84.9874 69.7896C85.4857 69.3039 86.2766 68.9613 87.3602 68.7621L90.8726 68.1082C90.8726 67.2736 90.6733 66.6509 90.2748 66.2398C89.8886 65.8288 89.3032 65.6233 88.5185 65.6233C87.8335 65.6233 87.2917 65.779 86.8931 66.0904C86.4945 66.3893 86.2205 66.8253 86.0711 67.3982L84.4083 67.2674C84.5951 66.3333 85.0435 65.5797 85.7535 65.0068C86.4759 64.4214 87.3976 64.1287 88.5185 64.1287C89.789 64.1287 90.7605 64.4899 91.4331 65.2123C92.1057 65.9222 92.442 66.9062 92.442 68.1642V72.2558C92.442 72.48 92.4794 72.6419 92.5541 72.7416C92.6413 72.8287 92.7783 72.8723 92.9651 72.8723H93.3575V74.2549C93.3076 74.2673 93.2267 74.2736 93.1146 74.2736C93.0025 74.286 92.8842 74.2922 92.7596 74.2922C92.3112 74.2922 91.9438 74.2237 91.6573 74.0867C91.3833 73.9373 91.184 73.7131 91.0594 73.4141C90.9349 73.1028 90.8726 72.698 90.8726 72.1997L91.0594 72.2371C90.9723 72.6606 90.7605 73.0467 90.4242 73.3955C90.0879 73.7318 89.6707 73.9995 89.1725 74.1988C88.6742 74.3857 88.1449 74.4791 87.5844 74.4791ZM87.7339 73.0965C88.394 73.0965 88.9545 72.972 89.4153 72.7229C89.8886 72.4613 90.2498 72.1126 90.499 71.6766C90.7481 71.2282 90.8726 70.73 90.8726 70.182V69.472L87.6591 70.0699C86.9865 70.1944 86.5195 70.3875 86.2579 70.6491C86.0088 70.8982 85.8842 71.2282 85.8842 71.6393C85.8842 72.1001 86.0462 72.4613 86.37 72.7229C86.7063 72.972 87.1609 73.0965 87.7339 73.0965ZM98.6994 74.4791C97.815 74.4791 97.0615 74.3358 96.4387 74.0494C95.8284 73.7629 95.3489 73.3706 95.0001 72.8723C94.6638 72.3617 94.4708 71.7825 94.4209 71.1348L96.065 71.0227C96.1647 71.6206 96.42 72.1001 96.8311 72.4613C97.2421 72.8101 97.8648 72.9844 98.6994 72.9844C99.3719 72.9844 99.9075 72.8786 100.306 72.6668C100.717 72.4426 100.923 72.0876 100.923 71.6019C100.923 71.3403 100.86 71.1224 100.736 70.948C100.611 70.7736 100.368 70.6241 100.007 70.4996C99.646 70.3626 99.1104 70.2318 98.4004 70.1072C97.4538 69.9329 96.7065 69.7211 96.1585 69.472C95.6229 69.2105 95.2368 68.8928 95.0001 68.5192C94.7759 68.1331 94.6638 67.6784 94.6638 67.1553C94.6638 66.271 94.9877 65.5486 95.6353 64.9881C96.283 64.4151 97.2047 64.1287 98.4004 64.1287C99.21 64.1287 99.8888 64.2781 100.437 64.5771C100.997 64.8635 101.433 65.2496 101.745 65.7354C102.069 66.2087 102.28 66.7318 102.38 67.3048L100.736 67.4169C100.661 67.0681 100.524 66.763 100.325 66.5014C100.125 66.2274 99.8639 66.0157 99.5401 65.8662C99.2163 65.7043 98.8301 65.6233 98.3817 65.6233C97.6718 65.6233 97.1487 65.7603 96.8124 66.0343C96.4761 66.3084 96.3079 66.6571 96.3079 67.0806C96.3079 67.4044 96.3827 67.6722 96.5321 67.884C96.694 68.0832 96.9494 68.2514 97.2981 68.3884C97.6469 68.513 98.114 68.6251 98.6994 68.7247C99.7082 68.8991 100.493 69.1108 101.053 69.3599C101.614 69.609 102.006 69.9142 102.23 70.2754C102.455 70.6366 102.567 71.0788 102.567 71.6019C102.567 72.2122 102.392 72.7353 102.044 73.1713C101.707 73.5947 101.246 73.9186 100.661 74.1428C100.088 74.367 99.4342 74.4791 98.6994 74.4791ZM108.576 74.4791C107.642 74.4791 106.832 74.2673 106.147 73.8439C105.475 73.4204 104.952 72.8225 104.578 72.0503C104.217 71.2656 104.036 70.3501 104.036 69.3039C104.036 68.2576 104.217 67.3484 104.578 66.5761C104.952 65.8039 105.469 65.2061 106.129 64.7826C106.801 64.3466 107.592 64.1287 108.501 64.1287C109.361 64.1287 110.121 64.3342 110.781 64.7452C111.441 65.1438 111.952 65.7292 112.313 66.5014C112.686 67.2736 112.873 68.214 112.873 69.3226V69.7896H105.68C105.743 70.8483 106.023 71.6455 106.521 72.1811C107.032 72.7166 107.717 72.9844 108.576 72.9844C109.224 72.9844 109.753 72.835 110.164 72.536C110.588 72.2247 110.88 71.8199 111.042 71.3216L112.724 71.4524C112.462 72.3368 111.964 73.0654 111.229 73.6383C110.507 74.1988 109.622 74.4791 108.576 74.4791ZM105.68 68.4071H111.154C111.08 67.448 110.799 66.7443 110.314 66.2959C109.84 65.8475 109.236 65.6233 108.501 65.6233C107.742 65.6233 107.113 65.86 106.614 66.3333C106.129 66.7941 105.817 67.4854 105.68 68.4071ZM123.458 74.4791C122.574 74.4791 121.82 74.3358 121.197 74.0494C120.587 73.7629 120.108 73.3706 119.759 72.8723C119.423 72.3617 119.229 71.7825 119.18 71.1348L120.824 71.0227C120.923 71.6206 121.179 72.1001 121.59 72.4613C122.001 72.8101 122.624 72.9844 123.458 72.9844C124.131 72.9844 124.666 72.8786 125.065 72.6668C125.476 72.4426 125.681 72.0876 125.681 71.6019C125.681 71.3403 125.619 71.1224 125.495 70.948C125.37 70.7736 125.127 70.6241 124.766 70.4996C124.405 70.3626 123.869 70.2318 123.159 70.1072C122.213 69.9329 121.465 69.7211 120.917 69.472C120.382 69.2105 119.995 68.8928 119.759 68.5192C119.535 68.1331 119.423 67.6784 119.423 67.1553C119.423 66.271 119.746 65.5486 120.394 64.9881C121.042 64.4151 121.963 64.1287 123.159 64.1287C123.969 64.1287 124.648 64.2781 125.196 64.5771C125.756 64.8635 126.192 65.2496 126.503 65.7354C126.827 66.2087 127.039 66.7318 127.139 67.3048L125.495 67.4169C125.42 67.0681 125.283 66.763 125.083 66.5014C124.884 66.2274 124.623 66.0157 124.299 65.8662C123.975 65.7043 123.589 65.6233 123.14 65.6233C122.43 65.6233 121.907 65.7603 121.571 66.0343C121.235 66.3084 121.067 66.6571 121.067 67.0806C121.067 67.4044 121.141 67.6722 121.291 67.884C121.453 68.0832 121.708 68.2514 122.057 68.3884C122.406 68.513 122.873 68.6251 123.458 68.7247C124.467 68.8991 125.252 69.1108 125.812 69.3599C126.373 69.609 126.765 69.9142 126.989 70.2754C127.213 70.6366 127.325 71.0788 127.325 71.6019C127.325 72.2122 127.151 72.7353 126.802 73.1713C126.466 73.5947 126.005 73.9186 125.42 74.1428C124.847 74.367 124.193 74.4791 123.458 74.4791ZM133.335 74.4791C132.401 74.4791 131.591 74.2673 130.906 73.8439C130.233 73.4204 129.71 72.8225 129.337 72.0503C128.975 71.2656 128.795 70.3501 128.795 69.3039C128.795 68.2576 128.975 67.3484 129.337 66.5761C129.71 65.8039 130.227 65.2061 130.887 64.7826C131.56 64.3466 132.351 64.1287 133.26 64.1287C134.12 64.1287 134.879 64.3342 135.539 64.7452C136.2 65.1438 136.71 65.7292 137.071 66.5014C137.445 67.2736 137.632 68.214 137.632 69.3226V69.7896H130.439C130.501 70.8483 130.781 71.6455 131.28 72.1811C131.79 72.7166 132.475 72.9844 133.335 72.9844C133.983 72.9844 134.512 72.835 134.923 72.536C135.346 72.2247 135.639 71.8199 135.801 71.3216L137.482 71.4524C137.221 72.3368 136.723 73.0654 135.988 73.6383C135.265 74.1988 134.381 74.4791 133.335 74.4791ZM130.439 68.4071H135.913C135.838 67.448 135.558 66.7443 135.072 66.2959C134.599 65.8475 133.995 65.6233 133.26 65.6233C132.5 65.6233 131.871 65.86 131.373 66.3333C130.887 66.7941 130.576 67.4854 130.439 68.4071ZM141.792 74.2549C141.219 74.2549 140.752 74.1054 140.391 73.8065C140.03 73.5076 139.849 73.0343 139.849 72.3866V60.9899H141.418V72.2558C141.418 72.4551 141.468 72.6108 141.568 72.7229C141.68 72.8225 141.836 72.8723 142.035 72.8723H142.894V74.2549H141.792ZM148.588 74.4791C147.654 74.4791 146.844 74.2673 146.159 73.8439C145.486 73.4204 144.963 72.8225 144.59 72.0503C144.228 71.2656 144.048 70.3501 144.048 69.3039C144.048 68.2576 144.228 67.3484 144.59 66.5761C144.963 65.8039 145.48 65.2061 146.14 64.7826C146.813 64.3466 147.604 64.1287 148.513 64.1287C149.372 64.1287 150.132 64.3342 150.792 64.7452C151.453 65.1438 151.963 65.7292 152.324 66.5014C152.698 67.2736 152.885 68.214 152.885 69.3226V69.7896H145.692C145.754 70.8483 146.034 71.6455 146.533 72.1811C147.043 72.7166 147.728 72.9844 148.588 72.9844C149.235 72.9844 149.765 72.835 150.176 72.536C150.599 72.2247 150.892 71.8199 151.054 71.3216L152.735 71.4524C152.474 72.3368 151.976 73.0654 151.241 73.6383C150.518 74.1988 149.634 74.4791 148.588 74.4791ZM145.692 68.4071H151.166C151.091 67.448 150.811 66.7443 150.325 66.2959C149.852 65.8475 149.248 65.6233 148.513 65.6233C147.753 65.6233 147.124 65.86 146.626 66.3333C146.14 66.7941 145.829 67.4854 145.692 68.4071ZM158.878 74.4791C157.956 74.4791 157.153 74.2673 156.468 73.8439C155.795 73.4204 155.272 72.8225 154.899 72.0503C154.525 71.2656 154.338 70.3501 154.338 69.3039C154.338 68.2576 154.525 67.3484 154.899 66.5761C155.272 65.8039 155.795 65.2061 156.468 64.7826C157.153 64.3466 157.956 64.1287 158.878 64.1287C159.638 64.1287 160.31 64.2657 160.896 64.5397C161.494 64.8013 161.979 65.1874 162.353 65.698C162.727 66.2087 162.97 66.8315 163.082 67.5663L161.438 67.6784C161.326 67.0183 161.039 66.5139 160.578 66.1651C160.117 65.8039 159.551 65.6233 158.878 65.6233C157.969 65.6233 157.259 65.9534 156.748 66.6135C156.238 67.2612 155.982 68.158 155.982 69.3039C155.982 70.4498 156.238 71.3528 156.748 72.0129C157.259 72.6606 157.969 72.9844 158.878 72.9844C159.551 72.9844 160.117 72.7976 160.578 72.4239C161.039 72.0503 161.326 71.4898 161.438 70.7425L163.082 70.8546C162.97 71.5894 162.727 72.2309 162.353 72.7789C161.979 73.3145 161.494 73.7318 160.896 74.0307C160.31 74.3296 159.638 74.4791 158.878 74.4791ZM168.269 74.2549C167.372 74.2549 166.706 74.0494 166.27 73.6383C165.846 73.2273 165.634 72.5859 165.634 71.714V62.0362H167.204V71.6766C167.204 72.125 167.303 72.4364 167.503 72.6108C167.702 72.7851 168.007 72.8723 168.418 72.8723H169.838V74.2549H168.269ZM164.177 65.7354V64.3529H169.838V65.7354H164.177ZM179.303 74.4791C178.282 74.4791 177.466 74.2424 176.855 73.7691C176.258 73.2958 175.959 72.6357 175.959 71.7887C175.959 70.9418 176.208 70.2754 176.706 69.7896C177.204 69.3039 177.995 68.9613 179.079 68.7621L182.591 68.1082C182.591 67.2736 182.392 66.6509 181.993 66.2398C181.607 65.8288 181.022 65.6233 180.237 65.6233C179.552 65.6233 179.01 65.779 178.612 66.0904C178.213 66.3893 177.939 66.8253 177.79 67.3982L176.127 67.2674C176.314 66.3333 176.762 65.5797 177.472 65.0068C178.194 64.4214 179.116 64.1287 180.237 64.1287C181.508 64.1287 182.479 64.4899 183.152 65.2123C183.824 65.9222 184.161 66.9062 184.161 68.1642V72.2558C184.161 72.48 184.198 72.6419 184.273 72.7416C184.36 72.8287 184.497 72.8723 184.684 72.8723H185.076V74.2549C185.026 74.2673 184.945 74.2736 184.833 74.2736C184.721 74.286 184.603 74.2922 184.478 74.2922C184.03 74.2922 183.662 74.2237 183.376 74.0867C183.102 73.9373 182.903 73.7131 182.778 73.4141C182.653 73.1028 182.591 72.698 182.591 72.1997L182.778 72.2371C182.691 72.6606 182.479 73.0467 182.143 73.3955C181.806 73.7318 181.389 73.9995 180.891 74.1988C180.393 74.3857 179.863 74.4791 179.303 74.4791ZM179.452 73.0965C180.113 73.0965 180.673 72.972 181.134 72.7229C181.607 72.4613 181.968 72.1126 182.217 71.6766C182.467 71.2282 182.591 70.73 182.591 70.182V69.472L179.378 70.0699C178.705 70.1944 178.238 70.3875 177.976 70.6491C177.727 70.8982 177.603 71.2282 177.603 71.6393C177.603 72.1001 177.765 72.4613 178.089 72.7229C178.425 72.972 178.879 73.0965 179.452 73.0965ZM195.105 74.4791C194.245 74.4791 193.498 74.2673 192.863 73.8439C192.24 73.4204 191.76 72.8225 191.424 72.0503C191.088 71.278 190.92 70.3626 190.92 69.3039C190.92 68.2452 191.088 67.3297 191.424 66.5575C191.76 65.7852 192.24 65.1874 192.863 64.7639C193.498 64.3404 194.245 64.1287 195.105 64.1287C195.765 64.1287 196.369 64.2719 196.917 64.5584C197.465 64.8324 197.876 65.2247 198.15 65.7354V60.9899H199.719V74.2549H198.299L198.243 72.7602C197.969 73.2958 197.552 73.7193 196.992 74.0307C196.431 74.3296 195.802 74.4791 195.105 74.4791ZM195.422 72.9844C196.008 72.9844 196.5 72.835 196.898 72.536C197.309 72.2371 197.621 71.8136 197.832 71.2656C198.044 70.7051 198.15 70.0512 198.15 69.3039C198.15 68.5316 198.044 67.8715 197.832 67.3235C197.621 66.7754 197.309 66.3582 196.898 66.0717C196.5 65.7728 196.008 65.6233 195.422 65.6233C194.55 65.6233 193.853 65.9534 193.33 66.6135C192.819 67.2612 192.564 68.158 192.564 69.3039C192.564 70.4373 192.819 71.3341 193.33 71.9942C193.853 72.6544 194.55 72.9844 195.422 72.9844ZM205.193 74.4791C204.171 74.4791 203.356 74.2424 202.745 73.7691C202.147 73.2958 201.849 72.6357 201.849 71.7887C201.849 70.9418 202.098 70.2754 202.596 69.7896C203.094 69.3039 203.885 68.9613 204.969 68.7621L208.481 68.1082C208.481 67.2736 208.282 66.6509 207.883 66.2398C207.497 65.8288 206.912 65.6233 206.127 65.6233C205.442 65.6233 204.9 65.779 204.502 66.0904C204.103 66.3893 203.829 66.8253 203.679 67.3982L202.017 67.2674C202.204 66.3333 202.652 65.5797 203.362 65.0068C204.084 64.4214 205.006 64.1287 206.127 64.1287C207.397 64.1287 208.369 64.4899 209.042 65.2123C209.714 65.9222 210.05 66.9062 210.05 68.1642V72.2558C210.05 72.48 210.088 72.6419 210.163 72.7416C210.25 72.8287 210.387 72.8723 210.574 72.8723H210.966V74.2549C210.916 74.2673 210.835 74.2736 210.723 74.2736C210.611 74.286 210.493 74.2922 210.368 74.2922C209.92 74.2922 209.552 74.2237 209.266 74.0867C208.992 73.9373 208.792 73.7131 208.668 73.4141C208.543 73.1028 208.481 72.698 208.481 72.1997L208.668 72.2371C208.581 72.6606 208.369 73.0467 208.033 73.3955C207.696 73.7318 207.279 73.9995 206.781 74.1988C206.283 74.3857 205.753 74.4791 205.193 74.4791ZM205.342 73.0965C206.002 73.0965 206.563 72.972 207.024 72.7229C207.497 72.4613 207.858 72.1126 208.107 71.6766C208.356 71.2282 208.481 70.73 208.481 70.182V69.472L205.268 70.0699C204.595 70.1944 204.128 70.3875 203.866 70.6491C203.617 70.8982 203.493 71.2282 203.493 71.6393C203.493 72.1001 203.655 72.4613 203.978 72.7229C204.315 72.972 204.769 73.0965 205.342 73.0965ZM215.87 74.2549C214.974 74.2549 214.307 74.0494 213.871 73.6383C213.448 73.2273 213.236 72.5859 213.236 71.714V62.0362H214.805V71.6766C214.805 72.125 214.905 72.4364 215.104 72.6108C215.304 72.7851 215.609 72.8723 216.02 72.8723H217.44V74.2549H215.87ZM211.779 65.7354V64.3529H217.44V65.7354H211.779ZM222.051 74.4791C221.03 74.4791 220.214 74.2424 219.604 73.7691C219.006 73.2958 218.707 72.6357 218.707 71.7887C218.707 70.9418 218.956 70.2754 219.454 69.7896C219.953 69.3039 220.744 68.9613 221.827 68.7621L225.34 68.1082C225.34 67.2736 225.14 66.6509 224.742 66.2398C224.356 65.8288 223.77 65.6233 222.986 65.6233C222.3 65.6233 221.759 65.779 221.36 66.0904C220.962 66.3893 220.687 66.8253 220.538 67.3982L218.875 67.2674C219.062 66.3333 219.51 65.5797 220.22 65.0068C220.943 64.4214 221.865 64.1287 222.986 64.1287C224.256 64.1287 225.227 64.4899 225.9 65.2123C226.573 65.9222 226.909 66.9062 226.909 68.1642V72.2558C226.909 72.48 226.946 72.6419 227.021 72.7416C227.108 72.8287 227.245 72.8723 227.432 72.8723H227.824V74.2549C227.775 74.2673 227.694 74.2736 227.582 74.2736C227.469 74.286 227.351 74.2922 227.227 74.2922C226.778 74.2922 226.411 74.2237 226.124 74.0867C225.85 73.9373 225.651 73.7131 225.526 73.4141C225.402 73.1028 225.34 72.698 225.34 72.1997L225.526 72.2371C225.439 72.6606 225.227 73.0467 224.891 73.3955C224.555 73.7318 224.138 73.9995 223.639 74.1988C223.141 74.3857 222.612 74.4791 222.051 74.4791ZM222.201 73.0965C222.861 73.0965 223.421 72.972 223.882 72.7229C224.356 72.4613 224.717 72.1126 224.966 71.6766C225.215 71.2282 225.34 70.73 225.34 70.182V69.472L222.126 70.0699C221.453 70.1944 220.986 70.3875 220.725 70.6491C220.476 70.8982 220.351 71.2282 220.351 71.6393C220.351 72.1001 220.513 72.4613 220.837 72.7229C221.173 72.972 221.628 73.0965 222.201 73.0965ZM234.064 74.4791C233.379 74.4791 232.769 74.3296 232.233 74.0307C231.697 73.7193 231.286 73.2958 231 72.7602L230.944 74.2549H229.524V60.9899H231.093V65.7354C231.342 65.3244 231.729 64.9569 232.252 64.6331C232.775 64.2968 233.379 64.1287 234.064 64.1287C234.936 64.1287 235.689 64.3404 236.325 64.7639C236.96 65.1874 237.452 65.7852 237.801 66.5575C238.149 67.3297 238.324 68.2452 238.324 69.3039C238.324 70.3626 238.149 71.278 237.801 72.0503C237.452 72.8225 236.96 73.4204 236.325 73.8439C235.689 74.2673 234.936 74.4791 234.064 74.4791ZM233.971 72.9844C234.805 72.9844 235.465 72.6544 235.951 71.9942C236.437 71.3341 236.68 70.4373 236.68 69.3039C236.68 68.158 236.437 67.2612 235.951 66.6135C235.465 65.9534 234.818 65.6233 234.008 65.6233C233.398 65.6233 232.874 65.7728 232.439 66.0717C232.003 66.3582 231.666 66.7754 231.43 67.3235C231.205 67.8715 231.093 68.5316 231.093 69.3039C231.093 70.0512 231.205 70.7051 231.43 71.2656C231.666 71.8136 231.996 72.2371 232.42 72.536C232.856 72.835 233.373 72.9844 233.971 72.9844ZM243.38 74.4791C242.359 74.4791 241.543 74.2424 240.932 73.7691C240.335 73.2958 240.036 72.6357 240.036 71.7887C240.036 70.9418 240.285 70.2754 240.783 69.7896C241.281 69.3039 242.072 68.9613 243.156 68.7621L246.668 68.1082C246.668 67.2736 246.469 66.6509 246.07 66.2398C245.684 65.8288 245.099 65.6233 244.314 65.6233C243.629 65.6233 243.087 65.779 242.689 66.0904C242.29 66.3893 242.016 66.8253 241.867 67.3982L240.204 67.2674C240.391 66.3333 240.839 65.5797 241.549 65.0068C242.271 64.4214 243.193 64.1287 244.314 64.1287C245.585 64.1287 246.556 64.4899 247.229 65.2123C247.901 65.9222 248.238 66.9062 248.238 68.1642V72.2558C248.238 72.48 248.275 72.6419 248.35 72.7416C248.437 72.8287 248.574 72.8723 248.761 72.8723H249.153V74.2549C249.103 74.2673 249.022 74.2736 248.91 74.2736C248.798 74.286 248.68 74.2922 248.555 74.2922C248.107 74.2922 247.739 74.2237 247.453 74.0867C247.179 73.9373 246.98 73.7131 246.855 73.4141C246.73 73.1028 246.668 72.698 246.668 72.1997L246.855 72.2371C246.768 72.6606 246.556 73.0467 246.22 73.3955C245.883 73.7318 245.466 73.9995 244.968 74.1988C244.47 74.3857 243.94 74.4791 243.38 74.4791ZM243.529 73.0965C244.19 73.0965 244.75 72.972 245.211 72.7229C245.684 72.4613 246.045 72.1126 246.295 71.6766C246.544 71.2282 246.668 70.73 246.668 70.182V69.472L243.455 70.0699C242.782 70.1944 242.315 70.3875 242.053 70.6491C241.804 70.8982 241.68 71.2282 241.68 71.6393C241.68 72.1001 241.842 72.4613 242.166 72.7229C242.502 72.972 242.956 73.0965 243.529 73.0965ZM254.495 74.4791C253.611 74.4791 252.857 74.3358 252.234 74.0494C251.624 73.7629 251.144 73.3706 250.796 72.8723C250.459 72.3617 250.266 71.7825 250.217 71.1348L251.861 71.0227C251.96 71.6206 252.216 72.1001 252.627 72.4613C253.038 72.8101 253.66 72.9844 254.495 72.9844C255.168 72.9844 255.703 72.8786 256.102 72.6668C256.513 72.4426 256.718 72.0876 256.718 71.6019C256.718 71.3403 256.656 71.1224 256.531 70.948C256.407 70.7736 256.164 70.6241 255.803 70.4996C255.442 70.3626 254.906 70.2318 254.196 70.1072C253.249 69.9329 252.502 69.7211 251.954 69.472C251.418 69.2105 251.032 68.8928 250.796 68.5192C250.571 68.1331 250.459 67.6784 250.459 67.1553C250.459 66.271 250.783 65.5486 251.431 64.9881C252.079 64.4151 253 64.1287 254.196 64.1287C255.006 64.1287 255.684 64.2781 256.232 64.5771C256.793 64.8635 257.229 65.2496 257.54 65.7354C257.864 66.2087 258.076 66.7318 258.175 67.3048L256.531 67.4169C256.457 67.0681 256.32 66.763 256.12 66.5014C255.921 66.2274 255.66 66.0157 255.336 65.8662C255.012 65.7043 254.626 65.6233 254.177 65.6233C253.467 65.6233 252.944 65.7603 252.608 66.0343C252.272 66.3084 252.103 66.6571 252.103 67.0806C252.103 67.4044 252.178 67.6722 252.328 67.884C252.49 68.0832 252.745 68.2514 253.094 68.3884C253.442 68.513 253.91 68.6251 254.495 68.7247C255.504 68.8991 256.289 69.1108 256.849 69.3599C257.409 69.609 257.802 69.9142 258.026 70.2754C258.25 70.6366 258.362 71.0788 258.362 71.6019C258.362 72.2122 258.188 72.7353 257.839 73.1713C257.503 73.5947 257.042 73.9186 256.457 74.1428C255.884 74.367 255.23 74.4791 254.495 74.4791ZM264.372 74.4791C263.438 74.4791 262.628 74.2673 261.943 73.8439C261.27 73.4204 260.747 72.8225 260.374 72.0503C260.012 71.2656 259.832 70.3501 259.832 69.3039C259.832 68.2576 260.012 67.3484 260.374 66.5761C260.747 65.8039 261.264 65.2061 261.924 64.7826C262.597 64.3466 263.388 64.1287 264.297 64.1287C265.156 64.1287 265.916 64.3342 266.576 64.7452C267.236 65.1438 267.747 65.7292 268.108 66.5014C268.482 67.2736 268.669 68.214 268.669 69.3226V69.7896H261.476C261.538 70.8483 261.818 71.6455 262.317 72.1811C262.827 72.7166 263.512 72.9844 264.372 72.9844C265.019 72.9844 265.549 72.835 265.96 72.536C266.383 72.2247 266.676 71.8199 266.838 71.3216L268.519 71.4524C268.258 72.3368 267.76 73.0654 267.025 73.6383C266.302 74.1988 265.418 74.4791 264.372 74.4791ZM261.476 68.4071H266.95C266.875 67.448 266.595 66.7443 266.109 66.2959C265.636 65.8475 265.032 65.6233 264.297 65.6233C263.537 65.6233 262.908 65.86 262.41 66.3333C261.924 66.7941 261.613 67.4854 261.476 68.4071ZM279.515 74.4791C278.606 74.4791 277.809 74.2673 277.124 73.8439C276.439 73.4204 275.909 72.8225 275.536 72.0503C275.162 71.2656 274.975 70.3501 274.975 69.3039C274.975 68.2452 275.162 67.3297 275.536 66.5575C275.909 65.7852 276.439 65.1874 277.124 64.7639C277.809 64.3404 278.606 64.1287 279.515 64.1287C280.424 64.1287 281.215 64.3404 281.888 64.7639C282.573 65.1874 283.102 65.7852 283.476 66.5575C283.85 67.3297 284.036 68.2452 284.036 69.3039C284.036 70.3501 283.85 71.2656 283.476 72.0503C283.102 72.8225 282.573 73.4204 281.888 73.8439C281.215 74.2673 280.424 74.4791 279.515 74.4791ZM279.515 72.9844C280.424 72.9844 281.128 72.6606 281.626 72.0129C282.137 71.3528 282.392 70.4498 282.392 69.3039C282.392 68.158 282.137 67.2612 281.626 66.6135C281.128 65.9534 280.424 65.6233 279.515 65.6233C278.606 65.6233 277.896 65.9534 277.385 66.6135C276.875 67.2612 276.619 68.158 276.619 69.3039C276.619 70.4498 276.875 71.3528 277.385 72.0129C277.896 72.6606 278.606 72.9844 279.515 72.9844ZM286.175 74.2549V64.3529H287.558L287.633 66.8564L287.483 66.8003C287.608 65.9534 287.875 65.3368 288.286 64.9507C288.71 64.5521 289.27 64.3529 289.968 64.3529H290.939V65.8475H289.987C289.488 65.8475 289.071 65.9409 288.735 66.1278C288.411 66.3021 288.162 66.5699 287.988 66.9311C287.826 67.2799 287.745 67.7283 287.745 68.2763V74.2549H286.175ZM301.438 74.4791C300.578 74.4791 299.831 74.2673 299.196 73.8439C298.573 73.4204 298.093 72.8225 297.757 72.0503C297.421 71.278 297.253 70.3626 297.253 69.3039C297.253 68.2452 297.421 67.3297 297.757 66.5575C298.093 65.7852 298.573 65.1874 299.196 64.7639C299.831 64.3404 300.578 64.1287 301.438 64.1287C302.098 64.1287 302.702 64.2719 303.25 64.5584C303.798 64.8324 304.209 65.2247 304.483 65.7354V60.9899H306.052V74.2549H304.632L304.576 72.7602C304.302 73.2958 303.885 73.7193 303.325 74.0307C302.764 74.3296 302.135 74.4791 301.438 74.4791ZM301.755 72.9844C302.341 72.9844 302.833 72.835 303.231 72.536C303.642 72.2371 303.954 71.8136 304.165 71.2656C304.377 70.7051 304.483 70.0512 304.483 69.3039C304.483 68.5316 304.377 67.8715 304.165 67.3235C303.954 66.7754 303.642 66.3582 303.231 66.0717C302.833 65.7728 302.341 65.6233 301.755 65.6233C300.883 65.6233 300.186 65.9534 299.663 66.6135C299.152 67.2612 298.897 68.158 298.897 69.3039C298.897 70.4373 299.152 71.3341 299.663 71.9942C300.186 72.6544 300.883 72.9844 301.755 72.9844ZM311.526 74.4791C310.504 74.4791 309.689 74.2424 309.078 73.7691C308.48 73.2958 308.181 72.6357 308.181 71.7887C308.181 70.9418 308.431 70.2754 308.929 69.7896C309.427 69.3039 310.218 68.9613 311.302 68.7621L314.814 68.1082C314.814 67.2736 314.615 66.6509 314.216 66.2398C313.83 65.8288 313.245 65.6233 312.46 65.6233C311.775 65.6233 311.233 65.779 310.834 66.0904C310.436 66.3893 310.162 66.8253 310.012 67.3982L308.35 67.2674C308.536 66.3333 308.985 65.5797 309.695 65.0068C310.417 64.4214 311.339 64.1287 312.46 64.1287C313.73 64.1287 314.702 64.4899 315.374 65.2123C316.047 65.9222 316.383 66.9062 316.383 68.1642V72.2558C316.383 72.48 316.421 72.6419 316.495 72.7416C316.583 72.8287 316.72 72.8723 316.906 72.8723H317.299V74.2549C317.249 74.2673 317.168 74.2736 317.056 74.2736C316.944 74.286 316.825 74.2922 316.701 74.2922C316.253 74.2922 315.885 74.2237 315.599 74.0867C315.325 73.9373 315.125 73.7131 315.001 73.4141C314.876 73.1028 314.814 72.698 314.814 72.1997L315.001 72.2371C314.914 72.6606 314.702 73.0467 314.366 73.3955C314.029 73.7318 313.612 73.9995 313.114 74.1988C312.616 74.3857 312.086 74.4791 311.526 74.4791ZM311.675 73.0965C312.335 73.0965 312.896 72.972 313.357 72.7229C313.83 72.4613 314.191 72.1126 314.44 71.6766C314.689 71.2282 314.814 70.73 314.814 70.182V69.472L311.6 70.0699C310.928 70.1944 310.461 70.3875 310.199 70.6491C309.95 70.8982 309.826 71.2282 309.826 71.6393C309.826 72.1001 309.987 72.4613 310.311 72.7229C310.648 72.972 311.102 73.0965 311.675 73.0965ZM322.203 74.2549C321.306 74.2549 320.64 74.0494 320.204 73.6383C319.781 73.2273 319.569 72.5859 319.569 71.714V62.0362H321.138V71.6766C321.138 72.125 321.238 72.4364 321.437 72.6108C321.637 72.7851 321.942 72.8723 322.353 72.8723H323.773V74.2549H322.203ZM318.112 65.7354V64.3529H323.773V65.7354H318.112ZM328.384 74.4791C327.363 74.4791 326.547 74.2424 325.937 73.7691C325.339 73.2958 325.04 72.6357 325.04 71.7887C325.04 70.9418 325.289 70.2754 325.787 69.7896C326.286 69.3039 327.076 68.9613 328.16 68.7621L331.672 68.1082C331.672 67.2736 331.473 66.6509 331.075 66.2398C330.688 65.8288 330.103 65.6233 329.318 65.6233C328.633 65.6233 328.092 65.779 327.693 66.0904C327.294 66.3893 327.02 66.8253 326.871 67.3982L325.208 67.2674C325.395 66.3333 325.843 65.5797 326.553 65.0068C327.276 64.4214 328.197 64.1287 329.318 64.1287C330.589 64.1287 331.56 64.4899 332.233 65.2123C332.906 65.9222 333.242 66.9062 333.242 68.1642V72.2558C333.242 72.48 333.279 72.6419 333.354 72.7416C333.441 72.8287 333.578 72.8723 333.765 72.8723H334.157V74.2549C334.107 74.2673 334.027 74.2736 333.914 74.2736C333.802 74.286 333.684 74.2922 333.559 74.2922C333.111 74.2922 332.744 74.2237 332.457 74.0867C332.183 73.9373 331.984 73.7131 331.859 73.4141C331.735 73.1028 331.672 72.698 331.672 72.1997L331.859 72.2371C331.772 72.6606 331.56 73.0467 331.224 73.3955C330.888 73.7318 330.471 73.9995 329.972 74.1988C329.474 74.3857 328.945 74.4791 328.384 74.4791ZM328.534 73.0965C329.194 73.0965 329.754 72.972 330.215 72.7229C330.688 72.4613 331.05 72.1126 331.299 71.6766C331.548 71.2282 331.672 70.73 331.672 70.182V69.472L328.459 70.0699C327.786 70.1944 327.319 70.3875 327.058 70.6491C326.809 70.8982 326.684 71.2282 326.684 71.6393C326.684 72.1001 326.846 72.4613 327.17 72.7229C327.506 72.972 327.961 73.0965 328.534 73.0965ZM339.499 74.4791C338.615 74.4791 337.861 74.3358 337.239 74.0494C336.628 73.7629 336.149 73.3706 335.8 72.8723C335.464 72.3617 335.271 71.7825 335.221 71.1348L336.865 71.0227C336.965 71.6206 337.22 72.1001 337.631 72.4613C338.042 72.8101 338.665 72.9844 339.499 72.9844C340.172 72.9844 340.707 72.8786 341.106 72.6668C341.517 72.4426 341.723 72.0876 341.723 71.6019C341.723 71.3403 341.66 71.1224 341.536 70.948C341.411 70.7736 341.168 70.6241 340.807 70.4996C340.446 70.3626 339.91 70.2318 339.2 70.1072C338.254 69.9329 337.506 69.7211 336.958 69.472C336.423 69.2105 336.037 68.8928 335.8 68.5192C335.576 68.1331 335.464 67.6784 335.464 67.1553C335.464 66.271 335.788 65.5486 336.435 64.9881C337.083 64.4151 338.005 64.1287 339.2 64.1287C340.01 64.1287 340.689 64.2781 341.237 64.5771C341.797 64.8635 342.233 65.2496 342.545 65.7354C342.868 66.2087 343.08 66.7318 343.18 67.3048L341.536 67.4169C341.461 67.0681 341.324 66.763 341.125 66.5014C340.925 66.2274 340.664 66.0157 340.34 65.8662C340.016 65.7043 339.63 65.6233 339.182 65.6233C338.472 65.6233 337.949 65.7603 337.612 66.0343C337.276 66.3084 337.108 66.6571 337.108 67.0806C337.108 67.4044 337.183 67.6722 337.332 67.884C337.494 68.0832 337.749 68.2514 338.098 68.3884C338.447 68.513 338.914 68.6251 339.499 68.7247C340.508 68.8991 341.293 69.1108 341.853 69.3599C342.414 69.609 342.806 69.9142 343.03 70.2754C343.255 70.6366 343.367 71.0788 343.367 71.6019C343.367 72.2122 343.192 72.7353 342.843 73.1713C342.507 73.5947 342.046 73.9186 341.461 74.1428C340.888 74.367 340.234 74.4791 339.499 74.4791ZM349.376 74.4791C348.442 74.4791 347.632 74.2673 346.947 73.8439C346.275 73.4204 345.751 72.8225 345.378 72.0503C345.017 71.2656 344.836 70.3501 344.836 69.3039C344.836 68.2576 345.017 67.3484 345.378 66.5761C345.751 65.8039 346.268 65.2061 346.929 64.7826C347.601 64.3466 348.392 64.1287 349.301 64.1287C350.161 64.1287 350.92 64.3342 351.581 64.7452C352.241 65.1438 352.751 65.7292 353.113 66.5014C353.486 67.2736 353.673 68.214 353.673 69.3226V69.7896H346.48C346.542 70.8483 346.823 71.6455 347.321 72.1811C347.832 72.7166 348.517 72.9844 349.376 72.9844C350.024 72.9844 350.553 72.835 350.964 72.536C351.388 72.2247 351.68 71.8199 351.842 71.3216L353.524 71.4524C353.262 72.3368 352.764 73.0654 352.029 73.6383C351.307 74.1988 350.422 74.4791 349.376 74.4791ZM346.48 68.4071H351.954C351.88 67.448 351.599 66.7443 351.114 66.2959C350.64 65.8475 350.036 65.6233 349.301 65.6233C348.541 65.6233 347.912 65.86 347.414 66.3333C346.929 66.7941 346.617 67.4854 346.48 68.4071ZM359.04 74.2549C358.143 74.2549 357.477 74.0494 357.041 73.6383C356.618 73.2273 356.406 72.5859 356.406 71.714V62.0362H357.975V71.6766C357.975 72.125 358.075 72.4364 358.274 72.6108C358.474 72.7851 358.779 72.8723 359.19 72.8723H360.61V74.2549H359.04ZM354.949 65.7354V64.3529H360.61V65.7354H354.949ZM362.534 74.2549V72.1437H364.645V74.2549H362.534Z"
        fill="#A1A1AA"
      />
      <path
        d="M373.391 65.5449L379.675 71.829L385.959 65.5449"
        stroke="#52525B"
        stroke-width="1.67157"
        stroke-linecap="round"
        stroke-linejoin="round"
      />
      <g opacity="0.4">
        <rect
          x="641.568"
          y="163.67"
          width="48.0422"
          height="48.0422"
          rx="13.345"
          fill="#27272A"
        />
        <path
          fill-rule="evenodd"
          clip-rule="evenodd"
          d="M657.681 176.815C655.912 175.943 653.968 177.632 654.584 179.505L657.288 187.715L654.596 195.882C653.979 197.754 655.92 199.444 657.689 198.575L675.332 189.909C677.154 189.014 677.156 186.417 675.335 185.519L657.681 176.815ZM656.697 178.809L674.352 187.514C674.517 187.595 674.517 187.832 674.351 187.913L656.708 196.579L659.19 189.053L661.568 188.75C663.857 188.46 665.001 188.314 665.17 188.056C665.314 187.834 665.314 187.548 665.17 187.327C665.001 187.068 663.857 186.923 661.568 186.632L659.173 186.328L656.697 178.809Z"
          fill="#BFBFBF"
        />
      </g>
    </g>
    <rect
      x="33.5602"
      y="33.2223"
      width="671.73"
      height="191.626"
      rx="21.0184"
      stroke="white"
      stroke-opacity="0.15"
      stroke-width="0.667252"
    />
    <rect
      x="33.5602"
      y="33.2223"
      width="671.73"
      height="191.626"
      rx="21.0184"
      stroke="url(#paint1_linear_528_4569)"
      stroke-width="0.667252"
    />
  </g>
  <defs>
    <filter
      id="filter0_d_528_4569"
      x="0.549291"
      y="0.2114"
      width="737.752"
      height="257.648"
      filterUnits="userSpaceOnUse"
      color-interpolation-filters="sRGB"
    >
      <feFlood flood-opacity="0" result="BackgroundImageFix" />
      <feColorMatrix
        in="SourceAlpha"
        type="matrix"
        values="0 0 0 0 0 0 0 0 0 0 0 0 0 0 0 0 0 0 127 0"
        result="hardAlpha"
      />
      <feMorphology
        radius="13.825"
        operator="dilate"
        in="SourceAlpha"
        result="effect1_dropShadow_528_4569"
      />
      <feOffset />
      <feGaussianBlur stdDeviation="9.42614" />
      <feComposite in2="hardAlpha" operator="out" />
      <feColorMatrix
        type="matrix"
        values="0 0 0 0 0 0 0 0 0 0 0 0 0 0 0 0 0 0 0.5 0"
      />
      <feBlend
        mode="normal"
        in2="BackgroundImageFix"
        result="effect1_dropShadow_528_4569"
      />
      <feBlend
        mode="normal"
        in="SourceGraphic"
        in2="effect1_dropShadow_528_4569"
        result="shape"
      />
    </filter>
    <linearGradient
      id="paint0_linear_528_4569"
      x1="90.6203"
      y1="64.3295"
      x2="381.566"
      y2="147.665"
      gradientUnits="userSpaceOnUse"
    >
      <stop stop-color="#181818" />
      <stop offset="1" stop-color="#131313" />
    </linearGradient>
    <linearGradient
      id="paint1_linear_528_4569"
      x1="38.1614"
      y1="32.8887"
      x2="134.07"
      y2="148.882"
      gradientUnits="userSpaceOnUse"
    >
      <stop stop-color="white" />
      <stop offset="1" stop-color="white" stop-opacity="0" />
    </linearGradient>
    <clipPath id="clip0_528_4569">
      <rect
        x="33.2266"
        y="32.8887"
        width="672.398"
        height="192.293"
        rx="21.3521"
        fill="white"
      />
    </clipPath>
  </defs>
</svg>
