<svg viewBox="0 0 712 153" fill="none" xmlns="http://www.w3.org/2000/svg">
  <g clip-path="url(#clip0_528_5199)">
    <rect
      width="712"
      height="153"
      rx="16.989"
      fill="url(#paint0_linear_528_5199)"
    />
    <path
      d="M22.6039 33.3877V22.8333H23.8824V33.3877H22.6039ZM31.7243 33.3877L29.2864 25.5091H30.654L32.4973 32.0795L34.3703 25.5091H35.7082L37.5813 32.0795L39.4394 25.5091H40.807L38.3691 33.3877H36.7934L35.0393 27.397L33.2852 33.3877H31.7243ZM44.1202 33.5661C43.3075 33.5661 42.6584 33.3778 42.1728 33.0012C41.6971 32.6246 41.4593 32.0994 41.4593 31.4255C41.4593 30.7516 41.6575 30.2214 42.0539 29.8349C42.4503 29.4484 43.0796 29.1758 43.9418 29.0173L46.7365 28.497C46.7365 27.833 46.5779 27.3375 46.2608 27.0105C45.9536 26.6834 45.4878 26.5199 44.8634 26.5199C44.3184 26.5199 43.8873 26.6438 43.5701 26.8915C43.253 27.1294 43.035 27.4762 42.9161 27.9321L41.5931 27.828C41.7417 27.0848 42.0985 26.4852 42.6634 26.0293C43.2382 25.5636 43.9715 25.3307 44.8634 25.3307C45.8743 25.3307 46.6473 25.6181 47.1824 26.1929C47.7176 26.7577 47.9852 27.5407 47.9852 28.5416V31.7971C47.9852 31.9755 48.0149 32.1043 48.0744 32.1836C48.1437 32.253 48.2527 32.2877 48.4014 32.2877H48.7136V33.3877C48.6739 33.3976 48.6095 33.4026 48.5203 33.4026C48.4311 33.4125 48.337 33.4174 48.2379 33.4174C47.8811 33.4174 47.5887 33.3629 47.3608 33.2539C47.1428 33.135 46.9842 32.9566 46.8851 32.7188C46.786 32.471 46.7365 32.1489 46.7365 31.7525L46.8851 31.7822C46.8157 32.1192 46.6473 32.4264 46.3797 32.7039C46.1121 32.9715 45.7801 33.1845 45.3837 33.3431C44.9873 33.4918 44.5661 33.5661 44.1202 33.5661ZM44.2391 32.466C44.7643 32.466 45.2103 32.3669 45.577 32.1687C45.9536 31.9606 46.241 31.6831 46.4392 31.3363C46.6374 30.9795 46.7365 30.5831 46.7365 30.147V29.5822L44.1796 30.0579C43.6445 30.157 43.2728 30.3106 43.0647 30.5187C42.8665 30.7169 42.7674 30.9795 42.7674 31.3065C42.7674 31.6732 42.8962 31.9606 43.1539 32.1687C43.4215 32.3669 43.7832 32.466 44.2391 32.466ZM50.1239 33.3877V25.5091H51.2685L51.3131 27.5159L51.1645 27.3821C51.2636 26.9163 51.437 26.5348 51.6848 26.2375C51.9325 25.9302 52.2298 25.7023 52.5767 25.5536C52.9335 25.405 53.315 25.3307 53.7213 25.3307C54.3259 25.3307 54.8214 25.4645 55.2079 25.732C55.6043 25.9996 55.8966 26.3613 56.0849 26.8172C56.2831 27.2632 56.3822 27.7636 56.3822 28.3186V33.3877H55.1335V28.6754C55.1335 28.1898 55.0741 27.7835 54.9552 27.4564C54.8461 27.1195 54.6678 26.8668 54.42 26.6983C54.1722 26.5199 53.8502 26.4307 53.4538 26.4307C52.8492 26.4307 52.3488 26.624 51.9524 27.0105C51.5659 27.387 51.3726 27.942 51.3726 28.6754V33.3877H50.1239ZM61.0502 33.3877C60.3367 33.3877 59.8065 33.2242 59.4596 32.8971C59.1226 32.5701 58.9542 32.0597 58.9542 31.366V23.6657H60.2029V31.3363C60.2029 31.693 60.2821 31.9408 60.4407 32.0795C60.5993 32.2183 60.8421 32.2877 61.1691 32.2877H62.2989V33.3877H61.0502ZM57.7947 26.6091V25.5091H62.2989V26.6091H57.7947ZM70.5878 33.3877C69.8743 33.3877 69.3441 33.2242 68.9972 32.8971C68.6603 32.5701 68.4918 32.0597 68.4918 31.366V23.6657H69.7405V31.3363C69.7405 31.693 69.8198 31.9408 69.9784 32.0795C70.1369 32.2183 70.3797 32.2877 70.7068 32.2877H71.8365V33.3877H70.5878ZM67.3323 26.6091V25.5091H71.8365V26.6091H67.3323ZM76.3701 33.5661C75.6467 33.5661 75.0124 33.3976 74.4673 33.0607C73.9223 32.7237 73.5011 32.248 73.2038 31.6336C72.9065 31.0092 72.7578 30.2808 72.7578 29.4484C72.7578 28.606 72.9065 27.8776 73.2038 27.2632C73.5011 26.6487 73.9223 26.173 74.4673 25.8361C75.0124 25.4991 75.6467 25.3307 76.3701 25.3307C77.0936 25.3307 77.7229 25.4991 78.258 25.8361C78.8031 26.173 79.2243 26.6487 79.5216 27.2632C79.8189 27.8776 79.9675 28.606 79.9675 29.4484C79.9675 30.2808 79.8189 31.0092 79.5216 31.6336C79.2243 32.248 78.8031 32.7237 78.258 33.0607C77.7229 33.3976 77.0936 33.5661 76.3701 33.5661ZM76.3701 32.3769C77.0936 32.3769 77.6535 32.1192 78.0499 31.6039C78.4562 31.0786 78.6594 30.3601 78.6594 29.4484C78.6594 28.5366 78.4562 27.8231 78.0499 27.3078C77.6535 26.7825 77.0936 26.5199 76.3701 26.5199C75.6467 26.5199 75.0818 26.7825 74.6755 27.3078C74.2691 27.8231 74.066 28.5366 74.066 29.4484C74.066 30.3601 74.2691 31.0786 74.6755 31.6039C75.0818 32.1192 75.6467 32.3769 76.3701 32.3769ZM89.1431 33.5661C88.598 33.5661 88.1124 33.4472 87.6863 33.2093C87.2601 32.9616 86.9331 32.6246 86.7051 32.1985L86.6605 33.3877H85.5308V22.8333H86.7795V26.6091C86.9777 26.2821 87.2849 25.9897 87.7011 25.732C88.1173 25.4645 88.598 25.3307 89.1431 25.3307C89.8368 25.3307 90.4363 25.4991 90.9418 25.8361C91.4472 26.173 91.8386 26.6487 92.1161 27.2632C92.3936 27.8776 92.5324 28.606 92.5324 29.4484C92.5324 30.2907 92.3936 31.0191 92.1161 31.6336C91.8386 32.248 91.4472 32.7237 90.9418 33.0607C90.4363 33.3976 89.8368 33.5661 89.1431 33.5661ZM89.0687 32.3769C89.7327 32.3769 90.258 32.1142 90.6445 31.589C91.031 31.0637 91.2242 30.3502 91.2242 29.4484C91.2242 28.5366 91.031 27.8231 90.6445 27.3078C90.258 26.7825 89.7426 26.5199 89.0985 26.5199C88.6129 26.5199 88.1966 26.6388 87.8498 26.8767C87.5029 27.1046 87.2353 27.4366 87.047 27.8726C86.8687 28.3087 86.7795 28.8339 86.7795 29.4484C86.7795 30.043 86.8687 30.5633 87.047 31.0092C87.2353 31.4453 87.498 31.7822 87.8349 32.0201C88.1818 32.2579 88.593 32.3769 89.0687 32.3769ZM96.813 33.5661C96.0301 33.5661 95.4008 33.3035 94.9251 32.7782C94.4593 32.2431 94.2264 31.5097 94.2264 30.5781V25.5091H95.4751V30.2362C95.4751 30.9993 95.6089 31.5642 95.8765 31.9309C96.154 32.2877 96.5752 32.466 97.14 32.466C97.7644 32.466 98.2549 32.2678 98.6117 31.8714C98.9685 31.4651 99.1469 30.9101 99.1469 30.2065V25.5091H100.396V33.3877H99.2063V31.4403L99.3996 31.5444C99.241 32.1886 98.9388 32.689 98.4928 33.0458C98.0468 33.3927 97.4869 33.5661 96.813 33.5661ZM102.559 33.3877V25.5091H103.808V33.3877H102.559ZM102.529 24.2752V22.8184H103.838V24.2752H102.529ZM107.589 33.3877C107.133 33.3877 106.762 33.2688 106.474 33.0309C106.187 32.7931 106.043 32.4165 106.043 31.9012V22.8333H107.292V31.7971C107.292 31.9557 107.332 32.0795 107.411 32.1687C107.5 32.248 107.624 32.2877 107.782 32.2877H108.466V33.3877H107.589ZM112.714 33.5661C112.03 33.5661 111.436 33.3976 110.93 33.0607C110.435 32.7237 110.053 32.248 109.785 31.6336C109.518 31.0191 109.384 30.2907 109.384 29.4484C109.384 28.606 109.518 27.8776 109.785 27.2632C110.053 26.6487 110.435 26.173 110.93 25.8361C111.436 25.4991 112.03 25.3307 112.714 25.3307C113.239 25.3307 113.72 25.4446 114.156 25.6726C114.592 25.8906 114.919 26.2028 115.137 26.6091V22.8333H116.386V33.3877H115.256L115.211 32.1985C114.993 32.6246 114.661 32.9616 114.215 33.2093C113.769 33.4472 113.269 33.5661 112.714 33.5661ZM112.967 32.3769C113.432 32.3769 113.824 32.2579 114.141 32.0201C114.468 31.7822 114.716 31.4453 114.884 31.0092C115.053 30.5633 115.137 30.043 115.137 29.4484C115.137 28.8339 115.053 28.3087 114.884 27.8726C114.716 27.4366 114.468 27.1046 114.141 26.8767C113.824 26.6388 113.432 26.5199 112.967 26.5199C112.273 26.5199 111.718 26.7825 111.302 27.3078C110.895 27.8231 110.692 28.5366 110.692 29.4484C110.692 30.3502 110.895 31.0637 111.302 31.589C111.718 32.1142 112.273 32.3769 112.967 32.3769ZM124.602 33.5661C123.79 33.5661 123.14 33.3778 122.655 33.0012C122.179 32.6246 121.941 32.0994 121.941 31.4255C121.941 30.7516 122.139 30.2214 122.536 29.8349C122.932 29.4484 123.562 29.1758 124.424 29.0173L127.218 28.497C127.218 27.833 127.06 27.3375 126.743 27.0105C126.436 26.6834 125.97 26.5199 125.345 26.5199C124.8 26.5199 124.369 26.6438 124.052 26.8915C123.735 27.1294 123.517 27.4762 123.398 27.9321L122.075 27.828C122.224 27.0848 122.58 26.4852 123.145 26.0293C123.72 25.5636 124.454 25.3307 125.345 25.3307C126.356 25.3307 127.129 25.6181 127.664 26.1929C128.2 26.7577 128.467 27.5407 128.467 28.5416V31.7971C128.467 31.9755 128.497 32.1043 128.556 32.1836C128.626 32.253 128.735 32.2877 128.883 32.2877H129.196V33.3877C129.156 33.3976 129.092 33.4026 129.002 33.4026C128.913 33.4125 128.819 33.4174 128.72 33.4174C128.363 33.4174 128.071 33.3629 127.843 33.2539C127.625 33.135 127.466 32.9566 127.367 32.7188C127.268 32.471 127.218 32.1489 127.218 31.7525L127.367 31.7822C127.298 32.1192 127.129 32.4264 126.862 32.7039C126.594 32.9715 126.262 33.1845 125.866 33.3431C125.469 33.4918 125.048 33.5661 124.602 33.5661ZM124.721 32.466C125.246 32.466 125.692 32.3669 126.059 32.1687C126.436 31.9606 126.723 31.6831 126.921 31.3363C127.119 30.9795 127.218 30.5831 127.218 30.147V29.5822L124.662 30.0579C124.126 30.157 123.755 30.3106 123.547 30.5187C123.349 30.7169 123.249 30.9795 123.249 31.3065C123.249 31.6732 123.378 31.9606 123.636 32.1687C123.904 32.3669 124.265 32.466 124.721 32.466ZM134.38 33.3877V25.5091H135.525L135.57 27.501L135.391 27.4415C135.48 27.0055 135.634 26.6339 135.852 26.3266C136.08 26.0095 136.357 25.7667 136.684 25.5982C137.012 25.4199 137.373 25.3307 137.77 25.3307C138.453 25.3307 139.008 25.519 139.435 25.8956C139.871 26.2721 140.143 26.7974 140.252 27.4713L140.014 27.4564C140.094 27.0005 140.237 26.619 140.445 26.3118C140.663 25.9947 140.941 25.7519 141.278 25.5834C141.615 25.4149 142.001 25.3307 142.437 25.3307C143.002 25.3307 143.478 25.4496 143.864 25.6874C144.251 25.9154 144.543 26.2523 144.741 26.6983C144.94 27.1442 145.039 27.6843 145.039 28.3186V33.3877H143.79V28.5862C143.79 27.8726 143.651 27.3375 143.374 26.9807C143.096 26.614 142.685 26.4307 142.14 26.4307C141.773 26.4307 141.451 26.5199 141.174 26.6983C140.906 26.8767 140.698 27.1343 140.549 27.4713C140.401 27.7983 140.326 28.1997 140.326 28.6754V33.3877H139.078V28.6754C139.078 27.9717 138.954 27.4217 138.706 27.0253C138.458 26.6289 138.042 26.4307 137.457 26.4307C137.091 26.4307 136.769 26.5199 136.491 26.6983C136.224 26.8767 136.011 27.1343 135.852 27.4713C135.703 27.8082 135.629 28.2096 135.629 28.6754V33.3877H134.38ZM150.319 33.5661C149.596 33.5661 148.962 33.3976 148.417 33.0607C147.872 32.7237 147.45 32.248 147.153 31.6336C146.856 31.0092 146.707 30.2808 146.707 29.4484C146.707 28.606 146.856 27.8776 147.153 27.2632C147.45 26.6487 147.872 26.173 148.417 25.8361C148.962 25.4991 149.596 25.3307 150.319 25.3307C151.043 25.3307 151.672 25.4991 152.207 25.8361C152.752 26.173 153.174 26.6487 153.471 27.2632C153.768 27.8776 153.917 28.606 153.917 29.4484C153.917 30.2808 153.768 31.0092 153.471 31.6336C153.174 32.248 152.752 32.7237 152.207 33.0607C151.672 33.3976 151.043 33.5661 150.319 33.5661ZM150.319 32.3769C151.043 32.3769 151.603 32.1192 151.999 31.6039C152.406 31.0786 152.609 30.3601 152.609 29.4484C152.609 28.5366 152.406 27.8231 151.999 27.3078C151.603 26.7825 151.043 26.5199 150.319 26.5199C149.596 26.5199 149.031 26.7825 148.625 27.3078C148.219 27.8231 148.015 28.5366 148.015 29.4484C148.015 30.3601 148.219 31.0786 148.625 31.6039C149.031 32.1192 149.596 32.3769 150.319 32.3769ZM159.231 33.5661C158.686 33.5661 158.2 33.4472 157.774 33.2093C157.348 32.9616 157.021 32.6246 156.793 32.1985L156.748 33.3877H155.619V22.8333H156.867V26.6091C157.066 26.2821 157.373 25.9897 157.789 25.732C158.205 25.4645 158.686 25.3307 159.231 25.3307C159.925 25.3307 160.524 25.4991 161.03 25.8361C161.535 26.173 161.927 26.6487 162.204 27.2632C162.481 27.8776 162.62 28.606 162.62 29.4484C162.62 30.2907 162.481 31.0191 162.204 31.6336C161.927 32.248 161.535 32.7237 161.03 33.0607C160.524 33.3976 159.925 33.5661 159.231 33.5661ZM159.157 32.3769C159.821 32.3769 160.346 32.1142 160.732 31.589C161.119 31.0637 161.312 30.3502 161.312 29.4484C161.312 28.5366 161.119 27.8231 160.732 27.3078C160.346 26.7825 159.83 26.5199 159.186 26.5199C158.701 26.5199 158.284 26.6388 157.938 26.8767C157.591 27.1046 157.323 27.4366 157.135 27.8726C156.957 28.3087 156.867 28.8339 156.867 29.4484C156.867 30.043 156.957 30.5633 157.135 31.0092C157.323 31.4453 157.586 31.7822 157.923 32.0201C158.27 32.2579 158.681 32.3769 159.157 32.3769ZM164.314 33.3877V25.5091H165.563V33.3877H164.314ZM164.285 24.2752V22.8184H165.593V24.2752H164.285ZM169.344 33.3877C168.889 33.3877 168.517 33.2688 168.229 33.0309C167.942 32.7931 167.798 32.4165 167.798 31.9012V22.8333H169.047V31.7971C169.047 31.9557 169.087 32.0795 169.166 32.1687C169.255 32.248 169.379 32.2877 169.538 32.2877H170.221V33.3877H169.344ZM174.752 33.5661C174.008 33.5661 173.364 33.3976 172.819 33.0607C172.284 32.7237 171.868 32.248 171.57 31.6336C171.283 31.0092 171.139 30.2808 171.139 29.4484C171.139 28.6159 171.283 27.8925 171.57 27.278C171.868 26.6636 172.279 26.1879 172.804 25.851C173.339 25.5041 173.969 25.3307 174.692 25.3307C175.376 25.3307 175.98 25.4942 176.506 25.8212C177.031 26.1384 177.437 26.6041 177.725 27.2186C178.022 27.833 178.171 28.5812 178.171 29.4632V29.8349H172.447C172.497 30.6772 172.72 31.3115 173.116 31.7376C173.523 32.1638 174.068 32.3769 174.752 32.3769C175.267 32.3769 175.688 32.2579 176.015 32.0201C176.352 31.7723 176.585 31.4502 176.714 31.0538L178.052 31.1579C177.844 31.8615 177.447 32.4413 176.862 32.8971C176.288 33.3431 175.584 33.5661 174.752 33.5661ZM172.447 28.7348H176.803C176.743 27.9717 176.521 27.4118 176.134 27.055C175.757 26.6983 175.277 26.5199 174.692 26.5199C174.088 26.5199 173.587 26.7082 173.191 27.0848C172.804 27.4515 172.556 28.0015 172.447 28.7348ZM185.849 33.5661C185.037 33.5661 184.387 33.3778 183.902 33.0012C183.426 32.6246 183.188 32.0994 183.188 31.4255C183.188 30.7516 183.387 30.2214 183.783 29.8349C184.179 29.4484 184.809 29.1758 185.671 29.0173L188.466 28.497C188.466 27.833 188.307 27.3375 187.99 27.0105C187.683 26.6834 187.217 26.5199 186.592 26.5199C186.047 26.5199 185.616 26.6438 185.299 26.8915C184.982 27.1294 184.764 27.4762 184.645 27.9321L183.322 27.828C183.471 27.0848 183.828 26.4852 184.392 26.0293C184.967 25.5636 185.701 25.3307 186.592 25.3307C187.603 25.3307 188.376 25.6181 188.911 26.1929C189.447 26.7577 189.714 27.5407 189.714 28.5416V31.7971C189.714 31.9755 189.744 32.1043 189.803 32.1836C189.873 32.253 189.982 32.2877 190.13 32.2877H190.443V33.3877C190.403 33.3976 190.339 33.4026 190.249 33.4026C190.16 33.4125 190.066 33.4174 189.967 33.4174C189.61 33.4174 189.318 33.3629 189.09 33.2539C188.872 33.135 188.713 32.9566 188.614 32.7188C188.515 32.471 188.466 32.1489 188.466 31.7525L188.614 31.7822C188.545 32.1192 188.376 32.4264 188.109 32.7039C187.841 32.9715 187.509 33.1845 187.113 33.3431C186.716 33.4918 186.295 33.5661 185.849 33.5661ZM185.968 32.466C186.493 32.466 186.939 32.3669 187.306 32.1687C187.683 31.9606 187.97 31.6831 188.168 31.3363C188.366 30.9795 188.466 30.5831 188.466 30.147V29.5822L185.909 30.0579C185.374 30.157 185.002 30.3106 184.794 30.5187C184.596 30.7169 184.496 30.9795 184.496 31.3065C184.496 31.6732 184.625 31.9606 184.883 32.1687C185.151 32.3669 185.512 32.466 185.968 32.466ZM191.853 35.6175V25.5091H193.012L193.042 27.2037L192.864 27.1145C193.062 26.5298 193.389 26.0888 193.845 25.7915C194.311 25.4843 194.846 25.3307 195.45 25.3307C196.233 25.3307 196.873 25.5239 197.368 25.9104C197.873 26.2969 198.245 26.8023 198.483 27.4267C198.731 28.051 198.855 28.7249 198.855 29.4484C198.855 30.1718 198.731 30.8457 198.483 31.4701C198.245 32.0944 197.873 32.5998 197.368 32.9863C196.873 33.3728 196.233 33.5661 195.45 33.5661C195.044 33.5661 194.663 33.4967 194.306 33.358C193.959 33.2192 193.662 33.026 193.414 32.7782C193.176 32.5305 193.012 32.2381 192.923 31.9012L193.102 31.693V35.6175H191.853ZM195.331 32.3769C196.015 32.3769 196.555 32.1192 196.952 31.6039C197.348 31.0885 197.546 30.37 197.546 29.4484C197.546 28.5267 197.348 27.8082 196.952 27.2929C196.555 26.7776 196.015 26.5199 195.331 26.5199C194.876 26.5199 194.479 26.6289 194.142 26.8469C193.815 27.065 193.558 27.392 193.369 27.828C193.191 28.2641 193.102 28.8042 193.102 29.4484C193.102 30.0925 193.191 30.6326 193.369 31.0687C193.548 31.5047 193.805 31.8318 194.142 32.0498C194.479 32.2678 194.876 32.3769 195.331 32.3769ZM200.549 35.6175V25.5091H201.708L201.738 27.2037L201.559 27.1145C201.758 26.5298 202.085 26.0888 202.541 25.7915C203.006 25.4843 203.542 25.3307 204.146 25.3307C204.929 25.3307 205.568 25.5239 206.064 25.9104C206.569 26.2969 206.941 26.8023 207.179 27.4267C207.426 28.051 207.55 28.7249 207.55 29.4484C207.55 30.1718 207.426 30.8457 207.179 31.4701C206.941 32.0944 206.569 32.5998 206.064 32.9863C205.568 33.3728 204.929 33.5661 204.146 33.5661C203.74 33.5661 203.358 33.4967 203.001 33.358C202.655 33.2192 202.357 33.026 202.109 32.7782C201.872 32.5305 201.708 32.2381 201.619 31.9012L201.797 31.693V35.6175H200.549ZM204.027 32.3769C204.711 32.3769 205.251 32.1192 205.647 31.6039C206.044 31.0885 206.242 30.37 206.242 29.4484C206.242 28.5267 206.044 27.8082 205.647 27.2929C205.251 26.7776 204.711 26.5199 204.027 26.5199C203.571 26.5199 203.175 26.6289 202.838 26.8469C202.511 27.065 202.253 27.392 202.065 27.828C201.887 28.2641 201.797 28.8042 201.797 29.4484C201.797 30.0925 201.887 30.6326 202.065 31.0687C202.243 31.5047 202.501 31.8318 202.838 32.0498C203.175 32.2678 203.571 32.3769 204.027 32.3769ZM213.879 33.3877V24.7955C213.879 24.2108 214.047 23.7401 214.384 23.3833C214.721 23.0166 215.246 22.8333 215.96 22.8333H217.209V23.9333H216.049C215.742 23.9333 215.509 24.0176 215.35 24.186C215.202 24.3545 215.127 24.5874 215.127 24.8847V33.3877H213.879ZM212.808 26.6091V25.5091H217.105V26.6091H212.808ZM221.395 33.5661C220.671 33.5661 220.037 33.3976 219.492 33.0607C218.947 32.7237 218.526 32.248 218.228 31.6336C217.931 31.0092 217.782 30.2808 217.782 29.4484C217.782 28.606 217.931 27.8776 218.228 27.2632C218.526 26.6487 218.947 26.173 219.492 25.8361C220.037 25.4991 220.671 25.3307 221.395 25.3307C222.118 25.3307 222.747 25.4991 223.282 25.8361C223.827 26.173 224.249 26.6487 224.546 27.2632C224.843 27.8776 224.992 28.606 224.992 29.4484C224.992 30.2808 224.843 31.0092 224.546 31.6336C224.249 32.248 223.827 32.7237 223.282 33.0607C222.747 33.3976 222.118 33.5661 221.395 33.5661ZM221.395 32.3769C222.118 32.3769 222.678 32.1192 223.074 31.6039C223.481 31.0786 223.684 30.3601 223.684 29.4484C223.684 28.5366 223.481 27.8231 223.074 27.3078C222.678 26.7825 222.118 26.5199 221.395 26.5199C220.671 26.5199 220.106 26.7825 219.7 27.3078C219.294 27.8231 219.09 28.5366 219.09 29.4484C219.09 30.3601 219.294 31.0786 219.7 31.6039C220.106 32.1192 220.671 32.3769 221.395 32.3769ZM226.694 33.3877V25.5091H227.794L227.853 27.501L227.734 27.4564C227.833 26.7825 228.046 26.292 228.373 25.9847C228.71 25.6676 229.156 25.5091 229.711 25.5091H230.484V26.6983H229.726C229.33 26.6983 228.998 26.7726 228.73 26.9213C228.473 27.06 228.274 27.2731 228.136 27.5605C228.007 27.838 227.942 28.1947 227.942 28.6308V33.3877H226.694ZM236.816 33.3877V24.7955C236.816 24.2108 236.984 23.7401 237.321 23.3833C237.658 23.0166 238.183 22.8333 238.897 22.8333H240.145V23.9333H238.986C238.679 23.9333 238.446 24.0176 238.287 24.186C238.139 24.3545 238.064 24.5874 238.064 24.8847V33.3877H236.816ZM235.745 26.6091V25.5091H240.041V26.6091H235.745ZM241.677 33.3877V25.5091H242.925V33.3877H241.677ZM241.647 24.2752V22.8184H242.955V24.2752H241.647ZM247.593 33.3877C246.88 33.3877 246.349 33.2242 246.003 32.8971C245.666 32.5701 245.497 32.0597 245.497 31.366V23.6657H246.746V31.3363C246.746 31.693 246.825 31.9408 246.984 32.0795C247.142 32.2183 247.385 32.2877 247.712 32.2877H248.842V33.3877H247.593ZM244.338 26.6091V25.5091H248.842V26.6091H244.338ZM250.603 33.3877V25.5091H251.748L251.792 27.5159L251.644 27.3821C251.743 26.9163 251.916 26.5348 252.164 26.2375C252.412 25.9302 252.709 25.7023 253.056 25.5536C253.413 25.405 253.794 25.3307 254.201 25.3307C254.805 25.3307 255.301 25.4645 255.687 25.732C256.083 25.9996 256.376 26.3613 256.564 26.8172C256.762 27.2632 256.861 27.7636 256.861 28.3186V33.3877H255.613V28.6754C255.613 28.1898 255.553 27.7835 255.434 27.4564C255.325 27.1195 255.147 26.8668 254.899 26.6983C254.651 26.5199 254.329 26.4307 253.933 26.4307C253.328 26.4307 252.828 26.624 252.432 27.0105C252.045 27.387 251.852 27.942 251.852 28.6754V33.3877H250.603ZM262.144 33.5661C261.4 33.5661 260.756 33.3976 260.211 33.0607C259.676 32.7237 259.26 32.248 258.962 31.6336C258.675 31.0092 258.531 30.2808 258.531 29.4484C258.531 28.6159 258.675 27.8925 258.962 27.278C259.26 26.6636 259.671 26.1879 260.196 25.851C260.731 25.5041 261.361 25.3307 262.084 25.3307C262.768 25.3307 263.372 25.4942 263.898 25.8212C264.423 26.1384 264.829 26.6041 265.117 27.2186C265.414 27.833 265.563 28.5812 265.563 29.4632V29.8349H259.839C259.889 30.6772 260.112 31.3115 260.508 31.7376C260.915 32.1638 261.46 32.3769 262.144 32.3769C262.659 32.3769 263.08 32.2579 263.407 32.0201C263.744 31.7723 263.977 31.4502 264.106 31.0538L265.444 31.1579C265.236 31.8615 264.839 32.4413 264.255 32.8971C263.68 33.3431 262.976 33.5661 262.144 33.5661ZM259.839 28.7348H264.195C264.136 27.9717 263.913 27.4118 263.526 27.055C263.15 26.6983 262.669 26.5199 262.084 26.5199C261.48 26.5199 260.979 26.7082 260.583 27.0848C260.196 27.4515 259.948 28.0015 259.839 28.7348ZM270.123 33.5661C269.419 33.5661 268.82 33.4521 268.324 33.2242C267.839 32.9962 267.457 32.6841 267.18 32.2877C266.912 31.8813 266.759 31.4205 266.719 30.9052L268.027 30.816C268.106 31.2917 268.309 31.6732 268.637 31.9606C268.964 32.2381 269.459 32.3769 270.123 32.3769C270.658 32.3769 271.084 32.2926 271.401 32.1241C271.729 31.9458 271.892 31.6633 271.892 31.2768C271.892 31.0687 271.842 30.8953 271.743 30.7565C271.644 30.6178 271.451 30.4989 271.164 30.3998C270.876 30.2907 270.45 30.1867 269.885 30.0876C269.132 29.9488 268.537 29.7804 268.101 29.5822C267.675 29.374 267.368 29.1213 267.18 28.824C267.001 28.5168 266.912 28.1551 266.912 27.7389C266.912 27.0352 267.17 26.4604 267.685 26.0145C268.2 25.5586 268.934 25.3307 269.885 25.3307C270.529 25.3307 271.069 25.4496 271.506 25.6874C271.952 25.9154 272.298 26.2226 272.546 26.6091C272.804 26.9857 272.972 27.4019 273.052 27.8578L271.743 27.947C271.684 27.6695 271.575 27.4267 271.416 27.2186C271.258 27.0005 271.05 26.8321 270.792 26.7131C270.534 26.5843 270.227 26.5199 269.87 26.5199C269.305 26.5199 268.889 26.6289 268.622 26.8469C268.354 27.065 268.22 27.3424 268.22 27.6794C268.22 27.9371 268.28 28.1501 268.399 28.3186C268.528 28.4772 268.731 28.611 269.008 28.72C269.286 28.8191 269.657 28.9083 270.123 28.9875C270.926 29.1263 271.55 29.2948 271.996 29.493C272.442 29.6912 272.754 29.934 272.933 30.2214C273.111 30.5088 273.2 30.8606 273.2 31.2768C273.2 31.7624 273.061 32.1786 272.784 32.5255C272.516 32.8625 272.15 33.1201 271.684 33.2985C271.228 33.4769 270.708 33.5661 270.123 33.5661ZM277.774 33.5661C277.07 33.5661 276.47 33.4521 275.975 33.2242C275.489 32.9962 275.108 32.6841 274.83 32.2877C274.563 31.8813 274.409 31.4205 274.369 30.9052L275.677 30.816C275.757 31.2917 275.96 31.6732 276.287 31.9606C276.614 32.2381 277.11 32.3769 277.774 32.3769C278.309 32.3769 278.735 32.2926 279.052 32.1241C279.379 31.9458 279.542 31.6633 279.542 31.2768C279.542 31.0687 279.493 30.8953 279.394 30.7565C279.295 30.6178 279.101 30.4989 278.814 30.3998C278.527 30.2907 278.101 30.1867 277.536 30.0876C276.782 29.9488 276.188 29.7804 275.752 29.5822C275.326 29.374 275.018 29.1213 274.83 28.824C274.652 28.5168 274.563 28.1551 274.563 27.7389C274.563 27.0352 274.82 26.4604 275.336 26.0145C275.851 25.5586 276.584 25.3307 277.536 25.3307C278.18 25.3307 278.72 25.4496 279.156 25.6874C279.602 25.9154 279.949 26.2226 280.197 26.6091C280.454 26.9857 280.623 27.4019 280.702 27.8578L279.394 27.947C279.334 27.6695 279.225 27.4267 279.067 27.2186C278.908 27.0005 278.7 26.8321 278.442 26.7131C278.185 26.5843 277.878 26.5199 277.521 26.5199C276.956 26.5199 276.54 26.6289 276.272 26.8469C276.005 27.065 275.871 27.3424 275.871 27.6794C275.871 27.9371 275.93 28.1501 276.049 28.3186C276.178 28.4772 276.381 28.611 276.659 28.72C276.936 28.8191 277.308 28.9083 277.774 28.9875C278.576 29.1263 279.201 29.2948 279.647 29.493C280.092 29.6912 280.405 29.934 280.583 30.2214C280.761 30.5088 280.851 30.8606 280.851 31.2768C280.851 31.7624 280.712 32.1786 280.434 32.5255C280.167 32.8625 279.8 33.1201 279.334 33.2985C278.878 33.4769 278.358 33.5661 277.774 33.5661ZM289.3 33.3877C288.587 33.3877 288.057 33.2242 287.71 32.8971C287.373 32.5701 287.204 32.0597 287.204 31.366V23.6657H288.453V31.3363C288.453 31.693 288.532 31.9408 288.691 32.0795C288.849 32.2183 289.092 32.2877 289.419 32.2877H290.549V33.3877H289.3ZM286.045 26.6091V25.5091H290.549V26.6091H286.045ZM292.31 33.3877V25.5091H293.41L293.47 27.501L293.351 27.4564C293.45 26.7825 293.663 26.292 293.99 25.9847C294.327 25.6676 294.773 25.5091 295.328 25.5091H296.101V26.6983H295.343C294.946 26.6983 294.614 26.7726 294.347 26.9213C294.089 27.06 293.891 27.2731 293.752 27.5605C293.623 27.838 293.559 28.1947 293.559 28.6308V33.3877H292.31ZM299.473 33.5661C298.661 33.5661 298.012 33.3778 297.526 33.0012C297.05 32.6246 296.813 32.0994 296.813 31.4255C296.813 30.7516 297.011 30.2214 297.407 29.8349C297.804 29.4484 298.433 29.1758 299.295 29.0173L302.09 28.497C302.09 27.833 301.931 27.3375 301.614 27.0105C301.307 26.6834 300.841 26.5199 300.217 26.5199C299.672 26.5199 299.241 26.6438 298.923 26.8915C298.606 27.1294 298.388 27.4762 298.269 27.9321L296.946 27.828C297.095 27.0848 297.452 26.4852 298.017 26.0293C298.591 25.5636 299.325 25.3307 300.217 25.3307C301.228 25.3307 302.001 25.6181 302.536 26.1929C303.071 26.7577 303.338 27.5407 303.338 28.5416V31.7971C303.338 31.9755 303.368 32.1043 303.428 32.1836C303.497 32.253 303.606 32.2877 303.755 32.2877H304.067V33.3877C304.027 33.3976 303.963 33.4026 303.874 33.4026C303.784 33.4125 303.69 33.4174 303.591 33.4174C303.234 33.4174 302.942 33.3629 302.714 33.2539C302.496 33.135 302.338 32.9566 302.238 32.7188C302.139 32.471 302.09 32.1489 302.09 31.7525L302.238 31.7822C302.169 32.1192 302.001 32.4264 301.733 32.7039C301.465 32.9715 301.133 33.1845 300.737 33.3431C300.341 33.4918 299.919 33.5661 299.473 33.5661ZM299.592 32.466C300.118 32.466 300.564 32.3669 300.93 32.1687C301.307 31.9606 301.594 31.6831 301.792 31.3363C301.991 30.9795 302.09 30.5831 302.09 30.147V29.5822L299.533 30.0579C298.998 30.157 298.626 30.3106 298.418 30.5187C298.22 30.7169 298.121 30.9795 298.121 31.3065C298.121 31.6732 298.25 31.9606 298.507 32.1687C298.775 32.3669 299.137 32.466 299.592 32.466ZM308.525 33.5661C307.792 33.5661 307.153 33.3976 306.608 33.0607C306.073 32.7237 305.656 32.248 305.359 31.6336C305.062 31.0092 304.913 30.2808 304.913 29.4484C304.913 28.6159 305.062 27.8925 305.359 27.278C305.656 26.6636 306.073 26.1879 306.608 25.851C307.153 25.5041 307.792 25.3307 308.525 25.3307C309.13 25.3307 309.665 25.4397 310.131 25.6577C310.606 25.8658 310.993 26.173 311.29 26.5794C311.588 26.9857 311.781 27.4812 311.87 28.0659L310.562 28.1551C310.473 27.6298 310.245 27.2285 309.878 26.951C309.511 26.6636 309.06 26.5199 308.525 26.5199C307.802 26.5199 307.237 26.7825 306.831 27.3078C306.424 27.8231 306.221 28.5366 306.221 29.4484C306.221 30.3601 306.424 31.0786 306.831 31.6039C307.237 32.1192 307.802 32.3769 308.525 32.3769C309.06 32.3769 309.511 32.2282 309.878 31.9309C310.245 31.6336 310.473 31.1876 310.562 30.593L311.87 30.6822C311.781 31.2669 311.588 31.7773 311.29 32.2133C310.993 32.6395 310.606 32.9715 310.131 33.2093C309.665 33.4472 309.13 33.5661 308.525 33.5661ZM313.418 33.3877V22.8333H314.667V29.7457L318.502 25.5091H320.167L317.06 28.8538L320.301 33.3877H318.784L316.213 29.7011L314.667 31.3363V33.3877H313.418ZM321.446 33.3877V25.5091H322.695V33.3877H321.446ZM321.416 24.2752V22.8184H322.724V24.2752H321.416ZM325.22 33.3877V25.5091H326.365L326.409 27.5159L326.261 27.3821C326.36 26.9163 326.533 26.5348 326.781 26.2375C327.029 25.9302 327.326 25.7023 327.673 25.5536C328.03 25.405 328.411 25.3307 328.818 25.3307C329.422 25.3307 329.918 25.4645 330.304 25.732C330.701 25.9996 330.993 26.3613 331.181 26.8172C331.379 27.2632 331.479 27.7636 331.479 28.3186V33.3877H330.23V28.6754C330.23 28.1898 330.17 27.7835 330.052 27.4564C329.942 27.1195 329.764 26.8668 329.516 26.6983C329.269 26.5199 328.947 26.4307 328.55 26.4307C327.946 26.4307 327.445 26.624 327.049 27.0105C326.662 27.387 326.469 27.942 326.469 28.6754V33.3877H325.22ZM336.672 35.7959C336.107 35.7959 335.596 35.7017 335.14 35.5134C334.685 35.3251 334.303 35.0576 333.996 34.7107C333.689 34.3639 333.48 33.9625 333.371 33.5066L334.68 33.4174C334.799 33.7841 335.007 34.0715 335.304 34.2796C335.611 34.4976 336.067 34.6067 336.672 34.6067C337.385 34.6067 337.93 34.463 338.307 34.1756C338.693 33.8882 338.887 33.4571 338.887 32.8823V31.6039C338.698 32.0201 338.396 32.3521 337.98 32.5998C337.564 32.8476 337.098 32.9715 336.582 32.9715C335.918 32.9715 335.324 32.8079 334.799 32.4809C334.283 32.1539 333.877 31.703 333.58 31.1282C333.292 30.5534 333.148 29.8943 333.148 29.1511C333.148 28.3979 333.292 27.7389 333.58 27.174C333.867 26.5992 334.263 26.1483 334.769 25.8212C335.284 25.4942 335.869 25.3307 336.523 25.3307C337.078 25.3307 337.573 25.4595 338.009 25.7172C338.455 25.9748 338.768 26.3217 338.946 26.7577V25.5091H340.135V32.8525C340.135 33.467 339.996 33.9922 339.719 34.4283C339.441 34.8742 339.045 35.2112 338.53 35.4391C338.014 35.677 337.395 35.7959 336.672 35.7959ZM336.642 31.7822C337.316 31.7822 337.856 31.5493 338.262 31.0836C338.668 30.6079 338.877 29.9637 338.887 29.1511C338.896 28.606 338.807 28.1402 338.619 27.7537C338.441 27.3573 338.178 27.055 337.831 26.8469C337.494 26.6289 337.098 26.5199 336.642 26.5199C335.948 26.5199 335.408 26.7577 335.022 27.2334C334.645 27.6992 334.457 28.3384 334.457 29.1511C334.457 29.9637 334.65 30.6079 335.036 31.0836C335.433 31.5493 335.968 31.7822 336.642 31.7822ZM341.975 33.3877V31.7079H343.655V33.3877H341.975ZM344.965 33.3877V31.7079H346.645V33.3877H344.965ZM347.956 33.3877V31.7079H349.636V33.3877H347.956Z"
      fill="#A1A1AA"
    />
    <line
      x1="20.6726"
      y1="17.6572"
      x2="20.6726"
      y2="38.683"
      stroke="white"
      stroke-width="1.35799"
    />
    <g opacity="0.4">
      <rect
        x="661.033"
        y="104.058"
        width="38.2252"
        height="38.2252"
        rx="10.6181"
        fill="#27272A"
      />
      <path
        fill-rule="evenodd"
        clip-rule="evenodd"
        d="M674.211 122.026C674.556 122.372 675.117 122.372 675.462 122.026L679.261 118.228V130.249C679.261 130.738 679.657 131.134 680.146 131.134C680.634 131.134 681.03 130.738 681.03 130.249V118.228L684.829 122.026C685.174 122.372 685.735 122.372 686.08 122.026C686.426 121.681 686.426 121.12 686.08 120.775L680.771 115.466C680.426 115.12 679.865 115.12 679.52 115.466L674.211 120.775C673.865 121.12 673.865 121.681 674.211 122.026Z"
        fill="#A1A1AA"
      />
    </g>
  </g>
  <rect
    x="0.265453"
    y="0.265453"
    width="711.469"
    height="152.469"
    rx="16.7235"
    stroke="white"
    stroke-opacity="0.15"
    stroke-width="0.530906"
  />
  <rect
    x="0.265453"
    y="0.265453"
    width="711.469"
    height="152.469"
    rx="16.7235"
    stroke="url(#paint1_linear_528_5199)"
    stroke-width="0.530906"
  />
  <defs>
    <linearGradient
      id="paint0_linear_528_5199"
      x1="60.7741"
      y1="25.0162"
      x2="351.838"
      y2="135.968"
      gradientUnits="userSpaceOnUse"
    >
      <stop stop-color="#181818" />
      <stop offset="1" stop-color="#131313" />
    </linearGradient>
    <linearGradient
      id="paint1_linear_528_5199"
      x1="5.22546"
      y1="-1.13637e-06"
      x2="74.8805"
      y2="112.113"
      gradientUnits="userSpaceOnUse"
    >
      <stop stop-color="white" />
      <stop offset="1" stop-color="white" stop-opacity="0" />
    </linearGradient>
    <clipPath id="clip0_528_5199">
      <rect width="712" height="153" rx="16.989" fill="white" />
    </clipPath>
  </defs>
</svg>
