<svg xmlns="http://www.w3.org/2000/svg" fill="none" viewBox="0 0 712 153"><g clip-path="url(#a)"><rect width="712" height="153" fill="url(#b)" rx="17"/><path fill="#A1A1AA" d="M22.6 33.4V22.8h1.3v10.6h-1.3Zm9.1 0-2.4-7.9h1.4l1.8 6.6 1.9-6.6h1.3l1.9 6.6 1.8-6.6h1.4l-2.4 7.9h-1.6l-1.8-6-1.7 6h-1.6Zm12.4.2a3 3 0 0 1-2-.6c-.4-.4-.6-.9-.6-1.6 0-.6.2-1.2.6-1.6.4-.4 1-.6 1.8-.8l2.8-.5c0-.7-.1-1.2-.4-1.5-.3-.3-.8-.5-1.4-.5a2 2 0 0 0-1.3.4c-.3.2-.6.6-.7 1h-1.3a3 3 0 0 1 1-1.9c.6-.4 1.4-.7 2.3-.7 1 0 1.7.3 2.3.9.5.6.8 1.3.8 2.3V32.2h.7v1.2h-.2a2.6 2.6 0 0 1-1.1-.1 1 1 0 0 1-.5-.6l-.2-1h.2c0 .4-.3.7-.5 1a3 3 0 0 1-1 .6c-.4.2-.8.3-1.3.3Zm.1-1.1c.6 0 1-.1 1.4-.3a2.2 2.2 0 0 0 1.1-2v-.6l-2.5.5c-.6 0-1 .2-1.1.4a1 1 0 0 0-.3.8c0 .4.1.7.4.9.2.2.6.3 1 .3Zm6 .9v-7.9h1l.1 2-.1-.1c0-.5.2-.9.5-1.2.2-.3.5-.5.9-.6a3 3 0 0 1 1.1-.3c.6 0 1.1.2 1.5.4.4.3.7.7.9 1.1l.3 1.5v5H55v-4.6l-.1-1.2c-.2-.4-.3-.6-.6-.8-.2-.2-.5-.3-1-.3a2 2 0 0 0-1.4.6c-.4.4-.6 1-.6 1.7v4.7H50Zm10.9 0c-.8 0-1.3-.2-1.6-.5-.4-.3-.5-.8-.5-1.5v-7.7h1.2v7.6c0 .4 0 .6.2.8l.8.2h1.1v1h-1.2Zm-3.3-6.8v-1h4.5v1h-4.5Zm12.8 6.8c-.7 0-1.3-.2-1.6-.5-.3-.3-.5-.8-.5-1.5v-7.7h1.2v7.6c0 .4.1.6.3.8l.7.2h1.1v1h-1.2Zm-3.3-6.8v-1h4.5v1h-4.5Zm9 7a3.3 3.3 0 0 1-3.2-2 5 5 0 0 1-.3-2.2c0-.8.1-1.5.4-2.1a3.3 3.3 0 0 1 3.2-2c.7 0 1.3.2 1.9.5.5.4 1 .8 1.2 1.5a5 5 0 0 1 0 4.4 3.3 3.3 0 0 1-3.1 1.9Zm0-1.2a2 2 0 0 0 1.7-.8c.5-.5.7-1.2.7-2.2 0-.9-.2-1.6-.7-2a2 2 0 0 0-1.6-.9 2 2 0 0 0-1.7.8c-.4.5-.6 1.2-.6 2.1 0 1 .2 1.7.6 2.2.4.5 1 .8 1.7.8Zm12.8 1.2a3 3 0 0 1-1.4-.4c-.4-.2-.8-.6-1-1v1.2h-1.2V22.8h1.3v3.8l.9-.9c.4-.2.9-.4 1.4-.4.7 0 1.3.2 1.8.5.5.4 1 .8 1.2 1.5.3.6.4 1.3.4 2.1 0 .9-.1 1.6-.4 2.2-.3.6-.7 1.1-1.2 1.5-.5.3-1 .5-1.8.5Zm0-1.2c.6 0 1.2-.3 1.5-.8.4-.5.6-1.2.6-2.2 0-.9-.2-1.6-.6-2-.3-.6-.9-.9-1.5-.9a2.2 2.2 0 0 0-2 1.4c-.2.4-.3 1-.3 1.5 0 .6 0 1.2.2 1.6.2.4.5.8.8 1 .4.3.8.4 1.3.4Zm7.7 1.2c-.8 0-1.4-.3-1.9-.8-.4-.6-.7-1.3-.7-2.2v-5h1.3v4.6c0 .8.1 1.4.4 1.7.3.4.7.6 1.2.6.7 0 1.2-.2 1.5-.6.4-.4.5-1 .5-1.7v-4.7h1.3v7.9h-1.2v-2l.2.1c-.2.7-.5 1.2-1 1.5-.4.4-1 .6-1.6.6Zm5.8-.2v-7.9h1.2v7.9h-1.2Zm0-9.1v-1.5h1.2v1.5h-1.3Zm5 9c-.5 0-.8 0-1.1-.3-.3-.2-.5-.6-.5-1.1v-9h1.3v8.9l.1.4h1.1v1.2h-1Zm5.1.3c-.7 0-1.3-.2-1.8-.5-.5-.4-.8-.9-1.1-1.5-.3-.6-.4-1.3-.4-2.2 0-.8.1-1.5.4-2.1.3-.7.6-1.1 1.1-1.5.5-.3 1.1-.5 1.8-.5.5 0 1 .1 1.5.4.4.2.7.5 1 1v-3.9h1.2v10.6h-1.1v-1.2c-.3.4-.6.8-1 1-.5.2-1 .4-1.6.4Zm.3-1.2c.4 0 .8-.1 1.1-.4.4-.2.6-.6.8-1 .2-.4.2-1 .2-1.6 0-.6 0-1-.2-1.5a2 2 0 0 0-.8-1c-.3-.3-.7-.4-1.1-.4a2 2 0 0 0-1.7.8c-.4.5-.6 1.2-.6 2.1 0 1 .2 1.7.6 2.2.4.5 1 .8 1.7.8Zm11.6 1.2a3 3 0 0 1-2-.6c-.4-.4-.7-.9-.7-1.6 0-.6.2-1.2.6-1.6.4-.4 1-.6 2-.8l2.7-.5c0-.7-.1-1.2-.5-1.5-.3-.3-.7-.5-1.4-.5a2 2 0 0 0-1.2.4c-.4.2-.6.6-.7 1h-1.3a3 3 0 0 1 1-1.9c.6-.4 1.4-.7 2.2-.7 1 0 1.8.3 2.4.9.5.6.8 1.3.8 2.3V32.2h.7v1.2h-.2a2.6 2.6 0 0 1-1.2-.1 1 1 0 0 1-.4-.6l-.2-1h.2l-.5 1a3 3 0 0 1-1 .6c-.4.2-.9.3-1.3.3Zm.1-1.1c.5 0 1-.1 1.4-.3a2.2 2.2 0 0 0 1.1-2v-.6l-2.5.5c-.6 0-1 .2-1.2.4a1 1 0 0 0-.3.8c0 .4.2.7.4.9.3.2.7.3 1.1.3Zm9.7.9v-7.9h1.1v2h-.1c0-.5.2-.9.5-1.2a2.3 2.3 0 0 1 1.9-1c.7 0 1.2.2 1.6.6.5.4.7.9.9 1.6h-.3c0-.5.2-.9.4-1.2l.9-.7c.3-.2.7-.3 1.1-.3.6 0 1 .1 1.5.4.4.2.6.6.8 1 .2.4.3 1 .3 1.6v5h-1.2v-4.7c0-.7-.1-1.3-.4-1.6-.3-.4-.7-.6-1.3-.6l-1 .3-.6.8a3 3 0 0 0-.2 1.2v4.7h-1.2v-4.7c0-.7-.1-1.3-.4-1.7-.2-.4-.7-.6-1.2-.6-.4 0-.7.1-1 .3-.3.2-.5.4-.6.8a3 3 0 0 0-.3 1.2v4.7h-1.2Zm16 .2c-.8 0-1.4-.2-2-.5-.5-.4-1-.9-1.2-1.5a5 5 0 0 1-.5-2.2c0-.8.2-1.5.5-2.1a3.3 3.3 0 0 1 3.1-2c.7 0 1.4.2 2 .5.5.4.9.8 1.2 1.5.3.6.4 1.3.4 2.1a5 5 0 0 1-.4 2.2 3.3 3.3 0 0 1-3.2 2Zm0-1.2a2 2 0 0 0 1.6-.8c.4-.5.6-1.2.6-2.2 0-.9-.2-1.6-.6-2a2 2 0 0 0-1.7-.9 2 2 0 0 0-1.7.8c-.4.5-.6 1.2-.6 2.1 0 1 .2 1.7.6 2.2.4.5 1 .8 1.7.8Zm8.8 1.2a3 3 0 0 1-1.4-.4c-.5-.2-.8-.6-1-1v1.2h-1.2V22.8h1.3v3.8l.9-.9c.4-.2.9-.4 1.4-.4.7 0 1.3.2 1.8.5.5.4 1 .8 1.2 1.5.3.6.4 1.3.4 2.1 0 .9-.1 1.6-.4 2.2-.3.6-.7 1.1-1.2 1.5-.5.3-1 .5-1.8.5Zm0-1.2c.6 0 1.1-.3 1.5-.8.4-.5.6-1.2.6-2.2 0-.9-.2-1.6-.6-2-.4-.6-.9-.9-1.5-.9a2.2 2.2 0 0 0-2 1.4 4.2 4.2 0 0 0 0 3.1c.1.4.4.8.7 1 .4.3.8.4 1.3.4Zm5.1 1v-7.9h1.3v7.9h-1.3Zm0-9.1v-1.5h1.3v1.5h-1.3Zm5 9c-.4 0-.8 0-1-.3-.4-.2-.5-.6-.5-1.1v-9h1.2v8.9c0 .2 0 .3.2.4h1v1.2h-.9Zm5.5.3c-.8 0-1.4-.2-2-.5-.5-.4-1-.9-1.2-1.5-.3-.6-.5-1.3-.5-2.2 0-.8.2-1.5.5-2.1.3-.6.7-1.1 1.2-1.4.5-.4 1.2-.6 1.9-.6s1.3.2 1.8.5 1 .8 1.2 1.4c.3.6.5 1.4.5 2.3v.3h-5.8c.1.9.3 1.5.7 2 .4.4 1 .6 1.7.6.5 0 .9-.1 1.2-.4.4-.2.6-.5.7-1l1.4.2c-.3.7-.7 1.2-1.2 1.7-.6.4-1.3.7-2.1.7Zm-2.4-4.9h4.4c0-.7-.3-1.3-.7-1.6a2 2 0 0 0-1.4-.6 2 2 0 0 0-1.5.6c-.4.4-.6.9-.8 1.6Zm13.4 4.9a3 3 0 0 1-1.9-.6c-.5-.4-.7-.9-.7-1.6 0-.6.2-1.2.6-1.6.4-.4 1-.6 1.9-.8l2.8-.5c0-.7-.2-1.2-.5-1.5-.3-.3-.8-.5-1.4-.5a2 2 0 0 0-1.3.4c-.3.2-.5.6-.7 1h-1.3a3 3 0 0 1 1-1.9c.7-.4 1.4-.7 2.3-.7 1 0 1.8.3 2.3.9.5.6.8 1.3.8 2.3v3.3l.1.4h.6v1.2h-.2a2.6 2.6 0 0 1-1.1-.1 1 1 0 0 1-.5-.6l-.1-1h.1c0 .4-.2.7-.5 1a3 3 0 0 1-1 .6c-.4.2-.8.3-1.3.3Zm.2-1.1c.5 0 1-.1 1.3-.3a2.2 2.2 0 0 0 1.2-2v-.6l-2.6.5c-.5 0-.9.2-1.1.4a1 1 0 0 0-.3.8c0 .4.1.7.4.9.3.2.6.3 1 .3Zm5.9 3.1v-10h1.1v1.6h-.1c.2-.7.5-1.1 1-1.4.4-.3 1-.5 1.5-.5a3 3 0 0 1 2 .6c.5.4.8.9 1 1.5.3.7.5 1.3.5 2 0 .8-.2 1.4-.4 2-.3.7-.6 1.2-1.1 1.6a3 3 0 0 1-2 .6l-1-.2-1-.6a2 2 0 0 1-.5-.9l.2-.2v4h-1.2Zm3.4-3.2a2 2 0 0 0 1.7-.8c.3-.5.5-1.2.5-2.2 0-.9-.2-1.6-.5-2.1a2 2 0 0 0-1.7-.8l-1.2.3-.7 1c-.2.5-.3 1-.3 1.6 0 .7 0 1.2.3 1.7.1.4.4.7.7 1l1.2.3Zm5.2 3.2v-10h1.2v1.6h-.1c.2-.7.5-1.1 1-1.4.4-.3 1-.5 1.5-.5a3 3 0 0 1 2 .6c.5.4.8.9 1 1.5.3.7.5 1.3.5 2 0 .8-.2 1.4-.4 2-.3.7-.6 1.2-1.1 1.6a3 3 0 0 1-2 .6l-1.1-.2-.9-.6a2 2 0 0 1-.5-.9l.2-.2v4h-1.3Zm3.5-3.2a2 2 0 0 0 1.6-.8c.4-.5.6-1.2.6-2.2 0-.9-.2-1.6-.6-2.1a2 2 0 0 0-1.6-.8l-1.2.3-.7 1c-.2.5-.3 1-.3 1.6 0 .7 0 1.2.3 1.7.1.4.4.7.7 1l1.2.3Zm9.9 1v-8.6c0-.6.1-1 .5-1.4.3-.4.8-.6 1.6-.6h1.2V24H216c-.3 0-.5.1-.7.3a1 1 0 0 0-.2.7v8.5H214Zm-1-6.8v-1h4.2v1h-4.3Zm8.5 7c-.7 0-1.4-.2-2-.5-.5-.4-.9-.9-1.2-1.5a5 5 0 0 1-.4-2.2c0-.8.1-1.5.4-2.1a3.4 3.4 0 0 1 3.2-2c.7 0 1.3.2 1.9.5.5.4 1 .8 1.2 1.5a5 5 0 0 1 0 4.4 3.3 3.3 0 0 1-3.1 1.9Zm0-1.2a2 2 0 0 0 1.7-.8c.4-.5.6-1.2.6-2.2 0-.9-.2-1.6-.6-2a2 2 0 0 0-1.7-.9 2 2 0 0 0-1.7.8c-.4.5-.6 1.2-.6 2.1 0 1 .2 1.7.6 2.2.4.5 1 .8 1.7.8Zm5.3 1v-7.9h1l.2 2h-.2c.1-.7.3-1.2.7-1.5.3-.3.8-.5 1.3-.5h.8v1.2h-.8a2 2 0 0 0-1 .2l-.6.7-.2 1v4.8h-1.2Zm10.1 0v-8.6c0-.6.2-1 .5-1.4.4-.4.9-.6 1.6-.6h1.2V24H239c-.3 0-.6.1-.7.3a1 1 0 0 0-.2.7v8.5h-1.3Zm-1-6.8v-1h4.2v1h-4.3Zm5.9 6.8v-7.9h1.2v7.9h-1.2Zm0-9.1v-1.5h1.3v1.5h-1.4Zm5.9 9c-.7 0-1.3 0-1.6-.4-.3-.3-.5-.8-.5-1.5v-7.7h1.2v7.6c0 .4.1.6.3.8l.7.2h1.1v1h-1.2Zm-3.3-6.7v-1h4.5v1h-4.5Zm6.3 6.8v-7.9h1.1v2-.1c0-.5.2-.9.5-1.2.2-.3.5-.5.9-.6a3 3 0 0 1 1.1-.3c.6 0 1.1.2 1.5.4.4.3.7.7.9 1.1l.3 1.5v5h-1.3v-4.6c0-.5 0-1-.2-1.2 0-.4-.3-.6-.5-.8-.2-.2-.6-.3-1-.3a2 2 0 0 0-1.5.6c-.4.4-.5 1-.5 1.7v4.7h-1.3Zm11.5.2c-.7 0-1.3-.2-1.9-.5-.5-.4-1-.9-1.2-1.5-.3-.6-.5-1.3-.5-2.2 0-.8.2-1.5.5-2.1.3-.6.7-1.1 1.2-1.4.5-.4 1.2-.6 1.9-.6s1.3.2 1.8.5 1 .8 1.2 1.4c.3.6.5 1.4.5 2.3v.3h-5.8c0 .9.3 1.5.7 2 .4.4 1 .6 1.6.6.6 0 1-.1 1.3-.4.3-.2.6-.5.7-1l1.3.2c-.2.7-.6 1.2-1.1 1.7-.6.4-1.3.7-2.2.7Zm-2.3-4.9h4.4c0-.7-.3-1.3-.7-1.6a2 2 0 0 0-1.4-.6 2 2 0 0 0-1.5.6c-.4.4-.7.9-.8 1.6Zm10.3 4.9c-.7 0-1.3-.1-1.8-.4-.5-.2-.8-.5-1.1-1-.3-.3-.4-.8-.5-1.3h1.3c.1.4.3.8.6 1 .4.3.9.5 1.5.5s1-.1 1.3-.3c.3-.2.5-.4.5-.8 0-.2 0-.4-.2-.5 0-.2-.2-.3-.5-.4l-1.3-.3-1.8-.5-1-.8-.2-1c0-.8.3-1.3.8-1.8.5-.4 1.2-.7 2.2-.7.6 0 1.2.1 1.6.4.5.2.8.5 1 1 .3.3.5.7.6 1.2h-1.4c0-.2-.1-.5-.3-.7-.1-.2-.3-.4-.6-.5a2 2 0 0 0-1-.2c-.5 0-1 .1-1.2.3a1 1 0 0 0-.4.9c0 .2 0 .5.2.6.1.2.3.3.6.4l1.1.3c.8.1 1.4.3 1.9.5.4.2.8.4 1 .7l.2 1c0 .6-.1 1-.4 1.3-.3.4-.7.6-1.1.8-.5.2-1 .3-1.6.3Zm7.7 0c-.7 0-1.3-.1-1.8-.4-.5-.2-.9-.5-1.2-1-.2-.3-.4-.8-.4-1.3h1.3c0 .4.3.8.6 1 .3.3.8.5 1.5.5.5 0 1-.1 1.3-.3.3-.2.4-.4.4-.8l-.1-.5c-.1-.2-.3-.3-.6-.4l-1.3-.3-1.7-.5c-.5-.2-.8-.5-1-.8l-.2-1c0-.8.2-1.3.7-1.8.6-.4 1.3-.7 2.2-.7.7 0 1.2.1 1.7.4.4.2.7.5 1 1 .3.3.4.7.5 1.2h-1.3l-.3-.7-.7-.5a2 2 0 0 0-.9-.2c-.5 0-1 .1-1.2.3a1 1 0 0 0-.4.9l.1.6.7.4 1 .3c.9.1 1.5.3 2 .5.4.2.7.4.9.7a2 2 0 0 1-.1 2.3c-.3.4-.7.6-1.2.8-.4.2-1 .3-1.5.3Zm11.5-.2c-.7 0-1.2-.2-1.6-.5-.3-.3-.5-.8-.5-1.5v-7.7h1.3v7.6c0 .4 0 .6.2.8l.7.2h1.1v1h-1.2Zm-3.3-6.8v-1h4.5v1H286Zm6.3 6.8v-7.9h1.1v2c0-.7.3-1.2.6-1.5.3-.3.8-.5 1.3-.5h.8v1.2h-.8a2 2 0 0 0-1 .2l-.5.7c-.2.2-.2.6-.2 1v4.8h-1.3Zm7.2.2c-.8 0-1.5-.2-2-.6-.4-.4-.7-.9-.7-1.6 0-.6.2-1.2.6-1.6.4-.4 1-.6 1.9-.8l2.8-.5c0-.7-.2-1.2-.5-1.5-.3-.3-.8-.5-1.4-.5a2 2 0 0 0-1.3.4c-.3.2-.5.6-.6 1h-1.4A3 3 0 0 1 298 26c.6-.4 1.3-.7 2.2-.7 1 0 1.8.3 2.3.9.6.6.8 1.3.8 2.3v3.3l.1.4h.7v1.2h-.2a2.6 2.6 0 0 1-1.2-.1 1 1 0 0 1-.5-.6l-.1-1h.1c0 .4-.2.7-.5 1a3 3 0 0 1-1 .6l-1.2.3Zm0-1.1c.6 0 1-.1 1.4-.3a2.2 2.2 0 0 0 1.2-2v-.6l-2.6.5c-.5 0-.9.2-1 .4a1 1 0 0 0-.4.8c0 .4.1.7.4.9.3.2.6.3 1 .3Zm9 1c-.7 0-1.3-.1-1.9-.4-.5-.4-1-.9-1.2-1.5a5 5 0 0 1-.5-2.2c0-.8.2-1.5.5-2.1a3.4 3.4 0 0 1 3.1-2c.6 0 1.2.1 1.6.4.5.2.9.5 1.2.9.3.4.5.9.6 1.5h-1.3c-.1-.5-.4-.9-.7-1.1-.4-.3-.8-.5-1.4-.5a2 2 0 0 0-1.7.8c-.4.5-.6 1.2-.6 2.1 0 1 .2 1.7.6 2.2.4.5 1 .8 1.7.8.6 0 1-.2 1.4-.5.3-.3.6-.7.7-1.3h1.3c-.1.7-.3 1.2-.6 1.6a3 3 0 0 1-1.2 1c-.4.2-1 .4-1.6.4Zm5-.1V22.8h1.2v7l3.8-4.3h1.7L317 29l3.2 4.5h-1.5l-2.6-3.7-1.5 1.6v2h-1.3Zm8 0v-7.9h1.2v7.9h-1.3Zm0-9.1v-1.5h1.2v1.5h-1.3Zm3.7 9v-7.8h1.2v2l-.1-.1c0-.5.2-.9.5-1.2.2-.3.5-.5.9-.6a3 3 0 0 1 1.1-.3c.6 0 1.1.2 1.5.4.4.3.7.7.9 1.1l.3 1.5v5h-1.3v-4.6l-.1-1.2c-.2-.4-.3-.6-.6-.8-.2-.2-.6-.3-1-.3a2 2 0 0 0-1.5.6c-.3.4-.5 1-.5 1.7v4.7h-1.3Zm11.5 2.5c-.6 0-1.1-.1-1.6-.3a3 3 0 0 1-1.1-.8c-.3-.3-.5-.7-.6-1.2h1.3c.1.3.3.6.6.8.3.2.8.3 1.4.3.7 0 1.2-.1 1.6-.4.4-.3.6-.7.6-1.3v-1.3c-.2.4-.5.8-1 1-.3.2-.8.4-1.3.4a3.3 3.3 0 0 1-3-1.9c-.3-.5-.5-1.2-.5-2 0-.7.2-1.4.5-2 .3-.5.7-1 1.2-1.3a3.2 3.2 0 0 1 3.2 0c.5.2.8.5 1 1v-1.3h1.1V33a2.6 2.6 0 0 1-1.6 2.6c-.5.2-1.1.3-1.8.3Zm0-4a2 2 0 0 0 1.6-.7 3 3 0 0 0 .6-2c0-.5 0-1-.3-1.3a2 2 0 0 0-.8-1c-.3-.2-.7-.3-1.2-.3a2 2 0 0 0-1.6.7 3 3 0 0 0-.5 2c0 .8.1 1.4.5 1.9.4.4 1 .7 1.6.7Zm5.3 1.6v-1.7h1.7v1.7H342Zm3 0v-1.7h1.6v1.7H345Zm3 0v-1.7h1.6v1.7H348Z"/><path stroke="#fff" stroke-width="1.4" d="M20.7 17.7v21"/><g opacity=".4"><rect width="38.2" height="38.2" x="661" y="104.1" fill="#27272A" rx="10.6"/><path fill="#A1A1AA" fill-rule="evenodd" d="M674.2 122c.4.4 1 .4 1.3 0l3.8-3.8v12a.9.9 0 1 0 1.7 0v-12l3.8 3.8a.9.9 0 1 0 1.3-1.2l-5.3-5.3a.9.9 0 0 0-1.3 0l-5.3 5.3c-.3.3-.3.9 0 1.2Z" clip-rule="evenodd"/></g></g><rect width="711.5" height="152.5" x=".3" y=".3" stroke="#fff" stroke-opacity=".1" stroke-width=".5" rx="16.7"/><rect width="711.5" height="152.5" x=".3" y=".3" stroke="url(#c)" stroke-width=".5" rx="16.7"/><defs><linearGradient id="b" x1="60.8" x2="351.8" y1="25" y2="136" gradientUnits="userSpaceOnUse"><stop stop-color="#181818"/><stop offset="1" stop-color="#131313"/></linearGradient><linearGradient id="c" x1="5.2" x2="74.9" y1="0" y2="112.1" gradientUnits="userSpaceOnUse"><stop stop-color="#fff"/><stop offset="1" stop-color="#fff" stop-opacity="0"/></linearGradient><clipPath id="a"><rect width="712" height="153" fill="#fff" rx="17"/></clipPath></defs></svg>