<svg xmlns="http://www.w3.org/2000/svg" fill="none" viewBox="0 0 628 320"><g filter="url(#a)"><rect width="551" height="298" x="11" y="2" fill="url(#b)" rx="10.8" shape-rendering="crispEdges"/><rect width="550" height="297" x="11.5" y="2.5" stroke="url(#c)" stroke-opacity=".1" rx="10.3" shape-rendering="crispEdges"/><path fill="#60A5FA" d="M84.7 58.4H147v21.3H84.7z"/><path fill="#A1A1AA" d="M31 28V16.6h5c.9 0 1.6.1 2.2.4.6.3 1 .7 1.4 1.2.4.5.5 1.1.5 1.8a2.9 2.9 0 0 1-2.5 2.9v-.2c.7 0 1.3.2 1.7.5.4.4.6.9.7 1.5l.2 3.3h-2.5l-.2-2.9c0-.4-.1-.7-.4-1-.2-.1-.6-.3-1.2-.3h-2.5V28H31Zm2.4-6.2h2.3c.6 0 1-.1 1.4-.4.3-.3.5-.7.5-1.2s-.2-.9-.5-1.1c-.3-.3-.8-.4-1.4-.4h-2.3v3.1Zm12.3 6.4c-.9 0-1.6-.1-2.3-.5A4 4 0 0 1 42 26a5 5 0 0 1-.5-2.4c0-.9.1-1.7.5-2.4a4 4 0 0 1 1.5-1.5c.7-.4 1.4-.6 2.3-.6.9 0 1.6.2 2.2.6.7.3 1.2.9 1.5 1.6.4.7.5 1.5.5 2.5v.5h-6c0 .6.2 1.2.5 1.5.4.3.8.5 1.4.5.4 0 .7 0 1-.3.3-.1.5-.4.6-.8l2.4.2c-.2.9-.7 1.5-1.4 2s-1.6.7-2.7.7ZM44 23h3.6c0-.7-.2-1.1-.6-1.4-.3-.4-.7-.5-1.2-.5s-1 .2-1.3.5c-.3.3-.5.8-.5 1.4Zm15.6 7.6h-2.4v-4.3l.2.1c0 .4-.3.8-.5 1a2.8 2.8 0 0 1-2.2 1c-.8 0-1.4-.3-2-.7-.5-.4-1-.9-1.2-1.6-.3-.7-.4-1.4-.4-2.3 0-.8.1-1.6.4-2.3.3-.7.7-1.2 1.2-1.6.5-.4 1.2-.6 2-.6a2.7 2.7 0 0 1 2.7 2h-.1v-1.8h2.3v11Zm-4.2-4.1c.4 0 .7-.1 1-.3.3-.2.5-.5.6-1l.2-1.4c0-.6 0-1-.2-1.5l-.6-.8c-.3-.2-.6-.3-1-.3-.6 0-1 .2-1.4.7-.3.4-.4 1-.4 2 0 .7.1 1.4.4 1.9.4.4.8.7 1.4.7Zm9.2 1.8c-.9 0-1.6-.3-2-.8-.6-.6-.8-1.4-.8-2.4v-5.6H64v5c0 .7 0 1.2.3 1.5.2.3.5.4 1 .4s.8-.2 1.1-.5c.3-.3.4-.8.4-1.5v-5h2.4V28h-2.2v-2.4h.3c-.1.9-.5 1.5-1 2-.4.4-1 .6-1.9.6Zm6.8-.2v-8.6h2.5V28h-2.5Zm0-9.7v-2h2.5v2h-2.5ZM76 28v-8.6h2.3v2.5h-.1c.1-1 .4-1.5.7-2 .4-.3.9-.5 1.5-.5h.8v2h-.8a3 3 0 0 0-1.1.2c-.3 0-.5.3-.7.5l-.2 1v5H76Zm10 .2c-.8 0-1.6-.1-2.2-.5a4 4 0 0 1-1.5-1.6 5 5 0 0 1-.6-2.4c0-.9.2-1.7.6-2.4a4 4 0 0 1 1.5-1.5c.6-.4 1.4-.6 2.3-.6.8 0 1.6.2 2.2.6.6.3 1.1.9 1.5 1.6.3.7.5 1.5.5 2.5v.5h-6c0 .6.1 1.2.5 1.5.3.3.8.5 1.3.5.4 0 .8 0 1-.3.3-.1.5-.4.6-.8l2.5.2c-.2.9-.7 1.5-1.4 2-.8.5-1.7.7-2.7.7ZM84.3 23h3.6c0-.7-.2-1.1-.5-1.4-.3-.4-.7-.5-1.2-.5s-1 .2-1.3.5c-.3.3-.5.8-.6 1.4Zm7.6 5.1v-8.6H94v2h-.2c.2-.5.3-.9.6-1.2.2-.3.5-.6.9-.7.3-.2.7-.3 1-.3.8 0 1.4.2 1.8.6.5.4.8 1 1 1.7h-.4l.5-1.2c.2-.4.5-.7.9-.8l1.2-.3a3 3 0 0 1 1.5.4c.5.2.8.6 1 1 .3.6.4 1.2.4 1.9V28h-2.4v-4.8a3 3 0 0 0-.3-1.6c-.2-.3-.6-.5-1-.5-.3 0-.6.1-.8.3-.2.1-.3.4-.5.7l-.1 1v5h-2.2v-5c0-.6 0-1-.3-1.4-.2-.4-.5-.6-1-.6-.3 0-.5.1-.7.3-.2.1-.4.4-.5.7l-.2 1v5h-2.4Zm18.2.2c-.9 0-1.6-.1-2.3-.5a4 4 0 0 1-1.5-1.6 5 5 0 0 1-.5-2.4c0-.9.1-1.7.5-2.4a4 4 0 0 1 1.5-1.5c.7-.4 1.4-.6 2.3-.6.9 0 1.6.2 2.2.6.7.3 1.2.9 1.5 1.6.4.7.5 1.5.5 2.5v.5h-6c0 .6.2 1.2.5 1.5.4.3.8.5 1.4.5.4 0 .7 0 1-.3.3-.1.5-.4.6-.8l2.4.2c-.2.9-.7 1.5-1.4 2s-1.6.7-2.7.7Zm-1.8-5.3h3.6c0-.7-.2-1.1-.6-1.4-.3-.4-.7-.5-1.2-.5s-1 .2-1.3.5c-.3.3-.5.8-.5 1.4Zm7.5 5.1v-8.6h2.2l.1 2.5h-.3c.1-.7.3-1.2.5-1.6.3-.4.6-.7 1-.8.4-.2.9-.3 1.3-.3a3 3 0 0 1 1.6.4c.5.3.8.7 1 1.1.3.5.4 1.1.4 1.8V28H121v-4.7c0-.5 0-.9-.2-1.2 0-.3-.2-.6-.4-.7-.2-.2-.4-.3-.8-.3-.5 0-.9.2-1.1.6-.3.3-.4.9-.4 1.6V28h-2.5Zm13 0c-1 0-1.6-.2-2-.6-.5-.4-.7-1-.7-2v-8h2.4v7.8c0 .4.1.7.3.8.2.2.5.2.8.2h1.2V28h-2Zm-4-6.8v-1.8h6v1.8h-6Zm11 7a6 6 0 0 1-2.2-.3c-.6-.3-1.1-.6-1.4-1a3 3 0 0 1-.6-1.6h2.5c0 .3.2.7.5.9.3.2.7.3 1.2.3.4 0 .8 0 1-.2.2-.1.4-.3.4-.6 0-.2 0-.4-.2-.5l-.5-.3-1-.3c-1-.1-1.7-.3-2.2-.5-.6-.2-1-.5-1.1-.9-.2-.3-.4-.7-.4-1.2 0-.9.4-1.5 1-2s1.6-.8 2.9-.8c.8 0 1.5.1 2 .4.6.2 1 .6 1.3 1 .3.5.5 1 .6 1.6h-2.4c0-.2-.1-.5-.3-.6-.1-.3-.3-.4-.5-.5l-.7-.2c-.5 0-.8.1-1 .3-.3.2-.4.4-.4.7 0 .2 0 .4.2.5l.5.3 1 .2 2.1.6c.6.2 1 .5 1.2.8.3.4.4.8.4 1.3 0 .6-.2 1-.5 1.4a3 3 0 0 1-1.4 1 6 6 0 0 1-2 .2Zm8.4-.2 4.2-11.4h2.9l4.1 11.4h-2.6l-.8-2.4h-4.4l-.8 2.4H144Zm4.1-4.4h3l-1.5-4.4-1.5 4.4Zm8.2 4.4v-8.6h2.1l.1 2.5h-.3c.1-.7.3-1.2.5-1.6.3-.4.6-.7 1-.8.4-.2.9-.3 1.4-.3a3 3 0 0 1 1.5.4c.5.3.8.7 1 1.1.3.5.4 1.1.4 1.8V28h-2.4v-4.7l-.1-1.2-.4-.7c-.2-.2-.5-.3-.9-.3-.5 0-.8.2-1.1.6-.3.3-.4.9-.4 1.6V28h-2.4Zm12.2.2c-1 0-1.6-.2-2.2-.6a2 2 0 0 1-.8-1.7c0-.8.2-1.4.7-1.8.4-.4 1.2-.7 2-.9l2.9-.5c0-.6-.1-1-.4-1.3-.3-.3-.6-.4-1-.4-.5 0-1 0-1.2.3-.2.2-.4.5-.5.9l-2.4-.1c.2-1 .6-1.7 1.3-2.2.7-.5 1.6-.7 2.7-.7 1.3 0 2.3.3 3 1 .6.5.9 1.4.9 2.6v3l.1.5H174.3V28l-.3.1h-.5l-1-.1-.7-.6c-.2-.3-.3-.7-.3-1.3l.2.2c0 .4-.3.7-.5 1l-1.1.7c-.4.2-1 .2-1.5.2Zm.6-1.6c.4 0 .7-.1 1-.3.3-.1.6-.3.7-.6.2-.3.3-.7.3-1.1v-.4l-2 .4c-.4 0-.7.2-.9.4-.2.1-.3.4-.3.7 0 .2.1.5.3.6.2.2.5.3.9.3Zm8.5 1.4c-.7 0-1.3-.1-1.7-.5-.4-.3-.6-1-.6-1.7v-9.2h2.5v9l.1.5.6.1h.5V28h-1.4Zm3 2.5v-1.8h1.1c.3 0 .5 0 .6-.2.2 0 .3-.2.3-.4l.2-.5h-.6l-3-8.2h2.4l2 6 1.8-6h2.5l-3.3 9.5c-.2.5-.5 1-.9 1.2-.3.2-.8.4-1.5.4h-1.6Zm12-2.3a6 6 0 0 1-2.3-.3c-.6-.3-1-.6-1.4-1a3 3 0 0 1-.5-1.6h2.4l.5.9c.3.2.7.3 1.2.3s.8 0 1-.2c.3-.1.4-.3.4-.6l-.1-.5-.5-.3-1.1-.3c-1-.1-1.7-.3-2.2-.5-.5-.2-.9-.5-1-.9-.3-.3-.4-.7-.4-1.2 0-.9.3-1.5 1-2 .6-.5 1.5-.8 2.8-.8.8 0 1.5.1 2 .4.6.2 1 .6 1.4 1 .3.5.5 1 .5 1.6H194l-.2-.6-.5-.5-.8-.2c-.4 0-.8.1-1 .3-.2.2-.3.4-.3.7l.1.5.5.3 1 .2 2.2.6c.5.2 1 .5 1.2.8.2.4.3.8.3 1.3 0 .6-.2 1-.5 1.4a3 3 0 0 1-1.3 1 6 6 0 0 1-2 .2Zm5.3-.2v-8.6h2.4V28H198Zm0-9.7v-2h2.5v2H198Zm8 10a6 6 0 0 1-2.2-.4c-.6-.3-1-.6-1.4-1a3 3 0 0 1-.5-1.6h2.5c0 .3.2.7.5.9.3.2.7.3 1.2.3.4 0 .7 0 1-.2.2-.1.3-.3.3-.6v-.5l-.6-.3-1.1-.3c-1-.1-1.6-.3-2.2-.5-.5-.2-.8-.5-1-.9-.3-.3-.4-.7-.4-1.2 0-.9.3-1.5 1-2 .6-.5 1.6-.8 2.9-.8.8 0 1.5.1 2 .4.6.2 1 .6 1.3 1 .3.5.5 1 .6 1.6h-2.5c0-.2 0-.5-.2-.6-.1-.3-.3-.4-.5-.5l-.8-.2c-.4 0-.7.1-1 .3-.2.2-.3.4-.3.7 0 .2 0 .4.2.5l.5.3 1 .2 2.1.6c.6.2 1 .5 1.2.8.2.4.4.8.4 1.3 0 .6-.2 1-.5 1.4a3 3 0 0 1-1.4 1 6 6 0 0 1-2 .2Zm9.4-.3V16.6h5c.9 0 1.6.1 2.2.4a3.2 3.2 0 0 1 2 3A2.9 2.9 0 0 1 222 23v-.2c.7 0 1.3.2 1.7.5.4.4.6.9.7 1.5l.2 3.3h-2.5l-.2-2.9c0-.4-.1-.7-.4-1-.2-.1-.6-.3-1.2-.3h-2.4V28h-2.5Zm2.5-6.2h2.2c.6 0 1-.1 1.4-.4.3-.3.5-.7.5-1.2s-.2-.9-.5-1.1c-.3-.3-.8-.4-1.4-.4h-2.2v3.1Zm12.2 6.4c-.9 0-1.6-.1-2.3-.5a4 4 0 0 1-1.5-1.6 5 5 0 0 1-.5-2.4c0-.9.1-1.7.5-2.4a4 4 0 0 1 1.5-1.5c.7-.4 1.4-.6 2.3-.6.9 0 1.6.2 2.3.6.6.3 1 .9 1.4 1.6.4.7.6 1.5.6 2.5v.5h-6.1c0 .6.2 1.2.5 1.5.4.3.8.5 1.4.5.4 0 .7 0 1-.3.3-.1.5-.4.6-.8l2.4.2c-.2.9-.7 1.5-1.4 2s-1.6.7-2.7.7Zm-1.8-5.3h3.6c0-.7-.2-1.1-.6-1.4-.3-.4-.7-.5-1.2-.5s-1 .2-1.2.5c-.4.3-.6.8-.6 1.4Zm7.5 7.6V19.4h2.4v1.8h-.2c.2-.7.6-1.2 1-1.5a3 3 0 0 1 1.8-.5c.8 0 1.4.2 2 .6.5.4 1 1 1.2 1.6.3.7.4 1.5.4 2.3a6 6 0 0 1-.4 2.3c-.3.7-.7 1.2-1.2 1.6-.6.4-1.2.6-2 .6a3 3 0 0 1-1.2-.2 2.5 2.5 0 0 1-1.5-1.7h.2v4.2h-2.5Zm4.3-4.1c.6 0 1-.3 1.3-.7.4-.5.5-1.2.5-2s-.1-1.5-.5-2c-.3-.4-.7-.6-1.3-.6-.4 0-.7 0-1 .3-.3.2-.5.5-.6.8-.2.4-.2 1-.2 1.5 0 .6 0 1 .2 1.5.1.4.3.7.6.9.3.2.6.3 1 .3Zm9.7 1.8c-.8 0-1.6-.1-2.3-.5A4 4 0 0 1 246 26a5 5 0 0 1-.6-2.4c0-.9.2-1.7.6-2.4a4 4 0 0 1 1.5-1.5c.7-.4 1.5-.6 2.3-.6 1 0 1.7.2 2.3.6a4 4 0 0 1 1.6 1.5c.3.7.5 1.5.5 2.4a5 5 0 0 1-.5 2.4 4 4 0 0 1-1.6 1.6c-.6.4-1.4.5-2.3.5Zm0-1.8c.6 0 1.1-.3 1.4-.7.4-.5.5-1.1.5-2 0-.8-.1-1.5-.5-2-.3-.4-.8-.6-1.4-.6-.6 0-1 .2-1.4.7-.3.4-.5 1-.5 2 0 .8.2 1.4.5 1.9.4.4.8.7 1.4.7Zm6 1.6v-8.6h2.2l.1 2.5h-.2c.2-1 .4-1.5.8-2 .3-.3.8-.5 1.4-.5h.8v2h-.8a3 3 0 0 0-1 .2c-.4 0-.6.3-.7.5-.2.3-.2.6-.2 1v5h-2.5Zm9.8 0c-.8 0-1.5-.2-2-.6-.3-.4-.5-1-.5-2v-8h2.4v7.8c0 .4 0 .7.2.8.2.2.5.2.8.2h1.2V28h-2Zm-4-6.8v-1.8h6.1v1.8h-6Z"/><rect width="34.7" height="17" x="272.8" y="14.5" fill="#27272A" rx="8.5"/><rect width="34.3" height="16.6" x="273" y="14.7" stroke="#E4E4E7" stroke-opacity=".1" stroke-width=".4" rx="8.3"/><path fill="#fff" d="M278.7 26.5v-8h5v1h-4.5l.5-.5v3.7l-.5-.5h4.3v.9h-4.3l.5-.5v4h-1Zm6.3 0v-6h1v6h-1Zm0-6.9v-1h1v1h-1Zm2.9 7v-6h.8V22 22c0-.4.2-.7.3-.9l.7-.5.9-.2a1.8 1.8 0 0 1 1.8 1.1l.2 1.2v3.8h-1V22a1 1 0 0 0-.5-.5c-.2-.2-.4-.2-.7-.2-.5 0-.8.1-1.1.4-.3.3-.5.7-.5 1.3v3.5h-1Zm8 0c-.6 0-1 0-1.4-.4-.4-.2-.6-.6-.6-1.2 0-.5.2-.9.5-1.2.3-.3.7-.5 1.4-.6l2.1-.4c0-.5-.1-.9-.3-1.1-.3-.3-.6-.4-1.1-.4-.4 0-.7.1-1 .3-.2.2-.4.4-.5.8h-1c.1-.7.4-1.1.8-1.5.5-.3 1-.5 1.7-.5.8 0 1.4.2 1.8.7.4.4.6 1 .6 1.8V25.6l.3.1h.2v.8h-.1a2 2 0 0 1-1 0 .8.8 0 0 1-.3-.5 2 2 0 0 1 0-.7c0 .3-.1.5-.4.7l-.7.5-1 .2Zm.1-.8c.4 0 .8 0 1-.2a1.7 1.7 0 0 0 1-1.5v-.5l-2 .4c-.4 0-.7.2-.9.4l-.2.6c0 .2.1.5.3.6.2.2.5.2.8.2Zm5.6.7c-.3 0-.6 0-.8-.2-.3-.2-.4-.5-.4-.9v-6.9h1v7.1l.4.1h.5v.8h-.7Z"/><rect width="579" height="8" x="38" y="93.3" fill="url(#d)" fill-opacity=".1" rx="4"/><rect width="570" height="8" x="38" y="118.3" fill="url(#e)" fill-opacity=".1" rx="4"/><rect width="311" height="8" x="38" y="141.3" fill="url(#f)" fill-opacity=".1" rx="4"/><path stroke="#fff" stroke-opacity=".1" stroke-width=".6" d="M11 39.7h551"/><path fill="#A1A1AA" d="M37.5 73.3v-1.5h5.9v1.5h-5.9Zm2.1 0v-6.5h-2v-1.3h.8l1-.1.4-.6.2-1h1.4v9.5h-1.8Zm5.4 0v-1.9h2v2h-2Zm11.6.2c-.8 0-1.5-.1-2-.4-.6-.3-1-.7-1.4-1.3-.3-.5-.4-1.1-.4-1.9v-6h1.7v6c0 .7.2 1.2.6 1.6.3.3.8.5 1.5.5.6 0 1.1-.2 1.5-.5.4-.4.5-1 .5-1.6v-6h1.8v6c0 .8-.2 1.4-.5 2-.3.5-.7.9-1.3 1.2-.6.3-1.2.4-2 .4Zm8.5 0c-.7 0-1.3-.1-1.8-.3-.5-.2-.8-.5-1.1-.9-.3-.4-.4-.8-.4-1.2l1.7-.1c0 .4.2.7.5.9.2.2.6.3 1 .3l1-.2c.2-.2.4-.4.4-.6 0-.2 0-.3-.2-.4a1 1 0 0 0-.4-.3l-1-.3a8 8 0 0 1-1.7-.4 2 2 0 0 1-1-.7 2 2 0 0 1-.2-1c0-.7.3-1.2.8-1.6.5-.5 1.3-.7 2.2-.7.7 0 1.2.1 1.7.4.4.2.7.4 1 .8.2.4.4.8.4 1.2l-1.7.1-.2-.6a1 1 0 0 0-.5-.4l-.7-.2c-.4 0-.7.1-.9.3-.2.1-.3.4-.3.6l.1.5.5.3.9.2 1.7.4c.5.2.8.5 1 .7l.2 1c0 .5-.1.9-.4 1.2-.2.3-.6.6-1 .7-.5.2-1 .3-1.6.3Zm7.4 0c-.7 0-1.3-.2-1.8-.5-.6-.3-1-.7-1.2-1.3-.3-.5-.5-1.2-.5-2 0-.7.2-1.3.5-1.9.2-.6.6-1 1.2-1.3.5-.3 1-.5 1.8-.5.7 0 1.3.2 1.8.5s.9.7 1.1 1.3c.3.6.5 1.2.5 2v.4h-5c0 .7.1 1.1.4 1.4.3.4.7.5 1.2.5.4 0 .7 0 1-.2l.5-.8 1.8.1c-.2.7-.6 1.3-1.2 1.7-.6.4-1.3.6-2 .6ZM70.8 69h3.3c0-.6-.2-1-.5-1.3-.3-.3-.7-.4-1.1-.4-.5 0-.8.1-1.1.4-.3.3-.5.7-.6 1.3Zm6.4 4.2v-7.1h1.6v2c0-.7.2-1.2.5-1.5.3-.4.7-.5 1.2-.5h.7v1.5h-.7l-.9.1-.5.5a2 2 0 0 0-.2.9v4.1h-1.7Z"/><path fill="#18181B" d="M88.7 73.5c-.7 0-1.3-.1-1.8-.3-.5-.2-.8-.5-1-.9-.3-.4-.5-.8-.5-1.2L87 71c0 .4.2.7.5.9.2.2.6.3 1.1.3l1-.2.3-.6-.1-.4a1 1 0 0 0-.5-.3l-1-.3a8 8 0 0 1-1.7-.4 2 2 0 0 1-.9-.7 2 2 0 0 1-.2-1c0-.7.2-1.2.7-1.6.5-.5 1.3-.7 2.3-.7.6 0 1.1.1 1.6.4.4.2.8.4 1 .8l.5 1.2-1.8.1c0-.2 0-.4-.2-.6a1 1 0 0 0-.5-.4l-.7-.2c-.4 0-.7.1-.9.3-.2.1-.3.4-.3.6 0 .2 0 .4.2.5l.4.3.9.2 1.7.4c.5.2.8.5 1 .7l.2 1c0 .5 0 .9-.3 1.2-.3.3-.7.6-1.1.7-.5.2-1 .3-1.6.3Zm7.5 0c-.7 0-1.4-.2-1.9-.5s-1-.7-1.2-1.3c-.3-.5-.4-1.2-.4-2 0-.7.1-1.3.4-1.9.3-.6.7-1 1.2-1.3.5-.3 1.2-.5 1.9-.5.6 0 1.1.1 1.6.4a2.9 2.9 0 0 1 1.7 2.4h-1.8c0-.4-.2-.8-.5-1-.3-.3-.6-.4-1-.4-.6 0-1 .2-1.3.6-.3.5-.5 1-.5 1.8 0 .7.2 1.3.5 1.7.3.4.7.6 1.3.6.4 0 .7-.1 1-.4.3-.2.5-.6.5-1.1h1.8c0 .7-.3 1.1-.6 1.6a3 3 0 0 1-1.1 1c-.5.2-1 .3-1.6.3Zm7.5 0c-.7 0-1.3-.2-1.8-.5s-1-.7-1.2-1.3c-.3-.5-.4-1.2-.4-2 0-.7.1-1.3.4-1.9.3-.6.7-1 1.2-1.3.5-.3 1.1-.5 1.8-.5s1.3.2 1.8.5.9.7 1.2 1.3c.2.6.4 1.2.4 2v.4h-5c0 .7.1 1.1.4 1.4.3.4.8.5 1.3.5.3 0 .7 0 1-.2l.4-.8 1.8.1c-.2.7-.6 1.3-1.2 1.7-.5.4-1.2.6-2 .6ZM102 69h3.3c0-.6-.2-1-.5-1.3-.3-.3-.6-.4-1-.4-.5 0-1 .1-1.2.4-.3.3-.5.7-.6 1.3Zm6.4 4.2v-7.1h1.6v2h-.2c.1-.6.2-1 .5-1.3l.8-.7 1-.2c.6 0 1 .1 1.4.4.3.2.6.5.8 1 .2.3.3.8.3 1.3v4.6h-1.7v-4c0-.4 0-.8-.2-1 0-.3-.2-.5-.4-.7a1 1 0 0 0-.7-.2c-.4 0-.8.2-1 .5-.3.3-.5.8-.5 1.4v4h-1.7Zm10 .2a3 3 0 0 1-1.9-.5c-.4-.4-.6-.9-.6-1.5s.1-1 .5-1.4c.4-.4 1-.6 1.8-.8l2.3-.4c0-.5 0-1-.3-1.2-.2-.2-.6-.3-1-.3-.5 0-.8 0-1 .2-.2.2-.4.5-.5.9l-1.7-.1c.1-.8.5-1.4 1-1.8.6-.4 1.3-.6 2.2-.6 1 0 1.7.3 2.2.8.6.5.8 1.2.8 2.2v2.6l.1.4h.6v1.3h-1.5a1 1 0 0 1-.5-.6l-.2-1 .2.2c0 .3-.3.6-.5.8l-.9.6-1.2.2Zm.3-1.3c.4 0 .7 0 1-.2l.6-.6c.2-.3.2-.6.2-1V70l-1.8.4c-.4 0-.7.2-.8.4-.2.1-.3.3-.3.6 0 .2.1.5.3.6.2.2.4.2.8.2Zm5.3 1.1v-7.1h1.6v2h-.1c0-.7.3-1.2.6-1.5.3-.4.7-.5 1.2-.5h.7v1.5h-.7l-1 .1-.5.5a2 2 0 0 0-.1.9v4.1H124Zm5 0v-7.1h1.8v7.1H129Zm0-8v-1.6h1.8v1.5H129Zm6.6 8.2c-.7 0-1.3-.2-1.8-.5-.6-.3-1-.7-1.3-1.3-.3-.5-.4-1.2-.4-2 0-.7.2-1.4.4-2 .3-.5.7-.9 1.3-1.2.5-.3 1.1-.5 1.8-.5s1.3.2 1.9.5c.5.3.9.7 1.2 1.3.3.5.4 1.2.4 2 0 .7-.1 1.4-.4 2-.3.5-.7 1-1.2 1.2-.6.3-1.2.5-1.9.5Zm0-1.4c.6 0 1-.2 1.3-.6.3-.4.4-1 .4-1.7 0-.8-.1-1.3-.4-1.8-.3-.4-.7-.6-1.3-.6-.5 0-1 .2-1.3.6-.3.5-.4 1-.4 1.8 0 .7.1 1.3.4 1.7.3.4.8.6 1.3.6Zm7.7 1.4c-.7 0-1.3-.1-1.8-.3-.4-.2-.8-.5-1-.9-.3-.4-.5-.8-.5-1.2l1.8-.1c0 .4.2.7.4.9.3.2.6.3 1.1.3l1-.2.3-.6-.1-.4a1 1 0 0 0-.5-.3l-1-.3a8 8 0 0 1-1.7-.4 2 2 0 0 1-.9-.7 2 2 0 0 1-.2-1c0-.7.2-1.2.7-1.6.6-.5 1.3-.7 2.3-.7.6 0 1.2.1 1.6.4.4.2.8.4 1 .8.3.4.4.8.5 1.2l-1.7.1-.3-.6a1 1 0 0 0-.4-.4l-.7-.2c-.4 0-.7.1-1 .3l-.2.6v.5l.6.3.8.2 1.8.4.9.7c.2.3.3.6.3 1 0 .5-.2.9-.4 1.2-.3.3-.6.6-1 .7-.5.2-1 .3-1.7.3Z"/></g><defs><linearGradient id="b" x1="15.8" x2="133.9" y1="73.8" y2="231.8" gradientUnits="userSpaceOnUse"><stop stop-color="#151515"/><stop offset="1" stop-color="#0A0A0A"/></linearGradient><linearGradient id="c" x1="286.5" x2="286.5" y1="2" y2="300" gradientUnits="userSpaceOnUse"><stop stop-color="#E4E4E7"/><stop offset="1"/></linearGradient><linearGradient id="d" x1="617" x2="38" y1="97.3" y2="97.3" gradientUnits="userSpaceOnUse"><stop/><stop offset="1" stop-color="#F4F4F5"/></linearGradient><linearGradient id="e" x1="608" x2="38" y1="122.3" y2="122.3" gradientUnits="userSpaceOnUse"><stop/><stop offset="1" stop-color="#F4F4F5"/></linearGradient><linearGradient id="f" x1="349" x2="38" y1="145.3" y2="145.3" gradientUnits="userSpaceOnUse"><stop/><stop offset="1" stop-color="#F4F4F5"/></linearGradient><filter id="a" width="627.5" height="319.5" x=".2" y=".2" color-interpolation-filters="sRGB" filterUnits="userSpaceOnUse"><feFlood flood-opacity="0" result="BackgroundImageFix"/><feColorMatrix in="SourceAlpha" result="hardAlpha" values="0 0 0 0 0 0 0 0 0 0 0 0 0 0 0 0 0 0 127 0"/><feMorphology in="SourceAlpha" radius="1.8" result="effect1_dropShadow_528_5171"/><feOffset dy="3.6"/><feGaussianBlur stdDeviation="2.7"/><feComposite in2="hardAlpha" operator="out"/><feColorMatrix values="0 0 0 0 0 0 0 0 0 0 0 0 0 0 0 0 0 0 0.02 0"/><feBlend in2="BackgroundImageFix" result="effect1_dropShadow_528_5171"/><feColorMatrix in="SourceAlpha" result="hardAlpha" values="0 0 0 0 0 0 0 0 0 0 0 0 0 0 0 0 0 0 127 0"/><feMorphology in="SourceAlpha" radius="2.7" result="effect2_dropShadow_528_5171"/><feOffset dy="9"/><feGaussianBlur stdDeviation="6.7"/><feComposite in2="hardAlpha" operator="out"/><feColorMatrix values="0 0 0 0 0 0 0 0 0 0 0 0 0 0 0 0 0 0 0.05 0"/><feBlend in2="effect1_dropShadow_528_5171" result="effect2_dropShadow_528_5171"/><feBlend in="SourceGraphic" in2="effect2_dropShadow_528_5171" result="shape"/></filter></defs></svg>