<svg viewBox="0 0 628 320" fill="none" xmlns="http://www.w3.org/2000/svg">
  <g filter="url(#filter0_dd_528_5171)">
    <rect
      x="11"
      y="2"
      width="551"
      height="298"
      rx="10.7559"
      fill="url(#paint0_linear_528_5171)"
      shape-rendering="crispEdges"
    />
    <rect
      x="11.5"
      y="2.5"
      width="550"
      height="297"
      rx="10.2559"
      stroke="url(#paint1_linear_528_5171)"
      stroke-opacity="0.05"
      shape-rendering="crispEdges"
    />
    <rect
      x="84.7305"
      y="58.4229"
      width="62.3177"
      height="21.3183"
      fill="#60A5FA"
    />
    <path
      d="M30.9966 28.04V16.585H36.0143C36.8532 16.585 37.5793 16.7248 38.1923 17.0045C38.8162 17.2841 39.2948 17.6821 39.6283 18.1984C39.9617 18.7039 40.1284 19.3062 40.1284 20.0054C40.1284 20.5324 40.0155 21.0003 39.7896 21.409C39.5745 21.8177 39.2733 22.1512 38.8861 22.4093C38.5096 22.6675 38.074 22.8288 37.5793 22.8933L37.5309 22.7481C38.2945 22.7481 38.8753 22.9148 39.2733 23.2483C39.6713 23.571 39.8972 24.0711 39.9509 24.7487L40.2413 28.04H37.7406L37.5309 25.1359C37.4986 24.695 37.3588 24.3723 37.1114 24.1679C36.8747 23.9528 36.466 23.8452 35.8852 23.8452H33.449V28.04H30.9966ZM33.449 21.7962H35.74C36.3316 21.7962 36.7887 21.6618 37.1114 21.3929C37.4448 21.1132 37.6115 20.7206 37.6115 20.2151C37.6115 19.6988 37.4448 19.3116 37.1114 19.0535C36.7779 18.7846 36.2939 18.6501 35.6593 18.6501H33.449V21.7962ZM45.7218 28.2336C44.8398 28.2336 44.0708 28.0508 43.4147 27.6851C42.7693 27.3086 42.2638 26.7816 41.8981 26.104C41.5431 25.4264 41.3657 24.6304 41.3657 23.7162C41.3657 22.8019 41.5431 22.0114 41.8981 21.3445C42.2638 20.6669 42.7693 20.1398 43.4147 19.7634C44.06 19.3869 44.8237 19.1987 45.7057 19.1987C46.5662 19.1987 47.3137 19.3869 47.9483 19.7634C48.5829 20.1398 49.0723 20.6776 49.4165 21.3768C49.7714 22.0759 49.9489 22.9095 49.9489 23.8775V24.3615H43.8664C43.8987 25.0499 44.0815 25.5608 44.415 25.8942C44.7592 26.2277 45.2109 26.3944 45.7702 26.3944C46.1789 26.3944 46.5178 26.3083 46.7867 26.1362C47.0663 25.9641 47.2653 25.7006 47.3836 25.3457L49.8198 25.4909C49.5939 26.3514 49.1153 27.0236 48.3839 27.5076C47.6525 27.9916 46.7651 28.2336 45.7218 28.2336ZM43.8664 22.8772H47.4643C47.432 22.2426 47.2545 21.7693 46.9319 21.4574C46.6199 21.1455 46.2112 20.9895 45.7057 20.9895C45.2002 20.9895 44.7807 21.1563 44.4472 21.4897C44.1246 21.8124 43.931 22.2749 43.8664 22.8772ZM59.5438 30.4601H57.1237V26.2169L57.3334 26.346C57.2151 26.7332 57.0215 27.0666 56.7526 27.3463C56.4945 27.6259 56.1825 27.8464 55.8168 28.0078C55.4511 28.1584 55.0585 28.2336 54.6391 28.2336C53.8324 28.2336 53.1547 28.0347 52.6062 27.6367C52.0684 27.2387 51.6597 26.6956 51.38 26.0072C51.1111 25.3188 50.9767 24.5551 50.9767 23.7162C50.9767 22.8664 51.1111 22.1028 51.38 21.4252C51.6597 20.7368 52.0684 20.1936 52.6062 19.7956C53.144 19.3977 53.8162 19.1987 54.6229 19.1987C55.279 19.1987 55.8491 19.3654 56.3331 19.6988C56.8171 20.0323 57.1613 20.5109 57.3657 21.1347L57.1721 21.2154L57.2205 19.3923H59.5438V30.4601ZM55.3005 26.3783C55.6878 26.3783 56.0158 26.2814 56.2847 26.0878C56.5536 25.8835 56.758 25.5823 56.8978 25.1843C57.0484 24.7864 57.1237 24.297 57.1237 23.7162C57.1237 23.1353 57.0484 22.6459 56.8978 22.248C56.758 21.85 56.5482 21.5542 56.2686 21.3606C55.9997 21.1563 55.677 21.0541 55.3005 21.0541C54.7305 21.0541 54.2787 21.2907 53.9453 21.764C53.6226 22.2372 53.4613 22.888 53.4613 23.7162C53.4613 24.5444 53.6226 25.1951 53.9453 25.6684C54.2787 26.1416 54.7305 26.3783 55.3005 26.3783ZM64.5096 28.2336C63.6168 28.2336 62.9177 27.9486 62.4122 27.3786C61.9174 26.7977 61.67 25.991 61.67 24.9585V19.3923H64.0901V24.3938C64.0901 25.0607 64.1923 25.55 64.3966 25.862C64.601 26.1631 64.9237 26.3137 65.3647 26.3137C65.8594 26.3137 66.2413 26.147 66.5102 25.8136C66.7898 25.4694 66.9297 24.9585 66.9297 24.2808V19.3923H69.3497V28.04H67.1394L67.0749 25.5554L67.3814 25.62C67.2523 26.4804 66.9458 27.1312 66.4618 27.5722C65.9778 28.0131 65.327 28.2336 64.5096 28.2336ZM71.344 28.04V19.3923H73.7641V28.04H71.344ZM71.2956 18.3275V16.3914H73.7964V18.3275H71.2956ZM75.992 28.04V19.3923H78.283L78.3637 21.9092L78.1862 21.8608C78.326 20.9895 78.5734 20.3603 78.9283 19.9731C79.2833 19.5859 79.7727 19.3923 80.3965 19.3923H81.1871V21.3929H80.3965C79.9448 21.3929 79.5737 21.452 79.2833 21.5704C78.9929 21.6887 78.7724 21.8769 78.6218 22.135C78.482 22.3932 78.4121 22.7428 78.4121 23.1837V28.04H75.992ZM86.088 28.2336C85.206 28.2336 84.437 28.0508 83.7808 27.6851C83.1355 27.3086 82.63 26.7816 82.2643 26.104C81.9093 25.4264 81.7318 24.6304 81.7318 23.7162C81.7318 22.8019 81.9093 22.0114 82.2643 21.3445C82.63 20.6669 83.1355 20.1398 83.7808 19.7634C84.4262 19.3869 85.1899 19.1987 86.0719 19.1987C86.9323 19.1987 87.6799 19.3869 88.3145 19.7634C88.9491 20.1398 89.4385 20.6776 89.7826 21.3768C90.1376 22.0759 90.3151 22.9095 90.3151 23.8775V24.3615H84.2326C84.2649 25.0499 84.4477 25.5608 84.7811 25.8942C85.1253 26.2277 85.5771 26.3944 86.1364 26.3944C86.5451 26.3944 86.8839 26.3083 87.1528 26.1362C87.4325 25.9641 87.6315 25.7006 87.7498 25.3457L90.186 25.4909C89.9601 26.3514 89.4815 27.0236 88.7501 27.5076C88.0187 27.9916 87.1313 28.2336 86.088 28.2336ZM84.2326 22.8772H87.8304C87.7982 22.2426 87.6207 21.7693 87.298 21.4574C86.9861 21.1455 86.5774 20.9895 86.0719 20.9895C85.5663 20.9895 85.1468 21.1563 84.8134 21.4897C84.4907 21.8124 84.2971 22.2749 84.2326 22.8772ZM91.8107 28.04V19.3923H93.9888L94.0695 21.4736L93.8436 21.3768C93.9619 20.9142 94.1394 20.5217 94.376 20.199C94.6234 19.8763 94.9192 19.6289 95.2634 19.4568C95.6076 19.2847 95.984 19.1987 96.3927 19.1987C97.1134 19.1987 97.6942 19.4084 98.1352 19.8279C98.587 20.2474 98.8774 20.8121 99.0064 21.522L98.6999 21.5381C98.7967 21.0326 98.9634 20.6077 99.2 20.2635C99.4474 19.9086 99.7486 19.6451 100.104 19.473C100.458 19.2901 100.856 19.1987 101.297 19.1987C101.9 19.1987 102.416 19.3224 102.846 19.5698C103.277 19.8171 103.61 20.1882 103.847 20.683C104.083 21.167 104.202 21.764 104.202 22.4739V28.04H101.781V23.1515C101.781 22.4739 101.679 21.9683 101.475 21.6349C101.271 21.2907 100.937 21.1186 100.475 21.1186C100.184 21.1186 99.9368 21.1993 99.7325 21.3606C99.5281 21.522 99.3668 21.7586 99.2484 22.0705C99.1409 22.3717 99.0871 22.7428 99.0871 23.1837V28.04H96.909V23.1837C96.909 22.5169 96.8122 22.006 96.6186 21.651C96.425 21.2961 96.0916 21.1186 95.6183 21.1186C95.3279 21.1186 95.0751 21.1993 94.86 21.3606C94.6557 21.522 94.4997 21.7586 94.3921 22.0705C94.2846 22.3824 94.2308 22.7535 94.2308 23.1837V28.04H91.8107ZM110.021 28.2336C109.139 28.2336 108.37 28.0508 107.714 27.6851C107.068 27.3086 106.563 26.7816 106.197 26.104C105.842 25.4264 105.665 24.6304 105.665 23.7162C105.665 22.8019 105.842 22.0114 106.197 21.3445C106.563 20.6669 107.068 20.1398 107.714 19.7634C108.359 19.3869 109.123 19.1987 110.005 19.1987C110.865 19.1987 111.613 19.3869 112.247 19.7634C112.882 20.1398 113.371 20.6776 113.716 21.3768C114.071 22.0759 114.248 22.9095 114.248 23.8775V24.3615H108.166C108.198 25.0499 108.381 25.5608 108.714 25.8942C109.058 26.2277 109.51 26.3944 110.069 26.3944C110.478 26.3944 110.817 26.3083 111.086 26.1362C111.365 25.9641 111.564 25.7006 111.683 25.3457L114.119 25.4909C113.893 26.3514 113.414 27.0236 112.683 27.5076C111.952 27.9916 111.064 28.2336 110.021 28.2336ZM108.166 22.8772H111.763C111.731 22.2426 111.554 21.7693 111.231 21.4574C110.919 21.1455 110.51 20.9895 110.005 20.9895C109.499 20.9895 109.08 21.1563 108.746 21.4897C108.424 21.8124 108.23 22.2749 108.166 22.8772ZM115.744 28.04V19.3923H117.922L118.019 21.9253L117.712 21.8446C117.798 21.1993 117.97 20.683 118.228 20.2958C118.497 19.9086 118.831 19.6289 119.229 19.4568C119.627 19.2847 120.062 19.1987 120.535 19.1987C121.159 19.1987 121.686 19.3331 122.117 19.602C122.558 19.8709 122.891 20.2528 123.117 20.7475C123.353 21.2315 123.472 21.807 123.472 22.4739V28.04H121.052V23.2805C121.052 22.818 121.014 22.4255 120.939 22.1028C120.863 21.7801 120.729 21.5381 120.535 21.3768C120.342 21.2047 120.073 21.1186 119.729 21.1186C119.223 21.1186 118.836 21.3068 118.567 21.6833C118.298 22.049 118.164 22.5814 118.164 23.2805V28.04H115.744ZM128.621 28.04C127.729 28.04 127.072 27.8357 126.653 27.427C126.233 27.0075 126.024 26.346 126.024 25.4425V17.3594H128.444V25.1521C128.444 25.5716 128.53 25.8566 128.702 26.0072C128.885 26.1578 129.154 26.233 129.509 26.233H130.719V28.04H128.621ZM124.636 21.1993V19.3923H130.719V21.1993H124.636ZM135.698 28.2336C134.806 28.2336 134.058 28.11 133.456 27.8626C132.853 27.6044 132.391 27.2602 132.068 26.83C131.756 26.389 131.579 25.8835 131.536 25.3134L133.988 25.2327C134.063 25.6415 134.235 25.9588 134.504 26.1846C134.773 26.4105 135.171 26.5235 135.698 26.5235C136.128 26.5235 136.462 26.4535 136.699 26.3137C136.946 26.1739 137.07 25.9588 137.07 25.6684C137.07 25.4855 137.027 25.3349 136.941 25.2166C136.855 25.0875 136.682 24.98 136.424 24.8939C136.177 24.7971 135.806 24.7111 135.311 24.6358C134.397 24.4745 133.682 24.2862 133.165 24.0711C132.649 23.856 132.283 23.5763 132.068 23.2321C131.853 22.888 131.745 22.4685 131.745 21.9737C131.745 21.1455 132.063 20.4786 132.697 19.9731C133.343 19.4568 134.305 19.1987 135.585 19.1987C136.403 19.1987 137.086 19.3278 137.634 19.5859C138.194 19.844 138.624 20.199 138.925 20.6507C139.237 21.0917 139.431 21.5972 139.506 22.1673L137.07 22.2641C137.037 21.9845 136.951 21.7478 136.811 21.5542C136.682 21.3499 136.516 21.1939 136.311 21.0863C136.107 20.968 135.86 20.9089 135.569 20.9089C135.139 20.9089 134.806 21.0003 134.569 21.1831C134.343 21.3552 134.23 21.5865 134.23 21.8769C134.23 22.092 134.278 22.2695 134.375 22.4093C134.483 22.5384 134.655 22.6459 134.892 22.732C135.128 22.818 135.445 22.888 135.843 22.9417C136.768 23.0708 137.5 23.2537 138.038 23.4903C138.586 23.7162 138.979 24.0012 139.215 24.3454C139.452 24.6896 139.57 25.1144 139.57 25.62C139.57 26.1793 139.409 26.6525 139.086 27.0397C138.764 27.427 138.312 27.7227 137.731 27.9271C137.161 28.1315 136.483 28.2336 135.698 28.2336ZM144.133 28.04L148.264 16.585H151.168L155.298 28.04H152.749L151.91 25.6038H147.505L146.666 28.04H144.133ZM148.199 23.5871H151.232L149.716 19.1664L148.199 23.5871ZM156.362 28.04V19.3923H158.54L158.637 21.9253L158.33 21.8446C158.416 21.1993 158.588 20.683 158.847 20.2958C159.115 19.9086 159.449 19.6289 159.847 19.4568C160.245 19.2847 160.68 19.1987 161.154 19.1987C161.778 19.1987 162.305 19.3331 162.735 19.602C163.176 19.8709 163.509 20.2528 163.735 20.7475C163.972 21.2315 164.09 21.807 164.09 22.4739V28.04H161.67V23.2805C161.67 22.818 161.632 22.4255 161.557 22.1028C161.482 21.7801 161.347 21.5381 161.154 21.3768C160.96 21.2047 160.691 21.1186 160.347 21.1186C159.841 21.1186 159.454 21.3068 159.185 21.6833C158.916 22.049 158.782 22.5814 158.782 23.2805V28.04H156.362ZM168.585 28.2336C167.693 28.2336 166.961 28.0293 166.391 27.6206C165.832 27.2011 165.552 26.6203 165.552 25.8781C165.552 25.1144 165.789 24.5282 166.262 24.1195C166.746 23.7 167.456 23.3935 168.392 23.1999L171.183 22.6513C171.183 22.092 171.054 21.6725 170.796 21.3929C170.548 21.1025 170.188 20.9573 169.715 20.9573C169.252 20.9573 168.892 21.0648 168.634 21.2799C168.376 21.4843 168.209 21.7909 168.134 22.1996L165.698 22.0866C165.859 21.1401 166.284 20.4249 166.972 19.9408C167.671 19.4461 168.585 19.1987 169.715 19.1987C171.006 19.1987 171.974 19.5052 172.619 20.1183C173.275 20.7314 173.603 21.6295 173.603 22.8127V25.7652C173.603 26.0125 173.641 26.1793 173.716 26.2653C173.802 26.3406 173.926 26.3783 174.087 26.3783H174.329V28.04C174.254 28.0616 174.13 28.0831 173.958 28.1046C173.797 28.1261 173.635 28.1368 173.474 28.1368C173.13 28.1368 172.807 28.0777 172.506 27.9594C172.216 27.8411 171.979 27.6421 171.796 27.3624C171.613 27.072 171.522 26.6633 171.522 26.1362L171.732 26.2976C171.624 26.6848 171.43 27.0236 171.151 27.314C170.882 27.6044 170.527 27.8303 170.086 27.9916C169.656 28.153 169.156 28.2336 168.585 28.2336ZM169.166 26.5719C169.564 26.5719 169.914 26.4966 170.215 26.346C170.516 26.1846 170.753 25.9534 170.925 25.6522C171.097 25.3511 171.183 24.9961 171.183 24.5874V24.1679L169.215 24.5874C168.827 24.6627 168.532 24.7918 168.327 24.9746C168.134 25.1467 168.037 25.3726 168.037 25.6522C168.037 25.9426 168.134 26.1685 168.327 26.3298C168.521 26.4912 168.801 26.5719 169.166 26.5719ZM177.701 28.04C176.991 28.04 176.437 27.8626 176.039 27.5076C175.641 27.1527 175.442 26.5772 175.442 25.7813V16.585H177.862V25.5232C177.862 25.7813 177.921 25.9641 178.04 26.0717C178.158 26.1793 178.33 26.233 178.556 26.233H179.137V28.04H177.701ZM180.658 30.4601V28.6531H181.804C182.083 28.6531 182.288 28.6101 182.417 28.5241C182.557 28.4488 182.664 28.3089 182.739 28.1046L182.917 27.6044H182.255L179.222 19.3923L181.691 19.3923L183.675 25.3457L185.531 19.3923H187.999L184.675 28.8629C184.482 29.4329 184.202 29.8417 183.837 30.089C183.471 30.3364 182.96 30.4601 182.304 30.4601H180.658ZM192.639 28.2336C191.747 28.2336 190.999 28.11 190.397 27.8626C189.795 27.6044 189.332 27.2602 189.009 26.83C188.697 26.389 188.52 25.8835 188.477 25.3134L190.929 25.2327C191.005 25.6415 191.177 25.9588 191.446 26.1846C191.714 26.4105 192.112 26.5235 192.639 26.5235C193.07 26.5235 193.403 26.4535 193.64 26.3137C193.887 26.1739 194.011 25.9588 194.011 25.6684C194.011 25.4855 193.968 25.3349 193.882 25.2166C193.796 25.0875 193.624 24.98 193.365 24.8939C193.118 24.7971 192.747 24.7111 192.252 24.6358C191.338 24.4745 190.623 24.2862 190.106 24.0711C189.59 23.856 189.224 23.5763 189.009 23.2321C188.794 22.888 188.687 22.4685 188.687 21.9737C188.687 21.1455 189.004 20.4786 189.639 19.9731C190.284 19.4568 191.247 19.1987 192.527 19.1987C193.344 19.1987 194.027 19.3278 194.576 19.5859C195.135 19.844 195.565 20.199 195.866 20.6507C196.178 21.0917 196.372 21.5972 196.447 22.1673L194.011 22.2641C193.979 21.9845 193.893 21.7478 193.753 21.5542C193.624 21.3499 193.457 21.1939 193.253 21.0863C193.048 20.968 192.801 20.9089 192.51 20.9089C192.08 20.9089 191.747 21.0003 191.51 21.1831C191.284 21.3552 191.171 21.5865 191.171 21.8769C191.171 22.092 191.22 22.2695 191.316 22.4093C191.424 22.5384 191.596 22.6459 191.833 22.732C192.069 22.818 192.387 22.888 192.785 22.9417C193.71 23.0708 194.441 23.2537 194.979 23.4903C195.527 23.7162 195.92 24.0012 196.157 24.3454C196.393 24.6896 196.512 25.1144 196.512 25.62C196.512 26.1793 196.35 26.6525 196.028 27.0397C195.705 27.427 195.253 27.7227 194.672 27.9271C194.102 28.1315 193.425 28.2336 192.639 28.2336ZM198.004 28.04V19.3923H200.424V28.04H198.004ZM197.956 18.3275V16.3914H200.457V18.3275H197.956ZM206.079 28.2336C205.186 28.2336 204.439 28.11 203.836 27.8626C203.234 27.6044 202.772 27.2602 202.449 26.83C202.137 26.389 201.96 25.8835 201.917 25.3134L204.369 25.2327C204.444 25.6415 204.616 25.9588 204.885 26.1846C205.154 26.4105 205.552 26.5235 206.079 26.5235C206.509 26.5235 206.843 26.4535 207.079 26.3137C207.327 26.1739 207.45 25.9588 207.45 25.6684C207.45 25.4855 207.407 25.3349 207.321 25.2166C207.235 25.0875 207.063 24.98 206.805 24.8939C206.558 24.7971 206.187 24.7111 205.692 24.6358C204.778 24.4745 204.062 24.2862 203.546 24.0711C203.03 23.856 202.664 23.5763 202.449 23.2321C202.234 22.888 202.126 22.4685 202.126 21.9737C202.126 21.1455 202.444 20.4786 203.078 19.9731C203.724 19.4568 204.686 19.1987 205.966 19.1987C206.784 19.1987 207.467 19.3278 208.015 19.5859C208.574 19.844 209.005 20.199 209.306 20.6507C209.618 21.0917 209.811 21.5972 209.887 22.1673L207.45 22.2641C207.418 21.9845 207.332 21.7478 207.192 21.5542C207.063 21.3499 206.897 21.1939 206.692 21.0863C206.488 20.968 206.24 20.9089 205.95 20.9089C205.52 20.9089 205.186 21.0003 204.95 21.1831C204.724 21.3552 204.611 21.5865 204.611 21.8769C204.611 22.092 204.659 22.2695 204.756 22.4093C204.864 22.5384 205.036 22.6459 205.272 22.732C205.509 22.818 205.826 22.888 206.224 22.9417C207.149 23.0708 207.881 23.2537 208.418 23.4903C208.967 23.7162 209.36 24.0012 209.596 24.3454C209.833 24.6896 209.951 25.1144 209.951 25.62C209.951 26.1793 209.79 26.6525 209.467 27.0397C209.145 27.427 208.693 27.7227 208.112 27.9271C207.542 28.1315 206.864 28.2336 206.079 28.2336ZM215.402 28.04V16.585H220.419C221.258 16.585 221.984 16.7248 222.597 17.0045C223.221 17.2841 223.7 17.6821 224.033 18.1984C224.367 18.7039 224.533 19.3062 224.533 20.0054C224.533 20.5324 224.421 21.0003 224.195 21.409C223.98 21.8177 223.678 22.1512 223.291 22.4093C222.915 22.6675 222.479 22.8288 221.984 22.8933L221.936 22.7481C222.7 22.7481 223.28 22.9148 223.678 23.2483C224.076 23.571 224.302 24.0711 224.356 24.7487L224.646 28.04H222.146L221.936 25.1359C221.904 24.695 221.764 24.3723 221.516 24.1679C221.28 23.9528 220.871 23.8452 220.29 23.8452H217.854V28.04H215.402ZM217.854 21.7962H220.145C220.737 21.7962 221.194 21.6618 221.516 21.3929C221.85 21.1132 222.017 20.7206 222.017 20.2151C222.017 19.6988 221.85 19.3116 221.516 19.0535C221.183 18.7846 220.699 18.6501 220.064 18.6501H217.854V21.7962ZM230.127 28.2336C229.245 28.2336 228.476 28.0508 227.82 27.6851C227.174 27.3086 226.669 26.7816 226.303 26.104C225.948 25.4264 225.771 24.6304 225.771 23.7162C225.771 22.8019 225.948 22.0114 226.303 21.3445C226.669 20.6669 227.174 20.1398 227.82 19.7634C228.465 19.3869 229.229 19.1987 230.111 19.1987C230.971 19.1987 231.719 19.3869 232.353 19.7634C232.988 20.1398 233.477 20.6776 233.822 21.3768C234.176 22.0759 234.354 22.9095 234.354 23.8775V24.3615H228.271C228.304 25.0499 228.487 25.5608 228.82 25.8942C229.164 26.2277 229.616 26.3944 230.175 26.3944C230.584 26.3944 230.923 26.3083 231.192 26.1362C231.471 25.9641 231.67 25.7006 231.789 25.3457L234.225 25.4909C233.999 26.3514 233.52 27.0236 232.789 27.5076C232.058 27.9916 231.17 28.2336 230.127 28.2336ZM228.271 22.8772H231.869C231.837 22.2426 231.66 21.7693 231.337 21.4574C231.025 21.1455 230.616 20.9895 230.111 20.9895C229.605 20.9895 229.186 21.1563 228.852 21.4897C228.53 21.8124 228.336 22.2749 228.271 22.8772ZM235.85 30.4601V19.3923H238.173L238.221 21.2154L238.028 21.1347C238.243 20.5109 238.592 20.0323 239.076 19.6988C239.56 19.3654 240.125 19.1987 240.77 19.1987C241.577 19.1987 242.249 19.3977 242.787 19.7956C243.325 20.1936 243.728 20.7368 243.997 21.4252C244.277 22.1028 244.417 22.8664 244.417 23.7162C244.417 24.5551 244.277 25.3188 243.997 26.0072C243.728 26.6956 243.32 27.2387 242.771 27.6367C242.233 28.0347 241.561 28.2336 240.754 28.2336C240.335 28.2336 239.942 28.1584 239.577 28.0078C239.211 27.8464 238.894 27.6259 238.625 27.3463C238.366 27.0666 238.178 26.7332 238.06 26.346L238.27 26.2169V30.4601H235.85ZM240.093 26.3783C240.663 26.3783 241.109 26.1416 241.432 25.6684C241.765 25.1951 241.932 24.5444 241.932 23.7162C241.932 22.888 241.765 22.2372 241.432 21.764C241.109 21.2907 240.663 21.0541 240.093 21.0541C239.716 21.0541 239.388 21.1563 239.109 21.3606C238.84 21.5542 238.63 21.85 238.479 22.248C238.34 22.6459 238.27 23.1353 238.27 23.7162C238.27 24.297 238.34 24.7864 238.479 25.1843C238.63 25.5823 238.84 25.8835 239.109 26.0878C239.388 26.2814 239.716 26.3783 240.093 26.3783ZM249.838 28.2336C248.956 28.2336 248.187 28.0508 247.531 27.6851C246.875 27.3086 246.364 26.7816 245.998 26.104C245.632 25.4264 245.45 24.6304 245.45 23.7162C245.45 22.8019 245.632 22.0114 245.998 21.3445C246.364 20.6669 246.875 20.1398 247.531 19.7634C248.187 19.3869 248.956 19.1987 249.838 19.1987C250.72 19.1987 251.489 19.3869 252.145 19.7634C252.801 20.1398 253.312 20.6669 253.678 21.3445C254.044 22.0114 254.226 22.8019 254.226 23.7162C254.226 24.6304 254.044 25.4264 253.678 26.104C253.312 26.7816 252.801 27.3086 252.145 27.6851C251.489 28.0508 250.72 28.2336 249.838 28.2336ZM249.838 26.3783C250.44 26.3783 250.908 26.147 251.242 25.6845C251.575 25.2112 251.742 24.5551 251.742 23.7162C251.742 22.8772 251.575 22.2265 251.242 21.764C250.908 21.2907 250.44 21.0541 249.838 21.0541C249.236 21.0541 248.768 21.2907 248.434 21.764C248.101 22.2265 247.934 22.8772 247.934 23.7162C247.934 24.5551 248.101 25.2112 248.434 25.6845C248.768 26.147 249.236 26.3783 249.838 26.3783ZM255.733 28.04V19.3923H258.024L258.105 21.9092L257.928 21.8608C258.067 20.9895 258.315 20.3603 258.67 19.9731C259.025 19.5859 259.514 19.3923 260.138 19.3923H260.928V21.3929H260.138C259.686 21.3929 259.315 21.452 259.025 21.5704C258.734 21.6887 258.514 21.8769 258.363 22.135C258.223 22.3932 258.153 22.7428 258.153 23.1837V28.04H255.733ZM265.649 28.04C264.756 28.04 264.1 27.8357 263.681 27.427C263.261 27.0075 263.051 26.346 263.051 25.4425V17.3594H265.471V25.1521C265.471 25.5716 265.557 25.8566 265.73 26.0072C265.912 26.1578 266.181 26.233 266.536 26.233H267.746V28.04H265.649ZM261.664 21.1993V19.3923H267.746V21.1993H261.664Z"
      fill="#A1A1AA"
    />
    <rect
      x="272.803"
      y="14.54"
      width="34.6843"
      height="17"
      rx="8.5"
      fill="#27272A"
    />
    <rect
      x="273.004"
      y="14.7418"
      width="34.2808"
      height="16.5965"
      rx="8.29824"
      stroke="#E4E4E7"
      stroke-opacity="0.1"
      stroke-width="0.403511"
    />
    <path
      d="M278.684 26.54V18.5182H283.724V19.4673H279.17L279.656 18.9702V22.6534L279.17 22.1563H283.52V23.0828H279.17L279.656 22.5856V26.54H278.684ZM284.992 26.54V20.5519H285.942V26.54H284.992ZM284.97 19.6142V18.5069H285.964V19.6142H284.97ZM287.861 26.54V20.5519H288.731L288.765 22.0772L288.652 21.9755C288.727 21.6215 288.859 21.3315 289.047 21.1055C289.236 20.872 289.462 20.6988 289.725 20.5858C289.997 20.4728 290.287 20.4164 290.595 20.4164C291.055 20.4164 291.431 20.518 291.725 20.7214C292.026 20.9248 292.249 21.1997 292.392 21.5462C292.542 21.8851 292.618 22.2655 292.618 22.6873V26.54H291.669V22.9585C291.669 22.5894 291.624 22.2806 291.533 22.032C291.45 21.7759 291.315 21.5838 291.126 21.4558C290.938 21.3202 290.693 21.2524 290.392 21.2524C289.933 21.2524 289.552 21.3993 289.251 21.6931C288.957 21.9793 288.81 22.4011 288.81 22.9585V26.54H287.861ZM295.931 26.6756C295.314 26.6756 294.82 26.5325 294.451 26.2463C294.09 25.9601 293.909 25.5609 293.909 25.0487C293.909 24.5365 294.06 24.1335 294.361 23.8397C294.662 23.546 295.141 23.3388 295.796 23.2183L297.92 22.8229C297.92 22.3182 297.799 21.9416 297.558 21.6931C297.325 21.4445 296.971 21.3202 296.496 21.3202C296.082 21.3202 295.754 21.4144 295.513 21.6027C295.272 21.7834 295.107 22.0471 295.016 22.3936L294.011 22.3145C294.124 21.7496 294.395 21.2939 294.824 20.9474C295.261 20.5934 295.818 20.4164 296.496 20.4164C297.265 20.4164 297.852 20.6348 298.259 21.0717C298.666 21.501 298.869 22.096 298.869 22.8568V25.3311C298.869 25.4667 298.892 25.5646 298.937 25.6249C298.99 25.6776 299.072 25.704 299.185 25.704H299.423V26.54C299.392 26.5476 299.344 26.5513 299.276 26.5513C299.208 26.5589 299.136 26.5626 299.061 26.5626C298.79 26.5626 298.568 26.5212 298.394 26.4384C298.229 26.348 298.108 26.2124 298.033 26.0316C297.958 25.8433 297.92 25.5985 297.92 25.2972L298.033 25.3198C297.98 25.5759 297.852 25.8094 297.649 26.0203C297.445 26.2237 297.193 26.3856 296.892 26.5061C296.591 26.6191 296.27 26.6756 295.931 26.6756ZM296.022 25.8395C296.421 25.8395 296.76 25.7642 297.039 25.6136C297.325 25.4554 297.543 25.2445 297.694 24.9809C297.845 24.7097 297.92 24.4084 297.92 24.077V23.6477L295.977 24.0092C295.57 24.0845 295.287 24.2013 295.129 24.3595C294.979 24.5101 294.903 24.7097 294.903 24.9583C294.903 25.237 295.001 25.4554 295.197 25.6136C295.4 25.7642 295.675 25.8395 296.022 25.8395ZM301.603 26.54C301.257 26.54 300.974 26.4497 300.756 26.2689C300.538 26.0881 300.428 25.8019 300.428 25.4102V18.5182H301.377V25.3311C301.377 25.4516 301.408 25.5458 301.468 25.6136C301.536 25.6738 301.63 25.704 301.75 25.704H302.27V26.54H301.603Z"
      fill="white"
    />
    <rect
      x="38"
      y="93.3115"
      width="579"
      height="8"
      rx="4"
      fill="url(#paint2_linear_528_5171)"
      fill-opacity="0.05"
    />
    <rect
      x="38"
      y="118.312"
      width="570"
      height="8"
      rx="4"
      fill="url(#paint3_linear_528_5171)"
      fill-opacity="0.05"
    />
    <rect
      x="38"
      y="141.312"
      width="311"
      height="8"
      rx="4"
      fill="url(#paint4_linear_528_5171)"
      fill-opacity="0.05"
    />
    <line
      x1="11"
      y1="39.7223"
      x2="562"
      y2="39.7223"
      stroke="white"
      stroke-opacity="0.05"
      stroke-width="0.555329"
    />
    <path
      d="M37.5126 73.3096V71.8035H43.3902V73.3096H37.5126ZM39.6184 73.3096V66.8189H37.5126V65.4994H38.3923C38.7743 65.4994 39.0809 65.4506 39.3119 65.3528C39.5429 65.2551 39.7073 65.0863 39.805 64.8464C39.9116 64.5976 39.9649 64.2644 39.9649 63.8468H41.3511V73.3096H39.6184ZM45.0032 73.3096V71.4437H46.9491V73.3096H45.0032ZM56.571 73.5228C55.8069 73.5228 55.136 73.3762 54.5585 73.083C53.9898 72.7898 53.55 72.3766 53.239 71.8435C52.9369 71.3015 52.7859 70.6618 52.7859 69.9243V63.8334H54.5185V69.9243C54.5185 70.5907 54.6962 71.106 55.0516 71.4703C55.407 71.8346 55.9135 72.0168 56.571 72.0168C57.2285 72.0168 57.735 71.8346 58.0904 71.4703C58.4547 71.106 58.6368 70.5907 58.6368 69.9243V63.8334H60.3695V69.9243C60.3695 70.6618 60.214 71.3015 59.903 71.8435C59.592 72.3766 59.1522 72.7898 58.5835 73.083C58.0237 73.3762 57.3529 73.5228 56.571 73.5228ZM65.0638 73.4695C64.3619 73.4695 63.771 73.3673 63.2912 73.163C62.8203 72.9586 62.456 72.6743 62.1983 72.31C61.9406 71.9457 61.794 71.5325 61.7585 71.0705L63.5044 70.9905C63.5666 71.3637 63.7221 71.6525 63.9709 71.8568C64.2197 72.0612 64.5884 72.1634 65.0771 72.1634C65.477 72.1634 65.7879 72.1012 66.0101 71.9768C66.2411 71.8435 66.3566 71.6391 66.3566 71.3637C66.3566 71.2038 66.3166 71.0705 66.2366 70.9639C66.1567 70.8572 66.0056 70.7639 65.7835 70.684C65.5614 70.604 65.2326 70.524 64.7972 70.4441C64.0686 70.3197 63.4955 70.1686 63.0779 69.9909C62.6603 69.8043 62.3627 69.5733 62.185 69.2979C62.0161 69.0224 61.9317 68.6803 61.9317 68.2716C61.9317 67.6052 62.185 67.0677 62.6914 66.659C63.2068 66.2413 63.9576 66.0325 64.9438 66.0325C65.5836 66.0325 66.1211 66.1392 66.5565 66.3524C66.9919 66.5568 67.3295 66.8411 67.5694 67.2054C67.8182 67.5608 67.9737 67.9695 68.0359 68.4316L66.3166 68.5115C66.2722 68.2716 66.1922 68.0628 66.0767 67.8851C65.9612 67.7074 65.8057 67.5741 65.6102 67.4853C65.4148 67.3875 65.1837 67.3387 64.9172 67.3387C64.5173 67.3387 64.2152 67.4186 64.0109 67.5786C63.8065 67.7385 63.7043 67.9518 63.7043 68.2183C63.7043 68.4049 63.7488 68.5604 63.8376 68.6848C63.9354 68.8092 64.0909 68.9114 64.3041 68.9913C64.5173 69.0624 64.8017 69.1291 65.1571 69.1913C65.9034 69.3068 66.4899 69.4578 66.9164 69.6444C67.3517 69.8221 67.6583 70.0531 67.836 70.3375C68.0226 70.6129 68.1159 70.9461 68.1159 71.337C68.1159 71.7902 67.987 72.1767 67.7294 72.4966C67.4806 72.8164 67.1252 73.0608 66.6631 73.2296C66.21 73.3895 65.6769 73.4695 65.0638 73.4695ZM72.5261 73.4695C71.8152 73.4695 71.1977 73.3185 70.6735 73.0164C70.1492 72.7054 69.745 72.27 69.4606 71.7102C69.1763 71.1505 69.0341 70.4974 69.0341 69.751C69.0341 69.0047 69.1763 68.356 69.4606 67.8052C69.745 67.2454 70.1448 66.81 70.6601 66.499C71.1844 66.188 71.793 66.0325 72.4861 66.0325C73.1614 66.0325 73.7522 66.1836 74.2587 66.4857C74.774 66.7878 75.1694 67.2232 75.4449 67.7918C75.7203 68.3605 75.858 69.0446 75.858 69.8443V70.2308H70.8068C70.8423 70.8528 71.0111 71.3237 71.3132 71.6436C71.6242 71.9546 72.0329 72.1101 72.5394 72.1101C72.9214 72.1101 73.2369 72.0256 73.4857 71.8568C73.7433 71.6791 73.921 71.4348 74.0188 71.1238L75.7647 71.2304C75.5693 71.9235 75.1827 72.4699 74.6052 72.8697C74.0365 73.2696 73.3435 73.4695 72.5261 73.4695ZM70.8068 69.0846H74.0987C74.0632 68.5071 73.8988 68.0806 73.6056 67.8052C73.3124 67.5208 72.9392 67.3787 72.4861 67.3787C72.0329 67.3787 71.6553 67.5253 71.3532 67.8185C71.06 68.1117 70.8778 68.5337 70.8068 69.0846ZM77.1915 73.3096V66.1925H78.7909L78.8575 68.165L78.7109 68.1383C78.8175 67.4542 79.0175 66.9611 79.3107 66.659C79.6128 66.348 80.0215 66.1925 80.5368 66.1925H81.1899V67.6585H80.5235C80.1592 67.6585 79.8571 67.7119 79.6172 67.8185C79.3773 67.9251 79.1952 68.0939 79.0708 68.3249C78.9553 68.5471 78.8975 68.8403 78.8975 69.2046V73.3096H77.1915Z"
      fill="#A1A1AA"
    />
    <path
      d="M88.687 73.4695C87.985 73.4695 87.3942 73.3673 86.9144 73.163C86.4434 72.9586 86.0791 72.6743 85.8215 72.31C85.5638 71.9457 85.4172 71.5325 85.3816 71.0705L87.1276 70.9905C87.1898 71.3637 87.3453 71.6525 87.5941 71.8568C87.8429 72.0612 88.2116 72.1634 88.7003 72.1634C89.1001 72.1634 89.4111 72.1012 89.6332 71.9768C89.8643 71.8435 89.9798 71.6391 89.9798 71.3637C89.9798 71.2038 89.9398 71.0705 89.8598 70.9639C89.7798 70.8572 89.6288 70.7639 89.4067 70.684C89.1845 70.604 88.8558 70.524 88.4204 70.4441C87.6918 70.3197 87.1187 70.1686 86.7011 69.9909C86.2835 69.8043 85.9858 69.5733 85.8081 69.2979C85.6393 69.0224 85.5549 68.6803 85.5549 68.2716C85.5549 67.6052 85.8081 67.0677 86.3146 66.659C86.8299 66.2413 87.5807 66.0325 88.567 66.0325C89.2067 66.0325 89.7443 66.1392 90.1797 66.3524C90.6151 66.5568 90.9527 66.8411 91.1926 67.2054C91.4414 67.5608 91.5969 67.9695 91.6591 68.4316L89.9398 68.5115C89.8954 68.2716 89.8154 68.0628 89.6999 67.8851C89.5844 67.7074 89.4289 67.5741 89.2334 67.4853C89.0379 67.3875 88.8069 67.3387 88.5404 67.3387C88.1405 67.3387 87.8384 67.4186 87.6341 67.5786C87.4297 67.7385 87.3275 67.9518 87.3275 68.2183C87.3275 68.4049 87.3719 68.5604 87.4608 68.6848C87.5585 68.8092 87.714 68.9114 87.9273 68.9913C88.1405 69.0624 88.4248 69.1291 88.7803 69.1913C89.5266 69.3068 90.113 69.4578 90.5395 69.6444C90.9749 69.8221 91.2815 70.0531 91.4592 70.3375C91.6458 70.6129 91.739 70.9461 91.739 71.337C91.739 71.7902 91.6102 72.1767 91.3525 72.4966C91.1038 72.8164 90.7483 73.0608 90.2863 73.2296C89.8332 73.3895 89.3 73.4695 88.687 73.4695ZM96.1626 73.4695C95.4517 73.4695 94.8342 73.3185 94.31 73.0164C93.7857 72.7054 93.377 72.27 93.0838 71.7102C92.7995 71.1505 92.6573 70.4974 92.6573 69.751C92.6573 69.0047 92.7995 68.356 93.0838 67.8052C93.377 67.2454 93.7857 66.81 94.31 66.499C94.8342 66.188 95.4517 66.0325 96.1626 66.0325C96.7667 66.0325 97.3043 66.1392 97.7752 66.3524C98.2461 66.5657 98.6282 66.8722 98.9214 67.272C99.2235 67.663 99.4101 68.1428 99.4812 68.7114L97.7219 68.8047C97.6508 68.3516 97.4731 68.0095 97.1888 67.7785C96.9134 67.5386 96.5713 67.4186 96.1626 67.4186C95.6117 67.4186 95.1852 67.6274 94.8831 68.0451C94.581 68.4538 94.4299 69.0224 94.4299 69.751C94.4299 70.4885 94.581 71.0616 94.8831 71.4703C95.1852 71.879 95.6117 72.0834 96.1626 72.0834C96.5802 72.0834 96.9267 71.9635 97.2021 71.7236C97.4865 71.4836 97.6597 71.1105 97.7219 70.604L99.4812 70.684C99.4101 71.2526 99.228 71.7458 98.9348 72.1634C98.6415 72.581 98.2595 72.9053 97.7886 73.1363C97.3176 73.3584 96.7756 73.4695 96.1626 73.4695ZM103.75 73.4695C103.039 73.4695 102.422 73.3185 101.898 73.0164C101.373 72.7054 100.969 72.27 100.685 71.7102C100.401 71.1505 100.258 70.4974 100.258 69.751C100.258 69.0047 100.401 68.356 100.685 67.8052C100.969 67.2454 101.369 66.81 101.884 66.499C102.409 66.188 103.017 66.0325 103.71 66.0325C104.386 66.0325 104.976 66.1836 105.483 66.4857C105.998 66.7878 106.394 67.2232 106.669 67.7918C106.945 68.3605 107.082 69.0446 107.082 69.8443V70.2308H102.031C102.067 70.8528 102.235 71.3237 102.537 71.6436C102.848 71.9546 103.257 72.1101 103.764 72.1101C104.146 72.1101 104.461 72.0256 104.71 71.8568C104.968 71.6791 105.145 71.4348 105.243 71.1238L106.989 71.2304C106.793 71.9235 106.407 72.4699 105.829 72.8697C105.261 73.2696 104.568 73.4695 103.75 73.4695ZM102.031 69.0846H105.323C105.287 68.5071 105.123 68.0806 104.83 67.8052C104.537 67.5208 104.163 67.3787 103.71 67.3787C103.257 67.3787 102.88 67.5253 102.577 67.8185C102.284 68.1117 102.102 68.5337 102.031 69.0846ZM108.416 73.3096V66.1925H109.962L110.028 68.1917L109.829 68.1117C109.9 67.6141 110.046 67.2143 110.268 66.9122C110.49 66.6101 110.761 66.388 111.081 66.2458C111.401 66.1036 111.752 66.0325 112.134 66.0325C112.658 66.0325 113.098 66.148 113.454 66.3791C113.818 66.6101 114.093 66.93 114.28 67.3387C114.467 67.7385 114.56 68.205 114.56 68.7381V73.3096H112.854V69.2845C112.854 68.8847 112.814 68.5471 112.734 68.2716C112.654 67.9962 112.521 67.7874 112.334 67.6452C112.156 67.4942 111.917 67.4186 111.614 67.4186C111.161 67.4186 110.797 67.5786 110.522 67.8984C110.255 68.2183 110.122 68.6803 110.122 69.2845V73.3096H108.416ZM118.33 73.4695C117.584 73.4695 116.984 73.3007 116.531 72.963C116.078 72.6165 115.851 72.1367 115.851 71.5236C115.851 70.9105 116.042 70.4307 116.424 70.0842C116.806 69.7377 117.388 69.4889 118.17 69.3379L120.529 68.8714C120.529 68.3649 120.414 67.9873 120.183 67.7385C119.952 67.4808 119.609 67.352 119.156 67.352C118.748 67.352 118.423 67.4497 118.183 67.6452C117.952 67.8318 117.792 68.1028 117.704 68.4582L115.971 68.3783C116.113 67.623 116.46 67.0455 117.01 66.6456C117.561 66.2369 118.277 66.0325 119.156 66.0325C120.169 66.0325 120.933 66.2902 121.449 66.8056C121.973 67.312 122.235 68.0406 122.235 68.9913V71.5769C122.235 71.7635 122.266 71.8924 122.328 71.9635C122.399 72.0345 122.502 72.0701 122.635 72.0701H122.861V73.3096C122.808 73.3273 122.719 73.3407 122.595 73.3496C122.479 73.3584 122.359 73.3629 122.235 73.3629C121.942 73.3629 121.68 73.3185 121.449 73.2296C121.218 73.1319 121.04 72.9675 120.916 72.7365C120.791 72.4966 120.729 72.1723 120.729 71.7635L120.876 71.8702C120.805 72.1811 120.649 72.461 120.409 72.7098C120.178 72.9497 119.885 73.1363 119.529 73.2696C119.174 73.4029 118.774 73.4695 118.33 73.4695ZM118.676 72.23C119.059 72.23 119.387 72.1545 119.663 72.0034C119.938 71.8524 120.151 71.6436 120.302 71.377C120.454 71.1105 120.529 70.795 120.529 70.4307V70.0309L118.69 70.4041C118.308 70.4841 118.032 70.604 117.863 70.7639C117.704 70.915 117.624 71.1149 117.624 71.3637C117.624 71.6391 117.712 71.8524 117.89 72.0034C118.077 72.1545 118.339 72.23 118.676 72.23ZM123.969 73.3096V66.1925H125.569L125.635 68.165L125.489 68.1383C125.595 67.4542 125.795 66.9611 126.088 66.659C126.391 66.348 126.799 66.1925 127.315 66.1925H127.968V67.6585H127.301C126.937 67.6585 126.635 67.7119 126.395 67.8185C126.155 67.9251 125.973 68.0939 125.849 68.3249C125.733 68.5471 125.675 68.8403 125.675 69.2046V73.3096H123.969ZM129.071 73.3096V66.1925H130.777V73.3096H129.071ZM129.045 65.2462V63.7268H130.817V65.2462H129.045ZM135.613 73.4695C134.911 73.4695 134.293 73.3185 133.76 73.0164C133.236 72.7054 132.827 72.27 132.534 71.7102C132.25 71.1505 132.107 70.4974 132.107 69.751C132.107 68.9958 132.25 68.3427 132.534 67.7918C132.827 67.2321 133.236 66.8011 133.76 66.499C134.293 66.188 134.911 66.0325 135.613 66.0325C136.315 66.0325 136.928 66.188 137.452 66.499C137.976 66.8011 138.38 67.2321 138.665 67.7918C138.958 68.3427 139.105 68.9958 139.105 69.751C139.105 70.4974 138.958 71.1505 138.665 71.7102C138.38 72.27 137.976 72.7054 137.452 73.0164C136.928 73.3185 136.315 73.4695 135.613 73.4695ZM135.613 72.0834C136.163 72.0834 136.586 71.879 136.879 71.4703C137.181 71.0616 137.332 70.4885 137.332 69.751C137.332 69.0224 137.181 68.4538 136.879 68.0451C136.586 67.6274 136.163 67.4186 135.613 67.4186C135.062 67.4186 134.635 67.6274 134.333 68.0451C134.031 68.4538 133.88 69.0224 133.88 69.751C133.88 70.4885 134.031 71.0616 134.333 71.4703C134.635 71.879 135.062 72.0834 135.613 72.0834ZM143.313 73.4695C142.611 73.4695 142.02 73.3673 141.54 73.163C141.07 72.9586 140.705 72.6743 140.448 72.31C140.19 71.9457 140.043 71.5325 140.008 71.0705L141.754 70.9905C141.816 71.3637 141.971 71.6525 142.22 71.8568C142.469 72.0612 142.838 72.1634 143.326 72.1634C143.726 72.1634 144.037 72.1012 144.259 71.9768C144.49 71.8435 144.606 71.6391 144.606 71.3637C144.606 71.2038 144.566 71.0705 144.486 70.9639C144.406 70.8572 144.255 70.7639 144.033 70.684C143.811 70.604 143.482 70.524 143.047 70.4441C142.318 70.3197 141.745 70.1686 141.327 69.9909C140.91 69.8043 140.612 69.5733 140.434 69.2979C140.265 69.0224 140.181 68.6803 140.181 68.2716C140.181 67.6052 140.434 67.0677 140.941 66.659C141.456 66.2413 142.207 66.0325 143.193 66.0325C143.833 66.0325 144.37 66.1392 144.806 66.3524C145.241 66.5568 145.579 66.8411 145.819 67.2054C146.068 67.5608 146.223 67.9695 146.285 68.4316L144.566 68.5115C144.521 68.2716 144.442 68.0628 144.326 67.8851C144.211 67.7074 144.055 67.5741 143.86 67.4853C143.664 67.3875 143.433 67.3387 143.166 67.3387C142.767 67.3387 142.465 67.4186 142.26 67.5786C142.056 67.7385 141.954 67.9518 141.954 68.2183C141.954 68.4049 141.998 68.5604 142.087 68.6848C142.185 68.8092 142.34 68.9114 142.553 68.9913C142.767 69.0624 143.051 69.1291 143.406 69.1913C144.153 69.3068 144.739 69.4578 145.166 69.6444C145.601 69.8221 145.908 70.0531 146.085 70.3375C146.272 70.6129 146.365 70.9461 146.365 71.337C146.365 71.7902 146.236 72.1767 145.979 72.4966C145.73 72.8164 145.374 73.0608 144.912 73.2296C144.459 73.3895 143.926 73.4695 143.313 73.4695Z"
      fill="#18181B"
    />
  </g>
  <defs>
    <filter
      id="filter0_dd_528_5171"
      x="0.24409"
      y="0.207348"
      width="627.512"
      height="319.512"
      filterUnits="userSpaceOnUse"
      color-interpolation-filters="sRGB"
    >
      <feFlood flood-opacity="0" result="BackgroundImageFix" />
      <feColorMatrix
        in="SourceAlpha"
        type="matrix"
        values="0 0 0 0 0 0 0 0 0 0 0 0 0 0 0 0 0 0 127 0"
        result="hardAlpha"
      />
      <feMorphology
        radius="1.79265"
        operator="erode"
        in="SourceAlpha"
        result="effect1_dropShadow_528_5171"
      />
      <feOffset dy="3.5853" />
      <feGaussianBlur stdDeviation="2.68898" />
      <feComposite in2="hardAlpha" operator="out" />
      <feColorMatrix
        type="matrix"
        values="0 0 0 0 0 0 0 0 0 0 0 0 0 0 0 0 0 0 0.02 0"
      />
      <feBlend
        mode="normal"
        in2="BackgroundImageFix"
        result="effect1_dropShadow_528_5171"
      />
      <feColorMatrix
        in="SourceAlpha"
        type="matrix"
        values="0 0 0 0 0 0 0 0 0 0 0 0 0 0 0 0 0 0 127 0"
        result="hardAlpha"
      />
      <feMorphology
        radius="2.68898"
        operator="erode"
        in="SourceAlpha"
        result="effect2_dropShadow_528_5171"
      />
      <feOffset dy="8.96326" />
      <feGaussianBlur stdDeviation="6.72244" />
      <feComposite in2="hardAlpha" operator="out" />
      <feColorMatrix
        type="matrix"
        values="0 0 0 0 0 0 0 0 0 0 0 0 0 0 0 0 0 0 0.05 0"
      />
      <feBlend
        mode="normal"
        in2="effect1_dropShadow_528_5171"
        result="effect2_dropShadow_528_5171"
      />
      <feBlend
        mode="normal"
        in="SourceGraphic"
        in2="effect2_dropShadow_528_5171"
        result="shape"
      />
    </filter>
    <linearGradient
      id="paint0_linear_528_5171"
      x1="15.8058"
      y1="73.8347"
      x2="133.91"
      y2="231.785"
      gradientUnits="userSpaceOnUse"
    >
      <stop stop-color="#151515" />
      <stop offset="1" stop-color="#0A0A0A" />
    </linearGradient>
    <linearGradient
      id="paint1_linear_528_5171"
      x1="286.5"
      y1="2"
      x2="286.5"
      y2="300"
      gradientUnits="userSpaceOnUse"
    >
      <stop stop-color="#E4E4E7" />
      <stop offset="1" />
    </linearGradient>
    <linearGradient
      id="paint2_linear_528_5171"
      x1="617"
      y1="97.3104"
      x2="38"
      y2="97.3104"
      gradientUnits="userSpaceOnUse"
    >
      <stop />
      <stop offset="1" stop-color="#F4F4F5" />
    </linearGradient>
    <linearGradient
      id="paint3_linear_528_5171"
      x1="608"
      y1="122.312"
      x2="38"
      y2="122.312"
      gradientUnits="userSpaceOnUse"
    >
      <stop />
      <stop offset="1" stop-color="#F4F4F5" />
    </linearGradient>
    <linearGradient
      id="paint4_linear_528_5171"
      x1="349"
      y1="145.312"
      x2="38"
      y2="145.312"
      gradientUnits="userSpaceOnUse"
    >
      <stop />
      <stop offset="1" stop-color="#F4F4F5" />
    </linearGradient>
  </defs>
</svg>
