<svg xmlns="http://www.w3.org/2000/svg" fill="none" viewBox="0 0 697 259">
  <g filter="url(#a)">
    <rect width="675" height="237" x="11" y="2" fill="url(#b)" rx="16" />
    <rect
      width="674"
      height="236"
      x="11.5"
      y="2.5"
      stroke="url(#c)"
      stroke-opacity=".1"
      rx="15.5"
    />
  </g>
  <g filter="url(#d)">
    <rect width="56" height="56" x="42" y="23" fill="#18181B" rx="12" />
    <rect
      width="55.4"
      height="55.4"
      x="42.3"
      y="23.3"
      stroke="#E4E4E7"
      stroke-opacity=".1"
      stroke-width=".6"
      rx="11.7"
    />
    <path
      fill="#fff"
      d="M83.5 39.7V47h-4.1v-7.2h4ZM77.3 39.7V47h-4.7v-7.2h4.7Z"
    />
    <path
      fill="#fff"
      d="M68.6 46a5.5 5.5 0 0 0 .4 10.8h11.9v5.5H68.3c-2 0-3.7-.5-5.1-1.4a9.3 9.3 0 0 1-3.3-4c-.8-1.6-1.2-3.5-1.2-5.7 0-2.4.5-4.4 1.3-6 .8-1.7 2-3 3.4-3.8a10 10 0 0 1 5-1.3l.2 5.8Z"
    />
  </g>
  <path
    fill="#fff"
    d="M124.9 51.2V38.4h1.5v12l-.8-.7h7.2v1.5h-8Zm13.2.2c-.9 0-1.7-.2-2.3-.6a4 4 0 0 1-1.5-1.8c-.4-.7-.6-1.6-.6-2.6s.2-1.9.6-2.6c.3-.8.8-1.3 1.5-1.8.6-.4 1.4-.6 2.2-.6a4 4 0 0 1 2.2.6c.7.4 1.2 1 1.5 1.7.4.7.6 1.7.6 2.7v.5h-7c0 1 .4 1.8.8 2.3.5.5 1.2.7 2 .7.6 0 1.1-.1 1.5-.4.5-.3.7-.7.9-1.2l1.6.2a4 4 0 0 1-4 3Zm-2.8-5.9h5.3c0-.9-.3-1.6-.8-2-.5-.4-1-.6-1.8-.6-.7 0-1.3.2-1.8.6-.4.5-.7 1.2-.9 2Zm12.1 5.7c-.8 0-1.5-.2-1.9-.6-.4-.4-.6-1-.6-1.9v-9.3h1.5v9.3c0 .4 0 .7.3.9.2.2.5.2.9.2h1.3v1.4h-1.5Zm-4-8.2v-1.4h5.5V43h-5.4Zm7.2.2-.2-3.4v-1.4h1.5v1.4l-.3 3.4h-1Zm6.9 8.2c-.9 0-1.6-.1-2.2-.4-.6-.3-1-.7-1.4-1.2-.3-.5-.5-1-.5-1.6l1.5-.1c.1.5.4 1 .8 1.3.4.4 1 .5 1.8.5.6 0 1.1 0 1.5-.3.4-.2.6-.5.6-1 0-.2 0-.4-.2-.6 0-.2-.3-.3-.7-.4a9 9 0 0 0-1.5-.4l-2.2-.6c-.5-.3-.9-.6-1-1-.3-.3-.4-.8-.4-1.3 0-.8.3-1.5 1-2 .6-.6 1.4-.9 2.6-.9a4 4 0 0 1 2 .4c.5.3 1 .7 1.2 1.2.3.4.5 1 .6 1.5h-1.6c0-.3-.2-.5-.4-.8-.1-.3-.4-.5-.7-.6-.3-.2-.7-.2-1.1-.2-.7 0-1.2 0-1.5.4-.4.2-.5.6-.5 1 0 .3 0 .5.2.7.1.2.4.4.7.5l1.4.3c1 .2 1.7.4 2.2.7.6.2 1 .5 1.2.8.2.4.3.8.3 1.3 0 .6-.2 1.1-.5 1.5a3 3 0 0 1-1.3 1c-.6.2-1.2.3-2 .3Zm14 0c-1 0-1.7-.1-2.3-.4-.5-.3-1-.7-1.3-1.2-.4-.5-.6-1-.6-1.6l1.6-.1c0 .5.3 1 .7 1.3.4.4 1 .5 1.8.5.7 0 1.2 0 1.6-.3.4-.2.6-.5.6-1l-.2-.6c-.1-.2-.4-.3-.7-.4a9 9 0 0 0-1.6-.4l-2.1-.6c-.5-.3-1-.6-1.1-1-.3-.3-.4-.8-.4-1.3 0-.8.3-1.5 1-2 .6-.6 1.5-.9 2.6-.9a4 4 0 0 1 2 .4 3.8 3.8 0 0 1 1.9 2.6l-1.6.2c0-.4-.2-.6-.4-.9-.2-.3-.5-.5-.8-.6-.3-.2-.7-.2-1-.2-.8 0-1.3 0-1.6.4-.3.2-.5.6-.5 1 0 .3 0 .5.2.7.2.2.4.4.8.5l1.3.3c1 .2 1.7.4 2.3.7.5.2.9.5 1.1.8.2.4.3.8.3 1.3 0 .6-.1 1.1-.5 1.5a3 3 0 0 1-1.3 1c-.5.2-1.2.3-1.9.3Zm8.8-.2c-.8 0-1.5-.2-1.9-.6-.4-.4-.6-1-.6-1.9v-9.3h1.5v9.3c0 .4.1.7.3.9.2.2.5.2.9.2h1.3v1.4h-1.5Zm-4-8.2v-1.4h5.5V43h-5.4Zm10 8.4c-1 0-1.8-.2-2.4-.7-.5-.5-.8-1-.8-1.9 0-.8.2-1.5.7-2 .5-.4 1.2-.7 2.3-1l3.4-.5c0-.9-.2-1.5-.6-1.8-.4-.4-1-.6-1.7-.6s-1.2.1-1.6.4c-.4.3-.6.7-.8 1.3l-1.6-.2c.2-.9.6-1.6 1.3-2.1.7-.6 1.6-.9 2.7-.9 1.2 0 2.1.4 2.8 1a4 4 0 0 1 1 2.9v4.4l.5.1h.3v1.4h-.2a3.1 3.1 0 0 1-1.4-.2c-.3-.1-.4-.3-.6-.6l-.1-1.2h.1c0 .4-.3.8-.6 1.1-.3.4-.7.6-1.2.8l-1.5.3Zm.1-1.3c.7 0 1.2-.2 1.6-.4a2.6 2.6 0 0 0 1.5-2.5v-.6l-3.1.5c-.7.2-1.1.3-1.4.6-.2.2-.4.6-.4 1s.2.7.5 1c.3.2.8.4 1.3.4Zm7.2 1v-9.5h1.3V44c0-.8.3-1.4.7-1.8.4-.4 1-.6 1.6-.6h1v1.5h-1c-.5 0-.9 0-1.2.2l-.7.8a3 3 0 0 0-.2 1.3v5.8h-1.5Zm9.4 0c-.9 0-1.5-.1-2-.5-.4-.4-.6-1-.6-1.9v-9.3h1.5v9.3c0 .4.1.7.3.9.2.2.5.2 1 .2h1.3v1.4H203Zm-4-8.1v-1.4h5.5V43H199Zm14 8.2-3-9.6h1.6l2.3 8 2.2-8h1.7l2.2 8 2.3-8h1.6l-3 9.6h-1.8l-2.2-7.3-2 7.3h-2Zm12.6 0v-9.6h1.5v9.6h-1.5Zm0-11v-1.8h1.5V40h-1.5Zm7.2 11c-.9 0-1.5-.2-2-.6-.4-.4-.6-1-.6-1.9v-9.3h1.5v9.3c0 .4.1.7.3.9.2.2.5.2 1 .2h1.3v1.4h-1.5Zm-4-8.2v-1.4h5.5V43h-5.5Zm7.4 8.2V38.4h1.5v5.3h-.2c.2-.5.4-1 .7-1.3.2-.3.6-.6 1-.7a3.7 3.7 0 0 1 3.1.2c.5.3.9.7 1.1 1.3.3.5.4 1.1.4 1.8v6.2h-1.5v-5.7c0-1-.2-1.6-.5-2-.3-.5-.8-.8-1.5-.8-.8 0-1.4.3-1.9.8-.4.4-.7 1.1-.7 2v5.7h-1.5Zm18.5 0c-.9 0-1.5-.2-2-.6-.4-.4-.6-1-.6-1.9v-9.3h1.5v9.3c0 .4.1.7.3.9.2.2.5.2 1 .2h1.3v1.4h-1.5Zm-4-8.2v-1.4h5.5V43h-5.5Zm7.4 8.2V38.4h1.5v5.3h-.1c0-.5.3-1 .6-1.3.3-.3.6-.6 1-.7a3.7 3.7 0 0 1 3.1.2c.5.3.9.7 1.1 1.3.3.5.4 1.1.4 1.8v6.2h-1.5v-5.7c0-1-.2-1.6-.5-2-.3-.5-.8-.8-1.5-.8-.8 0-1.4.3-1.9.8-.4.4-.7 1.1-.7 2v5.7h-1.5Zm14 .2c-1 0-1.7-.2-2.3-.6a4 4 0 0 1-1.6-1.8c-.3-.7-.5-1.6-.5-2.6s.2-1.9.5-2.6c.4-.8.9-1.3 1.5-1.8.7-.4 1.4-.6 2.3-.6a4 4 0 0 1 2.2.6c.7.4 1.1 1 1.5 1.7.4.7.5 1.7.5 2.7v.5h-6.9c0 1 .3 1.8.8 2.3.5.5 1.2.7 2 .7.6 0 1.1-.1 1.5-.4.4-.3.7-.7.9-1.2l1.6.2a4 4 0 0 1-4 3Zm-2.8-5.9h5.3c0-.9-.4-1.6-.8-2-.5-.4-1-.6-1.8-.6-.7 0-1.3.2-1.8.6-.5.5-.8 1.2-.9 2ZM283 54V41.6h1.4v2h-.2a3 3 0 0 1 1.2-1.6c.5-.4 1.2-.6 2-.6.9 0 1.6.3 2.2.7.6.5 1.1 1.1 1.4 1.9.3.7.4 1.5.4 2.4 0 .9-.1 1.7-.4 2.5a4 4 0 0 1-1.4 1.8c-.6.5-1.3.7-2.3.7-.5 0-1-.1-1.4-.3-.4-.1-.8-.4-1-.7-.3-.3-.5-.6-.6-1l.2-.3V54H283Zm4.2-4c.8 0 1.5-.3 2-.9.4-.6.7-1.5.7-2.6s-.3-2-.8-2.6c-.4-.6-1.1-1-2-1-.5 0-1 .2-1.4.5-.4.2-.7.6-1 1.1l-.2 2c0 .8 0 1.4.3 2 .2.5.5.9 1 1.2.3.2.8.3 1.4.3Zm6.3 1.3v-9.6h1.3V44c0-.8.3-1.4.7-1.8.4-.4 1-.6 1.6-.6h1v1.5h-1c-.4 0-.8 0-1.1.2-.4.2-.6.5-.8.8a3 3 0 0 0-.2 1.3v5.8h-1.5Zm9.8.2c-.9 0-1.6-.2-2.3-.6a4 4 0 0 1-1.5-1.8 6 6 0 0 1-.6-2.6c0-1 .2-1.9.6-2.6a4 4 0 0 1 3.8-2.4c.9 0 1.6.2 2.3.6a4 4 0 0 1 1.5 1.8c.4.7.6 1.6.6 2.6a6 6 0 0 1-.6 2.6 4 4 0 0 1-3.8 2.4Zm0-1.5c.9 0 1.6-.3 2-.9.5-.6.8-1.5.8-2.6a4 4 0 0 0-.8-2.6c-.4-.6-1.1-1-2-1-.9 0-1.5.4-2 1a4 4 0 0 0-.8 2.6c0 1.1.3 2 .8 2.6.5.6 1.1 1 2 1Zm4.9 4v-1.4h.8c.3 0 .5 0 .7-.2.2-.1.3-.4.3-.8v-9.9h1.5v10c0 .8-.2 1.4-.5 1.8-.4.3-1 .5-1.9.5h-.9ZM310 40v-1.7h1.6V40H310Zm8 11.3c-1 0-1.7-.2-2.4-.6a4 4 0 0 1-1.5-1.8c-.3-.7-.5-1.6-.5-2.6s.2-1.9.5-2.6c.4-.8.9-1.3 1.5-1.8.6-.4 1.4-.6 2.3-.6a4 4 0 0 1 2.2.6c.6.4 1.1 1 1.5 1.7.3.7.5 1.7.5 2.7v.5h-7c.1 1 .4 1.8.9 2.3.5.5 1.1.7 2 .7.6 0 1-.1 1.5-.4.4-.3.7-.7.8-1.2l1.7.2a4 4 0 0 1-4 3Zm-2.8-5.9h5.2c0-.9-.3-1.6-.8-2-.4-.4-1-.6-1.7-.6s-1.4.2-1.8.6c-.5.5-.8 1.2-1 2Zm12.7 5.9c-1 0-1.7-.2-2.4-.6A4 4 0 0 1 324 49a6 6 0 0 1-.5-2.6c0-1 .2-1.9.5-2.6a4 4 0 0 1 3.9-2.4c.7 0 1.3.1 2 .4.5.3 1 .6 1.3 1.1.4.5.6 1.1.7 1.8l-1.6.1c0-.6-.3-1-.8-1.4-.4-.4-1-.5-1.6-.5-1 0-1.6.3-2 1a4 4 0 0 0-.8 2.5c0 1.1.2 2 .7 2.6.5.6 1.2 1 2 1 .7 0 1.3-.2 1.7-.6.5-.4.7-.9.8-1.6l1.6.1c0 .7-.3 1.3-.7 1.9-.3.5-.8.9-1.4 1.2-.6.2-1.2.4-2 .4Zm9-.2c-.8 0-1.5-.2-2-.6-.3-.4-.5-1-.5-1.9v-9.3h1.5v9.3c0 .4 0 .7.3.9.2.2.5.2.9.2h1.3v1.4H337Zm-4-8.2v-1.4h5.5V43H333Zm7.2.2-.3-3.4v-1.4h1.6v1.4l-.3 3.4h-1Zm6.9 8.2c-.9 0-1.6-.1-2.2-.4-.6-.3-1-.7-1.4-1.2-.3-.5-.5-1-.6-1.6l1.6-.1c.1.5.4 1 .8 1.3.4.4 1 .5 1.8.5.6 0 1.1 0 1.5-.3.4-.2.6-.5.6-1 0-.2 0-.4-.2-.6 0-.2-.3-.3-.7-.4a9 9 0 0 0-1.5-.4l-2.2-.6c-.5-.3-.9-.6-1-1-.3-.3-.4-.8-.4-1.3 0-.8.3-1.5 1-2 .5-.6 1.4-.9 2.6-.9a4 4 0 0 1 2 .4c.5.3 1 .7 1.2 1.2.3.4.5 1 .6 1.5H349c0-.3-.2-.5-.4-.8-.2-.3-.4-.5-.7-.6-.3-.2-.7-.2-1.1-.2-.7 0-1.2 0-1.5.4-.4.2-.5.6-.5 1 0 .3 0 .5.2.7.1.2.4.4.7.5l1.4.3c1 .2 1.7.4 2.2.7.6.2 1 .5 1.2.8.2.4.3.8.3 1.3 0 .6-.2 1.1-.5 1.5a3 3 0 0 1-1.3 1c-.6.2-1.2.3-2 .3Zm14.2 0c-1 0-1.7-.2-2.4-.6a4 4 0 0 1-1.5-1.8 6 6 0 0 1-.5-2.6c0-1 .2-1.9.5-2.6a4 4 0 0 1 3.9-2.4c.7 0 1.3.1 2 .4.5.3 1 .6 1.3 1.1.4.5.6 1.1.7 1.8l-1.6.1c0-.6-.4-1-.8-1.4-.4-.4-1-.5-1.6-.5-1 0-1.6.3-2 1a4 4 0 0 0-.8 2.5c0 1.1.2 2 .7 2.6.5.6 1.2 1 2 1 .7 0 1.3-.2 1.7-.6.4-.4.7-.9.8-1.6l1.6.1c-.1.7-.3 1.3-.7 1.9-.4.5-.8.9-1.4 1.2-.6.2-1.2.4-2 .4Zm9.6 0c-.9 0-1.6-.2-2.3-.6A4 4 0 0 1 367 49a6 6 0 0 1-.6-2.6c0-1 .2-1.9.6-2.6a4 4 0 0 1 3.8-2.4c.9 0 1.6.2 2.3.6a4 4 0 0 1 1.5 1.8c.4.7.6 1.6.6 2.6a6 6 0 0 1-.6 2.6 4 4 0 0 1-3.8 2.4Zm0-1.5c.9 0 1.6-.3 2-.9.5-.6.8-1.5.8-2.6a4 4 0 0 0-.8-2.6c-.4-.6-1.1-1-2-1-.9 0-1.5.4-2 1a4 4 0 0 0-.8 2.6c0 1.1.3 2 .8 2.6.5.6 1.1 1 2 1Zm6.4 1.3v-9.6h1.4V44h-.1c.1-.8.4-1.4.8-1.8.4-.4 1-.6 1.6-.6h1v1.5h-1c-.5 0-.9 0-1.2.2-.3.2-.6.5-.7.8a3 3 0 0 0-.3 1.3v5.8h-1.5Zm9.9.2c-1 0-1.7-.2-2.4-.6a4 4 0 0 1-1.5-1.8c-.3-.7-.5-1.6-.5-2.6s.2-1.9.5-2.6c.4-.8.9-1.3 1.5-1.8.6-.4 1.4-.6 2.3-.6a4 4 0 0 1 2.2.6c.6.4 1.1 1 1.5 1.7.3.7.5 1.7.5 2.7v.5h-7c.1 1 .4 1.8.9 2.3.5.5 1.1.7 2 .7.6 0 1-.1 1.5-.4.4-.3.7-.7.8-1.2l1.7.2a4 4 0 0 1-4 3Zm-2.8-5.9h5.2c0-.9-.3-1.6-.8-2-.4-.4-1-.6-1.7-.6s-1.4.2-1.8.6c-.5.5-.8 1.2-1 2Zm17.3 5.9c-.8 0-1.6-.2-2.3-.6a4 4 0 0 1-1.5-1.8 6 6 0 0 1-.5-2.6c0-1 .2-1.9.5-2.6a4 4 0 0 1 3.8-2.4 4 4 0 0 1 3.8 2.3c.4.8.6 1.7.6 2.7a6 6 0 0 1-.5 2.6 4 4 0 0 1-3.9 2.4Zm0-1.5c1 0 1.6-.3 2-.9.6-.6.8-1.5.8-2.6a4 4 0 0 0-.7-2.6c-.5-.6-1.2-1-2-1-1 0-1.6.4-2.1 1a4 4 0 0 0-.7 2.6c0 1.1.2 2 .7 2.6.5.6 1.2 1 2 1Zm10.8 1.5c-.6 0-1.2-.2-1.7-.4a3 3 0 0 1-1.2-1.3v1.5H408V38.4h1.5V43c.2-.4.6-.8 1-1.1a3.8 3.8 0 0 1 4 .1c.6.4 1.1 1 1.4 1.8.4.7.5 1.6.5 2.6s-.1 1.9-.5 2.6a4 4 0 0 1-1.4 1.8c-.6.4-1.3.6-2.2.6Zm0-1.5c.7 0 1.4-.3 1.9-1 .4-.5.7-1.4.7-2.5s-.3-2-.7-2.6c-.5-.6-1.1-1-2-1a2.6 2.6 0 0 0-2.4 1.7 5 5 0 0 0-.3 1.9c0 .7 0 1.4.3 1.9.2.5.5 1 1 1.2.4.3.9.4 1.4.4Zm4.7 4v-1.4h.7c.3 0 .6 0 .8-.2.2-.1.3-.4.3-.8v-9.9h1.5v10c0 .8-.2 1.4-.6 1.8-.3.3-1 .5-1.8.5h-1Zm1.7-13.8v-1.7h1.6V40h-1.6Zm8 11.3c-.9 0-1.7-.2-2.3-.6A4 4 0 0 1 423 49c-.4-.7-.6-1.6-.6-2.6s.2-1.9.6-2.6c.3-.8.8-1.3 1.5-1.8.6-.4 1.4-.6 2.2-.6a4 4 0 0 1 2.2.6c.7.4 1.2 1 1.5 1.7.4.7.6 1.7.6 2.7v.5h-7c0 1 .4 1.8.8 2.3.5.5 1.2.7 2 .7.6 0 1.1-.1 1.5-.4.5-.3.7-.7.9-1.2l1.6.2a4 4 0 0 1-4 3Zm-2.8-5.9h5.3c0-.9-.3-1.6-.8-2-.5-.4-1-.6-1.8-.6-.7 0-1.3.2-1.8.6-.4.5-.7 1.2-.9 2Zm12.7 5.9c-.9 0-1.6-.2-2.3-.6A4 4 0 0 1 433 49a6 6 0 0 1-.5-2.6c0-1 .1-1.9.5-2.6a4 4 0 0 1 3.8-2.4c.8 0 1.4.1 2 .4.6.3 1 .6 1.4 1.1.3.5.6 1.1.7 1.8l-1.6.1c-.1-.6-.4-1-.8-1.4-.5-.4-1-.5-1.7-.5-.8 0-1.5.3-2 1a4 4 0 0 0-.8 2.5c0 1.1.3 2 .8 2.6.5.6 1.2 1 2 1a2.5 2.5 0 0 0 2.5-2.2l1.6.1c-.1.7-.4 1.3-.7 1.9-.4.5-.9.9-1.4 1.2-.6.2-1.2.4-2 .4Zm9-.2c-.8 0-1.4-.2-1.8-.6-.5-.4-.7-1-.7-1.9v-9.3h1.6v9.3c0 .4 0 .7.2.9.2.2.5.2 1 .2h1.3v1.4h-1.5Zm-3.9-8.2v-1.4h5.5V43h-5.5Zm7.4 8.2v-9.6h1.5v9.6h-1.5Zm0-11v-1.8h1.6V40h-1.6Zm6.7 11-3.5-9.6h1.7l2.7 8 2.8-8h1.7l-3.5 9.6h-2Zm10.5.2c-1 0-1.7-.2-2.4-.6a4 4 0 0 1-1.5-1.8c-.4-.7-.5-1.6-.5-2.6s.1-1.9.5-2.6c.4-.8.9-1.3 1.5-1.8.6-.4 1.4-.6 2.3-.6a4 4 0 0 1 2.2.6c.6.4 1.1 1 1.4 1.7.4.7.6 1.7.6 2.7v.5h-7c.1 1 .4 1.8.9 2.3.5.5 1.1.7 2 .7.6 0 1-.1 1.5-.4.4-.3.7-.7.8-1.2l1.6.2a4 4 0 0 1-4 3Zm-2.8-5.9h5.2c0-.9-.3-1.6-.8-2-.4-.4-1-.6-1.7-.6-.8 0-1.4.2-1.8.6-.5.5-.8 1.2-1 2Zm12.4 5.9c-.8 0-1.6-.1-2.2-.4-.6-.3-1-.7-1.4-1.2-.3-.5-.5-1-.5-1.6l1.6-.1c0 .5.3 1 .7 1.3.4.4 1 .5 1.8.5.7 0 1.2 0 1.6-.3.4-.2.6-.5.6-1l-.2-.6c-.1-.2-.4-.3-.7-.4a9 9 0 0 0-1.6-.4l-2.1-.6c-.6-.3-1-.6-1.2-1-.2-.3-.3-.8-.3-1.3 0-.8.3-1.5 1-2 .6-.6 1.5-.9 2.6-.9a4 4 0 0 1 2 .4c.5.3 1 .7 1.2 1.2.4.4.6 1 .7 1.5H478l-.4-.8c-.2-.3-.5-.5-.8-.6-.3-.2-.7-.2-1-.2-.8 0-1.3 0-1.6.4-.3.2-.5.6-.5 1 0 .3 0 .5.2.7.2.2.4.4.8.5l1.3.3c1 .2 1.7.4 2.3.7.5.2.9.5 1.1.8.2.4.3.8.3 1.3 0 .6-.1 1.1-.5 1.5a3 3 0 0 1-1.3 1c-.5.2-1.2.3-1.9.3Zm5.3-.2v-2h2v2h-2Z"
  />
  <g filter="url(#e)">
    <rect
      width="522.5"
      height="66.5"
      x="123.4"
      y="72.9"
      stroke="#E4E4E7"
      stroke-opacity=".1"
      stroke-width=".5"
      rx="11.8"
      shape-rendering="crispEdges"
    />
    <path
      stroke="#14B8A6"
      stroke-linecap="round"
      stroke-linejoin="round"
      stroke-width="1.3"
      d="m622.7 101.4-9.2 9.2-4.2-4.2"
      opacity=".4"
    />
    <path
      fill="#71717A"
      d="m143.5 112.4 4.6-12.8h2l4.7 12.8H153l-1.3-3.6h-5.3l-1.3 3.6h-1.7Zm3.5-5.2h4.3L149 101l-2.1 6.2Zm9 5.2v-2h2v2h-2Z"
    />
    <rect width="339.7" height="9" x="177.6" y="92.4" fill="none" rx="4.5" />
    <rect width="157" height="9" x="177.6" y="111.4" fill="none" rx="4.5" />
  </g>
  <g filter="url(#f)">
    <rect
      width="522.5"
      height="66.5"
      x="123.4"
      y="152.9"
      stroke="#E4E4E7"
      stroke-opacity=".1"
      stroke-width=".5"
      rx="11.8"
      shape-rendering="crispEdges"
    />
    <path
      fill="#71717A"
      d="M144.8 192.4v-12.8h4.4c1.5 0 2.6.3 3.4.8.7.6 1.1 1.5 1.1 2.6 0 .6-.1 1-.4 1.5-.2.4-.5.8-1 1-.4.2-1 .3-1.6.3 1.1 0 2 .2 2.6.8a3 3 0 0 1 1 2.3c0 1.1-.4 2-1.2 2.6-.7.6-1.8.9-3.2.9h-5.1Zm1.5-1.5h3.6c.9 0 1.5-.2 2-.6.5-.3.7-.8.7-1.5s-.2-1.2-.7-1.6c-.5-.4-1.1-.6-2-.6h-3.6v4.3Zm0-5.8h2.9c1 0 1.6-.1 2.1-.5.5-.3.8-.8.8-1.5s-.3-1.1-.8-1.5c-.4-.3-1.2-.5-2.1-.5h-2.9v4Zm9.8 7.3v-2h2v2h-2Z"
    />
    <rect
      width="157"
      height="9"
      x="177.6"
      y="191.4"
      fill="#F4F4F5"
      fill-opacity=".1"
      rx="4.5"
    />
  </g>
  <defs>
    <filter
      id="a"
      width="696.5"
      height="258.5"
      x=".2"
      y=".2"
      color-interpolation-filters="sRGB"
      filterUnits="userSpaceOnUse"
    >
      <feFlood flood-opacity="0" result="BackgroundImageFix" />
      <feColorMatrix
        in="SourceAlpha"
        result="hardAlpha"
        values="0 0 0 0 0 0 0 0 0 0 0 0 0 0 0 0 0 0 127 0"
      />
      <feMorphology
        in="SourceAlpha"
        radius="1.8"
        result="effect1_dropShadow_528_5183"
      />
      <feOffset dy="3.6" />
      <feGaussianBlur stdDeviation="2.7" />
      <feComposite in2="hardAlpha" operator="out" />
      <feColorMatrix values="0 0 0 0 0 0 0 0 0 0 0 0 0 0 0 0 0 0 0.02 0" />
      <feBlend in2="BackgroundImageFix" result="effect1_dropShadow_528_5183" />
      <feColorMatrix
        in="SourceAlpha"
        result="hardAlpha"
        values="0 0 0 0 0 0 0 0 0 0 0 0 0 0 0 0 0 0 127 0"
      />
      <feMorphology
        in="SourceAlpha"
        radius="2.7"
        result="effect2_dropShadow_528_5183"
      />
      <feOffset dy="9" />
      <feGaussianBlur stdDeviation="6.7" />
      <feComposite in2="hardAlpha" operator="out" />
      <feColorMatrix values="0 0 0 0 0 0 0 0 0 0 0 0 0 0 0 0 0 0 0.05 0" />
      <feBlend
        in2="effect1_dropShadow_528_5183"
        result="effect2_dropShadow_528_5183"
      />
      <feBlend
        in="SourceGraphic"
        in2="effect2_dropShadow_528_5183"
        result="shape"
      />
    </filter>
    <filter
      id="d"
      width="89.5"
      height="89.5"
      x="25.3"
      y="20.2"
      color-interpolation-filters="sRGB"
      filterUnits="userSpaceOnUse"
    >
      <feFlood flood-opacity="0" result="BackgroundImageFix" />
      <feColorMatrix
        in="SourceAlpha"
        result="hardAlpha"
        values="0 0 0 0 0 0 0 0 0 0 0 0 0 0 0 0 0 0 127 0"
      />
      <feMorphology
        in="SourceAlpha"
        radius="2.8"
        result="effect1_dropShadow_528_5183"
      />
      <feOffset dy="5.6" />
      <feGaussianBlur stdDeviation="4.2" />
      <feComposite in2="hardAlpha" operator="out" />
      <feColorMatrix values="0 0 0 0 0 0 0 0 0 0 0 0 0 0 0 0 0 0 0.02 0" />
      <feBlend in2="BackgroundImageFix" result="effect1_dropShadow_528_5183" />
      <feColorMatrix
        in="SourceAlpha"
        result="hardAlpha"
        values="0 0 0 0 0 0 0 0 0 0 0 0 0 0 0 0 0 0 127 0"
      />
      <feMorphology
        in="SourceAlpha"
        radius="4.2"
        result="effect2_dropShadow_528_5183"
      />
      <feOffset dy="13.9" />
      <feGaussianBlur stdDeviation="10.5" />
      <feComposite in2="hardAlpha" operator="out" />
      <feColorMatrix values="0 0 0 0 0 0 0 0 0 0 0 0 0 0 0 0 0 0 0.05 0" />
      <feBlend
        in2="effect1_dropShadow_528_5183"
        result="effect2_dropShadow_528_5183"
      />
      <feBlend
        in="SourceGraphic"
        in2="effect2_dropShadow_528_5183"
        result="shape"
      />
    </filter>
    <filter
      id="e"
      width="547"
      height="91"
      x="111.2"
      y="70.6"
      color-interpolation-filters="sRGB"
      filterUnits="userSpaceOnUse"
    >
      <feFlood flood-opacity="0" result="BackgroundImageFix" />
      <feColorMatrix
        in="SourceAlpha"
        result="hardAlpha"
        values="0 0 0 0 0 0 0 0 0 0 0 0 0 0 0 0 0 0 127 0"
      />
      <feMorphology
        in="SourceAlpha"
        radius="2"
        result="effect1_dropShadow_528_5183"
      />
      <feOffset dy="4" />
      <feGaussianBlur stdDeviation="3" />
      <feComposite in2="hardAlpha" operator="out" />
      <feColorMatrix values="0 0 0 0 0 0 0 0 0 0 0 0 0 0 0 0 0 0 0.02 0" />
      <feBlend in2="BackgroundImageFix" result="effect1_dropShadow_528_5183" />
      <feColorMatrix
        in="SourceAlpha"
        result="hardAlpha"
        values="0 0 0 0 0 0 0 0 0 0 0 0 0 0 0 0 0 0 127 0"
      />
      <feMorphology
        in="SourceAlpha"
        radius="3"
        result="effect2_dropShadow_528_5183"
      />
      <feOffset dy="10" />
      <feGaussianBlur stdDeviation="7.5" />
      <feComposite in2="hardAlpha" operator="out" />
      <feColorMatrix values="0 0 0 0 0 0 0 0 0 0 0 0 0 0 0 0 0 0 0.05 0" />
      <feBlend
        in2="effect1_dropShadow_528_5183"
        result="effect2_dropShadow_528_5183"
      />
      <feBlend
        in="SourceGraphic"
        in2="effect2_dropShadow_528_5183"
        result="shape"
      />
    </filter>
    <filter
      id="f"
      width="547"
      height="91"
      x="111.2"
      y="150.6"
      color-interpolation-filters="sRGB"
      filterUnits="userSpaceOnUse"
    >
      <feFlood flood-opacity="0" result="BackgroundImageFix" />
      <feColorMatrix
        in="SourceAlpha"
        result="hardAlpha"
        values="0 0 0 0 0 0 0 0 0 0 0 0 0 0 0 0 0 0 127 0"
      />
      <feMorphology
        in="SourceAlpha"
        radius="2"
        result="effect1_dropShadow_528_5183"
      />
      <feOffset dy="4" />
      <feGaussianBlur stdDeviation="3" />
      <feComposite in2="hardAlpha" operator="out" />
      <feColorMatrix values="0 0 0 0 0 0 0 0 0 0 0 0 0 0 0 0 0 0 0.02 0" />
      <feBlend in2="BackgroundImageFix" result="effect1_dropShadow_528_5183" />
      <feColorMatrix
        in="SourceAlpha"
        result="hardAlpha"
        values="0 0 0 0 0 0 0 0 0 0 0 0 0 0 0 0 0 0 127 0"
      />
      <feMorphology
        in="SourceAlpha"
        radius="3"
        result="effect2_dropShadow_528_5183"
      />
      <feOffset dy="10" />
      <feGaussianBlur stdDeviation="7.5" />
      <feComposite in2="hardAlpha" operator="out" />
      <feColorMatrix values="0 0 0 0 0 0 0 0 0 0 0 0 0 0 0 0 0 0 0.05 0" />
      <feBlend
        in2="effect1_dropShadow_528_5183"
        result="effect2_dropShadow_528_5183"
      />
      <feBlend
        in="SourceGraphic"
        in2="effect2_dropShadow_528_5183"
        result="shape"
      />
    </filter>
    <linearGradient
      id="b"
      x1="686"
      x2="11"
      y1="120.5"
      y2="120.5"
      gradientUnits="userSpaceOnUse"
    >
      <stop stop-color="#0A0A0A" />
      <stop offset="1" stop-color="#141414" />
    </linearGradient>
    <linearGradient
      id="c"
      x1="348.5"
      x2="348.5"
      y1="2"
      y2="239"
      gradientUnits="userSpaceOnUse"
    >
      <stop stop-color="#E4E4E7" />
      <stop offset="1" />
    </linearGradient>
  </defs>
</svg>
