<svg viewBox="0 0 697 259" fill="none" xmlns="http://www.w3.org/2000/svg">
  <g filter="url(#filter0_dd_528_5183)">
    <rect
      x="11"
      y="2"
      width="675"
      height="237"
      rx="16"
      fill="url(#paint0_linear_528_5183)"
    />
    <rect
      x="11.5"
      y="2.5"
      width="674"
      height="236"
      rx="15.5"
      stroke="url(#paint1_linear_528_5183)"
      stroke-opacity="0.1"
    />
  </g>
  <g filter="url(#filter1_dd_528_5183)">
    <rect x="42" y="23" width="56" height="56.0007" rx="12" fill="#18181B" />
    <rect
      x="42.3114"
      y="23.3114"
      width="55.3772"
      height="55.3779"
      rx="11.6886"
      stroke="#E4E4E7"
      stroke-opacity="0.1"
      stroke-width="0.622784"
    />
    <path
      d="M83.4899 39.7344L83.4899 46.8969H79.3965L79.3965 39.7344L83.4899 39.7344Z"
      fill="white"
    />
    <path
      d="M77.3099 39.7344L77.3099 46.8969H72.625V39.7344L77.3099 39.7344Z"
      fill="white"
    />
    <path
      d="M68.5732 45.9071C65.7316 46.1039 63.4873 48.4706 63.4873 51.3622C63.4875 54.3825 65.9358 56.8307 68.9561 56.831H80.9033V62.2665H68.2764C66.3263 62.2665 64.6317 61.8015 63.1924 60.872C61.7762 59.9424 60.6732 58.6433 59.8838 56.9755C59.1177 55.3351 58.7344 53.4214 58.7344 51.2343C58.7344 48.8011 59.1526 46.7643 59.9883 45.1239C60.8241 43.4835 61.9619 42.2391 63.4014 41.3915C64.864 40.544 66.5127 40.1063 68.3467 40.079L68.5732 45.9071Z"
      fill="white"
    />
  </g>
  <path
    d="M124.865 51.1729V38.3929H126.413V50.4529L125.639 49.6609H132.803V51.1729H124.865ZM138.113 51.3889C137.213 51.3889 136.433 51.1849 135.773 50.7769C135.125 50.3689 134.621 49.7929 134.261 49.0489C133.913 48.2929 133.739 47.4109 133.739 46.4029C133.739 45.3949 133.913 44.5189 134.261 43.7749C134.621 43.0309 135.119 42.4549 135.755 42.0469C136.403 41.6269 137.165 41.4169 138.041 41.4169C138.869 41.4169 139.601 41.6149 140.237 42.0109C140.873 42.3949 141.365 42.9589 141.713 43.7029C142.073 44.4469 142.253 45.3529 142.253 46.4209V46.8709H135.323C135.383 47.8909 135.653 48.6589 136.133 49.1749C136.625 49.6909 137.285 49.9489 138.113 49.9489C138.737 49.9489 139.247 49.8049 139.643 49.5169C140.051 49.2169 140.333 48.8269 140.489 48.3469L142.109 48.4729C141.857 49.3249 141.377 50.0269 140.669 50.5789C139.973 51.1189 139.121 51.3889 138.113 51.3889ZM135.323 45.5389H140.597C140.525 44.6149 140.255 43.9369 139.787 43.5049C139.331 43.0729 138.749 42.8569 138.041 42.8569C137.309 42.8569 136.703 43.0849 136.223 43.5409C135.755 43.9849 135.455 44.6509 135.323 45.5389ZM147.424 51.1729C146.56 51.1729 145.918 50.9749 145.498 50.5789C145.09 50.1829 144.886 49.5649 144.886 48.7249V39.4009H146.398V48.6889C146.398 49.1209 146.494 49.4209 146.686 49.5889C146.878 49.7569 147.172 49.8409 147.568 49.8409H148.936V51.1729H147.424ZM143.482 42.9649V41.6329H148.936V42.9649H143.482ZM150.639 43.1809L150.351 39.8329V38.3929H151.935V39.8329L151.647 43.1809H150.639ZM157.478 51.3889C156.626 51.3889 155.9 51.2509 155.3 50.9749C154.712 50.6989 154.25 50.3209 153.914 49.8409C153.59 49.3489 153.404 48.7909 153.356 48.1669L154.94 48.0589C155.036 48.6349 155.282 49.0969 155.678 49.4449C156.074 49.7809 156.674 49.9489 157.478 49.9489C158.126 49.9489 158.642 49.8469 159.026 49.6429C159.422 49.4269 159.62 49.0849 159.62 48.6169C159.62 48.3649 159.56 48.1549 159.44 47.9869C159.32 47.8189 159.086 47.6749 158.738 47.5549C158.39 47.4229 157.874 47.2969 157.19 47.1769C156.278 47.0089 155.558 46.8049 155.03 46.5649C154.514 46.3129 154.142 46.0069 153.914 45.6469C153.698 45.2749 153.59 44.8369 153.59 44.3329C153.59 43.4809 153.902 42.7849 154.526 42.2449C155.15 41.6929 156.038 41.4169 157.19 41.4169C157.97 41.4169 158.624 41.5609 159.152 41.8489C159.692 42.1249 160.112 42.4969 160.412 42.9649C160.724 43.4209 160.928 43.9249 161.024 44.4769L159.44 44.5849C159.368 44.2489 159.236 43.9549 159.044 43.7029C158.852 43.4389 158.6 43.2349 158.288 43.0909C157.976 42.9349 157.604 42.8569 157.172 42.8569C156.488 42.8569 155.984 42.9889 155.66 43.2529C155.336 43.5169 155.174 43.8529 155.174 44.2609C155.174 44.5729 155.246 44.8309 155.39 45.0349C155.546 45.2269 155.792 45.3889 156.128 45.5209C156.464 45.6409 156.914 45.7489 157.478 45.8449C158.45 46.0129 159.206 46.2169 159.746 46.4569C160.286 46.6969 160.664 46.9909 160.88 47.3389C161.096 47.6869 161.204 48.1129 161.204 48.6169C161.204 49.2049 161.036 49.7089 160.7 50.1289C160.376 50.5369 159.932 50.8489 159.368 51.0649C158.816 51.2809 158.186 51.3889 157.478 51.3889ZM171.418 51.3889C170.566 51.3889 169.84 51.2509 169.24 50.9749C168.652 50.6989 168.19 50.3209 167.854 49.8409C167.53 49.3489 167.344 48.7909 167.296 48.1669L168.88 48.0589C168.976 48.6349 169.222 49.0969 169.618 49.4449C170.014 49.7809 170.614 49.9489 171.418 49.9489C172.066 49.9489 172.582 49.8469 172.966 49.6429C173.362 49.4269 173.56 49.0849 173.56 48.6169C173.56 48.3649 173.5 48.1549 173.38 47.9869C173.26 47.8189 173.026 47.6749 172.678 47.5549C172.33 47.4229 171.814 47.2969 171.13 47.1769C170.218 47.0089 169.498 46.8049 168.97 46.5649C168.454 46.3129 168.082 46.0069 167.854 45.6469C167.638 45.2749 167.53 44.8369 167.53 44.3329C167.53 43.4809 167.842 42.7849 168.466 42.2449C169.09 41.6929 169.978 41.4169 171.13 41.4169C171.91 41.4169 172.564 41.5609 173.092 41.8489C173.632 42.1249 174.052 42.4969 174.352 42.9649C174.664 43.4209 174.868 43.9249 174.964 44.4769L173.38 44.5849C173.308 44.2489 173.176 43.9549 172.984 43.7029C172.792 43.4389 172.54 43.2349 172.228 43.0909C171.916 42.9349 171.544 42.8569 171.112 42.8569C170.428 42.8569 169.924 42.9889 169.6 43.2529C169.276 43.5169 169.114 43.8529 169.114 44.2609C169.114 44.5729 169.186 44.8309 169.33 45.0349C169.486 45.2269 169.732 45.3889 170.068 45.5209C170.404 45.6409 170.854 45.7489 171.418 45.8449C172.39 46.0129 173.146 46.2169 173.686 46.4569C174.226 46.6969 174.604 46.9909 174.82 47.3389C175.036 47.6869 175.144 48.1129 175.144 48.6169C175.144 49.2049 174.976 49.7089 174.64 50.1289C174.316 50.5369 173.872 50.8489 173.308 51.0649C172.756 51.2809 172.126 51.3889 171.418 51.3889ZM180.33 51.1729C179.466 51.1729 178.824 50.9749 178.404 50.5789C177.996 50.1829 177.792 49.5649 177.792 48.7249V39.4009H179.304V48.6889C179.304 49.1209 179.4 49.4209 179.592 49.5889C179.784 49.7569 180.078 49.8409 180.474 49.8409H181.842V51.1729H180.33ZM176.388 42.9649V41.6329H181.842V42.9649H176.388ZM186.285 51.3889C185.301 51.3889 184.515 51.1609 183.927 50.7049C183.351 50.2489 183.063 49.6129 183.063 48.7969C183.063 47.9809 183.303 47.3389 183.783 46.8709C184.263 46.4029 185.025 46.0729 186.069 45.8809L189.453 45.2509C189.453 44.4469 189.261 43.8469 188.877 43.4509C188.505 43.0549 187.941 42.8569 187.185 42.8569C186.525 42.8569 186.003 43.0069 185.619 43.3069C185.235 43.5949 184.971 44.0149 184.827 44.5669L183.225 44.4409C183.405 43.5409 183.837 42.8149 184.521 42.2629C185.217 41.6989 186.105 41.4169 187.185 41.4169C188.409 41.4169 189.345 41.7649 189.993 42.4609C190.641 43.1449 190.965 44.0929 190.965 45.3049V49.2469C190.965 49.4629 191.001 49.6189 191.073 49.7149C191.157 49.7989 191.289 49.8409 191.469 49.8409H191.847V51.1729C191.799 51.1849 191.721 51.1909 191.613 51.1909C191.505 51.2029 191.391 51.2089 191.271 51.2089C190.839 51.2089 190.485 51.1429 190.209 51.0109C189.945 50.8669 189.753 50.6509 189.633 50.3629C189.513 50.0629 189.453 49.6729 189.453 49.1929L189.633 49.2289C189.549 49.6369 189.345 50.0089 189.021 50.3449C188.697 50.6689 188.295 50.9269 187.815 51.1189C187.335 51.2989 186.825 51.3889 186.285 51.3889ZM186.429 50.0569C187.065 50.0569 187.605 49.9369 188.049 49.6969C188.505 49.4449 188.853 49.1089 189.093 48.6889C189.333 48.2569 189.453 47.7769 189.453 47.2489V46.5649L186.357 47.1409C185.709 47.2609 185.259 47.4469 185.007 47.6989C184.767 47.9389 184.647 48.2569 184.647 48.6529C184.647 49.0969 184.803 49.4449 185.115 49.6969C185.439 49.9369 185.877 50.0569 186.429 50.0569ZM193.555 51.1729V41.6329H194.887L194.959 44.0449L194.815 43.9909C194.935 43.1749 195.193 42.5809 195.589 42.2089C195.997 41.8249 196.537 41.6329 197.209 41.6329H198.145V43.0729H197.227C196.747 43.0729 196.345 43.1629 196.021 43.3429C195.709 43.5109 195.469 43.7689 195.301 44.1169C195.145 44.4529 195.067 44.8849 195.067 45.4129V51.1729H193.555ZM202.971 51.1729C202.107 51.1729 201.465 50.9749 201.045 50.5789C200.637 50.1829 200.433 49.5649 200.433 48.7249V39.4009H201.945V48.6889C201.945 49.1209 202.041 49.4209 202.233 49.5889C202.425 49.7569 202.719 49.8409 203.115 49.8409H204.483V51.1729H202.971ZM199.029 42.9649V41.6329H204.483V42.9649H199.029ZM212.936 51.1729L209.984 41.6329H211.64L213.872 49.5889L216.14 41.6329H217.76L220.028 49.5889L222.278 41.6329H223.934L220.982 51.1729H219.074L216.95 43.9189L214.826 51.1729H212.936ZM225.6 51.1729V41.6329H227.112V51.1729H225.6ZM225.564 40.1389V38.3749H227.148V40.1389H225.564ZM232.766 51.1729C231.902 51.1729 231.26 50.9749 230.84 50.5789C230.432 50.1829 230.228 49.5649 230.228 48.7249V39.4009H231.74V48.6889C231.74 49.1209 231.836 49.4209 232.028 49.5889C232.22 49.7569 232.514 49.8409 232.91 49.8409H234.278V51.1729H232.766ZM228.824 42.9649V41.6329H234.278V42.9649H228.824ZM236.217 51.1729V38.3929H237.729V43.7389L237.549 43.7029C237.669 43.1749 237.873 42.7429 238.161 42.4069C238.449 42.0709 238.803 41.8249 239.223 41.6689C239.643 41.5009 240.105 41.4169 240.609 41.4169C241.293 41.4169 241.869 41.5729 242.337 41.8849C242.817 42.1849 243.177 42.6109 243.417 43.1629C243.669 43.7029 243.795 44.3269 243.795 45.0349V51.1729H242.283V45.4669C242.283 44.5429 242.115 43.8589 241.779 43.4149C241.455 42.9709 240.957 42.7489 240.285 42.7489C239.517 42.7489 238.899 42.9829 238.431 43.4509C237.963 43.9189 237.729 44.5969 237.729 45.4849V51.1729H236.217ZM254.668 51.1729C253.804 51.1729 253.162 50.9749 252.742 50.5789C252.334 50.1829 252.13 49.5649 252.13 48.7249V39.4009H253.642V48.6889C253.642 49.1209 253.738 49.4209 253.93 49.5889C254.122 49.7569 254.416 49.8409 254.812 49.8409H256.18V51.1729H254.668ZM250.726 42.9649V41.6329H256.18V42.9649H250.726ZM258.12 51.1729V38.3929H259.632V43.7389L259.452 43.7029C259.572 43.1749 259.776 42.7429 260.064 42.4069C260.352 42.0709 260.706 41.8249 261.126 41.6689C261.546 41.5009 262.008 41.4169 262.512 41.4169C263.196 41.4169 263.772 41.5729 264.24 41.8849C264.72 42.1849 265.08 42.6109 265.32 43.1629C265.572 43.7029 265.698 44.3269 265.698 45.0349V51.1729H264.186V45.4669C264.186 44.5429 264.018 43.8589 263.682 43.4149C263.358 42.9709 262.86 42.7489 262.188 42.7489C261.42 42.7489 260.802 42.9829 260.334 43.4509C259.866 43.9189 259.632 44.5969 259.632 45.4849V51.1729H258.12ZM272.094 51.3889C271.194 51.3889 270.414 51.1849 269.754 50.7769C269.106 50.3689 268.602 49.7929 268.242 49.0489C267.894 48.2929 267.72 47.4109 267.72 46.4029C267.72 45.3949 267.894 44.5189 268.242 43.7749C268.602 43.0309 269.1 42.4549 269.736 42.0469C270.384 41.6269 271.146 41.4169 272.022 41.4169C272.85 41.4169 273.582 41.6149 274.218 42.0109C274.854 42.3949 275.346 42.9589 275.694 43.7029C276.054 44.4469 276.234 45.3529 276.234 46.4209V46.8709H269.304C269.364 47.8909 269.634 48.6589 270.114 49.1749C270.606 49.6909 271.266 49.9489 272.094 49.9489C272.718 49.9489 273.228 49.8049 273.624 49.5169C274.032 49.2169 274.314 48.8269 274.47 48.3469L276.09 48.4729C275.838 49.3249 275.358 50.0269 274.65 50.5789C273.954 51.1189 273.102 51.3889 272.094 51.3889ZM269.304 45.5389H274.578C274.506 44.6149 274.236 43.9369 273.768 43.5049C273.312 43.0729 272.73 42.8569 272.022 42.8569C271.29 42.8569 270.684 43.0849 270.204 43.5409C269.736 43.9849 269.436 44.6509 269.304 45.5389ZM282.958 53.8729V41.6329H284.362L284.398 43.6849L284.182 43.5769C284.422 42.8689 284.818 42.3349 285.37 41.9749C285.934 41.6029 286.582 41.4169 287.314 41.4169C288.262 41.4169 289.036 41.6509 289.636 42.1189C290.248 42.5869 290.698 43.1989 290.986 43.9549C291.286 44.7109 291.436 45.5269 291.436 46.4029C291.436 47.2789 291.286 48.0949 290.986 48.8509C290.698 49.6069 290.248 50.2189 289.636 50.6869C289.036 51.1549 288.262 51.3889 287.314 51.3889C286.822 51.3889 286.36 51.3049 285.928 51.1369C285.508 50.9689 285.148 50.7349 284.848 50.4349C284.56 50.1349 284.362 49.7809 284.254 49.3729L284.47 49.1209V53.8729H282.958ZM287.17 49.9489C287.998 49.9489 288.652 49.6369 289.132 49.0129C289.612 48.3889 289.852 47.5189 289.852 46.4029C289.852 45.2869 289.612 44.4169 289.132 43.7929C288.652 43.1689 287.998 42.8569 287.17 42.8569C286.618 42.8569 286.138 42.9889 285.73 43.2529C285.334 43.5169 285.022 43.9129 284.794 44.4409C284.578 44.9689 284.47 45.6229 284.47 46.4029C284.47 47.1829 284.578 47.8369 284.794 48.3649C285.01 48.8929 285.322 49.2889 285.73 49.5529C286.138 49.8169 286.618 49.9489 287.17 49.9489ZM293.487 51.1729V41.6329H294.819L294.891 44.0449L294.747 43.9909C294.867 43.1749 295.125 42.5809 295.521 42.2089C295.929 41.8249 296.469 41.6329 297.141 41.6329H298.077V43.0729H297.159C296.679 43.0729 296.277 43.1629 295.953 43.3429C295.641 43.5109 295.401 43.7689 295.233 44.1169C295.077 44.4529 294.999 44.8849 294.999 45.4129V51.1729H293.487ZM303.312 51.3889C302.436 51.3889 301.668 51.1849 301.008 50.7769C300.348 50.3689 299.838 49.7929 299.478 49.0489C299.118 48.2929 298.938 47.4109 298.938 46.4029C298.938 45.3829 299.118 44.5009 299.478 43.7569C299.838 43.0129 300.348 42.4369 301.008 42.0289C301.668 41.6209 302.436 41.4169 303.312 41.4169C304.188 41.4169 304.95 41.6209 305.598 42.0289C306.258 42.4369 306.768 43.0129 307.128 43.7569C307.488 44.5009 307.668 45.3829 307.668 46.4029C307.668 47.4109 307.488 48.2929 307.128 49.0489C306.768 49.7929 306.258 50.3689 305.598 50.7769C304.95 51.1849 304.188 51.3889 303.312 51.3889ZM303.312 49.9489C304.188 49.9489 304.866 49.6369 305.346 49.0129C305.838 48.3769 306.084 47.5069 306.084 46.4029C306.084 45.2989 305.838 44.4349 305.346 43.8109C304.866 43.1749 304.188 42.8569 303.312 42.8569C302.436 42.8569 301.752 43.1749 301.26 43.8109C300.768 44.4349 300.522 45.2989 300.522 46.4029C300.522 47.5069 300.768 48.3769 301.26 49.0129C301.752 49.6369 302.436 49.9489 303.312 49.9489ZM308.199 53.8729V52.5409H308.973C309.285 52.5409 309.537 52.4629 309.729 52.3069C309.921 52.1629 310.017 51.8929 310.017 51.4969V41.6329H311.529V51.5689C311.529 52.4089 311.343 53.0029 310.971 53.3509C310.599 53.6989 309.981 53.8729 309.117 53.8729H308.199ZM309.981 40.1389V38.3749H311.565V40.1389H309.981ZM317.955 51.3889C317.055 51.3889 316.275 51.1849 315.615 50.7769C314.967 50.3689 314.463 49.7929 314.103 49.0489C313.755 48.2929 313.581 47.4109 313.581 46.4029C313.581 45.3949 313.755 44.5189 314.103 43.7749C314.463 43.0309 314.961 42.4549 315.597 42.0469C316.245 41.6269 317.007 41.4169 317.883 41.4169C318.711 41.4169 319.443 41.6149 320.079 42.0109C320.715 42.3949 321.207 42.9589 321.555 43.7029C321.915 44.4469 322.095 45.3529 322.095 46.4209V46.8709H315.165C315.225 47.8909 315.495 48.6589 315.975 49.1749C316.467 49.6909 317.127 49.9489 317.955 49.9489C318.579 49.9489 319.089 49.8049 319.485 49.5169C319.893 49.2169 320.175 48.8269 320.331 48.3469L321.951 48.4729C321.699 49.3249 321.219 50.0269 320.511 50.5789C319.815 51.1189 318.963 51.3889 317.955 51.3889ZM315.165 45.5389H320.439C320.367 44.6149 320.097 43.9369 319.629 43.5049C319.173 43.0729 318.591 42.8569 317.883 42.8569C317.151 42.8569 316.545 43.0849 316.065 43.5409C315.597 43.9849 315.297 44.6509 315.165 45.5389ZM327.869 51.3889C326.981 51.3889 326.207 51.1849 325.547 50.7769C324.899 50.3689 324.395 49.7929 324.035 49.0489C323.675 48.2929 323.495 47.4109 323.495 46.4029C323.495 45.3949 323.675 44.5189 324.035 43.7749C324.395 43.0309 324.899 42.4549 325.547 42.0469C326.207 41.6269 326.981 41.4169 327.869 41.4169C328.601 41.4169 329.249 41.5489 329.813 41.8129C330.389 42.0649 330.857 42.4369 331.217 42.9289C331.577 43.4209 331.811 44.0209 331.919 44.7289L330.335 44.8369C330.227 44.2009 329.951 43.7149 329.507 43.3789C329.063 43.0309 328.517 42.8569 327.869 42.8569C326.993 42.8569 326.309 43.1749 325.817 43.8109C325.325 44.4349 325.079 45.2989 325.079 46.4029C325.079 47.5069 325.325 48.3769 325.817 49.0129C326.309 49.6369 326.993 49.9489 327.869 49.9489C328.517 49.9489 329.063 49.7689 329.507 49.4089C329.951 49.0489 330.227 48.5089 330.335 47.7889L331.919 47.8969C331.811 48.6049 331.577 49.2229 331.217 49.7509C330.857 50.2669 330.389 50.6689 329.813 50.9569C329.249 51.2449 328.601 51.3889 327.869 51.3889ZM336.916 51.1729C336.052 51.1729 335.41 50.9749 334.99 50.5789C334.582 50.1829 334.378 49.5649 334.378 48.7249V39.4009H335.89V48.6889C335.89 49.1209 335.986 49.4209 336.178 49.5889C336.37 49.7569 336.664 49.8409 337.06 49.8409H338.428V51.1729H336.916ZM332.974 42.9649V41.6329H338.428V42.9649H332.974ZM340.131 43.1809L339.843 39.8329V38.3929H341.427V39.8329L341.139 43.1809H340.131ZM346.971 51.3889C346.119 51.3889 345.393 51.2509 344.793 50.9749C344.205 50.6989 343.743 50.3209 343.407 49.8409C343.083 49.3489 342.897 48.7909 342.849 48.1669L344.433 48.0589C344.529 48.6349 344.775 49.0969 345.171 49.4449C345.567 49.7809 346.167 49.9489 346.971 49.9489C347.619 49.9489 348.135 49.8469 348.519 49.6429C348.915 49.4269 349.113 49.0849 349.113 48.6169C349.113 48.3649 349.053 48.1549 348.933 47.9869C348.813 47.8189 348.579 47.6749 348.231 47.5549C347.883 47.4229 347.367 47.2969 346.683 47.1769C345.771 47.0089 345.051 46.8049 344.523 46.5649C344.007 46.3129 343.635 46.0069 343.407 45.6469C343.191 45.2749 343.083 44.8369 343.083 44.3329C343.083 43.4809 343.395 42.7849 344.019 42.2449C344.643 41.6929 345.531 41.4169 346.683 41.4169C347.463 41.4169 348.117 41.5609 348.645 41.8489C349.185 42.1249 349.605 42.4969 349.905 42.9649C350.217 43.4209 350.421 43.9249 350.517 44.4769L348.933 44.5849C348.861 44.2489 348.729 43.9549 348.537 43.7029C348.345 43.4389 348.093 43.2349 347.781 43.0909C347.469 42.9349 347.097 42.8569 346.665 42.8569C345.981 42.8569 345.477 42.9889 345.153 43.2529C344.829 43.5169 344.667 43.8529 344.667 44.2609C344.667 44.5729 344.739 44.8309 344.883 45.0349C345.039 45.2269 345.285 45.3889 345.621 45.5209C345.957 45.6409 346.407 45.7489 346.971 45.8449C347.943 46.0129 348.699 46.2169 349.239 46.4569C349.779 46.6969 350.157 46.9909 350.373 47.3389C350.589 47.6869 350.697 48.1129 350.697 48.6169C350.697 49.2049 350.529 49.7089 350.193 50.1289C349.869 50.5369 349.425 50.8489 348.861 51.0649C348.309 51.2809 347.679 51.3889 346.971 51.3889ZM361.162 51.3889C360.274 51.3889 359.5 51.1849 358.84 50.7769C358.192 50.3689 357.688 49.7929 357.328 49.0489C356.968 48.2929 356.788 47.4109 356.788 46.4029C356.788 45.3949 356.968 44.5189 357.328 43.7749C357.688 43.0309 358.192 42.4549 358.84 42.0469C359.5 41.6269 360.274 41.4169 361.162 41.4169C361.894 41.4169 362.542 41.5489 363.106 41.8129C363.682 42.0649 364.15 42.4369 364.51 42.9289C364.87 43.4209 365.104 44.0209 365.212 44.7289L363.628 44.8369C363.52 44.2009 363.244 43.7149 362.8 43.3789C362.356 43.0309 361.81 42.8569 361.162 42.8569C360.286 42.8569 359.602 43.1749 359.11 43.8109C358.618 44.4349 358.372 45.2989 358.372 46.4029C358.372 47.5069 358.618 48.3769 359.11 49.0129C359.602 49.6369 360.286 49.9489 361.162 49.9489C361.81 49.9489 362.356 49.7689 362.8 49.4089C363.244 49.0489 363.52 48.5089 363.628 47.7889L365.212 47.8969C365.104 48.6049 364.87 49.2229 364.51 49.7509C364.15 50.2669 363.682 50.6689 363.106 50.9569C362.542 51.2449 361.894 51.3889 361.162 51.3889ZM370.812 51.3889C369.936 51.3889 369.168 51.1849 368.508 50.7769C367.848 50.3689 367.338 49.7929 366.978 49.0489C366.618 48.2929 366.438 47.4109 366.438 46.4029C366.438 45.3829 366.618 44.5009 366.978 43.7569C367.338 43.0129 367.848 42.4369 368.508 42.0289C369.168 41.6209 369.936 41.4169 370.812 41.4169C371.688 41.4169 372.45 41.6209 373.098 42.0289C373.758 42.4369 374.268 43.0129 374.628 43.7569C374.988 44.5009 375.168 45.3829 375.168 46.4029C375.168 47.4109 374.988 48.2929 374.628 49.0489C374.268 49.7929 373.758 50.3689 373.098 50.7769C372.45 51.1849 371.688 51.3889 370.812 51.3889ZM370.812 49.9489C371.688 49.9489 372.366 49.6369 372.846 49.0129C373.338 48.3769 373.584 47.5069 373.584 46.4029C373.584 45.2989 373.338 44.4349 372.846 43.8109C372.366 43.1749 371.688 42.8569 370.812 42.8569C369.936 42.8569 369.252 43.1749 368.76 43.8109C368.268 44.4349 368.022 45.2989 368.022 46.4029C368.022 47.5069 368.268 48.3769 368.76 49.0129C369.252 49.6369 369.936 49.9489 370.812 49.9489ZM377.229 51.1729V41.6329H378.561L378.633 44.0449L378.489 43.9909C378.609 43.1749 378.867 42.5809 379.263 42.2089C379.671 41.8249 380.211 41.6329 380.883 41.6329H381.819V43.0729H380.901C380.421 43.0729 380.019 43.1629 379.695 43.3429C379.383 43.5109 379.143 43.7689 378.975 44.1169C378.819 44.4529 378.741 44.8849 378.741 45.4129V51.1729H377.229ZM387.055 51.3889C386.155 51.3889 385.375 51.1849 384.715 50.7769C384.067 50.3689 383.563 49.7929 383.203 49.0489C382.855 48.2929 382.681 47.4109 382.681 46.4029C382.681 45.3949 382.855 44.5189 383.203 43.7749C383.563 43.0309 384.061 42.4549 384.697 42.0469C385.345 41.6269 386.107 41.4169 386.983 41.4169C387.811 41.4169 388.543 41.6149 389.179 42.0109C389.815 42.3949 390.307 42.9589 390.655 43.7029C391.015 44.4469 391.195 45.3529 391.195 46.4209V46.8709H384.265C384.325 47.8909 384.595 48.6589 385.075 49.1749C385.567 49.6909 386.227 49.9489 387.055 49.9489C387.679 49.9489 388.189 49.8049 388.585 49.5169C388.993 49.2169 389.275 48.8269 389.431 48.3469L391.051 48.4729C390.799 49.3249 390.319 50.0269 389.611 50.5789C388.915 51.1189 388.063 51.3889 387.055 51.3889ZM384.265 45.5389H389.539C389.467 44.6149 389.197 43.9369 388.729 43.5049C388.273 43.0729 387.691 42.8569 386.983 42.8569C386.251 42.8569 385.645 43.0849 385.165 43.5409C384.697 43.9849 384.397 44.6509 384.265 45.5389ZM401.645 51.3889C400.769 51.3889 400.001 51.1849 399.341 50.7769C398.681 50.3689 398.171 49.7929 397.811 49.0489C397.451 48.2929 397.271 47.4109 397.271 46.4029C397.271 45.3829 397.451 44.5009 397.811 43.7569C398.171 43.0129 398.681 42.4369 399.341 42.0289C400.001 41.6209 400.769 41.4169 401.645 41.4169C402.521 41.4169 403.283 41.6209 403.931 42.0289C404.591 42.4369 405.101 43.0129 405.461 43.7569C405.821 44.5009 406.001 45.3829 406.001 46.4029C406.001 47.4109 405.821 48.2929 405.461 49.0489C405.101 49.7929 404.591 50.3689 403.931 50.7769C403.283 51.1849 402.521 51.3889 401.645 51.3889ZM401.645 49.9489C402.521 49.9489 403.199 49.6369 403.679 49.0129C404.171 48.3769 404.417 47.5069 404.417 46.4029C404.417 45.2989 404.171 44.4349 403.679 43.8109C403.199 43.1749 402.521 42.8569 401.645 42.8569C400.769 42.8569 400.085 43.1749 399.593 43.8109C399.101 44.4349 398.855 45.2989 398.855 46.4029C398.855 47.5069 399.101 48.3769 399.593 49.0129C400.085 49.6369 400.769 49.9489 401.645 49.9489ZM412.435 51.3889C411.775 51.3889 411.187 51.2449 410.671 50.9569C410.155 50.6569 409.759 50.2489 409.483 49.7329L409.429 51.1729H408.061V38.3929H409.573V42.9649C409.813 42.5689 410.185 42.2149 410.689 41.9029C411.193 41.5789 411.775 41.4169 412.435 41.4169C413.275 41.4169 414.001 41.6209 414.613 42.0289C415.225 42.4369 415.699 43.0129 416.035 43.7569C416.371 44.5009 416.539 45.3829 416.539 46.4029C416.539 47.4229 416.371 48.3049 416.035 49.0489C415.699 49.7929 415.225 50.3689 414.613 50.7769C414.001 51.1849 413.275 51.3889 412.435 51.3889ZM412.345 49.9489C413.149 49.9489 413.785 49.6309 414.253 48.9949C414.721 48.3589 414.955 47.4949 414.955 46.4029C414.955 45.2989 414.721 44.4349 414.253 43.8109C413.785 43.1749 413.161 42.8569 412.381 42.8569C411.793 42.8569 411.289 43.0009 410.869 43.2889C410.449 43.5649 410.125 43.9669 409.897 44.4949C409.681 45.0229 409.573 45.6589 409.573 46.4029C409.573 47.1229 409.681 47.7529 409.897 48.2929C410.125 48.8209 410.443 49.2289 410.851 49.5169C411.271 49.8049 411.769 49.9489 412.345 49.9489ZM417.06 53.8729V52.5409H417.834C418.146 52.5409 418.398 52.4629 418.59 52.3069C418.782 52.1629 418.878 51.8929 418.878 51.4969V41.6329H420.39V51.5689C420.39 52.4089 420.204 53.0029 419.832 53.3509C419.46 53.6989 418.842 53.8729 417.978 53.8729H417.06ZM418.842 40.1389V38.3749H420.426V40.1389H418.842ZM426.816 51.3889C425.916 51.3889 425.136 51.1849 424.476 50.7769C423.828 50.3689 423.324 49.7929 422.964 49.0489C422.616 48.2929 422.442 47.4109 422.442 46.4029C422.442 45.3949 422.616 44.5189 422.964 43.7749C423.324 43.0309 423.822 42.4549 424.458 42.0469C425.106 41.6269 425.868 41.4169 426.744 41.4169C427.572 41.4169 428.304 41.6149 428.94 42.0109C429.576 42.3949 430.068 42.9589 430.416 43.7029C430.776 44.4469 430.956 45.3529 430.956 46.4209V46.8709H424.026C424.086 47.8909 424.356 48.6589 424.836 49.1749C425.328 49.6909 425.988 49.9489 426.816 49.9489C427.44 49.9489 427.95 49.8049 428.346 49.5169C428.754 49.2169 429.036 48.8269 429.192 48.3469L430.812 48.4729C430.56 49.3249 430.08 50.0269 429.372 50.5789C428.676 51.1189 427.824 51.3889 426.816 51.3889ZM424.026 45.5389H429.3C429.228 44.6149 428.958 43.9369 428.49 43.5049C428.034 43.0729 427.452 42.8569 426.744 42.8569C426.012 42.8569 425.406 43.0849 424.926 43.5409C424.458 43.9849 424.158 44.6509 424.026 45.5389ZM436.73 51.3889C435.842 51.3889 435.068 51.1849 434.408 50.7769C433.76 50.3689 433.256 49.7929 432.896 49.0489C432.536 48.2929 432.356 47.4109 432.356 46.4029C432.356 45.3949 432.536 44.5189 432.896 43.7749C433.256 43.0309 433.76 42.4549 434.408 42.0469C435.068 41.6269 435.842 41.4169 436.73 41.4169C437.462 41.4169 438.11 41.5489 438.674 41.8129C439.25 42.0649 439.718 42.4369 440.078 42.9289C440.438 43.4209 440.672 44.0209 440.78 44.7289L439.196 44.8369C439.088 44.2009 438.812 43.7149 438.368 43.3789C437.924 43.0309 437.378 42.8569 436.73 42.8569C435.854 42.8569 435.17 43.1749 434.678 43.8109C434.186 44.4349 433.94 45.2989 433.94 46.4029C433.94 47.5069 434.186 48.3769 434.678 49.0129C435.17 49.6369 435.854 49.9489 436.73 49.9489C437.378 49.9489 437.924 49.7689 438.368 49.4089C438.812 49.0489 439.088 48.5089 439.196 47.7889L440.78 47.8969C440.672 48.6049 440.438 49.2229 440.078 49.7509C439.718 50.2669 439.25 50.6689 438.674 50.9569C438.11 51.2449 437.462 51.3889 436.73 51.3889ZM445.778 51.1729C444.914 51.1729 444.272 50.9749 443.852 50.5789C443.444 50.1829 443.24 49.5649 443.24 48.7249V39.4009H444.752V48.6889C444.752 49.1209 444.848 49.4209 445.04 49.5889C445.232 49.7569 445.526 49.8409 445.922 49.8409H447.29V51.1729H445.778ZM441.836 42.9649V41.6329H447.29V42.9649H441.836ZM449.229 51.1729V41.6329H450.741V51.1729H449.229ZM449.193 40.1389V38.3749H450.777V40.1389H449.193ZM455.878 51.1729L452.404 41.6329H454.06L456.832 49.6249L459.604 41.6329H461.26L457.786 51.1729H455.878ZM466.35 51.3889C465.45 51.3889 464.67 51.1849 464.01 50.7769C463.362 50.3689 462.858 49.7929 462.498 49.0489C462.15 48.2929 461.976 47.4109 461.976 46.4029C461.976 45.3949 462.15 44.5189 462.498 43.7749C462.858 43.0309 463.356 42.4549 463.992 42.0469C464.64 41.6269 465.402 41.4169 466.278 41.4169C467.106 41.4169 467.838 41.6149 468.474 42.0109C469.11 42.3949 469.602 42.9589 469.95 43.7029C470.31 44.4469 470.49 45.3529 470.49 46.4209V46.8709H463.56C463.62 47.8909 463.89 48.6589 464.37 49.1749C464.862 49.6909 465.522 49.9489 466.35 49.9489C466.974 49.9489 467.484 49.8049 467.88 49.5169C468.288 49.2169 468.57 48.8269 468.726 48.3469L470.346 48.4729C470.094 49.3249 469.614 50.0269 468.906 50.5789C468.21 51.1189 467.358 51.3889 466.35 51.3889ZM463.56 45.5389H468.834C468.762 44.6149 468.492 43.9369 468.024 43.5049C467.568 43.0729 466.986 42.8569 466.278 42.8569C465.546 42.8569 464.94 43.0849 464.46 43.5409C463.992 43.9849 463.692 44.6509 463.56 45.5389ZM476.012 51.3889C475.16 51.3889 474.434 51.2509 473.834 50.9749C473.246 50.6989 472.784 50.3209 472.448 49.8409C472.124 49.3489 471.938 48.7909 471.89 48.1669L473.474 48.0589C473.57 48.6349 473.816 49.0969 474.212 49.4449C474.608 49.7809 475.208 49.9489 476.012 49.9489C476.66 49.9489 477.176 49.8469 477.56 49.6429C477.956 49.4269 478.154 49.0849 478.154 48.6169C478.154 48.3649 478.094 48.1549 477.974 47.9869C477.854 47.8189 477.62 47.6749 477.272 47.5549C476.924 47.4229 476.408 47.2969 475.724 47.1769C474.812 47.0089 474.092 46.8049 473.564 46.5649C473.048 46.3129 472.676 46.0069 472.448 45.6469C472.232 45.2749 472.124 44.8369 472.124 44.3329C472.124 43.4809 472.436 42.7849 473.06 42.2449C473.684 41.6929 474.572 41.4169 475.724 41.4169C476.504 41.4169 477.158 41.5609 477.686 41.8489C478.226 42.1249 478.646 42.4969 478.946 42.9649C479.258 43.4209 479.462 43.9249 479.558 44.4769L477.974 44.5849C477.902 44.2489 477.77 43.9549 477.578 43.7029C477.386 43.4389 477.134 43.2349 476.822 43.0909C476.51 42.9349 476.138 42.8569 475.706 42.8569C475.022 42.8569 474.518 42.9889 474.194 43.2529C473.87 43.5169 473.708 43.8529 473.708 44.2609C473.708 44.5729 473.78 44.8309 473.924 45.0349C474.08 45.2269 474.326 45.3889 474.662 45.5209C474.998 45.6409 475.448 45.7489 476.012 45.8449C476.984 46.0129 477.74 46.2169 478.28 46.4569C478.82 46.6969 479.198 46.9909 479.414 47.3389C479.63 47.6869 479.738 48.1129 479.738 48.6169C479.738 49.2049 479.57 49.7089 479.234 50.1289C478.91 50.5369 478.466 50.8489 477.902 51.0649C477.35 51.2809 476.72 51.3889 476.012 51.3889ZM481.329 51.1729V49.1389H483.363V51.1729H481.329Z"
    fill="white"
  />
  <g filter="url(#filter2_dd_528_5183)">
    <rect
      x="123.406"
      y="72.873"
      width="522.537"
      height="66.5"
      rx="11.75"
      stroke="#E4E4E7"
      stroke-opacity="0.05"
      stroke-width="0.5"
      shape-rendering="crispEdges"
    />
    <g opacity="0.4">
      <path
        d="M622.667 101.391L613.5 110.557L609.333 106.391"
        stroke="#14B8A6"
        stroke-width="1.32"
        stroke-linecap="round"
        stroke-linejoin="round"
      />
    </g>
    <path
      d="M143.481 112.391L148.089 99.6106H150.177L154.785 112.391H153.093L151.815 108.755H146.451L145.173 112.391H143.481ZM146.973 107.243H151.293L149.133 100.961L146.973 107.243ZM155.937 112.391V110.357H157.971V112.391H155.937Z"
      fill="#71717A"
    />
    <rect
      x="177.596"
      y="92.3906"
      width="339.656"
      height="8.95459"
      rx="4.47729"
      fill="#F4F4F5"
      fill-opacity="0.02"
    />
    <rect
      x="177.596"
      y="111.391"
      width="156.965"
      height="8.95459"
      rx="4.47729"
      fill="#F4F4F5"
      fill-opacity="0.02"
    />
  </g>
  <g filter="url(#filter3_dd_528_5183)">
    <rect
      x="123.406"
      y="152.873"
      width="522.537"
      height="66.5"
      rx="11.75"
      stroke="#E4E4E7"
      stroke-opacity="0.05"
      stroke-width="0.5"
      shape-rendering="crispEdges"
    />
    <path
      d="M144.777 192.391V179.611H149.169C150.681 179.611 151.815 179.887 152.571 180.439C153.327 180.991 153.705 181.861 153.705 183.049C153.705 183.601 153.585 184.087 153.345 184.507C153.105 184.927 152.763 185.257 152.319 185.497C151.875 185.725 151.347 185.839 150.735 185.839L150.717 185.731C151.809 185.731 152.667 186.025 153.291 186.613C153.927 187.189 154.245 187.945 154.245 188.881C154.245 190.045 153.867 190.921 153.111 191.509C152.355 192.097 151.281 192.391 149.889 192.391H144.777ZM146.325 190.879H149.889C150.765 190.879 151.437 190.699 151.905 190.339C152.385 189.979 152.625 189.463 152.625 188.791C152.625 188.119 152.385 187.597 151.905 187.225C151.437 186.841 150.765 186.649 149.889 186.649H146.325V190.879ZM146.325 185.137H149.169C150.105 185.137 150.825 184.963 151.329 184.615C151.833 184.255 152.085 183.757 152.085 183.121C152.085 182.449 151.839 181.951 151.347 181.627C150.867 181.291 150.141 181.123 149.169 181.123H146.325V185.137ZM156.147 192.391V190.357H158.181V192.391H156.147Z"
      fill="#71717A"
    />
    <rect
      x="177.596"
      y="191.391"
      width="156.965"
      height="8.95459"
      rx="4.47729"
      fill="#F4F4F5"
      fill-opacity="0.05"
    />
  </g>
  <defs>
    <filter
      id="filter0_dd_528_5183"
      x="0.24409"
      y="0.207348"
      width="696.512"
      height="258.512"
      filterUnits="userSpaceOnUse"
      color-interpolation-filters="sRGB"
    >
      <feFlood flood-opacity="0" result="BackgroundImageFix" />
      <feColorMatrix
        in="SourceAlpha"
        type="matrix"
        values="0 0 0 0 0 0 0 0 0 0 0 0 0 0 0 0 0 0 127 0"
        result="hardAlpha"
      />
      <feMorphology
        radius="1.79265"
        operator="erode"
        in="SourceAlpha"
        result="effect1_dropShadow_528_5183"
      />
      <feOffset dy="3.5853" />
      <feGaussianBlur stdDeviation="2.68898" />
      <feComposite in2="hardAlpha" operator="out" />
      <feColorMatrix
        type="matrix"
        values="0 0 0 0 0 0 0 0 0 0 0 0 0 0 0 0 0 0 0.02 0"
      />
      <feBlend
        mode="normal"
        in2="BackgroundImageFix"
        result="effect1_dropShadow_528_5183"
      />
      <feColorMatrix
        in="SourceAlpha"
        type="matrix"
        values="0 0 0 0 0 0 0 0 0 0 0 0 0 0 0 0 0 0 127 0"
        result="hardAlpha"
      />
      <feMorphology
        radius="2.68898"
        operator="erode"
        in="SourceAlpha"
        result="effect2_dropShadow_528_5183"
      />
      <feOffset dy="8.96326" />
      <feGaussianBlur stdDeviation="6.72244" />
      <feComposite in2="hardAlpha" operator="out" />
      <feColorMatrix
        type="matrix"
        values="0 0 0 0 0 0 0 0 0 0 0 0 0 0 0 0 0 0 0.05 0"
      />
      <feBlend
        mode="normal"
        in2="effect1_dropShadow_528_5183"
        result="effect2_dropShadow_528_5183"
      />
      <feBlend
        mode="normal"
        in="SourceGraphic"
        in2="effect2_dropShadow_528_5183"
        result="shape"
      />
    </filter>
    <filter
      id="filter1_dd_528_5183"
      x="25.2657"
      y="20.2109"
      width="89.4686"
      height="89.4691"
      filterUnits="userSpaceOnUse"
      color-interpolation-filters="sRGB"
    >
      <feFlood flood-opacity="0" result="BackgroundImageFix" />
      <feColorMatrix
        in="SourceAlpha"
        type="matrix"
        values="0 0 0 0 0 0 0 0 0 0 0 0 0 0 0 0 0 0 127 0"
        result="hardAlpha"
      />
      <feMorphology
        radius="2.78905"
        operator="erode"
        in="SourceAlpha"
        result="effect1_dropShadow_528_5183"
      />
      <feOffset dy="5.5781" />
      <feGaussianBlur stdDeviation="4.18357" />
      <feComposite in2="hardAlpha" operator="out" />
      <feColorMatrix
        type="matrix"
        values="0 0 0 0 0 0 0 0 0 0 0 0 0 0 0 0 0 0 0.02 0"
      />
      <feBlend
        mode="normal"
        in2="BackgroundImageFix"
        result="effect1_dropShadow_528_5183"
      />
      <feColorMatrix
        in="SourceAlpha"
        type="matrix"
        values="0 0 0 0 0 0 0 0 0 0 0 0 0 0 0 0 0 0 127 0"
        result="hardAlpha"
      />
      <feMorphology
        radius="4.18357"
        operator="erode"
        in="SourceAlpha"
        result="effect2_dropShadow_528_5183"
      />
      <feOffset dy="13.9452" />
      <feGaussianBlur stdDeviation="10.4589" />
      <feComposite in2="hardAlpha" operator="out" />
      <feColorMatrix
        type="matrix"
        values="0 0 0 0 0 0 0 0 0 0 0 0 0 0 0 0 0 0 0.05 0"
      />
      <feBlend
        mode="normal"
        in2="effect1_dropShadow_528_5183"
        result="effect2_dropShadow_528_5183"
      />
      <feBlend
        mode="normal"
        in="SourceGraphic"
        in2="effect2_dropShadow_528_5183"
        result="shape"
      />
    </filter>
    <filter
      id="filter2_dd_528_5183"
      x="111.156"
      y="70.623"
      width="547.037"
      height="91"
      filterUnits="userSpaceOnUse"
      color-interpolation-filters="sRGB"
    >
      <feFlood flood-opacity="0" result="BackgroundImageFix" />
      <feColorMatrix
        in="SourceAlpha"
        type="matrix"
        values="0 0 0 0 0 0 0 0 0 0 0 0 0 0 0 0 0 0 127 0"
        result="hardAlpha"
      />
      <feMorphology
        radius="2"
        operator="erode"
        in="SourceAlpha"
        result="effect1_dropShadow_528_5183"
      />
      <feOffset dy="4" />
      <feGaussianBlur stdDeviation="3" />
      <feComposite in2="hardAlpha" operator="out" />
      <feColorMatrix
        type="matrix"
        values="0 0 0 0 0 0 0 0 0 0 0 0 0 0 0 0 0 0 0.02 0"
      />
      <feBlend
        mode="normal"
        in2="BackgroundImageFix"
        result="effect1_dropShadow_528_5183"
      />
      <feColorMatrix
        in="SourceAlpha"
        type="matrix"
        values="0 0 0 0 0 0 0 0 0 0 0 0 0 0 0 0 0 0 127 0"
        result="hardAlpha"
      />
      <feMorphology
        radius="3"
        operator="erode"
        in="SourceAlpha"
        result="effect2_dropShadow_528_5183"
      />
      <feOffset dy="10" />
      <feGaussianBlur stdDeviation="7.5" />
      <feComposite in2="hardAlpha" operator="out" />
      <feColorMatrix
        type="matrix"
        values="0 0 0 0 0 0 0 0 0 0 0 0 0 0 0 0 0 0 0.05 0"
      />
      <feBlend
        mode="normal"
        in2="effect1_dropShadow_528_5183"
        result="effect2_dropShadow_528_5183"
      />
      <feBlend
        mode="normal"
        in="SourceGraphic"
        in2="effect2_dropShadow_528_5183"
        result="shape"
      />
    </filter>
    <filter
      id="filter3_dd_528_5183"
      x="111.156"
      y="150.623"
      width="547.037"
      height="91"
      filterUnits="userSpaceOnUse"
      color-interpolation-filters="sRGB"
    >
      <feFlood flood-opacity="0" result="BackgroundImageFix" />
      <feColorMatrix
        in="SourceAlpha"
        type="matrix"
        values="0 0 0 0 0 0 0 0 0 0 0 0 0 0 0 0 0 0 127 0"
        result="hardAlpha"
      />
      <feMorphology
        radius="2"
        operator="erode"
        in="SourceAlpha"
        result="effect1_dropShadow_528_5183"
      />
      <feOffset dy="4" />
      <feGaussianBlur stdDeviation="3" />
      <feComposite in2="hardAlpha" operator="out" />
      <feColorMatrix
        type="matrix"
        values="0 0 0 0 0 0 0 0 0 0 0 0 0 0 0 0 0 0 0.02 0"
      />
      <feBlend
        mode="normal"
        in2="BackgroundImageFix"
        result="effect1_dropShadow_528_5183"
      />
      <feColorMatrix
        in="SourceAlpha"
        type="matrix"
        values="0 0 0 0 0 0 0 0 0 0 0 0 0 0 0 0 0 0 127 0"
        result="hardAlpha"
      />
      <feMorphology
        radius="3"
        operator="erode"
        in="SourceAlpha"
        result="effect2_dropShadow_528_5183"
      />
      <feOffset dy="10" />
      <feGaussianBlur stdDeviation="7.5" />
      <feComposite in2="hardAlpha" operator="out" />
      <feColorMatrix
        type="matrix"
        values="0 0 0 0 0 0 0 0 0 0 0 0 0 0 0 0 0 0 0.05 0"
      />
      <feBlend
        mode="normal"
        in2="effect1_dropShadow_528_5183"
        result="effect2_dropShadow_528_5183"
      />
      <feBlend
        mode="normal"
        in="SourceGraphic"
        in2="effect2_dropShadow_528_5183"
        result="shape"
      />
    </filter>
    <linearGradient
      id="paint0_linear_528_5183"
      x1="686"
      y1="120.5"
      x2="11"
      y2="120.5"
      gradientUnits="userSpaceOnUse"
    >
      <stop stop-color="#0A0A0A" />
      <stop offset="1" stop-color="#141414" />
    </linearGradient>
    <linearGradient
      id="paint1_linear_528_5183"
      x1="348.5"
      y1="2"
      x2="348.5"
      y2="239"
      gradientUnits="userSpaceOnUse"
    >
      <stop stop-color="#E4E4E7" />
      <stop offset="1" />
    </linearGradient>
  </defs>
</svg>
