<svg xmlns="http://www.w3.org/2000/svg" fill="none" viewBox="0 0 647 272">
  <path
    fill="url(#a)"
    d="M745.24 608h-1504.2v-1h1504.2v1ZM-836.62 321.4h-1V-.14h1V321.4Zm75.58 0h-1V-.14h1V321.4Zm75.58-16.72H-6.23v-74.16h-24.53v-1h24.53v-75h-24.53v-1h24.53v-75h-24.53v-1h24.53V-.15h1v77.67h74.58V-.15h1v77.67h74.58V-.15h1v77.67h74.58V-.15h1v77.67h74.58V-.15h1v77.67h74.58V-.15h1v77.67h74.58V-.15h1v77.67h74.58V-.15h1v77.67h74.58V-.15h1v77.67h74.58V-.15h1v77.67h70.25v1h-70.25v75h70.25v1h-70.25v75h70.25v1h-70.25v74.16h70.25v1h-70.25v15.73h-1v-15.73h-74.58v15.73h-1v-15.73h-74.58v15.73h-1v-15.73h-74.58v15.73h-1v-15.73h-74.58v15.73h-1v-15.73h-74.58v15.73h-1v-15.73H221.5v15.73h-1v-15.73h-74.58v15.73h-1v-15.73H70.35v15.73h-1v-15.73H-5.23v15.73h-1v-15.73h-679.23v15.73h-1v-15.73h-72.5v-1h72.5V-.15h1v304.83Zm1436.03 16.73h-1V-.15h1V321.4Zm75.58 0h-1V-.15h1V321.4Zm75.58 0h-1V-.15h1V321.4ZM-5.23 230.52v74.16h74.58v-74.16H-5.23Zm75.58 0v74.16h74.58v-74.16H70.35Zm75.58 0v74.16h74.58v-74.16h-74.58Zm75.58 0v74.16h74.58v-74.16H221.5Zm75.58 0v74.16h74.58v-74.16h-74.58Zm75.58 0v74.16h74.58v-74.16h-74.58Zm75.58 0v74.16h74.58v-74.16h-74.58Zm75.58 0v74.16h74.58v-74.16h-74.58Zm75.58 0v74.16h74.58v-74.16h-74.58Zm-604.64-76v75h74.58v-75H-5.23Zm75.58 0v75h74.58v-75H70.35Zm75.58 0v75h74.58v-75h-74.58Zm75.58 0v75h74.58v-75H221.5Zm75.58 0v75h74.58v-75h-74.58Zm75.58 0v75h74.58v-75h-74.58Zm75.58 0v75h74.58v-75h-74.58Zm75.58 0v75h74.58v-75h-74.58Zm75.58 0v75h74.58v-75h-74.58Zm-604.64-76v75h74.58v-75H-5.23Zm75.58 0v75h74.58v-75H70.35Zm75.58 0v75h74.58v-75h-74.58Zm75.58 0v75h74.58v-75H221.5Zm75.58 0v75h74.58v-75h-74.58Zm75.58 0v75h74.58v-75h-74.58Zm75.58 0v75h74.58v-75h-74.58Zm75.58 0v75h74.58v-75h-74.58Zm75.58 0v75h74.58v-75h-74.58Z"
    opacity=".3"
  />
  <g filter="url(#b)">
    <path
      fill="url(#c)"
      d="M518.92 77.47a5.33 5.33 0 1 0 10.67 0 5.33 5.33 0 0 0-10.67 0Zm-292.35 76.69v1-1Zm-81.17 75.6v1h71.14v-2H145.4v1Zm76.14-5h1v-65.6h-2v65.6h1Zm5.03-70.6v1l141.3.94v-2l-141.3-.94v1Zm146.33-4.06h1V83.44h-2v66.66h1Zm4.97-71.66v1l146.4-.97-.01-1-.01-1-146.39.97v1Zm-4.97 5h1a4 4 0 0 1 3.98-4l-.01-1v-1a6 6 0 0 0-5.97 6h1Zm-5.03 71.66v1a6 6 0 0 0 6.03-6h-2a4 4 0 0 1-4.02 4l-.01 1Zm-146.33 4.06h1a4 4 0 0 1 4.02-4v-1l.02-1a6 6 0 0 0-6.04 6h1Zm-5 70.6v1a6 6 0 0 0 6-6h-2a4 4 0 0 1-4 4v1Z"
    />
  </g>
  <path
    fill="url(#d)"
    d="M518.92 77.47a5.33 5.33 0 1 0 10.67 0 5.33 5.33 0 0 0-10.67 0Zm-292.35 76.69v1-1Zm-81.17 75.6v1h71.14v-2H145.4v1Zm76.14-5h1v-65.6h-2v65.6h1Zm5.03-70.6v1l141.3.94v-2l-141.3-.94v1Zm146.33-4.06h1V83.44h-2v66.66h1Zm4.97-71.66v1l146.4-.97-.01-1-.01-1-146.39.97v1Zm-4.97 5h1a4 4 0 0 1 3.98-4l-.01-1v-1a6 6 0 0 0-5.97 6h1Zm-5.03 71.66v1a6 6 0 0 0 6.03-6h-2a4 4 0 0 1-4.02 4l-.01 1Zm-146.33 4.06h1a4 4 0 0 1 4.02-4v-1l.02-1a6 6 0 0 0-6.04 6h1Zm-5 70.6v1a6 6 0 0 0 6-6h-2a4 4 0 0 1-4 4v1Z"
  />
  <defs>
    <linearGradient
      id="c"
      x1="496.32"
      x2="152.11"
      y1="77.47"
      y2="229.75"
      gradientUnits="userSpaceOnUse"
    >
      <stop stop-color="#fff" />
      <stop offset="1" stop-color="#1E1E1E" />
    </linearGradient>
    <linearGradient
      id="d"
      x1="496.32"
      x2="152.11"
      y1="77.47"
      y2="229.75"
      gradientUnits="userSpaceOnUse"
    >
      <stop stop-color="#fff" />
      <stop offset="1" stop-color="#1E1E1E" />
    </linearGradient>
    <radialGradient
      id="a"
      cx="0"
      cy="0"
      r="1"
      gradientTransform="matrix(-251 -212.7 256.2 -268.6 324.4 274.9)"
      gradientUnits="userSpaceOnUse"
    >
      <stop offset=".35" stop-color="#B0B0B0" />
      <stop offset="1" />
    </radialGradient>
    <filter
      id="b"
      width="420.59"
      height="195.01"
      x="127.2"
      y="53.94"
      color-interpolation-filters="sRGB"
      filterUnits="userSpaceOnUse"
    >
      <feFlood flood-opacity="0" result="BackgroundImageFix" />
      <feBlend in="SourceGraphic" in2="BackgroundImageFix" result="shape" />
      <feGaussianBlur
        result="effect1_foregroundBlur_565_29075"
        stdDeviation="9.1"
      />
    </filter>
  </defs>
</svg>
