<svg xmlns="http://www.w3.org/2000/svg" fill="none" viewBox="-16 0 500 266">
  <g filter="url(#:S1:)" style="transform: translateX(-30px)">
    <rect width="226" height="52" x="274.6" y=".5" fill="#141414" rx="26" />
    <rect
      width="225"
      height="51"
      x="275.1"
      y="1"
      stroke="#fff"
      stroke-opacity=".1"
      rx="25.5"
    />
    <path
      stroke="#E4E4E7"
      stroke-linecap="round"
      stroke-linejoin="round"
      stroke-width="1.6"
      d="M294.6 20.5v8m0 0a2 2 0 1 0 2 2m-2-2a2 2 0 0 1 2 2m6-6a2 2 0 1 0 0-4 2 2 0 0 0 0 4m0 0a6 6 0 0 1-6 6"
    />
    <path
      fill="#E4E4E7"
      d="M316.3 32.5V19.7h1.5v6.2l-.8-.6h8l-.8.6v-6.2h1.6v12.8h-1.6v-6.3l.8.6h-8l.8-.6v6.3zm15 .2q-1.5 0-2.4-.7-.8-.7-.8-2t.7-1.8 2.3-1l3.3-.7q0-1.2-.5-1.8-.6-.6-1.7-.6-1 0-1.6.5-.6.4-.8 1.3l-1.6-.2q.3-1.3 1.3-2.2 1-.8 2.7-.8 1.8 0 2.8 1 1 1 1 2.9V31l.5.1h.3v1.4a1 1 0 0 1-.2 0 3 3 0 0 1-.3 0q-.7 0-1.1-.2a1.3 1.3 0 0 1-.6-.7q-.2-.4-.2-1.1h.2q-.1.6-.6 1.1a3.5 3.5 0 0 1-1.2.8q-.7.3-1.5.3m.1-1.4q1 0 1.6-.3a2.6 2.6 0 0 0 1-1q.4-.7.4-1.5V28l-3 .5q-1 .2-1.4.6-.4.3-.4 1 0 .6.5 1 .5.3 1.3.3m9.2 1.2-3.5-9.6h1.7l2.8 8 2.7-8h1.7l-3.5 9.6zm10.5.2q-1.4 0-2.4-.6t-1.5-1.8q-.5-1.1-.5-2.6t.5-2.6q.6-1.2 1.5-1.8 1-.6 2.3-.6 1.2 0 2.2.6 1 .6 1.5 1.7t.5 2.7v.5h-7q.2 1.5.9 2.3.7.7 2 .7 1 0 1.5-.4.6-.4.9-1.2l1.6.2a4 4 0 0 1-1.5 2q-1 .9-2.5.9m-2.8-5.9h5.3q-.1-1.4-.8-2-.7-.7-1.8-.7-1 0-1.8.7-.7.7-1 2m16.3 5.9q-1.5 0-2.3-.7-1-.7-1-2t.8-1.8 2.3-1l3.4-.7q0-1.2-.6-1.8-.5-.6-1.7-.6-1 0-1.5.5-.6.4-.8 1.3l-1.6-.2q.2-1.3 1.3-2.2 1-.8 2.6-.8 1.9 0 2.8 1 1 1 1 2.9v4l.1.4.4.1h.4v1.4a1 1 0 0 1-.3 0 3 3 0 0 1-.3 0q-.6 0-1-.2a1.3 1.3 0 0 1-.6-.7q-.2-.4-.2-1.1h.2q-.2.6-.6 1.1a3.5 3.5 0 0 1-1.3.8q-.7.3-1.5.3m.2-1.4q1 0 1.6-.3a2.6 2.6 0 0 0 1-1q.4-.7.4-1.5V28l-3.1.5q-1 .2-1.4.6-.3.3-.3 1 0 .6.4 1 .5.3 1.4.3m7 1.2v-9.6h1.5v2.4l-.2-.1q.2-.9.7-1.4.4-.6 1-.8.7-.3 1.4-.3 1.1 0 1.8.5.8.5 1.1 1.3.4.8.4 1.8v6.2h-1.5v-5.7q0-1-.3-1.5-.2-.6-.6-1-.5-.3-1.2-.3-1 0-1.8.7-.7.7-.7 2v5.8zm15 0v-9.6h1.6v9.6zm0-11v-1.8h1.6v1.7zm7.6 11.2q-1.2 0-2.1-.6-1-.6-1.4-1.8t-.5-2.6.5-2.7 1.4-1.7q1-.6 2.1-.6 1 0 1.8.4t1.2 1.2v-4.6h1.5v12.8h-1.4V31a2.9 2.9 0 0 1-1.2 1.2 3.8 3.8 0 0 1-1.9.5m.4-1.5q.8 0 1.4-.4.6-.4.9-1.2.3-.8.3-2 0-1-.3-1.8t-1-1.2q-.5-.5-1.3-.5-1.3 0-2 1-.8 1-.8 2.6t.7 2.6q.8 1 2 1m10.6 1.4q-1.3 0-2.3-.6-1-.6-1.5-1.8-.6-1.1-.6-2.6t.6-2.6q.5-1.2 1.5-1.8 1-.6 2.2-.6 1.3 0 2.2.6 1 .6 1.5 1.7.6 1.1.6 2.7v.5h-7q.1 1.5.8 2.3.8.7 2 .7 1 0 1.5-.4.7-.4.9-1.2l1.6.2a4 4 0 0 1-1.4 2q-1 .9-2.6.9m-2.8-5.9h5.3q-.1-1.4-.8-2-.7-.7-1.8-.7-1 0-1.8.7-.7.7-.9 2m11.8 5.9q-1.4 0-2.3-.7-.9-.7-.9-2t.7-1.8 2.3-1l3.4-.7q0-1.2-.6-1.8-.5-.6-1.7-.6-1 0-1.5.5-.6.4-.8 1.3l-1.6-.2q.2-1.3 1.3-2.2 1-.8 2.6-.8 1.9 0 2.8 1 1 1 1 2.9v4l.1.4.4.1h.4v1.4a1 1 0 0 1-.2 0 3 3 0 0 1-.4 0q-.6 0-1-.2a1.3 1.3 0 0 1-.6-.7q-.2-.4-.2-1.1h.2q-.2.6-.6 1.1a3.5 3.5 0 0 1-1.2.8q-.8.3-1.6.3m.2-1.4q1 0 1.6-.3a2.6 2.6 0 0 0 1-1q.4-.7.4-1.5V28l-3.1.5q-1 .2-1.4.6-.3.3-.3 1 0 .6.5 1 .4.3 1.3.3"
    />
  </g>
  <g filter="url(#:S3:)" style="transform: translateX(-30px)">
    <rect width="226" height="52" x="274.6" y="106.7" fill="#141414" rx="26" />
    <rect
      width="225"
      height="51"
      x="275.1"
      y="107.2"
      stroke="#fff"
      stroke-opacity=".1"
      rx="25.5"
    />
    <g clip-path="url(#:S4:)">
      <path
        stroke="#E4E4E7"
        stroke-linecap="round"
        stroke-linejoin="round"
        stroke-width="1.6"
        d="m302.6 135.4 2.7-2.7-2.7-2.6m-8 0-2.7 2.6 2.7 2.7m5.7-8-3.4 10.7"
      />
    </g>
    <path
      fill="#E4E4E7"
      d="M316.3 138.7V126h4q2.9 0 4.5 1.7t1.6 4.8q0 3-1.6 4.7t-4.5 1.6zm1.5-1.5h2.4q2.3 0 3.4-1.2t1.1-3.6q0-2.5-1-3.7-1.2-1.2-3.5-1.2h-2.4zm14.8 1.7q-1.4 0-2.4-.6t-1.5-1.7q-.5-1.1-.5-2.6t.5-2.7q.6-1 1.5-1.7 1-.6 2.3-.6 1.3 0 2.2.6 1 .5 1.5 1.7.5 1 .5 2.7v.4h-6.9q0 1.6.8 2.3.7.8 2 .8 1 0 1.5-.4.6-.5.9-1.2l1.6.1a4 4 0 0 1-1.5 2.1q-1 .8-2.5.8m-2.8-5.8h5.3q-.1-1.4-.8-2-.7-.7-1.8-.7-1 0-1.8.7-.7.7-.9 2m12.4 5.8q-1.2 0-2.1-.4-1-.4-1.4-1.1a3.5 3.5 0 0 1-.6-1.7h1.6q.2.8.7 1.3.6.5 1.8.5 1 0 1.6-.3.6-.3.6-1 0-.4-.2-.7t-.7-.4l-1.5-.4q-1.4-.2-2.2-.6-.8-.4-1.1-.9-.3-.6-.3-1.3 0-1.3.9-2.1 1-.8 2.7-.8 1.1 0 2 .4.7.4 1.2 1.1.5.7.6 1.5l-1.6.1a2.2 2.2 0 0 0-.4-.8 1.9 1.9 0 0 0-.7-.7q-.5-.2-1.2-.2-1 0-1.5.4t-.5 1q0 .5.3.8.2.3.7.5l1.3.3 2.3.6q.8.3 1.2.9t.3 1.3q0 .9-.5 1.5t-1.4 1q-.8.2-1.9.2m9.6 0q-1.4 0-2.4-.6t-1.5-1.7q-.5-1.1-.5-2.6t.5-2.7 1.5-1.7q1-.6 2.4-.6 1 0 2 .4a3.4 3.4 0 0 1 1.3 1q.6.8.7 1.9h-1.6q-.1-.9-.8-1.4-.7-.5-1.6-.5-1.4 0-2 1-.8.9-.8 2.6t.7 2.6q.7.9 2 .9 1 0 1.7-.5t.8-1.7l1.6.2q-.1 1-.7 1.8-.5.8-1.4 1.2-.8.4-2 .4m6-.2v-9.5h1.3v2.4q.1-1.3.7-1.8.6-.6 1.6-.6h1v1.4h-1q-.7 0-1.1.3a1.7 1.7 0 0 0-.8.8q-.2.5-.2 1.3v5.7zm6.3 0v-9.5h1.5v9.5zm0-11v-1.8h1.5v1.8zm8.4 11.2q-1 0-1.8-.4a3 3 0 0 1-1.2-1.2v1.4H368V126h1.5v4.6q.4-.6 1.1-1 .8-.5 1.8-.5 1.2 0 2.2.6t1.4 1.7.5 2.7-.5 2.6-1.4 1.7-2.2.6m-.1-1.4q1.2 0 1.9-1t.7-2.5q0-1.7-.7-2.6-.7-1-1.9-1-.9 0-1.5.4-.6.5-1 1.3-.3.7-.3 1.9 0 1 .3 1.8.4.8 1 1.3.6.4 1.5.4m10 1.4q-1.4 0-2.4-.6t-1.5-1.7q-.5-1.1-.5-2.6t.5-2.7q.5-1 1.5-1.7 1-.6 2.3-.6 1.2 0 2.2.6 1 .5 1.5 1.7.5 1 .5 2.7v.4h-7q.2 1.6.9 2.3.7.8 2 .8.9 0 1.5-.4.6-.5.8-1.2l1.7.1a4 4 0 0 1-1.5 2.1q-1 .8-2.5.8m-2.8-5.8h5.2q0-1.4-.8-2-.6-.7-1.7-.7t-1.8.7q-.7.7-1 2m13.7 5.6v-9.5h1.5v9.5zm0-11v-1.8h1.6v1.8zm7.2 11q-1.3 0-2-.6-.5-.6-.5-1.8V127h1.5v9.2q0 .7.3 1t.8.2h1.4v1.3zm-4-8.2v-1.3h5.5v1.3zm15.5 8.2q-1.3 0-1.9-.6-.6-.6-.6-1.8V127h1.5v9.2q0 .7.3 1t.9.2h1.4v1.3zm-3.9-8.2v-1.3h5.5v1.3zm11 8.4q-1.4 0-2.4-.6t-1.5-1.7q-.5-1.1-.5-2.6 0-1.6.5-2.7t1.5-1.7 2.3-.6 2.3.6q1 .6 1.6 1.7t.5 2.7q0 1.5-.5 2.6-.6 1.1-1.6 1.7-1 .6-2.3.6m0-1.4q1.4 0 2-1 .8-.9.8-2.5t-.7-2.6q-.7-1-2-1t-2.1 1q-.7.9-.7 2.6t.7 2.6q.7.9 2 .9m15.7 1.5q-1.4 0-2.5-.5a4.5 4.5 0 0 1-1.8-1.6q-.6-1-.7-2.3h1.6q.1.9.6 1.6t1.1 1q.8.3 1.8.3.9 0 1.5-.2t1-.7q.3-.5.3-1.1 0-.6-.3-1-.3-.5-1-.9-.8-.4-2.3-.8l-2.4-.8q-.9-.5-1.3-1.1-.3-.6-.3-1.6t.5-1.9q.5-.8 1.4-1.3 1-.4 2.3-.4 1.4 0 2.4.5a4.1 4.1 0 0 1 1.6 1.4q.6 1 .8 2.1l-1.7.1a3.2 3.2 0 0 0-.5-1.3 2.6 2.6 0 0 0-1-1q-.7-.3-1.6-.3-1.2 0-2 .5-.6.6-.6 1.5 0 .6.2 1 .3.4 1 .7l2.1.6q1.6.4 2.6 1 1 .5 1.3 1.2.4.8.4 1.7 0 1.1-.6 2-.5.7-1.5 1.2-1 .4-2.4.4m11 0q-1.4 0-2.4-.7-1-.6-1.5-1.7-.6-1.1-.6-2.6t.6-2.7q.5-1 1.5-1.7 1-.6 2.2-.6 1.3 0 2.2.6 1 .5 1.5 1.7.6 1 .6 2.7v.4h-7q.1 1.6.8 2.3.8.8 2 .8 1 0 1.6-.4.6-.5.8-1.2l1.6.1a4 4 0 0 1-1.4 2.1q-1 .8-2.6.8m-2.8-5.8h5.3q-.1-1.4-.8-2-.7-.7-1.8-.7-1 0-1.8.7-.7.7-.9 2m11.8 5.8q-1.4 0-2.3-.6-.9-.7-.9-2t.7-1.9 2.3-1l3.4-.6q0-1.2-.6-1.8-.5-.6-1.7-.6-1 0-1.5.5-.6.4-.8 1.2l-1.6-.1q.2-1.4 1.3-2.2 1-.8 2.6-.8 1.9 0 2.8 1 1 1 1 2.9v3.9l.1.5.4.1h.4v1.3a1 1 0 0 1-.2 0 3 3 0 0 1-.4 0l-1-.1a1.3 1.3 0 0 1-.6-.7q-.2-.4-.2-1.2h.2q-.1.7-.6 1.2a3.5 3.5 0 0 1-1.2.8l-1.6.2m.2-1.3q1 0 1.6-.3a2.6 2.6 0 0 0 1-1q.4-.7.4-1.5v-.7l-3.1.6q-1 .2-1.3.6-.4.3-.4 1 0 .6.5 1 .4.3 1.3.3m8.9 1.1q-.9 0-1.4-.4t-.5-1.4v-11h1.5v10.9l.1.5.5.1h.8v1.3zm6.5.2q-1.3 0-2.3-.6t-1.5-1.7q-.6-1.1-.6-2.6 0-1.6.6-2.7t1.5-1.7 2.3-.6 2.3.6q1 .6 1.5 1.7t.6 2.7q0 1.5-.6 2.6-.5 1.1-1.5 1.7-1 .6-2.3.6m0-1.4q1.3 0 2-1 .8-.9.8-2.5t-.8-2.6q-.7-1-2-1t-2 1q-.8.9-.8 2.6t.8 2.6q.7.9 2 .9m9.9 1.4q-1.3 0-2.2-.4-.9-.4-1.4-1.1a3.5 3.5 0 0 1-.5-1.7h1.6q.1.8.7 1.3t1.8.5q1 0 1.6-.3.5-.3.5-1l-.1-.7q-.1-.3-.7-.4l-1.6-.4q-1.4-.2-2.1-.6-.8-.4-1.2-.9-.3-.6-.3-1.3 0-1.3 1-2.1.9-.8 2.6-.8 1.2 0 2 .4t1.2 1.1q.5.7.6 1.5l-1.5.1a2.2 2.2 0 0 0-.4-.8 1.9 1.9 0 0 0-.8-.7q-.5-.2-1.1-.2-1 0-1.5.4t-.5 1q0 .5.2.8.2.3.8.5l1.3.3 2.3.6q.8.3 1.1.9t.3 1.3q0 .9-.5 1.5t-1.3 1q-.8.2-1.9.2"
    />
  </g>
  <g filter="url(#:S6:)" style="transform: translateX(-30px)">
    <rect width="226" height="52" x="274.6" y="213" fill="#141414" rx="26" />

    <g clip-path="url(#:S8:)">
      <path
        stroke="#3B82F6"
        stroke-linecap="round"
        stroke-linejoin="round"
        stroke-width="1.6"
        d="m296.6 239 1.3 1.3 2.7-2.6m4.7 1.3a6.7 6.7 0 1 1-13.4 0 6.7 6.7 0 0 1 13.4 0"
      />
    </g>
    <path
      fill="#E4E4E7"
      d="M316.3 245v-12.8h1.5V245zm7.4 0q-1.3 0-2-.6-.6-.6-.6-1.9v-9.3h1.5v9.3q0 .7.3 1t1 .2h1.3v1.3zm-4-8.2v-1.3h5.5v1.3zm7.2.2-.3-3.3v-1.5h1.6v1.5l-.3 3.3zm6.8 8.2q-1.3 0-2.2-.4-.8-.4-1.3-1.1a3.5 3.5 0 0 1-.6-1.7l1.6-.1q.1.8.7 1.4.6.5 1.8.5 1 0 1.6-.3.6-.4.6-1 0-.4-.2-.7t-.7-.4l-1.6-.4-2.1-.6q-.8-.4-1.1-1-.4-.5-.4-1.2 0-1.3 1-2.1 1-.9 2.6-.9 1.2 0 2 .5.8.4 1.3 1l.6 1.6-1.6.1a2.2 2.2 0 0 0-.4-.9 1.9 1.9 0 0 0-.8-.6q-.4-.2-1-.2-1.1 0-1.6.4t-.5 1q0 .5.2.8l.8.4 1.3.4q1.5.2 2.3.6t1.1.9.3 1.2q0 1-.5 1.6-.4.6-1.3.9-.8.3-1.9.3m12.4-.2q-.9 0-1.4-.4t-.5-1.4v-11h1.5v10.9l.1.4q.2.2.5.2h.8v1.3zm2.7 0v-9.5h1.6v9.5zm0-11v-1.8h1.6v1.8zm6.7 11-3.5-9.5h1.7l2.7 8 2.8-8h1.7l-3.5 9.5zm10.5.2q-1.4 0-2.4-.6t-1.5-1.7q-.5-1.2-.5-2.7t.5-2.6q.6-1.1 1.5-1.7 1-.7 2.3-.7 1.2 0 2.2.6 1 .6 1.5 1.7t.5 2.7v.5h-7q.2 1.5.9 2.3.7.8 2 .8.9 0 1.5-.5.6-.4.8-1.1l1.7.1a4 4 0 0 1-1.5 2.1q-1 .8-2.5.8m-2.8-5.8h5.3q-.2-1.4-.9-2-.6-.7-1.7-.7t-1.8.7q-.7.6-1 2m8.6 5.6v-2h2v2z"
    />
  </g>
  <g filter="url(#:S9:)">
    <circle cx="64.1" cy="135.8" r="44" fill="#141414" />
  </g>
  <circle cx="64.1" cy="135.8" r="43.5" stroke="#282828" stroke-width=".9" />

  <g clip-path="url(#:Sa:)" filter="url(#:Sb:)">
    <path
      fill="url(#:Sc:)"
      d="M52.8 134.3c2.4 3.4 7.2 3 7.2 3-1.2-1-2-2.2-2-5.2-.2-3-1.9-3.9-1.9-3.9 3.1-2 2-4 2-6.4-.1-1.5.7-2.6 1.4-3.2A15.5 15.5 0 0 0 46.3 134l.1 1.6c.3-.7 4.3-4.4 6.4-1.2z"
    />
    <path
      fill="url(#:Sd:)"
      d="M79.3 125a7.3 7.3 0 0 0-4.8-1.8c-4 0-7.2 3.2-7.4 7.1v1.3l.3 1.5a10.7 10.7 0 0 1 0 3.6 10.8 10.8 0 0 1-.5 2.2c-.8 2-2 3.6-3.7 4.8a10.5 10.5 0 0 1-6.2 2c-1.7 0-3.3-.4-4.7-1-3-1.6-5-4.3-5.7-7.7a18.1 18.1 0 1 0 35.6-6.5 13.6 13.6 0 0 0-.8-2.6c-.5-1.1-1.1-2-2.1-2.9"
    />
    <mask
      id=":Se:"
      width="37"
      height="30"
      x="46"
      y="123"
      maskUnits="userSpaceOnUse"
      style="mask-type: luminance"
    >
      <path
        fill="#fff"
        d="M79.3 125a7.3 7.3 0 0 0-4.8-1.8c-4 0-7.2 3.2-7.4 7.1v1.3l.3 1.5a10.7 10.7 0 0 1 0 3.6 10.8 10.8 0 0 1-.5 2.2c-.8 2-2 3.6-3.7 4.8a10.5 10.5 0 0 1-6.2 2c-1.7 0-3.3-.4-4.7-1-3-1.6-5-4.3-5.7-7.7a18.1 18.1 0 1 0 35.6-6.5 13.6 13.6 0 0 0-.8-2.6c-.5-1.1-1.1-2-2.1-2.9"
      />
    </mask>
    <g mask="url(#:Se:)">
      <path
        fill="url(#:Sf:)"
        d="M62.6 149a16 16 0 1 0 0-31.8 16 16 0 0 0 0 31.8"
      />
    </g>
  </g>
  <defs>
    <linearGradient
      id=":Sc:"
      x1="57.3"
      x2="42.1"
      y1="116.5"
      y2="140.4"
      gradientUnits="userSpaceOnUse"
    >
      <stop stop-color="#0AA3F9" />
      <stop offset="1" stop-color="#B5B4FF" />
    </linearGradient>
    <linearGradient
      id=":Sd:"
      x1="87.9"
      x2="63.8"
      y1="153.2"
      y2="122.1"
      gradientUnits="userSpaceOnUse"
    >
      <stop stop-color="#0AA3F9" />
      <stop offset="1" stop-color="#B5B4FF" />
    </linearGradient>
    <linearGradient
      id=":Sf:"
      x1="73.6"
      x2="45.9"
      y1="117.2"
      y2="143.5"
      gradientUnits="userSpaceOnUse"
    >
      <stop stop-color="#7ABBFD" />
      <stop offset="1" stop-color="#7ABBFD" stop-opacity="0" />
    </linearGradient>
    <filter
      id=":S1:"
      width="226"
      height="52"
      x="274.6"
      y=".5"
      color-interpolation-filters="sRGB"
      filterUnits="userSpaceOnUse"
    >
      <feFlood flood-opacity="0" result="BackgroundImageFix" />
      <feBlend in="SourceGraphic" in2="BackgroundImageFix" result="shape" />
      <feColorMatrix
        in="SourceAlpha"
        result="hardAlpha"
        values="0 0 0 0 0 0 0 0 0 0 0 0 0 0 0 0 0 0 127 0"
      />
      <feOffset />
      <feGaussianBlur stdDeviation="4" />
      <feComposite in2="hardAlpha" k2="-1" k3="1" operator="arithmetic" />
      <feColorMatrix values="0 0 0 0 1 0 0 0 0 1 0 0 0 0 1 0 0 0 0.25 0" />
      <feBlend in2="shape" result="effect1_innerShadow_60_2066" />
    </filter>
    <filter
      id=":S3:"
      width="226"
      height="52"
      x="274.6"
      y="106.7"
      color-interpolation-filters="sRGB"
      filterUnits="userSpaceOnUse"
    >
      <feFlood flood-opacity="0" result="BackgroundImageFix" />
      <feBlend in="SourceGraphic" in2="BackgroundImageFix" result="shape" />
      <feColorMatrix
        in="SourceAlpha"
        result="hardAlpha"
        values="0 0 0 0 0 0 0 0 0 0 0 0 0 0 0 0 0 0 127 0"
      />
      <feOffset />
      <feGaussianBlur stdDeviation="4" />
      <feComposite in2="hardAlpha" k2="-1" k3="1" operator="arithmetic" />
      <feColorMatrix values="0 0 0 0 1 0 0 0 0 1 0 0 0 0 1 0 0 0 0.25 0" />
      <feBlend in2="shape" result="effect1_innerShadow_60_2066" />
    </filter>
    <filter
      id=":S6:"
      width="228"
      height="54"
      x="273.6"
      y="212"
      color-interpolation-filters="sRGB"
      filterUnits="userSpaceOnUse"
    >
      <feFlood flood-opacity="0" result="BackgroundImageFix" />
      <feBlend in="SourceGraphic" in2="BackgroundImageFix" result="shape" />
      <feColorMatrix
        in="SourceAlpha"
        result="hardAlpha"
        values="0 0 0 0 0 0 0 0 0 0 0 0 0 0 0 0 0 0 127 0"
      />
      <feOffset />
      <feGaussianBlur stdDeviation="4" />
      <feComposite in2="hardAlpha" k2="-1" k3="1" operator="arithmetic" />
      <feColorMatrix
        values="0 0 0 0 0.997296 0 0 0 0 0.998322 0 0 0 0 1 0 0 0 0.25 0"
      />
      <feBlend in2="shape" result="effect1_innerShadow_60_2066" />
    </filter>
    <filter
      id=":S9:"
      width="88"
      height="88"
      x="20.1"
      y="91.8"
      color-interpolation-filters="sRGB"
      filterUnits="userSpaceOnUse"
    >
      <feFlood flood-opacity="0" result="BackgroundImageFix" />
      <feBlend in="SourceGraphic" in2="BackgroundImageFix" result="shape" />
      <feColorMatrix
        in="SourceAlpha"
        result="hardAlpha"
        values="0 0 0 0 0 0 0 0 0 0 0 0 0 0 0 0 0 0 127 0"
      />
      <feOffset />
      <feGaussianBlur stdDeviation="3.7" />
      <feComposite in2="hardAlpha" k2="-1" k3="1" operator="arithmetic" />
      <feColorMatrix values="0 0 0 0 1 0 0 0 0 1 0 0 0 0 1 0 0 0 0.25 0" />
      <feBlend in2="shape" result="effect1_innerShadow_60_2066" />
    </filter>
    <filter
      id=":Sb:"
      width="348.5"
      height="348.5"
      x="-109.8"
      y="115"
      color-interpolation-filters="sRGB"
      filterUnits="userSpaceOnUse"
    >
      <feFlood flood-opacity="0" result="BackgroundImageFix" />
      <feColorMatrix
        in="SourceAlpha"
        result="hardAlpha"
        values="0 0 0 0 0 0 0 0 0 0 0 0 0 0 0 0 0 0 127 0"
      />
      <feOffset dy="153.7" />
      <feGaussianBlur stdDeviation="76.9" />
      <feComposite in2="hardAlpha" operator="out" />
      <feColorMatrix
        values="0 0 0 0 0.661024 0 0 0 0 0.719423 0 0 0 0 0.867139 0 0 0 0.25 0"
      />
      <feBlend in2="BackgroundImageFix" result="effect1_dropShadow_60_2066" />
      <feBlend
        in="SourceGraphic"
        in2="effect1_dropShadow_60_2066"
        result="shape"
      />
    </filter>
    <clipPath id=":S4:">
      <path fill="#fff" d="M290.6 124.7h16v16h-16z" />
    </clipPath>
    <clipPath id=":S8:">
      <path fill="#fff" d="M290.6 231h16v16h-16z" />
    </clipPath>
    <clipPath id=":Sa:">
      <path fill="#fff" d="M40.1 112.8h48v48h-48z" />
    </clipPath>
  </defs>
</svg>
