<svg xmlns="http://www.w3.org/2000/svg" fill="none" viewBox="0 0 17 17">
  <g clip-path="url(#a)">
    <path
      fill="#fff"
      d="M8.47 2.11a6.66 6.66 0 0 0-2.11 13c.33.05.46-.15.46-.32l-.01-1.25c-1.68.31-2.11-.4-2.24-.78-.08-.2-.4-.78-.69-.94-.23-.13-.56-.43 0-.44.52-.01.9.48 1.02.68.6 1 1.56.73 1.94.55.06-.43.23-.72.43-.89-1.49-.17-3.04-.74-3.04-3.3 0-.72.26-1.32.69-1.78a2.4 2.4 0 0 1 .06-1.77s.56-.18 1.84.68a6.19 6.19 0 0 1 3.33 0c1.27-.86 1.83-.68 1.83-.68.37.92.14 1.6.07 1.77.42.46.68 1.05.68 1.79 0 2.56-1.56 3.12-3.04 3.29.24.2.45.6.45 1.23v1.84c0 .17.12.38.45.31A6.68 6.68 0 0 0 8.47 2.11Z"
    />
  </g>
  <defs>
    <clipPath id="a"><path fill="#fff" d="M.47.78h16v16h-16z" /></clipPath>
  </defs>
</svg>
