<svg width="98" height="80" viewBox="0 0 98 80" fill="none" xmlns="http://www.w3.org/2000/svg">
<path fill-rule="evenodd" clip-rule="evenodd" d="M81.6686 48.901L14.6677 48.9009L24.7947 72.9326C24.7952 70.77 35.6526 69.0168 49.0458 69.0168C62.4392 69.0168 73.2967 70.77 73.297 72.9326H73.297L81.6686 48.901Z" fill="url(#paint0_linear_164_244)"/>
<ellipse cx="49.0458" cy="72.9325" rx="24.2511" ry="3.91587" fill="url(#paint1_linear_164_244)"/>
<path d="M28.9867 46.256C31.9561 46.256 34.3633 43.0173 34.3633 39.0223C34.3633 35.0272 31.9561 31.7886 28.9867 31.7886C26.0172 31.7886 23.61 35.0272 23.61 39.0223C23.61 43.0173 26.0172 46.256 28.9867 46.256Z" fill="#A1DDFF"/>
<path d="M6.71006 32.3139C6.53642 31.6996 6.77223 31.0429 7.29697 30.6793L7.45238 30.5717C7.72138 30.3853 8.04411 30.2924 8.37102 30.3072L42.5937 31.8598L44.4613 30.2842L43.6968 45.0153L8.71785 36.6116C8.1924 36.4854 7.77606 36.0852 7.62907 35.5652L6.71006 32.3139Z" fill="url(#paint2_linear_164_244)"/>
<path d="M69.1043 46.256C66.1348 46.256 63.7276 43.0173 63.7276 39.0223C63.7276 35.0272 66.1348 31.7886 69.1043 31.7886C72.0737 31.7886 74.481 35.0272 74.481 39.0223C74.481 43.0173 72.0737 46.256 69.1043 46.256Z" fill="#A1DDFF"/>
<path d="M91.3809 32.3139C91.5545 31.6996 91.3187 31.0429 90.794 30.6793L90.6386 30.5717C90.3696 30.3853 90.0468 30.2924 89.7199 30.3072L55.4973 31.8598L53.6297 30.2842L54.3942 45.0153L89.3731 36.6116C89.8985 36.4854 90.3149 36.0852 90.4619 35.5652L91.3809 32.3139Z" fill="url(#paint3_linear_164_244)"/>
<rect x="39.6359" y="11.4199" width="18.3478" height="41.9514" rx="8.47168" fill="url(#paint4_linear_164_244)"/>
<path d="M41.3387 19.8034L43.0366 16.0802L45.1873 15.1494H52.5449L54.356 16.0802L55.9995 19.8034L52.9976 17.9418H44.5768L41.3387 19.8034Z" fill="url(#paint5_linear_164_244)"/>
<defs>
<linearGradient id="paint0_linear_164_244" x1="48.1682" y1="48.9009" x2="48.1682" y2="72.9326" gradientUnits="userSpaceOnUse">
<stop stop-color="#E3F3FE" stop-opacity="0"/>
<stop offset="1" stop-color="#C6EAFF"/>
</linearGradient>
<linearGradient id="paint1_linear_164_244" x1="49.0458" y1="76.8483" x2="49.0458" y2="67.0496" gradientUnits="userSpaceOnUse">
<stop stop-color="#8AD5FF"/>
<stop offset="1" stop-color="#C1F0FF"/>
</linearGradient>
<linearGradient id="paint2_linear_164_244" x1="25.4405" y1="30.2842" x2="25.4405" y2="45.0153" gradientUnits="userSpaceOnUse">
<stop stop-color="#70CCFF"/>
<stop offset="1" stop-color="#BEE7FF"/>
</linearGradient>
<linearGradient id="paint3_linear_164_244" x1="72.6504" y1="30.2842" x2="72.6504" y2="45.0153" gradientUnits="userSpaceOnUse">
<stop stop-color="#70CCFF"/>
<stop offset="1" stop-color="#BEE7FF"/>
</linearGradient>
<linearGradient id="paint4_linear_164_244" x1="48.8097" y1="11.4199" x2="48.8097" y2="53.3713" gradientUnits="userSpaceOnUse">
<stop stop-color="#46BCFF"/>
<stop offset="1" stop-color="#C0E8FF"/>
</linearGradient>
<linearGradient id="paint5_linear_164_244" x1="48.1337" y1="15.1494" x2="48.2297" y2="19.8025" gradientUnits="userSpaceOnUse">
<stop stop-color="white"/>
<stop offset="1" stop-color="white" stop-opacity="0.2"/>
</linearGradient>
</defs>
</svg>
