<svg width="80" height="80" viewBox="0 0 80 80" fill="none" xmlns="http://www.w3.org/2000/svg">
<path fill-rule="evenodd" clip-rule="evenodd" d="M73.551 49.1007L6.55017 49.1006L16.6772 73.1323C16.6783 70.9698 27.5355 69.2168 40.9283 69.2168C54.3211 69.2168 65.1783 70.9698 65.1795 73.1323L73.551 49.1007Z" fill="url(#paint0_linear_164_393)"/>
<ellipse cx="40.9283" cy="73.1327" rx="24.2511" ry="3.91587" fill="url(#paint1_linear_164_393)"/>
<g opacity="0.5">
<path d="M30.6091 25.7141L29.624 25.8822L36.7442 34.0652C36.9352 34.2848 36.8167 34.6288 36.531 34.6841L32.7417 35.4176C32.5637 35.452 32.4353 35.6081 32.4357 35.7893L32.4821 57.1848L33.7002 56.4599C33.8146 56.3918 33.8847 56.2685 33.8848 56.1354L33.8961 36.3016C33.8962 36.1215 34.0234 35.9665 34.2001 35.9313L37.4298 35.2884C37.9932 35.1762 38.2304 34.5014 37.861 34.0614L30.962 25.8436C30.8757 25.7408 30.7414 25.6915 30.6091 25.7141Z" fill="url(#paint2_linear_164_393)"/>
<path d="M27.2655 36.547L23.0519 37.0508L24.1638 37.5402C24.4212 37.6535 24.705 37.6927 24.9834 37.6535L27.2568 37.3333L27.2655 36.547Z" fill="#7DC8F7"/>
<path d="M29.3885 26.0262L22.8607 36.5572C22.6921 36.8293 22.9169 37.1746 23.2339 37.1305L26.76 36.6399C26.9922 36.6076 27.1974 36.7923 27.1897 37.0266L26.4843 58.3274C26.4758 58.5819 26.7165 58.7717 26.9621 58.7042L32.406 57.2068C32.5702 57.1617 32.6838 57.0123 32.6836 56.842L32.6539 35.7696C32.6537 35.5864 32.7848 35.4295 32.9651 35.3972L36.6609 34.7348C36.9474 34.6835 37.0707 34.3411 36.8827 34.1189L29.9981 25.9812C29.8323 25.7853 29.5237 25.8081 29.3885 26.0262Z" fill="url(#paint3_linear_164_393)"/>
</g>
<g opacity="0.5">
<path d="M49.8293 10.8708L48.4097 11.113L58.6712 22.9063C58.9465 23.2228 58.7757 23.7186 58.3639 23.7984L52.9028 24.8554C52.6463 24.9051 52.4612 25.1299 52.4618 25.3912L52.5287 56.2262L54.2842 55.1815C54.449 55.0833 54.5501 54.9057 54.5502 54.7138L54.5665 26.1295C54.5666 25.8699 54.7501 25.6465 55.0047 25.5958L59.6593 24.6692C60.4713 24.5076 60.8131 23.535 60.2808 22.9009L50.3379 11.0575C50.2135 10.9093 50.0199 10.8383 49.8293 10.8708Z" fill="url(#paint4_linear_164_393)"/>
<path d="M45.0106 26.4829L38.938 27.209L40.5405 27.9144C40.9114 28.0776 41.3205 28.1342 41.7218 28.0777L44.9981 27.6162L45.0106 26.4829Z" fill="#7DC8F7"/>
<path d="M48.0702 11.3205L38.6625 26.4977C38.4194 26.8898 38.7435 27.3875 39.2003 27.3239L44.2821 26.6169C44.6167 26.5703 44.9125 26.8365 44.9013 27.1742L43.8847 57.8728C43.8725 58.2396 44.2194 58.5132 44.5733 58.4158L52.419 56.2578C52.6556 56.1928 52.8195 55.9775 52.8191 55.7321L52.7763 25.3626C52.776 25.0986 52.965 24.8724 53.2248 24.8259L58.5512 23.8713C58.9641 23.7973 59.1417 23.3039 58.8708 22.9837L48.9488 11.2557C48.7099 10.9733 48.2651 11.0061 48.0702 11.3205Z" fill="url(#paint5_linear_164_393)"/>
</g>
<defs>
<linearGradient id="paint0_linear_164_393" x1="40.0506" y1="49.1006" x2="40.0506" y2="73.1323" gradientUnits="userSpaceOnUse">
<stop stop-color="#E3F3FE" stop-opacity="0"/>
<stop offset="1" stop-color="#C6EAFF"/>
</linearGradient>
<linearGradient id="paint1_linear_164_393" x1="40.9283" y1="77.0485" x2="40.9283" y2="67.2498" gradientUnits="userSpaceOnUse">
<stop stop-color="#8AD5FF"/>
<stop offset="1" stop-color="#C1F0FF"/>
</linearGradient>
<linearGradient id="paint2_linear_164_393" x1="24.2296" y1="29.2585" x2="39.8489" y2="52.3085" gradientUnits="userSpaceOnUse">
<stop stop-color="#75D6FF"/>
<stop offset="1" stop-color="#75DEFF"/>
</linearGradient>
<linearGradient id="paint3_linear_164_393" x1="29.1672" y1="33.3664" x2="31.4822" y2="57.7221" gradientUnits="userSpaceOnUse">
<stop stop-color="#00A3FF"/>
<stop offset="1" stop-color="#5ED8FF"/>
</linearGradient>
<linearGradient id="paint4_linear_164_393" x1="40.6353" y1="15.979" x2="54.6726" y2="53.2974" gradientUnits="userSpaceOnUse">
<stop stop-color="#75D6FF"/>
<stop offset="1" stop-color="#75D6FF"/>
</linearGradient>
<linearGradient id="paint5_linear_164_393" x1="47.7514" y1="16.3058" x2="51.0876" y2="57.0004" gradientUnits="userSpaceOnUse">
<stop stop-color="#00A3FF"/>
<stop offset="1" stop-color="#5ED8FF"/>
</linearGradient>
</defs>
</svg>
