<svg width="694" height="450" viewBox="0 0 694 450" fill="none" xmlns="http://www.w3.org/2000/svg">
<g clip-path="url(#clip0_427_2710)">
<g filter="url(#filter0_f_427_2710)">
<rect x="74.8926" y="108.025" width="514.491" height="232.031" fill="#68CAFF"/>
</g>
<g filter="url(#filter1_b_427_2710)">
<rect width="702.553" height="674.965" rx="18.2834" transform="matrix(0.996195 -0.0871557 0.34202 0.939693 -233.731 -70.7324)" fill="white" fill-opacity="0.6"/>
<rect x="1.01947" y="0.649471" width="701.029" height="673.441" rx="17.5216" transform="matrix(0.996195 -0.0871557 0.34202 0.939693 -233.95 -70.6044)" stroke="url(#paint0_linear_427_2710)" stroke-width="1.52362"/>
</g>
<g clip-path="url(#clip1_427_2710)">
<g filter="url(#filter2_bdd_427_2710)">
<g clip-path="url(#clip2_427_2710)">
<path d="M33.3035 50.8369C31.8598 46.8703 34.0984 43.3565 38.3035 42.9886L467.226 5.46282C471.431 5.09492 476.01 8.01224 477.454 11.9788L486.167 35.9193C487.611 39.8859 485.373 43.3997 481.167 43.7676L52.2453 81.2935C48.0402 81.6614 43.4609 78.744 42.0172 74.7774L33.3035 50.8369Z" fill="white"/>
<path d="M51.9077 56.1029L53.1259 55.9964L54.6735 60.2482C54.7751 59.7502 55.0098 59.3591 55.3778 59.0749C55.7205 58.8078 56.1508 58.6516 56.6837 58.605C57.5974 58.525 58.402 58.7066 59.0775 59.1811C59.7478 59.6412 60.2581 60.3525 60.6032 61.3005L62.3075 65.9833L61.0893 66.0899L59.4477 61.5795C59.1967 60.89 58.8205 60.3745 58.3496 60.0303C57.8482 59.6888 57.2777 59.5461 56.6229 59.6033C56.0138 59.6566 55.5949 59.9304 55.3663 60.4247C55.1224 60.9204 55.1388 61.5266 55.3897 62.2161L56.9321 66.4536L55.7138 66.5601L51.9077 56.1029ZM61.5334 58.3882L62.7517 58.2816L64.4038 62.8207C64.6599 63.5246 65.0057 64.0427 65.4509 64.3595C65.8962 64.6762 66.4819 64.8177 67.1976 64.7551C67.7154 64.7098 68.1143 64.4674 68.3895 64.0579C68.6695 63.6184 68.7401 63.0787 68.6015 62.4386L66.9546 57.9139L68.1728 57.8073L70.8758 65.2336L69.6576 65.3402L69.2393 64.1911C68.9239 65.1376 68.2384 65.6719 67.1724 65.7652C65.2537 65.933 63.9384 64.9958 63.2064 62.9848L61.5334 58.3882ZM69.0123 54.6065L70.2306 54.4999L71.8304 58.8954C72.0579 57.7935 72.7376 57.2004 73.8645 57.1018C74.9762 57.0046 76.0005 57.3151 76.9329 58.0636C77.773 58.7312 78.4017 59.5951 78.799 60.6868C79.2068 61.8072 79.2369 62.7532 78.9196 63.522C78.5471 64.355 77.7951 64.8358 76.653 64.9357C75.4347 65.0423 74.3942 64.6442 73.5161 63.7428L73.9605 64.9638L72.8184 65.0637L69.0123 54.6065ZM73.9507 58.0725C73.235 58.1351 72.7504 58.4443 72.5227 59.0275C72.2593 59.5989 72.3023 60.3214 72.616 61.1833L72.6683 61.3269C72.9715 62.1601 73.4152 62.8179 73.9993 63.3003C74.6348 63.8376 75.3638 64.0703 76.1556 64.001C77.0084 63.9264 77.5382 63.5688 77.7554 62.9569C77.9327 62.4078 77.8745 61.6866 77.5503 60.7961C77.2262 59.9055 76.7773 59.2333 76.1983 58.7652C75.5476 58.2293 74.8035 57.9979 73.9507 58.0725ZM82.2458 62.4751C82.4895 62.4538 82.7493 62.52 82.9947 62.6764C83.2402 62.8328 83.4048 63.0259 83.4989 63.2844C83.5878 63.5286 83.5696 63.7377 83.4496 63.9261C83.3296 64.1144 83.1325 64.2206 82.8889 64.2419C82.6148 64.2659 82.3702 64.1984 82.14 64.0407C81.8945 63.8843 81.7299 63.6912 81.6411 63.447C81.5469 63.1884 81.5651 62.9793 81.6851 62.791C81.7899 62.6039 81.9717 62.4991 82.2458 62.4751ZM87.8891 52.955L89.1073 52.8484L92.9135 63.3056L91.7714 63.4055L91.327 62.1846C91.1238 63.1806 90.4131 63.7319 89.2253 63.8358C88.068 63.937 87.0232 63.6134 86.1013 62.8937C85.246 62.2275 84.622 61.3335 84.2142 60.213C83.8169 59.1214 83.7821 58.2055 84.1146 57.4353C84.4614 56.5749 85.1882 56.1111 86.3151 56.0126C87.4419 55.914 88.4981 56.3551 89.4889 57.3504L87.8891 52.955ZM86.919 56.938C86.051 57.0139 85.5008 57.3585 85.2835 57.9703C85.0706 58.5077 85.1388 59.2132 85.4629 60.1038C85.7871 60.9944 86.226 61.6822 86.7949 62.1661C87.4304 62.7033 88.1798 62.949 89.0326 62.8744C89.8244 62.8051 90.329 62.4646 90.5615 61.8513C90.7539 61.3009 90.7062 60.6085 90.4029 59.7753L90.3507 59.6317C90.037 58.7698 89.5524 58.086 88.9325 57.5918C88.2923 57.0846 87.6195 56.8767 86.919 56.938ZM95.6032 55.2C96.7758 55.0974 97.8558 55.3882 98.8386 56.1026C99.7753 56.7766 100.445 57.6666 100.853 58.787C101.255 59.8931 101.255 60.8417 100.861 61.6172C100.428 62.4555 99.6251 62.9259 98.4526 63.0285C97.2648 63.1324 96.1947 62.8258 95.2119 62.1115C94.2804 61.4519 93.6108 60.5619 93.2083 59.4558C92.8005 58.3354 92.8009 57.3868 93.2043 56.5956C93.6224 55.7586 94.4154 55.3039 95.6032 55.2ZM95.9535 56.1624C95.1159 56.2356 94.5709 56.5946 94.3337 57.2378C94.106 57.821 94.1537 58.5134 94.457 59.3466C94.755 60.1653 95.1987 60.8231 95.8237 61.3317C96.5001 61.895 97.2647 62.1394 98.1023 62.0661C98.9246 61.9941 99.4696 61.6352 99.7373 60.9893C99.9498 60.4075 99.912 59.6993 99.6192 58.8949C99.316 58.0618 98.8571 57.4053 98.2473 56.8954C97.5404 56.3348 96.7758 56.0904 95.9535 56.1624ZM104.465 54.4246C105.44 54.3394 106.295 54.4869 107.045 54.8659C107.817 55.2579 108.428 55.901 108.894 56.794L107.691 56.8992C107.375 56.334 106.975 55.9244 106.49 55.6704C105.989 55.4177 105.44 55.3324 104.815 55.3871C104.054 55.4537 103.544 55.7799 103.301 56.3644C103.068 56.9331 103.116 57.67 103.446 58.575C103.775 59.4799 104.235 60.1808 104.849 60.6606C105.448 61.1418 106.157 61.3614 106.949 61.2921C108.289 61.1749 108.83 60.4605 108.548 59.1661L109.766 59.0595C109.928 60.0236 109.814 60.7895 109.383 61.3311C108.961 61.8571 108.274 62.1693 107.299 62.2545C106.111 62.3584 105.062 62.0649 104.135 61.3753C103.254 60.726 102.615 59.8334 102.202 58.6986C101.789 57.5638 101.759 56.6178 102.122 55.845C102.505 54.9963 103.292 54.5272 104.465 54.4246ZM108.428 51.1581L109.646 51.0515L112.004 57.5298L114.693 53.7373L116.307 53.5961L113.923 56.8876L119.345 60.9931L117.777 61.1303L113.357 57.7078L112.495 58.88L113.452 61.5087L112.234 61.6153L108.428 51.1581ZM120.822 52.9936C122.086 52.883 123.192 53.2012 124.124 53.9497C124.965 54.6173 125.64 55.6105 126.141 56.9006L119.928 57.4442C120.292 58.272 120.756 58.8984 121.35 59.3208C121.943 59.7431 122.621 59.921 123.367 59.8557C124.007 59.7997 124.482 59.5951 124.768 59.2588C125.009 58.9709 125.127 58.5605 125.137 58.026L126.355 57.9194C126.434 58.6536 126.293 59.2589 125.927 59.7651C125.471 60.3683 124.738 60.7288 123.717 60.8181C122.591 60.9167 121.546 60.6375 120.625 60.0067C119.663 59.3497 118.983 58.431 118.544 57.2244C118.147 56.1327 118.132 55.1854 118.535 54.3942C118.923 53.5599 119.68 53.0935 120.822 52.9936ZM121.203 53.9533C120.503 54.0146 120.018 54.2793 119.748 54.7476C119.479 55.2158 119.444 55.8117 119.635 56.5509L124.553 56.1206C123.821 54.5395 122.696 53.8227 121.203 53.9533ZM129.543 52.2306C129.97 52.1933 130.356 52.2188 130.687 52.3084L131.106 53.4575C130.668 53.3772 130.256 53.3688 129.875 53.4021C129.266 53.4554 128.837 53.7449 128.615 54.2979C128.366 54.8236 128.382 55.4299 128.633 56.1194L130.066 60.0552L128.863 60.1604L126.16 52.7341L127.363 52.6289L127.833 53.9216C127.89 53.4721 128.038 53.1033 128.284 52.8298C128.581 52.4778 128.995 52.2785 129.543 52.2306ZM134.929 57.8659C135.173 57.8446 135.433 57.9108 135.678 58.0672C135.924 58.2236 136.088 58.4167 136.182 58.6752C136.271 58.9194 136.253 59.1285 136.133 59.3169C136.013 59.5052 135.816 59.6114 135.572 59.6327C135.298 59.6567 135.054 59.5892 134.823 59.4315C134.578 59.2751 134.413 59.082 134.324 58.8378C134.23 58.5792 134.249 58.3701 134.369 58.1818C134.473 57.9947 134.655 57.8899 134.929 57.8659ZM135.844 48.9966C136.103 48.9739 136.342 49.0271 136.588 49.1835C136.823 49.3112 136.987 49.5043 137.081 49.7628C137.17 50.007 137.152 50.2161 137.032 50.4045C136.907 50.5785 136.725 50.6833 136.466 50.7059C136.207 50.7286 135.963 50.6611 135.723 50.519C135.477 50.3627 135.328 50.1682 135.239 49.924C135.145 49.6655 135.148 49.4577 135.278 49.2981C135.398 49.1097 135.585 49.0192 135.844 48.9966ZM136.254 51.8509L137.473 51.7443L140.176 59.1707L138.957 59.2773L136.254 51.8509ZM143.26 51.0305C144.433 50.9279 145.513 51.2188 146.496 51.9332C147.432 52.6071 148.102 53.4971 148.51 54.6176C148.912 55.7236 148.912 56.6722 148.518 57.4477C148.085 58.286 147.282 58.7565 146.11 58.859C144.922 58.963 143.852 58.6564 142.869 57.942C141.937 57.2824 141.268 56.3924 140.865 55.2864C140.457 54.1659 140.458 53.2173 140.861 52.4261C141.279 51.5892 142.072 51.1344 143.26 51.0305ZM143.61 51.9929C142.773 52.0662 142.228 52.4251 141.991 53.0684C141.763 53.6515 141.811 54.344 142.114 55.1771C142.412 55.9959 142.856 56.6537 143.481 57.1622C144.157 57.7256 144.922 57.9699 145.759 57.8966C146.582 57.8247 147.127 57.4658 147.394 56.8198C147.607 56.238 147.569 55.5299 147.276 54.7255C146.973 53.8923 146.514 53.2359 145.904 52.726C145.197 52.1653 144.433 51.921 143.61 51.9929ZM152.24 45.9614L153.322 45.8668L152.741 59.5536L151.644 59.6495L152.24 45.9614ZM160.086 49.5584C162.035 49.3879 163.396 50.3212 164.139 52.3609L165.801 56.9287L164.583 57.0353L162.952 52.5537C162.424 51.1029 161.462 50.4459 160.091 50.5658C159.543 50.6138 159.139 50.8418 158.879 51.2499C158.599 51.6894 158.564 52.2409 158.764 52.92L160.395 57.4017L159.177 57.5083L156.474 50.0819L157.692 49.9754L158.09 51.067C158.212 50.6265 158.447 50.2798 158.795 50.0271C159.138 49.7599 159.568 49.6037 160.086 49.5584ZM168.212 48.8475C169.4 48.7436 170.461 49.1547 171.4 50.0952L170.935 48.8168L172.153 48.7102L174.668 55.6195C175.53 57.9896 174.761 59.2871 172.37 59.4962C171.304 59.5895 170.409 59.4603 169.714 59.1061C169.004 58.7532 168.435 58.1805 168.005 57.3881L169.223 57.2815C169.497 57.7763 169.862 58.1298 170.296 58.329C170.735 58.5425 171.315 58.6252 172.031 58.5625C173.614 58.424 174.103 57.5216 173.507 55.884L173.031 54.5769C172.813 55.6187 172.113 56.1987 170.925 56.3026C169.829 56.3985 168.83 56.1154 167.934 55.4675C167.044 54.8339 166.42 53.9844 166.028 52.907C165.631 51.8153 165.616 50.9125 166.005 50.167C166.378 49.3785 167.115 48.9434 168.212 48.8475ZM168.74 49.7796C167.948 49.8489 167.433 50.1607 167.19 50.7452C166.941 51.2709 166.974 51.9647 167.277 52.7978C167.559 53.5735 167.977 54.2039 168.536 54.6589C169.161 55.1675 169.89 55.4001 170.742 55.3255C171.534 55.2563 172.049 54.9444 172.318 54.3873C172.561 53.8473 172.534 53.1679 172.241 52.3635C171.938 51.5303 171.479 50.8739 170.875 50.4228C170.219 49.9169 169.516 49.7116 168.74 49.7796ZM174.085 45.651C174.344 45.6283 174.583 45.6815 174.829 45.8379C175.064 45.9655 175.228 46.1586 175.322 46.4172C175.411 46.6614 175.393 46.8705 175.273 47.0588C175.148 47.2328 174.966 47.3377 174.707 47.3603C174.448 47.383 174.204 47.3154 173.963 47.1734C173.718 47.017 173.569 46.8226 173.48 46.5784C173.386 46.3198 173.388 46.1121 173.519 45.9524C173.639 45.7641 173.826 45.6736 174.085 45.651ZM174.495 48.5053L175.713 48.3987L178.416 55.8251L177.198 55.9316L174.495 48.5053ZM181.668 47.6702C183.618 47.4997 184.979 48.433 185.721 50.4727L187.384 55.0405L186.165 55.1471L184.534 50.6655C184.006 49.2147 183.044 48.5577 181.674 48.6776C181.125 48.7256 180.721 48.9536 180.461 49.3617C180.181 49.8012 180.146 50.3527 180.346 51.0318L181.978 55.5135L180.759 55.6201L178.056 48.1937L179.275 48.0871L179.672 49.1788C179.795 48.7383 180.03 48.3916 180.378 48.1389C180.72 47.8717 181.151 47.7155 181.668 47.6702ZM186.091 47.4908L187.522 47.3656L190.525 49.8301L191.588 47.0099L193.019 46.8846L191.503 50.619L196.057 54.2817L194.611 54.4082L191.142 51.5251L189.905 54.8199L188.459 54.9465L190.148 50.7375L186.091 47.4908Z" fill="#8A95A7"/>
</g>
<path d="M38.339 43.0864L467.261 5.5606C471.409 5.19771 475.926 8.07531 477.35 11.9879L486.064 35.9284C487.488 39.841 485.28 43.307 481.132 43.6698L52.2097 81.1957C48.0618 81.5586 43.5449 78.681 42.1208 74.7684L33.4072 50.8279C31.9831 46.9153 34.1912 43.4493 38.339 43.0864Z" stroke="url(#paint1_linear_427_2710)" stroke-width="0.208122"/>
</g>
<path d="M60.0399 115.186L61.4409 115.064L62.2354 117.721L64.4382 116.521L65.3294 117.717L62.885 118.643L65.4438 120.449L64.6554 121.348L62.2566 119.29L61.4423 121.629L60.0684 120.92L61.1947 118.79L58.2636 118.335L58.2556 117.062L61.1694 117.814L60.0399 115.186Z" fill="#D92D20"/>
<path d="M65.3596 114.721L67.1565 114.563L73.3429 122.797L73.3886 122.793L73.3696 114.02L75.1665 113.863L75.001 124.46L72.9909 124.636L65.3596 114.721ZM81.087 116.057C82.3662 115.945 83.5024 116.261 84.4756 117.035C85.3566 117.729 86.0528 118.735 86.5491 120.055L80.5797 120.578C80.902 121.291 81.3039 121.833 81.8105 122.189C82.3119 122.531 82.8876 122.688 83.5272 122.632C84.0906 122.583 84.5004 122.413 84.7618 122.139C84.9627 121.913 85.0709 121.563 85.1272 121.114L86.7414 120.972C86.8096 121.678 86.6737 122.297 86.2928 122.805C85.8114 123.425 85.048 123.788 83.9973 123.88C82.8399 123.982 81.7856 123.718 80.8698 123.102C79.8775 122.447 79.1617 121.517 78.7173 120.296C78.3147 119.19 78.3151 118.241 78.7438 117.433C79.1367 116.613 79.9297 116.158 81.087 116.057ZM81.5875 117.303C80.9784 117.356 80.5639 117.555 80.3239 117.932C80.1091 118.292 80.0532 118.786 80.1919 119.426L84.4405 119.054C83.8177 117.775 82.8667 117.191 81.5875 117.303ZM90.6368 115.222C91.0327 115.187 91.4039 115.214 91.725 115.319L92.2792 116.842C91.8415 116.761 91.4451 116.752 91.0796 116.784C90.5923 116.826 90.2187 117.052 89.9739 117.458C89.7091 117.897 89.7046 118.445 89.9399 119.092L91.3724 123.028L89.7582 123.169L87.0553 115.742L88.6694 115.601L89.0772 116.722C89.1288 116.302 89.2779 115.978 89.5093 115.75C89.7702 115.431 90.1495 115.264 90.6368 115.222ZM96.2215 114.733C98.262 114.554 99.6712 115.232 100.424 116.781L98.8553 116.918C98.5871 116.527 98.305 116.27 97.9887 116.135C97.6518 115.986 97.1941 115.937 96.6459 115.985C96.1586 116.028 95.814 116.117 95.6226 116.282C95.3856 116.451 95.3322 116.693 95.4367 116.98C95.5309 117.239 95.8225 117.436 96.3168 117.585C96.6327 117.676 97.2028 117.775 98.0626 117.892C99.0343 118.014 99.7932 118.2 100.314 118.421C101.074 118.74 101.582 119.229 101.822 119.89C102.392 121.456 101.507 122.348 99.1774 122.552C97.015 122.741 95.5388 121.966 94.7287 120.259L96.3124 120.12C96.5867 120.615 96.9154 120.957 97.2627 121.134C97.6048 121.297 98.0678 121.36 98.6769 121.307C99.9256 121.197 100.44 120.797 100.199 120.136C100.068 119.777 99.7203 119.511 99.1902 119.35C98.9048 119.256 98.3195 119.159 97.4497 119.057C96.4476 118.937 95.7143 118.779 95.2652 118.581C94.5254 118.276 94.0378 117.799 93.8078 117.167C93.5621 116.492 93.658 115.935 94.1159 115.51C94.5687 115.07 95.2773 114.816 96.2215 114.733ZM101.961 111.37C102.281 111.342 102.587 111.404 102.873 111.587C103.154 111.755 103.35 111.99 103.46 112.291C103.569 112.593 103.536 112.848 103.396 113.068C103.251 113.273 103.014 113.398 102.709 113.424C102.389 113.452 102.094 113.374 101.813 113.206C101.526 113.024 101.326 112.775 101.221 112.487C101.111 112.186 101.129 111.932 101.274 111.727C101.414 111.507 101.642 111.398 101.961 111.37ZM102.237 114.414L103.851 114.273L106.554 121.699L104.94 121.841L102.237 114.414ZM110.221 113.508C111.409 113.404 112.504 113.694 113.492 114.378C114.459 115.049 115.164 115.951 115.577 117.086C115.985 118.206 115.975 119.171 115.536 119.95C115.077 120.761 114.258 121.233 113.071 121.337C111.883 121.441 110.782 121.137 109.78 120.454C108.818 119.797 108.128 118.894 107.72 117.773C107.307 116.639 107.317 115.674 107.766 114.879C108.21 114.069 109.034 113.612 110.221 113.508ZM110.676 114.758C109.93 114.823 109.451 115.147 109.243 115.743C109.05 116.249 109.108 116.881 109.38 117.628C109.651 118.375 110.039 118.964 110.577 119.406C111.186 119.916 111.87 120.152 112.616 120.087C113.362 120.022 113.836 119.684 114.064 119.101C114.252 118.58 114.215 117.961 113.948 117.228C113.676 116.481 113.269 115.88 112.731 115.438C112.1 114.915 111.422 114.693 110.676 114.758ZM120.308 112.626C122.257 112.455 123.613 113.374 124.355 115.414L126.023 119.996L124.409 120.137L122.788 115.684C122.328 114.42 121.473 113.843 120.255 113.949C119.798 113.989 119.439 114.169 119.219 114.514C118.979 114.891 118.923 115.385 119.082 115.994L120.708 120.461L119.094 120.602L116.391 113.176L118.005 113.035L118.34 113.954C118.508 113.554 118.759 113.25 119.087 113.029C119.41 112.793 119.82 112.668 120.308 112.626ZM130.627 109.01L132.302 108.864L140.637 116.005L140.698 116L137.922 108.372L139.581 108.227L143.314 118.483L141.7 118.624L133.273 111.402L133.213 111.408L136.02 119.121L134.36 119.267L130.627 109.01ZM143.233 110.827L144.847 110.686L146.494 115.211C146.724 115.843 147.029 116.291 147.423 116.553C147.801 116.816 148.316 116.934 148.94 116.879C149.366 116.842 149.684 116.636 149.935 116.288C150.18 115.926 150.277 115.458 150.215 114.9L148.563 110.361L150.177 110.22L152.88 117.646L151.266 117.788L150.9 116.782C150.523 117.645 149.847 118.119 148.857 118.206C146.954 118.372 145.644 117.449 144.917 115.453L143.233 110.827ZM156.36 109.472C157.517 109.37 158.506 109.714 159.297 110.504C159.48 110.014 159.74 109.65 160.068 109.429C160.366 109.21 160.776 109.085 161.309 109.039C162.116 108.968 162.875 109.154 163.596 109.624C164.297 110.081 164.812 110.718 165.115 111.551L166.887 116.421L165.273 116.562L163.595 111.951C163.375 111.348 163.076 110.915 162.703 110.666C162.324 110.402 161.82 110.313 161.211 110.366C160.754 110.406 160.446 110.596 160.257 110.939C160.067 111.282 160.077 111.74 160.276 112.286L161.938 116.854L160.324 116.995L158.651 112.399C158.222 111.221 157.465 110.694 156.399 110.787C155.881 110.833 155.523 111.057 155.354 111.457C155.15 111.845 155.16 112.304 155.348 112.821L156.974 117.288L155.36 117.429L152.657 110.003L154.271 109.862L154.569 110.681C154.957 109.935 155.568 109.541 156.36 109.472ZM165.542 105.748L167.156 105.607L168.662 109.744C168.983 108.812 169.618 108.312 170.592 108.226C171.719 108.128 172.744 108.438 173.681 109.157C174.536 109.823 175.17 110.701 175.567 111.793C175.98 112.928 176.016 113.888 175.668 114.66C175.28 115.494 174.523 115.96 173.366 116.062C172.284 116.156 171.341 115.853 170.532 115.183L170.856 116.074L169.348 116.206L165.542 105.748ZM170.677 109.494C170.067 109.547 169.659 109.805 169.46 110.297C169.212 110.822 169.249 111.486 169.542 112.291L169.589 112.42C169.861 113.167 170.248 113.755 170.755 114.2C171.324 114.684 171.972 114.909 172.672 114.848C173.464 114.778 173.944 114.455 174.131 113.89C174.268 113.404 174.205 112.757 173.907 111.938C173.609 111.119 173.212 110.502 172.72 110.1C172.151 109.617 171.468 109.424 170.677 109.494ZM179.643 107.435C180.922 107.323 182.058 107.638 183.031 108.413C183.912 109.106 184.609 110.113 185.105 111.433L179.135 111.955C179.458 112.668 179.86 113.211 180.366 113.567C180.868 113.908 181.443 114.065 182.083 114.009C182.646 113.96 183.056 113.791 183.318 113.516C183.518 113.291 183.627 112.941 183.683 112.491L185.297 112.35C185.365 113.055 185.229 113.675 184.849 114.182C184.367 114.803 183.604 115.166 182.553 115.258C181.396 115.359 180.341 115.096 179.426 114.479C178.433 113.825 177.717 112.894 177.273 111.673C176.87 110.567 176.871 109.619 177.299 108.81C177.692 107.991 178.485 107.536 179.643 107.435ZM180.143 108.68C179.534 108.734 179.12 108.933 178.88 109.31C178.665 109.669 178.609 110.163 178.748 110.803L182.996 110.432C182.373 109.152 181.422 108.568 180.143 108.68ZM189.193 106.599C189.588 106.564 189.96 106.591 190.281 106.697L190.835 108.219C190.397 108.139 190.001 108.129 189.635 108.161C189.148 108.204 188.774 108.429 188.53 108.836C188.265 109.274 188.26 109.823 188.496 110.469L189.928 114.405L188.314 114.546L185.611 107.12L187.225 106.979L187.633 108.099C187.685 107.68 187.834 107.355 188.065 107.128C188.326 106.808 188.705 106.642 189.193 106.599Z" fill="#111824"/>
<g filter="url(#filter3_bdd_427_2710)">
<path d="M66.6381 142.423C65.1881 138.439 67.4364 134.91 71.6597 134.541L500.516 97.0209C504.739 96.6514 509.338 99.5814 510.788 103.565L519.479 127.443C520.929 131.427 518.681 134.956 514.458 135.326L85.6015 172.846C81.3782 173.215 76.7791 170.285 75.3291 166.301L66.6381 142.423Z" fill="white"/>
<path d="M71.6953 134.639L500.551 97.1187C504.717 96.7542 509.254 99.6444 510.685 103.574L519.376 127.452C520.806 131.382 518.588 134.863 514.422 135.228L85.5659 172.748C81.3999 173.112 76.8631 170.222 75.4327 166.292L66.7418 142.414C65.3115 138.484 67.5292 135.003 71.6953 134.639Z" stroke="url(#paint2_linear_427_2710)" stroke-width="0.208122"/>
<path d="M85.4973 150.852L86.8374 150.735L91.2713 156.528L91.3449 150.34L92.685 150.223L92.4032 157.911L91.1698 158.019L85.4973 150.852ZM95.3009 147.074L96.2755 146.989L100.008 157.245L98.7597 157.355L95.5496 148.535C95.1049 149.256 94.4194 149.79 93.5037 150.166L93.075 148.989C93.5152 148.817 93.9598 148.57 94.373 148.238C94.7757 147.876 95.0766 147.494 95.3009 147.074ZM103.092 155.212C103.336 155.19 103.596 155.257 103.841 155.413C104.087 155.569 104.251 155.763 104.345 156.021C104.434 156.265 104.416 156.474 104.296 156.663C104.176 156.851 103.979 156.957 103.735 156.979C103.461 157.003 103.217 156.935 102.986 156.777C102.741 156.621 102.576 156.428 102.488 156.184C102.393 155.925 102.412 155.716 102.532 155.528C102.636 155.341 102.818 155.236 103.092 155.212ZM106.543 145.883C107.837 145.77 109.005 146.216 110.073 147.249C110.986 148.118 111.725 149.328 112.289 150.88C112.854 152.431 113.014 153.692 112.77 154.661C112.492 155.797 111.716 156.429 110.422 156.542C109.112 156.656 107.939 156.196 106.892 155.176C105.979 154.307 105.24 153.097 104.675 151.546C104.111 149.994 103.95 148.734 104.195 147.764C104.452 146.615 105.233 145.998 106.543 145.883ZM106.909 146.889C105.934 146.974 105.411 147.524 105.346 148.552C105.292 149.268 105.485 150.23 105.924 151.436C106.358 152.629 106.855 153.563 107.416 154.241C108.198 155.18 109.081 155.622 110.056 155.536C111.031 155.451 111.548 154.887 111.619 153.873C111.667 153.142 111.49 152.18 111.056 150.987C110.617 149.781 110.104 148.847 109.549 148.185C108.762 147.231 107.883 146.804 106.909 146.889ZM116.36 154.051C116.604 154.03 116.864 154.096 117.109 154.252C117.355 154.409 117.519 154.602 117.613 154.86C117.702 155.104 117.684 155.314 117.564 155.502C117.444 155.69 117.247 155.796 117.003 155.818C116.729 155.842 116.485 155.774 116.254 155.617C116.009 155.46 115.844 155.267 115.755 155.023C115.661 154.764 115.679 154.555 115.799 154.367C115.904 154.18 116.086 154.075 116.36 154.051ZM118.818 145.017L119.792 144.932L123.525 155.188L122.277 155.297L119.067 146.477C118.622 147.198 117.936 147.732 117.021 148.109L116.592 146.931C117.032 146.759 117.477 146.513 117.89 146.18C118.293 145.819 118.594 145.437 118.818 145.017Z" fill="#111824"/>
</g>
<path d="M86.7408 197.439L88.5377 197.282L94.7241 205.515L94.7698 205.511L94.7508 196.739L96.5477 196.581L96.3822 207.178L94.3721 207.354L86.7408 197.439ZM102.468 198.776C103.747 198.664 104.884 198.979 105.857 199.754C106.738 200.448 107.434 201.454 107.93 202.774L101.961 203.296C102.283 204.009 102.685 204.552 103.192 204.908C103.693 205.249 104.269 205.407 104.908 205.351C105.472 205.301 105.882 205.132 106.143 204.857C106.344 204.632 106.452 204.282 106.508 203.832L108.123 203.691C108.191 204.396 108.055 205.016 107.674 205.524C107.193 206.144 106.429 206.507 105.378 206.599C104.221 206.7 103.167 206.437 102.251 205.82C101.259 205.166 100.543 204.236 100.098 203.015C99.6959 201.908 99.6963 200.96 100.125 200.152C100.518 199.332 101.311 198.877 102.468 198.776ZM102.969 200.021C102.36 200.075 101.945 200.274 101.705 200.651C101.49 201.01 101.434 201.504 101.573 202.144L105.822 201.773C105.199 200.493 104.248 199.909 102.969 200.021ZM112.018 197.94C112.414 197.906 112.785 197.932 113.106 198.038L113.66 199.56C113.223 199.48 112.826 199.47 112.461 199.502C111.974 199.545 111.6 199.77 111.355 200.177C111.09 200.615 111.086 201.164 111.321 201.81L112.754 205.746L111.139 205.887L108.436 198.461L110.051 198.32L110.458 199.44C110.51 199.021 110.659 198.696 110.89 198.469C111.151 198.149 111.531 197.983 112.018 197.94ZM117.603 197.452C119.643 197.273 121.052 197.95 121.805 199.5L120.237 199.637C119.968 199.246 119.686 198.989 119.37 198.853C119.033 198.705 118.575 198.656 118.027 198.704C117.54 198.747 117.195 198.836 117.004 199.001C116.767 199.17 116.713 199.412 116.818 199.699C116.912 199.958 117.204 200.154 117.698 200.304C118.014 200.395 118.584 200.493 119.444 200.611C120.415 200.733 121.174 200.919 121.695 201.14C122.455 201.459 122.963 201.948 123.204 202.609C123.774 204.174 122.888 205.067 120.559 205.271C118.396 205.46 116.92 204.685 116.11 202.977L117.694 202.839C117.968 203.334 118.297 203.675 118.644 203.852C118.986 204.015 119.449 204.078 120.058 204.025C121.307 203.916 121.821 203.515 121.58 202.854C121.45 202.495 121.101 202.229 120.571 202.068C120.286 201.975 119.701 201.878 118.831 201.776C117.829 201.656 117.096 201.498 116.646 201.3C115.907 200.994 115.419 200.518 115.189 199.886C114.943 199.211 115.039 198.654 115.497 198.229C115.95 197.789 116.659 197.534 117.603 197.452ZM123.343 194.089C123.662 194.061 123.968 194.123 124.254 194.306C124.535 194.474 124.731 194.708 124.841 195.01C124.951 195.312 124.918 195.567 124.778 195.786C124.632 195.992 124.395 196.116 124.09 196.143C123.77 196.171 123.475 196.093 123.194 195.925C122.907 195.742 122.707 195.493 122.602 195.206C122.492 194.904 122.51 194.651 122.655 194.445C122.795 194.226 123.023 194.117 123.343 194.089ZM123.618 197.133L125.232 196.992L127.935 204.418L126.321 204.559L123.618 197.133ZM131.603 196.227C132.79 196.123 133.886 196.412 134.873 197.097C135.84 197.768 136.546 198.67 136.959 199.805C137.366 200.925 137.356 201.889 136.917 202.669C136.458 203.48 135.64 203.951 134.452 204.055C133.264 204.159 132.164 203.855 131.161 203.172C130.199 202.515 129.509 201.612 129.101 200.492C128.688 199.357 128.698 198.393 129.147 197.598C129.591 196.788 130.415 196.331 131.603 196.227ZM132.057 197.476C131.311 197.542 130.832 197.865 130.625 198.461C130.432 198.967 130.489 199.6 130.761 200.347C131.033 201.094 131.42 201.682 131.958 202.124C132.568 202.634 133.251 202.871 133.997 202.806C134.743 202.74 135.217 202.402 135.445 201.819C135.633 201.299 135.596 200.68 135.329 199.947C135.057 199.2 134.65 198.598 134.112 198.156C133.482 197.633 132.804 197.411 132.057 197.476ZM141.689 195.344C143.638 195.174 144.994 196.093 145.736 198.132L147.404 202.715L145.79 202.856L144.169 198.403C143.709 197.139 142.855 196.561 141.636 196.668C141.179 196.708 140.821 196.888 140.601 197.233C140.361 197.61 140.305 198.104 140.463 198.712L142.089 203.18L140.475 203.321L137.772 195.895L139.386 195.753L139.721 196.673C139.89 196.272 140.14 195.969 140.468 195.748C140.791 195.512 141.201 195.387 141.689 195.344ZM152.008 191.729L155.968 191.383C157.719 191.23 159.211 191.573 160.465 192.427C161.631 193.214 162.512 194.427 163.103 196.05C163.689 197.659 163.702 198.947 163.158 199.913C162.579 200.913 161.421 201.488 159.67 201.642L155.741 201.985L152.008 191.729ZM154.155 192.92L156.915 200.504L158.879 200.332C160.25 200.212 161.155 199.807 161.57 199.133C161.97 198.461 161.944 197.485 161.474 196.192C160.993 194.871 160.328 193.951 159.499 193.401C158.635 192.839 157.52 192.625 156.149 192.745L154.155 192.92ZM167.698 193.069C168.977 192.957 170.113 193.273 171.086 194.047C171.967 194.741 172.664 195.747 173.16 197.067L167.19 197.589C167.513 198.302 167.915 198.845 168.421 199.201C168.923 199.543 169.498 199.7 170.138 199.644C170.701 199.594 171.111 199.425 171.373 199.15C171.573 198.925 171.682 198.575 171.738 198.125L173.352 197.984C173.42 198.69 173.284 199.309 172.904 199.817C172.422 200.437 171.659 200.8 170.608 200.892C169.451 200.993 168.396 200.73 167.481 200.113C166.488 199.459 165.772 198.529 165.328 197.308C164.926 196.202 164.926 195.253 165.355 194.445C165.747 193.625 166.54 193.17 167.698 193.069ZM168.198 194.315C167.589 194.368 167.175 194.567 166.935 194.944C166.72 195.304 166.664 195.798 166.803 196.438L171.051 196.066C170.428 194.786 169.477 194.203 168.198 194.315ZM176.532 192.296C178.572 192.117 179.982 192.795 180.734 194.344L179.166 194.481C178.898 194.09 178.615 193.833 178.299 193.698C177.962 193.549 177.504 193.5 176.956 193.548C176.469 193.591 176.124 193.68 175.933 193.845C175.696 194.014 175.643 194.256 175.747 194.543C175.841 194.802 176.133 194.999 176.627 195.148C176.943 195.239 177.513 195.338 178.373 195.455C179.345 195.577 180.104 195.763 180.624 195.984C181.384 196.303 181.892 196.792 182.133 197.453C182.703 199.019 181.818 199.911 179.488 200.115C177.325 200.304 175.849 199.529 175.039 197.822L176.623 197.683C176.897 198.178 177.226 198.52 177.573 198.697C177.915 198.86 178.378 198.923 178.987 198.869C180.236 198.76 180.75 198.36 180.51 197.699C180.379 197.34 180.031 197.074 179.501 196.913C179.215 196.819 178.63 196.722 177.76 196.62C176.758 196.5 176.025 196.342 175.576 196.144C174.836 195.839 174.348 195.362 174.118 194.73C173.872 194.055 173.968 193.498 174.426 193.073C174.879 192.633 175.588 192.379 176.532 192.296ZM185.641 191.499C186.646 191.411 187.532 191.556 188.298 191.934C189.074 192.34 189.721 192.995 190.208 193.901L188.609 194.041C188.319 193.547 187.97 193.192 187.552 192.992C187.128 192.777 186.644 192.701 186.096 192.749C185.426 192.807 184.992 193.082 184.784 193.59C184.555 194.084 184.613 194.761 184.916 195.594C185.219 196.427 185.643 197.072 186.196 197.513C186.713 197.942 187.32 198.14 188.02 198.079C189.224 197.974 189.684 197.341 189.429 196.207L191.028 196.067C191.206 197.074 191.067 197.857 190.635 198.399C190.199 198.926 189.465 199.242 188.46 199.33C187.257 199.435 186.192 199.143 185.25 198.455C184.334 197.794 183.68 196.903 183.262 195.754C182.854 194.633 182.839 193.686 183.217 192.912C183.62 192.076 184.423 191.606 185.641 191.499ZM194.919 190.687C195.315 190.653 195.686 190.679 196.008 190.785L196.562 192.307C196.124 192.227 195.728 192.217 195.362 192.249C194.875 192.292 194.501 192.517 194.257 192.924C193.992 193.362 193.987 193.911 194.222 194.557L195.655 198.493L194.041 198.634L191.338 191.208L192.952 191.067L193.36 192.187C193.411 191.768 193.56 191.443 193.792 191.216C194.053 190.896 194.432 190.73 194.919 190.687ZM197.698 187.584C198.018 187.556 198.323 187.618 198.61 187.8C198.891 187.968 199.086 188.203 199.196 188.505C199.306 188.807 199.273 189.061 199.133 189.281C198.988 189.486 198.75 189.611 198.446 189.638C198.126 189.666 197.83 189.588 197.549 189.42C197.263 189.237 197.062 188.988 196.958 188.701C196.848 188.399 196.866 188.146 197.011 187.94C197.151 187.72 197.378 187.612 197.698 187.584ZM197.973 190.628L199.587 190.486L202.29 197.913L200.676 198.054L197.973 190.628ZM206.278 189.694C207.435 189.592 208.475 189.902 209.427 190.619C210.298 191.284 210.937 192.176 211.355 193.325C211.752 194.417 211.777 195.349 211.445 196.119C211.087 196.95 210.33 197.417 209.203 197.515C208.229 197.601 207.28 197.239 206.327 196.433L207.759 200.369L206.145 200.51L202.407 190.24L203.914 190.108L204.239 190.998C204.52 190.218 205.212 189.787 206.278 189.694ZM206.484 190.95C205.783 191.011 205.329 191.318 205.142 191.883C204.974 192.372 205.031 193.004 205.309 193.765L205.356 193.895C205.643 194.685 206.076 195.314 206.681 195.765C207.208 196.178 207.779 196.365 208.388 196.312C209.18 196.243 209.67 195.948 209.873 195.426C210.04 194.937 209.993 194.289 209.695 193.471C209.397 192.652 209 192.034 208.528 191.601C207.948 191.089 207.276 190.881 206.484 190.95ZM213.66 186.78L214.533 189.179L216.33 189.022L216.79 190.286L214.993 190.443L216.562 194.752C216.635 194.953 216.733 195.093 216.861 195.185C216.984 195.264 217.142 195.309 217.34 195.292L218.375 195.201L218.835 196.465L217.541 196.578C216.871 196.637 216.306 196.509 215.881 196.205C215.461 195.916 215.162 195.482 214.948 194.893L213.379 190.584L211.917 190.712L211.457 189.448L212.919 189.32L212.276 187.553L213.66 186.78ZM218.324 185.779C218.644 185.751 218.95 185.813 219.236 185.996C219.517 186.164 219.713 186.399 219.822 186.7C219.932 187.002 219.899 187.257 219.759 187.477C219.614 187.682 219.377 187.806 219.072 187.833C218.752 187.861 218.457 187.783 218.176 187.615C217.889 187.433 217.688 187.183 217.584 186.896C217.474 186.594 217.492 186.341 217.637 186.136C217.777 185.916 218.005 185.807 218.324 185.779ZM218.599 188.823L220.214 188.682L222.917 196.108L221.302 196.249L218.599 188.823ZM226.584 187.917C227.772 187.813 228.867 188.103 229.855 188.787C230.822 189.458 231.527 190.36 231.94 191.495C232.348 192.615 232.338 193.579 231.899 194.359C231.44 195.17 230.621 195.642 229.434 195.746C228.246 195.849 227.145 195.546 226.142 194.863C225.181 194.206 224.49 193.303 224.083 192.182C223.67 191.047 223.68 190.083 224.129 189.288C224.573 188.478 225.396 188.021 226.584 187.917ZM227.039 189.167C226.293 189.232 225.814 189.555 225.606 190.152C225.413 190.658 225.471 191.29 225.743 192.037C226.014 192.784 226.401 193.373 226.939 193.815C227.549 194.324 228.233 194.561 228.979 194.496C229.725 194.431 230.199 194.093 230.427 193.509C230.614 192.989 230.578 192.37 230.311 191.637C230.039 190.89 229.632 190.289 229.094 189.847C228.463 189.324 227.785 189.101 227.039 189.167ZM236.67 187.035C238.62 186.864 239.975 187.783 240.718 189.823L242.386 194.405L240.771 194.546L239.151 190.093C238.691 188.829 237.836 188.252 236.618 188.358C236.161 188.398 235.802 188.578 235.582 188.923C235.342 189.3 235.286 189.794 235.445 190.403L237.071 194.87L235.457 195.011L232.754 187.585L234.368 187.443L234.703 188.363C234.871 187.963 235.122 187.659 235.45 187.438C235.773 187.202 236.183 187.077 236.67 187.035Z" fill="#111824"/>
<g filter="url(#filter4_bdd_427_2710)">
<g clip-path="url(#clip3_427_2710)">
<rect width="445.847" height="135.028" rx="7.64309" transform="matrix(0.996195 -0.0871557 0.34202 0.939693 93.8506 217.189)" fill="white"/>
<path d="M114.38 230.205L115.751 230.085L122.414 238.766L122.46 238.762L122.588 229.487L123.958 229.367L123.671 239.975L122.133 240.109L114.38 230.205ZM129.235 231.618C130.499 231.507 131.605 231.825 132.537 232.574C133.377 233.241 134.053 234.235 134.554 235.525L128.341 236.068C128.705 236.896 129.169 237.523 129.762 237.945C130.356 238.367 131.034 238.545 131.78 238.48C132.419 238.424 132.895 238.219 133.181 237.883C133.422 237.595 133.539 237.185 133.549 236.65L134.767 236.544C134.846 237.278 134.705 237.883 134.339 238.389C133.883 238.992 133.15 239.353 132.13 239.442C131.003 239.541 129.959 239.262 129.038 238.631C128.076 237.974 127.396 237.055 126.957 235.848C126.559 234.757 126.544 233.81 126.948 233.018C127.336 232.184 128.093 231.718 129.235 231.618ZM129.616 232.577C128.915 232.639 128.43 232.903 128.161 233.372C127.891 233.84 127.857 234.436 128.047 235.175L132.966 234.745C132.233 233.164 131.108 232.447 129.616 232.577ZM137.956 230.855C138.382 230.817 138.769 230.843 139.1 230.932L139.518 232.082C139.08 232.001 138.669 231.993 138.288 232.026C137.679 232.079 137.25 232.369 137.027 232.922C136.778 233.448 136.795 234.054 137.046 234.743L138.478 238.679L137.275 238.785L134.572 231.358L135.775 231.253L136.246 232.546C136.302 232.096 136.451 231.727 136.697 231.454C136.993 231.102 137.408 230.903 137.956 230.855ZM142.908 230.421C144.858 230.251 146.201 230.919 146.979 232.452L145.791 232.556C145.517 232.105 145.193 231.778 144.816 231.603C144.397 231.403 143.868 231.33 143.244 231.385C142.695 231.433 142.3 231.557 142.069 231.784C141.802 232 141.729 232.274 141.849 232.604C141.964 232.92 142.276 233.174 142.812 233.35C143.148 233.454 143.754 233.564 144.619 233.696C145.641 233.828 146.395 234 146.895 234.208C147.655 234.527 148.158 235.001 148.393 235.648C148.948 237.17 148.118 238.043 145.895 238.238C143.824 238.419 142.383 237.656 141.578 235.962L142.766 235.859C143.072 236.44 143.452 236.836 143.881 237.065C144.3 237.266 144.844 237.337 145.514 237.278C146.915 237.156 147.474 236.662 147.171 235.829C147.019 235.412 146.645 235.119 146.074 234.932C145.774 234.84 145.153 234.731 144.227 234.604C143.219 234.47 142.486 234.312 142.037 234.114C141.302 233.823 140.841 233.374 140.611 232.742C140.38 232.11 140.492 231.596 140.95 231.171C141.362 230.749 142.025 230.499 142.908 230.421ZM147.93 227.299C148.189 227.277 148.428 227.33 148.673 227.486C148.908 227.614 149.073 227.807 149.167 228.066C149.256 228.31 149.238 228.519 149.118 228.707C148.993 228.881 148.811 228.986 148.552 229.009C148.293 229.031 148.048 228.964 147.808 228.822C147.563 228.665 147.413 228.471 147.325 228.227C147.23 227.968 147.233 227.76 147.364 227.601C147.484 227.412 147.671 227.322 147.93 227.299ZM148.34 230.154L149.558 230.047L152.261 237.473L151.043 237.58L148.34 230.154ZM155.346 229.333C156.518 229.231 157.598 229.522 158.581 230.236C159.518 230.91 160.188 231.8 160.595 232.92C160.998 234.026 160.998 234.975 160.604 235.75C160.171 236.589 159.368 237.059 158.195 237.162C157.007 237.266 155.937 236.959 154.955 236.245C154.023 235.585 153.353 234.695 152.951 233.589C152.543 232.469 152.544 231.52 152.947 230.729C153.365 229.892 154.158 229.437 155.346 229.333ZM155.696 230.296C154.859 230.369 154.314 230.728 154.076 231.371C153.849 231.954 153.896 232.647 154.2 233.48C154.498 234.299 154.941 234.956 155.566 235.465C156.243 236.028 157.007 236.273 157.845 236.199C158.667 236.127 159.212 235.769 159.48 235.123C159.692 234.541 159.655 233.833 159.362 233.028C159.059 232.195 158.6 231.539 157.99 231.029C157.283 230.468 156.518 230.224 155.696 230.296ZM164.497 228.533C166.446 228.362 167.807 229.295 168.55 231.335L170.212 235.903L168.994 236.01L167.363 231.528C166.835 230.077 165.873 229.42 164.502 229.54C163.954 229.588 163.55 229.816 163.29 230.224C163.01 230.664 162.975 231.215 163.175 231.894L164.806 236.376L163.588 236.482L160.885 229.056L162.103 228.95L162.501 230.041C162.623 229.601 162.858 229.254 163.206 229.001C163.549 228.734 163.979 228.578 164.497 228.533ZM173.706 225.015L177.605 224.673C179.326 224.523 180.787 224.869 182.015 225.74C183.136 226.531 184.002 227.745 184.588 229.354C185.163 230.934 185.176 232.222 184.632 233.189C184.058 234.202 182.921 234.791 181.216 234.94L177.439 235.271L173.706 225.015ZM175.326 225.925L178.317 234.142L180.631 233.939C182.048 233.815 182.983 233.363 183.442 232.596C183.862 231.848 183.841 230.798 183.354 229.462C182.852 228.083 182.161 227.091 181.297 226.485C180.37 225.84 179.209 225.585 177.778 225.711L175.326 225.925ZM188.567 226.427C189.831 226.316 190.937 226.634 191.869 227.383C192.709 228.05 193.385 229.044 193.886 230.334L187.673 230.877C188.037 231.705 188.501 232.332 189.095 232.754C189.688 233.176 190.366 233.354 191.112 233.289C191.751 233.233 192.227 233.028 192.513 232.692C192.754 232.404 192.872 231.994 192.881 231.459L194.1 231.353C194.178 232.087 194.037 232.692 193.672 233.198C193.215 233.801 192.482 234.162 191.462 234.251C190.335 234.35 189.291 234.071 188.37 233.44C187.408 232.783 186.728 231.864 186.289 230.658C185.891 229.566 185.877 228.619 186.28 227.827C186.668 226.993 187.425 226.527 188.567 226.427ZM188.948 227.387C188.247 227.448 187.762 227.713 187.493 228.181C187.223 228.649 187.189 229.245 187.379 229.984L192.298 229.554C191.565 227.973 190.44 227.256 188.948 227.387ZM196.618 225.722C198.567 225.552 199.91 226.22 200.688 227.753L199.5 227.857C199.226 227.406 198.903 227.079 198.525 226.904C198.107 226.704 197.577 226.632 196.953 226.686C196.405 226.734 196.01 226.858 195.778 227.085C195.511 227.301 195.438 227.575 195.558 227.905C195.673 228.221 195.986 228.475 196.521 228.651C196.857 228.755 197.463 228.865 198.328 228.997C199.351 229.129 200.104 229.301 200.605 229.509C201.365 229.828 201.868 230.303 202.103 230.949C202.657 232.472 201.828 233.344 199.604 233.539C197.533 233.72 196.093 232.957 195.288 231.264L196.476 231.16C196.781 231.741 197.161 232.137 197.591 232.366C198.009 232.567 198.554 232.638 199.224 232.579C200.625 232.457 201.184 231.963 200.88 231.13C200.729 230.713 200.355 230.42 199.784 230.233C199.483 230.141 198.862 230.032 197.936 229.905C196.929 229.771 196.196 229.613 195.747 229.415C195.012 229.124 194.55 228.675 194.32 228.043C194.09 227.411 194.202 226.897 194.66 226.472C195.072 226.05 195.735 225.8 196.618 225.722ZM204.976 224.991C205.951 224.906 206.806 225.053 207.557 225.432C208.328 225.824 208.939 226.468 209.406 227.36L208.203 227.466C207.887 226.9 207.486 226.491 207.001 226.237C206.501 225.984 205.951 225.899 205.327 225.954C204.565 226.02 204.055 226.346 203.813 226.931C203.58 227.5 203.628 228.237 203.957 229.141C204.287 230.046 204.746 230.747 205.361 231.227C205.96 231.708 206.668 231.928 207.46 231.859C208.8 231.741 209.342 231.027 209.059 229.733L210.277 229.626C210.44 230.59 210.326 231.356 209.894 231.898C209.473 232.424 208.785 232.736 207.811 232.821C206.623 232.925 205.573 232.631 204.646 231.942C203.766 231.293 203.127 230.4 202.714 229.265C202.301 228.13 202.271 227.184 202.634 226.411C203.016 225.563 203.804 225.094 204.976 224.991ZM213.426 224.252C213.852 224.215 214.239 224.24 214.57 224.33L214.988 225.479C214.55 225.399 214.139 225.39 213.758 225.423C213.149 225.477 212.72 225.766 212.497 226.319C212.249 226.845 212.265 227.451 212.516 228.141L213.948 232.077L212.745 232.182L210.042 224.755L211.245 224.65L211.716 225.943C211.772 225.493 211.921 225.125 212.167 224.851C212.463 224.499 212.878 224.3 213.426 224.252ZM215.651 221.375C215.91 221.352 216.149 221.405 216.394 221.561C216.629 221.689 216.794 221.882 216.888 222.141C216.977 222.385 216.959 222.594 216.839 222.782C216.714 222.956 216.532 223.061 216.273 223.084C216.014 223.107 215.769 223.039 215.529 222.897C215.284 222.741 215.134 222.546 215.046 222.302C214.951 222.043 214.954 221.836 215.085 221.676C215.205 221.488 215.392 221.397 215.651 221.375ZM216.061 224.229L217.279 224.122L219.982 231.549L218.764 231.655L216.061 224.229ZM223.31 223.387C224.437 223.289 225.477 223.598 226.425 224.345C227.28 225.011 227.914 225.889 228.322 227.01C228.719 228.102 228.744 229.033 228.426 229.802C228.069 230.634 227.348 231.112 226.221 231.21C225.094 231.309 224.038 230.868 223.052 229.887L224.579 234.081L223.36 234.188L219.622 223.917L220.764 223.817L221.209 225.038C221.427 224.041 222.123 223.491 223.31 223.387ZM223.503 224.348C222.711 224.418 222.192 224.76 221.98 225.386C221.772 225.938 221.825 226.644 222.128 227.478L222.18 227.621C222.494 228.483 222.958 229.154 223.608 229.645C224.223 230.125 224.886 230.349 225.617 230.285C226.47 230.21 227.005 229.867 227.247 229.283C227.455 228.731 227.397 228.01 227.073 227.119C226.754 226.243 226.3 225.556 225.746 225.071C225.085 224.507 224.341 224.275 223.503 224.348ZM229.834 220.549L230.707 222.947L232.657 222.777L233.007 223.739L231.058 223.91L232.778 228.636C232.877 228.909 232.996 229.106 233.16 229.21C233.308 229.316 233.532 229.37 233.806 229.346L234.811 229.258L235.162 230.221L233.974 230.325C233.334 230.38 232.805 230.264 232.415 229.972C232.052 229.707 231.779 229.301 231.575 228.741L229.855 224.015L228.271 224.154L227.921 223.191L229.504 223.053L228.804 221.128L229.834 220.549ZM234.065 219.763C234.324 219.741 234.564 219.794 234.809 219.95C235.044 220.078 235.209 220.271 235.303 220.53C235.392 220.774 235.374 220.983 235.254 221.171C235.128 221.345 234.946 221.45 234.688 221.473C234.429 221.495 234.184 221.428 233.944 221.286C233.698 221.13 233.549 220.935 233.46 220.691C233.366 220.432 233.369 220.225 233.5 220.065C233.62 219.877 233.807 219.786 234.065 219.763ZM234.476 222.618L235.694 222.511L238.397 229.938L237.179 230.044L234.476 222.618ZM241.481 221.797C242.654 221.695 243.734 221.986 244.717 222.7C245.654 223.374 246.323 224.264 246.731 225.384C247.134 226.49 247.133 227.439 246.74 228.215C246.306 229.053 245.503 229.523 244.331 229.626C243.143 229.73 242.073 229.423 241.09 228.709C240.159 228.049 239.489 227.159 239.087 226.053C238.679 224.933 238.679 223.984 239.083 223.193C239.501 222.356 240.294 221.901 241.481 221.797ZM241.832 222.76C240.994 222.833 240.449 223.192 240.212 223.835C239.984 224.418 240.032 225.111 240.335 225.944C240.633 226.763 241.077 227.421 241.702 227.929C242.378 228.492 243.143 228.737 243.981 228.663C244.803 228.592 245.348 228.233 245.616 227.587C245.828 227.005 245.79 226.297 245.498 225.492C245.194 224.659 244.735 224.003 244.126 223.493C243.419 222.932 242.654 222.688 241.832 222.76ZM250.633 220.997C252.582 220.826 253.943 221.759 254.685 223.799L256.348 228.367L255.129 228.474L253.498 223.992C252.97 222.541 252.008 221.884 250.638 222.004C250.09 222.052 249.686 222.28 249.426 222.688C249.146 223.128 249.111 223.679 249.311 224.358L250.942 228.84L249.724 228.947L247.021 221.52L248.239 221.414L248.636 222.505C248.759 222.065 248.994 221.718 249.342 221.465C249.685 221.198 250.115 221.042 250.633 220.997Z" fill="#667085"/>
<path d="M569.463 302.724L575.607 293.08" stroke="#C4CBD7" stroke-width="1.27385" stroke-linecap="round"/>
<path d="M573.771 302.363L577.09 297.154" stroke="#C4CBD7" stroke-width="1.27385" stroke-linecap="round"/>
</g>
<rect x="0.139256" y="0.0887159" width="445.639" height="134.82" rx="7.53902" transform="matrix(0.996195 -0.0871557 0.34202 0.939693 93.8208 217.206)" stroke="url(#paint3_linear_427_2710)" stroke-width="0.208122"/>
</g>
<g filter="url(#filter5_bd_427_2710)">
<path d="M485.582 350.897C484.138 346.93 486.377 343.416 490.582 343.048L587.026 334.61C591.231 334.243 595.81 337.16 597.254 341.126L607.889 370.347C609.333 374.313 607.094 377.827 602.889 378.195L506.445 386.633C502.24 387.001 497.661 384.083 496.217 380.117L485.582 350.897Z" fill="#111824"/>
<path d="M514.296 356.931L519.555 356.471C522.575 356.206 524.524 357.281 525.409 359.711C526.299 362.158 525.217 363.515 522.179 363.78L518.892 364.068L520.588 368.727L518.651 368.896L514.296 356.931ZM516.8 358.32L518.325 362.509L521.487 362.233C522.446 362.149 523.078 361.921 523.4 361.547C523.705 361.174 523.741 360.618 523.472 359.88C523.204 359.143 522.778 358.627 522.224 358.364C521.658 358.068 520.904 357.961 519.962 358.043L516.8 358.32ZM527.037 359.223L528.92 359.058L530.841 364.337C531.109 365.074 531.465 365.596 531.924 365.902C532.366 366.209 532.966 366.347 533.694 366.283C534.192 366.24 534.563 366 534.855 365.594C535.141 365.171 535.254 364.625 535.182 363.974L533.255 358.679L535.138 358.514L538.291 367.178L536.408 367.343L535.981 366.17C535.541 367.176 534.752 367.73 533.598 367.831C531.377 368.025 529.848 366.948 529.001 364.619L527.037 359.223ZM536.13 354.778L538.013 354.614L539.77 359.44C540.144 358.353 540.885 357.769 542.022 357.67C543.337 357.554 544.532 357.917 545.625 358.755C546.623 359.532 547.362 360.557 547.826 361.831C548.308 363.154 548.349 364.275 547.943 365.175C547.491 366.148 546.607 366.692 545.257 366.811C543.996 366.921 542.896 366.568 541.951 365.786L542.329 366.825L540.57 366.979L536.13 354.778ZM542.12 359.148C541.409 359.21 540.932 359.511 540.701 360.085C540.411 360.698 540.455 361.473 540.796 362.411L540.851 362.562C541.168 363.433 541.62 364.12 542.212 364.639C542.876 365.203 543.631 365.466 544.448 365.394C545.372 365.313 545.932 364.936 546.15 364.277C546.31 363.71 546.237 362.955 545.889 362C545.542 361.045 545.078 360.324 544.504 359.856C543.84 359.291 543.044 359.067 542.12 359.148ZM547.088 353.82L548.971 353.655L553.412 365.855L551.529 366.02L547.088 353.82ZM552.8 353.389C553.173 353.357 553.53 353.429 553.864 353.642C554.192 353.838 554.42 354.112 554.548 354.464C554.676 354.816 554.638 355.113 554.474 355.37C554.305 355.609 554.028 355.755 553.672 355.786C553.299 355.818 552.955 355.727 552.627 355.531C552.292 355.318 552.058 355.028 551.936 354.692C551.808 354.341 551.829 354.045 551.998 353.805C552.162 353.549 552.427 353.422 552.8 353.389ZM553.121 356.941L555.004 356.776L558.158 365.44L556.275 365.605L553.121 356.941ZM561.024 356.007C563.404 355.799 565.049 356.589 565.927 358.397L564.097 358.557C563.784 358.1 563.455 357.8 563.086 357.642C562.693 357.469 562.159 357.412 561.519 357.468C560.95 357.518 560.548 357.622 560.325 357.815C560.049 358.012 559.986 358.294 560.108 358.629C560.218 358.931 560.558 359.16 561.135 359.335C561.504 359.441 562.169 359.556 563.172 359.693C564.305 359.835 565.191 360.052 565.798 360.31C566.685 360.682 567.278 361.253 567.558 362.024C568.223 363.85 567.191 364.892 564.472 365.129C561.95 365.35 560.227 364.446 559.282 362.454L561.13 362.292C561.45 362.869 561.833 363.268 562.239 363.475C562.638 363.665 563.178 363.738 563.888 363.676C565.345 363.549 565.945 363.081 565.665 362.31C565.512 361.891 565.106 361.581 564.487 361.393C564.154 361.284 563.472 361.171 562.457 361.052C561.288 360.912 560.432 360.728 559.908 360.497C559.045 360.14 558.476 359.585 558.208 358.847C557.921 358.06 558.033 357.41 558.567 356.914C559.096 356.401 559.922 356.103 561.024 356.007ZM565.75 352.187L567.633 352.022L569.366 356.782C569.52 356.249 569.806 355.827 570.236 355.547C570.613 355.272 571.091 355.126 571.678 355.075C572.779 354.979 573.724 355.207 574.518 355.778C575.265 356.317 575.848 357.166 576.263 358.305L578.221 363.685L576.338 363.849L574.49 358.772C574.209 358.001 573.824 357.446 573.358 357.072C572.85 356.684 572.226 356.531 571.515 356.594C570.876 356.65 570.446 356.929 570.232 357.449C570 357.971 570.031 358.608 570.305 359.362L572.074 364.222L570.191 364.387L565.75 352.187Z" fill="white"/>
</g>
<path fill-rule="evenodd" clip-rule="evenodd" d="M596.023 356.053C596.855 355.98 597.761 356.557 598.046 357.342L598.977 359.899C599.263 360.684 598.82 361.379 597.988 361.452C597.156 361.525 596.25 360.948 595.965 360.163L595.034 357.606C594.749 356.821 595.191 356.126 596.023 356.053ZM587.314 360.763C587.7 360.156 588.654 360.073 589.444 360.576L592.019 362.217C592.809 362.72 593.136 363.62 592.75 364.226C592.364 364.833 591.41 364.916 590.62 364.413L588.045 362.772C587.255 362.269 586.927 361.369 587.314 360.763ZM607.627 358.986C608.417 359.489 608.745 360.389 608.359 360.995L607.1 362.971C606.713 363.577 605.76 363.661 604.97 363.157C604.18 362.654 603.852 361.754 604.238 361.148L605.497 359.172C605.883 358.566 606.837 358.482 607.627 358.986ZM601.235 366.984C601.255 366.988 601.274 366.992 601.294 366.995L623.796 371.128C624.315 371.223 624.806 371.313 625.199 371.416C625.557 371.509 626.216 371.7 626.771 372.203C627.407 372.778 627.763 373.532 627.729 374.233C627.7 374.844 627.313 375.23 627.094 375.431C626.853 375.651 626.52 375.894 626.167 376.152L619.32 381.153L617.681 389.473C617.597 389.901 617.517 390.306 617.419 390.617C617.33 390.9 617.144 391.414 616.602 391.699C615.981 392.026 615.148 392.022 614.357 391.689C613.667 391.398 613.215 390.881 612.979 390.596C612.72 390.284 612.431 389.877 612.126 389.447L598.87 370.799C598.859 370.783 598.847 370.767 598.836 370.75C598.59 370.405 598.345 370.061 598.17 369.768C597.996 369.477 597.731 368.987 597.744 368.446C597.76 367.797 598.104 367.258 598.685 366.969C599.17 366.729 599.726 366.761 600.064 366.796C600.403 366.831 600.818 366.908 601.235 366.984ZM601.516 369.81L614.573 388.18L616.181 380.022C616.183 380.014 616.184 380.004 616.186 379.993C616.206 379.889 616.242 379.703 616.319 379.529C616.385 379.38 616.472 379.242 616.579 379.12C616.705 378.977 616.858 378.866 616.945 378.803C616.953 378.797 616.961 378.791 616.969 378.786L623.683 373.882L601.516 369.81ZM586.726 370.647C586.44 369.862 586.883 369.167 587.715 369.094L590.426 368.857C591.258 368.784 592.164 369.361 592.449 370.146C592.735 370.931 592.292 371.626 591.46 371.698L588.749 371.936C587.917 372.008 587.012 371.431 586.726 370.647ZM596.945 375.753C597.736 376.256 598.063 377.156 597.677 377.762L596.418 379.738C596.032 380.344 595.078 380.428 594.288 379.924C593.498 379.421 593.17 378.521 593.557 377.915L594.815 375.939C595.202 375.333 596.155 375.249 596.945 375.753Z" fill="url(#paint4_linear_427_2710)"/>
<path d="M614.573 388.18L601.516 369.81L623.683 373.882L616.969 378.786L616.945 378.803C616.858 378.866 616.705 378.977 616.579 379.12C616.472 379.242 616.385 379.38 616.319 379.529C616.242 379.703 616.206 379.889 616.186 379.993L616.181 380.022L614.573 388.18Z" fill="url(#paint5_linear_427_2710)"/>
</g>
<rect y="0.000244141" width="700" height="73.7049" fill="url(#paint6_linear_427_2710)"/>
<rect x="700" y="450.455" width="700" height="66.0644" transform="rotate(-180 700 450.455)" fill="url(#paint7_linear_427_2710)"/>
</g>
<defs>
<filter id="filter0_f_427_2710" x="-349.35" y="-316.217" width="1362.98" height="1080.52" filterUnits="userSpaceOnUse" color-interpolation-filters="sRGB">
<feFlood flood-opacity="0" result="BackgroundImageFix"/>
<feBlend mode="normal" in="SourceGraphic" in2="BackgroundImageFix" result="shape"/>
<feGaussianBlur stdDeviation="212.121" result="effect1_foregroundBlur_427_2710"/>
</filter>
<filter id="filter1_b_427_2710" x="-386.093" y="-284.326" width="1235.45" height="1000.21" filterUnits="userSpaceOnUse" color-interpolation-filters="sRGB">
<feFlood flood-opacity="0" result="BackgroundImageFix"/>
<feGaussianBlur in="BackgroundImageFix" stdDeviation="76.181"/>
<feComposite in2="SourceAlpha" operator="in" result="effect1_backgroundBlur_427_2710"/>
<feBlend mode="normal" in="SourceGraphic" in2="effect1_backgroundBlur_427_2710" result="shape"/>
</filter>
<filter id="filter2_bdd_427_2710" x="-126.209" y="-152.102" width="771.89" height="390.961" filterUnits="userSpaceOnUse" color-interpolation-filters="sRGB">
<feFlood flood-opacity="0" result="BackgroundImageFix"/>
<feGaussianBlur in="BackgroundImageFix" stdDeviation="78.4495"/>
<feComposite in2="SourceAlpha" operator="in" result="effect1_backgroundBlur_427_2710"/>
<feColorMatrix in="SourceAlpha" type="matrix" values="0 0 0 0 0 0 0 0 0 0 0 0 0 0 0 0 0 0 127 0" result="hardAlpha"/>
<feMorphology radius="8.32488" operator="erode" in="SourceAlpha" result="effect2_dropShadow_427_2710"/>
<feOffset dx="-14.5385" dy="21.9417"/>
<feGaussianBlur stdDeviation="14.4615"/>
<feComposite in2="hardAlpha" operator="out"/>
<feColorMatrix type="matrix" values="0 0 0 0 0.392431 0 0 0 0 0.670442 0 0 0 0 0.826823 0 0 0 0.2 0"/>
<feBlend mode="normal" in2="effect1_backgroundBlur_427_2710" result="effect2_dropShadow_427_2710"/>
<feColorMatrix in="SourceAlpha" type="matrix" values="0 0 0 0 0 0 0 0 0 0 0 0 0 0 0 0 0 0 127 0" result="hardAlpha"/>
<feOffset/>
<feGaussianBlur stdDeviation="0.541007"/>
<feComposite in2="hardAlpha" operator="out"/>
<feColorMatrix type="matrix" values="0 0 0 0 0.0745098 0 0 0 0 0.2 0 0 0 0 0.419608 0 0 0 0.08 0"/>
<feBlend mode="normal" in2="effect2_dropShadow_427_2710" result="effect3_dropShadow_427_2710"/>
<feBlend mode="normal" in="SourceGraphic" in2="effect3_dropShadow_427_2710" result="shape"/>
</filter>
<filter id="filter3_bdd_427_2710" x="-92.8862" y="-60.5471" width="771.89" height="390.961" filterUnits="userSpaceOnUse" color-interpolation-filters="sRGB">
<feFlood flood-opacity="0" result="BackgroundImageFix"/>
<feGaussianBlur in="BackgroundImageFix" stdDeviation="78.4495"/>
<feComposite in2="SourceAlpha" operator="in" result="effect1_backgroundBlur_427_2710"/>
<feColorMatrix in="SourceAlpha" type="matrix" values="0 0 0 0 0 0 0 0 0 0 0 0 0 0 0 0 0 0 127 0" result="hardAlpha"/>
<feMorphology radius="8.32488" operator="erode" in="SourceAlpha" result="effect2_dropShadow_427_2710"/>
<feOffset dx="-14.5385" dy="21.9417"/>
<feGaussianBlur stdDeviation="14.4615"/>
<feComposite in2="hardAlpha" operator="out"/>
<feColorMatrix type="matrix" values="0 0 0 0 0.392431 0 0 0 0 0.670442 0 0 0 0 0.826823 0 0 0 0.2 0"/>
<feBlend mode="normal" in2="effect1_backgroundBlur_427_2710" result="effect2_dropShadow_427_2710"/>
<feColorMatrix in="SourceAlpha" type="matrix" values="0 0 0 0 0 0 0 0 0 0 0 0 0 0 0 0 0 0 127 0" result="hardAlpha"/>
<feOffset/>
<feGaussianBlur stdDeviation="0.541007"/>
<feComposite in2="hardAlpha" operator="out"/>
<feColorMatrix type="matrix" values="0 0 0 0 0.0745098 0 0 0 0 0.2 0 0 0 0 0.419608 0 0 0 0.08 0"/>
<feBlend mode="normal" in2="effect2_dropShadow_427_2710" result="effect3_dropShadow_427_2710"/>
<feBlend mode="normal" in="SourceGraphic" in2="effect3_dropShadow_427_2710" result="shape"/>
</filter>
<filter id="filter4_bdd_427_2710" x="-63.0484" y="21.4316" width="804.13" height="479.541" filterUnits="userSpaceOnUse" color-interpolation-filters="sRGB">
<feFlood flood-opacity="0" result="BackgroundImageFix"/>
<feGaussianBlur in="BackgroundImageFix" stdDeviation="78.4495"/>
<feComposite in2="SourceAlpha" operator="in" result="effect1_backgroundBlur_427_2710"/>
<feColorMatrix in="SourceAlpha" type="matrix" values="0 0 0 0 0 0 0 0 0 0 0 0 0 0 0 0 0 0 127 0" result="hardAlpha"/>
<feMorphology radius="8.32488" operator="erode" in="SourceAlpha" result="effect2_dropShadow_427_2710"/>
<feOffset dx="-14.5385" dy="21.9417"/>
<feGaussianBlur stdDeviation="14.4615"/>
<feComposite in2="hardAlpha" operator="out"/>
<feColorMatrix type="matrix" values="0 0 0 0 0.392431 0 0 0 0 0.670442 0 0 0 0 0.826823 0 0 0 0.2 0"/>
<feBlend mode="normal" in2="effect1_backgroundBlur_427_2710" result="effect2_dropShadow_427_2710"/>
<feColorMatrix in="SourceAlpha" type="matrix" values="0 0 0 0 0 0 0 0 0 0 0 0 0 0 0 0 0 0 127 0" result="hardAlpha"/>
<feOffset/>
<feGaussianBlur stdDeviation="0.541007"/>
<feComposite in2="hardAlpha" operator="out"/>
<feColorMatrix type="matrix" values="0 0 0 0 0.0745098 0 0 0 0 0.2 0 0 0 0 0.419608 0 0 0 0.08 0"/>
<feBlend mode="normal" in2="effect2_dropShadow_427_2710" result="effect3_dropShadow_427_2710"/>
<feBlend mode="normal" in="SourceGraphic" in2="effect3_dropShadow_427_2710" result="shape"/>
</filter>
<filter id="filter5_bd_427_2710" x="326.069" y="177.045" width="441.334" height="367.152" filterUnits="userSpaceOnUse" color-interpolation-filters="sRGB">
<feFlood flood-opacity="0" result="BackgroundImageFix"/>
<feGaussianBlur in="BackgroundImageFix" stdDeviation="78.4495"/>
<feComposite in2="SourceAlpha" operator="in" result="effect1_backgroundBlur_427_2710"/>
<feColorMatrix in="SourceAlpha" type="matrix" values="0 0 0 0 0 0 0 0 0 0 0 0 0 0 0 0 0 0 127 0" result="hardAlpha"/>
<feOffset dx="-14.5385" dy="21.9417"/>
<feGaussianBlur stdDeviation="14.4615"/>
<feComposite in2="hardAlpha" operator="out"/>
<feColorMatrix type="matrix" values="0 0 0 0 0.556645 0 0 0 0 0.678679 0 0 0 0 0.791325 0 0 0 0.2 0"/>
<feBlend mode="normal" in2="effect1_backgroundBlur_427_2710" result="effect2_dropShadow_427_2710"/>
<feBlend mode="normal" in="SourceGraphic" in2="effect2_dropShadow_427_2710" result="shape"/>
</filter>
<linearGradient id="paint0_linear_427_2710" x1="24.5573" y1="444.32" x2="329.906" y2="835.719" gradientUnits="userSpaceOnUse">
<stop stop-color="white"/>
<stop offset="1" stop-color="white" stop-opacity="0"/>
</linearGradient>
<linearGradient id="paint1_linear_427_2710" x1="56.5621" y1="65.2656" x2="62.2505" y2="101.844" gradientUnits="userSpaceOnUse">
<stop stop-color="white"/>
<stop offset="1" stop-color="white" stop-opacity="0"/>
</linearGradient>
<linearGradient id="paint2_linear_427_2710" x1="89.8853" y1="156.821" x2="95.5737" y2="193.4" gradientUnits="userSpaceOnUse">
<stop stop-color="white"/>
<stop offset="1" stop-color="white" stop-opacity="0"/>
</linearGradient>
<linearGradient id="paint3_linear_427_2710" x1="17.5179" y1="81.562" x2="44.4004" y2="200.472" gradientUnits="userSpaceOnUse">
<stop stop-color="white"/>
<stop offset="1" stop-color="white" stop-opacity="0"/>
</linearGradient>
<linearGradient id="paint4_linear_427_2710" x1="588.526" y1="359.642" x2="602.346" y2="378.954" gradientUnits="userSpaceOnUse">
<stop stop-color="#E7F5FF"/>
<stop offset="1" stop-color="#6DC0FC"/>
</linearGradient>
<linearGradient id="paint5_linear_427_2710" x1="588.526" y1="359.642" x2="602.346" y2="378.954" gradientUnits="userSpaceOnUse">
<stop stop-color="#E7F5FF"/>
<stop offset="1" stop-color="#6DC0FC"/>
</linearGradient>
<linearGradient id="paint6_linear_427_2710" x1="106.618" y1="29.8203" x2="111.943" y2="75.274" gradientUnits="userSpaceOnUse">
<stop stop-color="#EFF7FF"/>
<stop offset="1" stop-color="#EFF7FF" stop-opacity="0"/>
</linearGradient>
<linearGradient id="paint7_linear_427_2710" x1="813.089" y1="483.487" x2="815.715" y2="517.267" gradientUnits="userSpaceOnUse">
<stop stop-color="#EFF7FF"/>
<stop offset="1" stop-color="#EFF7FF" stop-opacity="0"/>
</linearGradient>
<clipPath id="clip0_427_2710">
<rect width="694" height="450" fill="white"/>
</clipPath>
<clipPath id="clip1_427_2710">
<rect width="764.112" height="573.764" rx="13.5963" transform="matrix(0.996195 -0.0871557 0.34202 0.939693 -267.599 -63.9604)" fill="white"/>
</clipPath>
<clipPath id="clip2_427_2710">
<path d="M33.3035 50.8369C31.8598 46.8703 34.0984 43.3565 38.3035 42.9886L467.226 5.46282C471.431 5.09492 476.01 8.01224 477.454 11.9788L486.167 35.9193C487.611 39.8859 485.373 43.3997 481.167 43.7676L52.2453 81.2935C48.0402 81.6614 43.4609 78.744 42.0172 74.7774L33.3035 50.8369Z" fill="white"/>
</clipPath>
<clipPath id="clip3_427_2710">
<rect width="445.847" height="135.028" rx="7.64309" transform="matrix(0.996195 -0.0871557 0.34202 0.939693 93.8506 217.189)" fill="white"/>
</clipPath>
</defs>
</svg>
