<svg width="136" height="136" viewBox="0 0 136 136" fill="none" xmlns="http://www.w3.org/2000/svg">
<g clip-path="url(#clip0_137_2)">
<rect width="136" height="136" fill="#141414"/>
<path fill-rule="evenodd" clip-rule="evenodd" d="M62.6855 103.724C58.5716 104.595 56.0001 103.265 56 101.66L56 70.0264C56 69.8606 56.0032 69.686 56.0088 69.5069C56.0039 69.3848 56.001 69.249 56.001 69.0977L56.001 37.9444C56.015 36.6524 56.2588 35.7449 59.2588 35.1094L73.3145 32.2764C77.4285 31.405 80 32.7365 80 34.3408L80 65.9746C80 66.1409 79.9978 66.3155 79.9922 66.4951C79.997 66.6169 79.999 66.7526 79.999 66.9033L79.999 98.0567C79.9849 99.3483 79.7408 100.256 76.7412 100.892L62.6855 103.724Z" fill="#F5F5F5"/>
<path fill-rule="evenodd" clip-rule="evenodd" d="M30.6855 111.723C26.5716 112.594 24.0001 111.264 24 109.659L24 78.0244C24 77.8588 24.0032 77.6848 24.0088 77.5059C24.0039 77.3838 24.001 77.248 24.001 77.0967L24.001 45.9434C24.015 44.6514 24.2588 43.7439 27.2588 43.1084L41.3145 40.2754C45.4285 39.404 48 40.7355 48 42.3399L48 73.9737C48 74.1399 47.9978 74.3146 47.9922 74.4942C47.997 74.6159 47.999 74.7517 47.999 74.9024L47.999 106.056C47.9849 107.347 47.7408 108.255 44.7412 108.891L30.6855 111.723Z" fill="#F5F5F5"/>
<path fill-rule="evenodd" clip-rule="evenodd" d="M105.314 24.2754C109.428 23.404 112 24.7355 112 26.3398V37.1845L94.0576 60.5019L111.999 82.7802V90.0576C111.985 91.3492 111.741 92.2571 108.741 92.8925L94.6855 95.7246C90.5717 96.596 88.0002 95.2654 88 93.6611V62.0254C88 61.8598 88.0032 61.6856 88.0088 61.5068C88.0039 61.3848 88.001 61.2488 88.001 61.0976V29.9433C88.0151 28.6516 88.2591 27.7438 91.2588 27.1084L105.314 24.2754Z" fill="#F5F5F5"/>
</g>
<defs>
<clipPath id="clip0_137_2">
<rect width="136" height="136" fill="white"/>
</clipPath>
</defs>
</svg>
