<?xml version="1.0" encoding="utf-8" ?><svg xmlns="http://www.w3.org/2000/svg" xmlns:xlink="http://www.w3.org/1999/xlink" width="2048" height="2048" viewBox="0 0 2048 2048"><path fill="#FEFEFE" d="M0 0L2048 0L2048 2048L0 2048L0 0Z"/><path fill="#000101" d="M259.825 864.981C253.899 839.719 245.867 814.867 239.974 789.498C226.09 729.726 216.629 667.144 212.465 605.968C206.988 525.515 207.951 367.118 264.038 303.721C280.868 284.697 303.202 274.542 328.476 273.008C428.025 266.966 593.714 372.785 671.795 431.54C684.54 441.13 697.897 450.549 709.881 461.069C879.502 398.638 1063.81 387.84 1239.56 430.036C1275.89 438.764 1304.14 448.856 1339.2 460.772C1350.17 453.684 1360.09 444.845 1370.42 436.859C1383.91 426.425 1397.86 416.431 1411.76 406.55C1484.95 354.533 1589.82 293.925 1677.74 276.693C1709.15 270.535 1740.73 269.983 1768.11 288.702C1850.65 345.115 1841.66 562.678 1832.78 650.232C1828.75 689.925 1821.58 729.138 1814.03 768.287C1811.64 780.665 1790.36 861.883 1791 864.838C1795.66 886.16 1804.83 906.751 1811.16 927.703C1823.33 967.825 1831.53 1009.05 1835.64 1050.77C1852.12 1195.55 1815.16 1341.37 1731.71 1460.82C1719.83 1477.5 1707.13 1493.58 1693.65 1509C1686.21 1517.39 1674.48 1529.31 1667.87 1537.62L1666.8 1538.98C1664.82 1545.09 1664.05 1547.93 1659.19 1552.17C1654.3 1556.44 1648.46 1566.46 1642.45 1567.72C1641.93 1570.08 1641.96 1568.86 1642.48 1571.37C1639.35 1571.33 1638.75 1570.47 1637.55 1567.31C1559.39 1636.01 1484.31 1682.51 1386.97 1720.6C1190.16 1795.69 974.886 1807.79 770.9 1755.24C582.143 1707.22 397.415 1596.38 296.088 1425.88C216.504 1293.61 190.697 1135.85 223.987 985.11C231.183 951.951 238.881 920.147 251.717 888.696C254.729 881.317 258.043 872.625 259.825 864.981Z"/><path fill="#F6F7F3" d="M1637.55 1567.31C1647.21 1557.77 1656.95 1548.32 1666.8 1538.98C1664.82 1545.09 1664.05 1547.93 1659.19 1552.17C1654.3 1556.44 1648.46 1566.46 1642.45 1567.72C1641.93 1570.08 1641.96 1568.86 1642.48 1571.37C1639.35 1571.33 1638.75 1570.47 1637.55 1567.31Z"/><path fill="#FEFEFE" d="M477.964 1539.28C471.673 1535.97 448.914 1514 443.244 1508.51C375.625 1443.86 325.529 1363.1 297.651 1273.8C266.019 1171.57 267.048 1056.56 296.863 954.021C300.926 940.19 305.35 926.467 310.13 912.867C327.402 863.168 326.5 870.845 312.772 818.972C281.804 701.949 264.629 577.249 278.228 456.41C281.346 428.812 295.416 344.164 323.141 338.057C368.274 328.115 456.205 372.55 494.354 393.08C534.235 414.564 572.723 438.538 609.589 464.861C625.886 476.843 642.094 488.943 658.213 501.163C667.284 508.025 682.581 521.007 692.419 525.167C709.688 532.467 743.516 516.388 760.324 510.62C776.907 505.105 793.647 500.072 810.522 495.529C900.734 471.153 1004.45 463.982 1097.37 471.474C1140.57 474.944 1183.42 481.863 1225.52 492.164C1241.51 496.232 1257.4 500.688 1273.17 505.528C1287.47 510.007 1301.63 515.547 1315.77 519.972C1330.2 524.487 1349.42 532.092 1363.28 522.727C1375.05 514.767 1386.52 505.047 1397.7 496.14C1412.65 484.182 1428 472.748 1443.74 461.856C1517.12 410.541 1601.1 361.157 1688.41 339.16C1730.67 328.513 1746.26 344.975 1756.88 385.033C1788.67 505.002 1775.67 636.651 1751.32 756.858C1743.86 793.654 1732.73 826.973 1726.68 863.66C1724.37 877.558 1740.08 915.177 1745.62 931.03C1749.19 941.386 1752.36 951.872 1755.15 962.466C1779.7 1053.42 1782.94 1156.74 1759.82 1248.48C1703.63 1471.37 1511.1 1620.49 1297.64 1683.95C1186.42 1716.87 1070.13 1729.24 954.464 1720.46C929.543 1718.71 892.52 1715.23 867.894 1709.87C864.227 1709.61 862.745 1709.25 859.128 1708.42C835.931 1705.72 805.987 1698.37 783.375 1692.51C680.979 1665.98 573.512 1617.93 491.04 1550.49C485.256 1546.22 483.02 1544.37 477.964 1539.28Z"/><path fill="#F6F7F3" d="M477.964 1539.28L483.405 1541.08L484.252 1540.41L483.398 1538.95C489.013 1540.2 490.791 1543.07 494.013 1547.69C492.901 1549.59 493 1549.47 491.04 1550.49C485.256 1546.22 483.02 1544.37 477.964 1539.28Z"/><path fill="#000101" d="M1144.62 1037.98C1116.21 994.245 1091.85 946.244 1102.28 892.258C1108.86 856.607 1129.37 825.045 1159.27 804.552C1187.6 785.349 1222.47 778.385 1256 785.235C1299.83 794.243 1325.61 821.433 1349.01 857.131C1439.98 699.087 1668.82 813.782 1574.08 1004.55C1570.14 1011.52 1561.39 1024.78 1558.35 1030.92C1551.52 1039.2 1545.7 1048.6 1538.56 1057.2C1516.01 1084.12 1491.31 1109.16 1464.69 1132.08C1451.46 1143.63 1437.98 1154.9 1424.27 1165.88C1419.31 1169.83 1405.02 1180.39 1400.94 1184.29C1399.94 1187.19 1398.89 1190.08 1397.79 1192.95L1396.56 1193.46C1396.14 1192.65 1395.72 1191.84 1395.3 1191.03C1381.8 1198.97 1370.52 1210.62 1357.67 1219.28C1352.47 1222.78 1343.22 1221.33 1340.09 1215.73C1339.43 1214.72 1295.66 1183.55 1291.26 1180.12C1251.98 1150.14 1215.08 1117.15 1180.9 1081.46C1178.25 1083.22 1179.09 1082.99 1176.18 1083.82C1171.1 1074.74 1168.55 1074.86 1161.63 1067.25C1162.52 1065.8 1161.88 1066.54 1163.86 1065.33L1156.91 1056.58C1155.99 1057.73 1156.35 1057.21 1155.54 1058.55L1154.95 1059.53L1153.39 1057.53C1155.28 1046.07 1144.49 1048.01 1144.62 1037.98Z"/><path fill="#F6F7F3" d="M1400.94 1184.29C1399.94 1187.19 1398.89 1190.08 1397.79 1192.95L1396.56 1193.46C1396.14 1192.65 1395.72 1191.84 1395.3 1191.03C1381.8 1198.97 1370.52 1210.62 1357.67 1219.28C1352.47 1222.78 1343.22 1221.33 1340.09 1215.73C1342.93 1216.94 1344.75 1217.58 1347.7 1218.55C1355.46 1217.91 1391.93 1190.69 1400.94 1184.29Z"/><path fill="#F6F7F3" d="M1144.62 1037.98C1157.51 1053.29 1167.06 1066.23 1180.9 1081.46C1178.25 1083.22 1179.09 1082.99 1176.18 1083.82C1171.1 1074.74 1168.55 1074.86 1161.63 1067.25C1162.52 1065.8 1161.88 1066.54 1163.86 1065.33L1156.91 1056.58C1155.99 1057.73 1156.35 1057.21 1155.54 1058.55L1154.95 1059.53L1153.39 1057.53C1155.28 1046.07 1144.49 1048.01 1144.62 1037.98Z"/><path fill="#FEFEFE" d="M1226.42 837.337C1233.2 837.21 1241.77 840.033 1245.03 845.985C1257.9 869.546 1237 875.592 1219.62 881.708C1207.18 886.084 1199.38 897.478 1196.45 909.742C1192.69 925.508 1195.32 934.796 1177.71 941.212C1129.97 945.376 1156.49 846.523 1226.42 837.337Z"/><path fill="#000101" d="M699.735 856.919C716.024 829.915 735.163 808.907 764.138 795.059C794.469 780.57 829.296 778.653 861.034 789.726C893.508 801.237 922.443 828.687 935.746 860.493C937.73 865.237 939.62 869.952 941.82 874.603C949.184 883.519 945.071 888.647 949.115 892.464L950.448 889.479C952.239 900.993 953.179 920.208 949.818 931.286L948.001 932.126C946.524 940.106 945.433 947.452 943.414 955.37C923.386 1033.89 857.227 1097.72 797.104 1148.13C767.452 1172.99 733.166 1200.35 699.732 1220.13C680.916 1209.35 661.416 1194.44 644.327 1181.16C559.561 1115.24 425.402 1004.39 456.064 882.133C464.647 847.592 486.89 818.018 517.695 800.192C547.081 783.017 582.122 778.328 614.989 787.173C652.76 797.306 680.634 823.598 699.735 856.919Z"/><path fill="#F6F7F3" d="M941.82 874.603C949.184 883.519 945.071 888.647 949.115 892.464L950.448 889.479C952.239 900.993 953.179 920.208 949.818 931.286L948.001 932.126C949.314 907.897 947.567 897.728 941.82 874.603Z"/><path fill="#FEFEFE" d="M576.43 837.228C585.702 837.147 594.967 840.99 597.941 849.943C604.481 869.635 588.575 875.364 574.093 879.974C556.951 885.603 548.57 898.827 545.875 915.951C543.639 930.161 541.691 936.318 527.825 941.239C517.029 941.631 504.825 935.988 504.582 924.506C503.628 879.378 534.656 844.515 576.43 837.228Z"/><path fill="#000101" d="M1000.38 1305.27C995.898 1302.05 989.08 1298.25 984.921 1295.12C902.847 1233.4 894.903 1174.76 1014.65 1176.11C1046.71 1176.67 1137.15 1171.56 1124.99 1224.98C1118.51 1253.45 1073.94 1290.09 1049.61 1305.13C1047.92 1323.64 1049.03 1337.59 1055.16 1354.85C1074.54 1409.37 1153.2 1425.14 1183.34 1371.25C1188.19 1363.69 1193.16 1338.26 1204.52 1336.92C1251.43 1331.36 1230.14 1377.14 1222.09 1393.5C1218.82 1398.32 1215.49 1403.1 1212.1 1407.85C1204.3 1416.7 1197.47 1423.7 1187.53 1430.28C1162.35 1446.64 1131.66 1452.24 1102.33 1445.82C1068.71 1438.67 1043.66 1420.26 1025.24 1391.83C1022.02 1396.68 1018.58 1401.39 1014.95 1405.95C976.957 1452.96 900.246 1463.44 853.125 1423.19C836.707 1409.17 801.212 1363.31 820.912 1342.47C825.043 1338.19 830.733 1335.76 836.686 1335.74C859.413 1335.47 858.082 1359.11 868.223 1374.51C881.403 1394.52 901.834 1405.26 925.631 1404.52C945.878 1403.76 965.033 1395.14 979.026 1380.49C998.805 1359.37 1001.46 1332.98 1000.38 1305.27Z"/><path fill="#000101" d="M1624.21 449.829L1625.7 449.272C1647.67 440.956 1688 413.103 1699.9 452.296C1715.58 505.64 1711.68 564.931 1706.73 619.634C1703.04 660.511 1695.98 702.394 1681.65 740.919C1678.86 748.428 1669.64 758.348 1660.82 752.378C1642.8 740.192 1631.59 717.162 1616.19 701.655C1586.39 666.984 1560.24 642.88 1523.63 615.627C1511.34 606.482 1481.02 589.323 1475.3 577.614C1473.7 574.331 1475.91 565.385 1478.34 562.333C1508.59 524.273 1569.35 480.654 1610.2 457.474C1610.45 452.563 1610.43 452.948 1613.34 450.162C1617.48 448.719 1619.7 449.369 1624.21 449.829Z"/><path fill="#F6F7F3" d="M1610.2 457.474C1610.45 452.563 1610.43 452.948 1613.34 450.162C1617.48 448.719 1619.7 449.369 1624.21 449.829C1619.56 452.429 1614.95 455.063 1610.2 457.474Z"/><path fill="#000101" d="M456.417 676.829C443.619 685.481 413.005 728.785 399.997 742.767C395.234 747.886 388.832 753.46 381.409 753.445C377.958 753.438 374.996 752.089 372.662 749.556C367.321 743.763 365.072 733.24 362.758 725.767C345.131 668.852 337.128 591.626 338.902 532.143C339.622 508.003 341.548 452.929 359.804 436.718C364.616 432.445 369.823 431.107 376.144 431.753C425.48 436.789 534.962 517.311 566.376 555.407C570.776 560.743 575.992 568.774 574.942 576.079C574.366 580.085 571.023 583.486 568.199 586.117C560.973 592.847 551.962 598.125 543.813 603.663C531.811 611.819 520.146 620.108 508.868 629.246C496.83 638.067 465.787 665.076 456.417 676.829Z"/><path fill="#000101" d="M1524.21 1301.86C1461.56 1302.39 1400.15 1316.45 1339.04 1327.87C1320.6 1331.32 1307.42 1304.65 1321.48 1291.52C1329.86 1283.56 1352.86 1281.62 1364.09 1278.51C1449.86 1261.16 1537.45 1252.83 1624.92 1259.72C1647.03 1261.46 1659.38 1280.32 1642.32 1298.93C1637.2 1304.52 1624.69 1303.03 1617.28 1302.9C1616.5 1302.99 1615.71 1303.07 1614.93 1303.14C1603.47 1304.19 1529.59 1306.29 1524.21 1301.86Z"/><path fill="#F6F7F3" d="M1524.21 1301.86C1533.22 1299.82 1606.62 1300.6 1617.28 1302.9C1616.5 1302.99 1615.71 1303.07 1614.93 1303.14C1603.47 1304.19 1529.59 1306.29 1524.21 1301.86Z"/><path fill="#000101" d="M474.467 1257.45C524.813 1256.06 575.514 1260.93 625.315 1267.95C641.308 1270.21 720.875 1280.83 729.854 1293.59C733.596 1298.9 734.457 1305.22 733.309 1311.55C732.347 1316.85 729.694 1321.31 725.046 1324.16C710.884 1332.85 682.025 1322.32 666.235 1319.06C658.128 1318.42 634.832 1313.12 624.61 1311.49C596.434 1307.18 568.095 1304 539.663 1301.98C513.279 1300.51 486.842 1300.23 460.433 1301.16C447.122 1301.64 428.51 1303.5 415.889 1302.89L414.387 1302.81C379.405 1283.46 407.455 1253.79 438.279 1258.83C442.994 1259.6 467.842 1257.69 474.467 1257.45Z"/><path fill="#000101" d="M703.555 1368.35C742.663 1361.93 738.888 1407.2 718.435 1409.91C667.675 1416.64 619.031 1425.23 569.822 1441.59C540.527 1451.33 511.672 1460.35 483.461 1474.34C459.604 1481.57 443.164 1460.37 457.745 1439.91C462.508 1433.22 476.188 1429.6 484.075 1426.25C554.356 1396.43 627.901 1378 703.555 1368.35Z"/><path fill="#000101" d="M1331.49 1368.01C1345.35 1365.95 1397.49 1376.19 1412.03 1379.16C1430.77 1382.97 1449.37 1387.38 1467.82 1392.39C1503.27 1402.19 1538.7 1415.32 1572.85 1429C1580.24 1432.34 1589.03 1434.94 1593.33 1442.38C1601.48 1456.5 1595.66 1468.8 1582.11 1475.92C1568.18 1477.15 1539.81 1462.74 1525.39 1457.21C1496.99 1446.34 1467.99 1437.12 1438.53 1429.6C1419.44 1424.77 1400.02 1420.3 1380.47 1416.85C1364.22 1413.99 1344.54 1413.92 1328.82 1409.15C1324.08 1407.5 1319.09 1403.31 1317.42 1398.47C1312.52 1384.31 1318.32 1373.23 1331.49 1368.01Z"/></svg>