<?xml version="1.0" encoding="UTF-8"?>
<svg width="513px" height="512px" viewBox="0 0 513 512" version="1.1" xmlns="http://www.w3.org/2000/svg" xmlns:xlink="http://www.w3.org/1999/xlink">
    <title>logo</title>
    <g id="页面-1" stroke="none" stroke-width="1" fill="none" fill-rule="evenodd">
        <g id="桌面端备份" transform="translate(-122.000000, -202.000000)" fill-rule="nonzero">
            <g id="logo" transform="translate(122.322904, 202.000000)">
                <polygon id="路径" fill="#FFFFFF" points="499.977284 253.586284 499.943459 251.143332 499.885627 248.703202 499.803828 246.263072 499.698061 243.822942 499.568288 241.385634 499.414548 238.949756 499.238232 236.516662 499.036518 234.084998 498.810837 231.654726 498.561187 229.228142 498.287532 226.803965 497.98848 224.383025 497.665497 221.96547 497.318509 219.551001 496.946123 217.140784 496.551199 214.734217 496.129448 212.332165 495.685159 209.934327 495.215472 207.541305 494.721817 205.153362 494.202764 202.770499 493.661136 200.393017 493.09411 198.021291 492.503117 195.65536 491.888155 193.295487 491.247796 190.941934 490.584861 188.594741 489.897959 186.254621 489.187088 183.921274 488.45225 181.594964 487.694836 179.276253 486.913416 176.964917 486.109459 174.661446 485.281495 172.365875 484.430994 170.078357 483.557918 167.799154 482.662265 165.528567 481.744037 163.266183 480.820165 161.049741 479.858215 158.805681 478.87512 156.571328 477.869448 154.346871 476.842631 152.132837 475.794631 149.929112 474.724092 147.736073 473.63237 145.553908 472.518109 143.383181 471.384095 141.223742 470.227506 139.075892 469.04834 136.940007 467.849421 134.816237 466.627927 132.704734 465.385286 130.605798 464.122892 128.519692 462.837959 126.446568 461.531843 124.386574 460.205974 122.340127 458.858996 120.307036 457.490834 118.287943 456.102919 116.282809 454.693858 114.291784 453.265043 112.315133 451.816475 110.353005 450.346761 108.405552 448.858722 106.472886 447.35093 104.555195 445.823385 102.652742 444.277515 100.765453 442.711892 98.8936283 441.127907 97.0373054 439.525598 95.1965974 437.903573 93.3716548 436.264616 91.5625527 434.60869 89.7693665 432.93444 87.992209 431.241866 86.2311932 429.525325 84.4775897 428.546443 83.4934406 426.81154 81.7746036 425.059742 80.0728489 423.292405 78.3882893 421.509566 76.7211507 419.709796 75.0718092 417.894485 73.4403025 416.063673 71.8268563 414.217359 70.2318846 412.354112 68.6555378 410.476757 67.0978159 408.583899 65.5592457 406.674109 64.0397144 404.75164 62.5396734 402.812238 61.0592356 400.858727 59.598401 398.891106 58.1576212 396.909375 56.7368584 394.912143 55.3363762 392.902192 53.956212 390.87674 52.5966293 388.838608 51.2578163 386.786366 49.9397353 384.721406 48.6424991 382.642336 47.3664465 380.552017 46.1113892 378.447587 44.8776284 376.330477 43.6652015 374.20208 42.4741839 372.060965 41.3046132 369.908562 40.1564894 367.744871 39.0300759 365.568501 37.9252598 363.382272 36.8420035 361.184755 35.7804574 358.975951 34.7405087 356.757288 33.7224209 354.52873 32.7259304 352.279026 31.746334 351.003952 31.2022978 348.749996 30.2620584 346.489004 29.3439807 344.218116 28.4481778 341.940193 27.5749505 339.652411 26.7244494 337.357556 25.8969379 335.054234 25.0922654 332.742447 24.3109964 330.423624 23.5528675 328.097727 22.818443 325.764794 22.107422 323.424787 21.420256 321.077744 20.7569073 318.725057 20.117564 316.365334 19.5020381 313.998575 18.9107435 311.627565 18.3437177 309.249518 17.8009607 306.867219 17.2824726 304.479277 16.7882534 302.085691 16.3185664 299.689282 15.8732611 297.285838 15.4523752 294.879571 15.0560215 292.469091 14.6840872 290.055751 14.3365346 287.636767 14.0135519 285.216391 13.7148004 282.7918 13.4404683 280.36435 13.1905179 277.935508 12.9646858 275.502414 12.7631226 273.069321 12.5856778 270.632013 12.4322008 268.194705 12.3025788 265.756005 12.1969246 263.315875 12.1149749 260.874315 12.0565791 258.431363 12.0217373 256.027919 12.0101485 253.586359 12.0215492 251.143407 12.0562405 248.703277 12.1143352 246.263147 12.1961344 243.823017 12.3016381 241.385709 12.4309591 238.950396 12.5841351 236.516323 12.7614295 234.084509 12.9628421 231.655102 13.1883732 229.228217 13.4381731 226.804191 13.7122042 224.3831 14.0106547 221.965395 14.3335245 219.551227 14.6807761 217.14086 15.052447 214.734443 15.4486502 212.332278 15.8692727 209.93459 16.314277 207.541568 16.7838511 205.153513 17.277807 202.77065 17.7960317 200.393167 18.3386381 198.021442 18.9055134 195.65551 19.4966576 193.295637 20.1117696 190.942085 20.7511128 188.595042 21.4143487 186.254772 22.1014018 183.921425 22.8121218 181.595265 23.5465463 179.276441 24.3044119 176.965218 25.0856809 174.661634 25.89009 172.366063 26.7176015 170.078658 27.5679897 167.799455 28.4410665 165.528869 29.3367189 163.266296 30.2550975 161.050268 31.1794963 158.806057 32.1413332 156.571704 33.1246921 154.34736 34.129799 152.133175 35.1565033 149.92945 36.2050683 147.736411 37.2751931 145.554397 38.3670282 143.383519 39.4804607 141.22393 40.615453 139.076193 41.7721932 136.940308 42.9503426 134.816388 44.1497885 132.704884 45.3708317 130.606099 46.6130584 128.519843 47.8765816 126.446718 49.1611001 124.386875 50.4666516 122.340277 51.793048 120.307337 53.140327 118.288244 54.5080745 116.282959 55.8964035 114.292085 57.3052011 112.315396 58.7340159 110.353269 60.1829982 108.405815 61.6517343 106.473187 63.1402241 104.555533 64.6481666 102.653006 66.1755618 100.765754 67.7218829 98.8938917 69.2872053 97.0375688 70.871303 95.1968608 72.4738753 93.3719181 74.0946585 91.5628161 75.7336152 89.7696299 77.3903691 87.99251 79.0647319 86.2314566 80.7564781 84.4779659 82.4740358 83.4938921 83.4524657 81.7750927 85.1874067 80.073338 86.9385645 78.3888161 88.7058639 76.7216398 90.4892673 75.0722231 92.2886242 73.4407164 94.1039345 71.8274207 95.9350479 70.232449 97.7818513 68.6559516 99.6442696 67.0983803 101.522152 65.5596972 103.415386 64.040354 105.323859 62.5401625 107.247457 61.0597247 109.18588 59.5990407 111.139279 58.1581103 113.107163 56.7374604 115.089458 55.3368653 117.086127 53.9568516 119.096905 52.597269 121.121642 51.2583055 123.160075 49.9402244 125.212054 48.6431388 127.277428 47.3669356 129.355782 46.1120289 131.447269 44.878268 133.551284 43.6658411 135.667829 42.4747107 137.796678 41.30514 139.937492 40.1571667 142.090159 39.0306027 144.254414 37.9257866 146.43007 36.8425302 148.61675 35.7809842 150.814267 34.741186 153.022507 33.7229852 155.241056 32.7266453 157.469727 31.746936 159.719732 31.2028998 160.995522 30.2626604 163.248462 29.3445828 165.510168 28.4487798 167.780491 27.5755525 170.059393 26.7251643 172.34646 25.8975023 174.64173 25.0929803 176.9449 24.3115608 179.255973 23.5535824 181.574533 22.8190074 183.900542 22.1081369 186.233626 21.4209709 188.573746 20.7576222 190.920638 20.1180908 193.27404 19.5026778 195.633763 18.9113831 197.999581 18.3443573 200.371457 17.8014498 202.748826 17.2829617 205.131539 16.788893 207.519594 16.319206 209.912616 15.8739007 212.310304 15.4530148 214.712469 15.0566611 217.119036 14.6847268 219.529517 14.3371742 221.943835 14.0141915 224.361691 13.71544 226.782782 13.4411079 229.207109 13.1911575 231.634559 12.9653255 234.063401 12.7637623 236.496494 12.5863174 238.929588 12.4328404 241.366896 12.3032184 243.804204 12.1975642 246.242904 12.1156145 248.683034 12.0572188 251.124594 12.022377 253.567546 12.0107881 255.97099 12.0221888 258.41255 12.0567673 260.855502 12.1150125 263.295632 12.1968117 265.735762 12.3023154 268.175892 12.4316364 270.6132 12.5848124 273.049078 12.7621067 275.482172 12.9633689 277.913836 13.1888999 280.344107 13.4386998 282.770128 13.7129191 285.194718 14.0113696 287.615094 14.3340889 290.034078 14.6813405 292.447418 15.0531619 294.857899 15.4492146 297.264165 15.8698371 299.666217 16.3149919 302.064056 16.7843779 304.457642 17.2783337 306.845584 17.7966713 309.227883 18.3391273 311.60593 18.9060026 313.97694 19.4971467 316.343699 20.1122587 318.703422 20.751602 321.057539 21.4146497 323.404582 22.1017028 325.744589 22.8125734 328.077522 23.5468473 330.403419 24.3047129 332.722242 25.0859819 335.034029 25.890391 337.33735 26.7179025 339.633636 27.5682907 341.920025 28.4413675 344.199341 29.3371704 346.470228 30.2553985 348.732613 31.1799855 350.948491 32.1418223 353.192551 33.1251813 355.428145 34.1302881 357.652489 35.1569924 359.865545 36.2055574 362.070136 37.2756823 364.263438 38.3675174 366.445453 39.4809499 368.61618 40.6160926 370.775619 41.7726823 372.922378 42.9508318 375.059279 44.1504657 377.183462 45.3713961 379.294965 46.6136228 381.393751 47.877146 383.479856 49.1616645 385.551852 50.467216 387.61256 51.7938006 389.659158 53.1409666 391.691684 54.5088646 393.711493 55.8971936 395.715799 57.3058408 397.707388 58.734806 399.683475 60.1836379 401.645452 61.6525244 403.593319 63.1410142 405.525684 64.6489567 407.44394 66.176239 409.346693 67.7226731 411.233945 69.2879954 413.105657 70.8720932 414.961829 72.4746654 416.8025 74.0954487 418.627668 75.7344054 420.435905 77.3911592 422.230031 79.0655221 424.007227 80.7572306 425.767528 82.4749012 427.520755 83.4530677 428.50528 85.1881215 430.224644 86.9392794 431.925684 88.7066164 433.609792 90.4900198 435.276968 92.2893767 436.927213 94.1046871 438.557741 95.935838 440.171338 97.7826415 441.766573 99.6450598 443.343484 101.52298 444.900641 103.416214 446.439475 105.324724 447.958555 107.248248 449.459311 109.186821 450.938921 111.140106 452.400169 113.107991 453.841664 115.090399 455.262013 117.087067 456.662608 119.097845 458.042057 121.122432 459.401753 123.160978 460.740302 125.212957 462.059098 127.27818 463.356748 129.356685 464.631823 131.448021 465.887143 133.552037 467.121318 135.668732 468.332917 137.797431 469.524763 139.938395 470.694032 142.090911 471.842156 144.255166 472.969134 146.430822 474.073536 148.617502 475.156793 150.815019 476.218903 153.023109 477.2584 155.241771 478.276751 157.470442 479.272527 159.720297 480.252801 160.9965 480.797251 163.249327 481.736625 165.511034 482.654853 167.781357 483.550505 170.060108 484.423582 172.347326 485.274083 174.642595 486.102046 176.945766 486.907434 179.256838 487.687423 181.575398 488.446267 183.901408 489.181105 186.234491 489.891976 188.574611 490.578879 190.921353 491.241813 193.274905 491.882173 195.634628 492.497134 198.000559 493.088128 200.372134 493.655154 202.749617 494.198174 205.132329 494.717226 207.520384 495.210881 209.913256 495.680568 212.311094 496.126287 214.713259 496.546609 217.119827 496.942963 219.530307 497.315348 221.944626 497.662337 224.36233 497.985319 226.783572 498.284372 229.207899 498.558027 231.635048 498.809068 234.064605 499.03475 236.496683 499.236463 238.930905 499.41278 241.367235 499.56652 243.804543 499.696292 246.244673 499.80206 248.684803 499.883859 251.126362 499.943082 253.569314 499.976908 255.971367 499.988196 258.412926 499.976908 260.855878 499.943082 263.296008 499.883859 265.736138 499.803452 268.176268 499.697685 270.613576 499.567912 273.049454 499.414172 275.482548 499.237856 277.914212 499.036142 280.344484 498.81046 282.770504 498.560811 285.195094 498.287156 287.61547 497.988104 290.034454 497.665121 292.447794 497.318133 294.858275 496.945747 297.264541 496.550823 299.666594 496.129072 302.064432 495.684782 304.458018 495.215095 306.845961 494.721441 309.228259 494.202388 311.606306 493.66076 313.977317 493.093734 316.344076 492.50274 318.703799 491.887779 321.057915 491.24742 323.404958 490.584485 325.744965 489.897582 328.077898 489.186712 330.403795 488.451873 332.722618 487.694459 335.034405 486.91304 337.337727 486.109082 339.634012 485.281119 341.920401 484.430618 344.199717 483.557541 346.470605 482.661889 348.732989 481.743661 350.948867 480.819789 353.192927 479.857839 355.428521 478.874743 357.651436 477.869072 359.865884 476.842255 362.070474 475.794254 364.262347 474.723716 366.445791 473.631994 368.616518 472.517733 370.775957 471.383719 372.922716 470.22713 375.059617 469.047964 377.182408 467.849045 379.293912 466.62755 381.392697 465.38634 383.480195 464.122553 385.552191 462.837621 387.612899 461.531505 389.659497 460.205635 391.692023 458.858657 393.711831 457.490496 395.716138 456.102581 397.707727 454.69352 399.683814 453.264705 401.645791 451.816136 403.593658 450.346422 405.526023 448.858384 407.444278 447.350592 409.347032 445.823046 411.234284 444.277176 413.105995 442.711553 414.962168 441.127568 416.802838 439.525259 418.628007 437.903234 420.436243 436.264278 422.23037 434.608352 424.007565 432.934102 425.767866 431.241528 427.521093 429.524986 428.505619 428.546105 430.224983 426.811201 431.926022 425.059404 433.61013 423.292067 435.277307 421.509228 436.927551 419.709457 438.55808 417.894147 440.171676 416.063334 441.766911 414.21702 443.343823 412.353774 444.90098 410.476418 446.439814 408.58356 447.958893 406.673771 449.459649 404.751301 450.939259 402.8119 452.400508 400.858388 453.842003 398.890768 455.262351 396.909037 456.662947 394.911804 458.042396 392.901854 459.402091 390.876401 460.740641 388.838269 462.059437 386.786027 463.357087 384.721067 464.632161 382.641998 465.887482 380.551678 467.121657 378.447248 468.334648 376.330139 469.525101 374.201741 470.694371 372.060626 471.842495 369.908223 472.969473 367.744533 474.073875 365.568162 475.157131 363.381933 476.219242 361.184417 477.258739 358.975612 478.27709 356.75695 479.272866 354.528391 480.253139 352.278687 480.797589 351.003613 481.736963 348.749657 482.655191 346.488665 483.550844 344.217778 484.423921 341.939854 485.274422 339.652072 486.102385 337.357217 486.907772 335.053896 487.687762 332.742108 488.446606 330.424677 489.181444 328.097388 489.892315 325.764455 490.579217 323.424448 491.242152 321.077405 491.882511 318.724719 492.497473 316.364996 493.088466 313.998237 493.655492 311.627226 494.198513 309.249179 494.717565 306.866881 495.21122 304.478938 495.680907 302.085352 496.126626 299.687514 496.546948 297.285462 496.943301 294.879195 497.315687 292.468715 497.662675 290.053982 497.985658 287.636428 498.28471 285.216052 498.558365 282.791462 498.809407 280.364012 499.035088 277.93517 499.236802 275.502076 499.413118 273.068982 499.566859 270.633104 499.696631 268.194404 499.802398 265.755704 499.884197 263.315574 499.942029 260.874014 499.977284 258.431062 499.988572 256.027618 499.988572 255.971178"></polygon>
                <path d="M28.525349,255.999586 C28.525349,130.368866 130.369167,28.525048 255.999887,28.525048 C381.630607,28.525048 483.474425,130.368866 483.474425,255.999586 C483.474425,381.630306 381.630607,483.474124 255.999887,483.474124 C130.369167,483.474124 28.525349,381.630306 28.525349,255.999586 Z M215.939645,200.223398 C215.939645,192.144202 215.554918,183.680317 214.016047,175.601121 C212.861865,169.445561 212.092449,163.290001 210.938267,157.134403 C208.629941,145.977465 206.321578,135.205179 202.474344,124.817657 C199.011837,115.969044 194.779913,107.889848 189.009042,100.580107 C184.392354,94.809274 178.621521,90.9620396 172.081234,88.2689869 C160.924295,84.0370629 150.152009,84.0370629 139.379798,87.8842597 C123.221444,93.6550924 112.064468,104.042614 108.217233,120.970423 C107.832506,122.894021 107.063052,124.817657 106.678324,126.741255 C105.908908,134.820451 104.369999,142.89961 103.985234,150.978806 C103.600507,161.751054 103.600507,172.523265 103.600507,183.295552 C103.600507,186.758059 103.985234,190.605293 104.369924,194.45249 C106.678249,209.4567 108.601848,224.460873 110.910211,239.465083 C113.603301,257.547036 116.296316,275.629026 118.604642,293.326289 C122.067149,317.179112 125.914384,340.647208 130.531072,363.730577 C133.993579,379.888931 137.071359,395.662596 142.842192,411.051496 C144.381101,415.28342 146.304699,419.515419 147.843608,423.362616 C150.536699,429.518176 154.768623,433.750137 160.539455,436.827917 C170.926977,442.59875 181.699226,446.061257 193.240891,447.984855 C198.626997,449.139037 204.397829,448.754296 209.783973,448.369583 C212.861752,448.369583 215.554805,447.215401 218.247896,446.061257 C224.018728,443.752932 227.096508,439.52097 226.711819,432.980683 C226.711819,432.211266 226.711819,431.441774 226.711819,430.672357 C226.327092,425.670941 227.096546,420.284836 228.250728,415.28342 C230.943818,403.741717 233.636833,392.200051 235.945159,380.658348 C239.022939,366.423592 242.100719,352.188836 247.102097,338.723572 C252.87293,322.565218 259.797944,306.791553 268.646557,292.172108 C276.725753,279.091534 285.959093,267.165103 295.961887,255.623438 C305.964681,244.466499 316.73693,234.463667 328.663323,225.615055 C342.128624,215.61226 356.36338,208.302519 372.521735,204.455284 C377.138423,203.685868 381.370347,202.916376 385.987036,202.531686 C394.450959,200.992777 402.914845,200.992777 411.378768,202.531686 C415.610692,203.685868 420.227381,204.070595 424.459342,204.840012 C429.460758,205.609428 434.077409,204.840012 438.694098,203.68583 C446.00384,201.762232 447.542711,196.760816 442.926022,190.989983 C438.309333,185.21915 432.5385,181.371916 425.613486,179.063553 C410.609276,173.677447 394.835649,170.599629 379.062022,169.445485 C368.289773,168.676069 357.517562,169.445485 346.745275,171.369084 C320.584127,175.601008 296.346577,185.60384 274.417352,200.99274 C259.028414,211.764988 246.332567,225.23029 234.406175,239.849773 C232.097849,242.927553 229.404759,246.39006 227.096433,249.46784 C225.557524,251.391438 224.018653,253.699764 222.479744,255.6234 C220.940836,257.546998 219.401964,258.31649 219.017237,257.546998 C218.24782,256.777582 217.863056,255.6234 217.478328,254.853908 C216.324147,241.388607 215.55473,227.923305 215.93942,214.458004 C215.93942,209.841315 215.93942,204.839936 215.93942,200.223248 L215.939645,200.223398 Z M255.971103,0 L258.487388,0.0115888487 L261.043181,0.0475594309 L263.600403,0.108062251 L266.157626,0.193398319 L268.713419,0.303567633 L271.267781,0.438683074 L273.822144,0.598895144 L276.375115,0.784504853 L278.925264,0.995211193 L281.47402,1.23146568 L284.021347,1.49308017 L286.56446,1.78039332 L289.106142,2.09321698 L291.643574,2.43173929 L294.17822,2.79592262 L296.710045,3.18576697 L299.236188,3.60142286 L301.759547,4.04262688 L304.277262,4.50979294 L306.790763,5.00246951 L309.298582,5.5208071 L311.802188,6.06469284 L314.298719,6.6342396 L316.791037,7.229184 L319.274888,7.84963892 L321.754525,8.49534097 L324.225697,9.16617728 L326.689795,9.86226072 L329.148286,10.5831398 L331.596882,11.3290026 L334.039834,12.0995482 L336.472928,12.894626 L338.898948,13.7141231 L341.316502,14.5578891 L343.724198,15.425623 L346.123428,16.3172118 L348.514193,17.2324675 L350.895062,18.1711266 L353.266072,19.1330763 L355.627225,20.118166 L356.988313,20.6977214 L359.322638,21.7137022 L361.658393,22.7574511 L363.98429,23.8241895 L366.300291,24.9139176 L368.605005,26.0266352 L370.89843,27.1621919 L373.180606,28.3207757 L375.452885,29.5021986 L377.711055,30.7063101 L379.959367,31.9332983 L382.193569,33.182975 L384.416484,34.4552274 L386.625288,35.7500555 L388.821413,37.0671582 L391.003427,38.4065357 L393.172762,39.7680749 L395.327987,41.1517383 L397.469102,42.5571119 L399.596107,43.9842335 L401.70761,45.4330653 L403.805004,46.9030807 L405.886858,48.3945053 L407.95321,49.9068124 L410.00406,51.4398515 L412.039407,52.9936603 L414.059216,54.5677495 L416.063522,56.1620064 L418.049467,57.7762803 L420.021302,59.4101951 L421.974813,61.0635626 L423.912823,62.7361194 L425.8339,64.4277151 L427.738046,66.1379356 L429.62383,67.8666306 L431.494112,69.6133862 L433.34607,71.3781647 L435.181097,73.1604393 L436.997799,74.9600596 L438.040156,76.0083236 L439.821603,77.8263807 L441.594584,79.6706255 L443.349203,81.5321408 L445.085499,83.4109265 L446.804862,85.3068696 L448.50451,87.2198198 L450.184366,89.1496641 L451.847328,91.0962521 L453.489145,93.059546 L455.112599,95.0392073 L456.7163,97.0352736 L458.298856,99.0474815 L459.861657,101.075643 L461.403312,103.119607 L462.925214,105.179224 L464.42597,107.254192 L465.90558,109.344399 L467.364007,111.449544 L468.801287,113.569513 L470.215992,115.704006 L471.609551,117.852872 L472.981927,120.015697 L474.331764,122.192218 L475.659026,124.382548 L476.96375,126.58601 L478.24586,128.802453 L479.505395,131.031838 L480.742392,133.273491 L481.956813,135.527559 L483.148658,137.79348 L484.317928,140.071253 L485.46466,142.360164 L486.587386,144.660362 L487.687574,146.971133 L488.765186,149.292628 L489.818793,151.62432 L490.849862,153.966019 L491.858355,156.317276 L492.828771,158.640314 L493.790721,161.010497 L494.730095,163.390801 L495.646893,165.780324 L496.538294,168.17914 L497.407156,170.586987 L498.252051,173.003714 L499.07294,175.428755 L499.86847,177.862414 L500.639993,180.303823 L501.387549,182.753246 L502.108278,185.210308 L502.805076,187.674406 L503.477869,190.145841 L504.123872,192.623935 L504.745907,195.108652 L505.341115,197.59969 L505.912355,200.096523 L506.456805,202.599112 L506.977288,205.107232 L507.470942,207.620432 L507.937808,210.138561 L508.380705,212.661205 L508.796812,215.188063 L509.188914,217.719173 L509.554226,220.25367 L509.892748,222.791853 L510.207303,225.333122 L510.49503,227.877062 L510.757397,230.423825 L510.995759,232.97213 L511.20733,235.523671 L511.393504,238.076641 L511.554281,240.631004 L511.691089,243.185367 L511.802538,245.74259 L511.888589,248.298382 L511.950635,250.856997 L511.98732,253.414219 L512,255.971442 L512,256.027881 L511.98732,258.487765 L511.95229,261.043482 L511.891637,263.600704 L511.807016,266.157927 L511.695567,268.71372 L511.56158,271.268082 L511.400804,273.822445 L511.21463,276.375416 L511.004488,278.925565 L510.768948,281.474321 L510.506581,284.021648 L510.218854,286.564761 L509.907159,289.106443 L509.568637,291.643875 L509.203325,294.178521 L508.814007,296.710346 L508.3979,299.236489 L507.956432,301.759848 L507.489567,304.277563 L506.997305,306.791064 L506.478252,309.298883 L505.935232,311.802489 L505.365384,314.29902 L504.770176,316.791338 L504.149571,319.275189 L503.504998,321.754826 L502.833597,324.225998 L502.136799,326.690096 L501.41607,329.148587 L500.671336,331.597183 L499.899812,334.040135 L499.105713,336.473229 L498.286216,338.899249 L497.441321,341.316803 L496.57385,343.724499 L495.68245,346.123729 L494.767043,348.514494 L493.829099,350.895363 L492.867149,353.266373 L491.881232,355.627526 L491.301526,356.988614 L490.285959,359.322939 L489.24221,361.658694 L488.175886,363.984591 L487.085593,366.300592 L485.972725,368.605306 L484.837281,370.898731 L483.6793,373.182299 L482.497312,375.453186 L481.292749,377.711356 L480.065648,379.959668 L478.815971,382.19387 L477.543719,384.416785 L476.248891,386.625589 L474.931525,388.821714 L473.592975,391.005158 L472.231888,393.173063 L470.848224,395.328288 L469.441947,397.469403 L468.014525,399.596408 L466.565956,401.707911 L465.096242,403.805305 L463.605382,405.887159 L462.091946,407.953511 L460.558756,410.004361 L459.005813,412.039709 L457.431724,414.059517 L455.836489,416.063823 L454.222892,418.049768 L452.589542,420.021603 L450.935045,421.975114 L449.263617,423.913124 L447.571043,425.834201 L445.861538,427.736955 L444.132278,429.624206 L442.386087,431.494488 L440.621572,433.346446 L438.838733,435.181473 L437.038962,436.998175 L435.990961,438.040532 L434.172829,439.821979 L432.327907,441.59496 L430.467483,443.349579 L428.588735,445.085875 L426.691663,446.803846 L424.779051,448.504886 L422.849508,450.184743 L420.903033,451.847705 L418.939626,453.489521 L416.959325,455.112976 L414.963485,456.715285 L412.952142,458.299269 L410.923868,459.862071 L408.880092,461.403726 L406.819384,462.925628 L404.744566,464.426384 L402.654246,465.905994 L400.549817,467.364421 L398.429847,468.801701 L396.295806,470.216406 L394.146225,471.609965 L391.983964,472.982341 L389.807593,474.332178 L387.617113,475.658048 L385.413952,476.964164 L383.196682,478.246274 L380.968124,479.505809 L378.725456,480.742806 L376.4715,481.957227 L374.206294,483.149072 L371.92837,484.318342 L369.639159,485.465073 L367.33866,486.5878 L365.028265,487.687988 L362.706619,488.7656 L360.375078,489.819207 L358.03368,490.850276 L355.682423,491.858769 L353.359385,492.829185 L350.988374,493.791134 L348.608898,494.730508 L346.218133,495.647307 L343.820295,496.540137 L341.412599,497.407608 L338.995045,498.252503 L336.570454,499.073392 L334.137361,499.868921 L331.695801,500.640445 L329.245813,501.388001 L326.788751,502.10873 L324.324654,502.805528 L321.853482,503.478321 L319.375275,504.124324 L316.889993,504.746359 L314.399068,505.341567 L311.902537,505.912807 L309.400324,506.457257 L306.892504,506.977739 L304.379003,507.471394 L301.861288,507.938259 L299.337929,508.381156 L296.810356,508.797264 L294.279961,509.189366 L291.745315,509.554678 L289.207883,509.8932 L286.666201,510.207754 L284.121696,510.495481 L281.575761,510.757849 L279.027005,510.99621 L276.475464,511.207782 L273.922493,511.393956 L271.36813,511.554732 L268.813767,511.691541 L266.256545,511.80299 L263.700752,511.889041 L261.14353,511.951086 L258.584915,511.987772 L256.027693,512.000452 L253.5128,511.987772 L250.955577,511.952516 L248.398355,511.891862 L245.842562,511.807241 L243.28534,511.695793 L240.73109,511.561806 L238.17699,511.40103 L235.624584,511.214856 L233.073871,511.004714 L230.525002,510.769174 L227.978503,510.506807 L225.434412,510.21908 L222.893293,509.907385 L220.35511,509.568863 L217.820463,509.203551 L215.289503,508.814233 L212.762495,508.398126 L210.2397,507.956658 L207.721571,507.489793 L205.208221,506.99753 L202.69995,506.478478 L200.196909,505.935458 L197.699926,505.36561 L195.208587,504.770402 L192.723757,504.149797 L190.245098,503.505223 L187.773513,502.833823 L185.3087,502.137024 L182.851338,501.416296 L180.401463,500.671562 L177.959489,499.900038 L175.525567,499.105938 L173.099961,498.286441 L170.682821,497.441546 L168.27441,496.574076 L165.875029,495.682675 L163.484678,494.767269 L161.10381,493.829325 L158.732648,492.867375 L156.371082,491.881458 L155.01037,491.301752 L152.675895,490.286185 L150.339989,489.242436 L148.014243,488.176111 L145.698655,487.085819 L143.393942,485.972951 L141.099952,484.837507 L138.817362,483.678096 L136.546362,482.497538 L134.287063,481.292975 L132.03988,480.065874 L129.804963,478.816197 L127.582764,477.543945 L125.373545,476.249117 L123.177308,474.931751 L120.994616,473.593201 L118.825583,472.230683 L116.670508,470.848412 L114.529544,469.442136 L112.40299,468.014713 L110.29111,466.566145 L108.194093,465.09643 L106.112202,463.60557 L104.045511,462.092134 L101.994398,460.558944 L99.9590122,459.006001 L97.9393919,457.431912 L95.9359885,455.836677 L93.9487268,454.22308 L91.9779076,452.58973 L90.0236063,450.935233 L88.086011,449.263805 L86.1653098,447.571231 L84.2614652,445.861726 L82.3748157,444.132466 L80.5052108,442.386275 L78.6529892,440.62176 L76.8181132,438.838921 L75.0008463,437.03915 L73.9583767,435.99115 L72.1772308,434.173017 L70.4047014,432.329525 L68.6499315,430.467671 L66.913335,428.588923 L65.1949495,426.693243 L63.495189,424.77924 L61.8142039,422.849696 L60.15222,420.903221 L58.5097265,418.939814 L56.8866857,416.960906 L55.2835491,414.963673 L53.7002791,412.95233 L52.1374777,410.924056 L50.5951449,408.88028 L49.0735441,406.821002 L47.5727882,404.744754 L46.0930653,402.654434 L44.6347517,400.550005 L43.1977344,398.430036 L41.7824651,396.295994 L40.3890566,394.146413 L39.0175088,391.984152 L37.6681228,389.807782 L36.340861,387.617301 L35.0358739,385.414141 L33.7534624,383.19687 L32.4936266,380.968312 L31.2563665,378.725644 L30.041795,376.471688 L28.8499496,374.206482 L27.6810938,371.928559 L26.5350771,369.639347 L25.4118994,367.338848 L24.3117113,365.028453 L23.2345504,362.706807 L22.1803791,360.375267 L21.1490468,358.033868 L20.1408546,355.682611 L19.1710034,353.359573 L18.2084893,350.988563 L17.2689648,348.609086 L16.3528814,346.218322 L15.4604648,343.820483 L14.5918655,341.412787 L13.7472717,338.995233 L12.9267963,336.570643 L12.1308531,334.137549 L11.3593293,331.695989 L10.6126387,329.246001 L9.89063083,326.788939 L9.19371961,324.324842 L8.52190502,321.85367 L7.87518707,319.375463 L7.25371624,316.890181 L6.65779356,314.399256 L6.0872309,311.902725 L5.54221637,309.400512 L5.02286287,306.892692 L4.52905752,304.379191 L4.06106368,301.860084 L3.61858037,299.338155 L3.20190859,296.810582 L2.81108595,294.280187 L2.44577384,291.74554 L2.10627325,289.208109 L1.79243368,286.666426 L1.50414225,284.121922 L1.24136135,281.575987 L1.00412859,279.02723 L0.792255837,276.47569 L0.605780726,273.922719 L0.444439872,271.368356 L0.308308526,268.813993 L0.197160932,266.256771 L0.110846585,263.700978 L0.0493654853,261.143756 L0.0124166236,258.585141 L0,256.027919 L0.0115888487,253.511633 L0.0475594309,250.955841 L0.108062251,248.398618 L0.193398319,245.841396 L0.303567633,243.285603 L0.438683074,240.73124 L0.598895144,238.176878 L0.784504853,235.623907 L0.995211193,233.073758 L1.23146568,230.524889 L1.49308017,227.97839 L1.78039332,225.434299 L2.09321698,222.89318 L2.43173929,220.355185 L2.79592262,217.820538 L3.18576697,215.289428 L3.60130998,212.762419 L4.04266451,210.239775 L4.50968006,207.721496 L5.00250714,205.208146 L5.52084473,202.699875 L6.06473047,200.196985 L6.63427723,197.699889 L7.22922163,195.20855 L7.84956367,192.723569 L8.49526572,190.245061 L9.16625253,187.773325 L9.86218547,185.308776 L10.583215,182.8513 L11.3290779,180.401575 L12.0996234,177.959451 L12.8947012,175.52553 L13.7140479,173.099924 L14.5578139,170.682783 L15.4255477,168.274372 L16.3171366,165.874841 L17.2323922,163.484641 L18.1710513,161.103772 L19.133001,158.732611 L20.1180908,156.371195 L20.6976461,155.010671 L21.7136269,152.676346 L22.7575263,150.340441 L23.8242648,148.014544 L24.9138423,145.698956 L26.0265599,143.394243 L27.1622671,141.100366 L28.3207005,138.817626 L29.5021234,136.546625 L30.7063854,134.287327 L31.9333735,132.039993 L33.1830503,129.805227 L34.4553027,127.582877 L35.7499802,125.373658 L37.067083,123.177421 L38.4064604,120.994729 L39.7681125,118.825695 L41.1516254,116.670621 L42.556999,114.529657 L43.9842335,112.403103 L45.4329524,110.291186 L46.9030807,108.194244 L48.3943924,106.112239 L49.9066995,104.045662 L51.4398892,101.994548 L52.9935474,99.9591251 L54.5676366,97.9395801 L56.162044,95.9361014 L57.7762051,93.9488773 L59.4101198,91.9780205 L61.0634873,90.0237568 L62.7360442,88.0861615 L64.4276398,86.1654227 L66.1378604,84.2616157 L67.8665554,82.3748909 L69.6134238,80.5053613 L71.3780894,78.6531397 L73.1605145,76.8183014 L74.9601348,75.0009215 L76.0081355,73.9584519 L77.8262678,72.1771556 L79.670475,70.404739 L81.5320279,68.6499691 L83.4107759,66.9133726 L85.3067567,65.1949871 L87.2197069,63.4950761 L89.1495512,61.8142039 L91.0961768,60.15222 L93.0594331,58.5097265 L95.0391697,56.8866857 L97.035236,55.2835491 L99.0474063,53.7004296 L101.075605,52.1374777 L103.11957,50.5951449 L105.179149,49.0735441 L107.254155,47.5727882 L109.344362,46.0930653 L111.449544,44.6347517 L113.569513,43.1978849 L115.703968,41.7826156 L117.852834,40.3890566 L120.01566,39.0175088 L122.192294,37.6681228 L124.382473,36.340861 L126.585935,35.0360244 L128.802528,33.7536129 L131.031801,32.4936266 L133.273603,31.2563665 L135.527672,30.0419455 L137.793593,28.8501001 L140.071216,27.6812443 L142.360277,26.5352276 L144.660325,25.4120499 L146.971246,24.3118618 L149.292741,23.2347009 L151.624432,22.1805296 L153.966132,21.1491973 L156.317389,20.1410051 L158.640013,19.1713044 L161.010196,18.2087903 L163.3905,17.2692658 L165.780136,16.3531824 L168.178952,15.4607658 L170.586799,14.5920537 L173.003375,13.7474599 L175.42853,12.9271349 L177.861887,12.1310412 L180.303447,11.3596679 L182.75287,10.6128268 L185.209781,9.89093184 L187.67403,9.19387012 L190.145464,8.52205553 L192.623559,7.87533757 L195.108276,7.25386675 L197.599201,6.65779356 L200.096184,6.0872309 L202.598773,5.54236688 L205.106894,5.0229005 L207.620094,4.52924565 L210.138223,4.06110131 L212.660867,3.6187685 L215.187875,3.20209672 L217.718684,2.81112358 L220.253331,2.44592434 L222.791514,2.10627325 L225.332783,1.79243368 L227.876874,1.50414225 L230.423486,1.24136135 L232.972356,1.00412859 L235.523332,0.792255837 L238.076002,0.605780726 L240.630101,0.444439872 L243.185029,0.308308526 L245.742251,0.197160932 L248.298044,0.110846585 L250.855266,0.0493654853 L253.413881,0.0124166236 L255.971103,0 Z M256.027919,12.0101485 L253.586359,12.0215492 L251.143407,12.0562405 L248.703277,12.1143352 L246.263147,12.1961344 L243.823017,12.3016381 L241.385709,12.4309591 L238.950396,12.5841351 L236.516323,12.7614295 L234.084509,12.9628421 L231.655102,13.1883732 L229.228217,13.4381731 L226.804191,13.7122042 L224.3831,14.0106547 L221.965395,14.3335245 L219.551227,14.6807761 L217.14086,15.052447 L214.734443,15.4486502 L212.332278,15.8692727 L209.93459,16.314277 L207.541568,16.7838511 L205.153513,17.277807 L202.77065,17.7960317 L200.393167,18.3386381 L198.021442,18.9055134 L195.65551,19.4966576 L193.295637,20.1117696 L190.942085,20.7511128 L188.595042,21.4143487 L186.254772,22.1014018 L183.921425,22.8121218 L181.595265,23.5465463 L179.276441,24.3044119 L176.965218,25.0856809 L174.661634,25.89009 L172.366063,26.7176015 L170.078658,27.5679897 L167.799455,28.4410665 L165.528869,29.3367189 L163.266296,30.2550975 L161.050268,31.1794963 L158.806057,32.1413332 L156.571704,33.1246921 L154.34736,34.129799 L152.133175,35.1565033 L149.92945,36.2050683 L147.736411,37.2751931 L145.554397,38.3670282 L143.383519,39.4804607 L141.22393,40.615453 L139.076193,41.7721932 L136.940308,42.9503426 L134.816388,44.1497885 L132.704884,45.3708317 L130.606099,46.6130584 L128.519843,47.8765816 L126.446718,49.1611001 L124.386875,50.4666516 L122.340277,51.793048 L120.307337,53.140327 L118.288244,54.5080745 L116.282959,55.8964035 L114.292085,57.3052011 L112.315396,58.7340159 L110.353269,60.1829982 L108.405815,61.6517343 L106.473187,63.1402241 L104.555533,64.6481666 L102.653006,66.1755618 L100.765754,67.7218829 L98.8938917,69.2872053 L97.0375688,70.871303 L95.1968608,72.4738753 L93.3719181,74.0946585 L91.5628161,75.7336152 L89.7696299,77.3903691 L87.99251,79.0647319 L86.2314566,80.7564781 L84.4779659,82.4740358 L83.4938921,83.4524657 L81.7750927,85.1874067 L80.073338,86.9385645 L78.3888161,88.7058639 L76.7216398,90.4892673 L75.0722231,92.2886242 L73.4407164,94.1039345 L71.8274207,95.9350479 L70.232449,97.7818513 L68.6559516,99.6442696 L67.0983803,101.522152 L65.5596972,103.415386 L64.040354,105.323859 L62.5401625,107.247457 L61.0597247,109.18588 L59.5990407,111.139279 L58.1581103,113.107163 L56.7374604,115.089458 L55.3368653,117.086127 L53.9568516,119.096905 L52.597269,121.121642 L51.2583055,123.160075 L49.9402244,125.212054 L48.6431388,127.277428 L47.3669356,129.355782 L46.1120289,131.447269 L44.878268,133.551284 L43.6658411,135.667829 L42.4747107,137.796678 L41.30514,139.937492 L40.1571667,142.090159 L39.0306027,144.254414 L37.9257866,146.43007 L36.8425302,148.61675 L35.7809842,150.814267 L34.741186,153.022507 L33.7229852,155.241056 L32.7266453,157.469727 L31.746936,159.719732 L31.2028998,160.995522 L30.2626604,163.248462 L29.3445828,165.510168 L28.4487798,167.780491 L27.5755525,170.059393 L26.7251643,172.34646 L25.8975023,174.64173 L25.0929803,176.9449 L24.3115608,179.255973 L23.5535824,181.574533 L22.8190074,183.900542 L22.1081369,186.233626 L21.4209709,188.573746 L20.7576222,190.920638 L20.1180908,193.27404 L19.5026778,195.633763 L18.9113831,197.999581 L18.3443573,200.371457 L17.8014498,202.748826 L17.2829617,205.131539 L16.788893,207.519594 L16.319206,209.912616 L15.8739007,212.310304 L15.4530148,214.712469 L15.0566611,217.119036 L14.6847268,219.529517 L14.3371742,221.943835 L14.0141915,224.361691 L13.71544,226.782782 L13.4411079,229.207109 L13.1911575,231.634559 L12.9653255,234.063401 L12.7637623,236.496494 L12.5863174,238.929588 L12.4328404,241.366896 L12.3032184,243.804204 L12.1975642,246.242904 L12.1156145,248.683034 L12.0572188,251.124594 L12.022377,253.567546 L12.0107881,255.97099 L12.0221888,258.41255 L12.0567673,260.855502 L12.1150125,263.295632 L12.1968117,265.735762 L12.3023154,268.175892 L12.4316364,270.6132 L12.5848124,273.049078 L12.7621067,275.482172 L12.9633689,277.913836 L13.1888999,280.344107 L13.4386998,282.770128 L13.7129191,285.194718 L14.0113696,287.615094 L14.3340889,290.034078 L14.6813405,292.447418 L15.0531619,294.857899 L15.4492146,297.264165 L15.8698371,299.666217 L16.3149919,302.064056 L16.7843779,304.457642 L17.2783337,306.845584 L17.7966713,309.227883 L18.3391273,311.60593 L18.9060026,313.97694 L19.4971467,316.343699 L20.1122587,318.703422 L20.751602,321.057539 L21.4146497,323.404582 L22.1017028,325.744589 L22.8125734,328.077522 L23.5468473,330.403419 L24.3047129,332.722242 L25.0859819,335.034029 L25.890391,337.33735 L26.7179025,339.633636 L27.5682907,341.920025 L28.4413675,344.199341 L29.3371704,346.470228 L30.2553985,348.732613 L31.1799855,350.948491 L32.1418223,353.192551 L33.1251813,355.428145 L34.1302881,357.652489 L35.1569924,359.865545 L36.2055574,362.070136 L37.2756823,364.263438 L38.3675174,366.445453 L39.4809499,368.61618 L40.6160926,370.775619 L41.7726823,372.922378 L42.9508318,375.059279 L44.1504657,377.183462 L45.3713961,379.294965 L46.6136228,381.393751 L47.877146,383.479856 L49.1616645,385.551852 L50.467216,387.61256 L51.7938006,389.659158 L53.1409666,391.691684 L54.5088646,393.711493 L55.8971936,395.715799 L57.3058408,397.707388 L58.734806,399.683475 L60.1836379,401.645452 L61.6525244,403.593319 L63.1410142,405.525684 L64.6489567,407.44394 L66.176239,409.346693 L67.7226731,411.233945 L69.2879954,413.105657 L70.8720932,414.961829 L72.4746654,416.8025 L74.0954487,418.627668 L75.7344054,420.435905 L77.3911592,422.230031 L79.0655221,424.007227 L80.7572306,425.767528 L82.4749012,427.520755 L83.4530677,428.50528 L85.1881215,430.224644 L86.9392794,431.925684 L88.7066164,433.609792 L90.4900198,435.276968 L92.2893767,436.927213 L94.1046871,438.557741 L95.935838,440.171338 L97.7826415,441.766573 L99.6450598,443.343484 L101.52298,444.900641 L103.416214,446.439475 L105.324724,447.958555 L107.248248,449.459311 L109.186821,450.938921 L111.140106,452.400169 L113.107991,453.841664 L115.090399,455.262013 L117.087067,456.662608 L119.097845,458.042057 L121.122432,459.401753 L123.160978,460.740302 L125.212957,462.059098 L127.27818,463.356748 L129.356685,464.631823 L131.448021,465.887143 L133.552037,467.121318 L135.668732,468.332917 L137.797431,469.524763 L139.938395,470.694032 L142.090911,471.842156 L144.255166,472.969134 L146.430822,474.073536 L148.617502,475.156793 L150.815019,476.218903 L153.023109,477.2584 L155.241771,478.276751 L157.470442,479.272527 L159.720297,480.252801 L160.9965,480.797251 L163.249327,481.736625 L165.511034,482.654853 L167.781357,483.550505 L170.060108,484.423582 L172.347326,485.274083 L174.642595,486.102046 L176.945766,486.907434 L179.256838,487.687423 L181.575398,488.446267 L183.901408,489.181105 L186.234491,489.891976 L188.574611,490.578879 L190.921353,491.241813 L193.274905,491.882173 L195.634628,492.497134 L198.000559,493.088128 L200.372134,493.655154 L202.749617,494.198174 L205.132329,494.717226 L207.520384,495.210881 L209.913256,495.680568 L212.311094,496.126287 L214.713259,496.546609 L217.119827,496.942963 L219.530307,497.315348 L221.944626,497.662337 L224.36233,497.985319 L226.783572,498.284372 L229.207899,498.558027 L231.635048,498.809068 L234.064605,499.03475 L236.496683,499.236463 L238.930905,499.41278 L241.367235,499.56652 L243.804543,499.696292 L246.244673,499.80206 L248.684803,499.883859 L251.126362,499.943082 L253.569314,499.976908 L255.971367,499.988196 L258.412926,499.976908 L260.855878,499.943082 L263.296008,499.883859 L265.736138,499.803452 L268.176268,499.697685 L270.613576,499.567912 L273.049454,499.414172 L275.482548,499.237856 L277.914212,499.036142 L280.344484,498.81046 L282.770504,498.560811 L285.195094,498.287156 L287.61547,497.988104 L290.034454,497.665121 L292.447794,497.318133 L294.858275,496.945747 L297.264541,496.550823 L299.666594,496.129072 L302.064432,495.684782 L304.458018,495.215095 L306.845961,494.721441 L309.228259,494.202388 L311.606306,493.66076 L313.977317,493.093734 L316.344076,492.50274 L318.703799,491.887779 L321.057915,491.24742 L323.404958,490.584485 L325.744965,489.897582 L328.077898,489.186712 L330.403795,488.451873 L332.722618,487.694459 L335.034405,486.91304 L337.337727,486.109082 L339.634012,485.281119 L341.920401,484.430618 L344.199717,483.557541 L346.470605,482.661889 L348.732989,481.743661 L350.948867,480.819789 L353.192927,479.857839 L355.428521,478.874743 L357.651436,477.869072 L359.865884,476.842255 L362.070474,475.794254 L364.262347,474.723716 L366.445791,473.631994 L368.616518,472.517733 L370.775957,471.383719 L372.922716,470.22713 L375.059617,469.047964 L377.182408,467.849045 L379.293912,466.62755 L381.392697,465.38634 L383.480195,464.122553 L385.552191,462.837621 L387.612899,461.531505 L389.659497,460.205635 L391.692023,458.858657 L393.711831,457.490496 L395.716138,456.102581 L397.707727,454.69352 L399.683814,453.264705 L401.645791,451.816136 L403.593658,450.346422 L405.526023,448.858384 L407.444278,447.350592 L409.347032,445.823046 L411.234284,444.277176 L413.105995,442.711553 L414.962168,441.127568 L416.802838,439.525259 L418.628007,437.903234 L420.436243,436.264278 L422.23037,434.608352 L424.007565,432.934102 L425.767866,431.241528 L427.521093,429.524986 L428.505619,428.546105 L430.224983,426.811201 L431.926022,425.059404 L433.61013,423.292067 L435.277307,421.509228 L436.927551,419.709457 L438.55808,417.894147 L440.171676,416.063334 L441.766911,414.21702 L443.343823,412.353774 L444.90098,410.476418 L446.439814,408.58356 L447.958893,406.673771 L449.459649,404.751301 L450.939259,402.8119 L452.400508,400.858388 L453.842003,398.890768 L455.262351,396.909037 L456.662947,394.911804 L458.042396,392.901854 L459.402091,390.876401 L460.740641,388.838269 L462.059437,386.786027 L463.357087,384.721067 L464.632161,382.641998 L465.887482,380.551678 L467.121657,378.447248 L468.334648,376.330139 L469.525101,374.201741 L470.694371,372.060626 L471.842495,369.908223 L472.969473,367.744533 L474.073875,365.568162 L475.157131,363.381933 L476.219242,361.184417 L477.258739,358.975612 L478.27709,356.75695 L479.272866,354.528391 L480.253139,352.278687 L480.797589,351.003613 L481.736963,348.749657 L482.655191,346.488665 L483.550844,344.217778 L484.423921,341.939854 L485.274422,339.652072 L486.102385,337.357217 L486.907772,335.053896 L487.687762,332.742108 L488.446606,330.424677 L489.181444,328.097388 L489.892315,325.764455 L490.579217,323.424448 L491.242152,321.077405 L491.882511,318.724719 L492.497473,316.364996 L493.088466,313.998237 L493.655492,311.627226 L494.198513,309.249179 L494.717565,306.866881 L495.21122,304.478938 L495.680907,302.085352 L496.126626,299.687514 L496.546948,297.285462 L496.943301,294.879195 L497.315687,292.468715 L497.662675,290.053982 L497.985658,287.636428 L498.28471,285.216052 L498.558365,282.791462 L498.809407,280.364012 L499.035088,277.93517 L499.236802,275.502076 L499.413118,273.068982 L499.566859,270.633104 L499.696631,268.194404 L499.802398,265.755704 L499.884197,263.315574 L499.942029,260.874014 L499.977284,258.431062 L499.988572,256.027618 L499.988572,255.971178 L499.977284,253.586284 L499.943459,251.143332 L499.885627,248.703202 L499.803828,246.263072 L499.698061,243.822942 L499.568288,241.385634 L499.414548,238.949756 L499.238232,236.516662 L499.036518,234.084998 L498.810837,231.654726 L498.561187,229.228142 L498.287532,226.803965 L497.98848,224.383025 L497.665497,221.96547 L497.318509,219.551001 L496.946123,217.140784 L496.551199,214.734217 L496.129448,212.332165 L495.685159,209.934327 L495.215472,207.541305 L494.721817,205.153362 L494.202764,202.770499 L493.661136,200.393017 L493.09411,198.021291 L492.503117,195.65536 L491.888155,193.295487 L491.247796,190.941934 L490.584861,188.594741 L489.897959,186.254621 L489.187088,183.921274 L488.45225,181.594964 L487.694836,179.276253 L486.913416,176.964917 L486.109459,174.661446 L485.281495,172.365875 L484.430994,170.078357 L483.557918,167.799154 L482.662265,165.528567 L481.744037,163.266183 L480.820165,161.049741 L479.858215,158.805681 L478.87512,156.571328 L477.869448,154.346871 L476.842631,152.132837 L475.794631,149.929112 L474.724092,147.736073 L473.63237,145.553908 L472.518109,143.383181 L471.384095,141.223742 L470.227506,139.075892 L469.04834,136.940007 L467.849421,134.816237 L466.627927,132.704734 L465.385286,130.605798 L464.122892,128.519692 L462.837959,126.446568 L461.531843,124.386574 L460.205974,122.340127 L458.858996,120.307036 L457.490834,118.287943 L456.102919,116.282809 L454.693858,114.291784 L453.265043,112.315133 L451.816475,110.353005 L450.346761,108.405552 L448.858722,106.472886 L447.35093,104.555195 L445.823385,102.652742 L444.277515,100.765453 L442.711892,98.8936283 L441.127907,97.0373054 L439.525598,95.1965974 L437.903573,93.3716548 L436.264616,91.5625527 L434.60869,89.7693665 L432.93444,87.992209 L431.241866,86.2311932 L429.525325,84.4775897 L428.546443,83.4934406 L426.81154,81.7746036 L425.059742,80.0728489 L423.292405,78.3882893 L421.509566,76.7211507 L419.709796,75.0718092 L417.894485,73.4403025 L416.063673,71.8268563 L414.217359,70.2318846 L412.354112,68.6555378 L410.476757,67.0978159 L408.583899,65.5592457 L406.674109,64.0397144 L404.75164,62.5396734 L402.812238,61.0592356 L400.858727,59.598401 L398.891106,58.1576212 L396.909375,56.7368584 L394.912143,55.3363762 L392.902192,53.956212 L390.87674,52.5966293 L388.838608,51.2578163 L386.786366,49.9397353 L384.721406,48.6424991 L382.642336,47.3664465 L380.552017,46.1113892 L378.447587,44.8776284 L376.330477,43.6652015 L374.20208,42.4741839 L372.060965,41.3046132 L369.908562,40.1564894 L367.744871,39.0300759 L365.568501,37.9252598 L363.382272,36.8420035 L361.184755,35.7804574 L358.975951,34.7405087 L356.757288,33.7224209 L354.52873,32.7259304 L352.279026,31.746334 L351.003952,31.2022978 L348.749996,30.2620584 L346.489004,29.3439807 L344.218116,28.4481778 L341.940193,27.5749505 L339.652411,26.7244494 L337.357556,25.8969379 L335.054234,25.0922654 L332.742447,24.3109964 L330.423624,23.5528675 L328.097727,22.818443 L325.764794,22.107422 L323.424787,21.420256 L321.077744,20.7569073 L318.725057,20.117564 L316.365334,19.5020381 L313.998575,18.9107435 L311.627565,18.3437177 L309.249518,17.8009607 L306.867219,17.2824726 L304.479277,16.7882534 L302.085691,16.3185664 L299.689282,15.8732611 L297.285838,15.4523752 L294.879571,15.0560215 L292.469091,14.6840872 L290.055751,14.3365346 L287.636767,14.0135519 L285.216391,13.7148004 L282.7918,13.4404683 L280.36435,13.1905179 L277.935508,12.9646858 L275.502414,12.7631226 L273.069321,12.5856778 L270.632013,12.4322008 L268.194705,12.3025788 L265.756005,12.1969246 L263.315875,12.1149749 L260.874315,12.0565791 L258.431363,12.0217373 L256.027919,12.0101485 Z" id="形状" fill="#0E9F77"></path>
            </g>
        </g>
    </g>
</svg>