<svg width="16" height="16" viewBox="0 0 16 16" fill="none" xmlns="http://www.w3.org/2000/svg">
<rect width="16" height="16" fill="url(#paint0_linear_94_618)"/>
<g clip-path="url(#clip0_94_618)">
<path opacity="0.2" d="M5.75099 2.87183H10.3219C10.9271 2.87183 11.4447 3.30465 11.552 3.9002C11.5746 4.02598 11.5693 4.15518 11.5366 4.27871C11.5038 4.40223 11.4444 4.51706 11.3624 4.61512C11.2805 4.71317 11.178 4.79206 11.0623 4.84622C10.9465 4.90038 10.8203 4.92849 10.6925 4.92858H5.38107C5.25328 4.92849 5.12706 4.90038 5.01131 4.84622C4.89557 4.79206 4.79311 4.71317 4.71116 4.61512C4.6292 4.51706 4.56976 4.40223 4.537 4.27871C4.50425 4.15518 4.49899 4.02598 4.52158 3.9002C4.57338 3.61183 4.72489 3.35084 4.94962 3.16286C5.17435 2.97488 5.458 2.87186 5.75099 2.87183Z" fill="white"/>
<path d="M11.0822 3.83728H4.99123C4.64077 3.83716 4.30364 3.97159 4.04942 4.21283C3.7952 4.45407 3.6433 4.7837 3.62508 5.13369L3.28457 11.6896C3.27491 11.875 3.3031 12.0603 3.3674 12.2345C3.4317 12.4086 3.53078 12.5678 3.6586 12.7024C3.78641 12.837 3.94029 12.9441 4.11085 13.0174C4.28142 13.0906 4.4651 13.1283 4.65072 13.1282H11.4227C11.6082 13.1282 11.7919 13.0904 11.9623 13.0172C12.1328 12.9439 12.2866 12.8367 12.4144 12.7021C12.5421 12.5675 12.6411 12.4084 12.7054 12.2343C12.7696 12.0602 12.7978 11.8749 12.7882 11.6896L12.4476 5.13369C12.4294 4.78382 12.2776 4.45429 12.0236 4.21306C11.7695 3.97184 11.4325 3.83733 11.0822 3.83728Z" fill="url(#paint1_linear_94_618)"/>
<path d="M5.60693 5.80591C5.6333 5.89234 5.66514 5.97745 5.70236 6.06077C5.82734 6.3406 6.01054 6.59485 6.24149 6.80902C6.47244 7.02319 6.74661 7.19307 7.04836 7.30898C7.35011 7.42489 7.67352 7.48454 8.00013 7.48454C8.32674 7.48454 8.65015 7.42489 8.9519 7.30898C9.25364 7.19307 9.52782 7.02319 9.75877 6.80902C9.98972 6.59485 10.1729 6.3406 10.2979 6.06077C10.3351 5.97745 10.367 5.89234 10.3933 5.80591H9.73775C9.73718 5.80721 9.7366 5.8085 9.73602 5.8098C9.64581 6.01176 9.51218 6.19842 9.34033 6.35779C9.16838 6.51725 8.96177 6.64596 8.73124 6.73452C8.50066 6.82309 8.2521 6.86916 8.00013 6.86916C7.74816 6.86916 7.4996 6.82309 7.26902 6.73452C7.03848 6.64596 6.83188 6.51725 6.65993 6.35779C6.48808 6.19842 6.35445 6.01176 6.26424 5.8098C6.26366 5.8085 6.26308 5.80721 6.26251 5.80591H5.60693Z" fill="url(#paint2_linear_94_618)"/>
</g>
<defs>
<linearGradient id="paint0_linear_94_618" x1="16" y1="0" x2="0" y2="16" gradientUnits="userSpaceOnUse">
<stop stop-color="#8DC3FF"/>
<stop offset="1" stop-color="#3291FA"/>
</linearGradient>
<linearGradient id="paint1_linear_94_618" x1="8.03636" y1="3.83728" x2="8.03636" y2="13.1282" gradientUnits="userSpaceOnUse">
<stop stop-color="white"/>
<stop offset="1" stop-color="white" stop-opacity="0.8"/>
</linearGradient>
<linearGradient id="paint2_linear_94_618" x1="8.00013" y1="5.80591" x2="8.00013" y2="7.48454" gradientUnits="userSpaceOnUse">
<stop stop-color="#617DBC"/>
<stop offset="1" stop-color="#80BCFF"/>
</linearGradient>
<clipPath id="clip0_94_618">
<rect width="10.2564" height="10.2564" fill="white" transform="translate(2.87158 2.87183)"/>
</clipPath>
</defs>
</svg>
