<svg xmlns="http://www.w3.org/2000/svg" fill="none" viewBox="0 0 16 16">
  <path fill="url(#a)" d="M0 0h16v16H0z" />
  <path
    fill="url(#b)"
    d="M6.2 7.87c.62-.36.93-.54 1.3-.61.31-.06.65-.06.97 0 .36.07.67.25 1.3.6l.95.56c1.15.66 1.72 1 1.94 1.38.19.33.19.7 0 1.03-.22.38-.79.71-1.94 1.37l-1.21.7c-.52.3-.78.46-1.09.51-.26.05-.54.05-.8 0-.3-.05-.57-.2-1.09-.5l-2.15-1.24c-.83-.49-1.25-.73-1.4-1a.74.74 0 0 1 0-.76c.15-.27.57-.51 1.4-1L6.2 7.88Z"
  />
  <path
    fill="#EBECF7"
    d="M7 3.27c.62-.36.93-.54 1.3-.6.31-.07.65-.07.97 0 .36.06.67.24 1.3.6L12 4.1c.43.25.71.41.89.56.12.08.22.2.3.34.23.38.23 1.04.23 2.36v1.22c0 .72 0 1.08-.12 1.43-.1.3-.28.6-.49.84-.24.28-.55.46-1.18.82l-1.37.8c-1.15.66-1.72 1-2.16.99-.39 0-.7-.19-.9-.52C7 12.56 7 11.9 7 10.58v-1.6c0-.36-.25-.8-.57-.98l-1.16-.67L5 7.17c-.84-.48-1.25-.72-1.4-1a.74.74 0 0 1 0-.75c.15-.27.56-.51 1.4-1l2-1.15Z"
  />
  <path
    fill="url(#c)"
    d="M10.71 6.72c.03-.17.16-.34.3-.38.12-.05.2.06.18.23l-.82 4.7c-.03.16-.16.33-.29.37-.13.05-.21-.06-.18-.23l.81-4.7Z"
  />
  <path
    fill="url(#d)"
    d="M11.5 7.17c.1-.16.25-.25.35-.2l.92.54c.07.04.09.15.05.28a.58.58 0 0 1-.05.12l-.92 1.6c-.1.16-.25.25-.35.2-.1-.06-.1-.24 0-.4l.75-1.3-.75-.44c-.1-.05-.1-.23 0-.4Z"
  />
  <path
    fill="url(#e)"
    d="M9.3 8.44c.1-.17.26-.26.35-.2.1.05.1.23 0 .4l-.74 1.3.74.43c.1.05.1.23 0 .4-.1.16-.25.25-.34.2l-.92-.54c-.1-.05-.1-.23 0-.4l.92-1.6Z"
  />
  <defs>
    <linearGradient
      id="a"
      x1="16"
      x2="0"
      y1="0"
      y2="16"
      gradientUnits="userSpaceOnUse"
    >
      <stop stop-color="#636363" />
      <stop offset="1" />
    </linearGradient>
    <linearGradient
      id="b"
      x1="10.17"
      x2="4.06"
      y1="12.51"
      y2="12.58"
      gradientUnits="userSpaceOnUse"
    >
      <stop stop-color="#7A9BFF" />
      <stop offset="1" stop-color="#7A9BFF" stop-opacity=".2" />
    </linearGradient>
    <linearGradient
      id="c"
      x1="8.12"
      x2="9.93"
      y1="8.38"
      y2="11.65"
      gradientUnits="userSpaceOnUse"
    >
      <stop />
      <stop offset="1" stop-color="#666" />
    </linearGradient>
    <linearGradient
      id="d"
      x1="8.12"
      x2="9.93"
      y1="8.38"
      y2="11.65"
      gradientUnits="userSpaceOnUse"
    >
      <stop />
      <stop offset="1" stop-color="#666" />
    </linearGradient>
    <linearGradient
      id="e"
      x1="8.12"
      x2="9.93"
      y1="8.38"
      y2="11.65"
      gradientUnits="userSpaceOnUse"
    >
      <stop />
      <stop offset="1" stop-color="#666" />
    </linearGradient>
  </defs>
</svg>
