<svg xmlns="http://www.w3.org/2000/svg" id="search" viewBox="0 0 603.8 96.8"><defs><style>.a,.b{fill:#004481}.b{fill-rule:evenodd}.c{fill:#fff}</style></defs><path class="a" d="M193.7 72.8L186.6 56l-2.6 4v12.8h-12.2V24.4H184V43h.1l9-18.6h13l-11.7 21.2 13.2 27.2h-13.9zm34.6 0L220.2 43h-.2v30h-11.3V24.3h13.6l7.8 29.9h.2V24.4h11.4v48.4h-13.4z"/><path class="b" d="M246 48.6c0 18.1 4.3 25.2 16.7 25.2s16.7-7 16.7-25.2-4.3-25.1-16.7-25.1-16.7 7-16.7 25.1m12.6 0c0-13 .4-16.6 4-16.6s4.2 3.6 4.2 16.6-.4 16.6-4.1 16.6-4.1-3.5-4.1-16.6m25.1 24.2H296V53.5h3.2c3 0 4 1.4 4 6.9v3.2c0 2 0 6.7 1.2 9.2h13v-.6a3.3 3.3 0 01-1.4-1.5c-.5-1-.5-4.2-.5-6.7v-4.2c0-6.4-1.8-10.3-7.7-10.8v-.2c5.6-.8 8-5 8-11.5 0-7.5-3.5-12.9-12.8-12.9h-19zM296 33.5h2.4c3.7 0 5.2 1.7 5.2 5.6 0 3.5-1.7 5.8-5.1 5.8h-2.5zm25.4 39.3h12.2V53.5h3.2c3 0 4 1.4 4 6.9v3.2c0 2 0 6.7 1.2 9.2h13v-.6a3.3 3.3 0 01-1.4-1.5c-.6-1-.6-4.2-.6-6.7v-4.2c0-6.4-1.8-10.3-7.6-10.8v-.2c5.5-.8 8-5 8-11.5 0-7.5-3.6-12.9-12.9-12.9h-19zm12.2-39.3h2.3c3.7 0 5.2 1.7 5.2 5.6 0 3.5-1.6 5.8-5 5.8h-2.5z"/><path class="a" d="M357.8 48h20.4v10.4h-20.4z"/><path class="b" d="M383.3 72.8h18.4c10.2 0 14.1-5.9 14.1-14.3 0-5-2.5-10.4-8.6-11v-.2c5.1-1 7.3-5.6 7.3-10.8 0-7.3-4-12-12.8-12h-18.4zm12.2-39.3h3c2.4 0 3.8 2.3 3.8 5s-1.4 4.9-3.8 4.9h-3zm0 18.5h3.4c2.2 0 4.3 2 4.3 5.8 0 4-2 6-4.3 6h-3.4zm25 20.8h12.2V53.5h3.2c3 0 4 1.4 4 6.9v3.2c0 2 0 6.7 1.2 9.2h13v-.6a3.3 3.3 0 01-1.4-1.5c-.6-1-.6-4.2-.6-6.7v-4.2c0-6.4-1.8-10.3-7.7-10.8v-.2c5.6-.8 8-5 8-11.5 0-7.5-3.5-12.9-12.8-12.9h-19zm12.2-39.3h2.3c3.7 0 5.2 1.7 5.2 5.6 0 3.5-1.7 5.8-5.1 5.8h-2.5z"/><path class="a" d="M458 72.8h28.3V62.5h-16V53h14.5V43h-14.6v-8.3h15.5V24.4h-27.6v48.4zm32.3 0h11.4v-36h.1l6.5 36h8.8l6.5-36h.1v36h11.4V24.4h-17.4l-5 28.7-5-28.7h-17.4v48.4zM570 38.4c0-10.4-4.5-15-15.1-15-10.3 0-15.3 5.4-15.3 15.2 0 17.1 19 12.4 19 22 0 2.6-1.4 4.7-3.8 4.7s-4-1.5-4-5.6v-1.2h-11.9v1.7c0 10 5.7 13.6 15.8 13.6 10.7 0 16.5-4.6 16.5-15 0-17.6-19.9-13-19.9-22.5 0-2.2 1.2-4.3 3.8-4.3 2.4 0 3.5 2.4 3.5 5.2v1.2zm5.5 34.4h28.3V62.5h-16.1V53h14.5V43h-14.5v-8.3h15.5V24.4h-27.7v48.4zM0 0h137v96.8H0z"/><path class="c" d="M37.4 48.4c0-17.8 13.9-32.3 31-32.3s31.2 14.5 31.2 32.3-14 32.2-31.1 32.2-31.1-14.4-31.1-32.2m31 24.5c13 0 23.6-11 23.6-24.5S81.5 23.9 68.4 23.9s-23.7 11-23.7 24.5 10.6 24.5 23.7 24.5"/><path class="c" d="M105.6 30.3a44 44 0 010 36.2h-8.5a36 36 0 000-36.2zm-66 0a36 36 0 000 36.1h-8.4a44 44 0 010-36.1zm14.8 0h10v36.1h-10zm28.5 36.1l-8.5-18 8.5-18h-10l-8.4 18 8.4 18h10z"/><path class="c" d="M24.8 48.4a46.4 46.4 0 013.6-18H21l-8.4 18 8.4 18h7.5a46.4 46.4 0 01-3.6-18m87.2 0a46.4 46.4 0 00-3.6-18h7.5l8.4 18-8.4 18h-7.5a46.4 46.4 0 003.6-18"/></svg>