<svg width="1031" height="303" viewBox="0 0 1031 303" fill="none" xmlns="http://www.w3.org/2000/svg">
<g clip-path="url(#clip0_6700_24751)">
<path d="M386.034 118.4V96.0909H503.246V118.4H457.839V243H431.441V118.4H386.034ZM557.494 245.152C546.447 245.152 536.906 242.857 528.872 238.266C520.886 233.627 514.741 227.075 510.437 218.611C506.133 210.098 503.981 200.08 503.981 188.555C503.981 177.221 506.133 167.274 510.437 158.714C514.789 150.106 520.862 143.411 528.657 138.629C536.452 133.799 545.61 131.384 556.131 131.384C562.922 131.384 569.33 132.483 575.355 134.683C581.429 136.835 586.785 140.183 591.423 144.726C596.11 149.269 599.792 155.055 602.47 162.085C605.148 169.067 606.487 177.388 606.487 187.048V195.011H516.176V177.508H581.596C581.548 172.534 580.472 168.111 578.368 164.237C576.264 160.316 573.323 157.231 569.545 154.984C565.815 152.736 561.463 151.612 556.49 151.612C551.181 151.612 546.519 152.903 542.502 155.486C538.485 158.02 535.352 161.368 533.105 165.528C530.905 169.641 529.781 174.16 529.733 179.086V194.365C529.733 200.773 530.905 206.273 533.248 210.864C535.591 215.407 538.867 218.898 543.075 221.337C547.284 223.728 552.209 224.923 557.852 224.923C561.63 224.923 565.05 224.397 568.11 223.345C571.171 222.245 573.825 220.643 576.073 218.539C578.32 216.435 580.018 213.829 581.166 210.72L605.411 213.446C603.881 219.854 600.964 225.449 596.66 230.232C592.404 234.966 586.952 238.648 580.305 241.278C573.658 243.861 566.054 245.152 557.494 245.152ZM660.162 245.224C653.18 245.224 646.891 243.98 641.296 241.494C635.748 238.959 631.349 235.229 628.097 230.303C624.893 225.378 623.291 219.304 623.291 212.083C623.291 205.866 624.439 200.725 626.734 196.661C629.029 192.596 632.162 189.344 636.131 186.905C640.1 184.466 644.572 182.625 649.545 181.381C654.566 180.09 659.755 179.158 665.111 178.584C671.567 177.914 676.804 177.317 680.821 176.79C684.838 176.217 687.755 175.356 689.572 174.208C691.437 173.013 692.37 171.171 692.37 168.685V168.254C692.37 162.85 690.768 158.666 687.564 155.701C684.359 152.736 679.745 151.254 673.719 151.254C667.359 151.254 662.314 152.64 658.583 155.414C654.901 158.188 652.414 161.464 651.123 165.241L626.877 161.798C628.79 155.103 631.947 149.508 636.346 145.013C640.746 140.47 646.126 137.074 652.486 134.827C658.846 132.531 665.876 131.384 673.576 131.384C678.884 131.384 684.168 132.005 689.429 133.249C694.689 134.492 699.495 136.548 703.847 139.418C708.199 142.239 711.69 146.089 714.32 150.967C716.998 155.844 718.337 161.942 718.337 169.259V243H693.374V227.864H692.513C690.935 230.925 688.711 233.794 685.842 236.472C683.02 239.103 679.458 241.231 675.154 242.857C670.898 244.435 665.9 245.224 660.162 245.224ZM666.904 226.143C672.117 226.143 676.636 225.115 680.462 223.058C684.288 220.954 687.229 218.18 689.285 214.737C691.389 211.294 692.441 207.54 692.441 203.475V190.491C691.628 191.161 690.242 191.783 688.281 192.357C686.368 192.93 684.216 193.433 681.825 193.863C679.434 194.293 677.067 194.676 674.723 195.011C672.38 195.345 670.348 195.632 668.626 195.871C664.752 196.397 661.285 197.258 658.225 198.454C655.164 199.649 652.749 201.323 650.98 203.475C649.21 205.579 648.326 208.305 648.326 211.653C648.326 216.435 650.071 220.045 653.562 222.484C657.053 224.923 661.501 226.143 666.904 226.143ZM745.596 243V96.0909H771.563V151.038H772.639C773.978 148.36 775.867 145.515 778.306 142.502C780.745 139.442 784.044 136.835 788.205 134.683C792.365 132.483 797.674 131.384 804.13 131.384C812.642 131.384 820.317 133.559 827.156 137.911C834.042 142.215 839.494 148.599 843.511 157.064C847.576 165.481 849.608 175.81 849.608 188.053C849.608 200.152 847.624 210.433 843.654 218.898C839.685 227.362 834.281 233.818 827.443 238.266C820.604 242.713 812.857 244.937 804.201 244.937C797.889 244.937 792.652 243.885 788.492 241.781C784.331 239.676 780.984 237.142 778.449 234.177C775.962 231.164 774.026 228.319 772.639 225.641H771.132V243H745.596ZM771.061 187.909C771.061 195.035 772.065 201.275 774.074 206.631C776.13 211.987 779.071 216.172 782.897 219.185C786.77 222.15 791.457 223.632 796.956 223.632C802.695 223.632 807.501 222.102 811.375 219.041C815.248 215.933 818.165 211.701 820.126 206.344C822.135 200.941 823.139 194.795 823.139 187.909C823.139 181.071 822.159 174.997 820.198 169.689C818.237 164.381 815.32 160.22 811.446 157.207C807.573 154.195 802.743 152.688 796.956 152.688C791.409 152.688 786.699 154.147 782.825 157.064C778.951 159.981 776.01 164.07 774.002 169.33C772.041 174.591 771.061 180.784 771.061 187.909ZM897.651 96.0909V243H871.684V96.0909H897.651ZM973.132 245.152C962.086 245.152 952.545 242.857 944.511 238.266C936.525 233.627 930.38 227.075 926.076 218.611C921.772 210.098 919.62 200.08 919.62 188.555C919.62 177.221 921.772 167.274 926.076 158.714C930.427 150.106 936.501 143.411 944.296 138.629C952.091 133.799 961.249 131.384 971.77 131.384C978.56 131.384 984.968 132.483 990.994 134.683C997.067 136.835 1002.42 140.183 1007.06 144.726C1011.75 149.269 1015.43 155.055 1018.11 162.085C1020.79 169.067 1022.13 177.388 1022.13 187.048V195.011H931.814V177.508H997.235C997.187 172.534 996.111 168.111 994.007 164.237C991.903 160.316 988.962 157.231 985.184 154.984C981.453 152.736 977.102 151.612 972.128 151.612C966.82 151.612 962.157 152.903 958.14 155.486C954.123 158.02 950.991 161.368 948.743 165.528C946.543 169.641 945.42 174.16 945.372 179.086V194.365C945.372 200.773 946.543 206.273 948.887 210.864C951.23 215.407 954.506 218.898 958.714 221.337C962.922 223.728 967.848 224.923 973.491 224.923C977.269 224.923 980.688 224.397 983.749 223.345C986.81 222.245 989.464 220.643 991.711 218.539C993.959 216.435 995.657 213.829 996.804 210.72L1021.05 213.446C1019.52 219.854 1016.6 225.449 1012.3 230.232C1008.04 234.966 1002.59 238.648 995.944 241.278C989.296 243.861 981.693 245.152 973.132 245.152Z" fill="black"/>
<path d="M189.375 18.225L190.156 18.2308C206.512 18.4858 220.515 26.7206 232.025 36.3119C237.824 41.1442 251.252 53.1332 263.274 66.598C269.282 73.3267 275.036 80.5312 279.313 87.474C283.501 94.2726 286.668 101.439 286.668 107.944V229.144C286.668 260.245 259.821 284.775 229.144 284.775H111.731V280.275L111.727 284.775H111.691C111.674 284.775 111.654 284.774 111.631 284.774C111.585 284.773 111.526 284.773 111.455 284.771C111.311 284.767 111.118 284.759 110.877 284.745C110.396 284.718 109.725 284.666 108.887 284.566C107.211 284.365 104.863 283.969 102.026 283.196C96.5241 281.695 89.1886 278.769 81.3823 273.073L80.6255 272.512C72.7489 266.605 57.3498 252.63 43.8911 236.528C37.1507 228.463 30.7994 219.75 26.1118 211.146C21.4659 202.618 18.2251 193.785 18.2251 185.587V81.431C18.2252 69.4991 25.5893 53.7934 36.9009 41.2523C48.3069 28.6066 64.5793 18.2251 83.3247 18.225H189.375ZM111.731 85.931C110.284 85.9311 108.008 86.4779 105.202 87.7875C102.469 89.0625 99.5448 90.9169 96.8716 93.1625C91.2978 97.8445 87.8247 103.327 87.8247 107.944V229.144C87.8248 230.826 88.5667 233.196 90.2876 236.055C91.9654 238.843 94.3576 241.735 97.0942 244.362C99.8288 246.987 102.791 249.237 105.531 250.802C108.389 252.435 110.527 253.05 111.731 253.05H229.144C230.348 253.05 232.486 252.436 235.344 250.802C238.084 249.237 241.047 246.987 243.782 244.362C246.518 241.735 248.91 238.843 250.587 236.055C252.308 233.196 253.05 230.826 253.05 229.144V107.944C253.05 106.18 252.366 103.899 250.831 101.289C249.32 98.7208 247.139 96.101 244.567 93.7435C239.224 88.8461 233.175 85.9311 229.144 85.931H111.731Z" fill="black" stroke="white" stroke-width="9"/>
<path d="M145.819 200.738V117.413C145.819 111.731 166.65 117.413 166.65 117.413C166.65 117.413 176.119 119.306 176.119 123.094V142.031H198.844C204.525 142.031 208.313 164.756 198.844 164.756H176.119V200.738H198.844C206.419 200.738 202.631 215.888 198.844 221.569C195.056 227.25 176.119 225.356 176.119 225.356C176.119 225.356 145.819 225.356 145.819 200.738Z" fill="black"/>
</g>
<defs>
<clipPath id="clip0_6700_24751">
<rect width="1031" height="303" fill="white"/>
</clipPath>
</defs>
</svg>
